M48
; DRILL file {KiCad 8.0.9-8.0.9-0~ubuntu24.04.1} date 2025-11-03T14:25:39+0000
; FORMAT={2:4/ absolute / inch / suppress leading zeros}
; #@! TF.CreationDate,2025-11-03T14:25:39+00:00
; #@! TF.GenerationSoftware,Kicad,Pcbnew,8.0.9-8.0.9-0~ubuntu24.04.1
; #@! TF.FileFunction,MixedPlating,1,4
FMAT,2
INCH,TZ
; #@! TA.AperFunction,Plated,PTH,ComponentDrill
T1C0.0118
; #@! TA.AperFunction,Plated,PTH,ComponentDrill
T2C0.0118
; #@! TA.AperFunction,Plated,PTH,ViaDrill
T3C0.0157
; #@! TA.AperFunction,Plated,PTH,ComponentDrill
T4C0.0197
; #@! TA.AperFunction,Plated,PTH,ComponentDrill
T5C0.0236
; #@! TA.AperFunction,Plated,PTH,ComponentDrill
T6C0.0276
; #@! TA.AperFunction,Plated,PTH,ViaDrill
T7C0.0315
; #@! TA.AperFunction,Plated,PTH,ComponentDrill
T8C0.0320
; #@! TA.AperFunction,Plated,PTH,ComponentDrill
T9C0.0335
; #@! TA.AperFunction,Plated,PTH,ComponentDrill
T10C0.0394
; #@! TA.AperFunction,Plated,PTH,ComponentDrill
T11C0.0512
; #@! TA.AperFunction,Plated,PTH,ViaDrill
T12C0.1181
; #@! TA.AperFunction,Plated,PTH,ComponentDrill
T13C0.1200
; #@! TA.AperFunction,Plated,PTH,ComponentDrill
T14C0.1260
; #@! TA.AperFunction,NonPlated,NPTH,ComponentDrill
T15C0.0256
; #@! TA.AperFunction,NonPlated,NPTH,ComponentDrill
T16C0.0591
; #@! TA.AperFunction,NonPlated,NPTH,ComponentDrill
T17C0.0906
; #@! TA.AperFunction,NonPlated,NPTH,ComponentDrill
T18C0.1299
%
G90
G05
T1
X26697Y18498
X26904Y18843
X27199Y18380
X28596Y18409
T2
X27116Y30358
X27510Y30358
X28636Y24679
X29108Y24679
X29581Y24679
X30053Y24679
X30368Y2297
X30368Y1904
X31467Y30358
X31860Y30358
X32130Y14610
X32130Y14295
X32130Y13980
X32130Y13665
X32130Y13350
X32130Y13035
X32130Y12720
X32130Y12406
X32130Y12091
X32130Y11776
X32130Y11461
X32130Y11146
X32130Y10831
X32130Y10516
X32130Y9886
X32130Y9335
X32130Y9020
X32130Y8705
X32130Y8390
X32130Y8075
X32130Y7760
X32130Y16303
X32130Y10201
X32287Y4925
X32602Y4925
X32917Y4925
X32986Y24679
X33232Y4925
X33459Y24679
X33547Y4925
X33862Y4925
X33931Y24679
X34177Y4925
X34404Y24679
X34492Y4925
X34728Y18862
X34807Y4925
X35122Y4925
X35201Y18862
X35437Y4925
X35673Y18862
X35752Y4925
X36146Y18862
X36618Y18862
X36697Y4925
X37012Y4925
X37091Y18862
X37327Y4925
X37563Y18862
X37642Y4925
X37957Y4925
X38035Y18862
X38272Y4925
X38508Y18862
X38587Y4925
X38902Y4925
X38980Y18862
X39217Y4925
X39453Y18862
X39925Y18862
X40398Y18862
X40870Y18862
X40909Y4925
X41343Y18862
X41815Y18862
X41972Y4925
X42287Y18862
X42366Y4925
X42760Y18862
X43232Y18862
X43705Y18862
X44177Y18862
X44679Y28793
X45053Y28793
X45073Y32219
X45122Y18862
X45280Y17878
X45280Y17484
X45280Y13272
X45280Y12878
X45280Y12484
X45280Y12091
X45280Y11697
X45280Y11303
X45280Y10909
X45280Y10516
X45280Y9492
X45280Y9177
X45280Y7327
X45280Y6776
X45280Y4925
X45427Y32219
X45427Y28793
X48400Y15814
X48793Y15814
X49187Y15814
X50085Y15814
X50485Y15814
X51411Y26283
X51805Y26283
X52199Y26283
X52593Y26283
T3
X3826Y26524
X4180Y27504
X4464Y28602
X4550Y29594
X4716Y30693
X4759Y31780
X4862Y35579
X4908Y32941
X6751Y36157
X8743Y36236
X10669Y35319
X10676Y24815
X10961Y10461
X11216Y34882
X11349Y29953
X11365Y31406
X11499Y1614
X12078Y32134
X12117Y18413
X12444Y19984
X13479Y3531
X13637Y32059
X13991Y29157
X14177Y11098
X14475Y17161
X14531Y32130
X14948Y36709
X15034Y3382
X15086Y7854
X15161Y6697
X15164Y7473
X15201Y5516
X15358Y32976
X15527Y29000
X15752Y8390
X16382Y8311
X16411Y6681
X16579Y32839
X16618Y3862
X16776Y31598
X16854Y4965
X16889Y30488
X16933Y8272
X17045Y5878
X17118Y14067
X17508Y32872
X17602Y3823
X17642Y2996
X17642Y2051
X17681Y8272
X17681Y5870
X17701Y32484
X17870Y5128
X17995Y17831
X18024Y15079
X18176Y13850
X18278Y4604
X18421Y8315
X18429Y5870
X18508Y1303
X18705Y30201
X18882Y13831
X18882Y12618
X18941Y4650
X19020Y2957
X19058Y34248
X19177Y8469
X19453Y2169
X19453Y1303
X19461Y13799
X19524Y27740
X19531Y4571
X19551Y8232
X19571Y5398
X19807Y9414
X19853Y24071
X20004Y8311
X20240Y4610
X20240Y2169
X20240Y1303
X20260Y6362
X20550Y34000
X20673Y9610
X20764Y28945
X20988Y1303
X21028Y2169
X21106Y31894
X21224Y6697
X21389Y27563
X21538Y19659
X21579Y4689
X21646Y16890
X21866Y22752
X21965Y18445
X22016Y20953
X22051Y1697
X22287Y27051
X22489Y391
X22583Y31520
X22799Y2602
X22839Y2192
X22917Y3035
X22953Y18209
X23016Y27602
X23075Y5083
X23106Y24996
X23154Y402
X23307Y11531
X23508Y1343
X23547Y594
X23665Y6697
X23752Y23665
X23764Y30024
X23820Y9068
X23862Y31382
X24283Y26177
X24335Y17760
X24335Y17209
X24802Y22291
X24807Y17748
X25157Y17992
X25219Y33965
X25471Y19642
X25475Y18898
X25487Y20433
X25634Y22760
X25723Y15004
X25810Y13524
X25814Y14260
X25988Y26343
X26028Y29571
X26047Y28075
X26067Y32083
X26461Y16776
X26960Y21752
X27031Y11717
X27130Y24295
X27247Y12992
X27370Y16755
X27609Y33988
X27858Y9984
X27944Y13469
X28114Y21776
X28406Y32079
X28513Y14263
X28646Y12602
X29078Y18886
X29256Y13508
X29303Y9870
X29335Y12720
X29550Y30772
X29621Y16476
X29668Y23610
X29689Y9531
X29728Y13311
X30028Y32087
X30043Y21224
X30201Y19059
X30464Y9039
X30468Y30941
X30468Y17295
X30476Y29531
X30476Y27209
X30516Y12406
X30516Y24728
X30516Y15831
X30516Y13980
X30516Y9453
X30634Y6815
X30641Y22673
X30650Y21657
X30673Y1461
X30688Y2687
X30713Y3783
X30732Y4177
X31287Y350
X31323Y3724
X31402Y7602
X31461Y18114
X31559Y5173
X31637Y4300
X31638Y3926
X31736Y15122
X31771Y20354
X31776Y17720
X31815Y6185
X31838Y9673
X32071Y3825
X32406Y2130
X32720Y30870
X32799Y1343
X32848Y4175
X33114Y20280
X33114Y280
X33350Y2445
X33547Y32130
X33567Y31315
X34138Y20319
X34167Y22720
X34256Y30831
X34256Y4571
X34256Y594
X34409Y22197
X34529Y2597
X34728Y32130
X34807Y1343
X34965Y398
X35295Y23047
X35713Y28154
X35735Y26694
X35799Y22339
X35894Y35957
X35949Y31579
X35988Y2406
X36028Y4650
X36067Y280
X36159Y27911
X36377Y3469
X37091Y32130
X37101Y35921
X37130Y21382
X37209Y28902
X37760Y3154
X37917Y29252
X38035Y21224
X38311Y31461
X38311Y24610
X38504Y3803
X38665Y28626
X38902Y25949
X38933Y23350
X39138Y4453
X39374Y32091
X39649Y33933
X39657Y34465
X39925Y4610
X40181Y24606
X40516Y29807
X40701Y20587
X40785Y27642
X40791Y25988
X40909Y358
X41303Y25319
X41397Y24524
X41420Y22705
X41421Y4571
X41976Y36039
X42003Y4225
X42012Y24059
X42524Y22248
X42760Y27524
X42786Y33557
X42826Y34413
X42957Y31972
X43547Y25870
X43866Y4220
X43916Y37024
X44217Y2406
X44374Y22406
X44453Y4571
X44614Y20083
X44650Y27209
X44650Y19157
X44650Y24059
X44807Y21618
X45122Y398
X45201Y23823
X45398Y25319
X45555Y18429
X45555Y17012
X45594Y13823
X45594Y10004
X45634Y8744
X45634Y7799
X45634Y3350
X45673Y7051
X45673Y6343
X45713Y20516
X45857Y30364
X45988Y33194
X46570Y33185
X46854Y32470
X46933Y8587
X47012Y358
X47130Y25870
X47209Y15490
X47253Y17566
X47287Y10752
X47406Y26303
X47406Y12839
X47445Y32470
X47445Y17012
X47494Y18154
X47524Y21657
X47701Y34902
X47799Y26697
X47917Y32445
X47957Y13894
X47996Y437
X48342Y38874
X48705Y26736
X48961Y15457
X49177Y11579
X49243Y34280
X49256Y26736
X49531Y8193
X49650Y13232
X49768Y26736
X49936Y34178
X50516Y398
X51146Y26815
X51146Y13193
X51251Y28091
X51805Y28479
X51933Y9492
X52169Y15358
X52199Y29131
X52346Y6421
X52479Y28512
X52484Y12642
X52602Y5831
X52771Y27563
X52815Y34141
X53024Y26870
X53043Y14098
X53075Y13390
T4
X448Y37996
X448Y1370
X724Y38664
X724Y37328
X724Y2038
X724Y702
X1393Y38941
X1393Y37051
X1393Y2315
X1393Y425
X2061Y38664
X2061Y37328
X2061Y2038
X2061Y702
X2337Y37996
X2337Y1370
X51146Y37996
X51146Y1382
X51422Y38664
X51422Y37328
X51422Y2050
X51422Y714
X52091Y38941
X52091Y37051
X52091Y2327
X52091Y437
X52759Y38664
X52759Y37328
X52759Y2050
X52759Y714
X53035Y37996
X53035Y1382
T6
X36736Y2169
X36736Y1539
X37425Y2484
X37425Y1854
X37425Y1224
T7
X14444Y11921
X16294Y25701
T8
X21343Y7661
X21343Y5732
X21402Y8902
X22209Y7661
X22209Y5732
X23075Y7661
X23075Y5732
X23331Y8902
X31214Y2553
X31214Y1053
X37525Y27701
X37525Y26701
X37525Y25701
X37525Y24701
X37525Y23701
X37525Y22701
T9
X46776Y5122
X46776Y4138
X46776Y3154
X46776Y2169
X46776Y1185
T10
X15280Y4531
X16280Y4531
X17280Y4531
X23154Y4335
X24089Y8380
X24089Y7652
X24089Y5703
X24089Y959
X29476Y18114
X30191Y8203
X30191Y5683
X30191Y4935
X30191Y3242
X30191Y781
X30476Y18114
X38705Y2957
X38705Y988
X46854Y9453
X46854Y7602
X47740Y14925
X48740Y14925
X49740Y14925
X50740Y14925
X51740Y14925
X52740Y14925
T11
X5562Y33951
X5562Y32770
X5562Y31589
X5562Y30407
X5562Y29226
X5562Y28045
X5562Y26864
X5562Y25683
X5562Y24502
X5562Y14837
X5562Y13656
X5562Y12474
X5562Y11293
X5562Y10112
X5562Y8931
X5562Y7750
X5562Y6569
X5562Y5388
X6940Y33360
X6940Y32179
X6940Y30998
X6940Y29817
X6940Y28636
X6940Y27455
X6940Y26274
X6940Y25093
X6940Y14246
X6940Y13065
X6940Y11884
X6940Y10703
X6940Y9522
X6940Y8341
X6940Y7159
X6940Y5978
X8515Y33360
X8515Y32179
X8515Y30998
X8515Y29817
X8515Y28636
X8515Y27455
X8515Y26274
X8515Y25093
X8515Y14246
X8515Y13065
X8515Y11884
X8515Y10703
X8515Y9522
X8515Y8341
X8515Y7159
X8515Y5978
X9893Y33951
X9893Y32770
X9893Y31589
X9893Y30407
X9893Y29226
X9893Y28045
X9893Y26864
X9893Y25683
X9893Y24502
X9893Y14837
X9893Y13656
X9893Y12474
X9893Y11293
X9893Y10112
X9893Y8931
X9893Y7750
X9893Y6569
X9893Y5388
T12
X39343Y22366
X39492Y28272
T13
X42525Y29701
X42525Y20701
T14
X1393Y37996
X1393Y1370
X52091Y37996
X52091Y1382
T15
X32646Y2604
X34921Y2604
T16
X50319Y11461
X50319Y8508
T17
X7432Y35033
X7432Y23419
X7432Y15919
X7432Y4305
T18
X7727Y37002
X7727Y21451
X7727Y17888
X7727Y2337
T5
X32083Y3018G85X32083Y2585
G05
X32083Y1274G85X32083Y1037
G05
X35484Y3018G85X35484Y2585
G05
X35484Y1274G85X35484Y1037
G05
T6
X36825Y3291G85X37337Y3291
G05
X36825Y417G85X37337Y417
G05
M30
