G04 #@! TF.GenerationSoftware,KiCad,Pcbnew,8.0.9-8.0.9-0~ubuntu24.04.1*
G04 #@! TF.CreationDate,2025-10-26T12:47:24+00:00*
G04 #@! TF.ProjectId,uaefi,75616566-692e-46b6-9963-61645f706362,E*
G04 #@! TF.SameCoordinates,Original*
G04 #@! TF.FileFunction,Soldermask,Bot*
G04 #@! TF.FilePolarity,Negative*
%FSLAX46Y46*%
G04 Gerber Fmt 4.6, Leading zero omitted, Abs format (unit mm)*
G04 Created by KiCad (PCBNEW 8.0.9-8.0.9-0~ubuntu24.04.1) date 2025-10-26 12:47:24*
%MOMM*%
%LPD*%
G01*
G04 APERTURE LIST*
%ADD10C,0.120000*%
%ADD11C,1.700000*%
%ADD12C,3.300000*%
%ADD13C,2.300000*%
%ADD14C,2.000000*%
%ADD15C,0.800000*%
%ADD16C,6.400000*%
%ADD17C,1.524000*%
%ADD18O,1.850000X1.700000*%
%ADD19C,0.600000*%
%ADD20R,1.100000X1.100000*%
%ADD21C,1.100000*%
%ADD22O,2.400000X1.100000*%
%ADD23C,1.500000*%
%ADD24C,0.599999*%
%ADD25C,0.650000*%
%ADD26O,1.000000X2.100000*%
%ADD27O,1.000000X1.600000*%
%ADD28R,1.700000X1.700000*%
%ADD29O,1.700000X1.700000*%
%ADD30C,3.302000*%
%ADD31R,2.299995X4.399991*%
%ADD32R,2.299995X3.999992*%
G04 APERTURE END LIST*
D10*
G04 #@! TO.C,U5*
X132332487Y7235000D02*
X119332487Y7235000D01*
X119332487Y14235000D01*
X132332487Y14235000D01*
X132332487Y7235000D01*
G36*
X132332487Y7235000D02*
G01*
X119332487Y7235000D01*
X119332487Y14235000D01*
X132332487Y14235000D01*
X132332487Y7235000D01*
G37*
G04 #@! TD*
D11*
G04 #@! TO.C,P8*
X116382487Y19310000D03*
G04 #@! TD*
G04 #@! TO.C,P5*
X74782487Y46010000D03*
G04 #@! TD*
D12*
G04 #@! TO.C,J25*
X17000000Y93985000D03*
D13*
X16250000Y88985000D03*
X16250000Y59485000D03*
D12*
X17000000Y54485000D03*
D14*
X22500000Y86235000D03*
X22500000Y83235000D03*
X22500000Y80235000D03*
X22500000Y77235000D03*
X22500000Y74235000D03*
X22500000Y71235000D03*
X22500000Y68235000D03*
X22500000Y65235000D03*
X22500000Y62235000D03*
X19000000Y84735000D03*
X19000000Y81735000D03*
X19000000Y78735000D03*
X19000000Y75735000D03*
X19000000Y72735000D03*
X19000000Y69735000D03*
X19000000Y66735000D03*
X19000000Y63735000D03*
X15000000Y84735000D03*
X15000000Y81735000D03*
X15000000Y78735000D03*
X15000000Y75735000D03*
X15000000Y72735000D03*
X15000000Y69735000D03*
X15000000Y66735000D03*
X15000000Y63735000D03*
X11500000Y86235000D03*
X11500000Y83235000D03*
X11500000Y80235000D03*
X11500000Y77235000D03*
X11500000Y74235000D03*
X11500000Y71235000D03*
X11500000Y68235000D03*
X11500000Y65235000D03*
X11500000Y62235000D03*
G04 #@! TD*
D11*
G04 #@! TO.C,P15*
X38722487Y11510000D03*
G04 #@! TD*
D15*
G04 #@! TO.C,H1*
X1090000Y96510000D03*
X1792944Y98207056D03*
X1792944Y94812944D03*
X3490000Y98910000D03*
D16*
X3490000Y96510000D03*
D15*
X3490000Y94110000D03*
X5187056Y98207056D03*
X5187056Y94812944D03*
X5890000Y96510000D03*
G04 #@! TD*
G04 #@! TO.C,H4*
X127282487Y96510000D03*
X127985431Y98207056D03*
X127985431Y94812944D03*
X129682487Y98910000D03*
D16*
X129682487Y96510000D03*
D15*
X129682487Y94110000D03*
X131379543Y98207056D03*
X131379543Y94812944D03*
X132082487Y96510000D03*
G04 #@! TD*
D17*
G04 #@! TO.C,F4*
X51582487Y19460000D03*
X51582487Y14560000D03*
G04 #@! TD*
G04 #@! TO.C,J7*
G36*
G01*
X116857487Y2160000D02*
X115507487Y2160000D01*
G75*
G02*
X115257487Y2410000I0J250000D01*
G01*
X115257487Y3610000D01*
G75*
G02*
X115507487Y3860000I250000J0D01*
G01*
X116857487Y3860000D01*
G75*
G02*
X117107487Y3610000I0J-250000D01*
G01*
X117107487Y2410000D01*
G75*
G02*
X116857487Y2160000I-250000J0D01*
G01*
G37*
D18*
X116182487Y5510000D03*
X116182487Y8010000D03*
X116182487Y10510000D03*
X116182487Y13010000D03*
G04 #@! TD*
D11*
G04 #@! TO.C,P4*
X95682487Y7510000D03*
G04 #@! TD*
D15*
G04 #@! TO.C,H2*
X1090000Y3510000D03*
X1792944Y5207056D03*
X1792944Y1812944D03*
X3490000Y5910000D03*
D16*
X3490000Y3510000D03*
D15*
X3490000Y1110000D03*
X5187056Y5207056D03*
X5187056Y1812944D03*
X5890000Y3510000D03*
G04 #@! TD*
D19*
G04 #@! TO.C,M3*
X82357487Y62685000D03*
X81157487Y62685000D03*
X83557487Y62685000D03*
X84757487Y62685000D03*
X78297487Y77110000D03*
X77297487Y77110000D03*
G04 #@! TD*
D11*
G04 #@! TO.C,P17*
X36182487Y11510000D03*
G04 #@! TD*
D20*
G04 #@! TO.C,J8*
X92432487Y3110000D03*
D21*
X90682487Y3910000D03*
X92432487Y4710000D03*
X90682487Y5510000D03*
X92432487Y6310000D03*
D22*
X91557487Y1060000D03*
X91557487Y8360000D03*
G04 #@! TD*
D17*
G04 #@! TO.C,F3*
X53782487Y19460000D03*
X53782487Y14560000D03*
G04 #@! TD*
D19*
G04 #@! TO.C,M2*
X112757486Y73135000D03*
X111807486Y73135000D03*
X110857488Y73135000D03*
X111857486Y81835000D03*
X112757486Y81835000D03*
G04 #@! TD*
D11*
G04 #@! TO.C,P18*
X56182487Y11010000D03*
G04 #@! TD*
D12*
G04 #@! TO.C,J23*
X17000000Y44435000D03*
D13*
X16250000Y39435000D03*
X16250000Y9935000D03*
D12*
X17000000Y4935000D03*
D14*
X22500000Y36685000D03*
X22500000Y33685000D03*
X22500000Y30685000D03*
X22500000Y27685000D03*
X22500000Y24685000D03*
X22500000Y21685000D03*
X22500000Y18685000D03*
X22500000Y15685000D03*
X22500000Y12685000D03*
X19000000Y35185000D03*
X19000000Y32185000D03*
X19000000Y29185000D03*
X19000000Y26185000D03*
X19000000Y23185000D03*
X19000000Y20185000D03*
X19000000Y17185000D03*
X19000000Y14185000D03*
X15000000Y35185000D03*
X15000000Y32185000D03*
X15000000Y29185000D03*
X15000000Y26185000D03*
X15000000Y23185000D03*
X15000000Y20185000D03*
X15000000Y17185000D03*
X15000000Y14185000D03*
X11500000Y36685000D03*
X11500000Y33685000D03*
X11500000Y30685000D03*
X11500000Y27685000D03*
X11500000Y24685000D03*
X11500000Y21685000D03*
X11500000Y18685000D03*
X11500000Y15685000D03*
X11500000Y12685000D03*
G04 #@! TD*
D23*
G04 #@! TO.C,M1*
X74057482Y20834999D03*
X74057482Y14435002D03*
X74057482Y12534999D03*
X74057482Y8234999D03*
D19*
X74507481Y5835002D03*
X74507481Y4835001D03*
D23*
X74057482Y1984999D03*
X58557485Y21285001D03*
X58557485Y19435002D03*
X58557485Y14484999D03*
X58557485Y2435001D03*
G04 #@! TD*
D11*
G04 #@! TO.C,P6*
X72242487Y46010000D03*
G04 #@! TD*
D24*
G04 #@! TO.C,M7*
X65182486Y46985001D03*
X65707486Y47860003D03*
X66457484Y46684999D03*
X70007485Y46760002D03*
G04 #@! TD*
D17*
G04 #@! TO.C,F1*
X55982487Y19460000D03*
X55982487Y14560000D03*
G04 #@! TD*
D11*
G04 #@! TO.C,P3*
X95682487Y2510000D03*
G04 #@! TD*
D17*
G04 #@! TO.C,R4*
X76657096Y6484609D03*
X76657096Y2674609D03*
G04 #@! TD*
D11*
G04 #@! TO.C,P7*
X116382487Y24010000D03*
G04 #@! TD*
D25*
G04 #@! TO.C,J9*
X80292487Y6615000D03*
X86072487Y6615000D03*
D26*
X78862487Y7115000D03*
D27*
X78862487Y2935000D03*
D26*
X87502487Y7115000D03*
D27*
X87502487Y2935000D03*
G04 #@! TD*
D15*
G04 #@! TO.C,H3*
X127282487Y3510000D03*
X127985431Y5207056D03*
X127985431Y1812944D03*
X129682487Y5910000D03*
D16*
X129682487Y3510000D03*
D15*
X129682487Y1110000D03*
X131379543Y5207056D03*
X131379543Y1812944D03*
X132082487Y3510000D03*
G04 #@! TD*
D19*
G04 #@! TO.C,M4*
X71307487Y62685000D03*
X70107487Y62685000D03*
X72507487Y62685000D03*
X73707487Y62685000D03*
X67247487Y77110000D03*
X66247487Y77110000D03*
G04 #@! TD*
D17*
G04 #@! TO.C,F2*
X51732487Y22610000D03*
X56632487Y22610000D03*
G04 #@! TD*
D28*
G04 #@! TO.C,J6*
X131332487Y37910000D03*
D29*
X128792487Y37910000D03*
X126252487Y37910000D03*
X123712487Y37910000D03*
X121172487Y37910000D03*
X118632487Y37910000D03*
G04 #@! TD*
D30*
G04 #@! TO.C,U3*
X105385737Y75440000D03*
X105385737Y52580000D03*
D17*
X92685737Y70360000D03*
X92685737Y67820000D03*
X92685737Y65280000D03*
X92685737Y62740000D03*
X92685737Y60200000D03*
X92685737Y57660000D03*
G04 #@! TD*
D11*
G04 #@! TO.C,P16*
X41262487Y11510000D03*
G04 #@! TD*
G04 #@! TO.C,D8*
G36*
G01*
X87582487Y81267023D02*
X87882487Y81267023D01*
G75*
G02*
X88032487Y81117023I0J-150000D01*
G01*
X88032487Y79942023D01*
G75*
G02*
X87882487Y79792023I-150000J0D01*
G01*
X87582487Y79792023D01*
G75*
G02*
X87432487Y79942023I0J150000D01*
G01*
X87432487Y81117023D01*
G75*
G02*
X87582487Y81267023I150000J0D01*
G01*
G37*
G36*
G01*
X89482487Y81267023D02*
X89782487Y81267023D01*
G75*
G02*
X89932487Y81117023I0J-150000D01*
G01*
X89932487Y79942023D01*
G75*
G02*
X89782487Y79792023I-150000J0D01*
G01*
X89482487Y79792023D01*
G75*
G02*
X89332487Y79942023I0J150000D01*
G01*
X89332487Y81117023D01*
G75*
G02*
X89482487Y81267023I150000J0D01*
G01*
G37*
G36*
G01*
X88532487Y79392023D02*
X88832487Y79392023D01*
G75*
G02*
X88982487Y79242023I0J-150000D01*
G01*
X88982487Y78067023D01*
G75*
G02*
X88832487Y77917023I-150000J0D01*
G01*
X88532487Y77917023D01*
G75*
G02*
X88382487Y78067023I0J150000D01*
G01*
X88382487Y79242023D01*
G75*
G02*
X88532487Y79392023I150000J0D01*
G01*
G37*
G04 #@! TD*
G04 #@! TO.C,U7*
G36*
G01*
X48300000Y67795000D02*
X48300000Y67495000D01*
G75*
G02*
X48150000Y67345000I-150000J0D01*
G01*
X46500000Y67345000D01*
G75*
G02*
X46350000Y67495000I0J150000D01*
G01*
X46350000Y67795000D01*
G75*
G02*
X46500000Y67945000I150000J0D01*
G01*
X48150000Y67945000D01*
G75*
G02*
X48300000Y67795000I0J-150000D01*
G01*
G37*
G36*
G01*
X48300000Y66525000D02*
X48300000Y66225000D01*
G75*
G02*
X48150000Y66075000I-150000J0D01*
G01*
X46500000Y66075000D01*
G75*
G02*
X46350000Y66225000I0J150000D01*
G01*
X46350000Y66525000D01*
G75*
G02*
X46500000Y66675000I150000J0D01*
G01*
X48150000Y66675000D01*
G75*
G02*
X48300000Y66525000I0J-150000D01*
G01*
G37*
G36*
G01*
X48300000Y65255000D02*
X48300000Y64955000D01*
G75*
G02*
X48150000Y64805000I-150000J0D01*
G01*
X46500000Y64805000D01*
G75*
G02*
X46350000Y64955000I0J150000D01*
G01*
X46350000Y65255000D01*
G75*
G02*
X46500000Y65405000I150000J0D01*
G01*
X48150000Y65405000D01*
G75*
G02*
X48300000Y65255000I0J-150000D01*
G01*
G37*
G36*
G01*
X48300000Y63985000D02*
X48300000Y63685000D01*
G75*
G02*
X48150000Y63535000I-150000J0D01*
G01*
X46500000Y63535000D01*
G75*
G02*
X46350000Y63685000I0J150000D01*
G01*
X46350000Y63985000D01*
G75*
G02*
X46500000Y64135000I150000J0D01*
G01*
X48150000Y64135000D01*
G75*
G02*
X48300000Y63985000I0J-150000D01*
G01*
G37*
G36*
G01*
X43350000Y63985000D02*
X43350000Y63685000D01*
G75*
G02*
X43200000Y63535000I-150000J0D01*
G01*
X41550000Y63535000D01*
G75*
G02*
X41400000Y63685000I0J150000D01*
G01*
X41400000Y63985000D01*
G75*
G02*
X41550000Y64135000I150000J0D01*
G01*
X43200000Y64135000D01*
G75*
G02*
X43350000Y63985000I0J-150000D01*
G01*
G37*
G36*
G01*
X43350000Y65255000D02*
X43350000Y64955000D01*
G75*
G02*
X43200000Y64805000I-150000J0D01*
G01*
X41550000Y64805000D01*
G75*
G02*
X41400000Y64955000I0J150000D01*
G01*
X41400000Y65255000D01*
G75*
G02*
X41550000Y65405000I150000J0D01*
G01*
X43200000Y65405000D01*
G75*
G02*
X43350000Y65255000I0J-150000D01*
G01*
G37*
G36*
G01*
X43350000Y66525000D02*
X43350000Y66225000D01*
G75*
G02*
X43200000Y66075000I-150000J0D01*
G01*
X41550000Y66075000D01*
G75*
G02*
X41400000Y66225000I0J150000D01*
G01*
X41400000Y66525000D01*
G75*
G02*
X41550000Y66675000I150000J0D01*
G01*
X43200000Y66675000D01*
G75*
G02*
X43350000Y66525000I0J-150000D01*
G01*
G37*
G36*
G01*
X43350000Y67795000D02*
X43350000Y67495000D01*
G75*
G02*
X43200000Y67345000I-150000J0D01*
G01*
X41550000Y67345000D01*
G75*
G02*
X41400000Y67495000I0J150000D01*
G01*
X41400000Y67795000D01*
G75*
G02*
X41550000Y67945000I150000J0D01*
G01*
X43200000Y67945000D01*
G75*
G02*
X43350000Y67795000I0J-150000D01*
G01*
G37*
G04 #@! TD*
G04 #@! TO.C,C10*
G36*
G01*
X45832487Y13470000D02*
X44782487Y13470000D01*
G75*
G02*
X44682487Y13570000I0J100000D01*
G01*
X44682487Y14370000D01*
G75*
G02*
X44782487Y14470000I100000J0D01*
G01*
X45832487Y14470000D01*
G75*
G02*
X45932487Y14370000I0J-100000D01*
G01*
X45932487Y13570000D01*
G75*
G02*
X45832487Y13470000I-100000J0D01*
G01*
G37*
G36*
G01*
X45832487Y15470000D02*
X44782487Y15470000D01*
G75*
G02*
X44682487Y15570000I0J100000D01*
G01*
X44682487Y16370000D01*
G75*
G02*
X44782487Y16470000I100000J0D01*
G01*
X45832487Y16470000D01*
G75*
G02*
X45932487Y16370000I0J-100000D01*
G01*
X45932487Y15570000D01*
G75*
G02*
X45832487Y15470000I-100000J0D01*
G01*
G37*
G04 #@! TD*
G04 #@! TO.C,C27*
G36*
G01*
X94642487Y66325001D02*
X95322487Y66325001D01*
G75*
G02*
X95407487Y66240001I0J-85000D01*
G01*
X95407487Y65560001D01*
G75*
G02*
X95322487Y65475001I-85000J0D01*
G01*
X94642487Y65475001D01*
G75*
G02*
X94557487Y65560001I0J85000D01*
G01*
X94557487Y66240001D01*
G75*
G02*
X94642487Y66325001I85000J0D01*
G01*
G37*
G36*
G01*
X94642487Y64744999D02*
X95322487Y64744999D01*
G75*
G02*
X95407487Y64659999I0J-85000D01*
G01*
X95407487Y63979999D01*
G75*
G02*
X95322487Y63894999I-85000J0D01*
G01*
X94642487Y63894999D01*
G75*
G02*
X94557487Y63979999I0J85000D01*
G01*
X94557487Y64659999D01*
G75*
G02*
X94642487Y64744999I85000J0D01*
G01*
G37*
G04 #@! TD*
G04 #@! TO.C,D4*
G36*
G01*
X35585000Y31100000D02*
X35585000Y32120000D01*
G75*
G02*
X35675000Y32210000I90000J0D01*
G01*
X36395000Y32210000D01*
G75*
G02*
X36485000Y32120000I0J-90000D01*
G01*
X36485000Y31100000D01*
G75*
G02*
X36395000Y31010000I-90000J0D01*
G01*
X35675000Y31010000D01*
G75*
G02*
X35585000Y31100000I0J90000D01*
G01*
G37*
G36*
G01*
X38885000Y31100000D02*
X38885000Y32120000D01*
G75*
G02*
X38975000Y32210000I90000J0D01*
G01*
X39695000Y32210000D01*
G75*
G02*
X39785000Y32120000I0J-90000D01*
G01*
X39785000Y31100000D01*
G75*
G02*
X39695000Y31010000I-90000J0D01*
G01*
X38975000Y31010000D01*
G75*
G02*
X38885000Y31100000I0J90000D01*
G01*
G37*
G04 #@! TD*
D23*
G04 #@! TO.C,BT1*
X125182487Y21610142D03*
X125182487Y29110000D03*
D31*
X125182487Y17510048D03*
D32*
X125182487Y33510067D03*
G04 #@! TD*
G04 #@! TO.C,U10*
G36*
G01*
X41450000Y50055000D02*
X41450000Y49755000D01*
G75*
G02*
X41300000Y49605000I-150000J0D01*
G01*
X39650000Y49605000D01*
G75*
G02*
X39500000Y49755000I0J150000D01*
G01*
X39500000Y50055000D01*
G75*
G02*
X39650000Y50205000I150000J0D01*
G01*
X41300000Y50205000D01*
G75*
G02*
X41450000Y50055000I0J-150000D01*
G01*
G37*
G36*
G01*
X41450000Y48785000D02*
X41450000Y48485000D01*
G75*
G02*
X41300000Y48335000I-150000J0D01*
G01*
X39650000Y48335000D01*
G75*
G02*
X39500000Y48485000I0J150000D01*
G01*
X39500000Y48785000D01*
G75*
G02*
X39650000Y48935000I150000J0D01*
G01*
X41300000Y48935000D01*
G75*
G02*
X41450000Y48785000I0J-150000D01*
G01*
G37*
G36*
G01*
X41450000Y47515000D02*
X41450000Y47215000D01*
G75*
G02*
X41300000Y47065000I-150000J0D01*
G01*
X39650000Y47065000D01*
G75*
G02*
X39500000Y47215000I0J150000D01*
G01*
X39500000Y47515000D01*
G75*
G02*
X39650000Y47665000I150000J0D01*
G01*
X41300000Y47665000D01*
G75*
G02*
X41450000Y47515000I0J-150000D01*
G01*
G37*
G36*
G01*
X41450000Y46245000D02*
X41450000Y45945000D01*
G75*
G02*
X41300000Y45795000I-150000J0D01*
G01*
X39650000Y45795000D01*
G75*
G02*
X39500000Y45945000I0J150000D01*
G01*
X39500000Y46245000D01*
G75*
G02*
X39650000Y46395000I150000J0D01*
G01*
X41300000Y46395000D01*
G75*
G02*
X41450000Y46245000I0J-150000D01*
G01*
G37*
G36*
G01*
X36500000Y46245000D02*
X36500000Y45945000D01*
G75*
G02*
X36350000Y45795000I-150000J0D01*
G01*
X34700000Y45795000D01*
G75*
G02*
X34550000Y45945000I0J150000D01*
G01*
X34550000Y46245000D01*
G75*
G02*
X34700000Y46395000I150000J0D01*
G01*
X36350000Y46395000D01*
G75*
G02*
X36500000Y46245000I0J-150000D01*
G01*
G37*
G36*
G01*
X36500000Y47515000D02*
X36500000Y47215000D01*
G75*
G02*
X36350000Y47065000I-150000J0D01*
G01*
X34700000Y47065000D01*
G75*
G02*
X34550000Y47215000I0J150000D01*
G01*
X34550000Y47515000D01*
G75*
G02*
X34700000Y47665000I150000J0D01*
G01*
X36350000Y47665000D01*
G75*
G02*
X36500000Y47515000I0J-150000D01*
G01*
G37*
G36*
G01*
X36500000Y48785000D02*
X36500000Y48485000D01*
G75*
G02*
X36350000Y48335000I-150000J0D01*
G01*
X34700000Y48335000D01*
G75*
G02*
X34550000Y48485000I0J150000D01*
G01*
X34550000Y48785000D01*
G75*
G02*
X34700000Y48935000I150000J0D01*
G01*
X36350000Y48935000D01*
G75*
G02*
X36500000Y48785000I0J-150000D01*
G01*
G37*
G36*
G01*
X36500000Y50055000D02*
X36500000Y49755000D01*
G75*
G02*
X36350000Y49605000I-150000J0D01*
G01*
X34700000Y49605000D01*
G75*
G02*
X34550000Y49755000I0J150000D01*
G01*
X34550000Y50055000D01*
G75*
G02*
X34700000Y50205000I150000J0D01*
G01*
X36350000Y50205000D01*
G75*
G02*
X36500000Y50055000I0J-150000D01*
G01*
G37*
G04 #@! TD*
G04 #@! TO.C,R31*
G36*
G01*
X44240000Y50180000D02*
X44240000Y49400000D01*
G75*
G02*
X44170000Y49330000I-70000J0D01*
G01*
X43610000Y49330000D01*
G75*
G02*
X43540000Y49400000I0J70000D01*
G01*
X43540000Y50180000D01*
G75*
G02*
X43610000Y50250000I70000J0D01*
G01*
X44170000Y50250000D01*
G75*
G02*
X44240000Y50180000I0J-70000D01*
G01*
G37*
G36*
G01*
X42640000Y50180000D02*
X42640000Y49400000D01*
G75*
G02*
X42570000Y49330000I-70000J0D01*
G01*
X42010000Y49330000D01*
G75*
G02*
X41940000Y49400000I0J70000D01*
G01*
X41940000Y50180000D01*
G75*
G02*
X42010000Y50250000I70000J0D01*
G01*
X42570000Y50250000D01*
G75*
G02*
X42640000Y50180000I0J-70000D01*
G01*
G37*
G04 #@! TD*
G04 #@! TO.C,C30*
G36*
G01*
X91587489Y82950000D02*
X91587489Y82270000D01*
G75*
G02*
X91502489Y82185000I-85000J0D01*
G01*
X90822489Y82185000D01*
G75*
G02*
X90737489Y82270000I0J85000D01*
G01*
X90737489Y82950000D01*
G75*
G02*
X90822489Y83035000I85000J0D01*
G01*
X91502489Y83035000D01*
G75*
G02*
X91587489Y82950000I0J-85000D01*
G01*
G37*
G36*
G01*
X90007487Y82950000D02*
X90007487Y82270000D01*
G75*
G02*
X89922487Y82185000I-85000J0D01*
G01*
X89242487Y82185000D01*
G75*
G02*
X89157487Y82270000I0J85000D01*
G01*
X89157487Y82950000D01*
G75*
G02*
X89242487Y83035000I85000J0D01*
G01*
X89922487Y83035000D01*
G75*
G02*
X90007487Y82950000I0J-85000D01*
G01*
G37*
G04 #@! TD*
G04 #@! TO.C,C7*
G36*
G01*
X39832487Y13470000D02*
X38782487Y13470000D01*
G75*
G02*
X38682487Y13570000I0J100000D01*
G01*
X38682487Y14370000D01*
G75*
G02*
X38782487Y14470000I100000J0D01*
G01*
X39832487Y14470000D01*
G75*
G02*
X39932487Y14370000I0J-100000D01*
G01*
X39932487Y13570000D01*
G75*
G02*
X39832487Y13470000I-100000J0D01*
G01*
G37*
G36*
G01*
X39832487Y15470000D02*
X38782487Y15470000D01*
G75*
G02*
X38682487Y15570000I0J100000D01*
G01*
X38682487Y16370000D01*
G75*
G02*
X38782487Y16470000I100000J0D01*
G01*
X39832487Y16470000D01*
G75*
G02*
X39932487Y16370000I0J-100000D01*
G01*
X39932487Y15570000D01*
G75*
G02*
X39832487Y15470000I-100000J0D01*
G01*
G37*
G04 #@! TD*
G04 #@! TO.C,C33*
G36*
G01*
X129842487Y35225001D02*
X130522487Y35225001D01*
G75*
G02*
X130607487Y35140001I0J-85000D01*
G01*
X130607487Y34460001D01*
G75*
G02*
X130522487Y34375001I-85000J0D01*
G01*
X129842487Y34375001D01*
G75*
G02*
X129757487Y34460001I0J85000D01*
G01*
X129757487Y35140001D01*
G75*
G02*
X129842487Y35225001I85000J0D01*
G01*
G37*
G36*
G01*
X129842487Y33644999D02*
X130522487Y33644999D01*
G75*
G02*
X130607487Y33559999I0J-85000D01*
G01*
X130607487Y32879999D01*
G75*
G02*
X130522487Y32794999I-85000J0D01*
G01*
X129842487Y32794999D01*
G75*
G02*
X129757487Y32879999I0J85000D01*
G01*
X129757487Y33559999D01*
G75*
G02*
X129842487Y33644999I85000J0D01*
G01*
G37*
G04 #@! TD*
G04 #@! TO.C,C29*
G36*
G01*
X87467486Y76752023D02*
X87467486Y77432023D01*
G75*
G02*
X87552486Y77517023I85000J0D01*
G01*
X88232486Y77517023D01*
G75*
G02*
X88317486Y77432023I0J-85000D01*
G01*
X88317486Y76752023D01*
G75*
G02*
X88232486Y76667023I-85000J0D01*
G01*
X87552486Y76667023D01*
G75*
G02*
X87467486Y76752023I0J85000D01*
G01*
G37*
G36*
G01*
X89047488Y76752023D02*
X89047488Y77432023D01*
G75*
G02*
X89132488Y77517023I85000J0D01*
G01*
X89812488Y77517023D01*
G75*
G02*
X89897488Y77432023I0J-85000D01*
G01*
X89897488Y76752023D01*
G75*
G02*
X89812488Y76667023I-85000J0D01*
G01*
X89132488Y76667023D01*
G75*
G02*
X89047488Y76752023I0J85000D01*
G01*
G37*
G04 #@! TD*
G04 #@! TO.C,R34*
G36*
G01*
X36080000Y52180000D02*
X36080000Y52960000D01*
G75*
G02*
X36150000Y53030000I70000J0D01*
G01*
X36710000Y53030000D01*
G75*
G02*
X36780000Y52960000I0J-70000D01*
G01*
X36780000Y52180000D01*
G75*
G02*
X36710000Y52110000I-70000J0D01*
G01*
X36150000Y52110000D01*
G75*
G02*
X36080000Y52180000I0J70000D01*
G01*
G37*
G36*
G01*
X37680000Y52180000D02*
X37680000Y52960000D01*
G75*
G02*
X37750000Y53030000I70000J0D01*
G01*
X38310000Y53030000D01*
G75*
G02*
X38380000Y52960000I0J-70000D01*
G01*
X38380000Y52180000D01*
G75*
G02*
X38310000Y52110000I-70000J0D01*
G01*
X37750000Y52110000D01*
G75*
G02*
X37680000Y52180000I0J70000D01*
G01*
G37*
G04 #@! TD*
G04 #@! TO.C,R1*
G36*
G01*
X8170000Y28730000D02*
X7390000Y28730000D01*
G75*
G02*
X7320000Y28800000I0J70000D01*
G01*
X7320000Y29360000D01*
G75*
G02*
X7390000Y29430000I70000J0D01*
G01*
X8170000Y29430000D01*
G75*
G02*
X8240000Y29360000I0J-70000D01*
G01*
X8240000Y28800000D01*
G75*
G02*
X8170000Y28730000I-70000J0D01*
G01*
G37*
G36*
G01*
X8170000Y30330000D02*
X7390000Y30330000D01*
G75*
G02*
X7320000Y30400000I0J70000D01*
G01*
X7320000Y30960000D01*
G75*
G02*
X7390000Y31030000I70000J0D01*
G01*
X8170000Y31030000D01*
G75*
G02*
X8240000Y30960000I0J-70000D01*
G01*
X8240000Y30400000D01*
G75*
G02*
X8170000Y30330000I-70000J0D01*
G01*
G37*
G04 #@! TD*
G04 #@! TO.C,C17*
G36*
G01*
X49257487Y11010000D02*
X50307487Y11010000D01*
G75*
G02*
X50407487Y10910000I0J-100000D01*
G01*
X50407487Y10110000D01*
G75*
G02*
X50307487Y10010000I-100000J0D01*
G01*
X49257487Y10010000D01*
G75*
G02*
X49157487Y10110000I0J100000D01*
G01*
X49157487Y10910000D01*
G75*
G02*
X49257487Y11010000I100000J0D01*
G01*
G37*
G36*
G01*
X49257487Y9010000D02*
X50307487Y9010000D01*
G75*
G02*
X50407487Y8910000I0J-100000D01*
G01*
X50407487Y8110000D01*
G75*
G02*
X50307487Y8010000I-100000J0D01*
G01*
X49257487Y8010000D01*
G75*
G02*
X49157487Y8110000I0J100000D01*
G01*
X49157487Y8910000D01*
G75*
G02*
X49257487Y9010000I100000J0D01*
G01*
G37*
G04 #@! TD*
G04 #@! TO.C,C3*
G36*
G01*
X40782487Y20470000D02*
X41832487Y20470000D01*
G75*
G02*
X41932487Y20370000I0J-100000D01*
G01*
X41932487Y19570000D01*
G75*
G02*
X41832487Y19470000I-100000J0D01*
G01*
X40782487Y19470000D01*
G75*
G02*
X40682487Y19570000I0J100000D01*
G01*
X40682487Y20370000D01*
G75*
G02*
X40782487Y20470000I100000J0D01*
G01*
G37*
G36*
G01*
X40782487Y18470000D02*
X41832487Y18470000D01*
G75*
G02*
X41932487Y18370000I0J-100000D01*
G01*
X41932487Y17570000D01*
G75*
G02*
X41832487Y17470000I-100000J0D01*
G01*
X40782487Y17470000D01*
G75*
G02*
X40682487Y17570000I0J100000D01*
G01*
X40682487Y18370000D01*
G75*
G02*
X40782487Y18470000I100000J0D01*
G01*
G37*
G04 #@! TD*
G04 #@! TO.C,C23*
G36*
G01*
X52307487Y4010000D02*
X51257487Y4010000D01*
G75*
G02*
X51157487Y4110000I0J100000D01*
G01*
X51157487Y4910000D01*
G75*
G02*
X51257487Y5010000I100000J0D01*
G01*
X52307487Y5010000D01*
G75*
G02*
X52407487Y4910000I0J-100000D01*
G01*
X52407487Y4110000D01*
G75*
G02*
X52307487Y4010000I-100000J0D01*
G01*
G37*
G36*
G01*
X52307487Y6010000D02*
X51257487Y6010000D01*
G75*
G02*
X51157487Y6110000I0J100000D01*
G01*
X51157487Y6910000D01*
G75*
G02*
X51257487Y7010000I100000J0D01*
G01*
X52307487Y7010000D01*
G75*
G02*
X52407487Y6910000I0J-100000D01*
G01*
X52407487Y6110000D01*
G75*
G02*
X52307487Y6010000I-100000J0D01*
G01*
G37*
G04 #@! TD*
G04 #@! TO.C,U4*
G36*
G01*
X86627487Y75260000D02*
X86927487Y75260000D01*
G75*
G02*
X87077487Y75110000I0J-150000D01*
G01*
X87077487Y73460000D01*
G75*
G02*
X86927487Y73310000I-150000J0D01*
G01*
X86627487Y73310000D01*
G75*
G02*
X86477487Y73460000I0J150000D01*
G01*
X86477487Y75110000D01*
G75*
G02*
X86627487Y75260000I150000J0D01*
G01*
G37*
G36*
G01*
X87897487Y75260000D02*
X88197487Y75260000D01*
G75*
G02*
X88347487Y75110000I0J-150000D01*
G01*
X88347487Y73460000D01*
G75*
G02*
X88197487Y73310000I-150000J0D01*
G01*
X87897487Y73310000D01*
G75*
G02*
X87747487Y73460000I0J150000D01*
G01*
X87747487Y75110000D01*
G75*
G02*
X87897487Y75260000I150000J0D01*
G01*
G37*
G36*
G01*
X89167487Y75260000D02*
X89467487Y75260000D01*
G75*
G02*
X89617487Y75110000I0J-150000D01*
G01*
X89617487Y73460000D01*
G75*
G02*
X89467487Y73310000I-150000J0D01*
G01*
X89167487Y73310000D01*
G75*
G02*
X89017487Y73460000I0J150000D01*
G01*
X89017487Y75110000D01*
G75*
G02*
X89167487Y75260000I150000J0D01*
G01*
G37*
G36*
G01*
X90437487Y75260000D02*
X90737487Y75260000D01*
G75*
G02*
X90887487Y75110000I0J-150000D01*
G01*
X90887487Y73460000D01*
G75*
G02*
X90737487Y73310000I-150000J0D01*
G01*
X90437487Y73310000D01*
G75*
G02*
X90287487Y73460000I0J150000D01*
G01*
X90287487Y75110000D01*
G75*
G02*
X90437487Y75260000I150000J0D01*
G01*
G37*
G36*
G01*
X90437487Y70310000D02*
X90737487Y70310000D01*
G75*
G02*
X90887487Y70160000I0J-150000D01*
G01*
X90887487Y68510000D01*
G75*
G02*
X90737487Y68360000I-150000J0D01*
G01*
X90437487Y68360000D01*
G75*
G02*
X90287487Y68510000I0J150000D01*
G01*
X90287487Y70160000D01*
G75*
G02*
X90437487Y70310000I150000J0D01*
G01*
G37*
G36*
G01*
X89167487Y70310000D02*
X89467487Y70310000D01*
G75*
G02*
X89617487Y70160000I0J-150000D01*
G01*
X89617487Y68510000D01*
G75*
G02*
X89467487Y68360000I-150000J0D01*
G01*
X89167487Y68360000D01*
G75*
G02*
X89017487Y68510000I0J150000D01*
G01*
X89017487Y70160000D01*
G75*
G02*
X89167487Y70310000I150000J0D01*
G01*
G37*
G36*
G01*
X87897487Y70310000D02*
X88197487Y70310000D01*
G75*
G02*
X88347487Y70160000I0J-150000D01*
G01*
X88347487Y68510000D01*
G75*
G02*
X88197487Y68360000I-150000J0D01*
G01*
X87897487Y68360000D01*
G75*
G02*
X87747487Y68510000I0J150000D01*
G01*
X87747487Y70160000D01*
G75*
G02*
X87897487Y70310000I150000J0D01*
G01*
G37*
G36*
G01*
X86627487Y70310000D02*
X86927487Y70310000D01*
G75*
G02*
X87077487Y70160000I0J-150000D01*
G01*
X87077487Y68510000D01*
G75*
G02*
X86927487Y68360000I-150000J0D01*
G01*
X86627487Y68360000D01*
G75*
G02*
X86477487Y68510000I0J150000D01*
G01*
X86477487Y70160000D01*
G75*
G02*
X86627487Y70310000I150000J0D01*
G01*
G37*
G04 #@! TD*
G04 #@! TO.C,C1*
G36*
G01*
X36782487Y20470000D02*
X37832487Y20470000D01*
G75*
G02*
X37932487Y20370000I0J-100000D01*
G01*
X37932487Y19570000D01*
G75*
G02*
X37832487Y19470000I-100000J0D01*
G01*
X36782487Y19470000D01*
G75*
G02*
X36682487Y19570000I0J100000D01*
G01*
X36682487Y20370000D01*
G75*
G02*
X36782487Y20470000I100000J0D01*
G01*
G37*
G36*
G01*
X36782487Y18470000D02*
X37832487Y18470000D01*
G75*
G02*
X37932487Y18370000I0J-100000D01*
G01*
X37932487Y17570000D01*
G75*
G02*
X37832487Y17470000I-100000J0D01*
G01*
X36782487Y17470000D01*
G75*
G02*
X36682487Y17570000I0J100000D01*
G01*
X36682487Y18370000D01*
G75*
G02*
X36782487Y18470000I100000J0D01*
G01*
G37*
G04 #@! TD*
G04 #@! TO.C,U11*
G36*
G01*
X41450000Y58055000D02*
X41450000Y57755000D01*
G75*
G02*
X41300000Y57605000I-150000J0D01*
G01*
X39650000Y57605000D01*
G75*
G02*
X39500000Y57755000I0J150000D01*
G01*
X39500000Y58055000D01*
G75*
G02*
X39650000Y58205000I150000J0D01*
G01*
X41300000Y58205000D01*
G75*
G02*
X41450000Y58055000I0J-150000D01*
G01*
G37*
G36*
G01*
X41450000Y56785000D02*
X41450000Y56485000D01*
G75*
G02*
X41300000Y56335000I-150000J0D01*
G01*
X39650000Y56335000D01*
G75*
G02*
X39500000Y56485000I0J150000D01*
G01*
X39500000Y56785000D01*
G75*
G02*
X39650000Y56935000I150000J0D01*
G01*
X41300000Y56935000D01*
G75*
G02*
X41450000Y56785000I0J-150000D01*
G01*
G37*
G36*
G01*
X41450000Y55515000D02*
X41450000Y55215000D01*
G75*
G02*
X41300000Y55065000I-150000J0D01*
G01*
X39650000Y55065000D01*
G75*
G02*
X39500000Y55215000I0J150000D01*
G01*
X39500000Y55515000D01*
G75*
G02*
X39650000Y55665000I150000J0D01*
G01*
X41300000Y55665000D01*
G75*
G02*
X41450000Y55515000I0J-150000D01*
G01*
G37*
G36*
G01*
X41450000Y54245000D02*
X41450000Y53945000D01*
G75*
G02*
X41300000Y53795000I-150000J0D01*
G01*
X39650000Y53795000D01*
G75*
G02*
X39500000Y53945000I0J150000D01*
G01*
X39500000Y54245000D01*
G75*
G02*
X39650000Y54395000I150000J0D01*
G01*
X41300000Y54395000D01*
G75*
G02*
X41450000Y54245000I0J-150000D01*
G01*
G37*
G36*
G01*
X36500000Y54245000D02*
X36500000Y53945000D01*
G75*
G02*
X36350000Y53795000I-150000J0D01*
G01*
X34700000Y53795000D01*
G75*
G02*
X34550000Y53945000I0J150000D01*
G01*
X34550000Y54245000D01*
G75*
G02*
X34700000Y54395000I150000J0D01*
G01*
X36350000Y54395000D01*
G75*
G02*
X36500000Y54245000I0J-150000D01*
G01*
G37*
G36*
G01*
X36500000Y55515000D02*
X36500000Y55215000D01*
G75*
G02*
X36350000Y55065000I-150000J0D01*
G01*
X34700000Y55065000D01*
G75*
G02*
X34550000Y55215000I0J150000D01*
G01*
X34550000Y55515000D01*
G75*
G02*
X34700000Y55665000I150000J0D01*
G01*
X36350000Y55665000D01*
G75*
G02*
X36500000Y55515000I0J-150000D01*
G01*
G37*
G36*
G01*
X36500000Y56785000D02*
X36500000Y56485000D01*
G75*
G02*
X36350000Y56335000I-150000J0D01*
G01*
X34700000Y56335000D01*
G75*
G02*
X34550000Y56485000I0J150000D01*
G01*
X34550000Y56785000D01*
G75*
G02*
X34700000Y56935000I150000J0D01*
G01*
X36350000Y56935000D01*
G75*
G02*
X36500000Y56785000I0J-150000D01*
G01*
G37*
G36*
G01*
X36500000Y58055000D02*
X36500000Y57755000D01*
G75*
G02*
X36350000Y57605000I-150000J0D01*
G01*
X34700000Y57605000D01*
G75*
G02*
X34550000Y57755000I0J150000D01*
G01*
X34550000Y58055000D01*
G75*
G02*
X34700000Y58205000I150000J0D01*
G01*
X36350000Y58205000D01*
G75*
G02*
X36500000Y58055000I0J-150000D01*
G01*
G37*
G04 #@! TD*
G04 #@! TO.C,C31*
G36*
G01*
X93122487Y72294999D02*
X92442487Y72294999D01*
G75*
G02*
X92357487Y72379999I0J85000D01*
G01*
X92357487Y73059999D01*
G75*
G02*
X92442487Y73144999I85000J0D01*
G01*
X93122487Y73144999D01*
G75*
G02*
X93207487Y73059999I0J-85000D01*
G01*
X93207487Y72379999D01*
G75*
G02*
X93122487Y72294999I-85000J0D01*
G01*
G37*
G36*
G01*
X93122487Y73875001D02*
X92442487Y73875001D01*
G75*
G02*
X92357487Y73960001I0J85000D01*
G01*
X92357487Y74640001D01*
G75*
G02*
X92442487Y74725001I85000J0D01*
G01*
X93122487Y74725001D01*
G75*
G02*
X93207487Y74640001I0J-85000D01*
G01*
X93207487Y73960001D01*
G75*
G02*
X93122487Y73875001I-85000J0D01*
G01*
G37*
G04 #@! TD*
G04 #@! TO.C,C14*
G36*
G01*
X43257487Y11010000D02*
X44307487Y11010000D01*
G75*
G02*
X44407487Y10910000I0J-100000D01*
G01*
X44407487Y10110000D01*
G75*
G02*
X44307487Y10010000I-100000J0D01*
G01*
X43257487Y10010000D01*
G75*
G02*
X43157487Y10110000I0J100000D01*
G01*
X43157487Y10910000D01*
G75*
G02*
X43257487Y11010000I100000J0D01*
G01*
G37*
G36*
G01*
X43257487Y9010000D02*
X44307487Y9010000D01*
G75*
G02*
X44407487Y8910000I0J-100000D01*
G01*
X44407487Y8110000D01*
G75*
G02*
X44307487Y8010000I-100000J0D01*
G01*
X43257487Y8010000D01*
G75*
G02*
X43157487Y8110000I0J100000D01*
G01*
X43157487Y8910000D01*
G75*
G02*
X43257487Y9010000I100000J0D01*
G01*
G37*
G04 #@! TD*
G04 #@! TO.C,C19*
G36*
G01*
X44307487Y4010000D02*
X43257487Y4010000D01*
G75*
G02*
X43157487Y4110000I0J100000D01*
G01*
X43157487Y4910000D01*
G75*
G02*
X43257487Y5010000I100000J0D01*
G01*
X44307487Y5010000D01*
G75*
G02*
X44407487Y4910000I0J-100000D01*
G01*
X44407487Y4110000D01*
G75*
G02*
X44307487Y4010000I-100000J0D01*
G01*
G37*
G36*
G01*
X44307487Y6010000D02*
X43257487Y6010000D01*
G75*
G02*
X43157487Y6110000I0J100000D01*
G01*
X43157487Y6910000D01*
G75*
G02*
X43257487Y7010000I100000J0D01*
G01*
X44307487Y7010000D01*
G75*
G02*
X44407487Y6910000I0J-100000D01*
G01*
X44407487Y6110000D01*
G75*
G02*
X44307487Y6010000I-100000J0D01*
G01*
G37*
G04 #@! TD*
G04 #@! TO.C,C4*
G36*
G01*
X42782487Y20470000D02*
X43832487Y20470000D01*
G75*
G02*
X43932487Y20370000I0J-100000D01*
G01*
X43932487Y19570000D01*
G75*
G02*
X43832487Y19470000I-100000J0D01*
G01*
X42782487Y19470000D01*
G75*
G02*
X42682487Y19570000I0J100000D01*
G01*
X42682487Y20370000D01*
G75*
G02*
X42782487Y20470000I100000J0D01*
G01*
G37*
G36*
G01*
X42782487Y18470000D02*
X43832487Y18470000D01*
G75*
G02*
X43932487Y18370000I0J-100000D01*
G01*
X43932487Y17570000D01*
G75*
G02*
X43832487Y17470000I-100000J0D01*
G01*
X42782487Y17470000D01*
G75*
G02*
X42682487Y17570000I0J100000D01*
G01*
X42682487Y18370000D01*
G75*
G02*
X42782487Y18470000I100000J0D01*
G01*
G37*
G04 #@! TD*
G04 #@! TO.C,R10*
G36*
G01*
X51390000Y67960000D02*
X51390000Y67180000D01*
G75*
G02*
X51320000Y67110000I-70000J0D01*
G01*
X50760000Y67110000D01*
G75*
G02*
X50690000Y67180000I0J70000D01*
G01*
X50690000Y67960000D01*
G75*
G02*
X50760000Y68030000I70000J0D01*
G01*
X51320000Y68030000D01*
G75*
G02*
X51390000Y67960000I0J-70000D01*
G01*
G37*
G36*
G01*
X49790000Y67960000D02*
X49790000Y67180000D01*
G75*
G02*
X49720000Y67110000I-70000J0D01*
G01*
X49160000Y67110000D01*
G75*
G02*
X49090000Y67180000I0J70000D01*
G01*
X49090000Y67960000D01*
G75*
G02*
X49160000Y68030000I70000J0D01*
G01*
X49720000Y68030000D01*
G75*
G02*
X49790000Y67960000I0J-70000D01*
G01*
G37*
G04 #@! TD*
G04 #@! TO.C,D2*
G36*
G01*
X39290000Y66485000D02*
X38270000Y66485000D01*
G75*
G02*
X38180000Y66575000I0J90000D01*
G01*
X38180000Y67295000D01*
G75*
G02*
X38270000Y67385000I90000J0D01*
G01*
X39290000Y67385000D01*
G75*
G02*
X39380000Y67295000I0J-90000D01*
G01*
X39380000Y66575000D01*
G75*
G02*
X39290000Y66485000I-90000J0D01*
G01*
G37*
G36*
G01*
X39290000Y69785000D02*
X38270000Y69785000D01*
G75*
G02*
X38180000Y69875000I0J90000D01*
G01*
X38180000Y70595000D01*
G75*
G02*
X38270000Y70685000I90000J0D01*
G01*
X39290000Y70685000D01*
G75*
G02*
X39380000Y70595000I0J-90000D01*
G01*
X39380000Y69875000D01*
G75*
G02*
X39290000Y69785000I-90000J0D01*
G01*
G37*
G04 #@! TD*
G04 #@! TO.C,D1*
G36*
G01*
X120322487Y15710000D02*
X119842487Y15710000D01*
G75*
G02*
X119782487Y15770000I0J60000D01*
G01*
X119782487Y16250000D01*
G75*
G02*
X119842487Y16310000I60000J0D01*
G01*
X120322487Y16310000D01*
G75*
G02*
X120382487Y16250000I0J-60000D01*
G01*
X120382487Y15770000D01*
G75*
G02*
X120322487Y15710000I-60000J0D01*
G01*
G37*
G36*
G01*
X122522487Y15710000D02*
X122042487Y15710000D01*
G75*
G02*
X121982487Y15770000I0J60000D01*
G01*
X121982487Y16250000D01*
G75*
G02*
X122042487Y16310000I60000J0D01*
G01*
X122522487Y16310000D01*
G75*
G02*
X122582487Y16250000I0J-60000D01*
G01*
X122582487Y15770000D01*
G75*
G02*
X122522487Y15710000I-60000J0D01*
G01*
G37*
G04 #@! TD*
G04 #@! TO.C,R33*
G36*
G01*
X44400000Y58230000D02*
X44400000Y57450000D01*
G75*
G02*
X44330000Y57380000I-70000J0D01*
G01*
X43770000Y57380000D01*
G75*
G02*
X43700000Y57450000I0J70000D01*
G01*
X43700000Y58230000D01*
G75*
G02*
X43770000Y58300000I70000J0D01*
G01*
X44330000Y58300000D01*
G75*
G02*
X44400000Y58230000I0J-70000D01*
G01*
G37*
G36*
G01*
X42800000Y58230000D02*
X42800000Y57450000D01*
G75*
G02*
X42730000Y57380000I-70000J0D01*
G01*
X42170000Y57380000D01*
G75*
G02*
X42100000Y57450000I0J70000D01*
G01*
X42100000Y58230000D01*
G75*
G02*
X42170000Y58300000I70000J0D01*
G01*
X42730000Y58300000D01*
G75*
G02*
X42800000Y58230000I0J-70000D01*
G01*
G37*
G04 #@! TD*
G04 #@! TO.C,C21*
G36*
G01*
X48307487Y4010000D02*
X47257487Y4010000D01*
G75*
G02*
X47157487Y4110000I0J100000D01*
G01*
X47157487Y4910000D01*
G75*
G02*
X47257487Y5010000I100000J0D01*
G01*
X48307487Y5010000D01*
G75*
G02*
X48407487Y4910000I0J-100000D01*
G01*
X48407487Y4110000D01*
G75*
G02*
X48307487Y4010000I-100000J0D01*
G01*
G37*
G36*
G01*
X48307487Y6010000D02*
X47257487Y6010000D01*
G75*
G02*
X47157487Y6110000I0J100000D01*
G01*
X47157487Y6910000D01*
G75*
G02*
X47257487Y7010000I100000J0D01*
G01*
X48307487Y7010000D01*
G75*
G02*
X48407487Y6910000I0J-100000D01*
G01*
X48407487Y6110000D01*
G75*
G02*
X48307487Y6010000I-100000J0D01*
G01*
G37*
G04 #@! TD*
G04 #@! TO.C,R7*
G36*
G01*
X82572487Y3238318D02*
X81792487Y3238318D01*
G75*
G02*
X81722487Y3308318I0J70000D01*
G01*
X81722487Y3868318D01*
G75*
G02*
X81792487Y3938318I70000J0D01*
G01*
X82572487Y3938318D01*
G75*
G02*
X82642487Y3868318I0J-70000D01*
G01*
X82642487Y3308318D01*
G75*
G02*
X82572487Y3238318I-70000J0D01*
G01*
G37*
G36*
G01*
X82572487Y4838318D02*
X81792487Y4838318D01*
G75*
G02*
X81722487Y4908318I0J70000D01*
G01*
X81722487Y5468318D01*
G75*
G02*
X81792487Y5538318I70000J0D01*
G01*
X82572487Y5538318D01*
G75*
G02*
X82642487Y5468318I0J-70000D01*
G01*
X82642487Y4908318D01*
G75*
G02*
X82572487Y4838318I-70000J0D01*
G01*
G37*
G04 #@! TD*
G04 #@! TO.C,C32*
G36*
G01*
X94922487Y72294999D02*
X94242487Y72294999D01*
G75*
G02*
X94157487Y72379999I0J85000D01*
G01*
X94157487Y73059999D01*
G75*
G02*
X94242487Y73144999I85000J0D01*
G01*
X94922487Y73144999D01*
G75*
G02*
X95007487Y73059999I0J-85000D01*
G01*
X95007487Y72379999D01*
G75*
G02*
X94922487Y72294999I-85000J0D01*
G01*
G37*
G36*
G01*
X94922487Y73875001D02*
X94242487Y73875001D01*
G75*
G02*
X94157487Y73960001I0J85000D01*
G01*
X94157487Y74640001D01*
G75*
G02*
X94242487Y74725001I85000J0D01*
G01*
X94922487Y74725001D01*
G75*
G02*
X95007487Y74640001I0J-85000D01*
G01*
X95007487Y73960001D01*
G75*
G02*
X94922487Y73875001I-85000J0D01*
G01*
G37*
G04 #@! TD*
G04 #@! TO.C,R16*
G36*
G01*
X38622487Y88710000D02*
X37842487Y88710000D01*
G75*
G02*
X37772487Y88780000I0J70000D01*
G01*
X37772487Y89340000D01*
G75*
G02*
X37842487Y89410000I70000J0D01*
G01*
X38622487Y89410000D01*
G75*
G02*
X38692487Y89340000I0J-70000D01*
G01*
X38692487Y88780000D01*
G75*
G02*
X38622487Y88710000I-70000J0D01*
G01*
G37*
G36*
G01*
X38622487Y90310000D02*
X37842487Y90310000D01*
G75*
G02*
X37772487Y90380000I0J70000D01*
G01*
X37772487Y90940000D01*
G75*
G02*
X37842487Y91010000I70000J0D01*
G01*
X38622487Y91010000D01*
G75*
G02*
X38692487Y90940000I0J-70000D01*
G01*
X38692487Y90380000D01*
G75*
G02*
X38622487Y90310000I-70000J0D01*
G01*
G37*
G04 #@! TD*
G04 #@! TO.C,U9*
G36*
G01*
X41450000Y41055000D02*
X41450000Y40755000D01*
G75*
G02*
X41300000Y40605000I-150000J0D01*
G01*
X39650000Y40605000D01*
G75*
G02*
X39500000Y40755000I0J150000D01*
G01*
X39500000Y41055000D01*
G75*
G02*
X39650000Y41205000I150000J0D01*
G01*
X41300000Y41205000D01*
G75*
G02*
X41450000Y41055000I0J-150000D01*
G01*
G37*
G36*
G01*
X41450000Y39785000D02*
X41450000Y39485000D01*
G75*
G02*
X41300000Y39335000I-150000J0D01*
G01*
X39650000Y39335000D01*
G75*
G02*
X39500000Y39485000I0J150000D01*
G01*
X39500000Y39785000D01*
G75*
G02*
X39650000Y39935000I150000J0D01*
G01*
X41300000Y39935000D01*
G75*
G02*
X41450000Y39785000I0J-150000D01*
G01*
G37*
G36*
G01*
X41450000Y38515000D02*
X41450000Y38215000D01*
G75*
G02*
X41300000Y38065000I-150000J0D01*
G01*
X39650000Y38065000D01*
G75*
G02*
X39500000Y38215000I0J150000D01*
G01*
X39500000Y38515000D01*
G75*
G02*
X39650000Y38665000I150000J0D01*
G01*
X41300000Y38665000D01*
G75*
G02*
X41450000Y38515000I0J-150000D01*
G01*
G37*
G36*
G01*
X41450000Y37245000D02*
X41450000Y36945000D01*
G75*
G02*
X41300000Y36795000I-150000J0D01*
G01*
X39650000Y36795000D01*
G75*
G02*
X39500000Y36945000I0J150000D01*
G01*
X39500000Y37245000D01*
G75*
G02*
X39650000Y37395000I150000J0D01*
G01*
X41300000Y37395000D01*
G75*
G02*
X41450000Y37245000I0J-150000D01*
G01*
G37*
G36*
G01*
X36500000Y37245000D02*
X36500000Y36945000D01*
G75*
G02*
X36350000Y36795000I-150000J0D01*
G01*
X34700000Y36795000D01*
G75*
G02*
X34550000Y36945000I0J150000D01*
G01*
X34550000Y37245000D01*
G75*
G02*
X34700000Y37395000I150000J0D01*
G01*
X36350000Y37395000D01*
G75*
G02*
X36500000Y37245000I0J-150000D01*
G01*
G37*
G36*
G01*
X36500000Y38515000D02*
X36500000Y38215000D01*
G75*
G02*
X36350000Y38065000I-150000J0D01*
G01*
X34700000Y38065000D01*
G75*
G02*
X34550000Y38215000I0J150000D01*
G01*
X34550000Y38515000D01*
G75*
G02*
X34700000Y38665000I150000J0D01*
G01*
X36350000Y38665000D01*
G75*
G02*
X36500000Y38515000I0J-150000D01*
G01*
G37*
G36*
G01*
X36500000Y39785000D02*
X36500000Y39485000D01*
G75*
G02*
X36350000Y39335000I-150000J0D01*
G01*
X34700000Y39335000D01*
G75*
G02*
X34550000Y39485000I0J150000D01*
G01*
X34550000Y39785000D01*
G75*
G02*
X34700000Y39935000I150000J0D01*
G01*
X36350000Y39935000D01*
G75*
G02*
X36500000Y39785000I0J-150000D01*
G01*
G37*
G36*
G01*
X36500000Y41055000D02*
X36500000Y40755000D01*
G75*
G02*
X36350000Y40605000I-150000J0D01*
G01*
X34700000Y40605000D01*
G75*
G02*
X34550000Y40755000I0J150000D01*
G01*
X34550000Y41055000D01*
G75*
G02*
X34700000Y41205000I150000J0D01*
G01*
X36350000Y41205000D01*
G75*
G02*
X36500000Y41055000I0J-150000D01*
G01*
G37*
G04 #@! TD*
G04 #@! TO.C,R30*
G36*
G01*
X36750000Y35250000D02*
X36750000Y36030000D01*
G75*
G02*
X36820000Y36100000I70000J0D01*
G01*
X37380000Y36100000D01*
G75*
G02*
X37450000Y36030000I0J-70000D01*
G01*
X37450000Y35250000D01*
G75*
G02*
X37380000Y35180000I-70000J0D01*
G01*
X36820000Y35180000D01*
G75*
G02*
X36750000Y35250000I0J70000D01*
G01*
G37*
G36*
G01*
X38350000Y35250000D02*
X38350000Y36030000D01*
G75*
G02*
X38420000Y36100000I70000J0D01*
G01*
X38980000Y36100000D01*
G75*
G02*
X39050000Y36030000I0J-70000D01*
G01*
X39050000Y35250000D01*
G75*
G02*
X38980000Y35180000I-70000J0D01*
G01*
X38420000Y35180000D01*
G75*
G02*
X38350000Y35250000I0J70000D01*
G01*
G37*
G04 #@! TD*
G04 #@! TO.C,L2*
G36*
G01*
X87426237Y86235000D02*
X87938737Y86235000D01*
G75*
G02*
X88157487Y86016250I0J-218750D01*
G01*
X88157487Y85578750D01*
G75*
G02*
X87938737Y85360000I-218750J0D01*
G01*
X87426237Y85360000D01*
G75*
G02*
X87207487Y85578750I0J218750D01*
G01*
X87207487Y86016250D01*
G75*
G02*
X87426237Y86235000I218750J0D01*
G01*
G37*
G36*
G01*
X87426237Y84660000D02*
X87938737Y84660000D01*
G75*
G02*
X88157487Y84441250I0J-218750D01*
G01*
X88157487Y84003750D01*
G75*
G02*
X87938737Y83785000I-218750J0D01*
G01*
X87426237Y83785000D01*
G75*
G02*
X87207487Y84003750I0J218750D01*
G01*
X87207487Y84441250D01*
G75*
G02*
X87426237Y84660000I218750J0D01*
G01*
G37*
G04 #@! TD*
G04 #@! TO.C,C16*
G36*
G01*
X47257487Y11010000D02*
X48307487Y11010000D01*
G75*
G02*
X48407487Y10910000I0J-100000D01*
G01*
X48407487Y10110000D01*
G75*
G02*
X48307487Y10010000I-100000J0D01*
G01*
X47257487Y10010000D01*
G75*
G02*
X47157487Y10110000I0J100000D01*
G01*
X47157487Y10910000D01*
G75*
G02*
X47257487Y11010000I100000J0D01*
G01*
G37*
G36*
G01*
X47257487Y9010000D02*
X48307487Y9010000D01*
G75*
G02*
X48407487Y8910000I0J-100000D01*
G01*
X48407487Y8110000D01*
G75*
G02*
X48307487Y8010000I-100000J0D01*
G01*
X47257487Y8010000D01*
G75*
G02*
X47157487Y8110000I0J100000D01*
G01*
X47157487Y8910000D01*
G75*
G02*
X47257487Y9010000I100000J0D01*
G01*
G37*
G04 #@! TD*
G04 #@! TO.C,C22*
G36*
G01*
X50307487Y4010000D02*
X49257487Y4010000D01*
G75*
G02*
X49157487Y4110000I0J100000D01*
G01*
X49157487Y4910000D01*
G75*
G02*
X49257487Y5010000I100000J0D01*
G01*
X50307487Y5010000D01*
G75*
G02*
X50407487Y4910000I0J-100000D01*
G01*
X50407487Y4110000D01*
G75*
G02*
X50307487Y4010000I-100000J0D01*
G01*
G37*
G36*
G01*
X50307487Y6010000D02*
X49257487Y6010000D01*
G75*
G02*
X49157487Y6110000I0J100000D01*
G01*
X49157487Y6910000D01*
G75*
G02*
X49257487Y7010000I100000J0D01*
G01*
X50307487Y7010000D01*
G75*
G02*
X50407487Y6910000I0J-100000D01*
G01*
X50407487Y6110000D01*
G75*
G02*
X50307487Y6010000I-100000J0D01*
G01*
G37*
G04 #@! TD*
G04 #@! TO.C,R8*
G36*
G01*
X85072487Y3238318D02*
X84292487Y3238318D01*
G75*
G02*
X84222487Y3308318I0J70000D01*
G01*
X84222487Y3868318D01*
G75*
G02*
X84292487Y3938318I70000J0D01*
G01*
X85072487Y3938318D01*
G75*
G02*
X85142487Y3868318I0J-70000D01*
G01*
X85142487Y3308318D01*
G75*
G02*
X85072487Y3238318I-70000J0D01*
G01*
G37*
G36*
G01*
X85072487Y4838318D02*
X84292487Y4838318D01*
G75*
G02*
X84222487Y4908318I0J70000D01*
G01*
X84222487Y5468318D01*
G75*
G02*
X84292487Y5538318I70000J0D01*
G01*
X85072487Y5538318D01*
G75*
G02*
X85142487Y5468318I0J-70000D01*
G01*
X85142487Y4908318D01*
G75*
G02*
X85072487Y4838318I-70000J0D01*
G01*
G37*
G04 #@! TD*
G04 #@! TO.C,R3*
G36*
G01*
X49572487Y16860000D02*
X48792487Y16860000D01*
G75*
G02*
X48722487Y16930000I0J70000D01*
G01*
X48722487Y17490000D01*
G75*
G02*
X48792487Y17560000I70000J0D01*
G01*
X49572487Y17560000D01*
G75*
G02*
X49642487Y17490000I0J-70000D01*
G01*
X49642487Y16930000D01*
G75*
G02*
X49572487Y16860000I-70000J0D01*
G01*
G37*
G36*
G01*
X49572487Y18460000D02*
X48792487Y18460000D01*
G75*
G02*
X48722487Y18530000I0J70000D01*
G01*
X48722487Y19090000D01*
G75*
G02*
X48792487Y19160000I70000J0D01*
G01*
X49572487Y19160000D01*
G75*
G02*
X49642487Y19090000I0J-70000D01*
G01*
X49642487Y18530000D01*
G75*
G02*
X49572487Y18460000I-70000J0D01*
G01*
G37*
G04 #@! TD*
G04 #@! TO.C,R15*
G36*
G01*
X36072487Y88710000D02*
X35292487Y88710000D01*
G75*
G02*
X35222487Y88780000I0J70000D01*
G01*
X35222487Y89340000D01*
G75*
G02*
X35292487Y89410000I70000J0D01*
G01*
X36072487Y89410000D01*
G75*
G02*
X36142487Y89340000I0J-70000D01*
G01*
X36142487Y88780000D01*
G75*
G02*
X36072487Y88710000I-70000J0D01*
G01*
G37*
G36*
G01*
X36072487Y90310000D02*
X35292487Y90310000D01*
G75*
G02*
X35222487Y90380000I0J70000D01*
G01*
X35222487Y90940000D01*
G75*
G02*
X35292487Y91010000I70000J0D01*
G01*
X36072487Y91010000D01*
G75*
G02*
X36142487Y90940000I0J-70000D01*
G01*
X36142487Y90380000D01*
G75*
G02*
X36072487Y90310000I-70000J0D01*
G01*
G37*
G04 #@! TD*
G04 #@! TO.C,R13*
G36*
G01*
X49890000Y26350000D02*
X49110000Y26350000D01*
G75*
G02*
X49040000Y26420000I0J70000D01*
G01*
X49040000Y26980000D01*
G75*
G02*
X49110000Y27050000I70000J0D01*
G01*
X49890000Y27050000D01*
G75*
G02*
X49960000Y26980000I0J-70000D01*
G01*
X49960000Y26420000D01*
G75*
G02*
X49890000Y26350000I-70000J0D01*
G01*
G37*
G36*
G01*
X49890000Y27950000D02*
X49110000Y27950000D01*
G75*
G02*
X49040000Y28020000I0J70000D01*
G01*
X49040000Y28580000D01*
G75*
G02*
X49110000Y28650000I70000J0D01*
G01*
X49890000Y28650000D01*
G75*
G02*
X49960000Y28580000I0J-70000D01*
G01*
X49960000Y28020000D01*
G75*
G02*
X49890000Y27950000I-70000J0D01*
G01*
G37*
G04 #@! TD*
G04 #@! TO.C,R11*
G36*
G01*
X43530000Y61590000D02*
X43530000Y62370000D01*
G75*
G02*
X43600000Y62440000I70000J0D01*
G01*
X44160000Y62440000D01*
G75*
G02*
X44230000Y62370000I0J-70000D01*
G01*
X44230000Y61590000D01*
G75*
G02*
X44160000Y61520000I-70000J0D01*
G01*
X43600000Y61520000D01*
G75*
G02*
X43530000Y61590000I0J70000D01*
G01*
G37*
G36*
G01*
X45130000Y61590000D02*
X45130000Y62370000D01*
G75*
G02*
X45200000Y62440000I70000J0D01*
G01*
X45760000Y62440000D01*
G75*
G02*
X45830000Y62370000I0J-70000D01*
G01*
X45830000Y61590000D01*
G75*
G02*
X45760000Y61520000I-70000J0D01*
G01*
X45200000Y61520000D01*
G75*
G02*
X45130000Y61590000I0J70000D01*
G01*
G37*
G04 #@! TD*
G04 #@! TO.C,D3*
G36*
G01*
X38250000Y63880000D02*
X39270000Y63880000D01*
G75*
G02*
X39360000Y63790000I0J-90000D01*
G01*
X39360000Y63070000D01*
G75*
G02*
X39270000Y62980000I-90000J0D01*
G01*
X38250000Y62980000D01*
G75*
G02*
X38160000Y63070000I0J90000D01*
G01*
X38160000Y63790000D01*
G75*
G02*
X38250000Y63880000I90000J0D01*
G01*
G37*
G36*
G01*
X38250000Y60580000D02*
X39270000Y60580000D01*
G75*
G02*
X39360000Y60490000I0J-90000D01*
G01*
X39360000Y59770000D01*
G75*
G02*
X39270000Y59680000I-90000J0D01*
G01*
X38250000Y59680000D01*
G75*
G02*
X38160000Y59770000I0J90000D01*
G01*
X38160000Y60490000D01*
G75*
G02*
X38250000Y60580000I90000J0D01*
G01*
G37*
G04 #@! TD*
G04 #@! TO.C,C5*
G36*
G01*
X44782487Y20470000D02*
X45832487Y20470000D01*
G75*
G02*
X45932487Y20370000I0J-100000D01*
G01*
X45932487Y19570000D01*
G75*
G02*
X45832487Y19470000I-100000J0D01*
G01*
X44782487Y19470000D01*
G75*
G02*
X44682487Y19570000I0J100000D01*
G01*
X44682487Y20370000D01*
G75*
G02*
X44782487Y20470000I100000J0D01*
G01*
G37*
G36*
G01*
X44782487Y18470000D02*
X45832487Y18470000D01*
G75*
G02*
X45932487Y18370000I0J-100000D01*
G01*
X45932487Y17570000D01*
G75*
G02*
X45832487Y17470000I-100000J0D01*
G01*
X44782487Y17470000D01*
G75*
G02*
X44682487Y17570000I0J100000D01*
G01*
X44682487Y18370000D01*
G75*
G02*
X44782487Y18470000I100000J0D01*
G01*
G37*
G04 #@! TD*
G04 #@! TO.C,R32*
G36*
G01*
X36570000Y43780000D02*
X36570000Y44560000D01*
G75*
G02*
X36640000Y44630000I70000J0D01*
G01*
X37200000Y44630000D01*
G75*
G02*
X37270000Y44560000I0J-70000D01*
G01*
X37270000Y43780000D01*
G75*
G02*
X37200000Y43710000I-70000J0D01*
G01*
X36640000Y43710000D01*
G75*
G02*
X36570000Y43780000I0J70000D01*
G01*
G37*
G36*
G01*
X38170000Y43780000D02*
X38170000Y44560000D01*
G75*
G02*
X38240000Y44630000I70000J0D01*
G01*
X38800000Y44630000D01*
G75*
G02*
X38870000Y44560000I0J-70000D01*
G01*
X38870000Y43780000D01*
G75*
G02*
X38800000Y43710000I-70000J0D01*
G01*
X38240000Y43710000D01*
G75*
G02*
X38170000Y43780000I0J70000D01*
G01*
G37*
G04 #@! TD*
G04 #@! TO.C,C28*
G36*
G01*
X85767486Y82270000D02*
X85767486Y82950000D01*
G75*
G02*
X85852486Y83035000I85000J0D01*
G01*
X86532486Y83035000D01*
G75*
G02*
X86617486Y82950000I0J-85000D01*
G01*
X86617486Y82270000D01*
G75*
G02*
X86532486Y82185000I-85000J0D01*
G01*
X85852486Y82185000D01*
G75*
G02*
X85767486Y82270000I0J85000D01*
G01*
G37*
G36*
G01*
X87347488Y82270000D02*
X87347488Y82950000D01*
G75*
G02*
X87432488Y83035000I85000J0D01*
G01*
X88112488Y83035000D01*
G75*
G02*
X88197488Y82950000I0J-85000D01*
G01*
X88197488Y82270000D01*
G75*
G02*
X88112488Y82185000I-85000J0D01*
G01*
X87432488Y82185000D01*
G75*
G02*
X87347488Y82270000I0J85000D01*
G01*
G37*
G04 #@! TD*
G04 #@! TO.C,U6*
G36*
G01*
X35562487Y87735000D02*
X35862487Y87735000D01*
G75*
G02*
X36012487Y87585000I0J-150000D01*
G01*
X36012487Y85935000D01*
G75*
G02*
X35862487Y85785000I-150000J0D01*
G01*
X35562487Y85785000D01*
G75*
G02*
X35412487Y85935000I0J150000D01*
G01*
X35412487Y87585000D01*
G75*
G02*
X35562487Y87735000I150000J0D01*
G01*
G37*
G36*
G01*
X36832487Y87735000D02*
X37132487Y87735000D01*
G75*
G02*
X37282487Y87585000I0J-150000D01*
G01*
X37282487Y85935000D01*
G75*
G02*
X37132487Y85785000I-150000J0D01*
G01*
X36832487Y85785000D01*
G75*
G02*
X36682487Y85935000I0J150000D01*
G01*
X36682487Y87585000D01*
G75*
G02*
X36832487Y87735000I150000J0D01*
G01*
G37*
G36*
G01*
X38102487Y87735000D02*
X38402487Y87735000D01*
G75*
G02*
X38552487Y87585000I0J-150000D01*
G01*
X38552487Y85935000D01*
G75*
G02*
X38402487Y85785000I-150000J0D01*
G01*
X38102487Y85785000D01*
G75*
G02*
X37952487Y85935000I0J150000D01*
G01*
X37952487Y87585000D01*
G75*
G02*
X38102487Y87735000I150000J0D01*
G01*
G37*
G36*
G01*
X39372487Y87735000D02*
X39672487Y87735000D01*
G75*
G02*
X39822487Y87585000I0J-150000D01*
G01*
X39822487Y85935000D01*
G75*
G02*
X39672487Y85785000I-150000J0D01*
G01*
X39372487Y85785000D01*
G75*
G02*
X39222487Y85935000I0J150000D01*
G01*
X39222487Y87585000D01*
G75*
G02*
X39372487Y87735000I150000J0D01*
G01*
G37*
G36*
G01*
X39372487Y82785000D02*
X39672487Y82785000D01*
G75*
G02*
X39822487Y82635000I0J-150000D01*
G01*
X39822487Y80985000D01*
G75*
G02*
X39672487Y80835000I-150000J0D01*
G01*
X39372487Y80835000D01*
G75*
G02*
X39222487Y80985000I0J150000D01*
G01*
X39222487Y82635000D01*
G75*
G02*
X39372487Y82785000I150000J0D01*
G01*
G37*
G36*
G01*
X38102487Y82785000D02*
X38402487Y82785000D01*
G75*
G02*
X38552487Y82635000I0J-150000D01*
G01*
X38552487Y80985000D01*
G75*
G02*
X38402487Y80835000I-150000J0D01*
G01*
X38102487Y80835000D01*
G75*
G02*
X37952487Y80985000I0J150000D01*
G01*
X37952487Y82635000D01*
G75*
G02*
X38102487Y82785000I150000J0D01*
G01*
G37*
G36*
G01*
X36832487Y82785000D02*
X37132487Y82785000D01*
G75*
G02*
X37282487Y82635000I0J-150000D01*
G01*
X37282487Y80985000D01*
G75*
G02*
X37132487Y80835000I-150000J0D01*
G01*
X36832487Y80835000D01*
G75*
G02*
X36682487Y80985000I0J150000D01*
G01*
X36682487Y82635000D01*
G75*
G02*
X36832487Y82785000I150000J0D01*
G01*
G37*
G36*
G01*
X35562487Y82785000D02*
X35862487Y82785000D01*
G75*
G02*
X36012487Y82635000I0J-150000D01*
G01*
X36012487Y80985000D01*
G75*
G02*
X35862487Y80835000I-150000J0D01*
G01*
X35562487Y80835000D01*
G75*
G02*
X35412487Y80985000I0J150000D01*
G01*
X35412487Y82635000D01*
G75*
G02*
X35562487Y82785000I150000J0D01*
G01*
G37*
G04 #@! TD*
G04 #@! TO.C,R29*
G36*
G01*
X44410000Y41270000D02*
X44410000Y40490000D01*
G75*
G02*
X44340000Y40420000I-70000J0D01*
G01*
X43780000Y40420000D01*
G75*
G02*
X43710000Y40490000I0J70000D01*
G01*
X43710000Y41270000D01*
G75*
G02*
X43780000Y41340000I70000J0D01*
G01*
X44340000Y41340000D01*
G75*
G02*
X44410000Y41270000I0J-70000D01*
G01*
G37*
G36*
G01*
X42810000Y41270000D02*
X42810000Y40490000D01*
G75*
G02*
X42740000Y40420000I-70000J0D01*
G01*
X42180000Y40420000D01*
G75*
G02*
X42110000Y40490000I0J70000D01*
G01*
X42110000Y41270000D01*
G75*
G02*
X42180000Y41340000I70000J0D01*
G01*
X42740000Y41340000D01*
G75*
G02*
X42810000Y41270000I0J-70000D01*
G01*
G37*
G04 #@! TD*
G04 #@! TO.C,L1*
G36*
G01*
X89426237Y86235000D02*
X89938737Y86235000D01*
G75*
G02*
X90157487Y86016250I0J-218750D01*
G01*
X90157487Y85578750D01*
G75*
G02*
X89938737Y85360000I-218750J0D01*
G01*
X89426237Y85360000D01*
G75*
G02*
X89207487Y85578750I0J218750D01*
G01*
X89207487Y86016250D01*
G75*
G02*
X89426237Y86235000I218750J0D01*
G01*
G37*
G36*
G01*
X89426237Y84660000D02*
X89938737Y84660000D01*
G75*
G02*
X90157487Y84441250I0J-218750D01*
G01*
X90157487Y84003750D01*
G75*
G02*
X89938737Y83785000I-218750J0D01*
G01*
X89426237Y83785000D01*
G75*
G02*
X89207487Y84003750I0J218750D01*
G01*
X89207487Y84441250D01*
G75*
G02*
X89426237Y84660000I218750J0D01*
G01*
G37*
G04 #@! TD*
G04 #@! TO.C,C15*
G36*
G01*
X45257487Y11010000D02*
X46307487Y11010000D01*
G75*
G02*
X46407487Y10910000I0J-100000D01*
G01*
X46407487Y10110000D01*
G75*
G02*
X46307487Y10010000I-100000J0D01*
G01*
X45257487Y10010000D01*
G75*
G02*
X45157487Y10110000I0J100000D01*
G01*
X45157487Y10910000D01*
G75*
G02*
X45257487Y11010000I100000J0D01*
G01*
G37*
G36*
G01*
X45257487Y9010000D02*
X46307487Y9010000D01*
G75*
G02*
X46407487Y8910000I0J-100000D01*
G01*
X46407487Y8110000D01*
G75*
G02*
X46307487Y8010000I-100000J0D01*
G01*
X45257487Y8010000D01*
G75*
G02*
X45157487Y8110000I0J100000D01*
G01*
X45157487Y8910000D01*
G75*
G02*
X45257487Y9010000I100000J0D01*
G01*
G37*
G04 #@! TD*
G04 #@! TO.C,C8*
G36*
G01*
X41832487Y13470000D02*
X40782487Y13470000D01*
G75*
G02*
X40682487Y13570000I0J100000D01*
G01*
X40682487Y14370000D01*
G75*
G02*
X40782487Y14470000I100000J0D01*
G01*
X41832487Y14470000D01*
G75*
G02*
X41932487Y14370000I0J-100000D01*
G01*
X41932487Y13570000D01*
G75*
G02*
X41832487Y13470000I-100000J0D01*
G01*
G37*
G36*
G01*
X41832487Y15470000D02*
X40782487Y15470000D01*
G75*
G02*
X40682487Y15570000I0J100000D01*
G01*
X40682487Y16370000D01*
G75*
G02*
X40782487Y16470000I100000J0D01*
G01*
X41832487Y16470000D01*
G75*
G02*
X41932487Y16370000I0J-100000D01*
G01*
X41932487Y15570000D01*
G75*
G02*
X41832487Y15470000I-100000J0D01*
G01*
G37*
G04 #@! TD*
G04 #@! TO.C,C9*
G36*
G01*
X43832487Y13470000D02*
X42782487Y13470000D01*
G75*
G02*
X42682487Y13570000I0J100000D01*
G01*
X42682487Y14370000D01*
G75*
G02*
X42782487Y14470000I100000J0D01*
G01*
X43832487Y14470000D01*
G75*
G02*
X43932487Y14370000I0J-100000D01*
G01*
X43932487Y13570000D01*
G75*
G02*
X43832487Y13470000I-100000J0D01*
G01*
G37*
G36*
G01*
X43832487Y15470000D02*
X42782487Y15470000D01*
G75*
G02*
X42682487Y15570000I0J100000D01*
G01*
X42682487Y16370000D01*
G75*
G02*
X42782487Y16470000I100000J0D01*
G01*
X43832487Y16470000D01*
G75*
G02*
X43932487Y16370000I0J-100000D01*
G01*
X43932487Y15570000D01*
G75*
G02*
X43832487Y15470000I-100000J0D01*
G01*
G37*
G04 #@! TD*
G04 #@! TO.C,C6*
G36*
G01*
X37832487Y13470000D02*
X36782487Y13470000D01*
G75*
G02*
X36682487Y13570000I0J100000D01*
G01*
X36682487Y14370000D01*
G75*
G02*
X36782487Y14470000I100000J0D01*
G01*
X37832487Y14470000D01*
G75*
G02*
X37932487Y14370000I0J-100000D01*
G01*
X37932487Y13570000D01*
G75*
G02*
X37832487Y13470000I-100000J0D01*
G01*
G37*
G36*
G01*
X37832487Y15470000D02*
X36782487Y15470000D01*
G75*
G02*
X36682487Y15570000I0J100000D01*
G01*
X36682487Y16370000D01*
G75*
G02*
X36782487Y16470000I100000J0D01*
G01*
X37832487Y16470000D01*
G75*
G02*
X37932487Y16370000I0J-100000D01*
G01*
X37932487Y15570000D01*
G75*
G02*
X37832487Y15470000I-100000J0D01*
G01*
G37*
G04 #@! TD*
G04 #@! TO.C,D5*
G36*
G01*
X35565000Y28590000D02*
X35565000Y29610000D01*
G75*
G02*
X35655000Y29700000I90000J0D01*
G01*
X36375000Y29700000D01*
G75*
G02*
X36465000Y29610000I0J-90000D01*
G01*
X36465000Y28590000D01*
G75*
G02*
X36375000Y28500000I-90000J0D01*
G01*
X35655000Y28500000D01*
G75*
G02*
X35565000Y28590000I0J90000D01*
G01*
G37*
G36*
G01*
X38865000Y28590000D02*
X38865000Y29610000D01*
G75*
G02*
X38955000Y29700000I90000J0D01*
G01*
X39675000Y29700000D01*
G75*
G02*
X39765000Y29610000I0J-90000D01*
G01*
X39765000Y28590000D01*
G75*
G02*
X39675000Y28500000I-90000J0D01*
G01*
X38955000Y28500000D01*
G75*
G02*
X38865000Y28590000I0J90000D01*
G01*
G37*
G04 #@! TD*
G04 #@! TO.C,C2*
G36*
G01*
X38782487Y20470000D02*
X39832487Y20470000D01*
G75*
G02*
X39932487Y20370000I0J-100000D01*
G01*
X39932487Y19570000D01*
G75*
G02*
X39832487Y19470000I-100000J0D01*
G01*
X38782487Y19470000D01*
G75*
G02*
X38682487Y19570000I0J100000D01*
G01*
X38682487Y20370000D01*
G75*
G02*
X38782487Y20470000I100000J0D01*
G01*
G37*
G36*
G01*
X38782487Y18470000D02*
X39832487Y18470000D01*
G75*
G02*
X39932487Y18370000I0J-100000D01*
G01*
X39932487Y17570000D01*
G75*
G02*
X39832487Y17470000I-100000J0D01*
G01*
X38782487Y17470000D01*
G75*
G02*
X38682487Y17570000I0J100000D01*
G01*
X38682487Y18370000D01*
G75*
G02*
X38782487Y18470000I100000J0D01*
G01*
G37*
G04 #@! TD*
G04 #@! TO.C,C18*
G36*
G01*
X51257487Y11010000D02*
X52307487Y11010000D01*
G75*
G02*
X52407487Y10910000I0J-100000D01*
G01*
X52407487Y10110000D01*
G75*
G02*
X52307487Y10010000I-100000J0D01*
G01*
X51257487Y10010000D01*
G75*
G02*
X51157487Y10110000I0J100000D01*
G01*
X51157487Y10910000D01*
G75*
G02*
X51257487Y11010000I100000J0D01*
G01*
G37*
G36*
G01*
X51257487Y9010000D02*
X52307487Y9010000D01*
G75*
G02*
X52407487Y8910000I0J-100000D01*
G01*
X52407487Y8110000D01*
G75*
G02*
X52307487Y8010000I-100000J0D01*
G01*
X51257487Y8010000D01*
G75*
G02*
X51157487Y8110000I0J100000D01*
G01*
X51157487Y8910000D01*
G75*
G02*
X51257487Y9010000I100000J0D01*
G01*
G37*
G04 #@! TD*
G04 #@! TO.C,R12*
G36*
G01*
X49890000Y29850000D02*
X49110000Y29850000D01*
G75*
G02*
X49040000Y29920000I0J70000D01*
G01*
X49040000Y30480000D01*
G75*
G02*
X49110000Y30550000I70000J0D01*
G01*
X49890000Y30550000D01*
G75*
G02*
X49960000Y30480000I0J-70000D01*
G01*
X49960000Y29920000D01*
G75*
G02*
X49890000Y29850000I-70000J0D01*
G01*
G37*
G36*
G01*
X49890000Y31450000D02*
X49110000Y31450000D01*
G75*
G02*
X49040000Y31520000I0J70000D01*
G01*
X49040000Y32080000D01*
G75*
G02*
X49110000Y32150000I70000J0D01*
G01*
X49890000Y32150000D01*
G75*
G02*
X49960000Y32080000I0J-70000D01*
G01*
X49960000Y31520000D01*
G75*
G02*
X49890000Y31450000I-70000J0D01*
G01*
G37*
G04 #@! TD*
G04 #@! TO.C,C20*
G36*
G01*
X46307487Y4010000D02*
X45257487Y4010000D01*
G75*
G02*
X45157487Y4110000I0J100000D01*
G01*
X45157487Y4910000D01*
G75*
G02*
X45257487Y5010000I100000J0D01*
G01*
X46307487Y5010000D01*
G75*
G02*
X46407487Y4910000I0J-100000D01*
G01*
X46407487Y4110000D01*
G75*
G02*
X46307487Y4010000I-100000J0D01*
G01*
G37*
G36*
G01*
X46307487Y6010000D02*
X45257487Y6010000D01*
G75*
G02*
X45157487Y6110000I0J100000D01*
G01*
X45157487Y6910000D01*
G75*
G02*
X45257487Y7010000I100000J0D01*
G01*
X46307487Y7010000D01*
G75*
G02*
X46407487Y6910000I0J-100000D01*
G01*
X46407487Y6110000D01*
G75*
G02*
X46307487Y6010000I-100000J0D01*
G01*
G37*
G04 #@! TD*
G04 #@! TO.C,R5*
G36*
G01*
X89692487Y62960000D02*
X90472487Y62960000D01*
G75*
G02*
X90542487Y62890000I0J-70000D01*
G01*
X90542487Y62330000D01*
G75*
G02*
X90472487Y62260000I-70000J0D01*
G01*
X89692487Y62260000D01*
G75*
G02*
X89622487Y62330000I0J70000D01*
G01*
X89622487Y62890000D01*
G75*
G02*
X89692487Y62960000I70000J0D01*
G01*
G37*
G36*
G01*
X89692487Y61360000D02*
X90472487Y61360000D01*
G75*
G02*
X90542487Y61290000I0J-70000D01*
G01*
X90542487Y60730000D01*
G75*
G02*
X90472487Y60660000I-70000J0D01*
G01*
X89692487Y60660000D01*
G75*
G02*
X89622487Y60730000I0J70000D01*
G01*
X89622487Y61290000D01*
G75*
G02*
X89692487Y61360000I70000J0D01*
G01*
G37*
G04 #@! TD*
G04 #@! TO.C,R6*
G36*
G01*
X110392487Y71960000D02*
X111172487Y71960000D01*
G75*
G02*
X111242487Y71890000I0J-70000D01*
G01*
X111242487Y71330000D01*
G75*
G02*
X111172487Y71260000I-70000J0D01*
G01*
X110392487Y71260000D01*
G75*
G02*
X110322487Y71330000I0J70000D01*
G01*
X110322487Y71890000D01*
G75*
G02*
X110392487Y71960000I70000J0D01*
G01*
G37*
G36*
G01*
X110392487Y70360000D02*
X111172487Y70360000D01*
G75*
G02*
X111242487Y70290000I0J-70000D01*
G01*
X111242487Y69730000D01*
G75*
G02*
X111172487Y69660000I-70000J0D01*
G01*
X110392487Y69660000D01*
G75*
G02*
X110322487Y69730000I0J70000D01*
G01*
X110322487Y70290000D01*
G75*
G02*
X110392487Y70360000I70000J0D01*
G01*
G37*
G04 #@! TD*
G04 #@! TO.C,R2*
G36*
G01*
X49572487Y19860000D02*
X48792487Y19860000D01*
G75*
G02*
X48722487Y19930000I0J70000D01*
G01*
X48722487Y20490000D01*
G75*
G02*
X48792487Y20560000I70000J0D01*
G01*
X49572487Y20560000D01*
G75*
G02*
X49642487Y20490000I0J-70000D01*
G01*
X49642487Y19930000D01*
G75*
G02*
X49572487Y19860000I-70000J0D01*
G01*
G37*
G36*
G01*
X49572487Y21460000D02*
X48792487Y21460000D01*
G75*
G02*
X48722487Y21530000I0J70000D01*
G01*
X48722487Y22090000D01*
G75*
G02*
X48792487Y22160000I70000J0D01*
G01*
X49572487Y22160000D01*
G75*
G02*
X49642487Y22090000I0J-70000D01*
G01*
X49642487Y21530000D01*
G75*
G02*
X49572487Y21460000I-70000J0D01*
G01*
G37*
G04 #@! TD*
G04 #@! TO.C,U8*
G36*
G01*
X48450000Y32055000D02*
X48450000Y31755000D01*
G75*
G02*
X48300000Y31605000I-150000J0D01*
G01*
X46650000Y31605000D01*
G75*
G02*
X46500000Y31755000I0J150000D01*
G01*
X46500000Y32055000D01*
G75*
G02*
X46650000Y32205000I150000J0D01*
G01*
X48300000Y32205000D01*
G75*
G02*
X48450000Y32055000I0J-150000D01*
G01*
G37*
G36*
G01*
X48450000Y30785000D02*
X48450000Y30485000D01*
G75*
G02*
X48300000Y30335000I-150000J0D01*
G01*
X46650000Y30335000D01*
G75*
G02*
X46500000Y30485000I0J150000D01*
G01*
X46500000Y30785000D01*
G75*
G02*
X46650000Y30935000I150000J0D01*
G01*
X48300000Y30935000D01*
G75*
G02*
X48450000Y30785000I0J-150000D01*
G01*
G37*
G36*
G01*
X48450000Y29515000D02*
X48450000Y29215000D01*
G75*
G02*
X48300000Y29065000I-150000J0D01*
G01*
X46650000Y29065000D01*
G75*
G02*
X46500000Y29215000I0J150000D01*
G01*
X46500000Y29515000D01*
G75*
G02*
X46650000Y29665000I150000J0D01*
G01*
X48300000Y29665000D01*
G75*
G02*
X48450000Y29515000I0J-150000D01*
G01*
G37*
G36*
G01*
X48450000Y28245000D02*
X48450000Y27945000D01*
G75*
G02*
X48300000Y27795000I-150000J0D01*
G01*
X46650000Y27795000D01*
G75*
G02*
X46500000Y27945000I0J150000D01*
G01*
X46500000Y28245000D01*
G75*
G02*
X46650000Y28395000I150000J0D01*
G01*
X48300000Y28395000D01*
G75*
G02*
X48450000Y28245000I0J-150000D01*
G01*
G37*
G36*
G01*
X43500000Y28245000D02*
X43500000Y27945000D01*
G75*
G02*
X43350000Y27795000I-150000J0D01*
G01*
X41700000Y27795000D01*
G75*
G02*
X41550000Y27945000I0J150000D01*
G01*
X41550000Y28245000D01*
G75*
G02*
X41700000Y28395000I150000J0D01*
G01*
X43350000Y28395000D01*
G75*
G02*
X43500000Y28245000I0J-150000D01*
G01*
G37*
G36*
G01*
X43500000Y29515000D02*
X43500000Y29215000D01*
G75*
G02*
X43350000Y29065000I-150000J0D01*
G01*
X41700000Y29065000D01*
G75*
G02*
X41550000Y29215000I0J150000D01*
G01*
X41550000Y29515000D01*
G75*
G02*
X41700000Y29665000I150000J0D01*
G01*
X43350000Y29665000D01*
G75*
G02*
X43500000Y29515000I0J-150000D01*
G01*
G37*
G36*
G01*
X43500000Y30785000D02*
X43500000Y30485000D01*
G75*
G02*
X43350000Y30335000I-150000J0D01*
G01*
X41700000Y30335000D01*
G75*
G02*
X41550000Y30485000I0J150000D01*
G01*
X41550000Y30785000D01*
G75*
G02*
X41700000Y30935000I150000J0D01*
G01*
X43350000Y30935000D01*
G75*
G02*
X43500000Y30785000I0J-150000D01*
G01*
G37*
G36*
G01*
X43500000Y32055000D02*
X43500000Y31755000D01*
G75*
G02*
X43350000Y31605000I-150000J0D01*
G01*
X41700000Y31605000D01*
G75*
G02*
X41550000Y31755000I0J150000D01*
G01*
X41550000Y32055000D01*
G75*
G02*
X41700000Y32205000I150000J0D01*
G01*
X43350000Y32205000D01*
G75*
G02*
X43500000Y32055000I0J-150000D01*
G01*
G37*
G04 #@! TD*
M02*
