G04 #@! TF.GenerationSoftware,KiCad,Pcbnew,8.0.9-8.0.9-0~ubuntu24.04.1*
G04 #@! TF.CreationDate,2025-10-26T13:01:33+00:00*
G04 #@! TF.ProjectId,uaefi,75616566-692e-46b6-9963-61645f706362,E*
G04 #@! TF.SameCoordinates,Original*
G04 #@! TF.FileFunction,Paste,Top*
G04 #@! TF.FilePolarity,Positive*
%FSLAX46Y46*%
G04 Gerber Fmt 4.6, Leading zero omitted, Abs format (unit mm)*
G04 Created by KiCad (PCBNEW 8.0.9-8.0.9-0~ubuntu24.04.1) date 2025-10-26 13:01:33*
%MOMM*%
%LPD*%
G01*
G04 APERTURE LIST*
%ADD10O,0.000001X0.000001*%
%ADD11R,1.300000X1.000000*%
%ADD12R,1.950000X1.160000*%
%ADD13R,2.000000X0.650000*%
%ADD14R,0.300000X1.150000*%
%ADD15R,0.690000X1.350000*%
G04 APERTURE END LIST*
G04 #@! TO.C,R40*
G36*
G01*
X64205000Y83249999D02*
X62955000Y83249999D01*
G75*
G02*
X62855000Y83349999I0J100000D01*
G01*
X62855000Y84149999D01*
G75*
G02*
X62955000Y84249999I100000J0D01*
G01*
X64205000Y84249999D01*
G75*
G02*
X64305000Y84149999I0J-100000D01*
G01*
X64305000Y83349999D01*
G75*
G02*
X64205000Y83249999I-100000J0D01*
G01*
G37*
G36*
G01*
X64205000Y85150021D02*
X62955000Y85150021D01*
G75*
G02*
X62855000Y85250021I0J100000D01*
G01*
X62855000Y86050021D01*
G75*
G02*
X62955000Y86150021I100000J0D01*
G01*
X64205000Y86150021D01*
G75*
G02*
X64305000Y86050021I0J-100000D01*
G01*
X64305000Y85250021D01*
G75*
G02*
X64205000Y85150021I-100000J0D01*
G01*
G37*
G04 #@! TD*
G04 #@! TO.C,C24*
G36*
G01*
X40442487Y10225001D02*
X41122487Y10225001D01*
G75*
G02*
X41207487Y10140001I0J-85000D01*
G01*
X41207487Y9460001D01*
G75*
G02*
X41122487Y9375001I-85000J0D01*
G01*
X40442487Y9375001D01*
G75*
G02*
X40357487Y9460001I0J85000D01*
G01*
X40357487Y10140001D01*
G75*
G02*
X40442487Y10225001I85000J0D01*
G01*
G37*
G36*
G01*
X40442487Y8644999D02*
X41122487Y8644999D01*
G75*
G02*
X41207487Y8559999I0J-85000D01*
G01*
X41207487Y7879999D01*
G75*
G02*
X41122487Y7794999I-85000J0D01*
G01*
X40442487Y7794999D01*
G75*
G02*
X40357487Y7879999I0J85000D01*
G01*
X40357487Y8559999D01*
G75*
G02*
X40442487Y8644999I85000J0D01*
G01*
G37*
G04 #@! TD*
G04 #@! TO.C,R39*
G36*
G01*
X101860001Y88145000D02*
X101860001Y86895000D01*
G75*
G02*
X101760001Y86795000I-100000J0D01*
G01*
X100960001Y86795000D01*
G75*
G02*
X100860001Y86895000I0J100000D01*
G01*
X100860001Y88145000D01*
G75*
G02*
X100960001Y88245000I100000J0D01*
G01*
X101760001Y88245000D01*
G75*
G02*
X101860001Y88145000I0J-100000D01*
G01*
G37*
G36*
G01*
X99959979Y88145000D02*
X99959979Y86895000D01*
G75*
G02*
X99859979Y86795000I-100000J0D01*
G01*
X99059979Y86795000D01*
G75*
G02*
X98959979Y86895000I0J100000D01*
G01*
X98959979Y88145000D01*
G75*
G02*
X99059979Y88245000I100000J0D01*
G01*
X99859979Y88245000D01*
G75*
G02*
X99959979Y88145000I0J-100000D01*
G01*
G37*
G04 #@! TD*
G04 #@! TO.C,C26*
G36*
G01*
X56442487Y6725001D02*
X57122487Y6725001D01*
G75*
G02*
X57207487Y6640001I0J-85000D01*
G01*
X57207487Y5960001D01*
G75*
G02*
X57122487Y5875001I-85000J0D01*
G01*
X56442487Y5875001D01*
G75*
G02*
X56357487Y5960001I0J85000D01*
G01*
X56357487Y6640001D01*
G75*
G02*
X56442487Y6725001I85000J0D01*
G01*
G37*
G36*
G01*
X56442487Y5144999D02*
X57122487Y5144999D01*
G75*
G02*
X57207487Y5059999I0J-85000D01*
G01*
X57207487Y4379999D01*
G75*
G02*
X57122487Y4294999I-85000J0D01*
G01*
X56442487Y4294999D01*
G75*
G02*
X56357487Y4379999I0J85000D01*
G01*
X56357487Y5059999D01*
G75*
G02*
X56442487Y5144999I85000J0D01*
G01*
G37*
G04 #@! TD*
G04 #@! TO.C,C13*
G36*
G01*
X49567487Y16185001D02*
X50247487Y16185001D01*
G75*
G02*
X50332487Y16100001I0J-85000D01*
G01*
X50332487Y15420001D01*
G75*
G02*
X50247487Y15335001I-85000J0D01*
G01*
X49567487Y15335001D01*
G75*
G02*
X49482487Y15420001I0J85000D01*
G01*
X49482487Y16100001D01*
G75*
G02*
X49567487Y16185001I85000J0D01*
G01*
G37*
G36*
G01*
X49567487Y14604999D02*
X50247487Y14604999D01*
G75*
G02*
X50332487Y14519999I0J-85000D01*
G01*
X50332487Y13839999D01*
G75*
G02*
X50247487Y13754999I-85000J0D01*
G01*
X49567487Y13754999D01*
G75*
G02*
X49482487Y13839999I0J85000D01*
G01*
X49482487Y14519999D01*
G75*
G02*
X49567487Y14604999I85000J0D01*
G01*
G37*
G04 #@! TD*
G04 #@! TO.C,F4*
G36*
G01*
X50682487Y18115010D02*
X50682487Y18805010D01*
G75*
G02*
X50912487Y19035010I230000J0D01*
G01*
X52252487Y19035010D01*
G75*
G02*
X52482487Y18805010I0J-230000D01*
G01*
X52482487Y18115010D01*
G75*
G02*
X52252487Y17885010I-230000J0D01*
G01*
X50912487Y17885010D01*
G75*
G02*
X50682487Y18115010I0J230000D01*
G01*
G37*
G36*
G01*
X50682487Y15214990D02*
X50682487Y15904990D01*
G75*
G02*
X50912487Y16134990I230000J0D01*
G01*
X52252487Y16134990D01*
G75*
G02*
X52482487Y15904990I0J-230000D01*
G01*
X52482487Y15214990D01*
G75*
G02*
X52252487Y14984990I-230000J0D01*
G01*
X50912487Y14984990D01*
G75*
G02*
X50682487Y15214990I0J230000D01*
G01*
G37*
G04 #@! TD*
G04 #@! TO.C,R37*
G36*
G01*
X65045000Y86120001D02*
X66295000Y86120001D01*
G75*
G02*
X66395000Y86020001I0J-100000D01*
G01*
X66395000Y85220001D01*
G75*
G02*
X66295000Y85120001I-100000J0D01*
G01*
X65045000Y85120001D01*
G75*
G02*
X64945000Y85220001I0J100000D01*
G01*
X64945000Y86020001D01*
G75*
G02*
X65045000Y86120001I100000J0D01*
G01*
G37*
G36*
G01*
X65045000Y84219979D02*
X66295000Y84219979D01*
G75*
G02*
X66395000Y84119979I0J-100000D01*
G01*
X66395000Y83319979D01*
G75*
G02*
X66295000Y83219979I-100000J0D01*
G01*
X65045000Y83219979D01*
G75*
G02*
X64945000Y83319979I0J100000D01*
G01*
X64945000Y84119979D01*
G75*
G02*
X65045000Y84219979I100000J0D01*
G01*
G37*
G04 #@! TD*
G04 #@! TO.C,F9*
G36*
G01*
X59445000Y35953750D02*
X59445000Y36466250D01*
G75*
G02*
X59663750Y36685000I218750J0D01*
G01*
X60101250Y36685000D01*
G75*
G02*
X60320000Y36466250I0J-218750D01*
G01*
X60320000Y35953750D01*
G75*
G02*
X60101250Y35735000I-218750J0D01*
G01*
X59663750Y35735000D01*
G75*
G02*
X59445000Y35953750I0J218750D01*
G01*
G37*
G36*
G01*
X61020000Y35953750D02*
X61020000Y36466250D01*
G75*
G02*
X61238750Y36685000I218750J0D01*
G01*
X61676250Y36685000D01*
G75*
G02*
X61895000Y36466250I0J-218750D01*
G01*
X61895000Y35953750D01*
G75*
G02*
X61676250Y35735000I-218750J0D01*
G01*
X61238750Y35735000D01*
G75*
G02*
X61020000Y35953750I0J218750D01*
G01*
G37*
G04 #@! TD*
G04 #@! TO.C,C11*
G36*
G01*
X34442487Y18525001D02*
X35122487Y18525001D01*
G75*
G02*
X35207487Y18440001I0J-85000D01*
G01*
X35207487Y17760001D01*
G75*
G02*
X35122487Y17675001I-85000J0D01*
G01*
X34442487Y17675001D01*
G75*
G02*
X34357487Y17760001I0J85000D01*
G01*
X34357487Y18440001D01*
G75*
G02*
X34442487Y18525001I85000J0D01*
G01*
G37*
G36*
G01*
X34442487Y16944999D02*
X35122487Y16944999D01*
G75*
G02*
X35207487Y16859999I0J-85000D01*
G01*
X35207487Y16179999D01*
G75*
G02*
X35122487Y16094999I-85000J0D01*
G01*
X34442487Y16094999D01*
G75*
G02*
X34357487Y16179999I0J85000D01*
G01*
X34357487Y16859999D01*
G75*
G02*
X34442487Y16944999I85000J0D01*
G01*
G37*
G04 #@! TD*
G04 #@! TO.C,F6*
G36*
G01*
X58447500Y51703750D02*
X58447500Y52216250D01*
G75*
G02*
X58666250Y52435000I218750J0D01*
G01*
X59103750Y52435000D01*
G75*
G02*
X59322500Y52216250I0J-218750D01*
G01*
X59322500Y51703750D01*
G75*
G02*
X59103750Y51485000I-218750J0D01*
G01*
X58666250Y51485000D01*
G75*
G02*
X58447500Y51703750I0J218750D01*
G01*
G37*
G36*
G01*
X60022500Y51703750D02*
X60022500Y52216250D01*
G75*
G02*
X60241250Y52435000I218750J0D01*
G01*
X60678750Y52435000D01*
G75*
G02*
X60897500Y52216250I0J-218750D01*
G01*
X60897500Y51703750D01*
G75*
G02*
X60678750Y51485000I-218750J0D01*
G01*
X60241250Y51485000D01*
G75*
G02*
X60022500Y51703750I0J218750D01*
G01*
G37*
G04 #@! TD*
G04 #@! TO.C,F10*
G36*
G01*
X59387500Y34013750D02*
X59387500Y34526250D01*
G75*
G02*
X59606250Y34745000I218750J0D01*
G01*
X60043750Y34745000D01*
G75*
G02*
X60262500Y34526250I0J-218750D01*
G01*
X60262500Y34013750D01*
G75*
G02*
X60043750Y33795000I-218750J0D01*
G01*
X59606250Y33795000D01*
G75*
G02*
X59387500Y34013750I0J218750D01*
G01*
G37*
G36*
G01*
X60962500Y34013750D02*
X60962500Y34526250D01*
G75*
G02*
X61181250Y34745000I218750J0D01*
G01*
X61618750Y34745000D01*
G75*
G02*
X61837500Y34526250I0J-218750D01*
G01*
X61837500Y34013750D01*
G75*
G02*
X61618750Y33795000I-218750J0D01*
G01*
X61181250Y33795000D01*
G75*
G02*
X60962500Y34013750I0J218750D01*
G01*
G37*
G04 #@! TD*
G04 #@! TO.C,F3*
G36*
G01*
X52882487Y18115010D02*
X52882487Y18805010D01*
G75*
G02*
X53112487Y19035010I230000J0D01*
G01*
X54452487Y19035010D01*
G75*
G02*
X54682487Y18805010I0J-230000D01*
G01*
X54682487Y18115010D01*
G75*
G02*
X54452487Y17885010I-230000J0D01*
G01*
X53112487Y17885010D01*
G75*
G02*
X52882487Y18115010I0J230000D01*
G01*
G37*
G36*
G01*
X52882487Y15214990D02*
X52882487Y15904990D01*
G75*
G02*
X53112487Y16134990I230000J0D01*
G01*
X54452487Y16134990D01*
G75*
G02*
X54682487Y15904990I0J-230000D01*
G01*
X54682487Y15214990D01*
G75*
G02*
X54452487Y14984990I-230000J0D01*
G01*
X53112487Y14984990D01*
G75*
G02*
X52882487Y15214990I0J230000D01*
G01*
G37*
G04 #@! TD*
G04 #@! TO.C,C25*
G36*
G01*
X41122487Y4294999D02*
X40442487Y4294999D01*
G75*
G02*
X40357487Y4379999I0J85000D01*
G01*
X40357487Y5059999D01*
G75*
G02*
X40442487Y5144999I85000J0D01*
G01*
X41122487Y5144999D01*
G75*
G02*
X41207487Y5059999I0J-85000D01*
G01*
X41207487Y4379999D01*
G75*
G02*
X41122487Y4294999I-85000J0D01*
G01*
G37*
G36*
G01*
X41122487Y5875001D02*
X40442487Y5875001D01*
G75*
G02*
X40357487Y5960001I0J85000D01*
G01*
X40357487Y6640001D01*
G75*
G02*
X40442487Y6725001I85000J0D01*
G01*
X41122487Y6725001D01*
G75*
G02*
X41207487Y6640001I0J-85000D01*
G01*
X41207487Y5960001D01*
G75*
G02*
X41122487Y5875001I-85000J0D01*
G01*
G37*
G04 #@! TD*
G04 #@! TO.C,F8*
G36*
G01*
X59415000Y37863750D02*
X59415000Y38376250D01*
G75*
G02*
X59633750Y38595000I218750J0D01*
G01*
X60071250Y38595000D01*
G75*
G02*
X60290000Y38376250I0J-218750D01*
G01*
X60290000Y37863750D01*
G75*
G02*
X60071250Y37645000I-218750J0D01*
G01*
X59633750Y37645000D01*
G75*
G02*
X59415000Y37863750I0J218750D01*
G01*
G37*
G36*
G01*
X60990000Y37863750D02*
X60990000Y38376250D01*
G75*
G02*
X61208750Y38595000I218750J0D01*
G01*
X61646250Y38595000D01*
G75*
G02*
X61865000Y38376250I0J-218750D01*
G01*
X61865000Y37863750D01*
G75*
G02*
X61646250Y37645000I-218750J0D01*
G01*
X61208750Y37645000D01*
G75*
G02*
X60990000Y37863750I0J218750D01*
G01*
G37*
G04 #@! TD*
D10*
G04 #@! TO.C,M7*
X64082490Y48309999D03*
G04 #@! TD*
G04 #@! TO.C,R9*
G36*
G01*
X49517487Y19120000D02*
X50297487Y19120000D01*
G75*
G02*
X50367487Y19050000I0J-70000D01*
G01*
X50367487Y18490000D01*
G75*
G02*
X50297487Y18420000I-70000J0D01*
G01*
X49517487Y18420000D01*
G75*
G02*
X49447487Y18490000I0J70000D01*
G01*
X49447487Y19050000D01*
G75*
G02*
X49517487Y19120000I70000J0D01*
G01*
G37*
G36*
G01*
X49517487Y17520000D02*
X50297487Y17520000D01*
G75*
G02*
X50367487Y17450000I0J-70000D01*
G01*
X50367487Y16890000D01*
G75*
G02*
X50297487Y16820000I-70000J0D01*
G01*
X49517487Y16820000D01*
G75*
G02*
X49447487Y16890000I0J70000D01*
G01*
X49447487Y17450000D01*
G75*
G02*
X49517487Y17520000I70000J0D01*
G01*
G37*
G04 #@! TD*
G04 #@! TO.C,F7*
G36*
G01*
X58347500Y47723750D02*
X58347500Y48236250D01*
G75*
G02*
X58566250Y48455000I218750J0D01*
G01*
X59003750Y48455000D01*
G75*
G02*
X59222500Y48236250I0J-218750D01*
G01*
X59222500Y47723750D01*
G75*
G02*
X59003750Y47505000I-218750J0D01*
G01*
X58566250Y47505000D01*
G75*
G02*
X58347500Y47723750I0J218750D01*
G01*
G37*
G36*
G01*
X59922500Y47723750D02*
X59922500Y48236250D01*
G75*
G02*
X60141250Y48455000I218750J0D01*
G01*
X60578750Y48455000D01*
G75*
G02*
X60797500Y48236250I0J-218750D01*
G01*
X60797500Y47723750D01*
G75*
G02*
X60578750Y47505000I-218750J0D01*
G01*
X60141250Y47505000D01*
G75*
G02*
X59922500Y47723750I0J218750D01*
G01*
G37*
G04 #@! TD*
D11*
G04 #@! TO.C,U5*
X132182487Y14810000D03*
X132182487Y16310000D03*
X132182487Y17810000D03*
X132182487Y19310000D03*
X132182487Y20810000D03*
X132182487Y22310000D03*
X132182487Y23810000D03*
X132182487Y25310000D03*
X132182487Y26810000D03*
X132182487Y28310000D03*
X132182487Y29810000D03*
X132182487Y31310000D03*
X132182487Y32810000D03*
X119482487Y32810000D03*
X119482487Y31310000D03*
X119482487Y29810000D03*
X119482487Y28310000D03*
X119482487Y26810000D03*
X119482487Y25310000D03*
X119482487Y23810000D03*
X119482487Y22310000D03*
X119482487Y20810000D03*
X119482487Y19310000D03*
X119482487Y17810000D03*
X119482487Y16310000D03*
X119482487Y14810000D03*
G04 #@! TD*
G04 #@! TO.C,R35*
G36*
G01*
X96820001Y86005000D02*
X96820001Y84755000D01*
G75*
G02*
X96720001Y84655000I-100000J0D01*
G01*
X95920001Y84655000D01*
G75*
G02*
X95820001Y84755000I0J100000D01*
G01*
X95820001Y86005000D01*
G75*
G02*
X95920001Y86105000I100000J0D01*
G01*
X96720001Y86105000D01*
G75*
G02*
X96820001Y86005000I0J-100000D01*
G01*
G37*
G36*
G01*
X94919979Y86005000D02*
X94919979Y84755000D01*
G75*
G02*
X94819979Y84655000I-100000J0D01*
G01*
X94019979Y84655000D01*
G75*
G02*
X93919979Y84755000I0J100000D01*
G01*
X93919979Y86005000D01*
G75*
G02*
X94019979Y86105000I100000J0D01*
G01*
X94819979Y86105000D01*
G75*
G02*
X94919979Y86005000I0J-100000D01*
G01*
G37*
G04 #@! TD*
G04 #@! TO.C,F1*
G36*
G01*
X55082487Y18115010D02*
X55082487Y18805010D01*
G75*
G02*
X55312487Y19035010I230000J0D01*
G01*
X56652487Y19035010D01*
G75*
G02*
X56882487Y18805010I0J-230000D01*
G01*
X56882487Y18115010D01*
G75*
G02*
X56652487Y17885010I-230000J0D01*
G01*
X55312487Y17885010D01*
G75*
G02*
X55082487Y18115010I0J230000D01*
G01*
G37*
G36*
G01*
X55082487Y15214990D02*
X55082487Y15904990D01*
G75*
G02*
X55312487Y16134990I230000J0D01*
G01*
X56652487Y16134990D01*
G75*
G02*
X56882487Y15904990I0J-230000D01*
G01*
X56882487Y15214990D01*
G75*
G02*
X56652487Y14984990I-230000J0D01*
G01*
X55312487Y14984990D01*
G75*
G02*
X55082487Y15214990I0J230000D01*
G01*
G37*
G04 #@! TD*
G04 #@! TO.C,R4*
G36*
G01*
X76032096Y6029610D02*
X77282096Y6029610D01*
G75*
G02*
X77382096Y5929610I0J-100000D01*
G01*
X77382096Y5129610D01*
G75*
G02*
X77282096Y5029610I-100000J0D01*
G01*
X76032096Y5029610D01*
G75*
G02*
X75932096Y5129610I0J100000D01*
G01*
X75932096Y5929610D01*
G75*
G02*
X76032096Y6029610I100000J0D01*
G01*
G37*
G36*
G01*
X76032096Y4129588D02*
X77282096Y4129588D01*
G75*
G02*
X77382096Y4029588I0J-100000D01*
G01*
X77382096Y3229588D01*
G75*
G02*
X77282096Y3129588I-100000J0D01*
G01*
X76032096Y3129588D01*
G75*
G02*
X75932096Y3229588I0J100000D01*
G01*
X75932096Y4029588D01*
G75*
G02*
X76032096Y4129588I100000J0D01*
G01*
G37*
G04 #@! TD*
G04 #@! TO.C,R38*
G36*
G01*
X93909978Y86655000D02*
X93909978Y87905000D01*
G75*
G02*
X94009978Y88005000I100000J0D01*
G01*
X94809978Y88005000D01*
G75*
G02*
X94909978Y87905000I0J-100000D01*
G01*
X94909978Y86655000D01*
G75*
G02*
X94809978Y86555000I-100000J0D01*
G01*
X94009978Y86555000D01*
G75*
G02*
X93909978Y86655000I0J100000D01*
G01*
G37*
G36*
G01*
X95810000Y86655000D02*
X95810000Y87905000D01*
G75*
G02*
X95910000Y88005000I100000J0D01*
G01*
X96710000Y88005000D01*
G75*
G02*
X96810000Y87905000I0J-100000D01*
G01*
X96810000Y86655000D01*
G75*
G02*
X96710000Y86555000I-100000J0D01*
G01*
X95910000Y86555000D01*
G75*
G02*
X95810000Y86655000I0J100000D01*
G01*
G37*
G04 #@! TD*
G04 #@! TO.C,R36*
G36*
G01*
X98919999Y84785000D02*
X98919999Y86035000D01*
G75*
G02*
X99019999Y86135000I100000J0D01*
G01*
X99819999Y86135000D01*
G75*
G02*
X99919999Y86035000I0J-100000D01*
G01*
X99919999Y84785000D01*
G75*
G02*
X99819999Y84685000I-100000J0D01*
G01*
X99019999Y84685000D01*
G75*
G02*
X98919999Y84785000I0J100000D01*
G01*
G37*
G36*
G01*
X100820021Y84785000D02*
X100820021Y86035000D01*
G75*
G02*
X100920021Y86135000I100000J0D01*
G01*
X101720021Y86135000D01*
G75*
G02*
X101820021Y86035000I0J-100000D01*
G01*
X101820021Y84785000D01*
G75*
G02*
X101720021Y84685000I-100000J0D01*
G01*
X100920021Y84685000D01*
G75*
G02*
X100820021Y84785000I0J100000D01*
G01*
G37*
G04 #@! TD*
G04 #@! TO.C,F5*
G36*
G01*
X58405000Y49613750D02*
X58405000Y50126250D01*
G75*
G02*
X58623750Y50345000I218750J0D01*
G01*
X59061250Y50345000D01*
G75*
G02*
X59280000Y50126250I0J-218750D01*
G01*
X59280000Y49613750D01*
G75*
G02*
X59061250Y49395000I-218750J0D01*
G01*
X58623750Y49395000D01*
G75*
G02*
X58405000Y49613750I0J218750D01*
G01*
G37*
G36*
G01*
X59980000Y49613750D02*
X59980000Y50126250D01*
G75*
G02*
X60198750Y50345000I218750J0D01*
G01*
X60636250Y50345000D01*
G75*
G02*
X60855000Y50126250I0J-218750D01*
G01*
X60855000Y49613750D01*
G75*
G02*
X60636250Y49395000I-218750J0D01*
G01*
X60198750Y49395000D01*
G75*
G02*
X59980000Y49613750I0J218750D01*
G01*
G37*
G04 #@! TD*
D12*
G04 #@! TO.C,U1*
X41057487Y20430000D03*
X41057487Y18970000D03*
X41057487Y17510000D03*
X41057487Y16050000D03*
X41057487Y14590000D03*
X43307487Y20430000D03*
X43307487Y18970000D03*
X43307487Y17510000D03*
X43307487Y16050000D03*
X43307487Y14590000D03*
D13*
X37382487Y20010000D03*
X37382487Y19010000D03*
X37382487Y18010000D03*
X37382487Y17010000D03*
X37382487Y16010000D03*
X37382487Y15010000D03*
X46982487Y15010000D03*
X46982487Y16010000D03*
X46982487Y17010000D03*
X46982487Y18010000D03*
X46982487Y19010000D03*
X46982487Y20010000D03*
G04 #@! TD*
D12*
G04 #@! TO.C,U2*
X47682487Y10970000D03*
X47682487Y9510000D03*
X47682487Y8050000D03*
X47682487Y6590000D03*
X47682487Y5130000D03*
X49932487Y10970000D03*
X49932487Y9510000D03*
X49932487Y8050000D03*
X49932487Y6590000D03*
X49932487Y5130000D03*
D13*
X44007487Y10550000D03*
X44007487Y9550000D03*
X44007487Y8550000D03*
X44007487Y7550000D03*
X44007487Y6550000D03*
X44007487Y5550000D03*
X53607487Y5550000D03*
X53607487Y6550000D03*
X53607487Y7550000D03*
X53607487Y8550000D03*
X53607487Y9550000D03*
X53607487Y10550000D03*
G04 #@! TD*
D14*
G04 #@! TO.C,J9*
X79832487Y7680000D03*
X80632487Y7680000D03*
X81932487Y7680000D03*
X82932487Y7680000D03*
X83432487Y7680000D03*
X84432487Y7680000D03*
X85732487Y7680000D03*
X86532487Y7680000D03*
X86232487Y7680000D03*
X85432487Y7680000D03*
X84932487Y7680000D03*
X83932487Y7680000D03*
X82432487Y7680000D03*
X81432487Y7680000D03*
X80932487Y7680000D03*
X80132487Y7680000D03*
G04 #@! TD*
G04 #@! TO.C,F2*
G36*
G01*
X53077477Y21710000D02*
X52387477Y21710000D01*
G75*
G02*
X52157477Y21940000I0J230000D01*
G01*
X52157477Y23280000D01*
G75*
G02*
X52387477Y23510000I230000J0D01*
G01*
X53077477Y23510000D01*
G75*
G02*
X53307477Y23280000I0J-230000D01*
G01*
X53307477Y21940000D01*
G75*
G02*
X53077477Y21710000I-230000J0D01*
G01*
G37*
G36*
G01*
X55977497Y21710000D02*
X55287497Y21710000D01*
G75*
G02*
X55057497Y21940000I0J230000D01*
G01*
X55057497Y23280000D01*
G75*
G02*
X55287497Y23510000I230000J0D01*
G01*
X55977497Y23510000D01*
G75*
G02*
X56207497Y23280000I0J-230000D01*
G01*
X56207497Y21940000D01*
G75*
G02*
X55977497Y21710000I-230000J0D01*
G01*
G37*
G04 #@! TD*
G04 #@! TO.C,R14*
G36*
G01*
X56392487Y9560000D02*
X57172487Y9560000D01*
G75*
G02*
X57242487Y9490000I0J-70000D01*
G01*
X57242487Y8930000D01*
G75*
G02*
X57172487Y8860000I-70000J0D01*
G01*
X56392487Y8860000D01*
G75*
G02*
X56322487Y8930000I0J70000D01*
G01*
X56322487Y9490000D01*
G75*
G02*
X56392487Y9560000I70000J0D01*
G01*
G37*
G36*
G01*
X56392487Y7960000D02*
X57172487Y7960000D01*
G75*
G02*
X57242487Y7890000I0J-70000D01*
G01*
X57242487Y7330000D01*
G75*
G02*
X57172487Y7260000I-70000J0D01*
G01*
X56392487Y7260000D01*
G75*
G02*
X56322487Y7330000I0J70000D01*
G01*
X56322487Y7890000D01*
G75*
G02*
X56392487Y7960000I70000J0D01*
G01*
G37*
G04 #@! TD*
D15*
G04 #@! TO.C,U3*
X103505737Y68952500D03*
X103505737Y59110000D03*
X102235737Y59110000D03*
X100965737Y59110000D03*
X99695737Y59110000D03*
X99695737Y68952500D03*
X100965737Y68952500D03*
X102235737Y68952500D03*
G04 #@! TD*
G04 #@! TO.C,C12*
G36*
G01*
X35122487Y12994999D02*
X34442487Y12994999D01*
G75*
G02*
X34357487Y13079999I0J85000D01*
G01*
X34357487Y13759999D01*
G75*
G02*
X34442487Y13844999I85000J0D01*
G01*
X35122487Y13844999D01*
G75*
G02*
X35207487Y13759999I0J-85000D01*
G01*
X35207487Y13079999D01*
G75*
G02*
X35122487Y12994999I-85000J0D01*
G01*
G37*
G36*
G01*
X35122487Y14575001D02*
X34442487Y14575001D01*
G75*
G02*
X34357487Y14660001I0J85000D01*
G01*
X34357487Y15340001D01*
G75*
G02*
X34442487Y15425001I85000J0D01*
G01*
X35122487Y15425001D01*
G75*
G02*
X35207487Y15340001I0J-85000D01*
G01*
X35207487Y14660001D01*
G75*
G02*
X35122487Y14575001I-85000J0D01*
G01*
G37*
G04 #@! TD*
M02*
