M48
; DRILL file {KiCad 8.0.9-8.0.9-0~ubuntu24.04.1} date 2025-10-13T19:07:21+0000
; FORMAT={2:4/ absolute / inch / suppress leading zeros}
; #@! TF.CreationDate,2025-10-13T19:07:21+00:00
; #@! TF.GenerationSoftware,Kicad,Pcbnew,8.0.9-8.0.9-0~ubuntu24.04.1
; #@! TF.FileFunction,MixedPlating,1,4
FMAT,2
INCH,TZ
; #@! TA.AperFunction,Plated,PTH,ComponentDrill
T1C0.0118
; #@! TA.AperFunction,Plated,PTH,ComponentDrill
T2C0.0118
; #@! TA.AperFunction,Plated,PTH,ViaDrill
T3C0.0157
; #@! TA.AperFunction,Plated,PTH,ComponentDrill
T4C0.0197
; #@! TA.AperFunction,Plated,PTH,ComponentDrill
T5C0.0236
; #@! TA.AperFunction,Plated,PTH,ComponentDrill
T6C0.0276
; #@! TA.AperFunction,Plated,PTH,ComponentDrill
T7C0.0320
; #@! TA.AperFunction,Plated,PTH,ComponentDrill
T8C0.0335
; #@! TA.AperFunction,Plated,PTH,ComponentDrill
T9C0.0394
; #@! TA.AperFunction,Plated,PTH,ComponentDrill
T10C0.0512
; #@! TA.AperFunction,Plated,PTH,ViaDrill
T11C0.1181
; #@! TA.AperFunction,Plated,PTH,ComponentDrill
T12C0.1200
; #@! TA.AperFunction,Plated,PTH,ComponentDrill
T13C0.1260
; #@! TA.AperFunction,NonPlated,NPTH,ComponentDrill
T14C0.0256
; #@! TA.AperFunction,NonPlated,NPTH,ComponentDrill
T15C0.0591
; #@! TA.AperFunction,NonPlated,NPTH,ComponentDrill
T16C0.0906
; #@! TA.AperFunction,NonPlated,NPTH,ComponentDrill
T17C0.1299
%
G90
G05
T1
X25662Y18498
X25869Y18843
X26164Y18380
X27562Y18409
T2
X26082Y30358
X26475Y30358
X27601Y24679
X28074Y24679
X28546Y24679
X29019Y24679
X29334Y2297
X29334Y1904
X30432Y30358
X30826Y30358
X31095Y14610
X31095Y14295
X31095Y13980
X31095Y13665
X31095Y13350
X31095Y13035
X31095Y12720
X31095Y12406
X31095Y12091
X31095Y11776
X31095Y11461
X31095Y11146
X31095Y10831
X31095Y10516
X31095Y9886
X31095Y9335
X31095Y9020
X31095Y8705
X31095Y8390
X31095Y8075
X31095Y7760
X31095Y16303
X31095Y10201
X31253Y4925
X31568Y4925
X31883Y4925
X31952Y24679
X32198Y4925
X32424Y24679
X32513Y4925
X32828Y4925
X32897Y24679
X33143Y4925
X33369Y24679
X33458Y4925
X33694Y18862
X33773Y4925
X34088Y4925
X34166Y18862
X34403Y4925
X34639Y18862
X34718Y4925
X35111Y18862
X35584Y18862
X35662Y4925
X35977Y4925
X36056Y18862
X36292Y4925
X36529Y18862
X36607Y4925
X36922Y4925
X37001Y18862
X37237Y4925
X37473Y18862
X37552Y4925
X37867Y4925
X37946Y18862
X38182Y4925
X38418Y18862
X38891Y18862
X39363Y18862
X39836Y18862
X39875Y4925
X40308Y18862
X40781Y18862
X40938Y4925
X41253Y18862
X41332Y4925
X41725Y18862
X42198Y18862
X42670Y18862
X43143Y18862
X43645Y28793
X44019Y28793
X44038Y32219
X44088Y18862
X44245Y17878
X44245Y17484
X44245Y13272
X44245Y12878
X44245Y12484
X44245Y12091
X44245Y11697
X44245Y11303
X44245Y10909
X44245Y10516
X44245Y9492
X44245Y9177
X44245Y7327
X44245Y6776
X44245Y4925
X44393Y32219
X44393Y28793
X47365Y15814
X47759Y15814
X48153Y15814
X49050Y15814
X49450Y15814
X50377Y26283
X50771Y26283
X51164Y26283
X51558Y26283
T3
X13300Y29846
X13320Y23823
X13328Y3142
X13473Y16500
X13497Y32130
X13576Y27189
X13694Y36146
X13767Y13208
X14005Y26552
X14005Y25102
X14005Y23055
X14025Y21697
X14046Y19616
X14048Y2957
X14052Y7854
X14127Y6697
X14129Y7473
X14166Y5516
X14245Y17091
X14324Y32976
X14678Y20417
X14712Y17110
X14718Y8390
X14820Y17614
X15288Y26559
X15288Y23055
X15308Y25280
X15308Y19630
X15317Y21922
X15318Y18429
X15347Y8311
X15350Y17048
X15377Y6681
X15544Y32839
X15544Y280
X15584Y3862
X15610Y14096
X15686Y30697
X15721Y16173
X15721Y35722
X15741Y31598
X15820Y4965
X15899Y8272
X15977Y476
X16011Y5878
X16241Y16202
X16312Y14315
X16332Y831
X16473Y16588
X16473Y32872
X16568Y3823
X16607Y2996
X16607Y2051
X16647Y8272
X16647Y5870
X16666Y32484
X16836Y5128
X17244Y4604
X17387Y8315
X17395Y5870
X17473Y1303
X17603Y10916
X17670Y30201
X17729Y26894
X17734Y20230
X17769Y21933
X17828Y25240
X17828Y10358
X17906Y4650
X17985Y2957
X18103Y11264
X18143Y8469
X18418Y2169
X18418Y1303
X18437Y37343
X18497Y15870
X18497Y4571
X18517Y8232
X18536Y5398
X18773Y38665
X18773Y9414
X18899Y26941
X18969Y8311
X19206Y4610
X19206Y2169
X19206Y1303
X19225Y6362
X19639Y9610
X19730Y28945
X19911Y17157
X19954Y1303
X19993Y2169
X20072Y31894
X20111Y34689
X20111Y26854
X20151Y29768
X20190Y6697
X20446Y22622
X20504Y19659
X20505Y25398
X20544Y4689
X20859Y19059
X20859Y17130
X20859Y16461
X20879Y22189
X20899Y25004
X20903Y10835
X21017Y1697
X21253Y27051
X21332Y30004
X21332Y28980
X21396Y29531
X21454Y391
X21548Y31520
X21647Y28311
X21709Y10823
X21765Y13547
X21765Y2602
X21804Y2192
X21883Y3035
X21981Y27602
X22040Y5083
X22080Y32169
X22119Y240
X22277Y14059
X22473Y1343
X22513Y594
X22631Y6697
X22729Y30024
X22785Y9068
X22828Y31382
X22985Y38744
X23005Y28094
X23178Y29569
X23261Y11776
X23281Y19961
X23300Y25535
X23300Y22760
X23300Y17760
X23300Y17209
X23340Y23705
X23359Y20946
X23359Y18189
X23359Y15395
X23359Y12677
X23379Y14492
X23497Y26165
X23773Y17748
X23930Y23232
X23930Y14925
X23969Y20437
X23969Y12169
X24009Y28094
X24009Y11106
X24206Y10752
X24403Y20457
X24479Y19962
X24560Y14453
X24580Y13547
X24599Y22760
X24639Y25535
X24639Y9728
X24663Y11575
X24875Y12366
X24954Y26343
X24993Y29571
X25013Y28075
X25032Y10004
X25190Y12681
X25190Y11362
X25269Y10713
X25288Y24256
X25406Y21776
X25426Y16776
X25446Y16008
X25505Y14295
X25584Y30988
X25977Y21776
X25997Y11717
X26095Y24295
X26253Y34949
X26335Y16755
X26824Y9984
X26854Y10958
X27080Y21776
X27395Y30870
X27478Y14263
X27611Y12602
X27772Y10718
X27946Y31500
X28043Y18886
X28221Y13508
X28268Y9870
X28300Y12720
X28497Y16657
X28576Y30831
X28655Y9531
X28694Y13311
X29009Y21224
X29048Y31933
X29166Y19059
X29343Y34984
X29429Y9039
X29442Y29531
X29442Y27209
X29481Y12406
X29481Y24728
X29481Y15831
X29481Y13980
X29481Y9453
X29597Y17421
X29599Y6815
X29639Y1461
X29653Y2687
X29678Y3783
X29698Y4177
X29875Y30870
X30190Y23154
X30267Y38622
X30288Y3724
X30367Y7602
X30426Y18114
X30525Y5173
X30603Y4300
X30603Y3926
X30702Y15122
X30702Y240
X30741Y17720
X30781Y6185
X30804Y9673
X31036Y3825
X31119Y23173
X31371Y2130
X31686Y30870
X31765Y1343
X31814Y4175
X32080Y20280
X32080Y280
X32316Y2445
X32513Y32130
X33103Y20319
X33103Y35280
X33132Y22210
X33221Y30831
X33221Y4571
X33221Y594
X33495Y2597
X33694Y32130
X33694Y29256
X33773Y1343
X33812Y25516
X33930Y398
X34599Y38665
X34678Y28154
X34701Y26694
X34914Y31579
X34954Y2406
X34993Y4650
X35032Y280
X35125Y27911
X35343Y3469
X35544Y35437
X36056Y32130
X36095Y21382
X36174Y28902
X36725Y3154
X36883Y29252
X37001Y21224
X37277Y31461
X37277Y24610
X37470Y3803
X37631Y28626
X37631Y22996
X37867Y25949
X38103Y4453
X38340Y32091
X38891Y4610
X39028Y34949
X39481Y29807
X39750Y27642
X39757Y25988
X39757Y36657
X39875Y358
X40229Y38744
X40269Y25319
X40387Y4571
X40969Y4225
X40977Y24059
X41489Y22248
X41725Y27524
X41922Y31972
X42513Y25870
X43182Y2406
X43340Y22406
X43418Y4571
X43579Y20083
X43615Y27209
X43615Y19157
X43615Y24059
X43773Y21618
X44088Y398
X44166Y23823
X44363Y25319
X44521Y18429
X44521Y17012
X44560Y13823
X44560Y10004
X44599Y12917
X44599Y8744
X44599Y7799
X44599Y3350
X44639Y7051
X44639Y6343
X44678Y20516
X44822Y30364
X45819Y32470
X45899Y8587
X45960Y34666
X45977Y358
X46036Y27071
X46095Y25870
X46174Y15490
X46219Y17566
X46253Y10752
X46371Y26303
X46371Y12839
X46410Y32470
X46410Y17012
X46460Y18154
X46489Y38862
X46489Y21657
X46765Y26697
X46883Y32445
X46962Y437
X47670Y26736
X47926Y15457
X48143Y11579
X48221Y26736
X48497Y8193
X48615Y13232
X48733Y26736
X49481Y398
X50111Y26815
X50111Y13193
X50662Y28252
X50899Y9492
X51056Y35634
X51056Y34650
X51056Y33665
X51056Y28646
X51135Y15358
X51214Y14098
X51312Y6421
X51450Y12642
X51568Y5831
X51725Y29413
X51781Y34141
X52001Y36224
X52040Y13390
X52198Y26776
X52198Y15437
T4
X13497Y37996
X13497Y1382
X13774Y38664
X13774Y37328
X13774Y2050
X13774Y714
X14442Y38941
X14442Y37051
X14442Y2327
X14442Y437
X15110Y38664
X15110Y37328
X15110Y2050
X15110Y714
X15387Y37996
X15387Y1382
X50111Y37996
X50111Y1382
X50388Y38664
X50388Y37328
X50388Y2050
X50388Y714
X51056Y38941
X51056Y37051
X51056Y2327
X51056Y437
X51724Y38664
X51724Y37328
X51724Y2050
X51724Y714
X52001Y37996
X52001Y1382
T6
X35702Y2169
X35702Y1539
X36391Y2484
X36391Y1854
X36391Y1224
T7
X20308Y7661
X20308Y5732
X20367Y8902
X21174Y7661
X21174Y5732
X22040Y7661
X22040Y5732
X22296Y8902
X30180Y2553
X30180Y1053
X36490Y27701
X36490Y26701
X36490Y25701
X36490Y24701
X36490Y23701
X36490Y22701
T8
X45741Y5122
X45741Y4138
X45741Y3154
X45741Y2169
X45741Y1185
T9
X14245Y4531
X15245Y4531
X16245Y4531
X22119Y4335
X23054Y8380
X23054Y7652
X23054Y5703
X23054Y959
X25662Y22642
X26804Y22642
X28442Y18114
X28615Y23673
X28615Y22673
X28615Y21673
X28615Y20673
X28615Y19673
X29156Y8203
X29156Y5683
X29156Y4935
X29156Y3242
X29156Y781
X29442Y18114
X29615Y23673
X29615Y22673
X29615Y21673
X29615Y20673
X29615Y19673
X30615Y23673
X30615Y22673
X30615Y21673
X30615Y20673
X30615Y19673
X31615Y23673
X31615Y22673
X31615Y21673
X31615Y20673
X31615Y19673
X32615Y23673
X32615Y22673
X32615Y21673
X32615Y20673
X32615Y19673
X33615Y23673
X33615Y22673
X33615Y21673
X33615Y20673
X33615Y19673
X37670Y2957
X37670Y988
X45820Y9453
X45820Y7602
X46706Y14925
X47706Y14925
X48706Y14925
X49706Y14925
X50706Y14925
X51706Y14925
T10
X4481Y33951
X4481Y32770
X4481Y31589
X4481Y30407
X4481Y29226
X4481Y28045
X4481Y26864
X4481Y25683
X4481Y24502
X4531Y14443
X4531Y13262
X4531Y12081
X4531Y10900
X4531Y9719
X4531Y8537
X4531Y7356
X4531Y6175
X4531Y4994
X5859Y33360
X5859Y32179
X5859Y30998
X5859Y29817
X5859Y28636
X5859Y27455
X5859Y26274
X5859Y25093
X5908Y13852
X5908Y12671
X5908Y11490
X5908Y10309
X5908Y9128
X5908Y7947
X5908Y6766
X5908Y5585
X7434Y33360
X7434Y32179
X7434Y30998
X7434Y29817
X7434Y28636
X7434Y27455
X7434Y26274
X7434Y25093
X7483Y13852
X7483Y12671
X7483Y11490
X7483Y10309
X7483Y9128
X7483Y7947
X7483Y6766
X7483Y5585
X8812Y33951
X8812Y32770
X8812Y31589
X8812Y30407
X8812Y29226
X8812Y28045
X8812Y26864
X8812Y25683
X8812Y24502
X8861Y14443
X8861Y13262
X8861Y12081
X8861Y10900
X8861Y9719
X8861Y8537
X8861Y7356
X8861Y6175
X8861Y4994
T11
X38308Y22366
X38458Y28272
T12
X41490Y29701
X41490Y20701
T13
X14442Y37996
X14442Y1382
X51056Y37996
X51056Y1382
T14
X31611Y2604
X33887Y2604
T15
X49284Y11461
X49284Y8508
T16
X6351Y35033
X6351Y23419
X6401Y15526
X6401Y3911
T17
X6647Y37002
X6647Y21451
X6696Y17494
X6696Y1943
T5
X31048Y3018G85X31048Y2585
G05
X31048Y1274G85X31048Y1037
G05
X34450Y3018G85X34450Y2585
G05
X34450Y1274G85X34450Y1037
G05
T6
X35790Y3291G85X36302Y3291
G05
X35790Y417G85X36302Y417
G05
M30
