G04 #@! TF.GenerationSoftware,KiCad,Pcbnew,8.0.9-8.0.9-0~ubuntu24.04.1*
G04 #@! TF.CreationDate,2025-10-13T19:07:20+00:00*
G04 #@! TF.ProjectId,uaefi,75616566-692e-46b6-9963-61645f706362,E*
G04 #@! TF.SameCoordinates,Original*
G04 #@! TF.FileFunction,Soldermask,Top*
G04 #@! TF.FilePolarity,Negative*
%FSLAX46Y46*%
G04 Gerber Fmt 4.6, Leading zero omitted, Abs format (unit mm)*
G04 Created by KiCad (PCBNEW 8.0.9-8.0.9-0~ubuntu24.04.1) date 2025-10-13 19:07:20*
%MOMM*%
%LPD*%
G01*
G04 APERTURE LIST*
%ADD10C,0.120000*%
%ADD11C,1.700000*%
%ADD12C,3.300000*%
%ADD13C,2.300000*%
%ADD14C,2.000000*%
%ADD15C,0.800000*%
%ADD16C,6.400000*%
%ADD17C,1.524000*%
%ADD18O,1.850000X1.700000*%
%ADD19C,0.600000*%
%ADD20R,1.100000X1.100000*%
%ADD21C,1.100000*%
%ADD22O,2.400000X1.100000*%
%ADD23C,1.500000*%
%ADD24O,0.250000X0.499999*%
%ADD25O,0.499999X0.250000*%
%ADD26C,0.599999*%
%ADD27R,1.300000X1.000000*%
%ADD28R,2.000000X0.650000*%
%ADD29R,4.500000X8.100000*%
%ADD30C,0.650000*%
%ADD31R,0.300000X1.150000*%
%ADD32O,1.000000X2.100000*%
%ADD33O,1.000000X1.600000*%
%ADD34R,1.700000X1.700000*%
%ADD35O,1.700000X1.700000*%
%ADD36C,3.302000*%
%ADD37R,0.690000X1.350000*%
G04 APERTURE END LIST*
D10*
G04 #@! TO.C,U5*
X132332487Y7235000D02*
X119332487Y7235000D01*
X119332487Y14235000D01*
X132332487Y14235000D01*
X132332487Y7235000D01*
G36*
X132332487Y7235000D02*
G01*
X119332487Y7235000D01*
X119332487Y14235000D01*
X132332487Y14235000D01*
X132332487Y7235000D01*
G37*
G04 #@! TD*
G04 #@! TO.C,R40*
G36*
G01*
X129932486Y84885000D02*
X129932486Y86135000D01*
G75*
G02*
X130032486Y86235000I100000J0D01*
G01*
X130832486Y86235000D01*
G75*
G02*
X130932486Y86135000I0J-100000D01*
G01*
X130932486Y84885000D01*
G75*
G02*
X130832486Y84785000I-100000J0D01*
G01*
X130032486Y84785000D01*
G75*
G02*
X129932486Y84885000I0J100000D01*
G01*
G37*
G36*
G01*
X131832508Y84885000D02*
X131832508Y86135000D01*
G75*
G02*
X131932508Y86235000I100000J0D01*
G01*
X132732508Y86235000D01*
G75*
G02*
X132832508Y86135000I0J-100000D01*
G01*
X132832508Y84885000D01*
G75*
G02*
X132732508Y84785000I-100000J0D01*
G01*
X131932508Y84785000D01*
G75*
G02*
X131832508Y84885000I0J100000D01*
G01*
G37*
G04 #@! TD*
G04 #@! TO.C,U7*
G36*
G01*
X61957487Y75120000D02*
X61957487Y74820000D01*
G75*
G02*
X61807487Y74670000I-150000J0D01*
G01*
X60157487Y74670000D01*
G75*
G02*
X60007487Y74820000I0J150000D01*
G01*
X60007487Y75120000D01*
G75*
G02*
X60157487Y75270000I150000J0D01*
G01*
X61807487Y75270000D01*
G75*
G02*
X61957487Y75120000I0J-150000D01*
G01*
G37*
G36*
G01*
X61957487Y76390000D02*
X61957487Y76090000D01*
G75*
G02*
X61807487Y75940000I-150000J0D01*
G01*
X60157487Y75940000D01*
G75*
G02*
X60007487Y76090000I0J150000D01*
G01*
X60007487Y76390000D01*
G75*
G02*
X60157487Y76540000I150000J0D01*
G01*
X61807487Y76540000D01*
G75*
G02*
X61957487Y76390000I0J-150000D01*
G01*
G37*
G36*
G01*
X61957487Y77660000D02*
X61957487Y77360000D01*
G75*
G02*
X61807487Y77210000I-150000J0D01*
G01*
X60157487Y77210000D01*
G75*
G02*
X60007487Y77360000I0J150000D01*
G01*
X60007487Y77660000D01*
G75*
G02*
X60157487Y77810000I150000J0D01*
G01*
X61807487Y77810000D01*
G75*
G02*
X61957487Y77660000I0J-150000D01*
G01*
G37*
G36*
G01*
X61957487Y78930000D02*
X61957487Y78630000D01*
G75*
G02*
X61807487Y78480000I-150000J0D01*
G01*
X60157487Y78480000D01*
G75*
G02*
X60007487Y78630000I0J150000D01*
G01*
X60007487Y78930000D01*
G75*
G02*
X60157487Y79080000I150000J0D01*
G01*
X61807487Y79080000D01*
G75*
G02*
X61957487Y78930000I0J-150000D01*
G01*
G37*
G36*
G01*
X57007487Y78930000D02*
X57007487Y78630000D01*
G75*
G02*
X56857487Y78480000I-150000J0D01*
G01*
X55207487Y78480000D01*
G75*
G02*
X55057487Y78630000I0J150000D01*
G01*
X55057487Y78930000D01*
G75*
G02*
X55207487Y79080000I150000J0D01*
G01*
X56857487Y79080000D01*
G75*
G02*
X57007487Y78930000I0J-150000D01*
G01*
G37*
G36*
G01*
X57007487Y77660000D02*
X57007487Y77360000D01*
G75*
G02*
X56857487Y77210000I-150000J0D01*
G01*
X55207487Y77210000D01*
G75*
G02*
X55057487Y77360000I0J150000D01*
G01*
X55057487Y77660000D01*
G75*
G02*
X55207487Y77810000I150000J0D01*
G01*
X56857487Y77810000D01*
G75*
G02*
X57007487Y77660000I0J-150000D01*
G01*
G37*
G36*
G01*
X57007487Y76390000D02*
X57007487Y76090000D01*
G75*
G02*
X56857487Y75940000I-150000J0D01*
G01*
X55207487Y75940000D01*
G75*
G02*
X55057487Y76090000I0J150000D01*
G01*
X55057487Y76390000D01*
G75*
G02*
X55207487Y76540000I150000J0D01*
G01*
X56857487Y76540000D01*
G75*
G02*
X57007487Y76390000I0J-150000D01*
G01*
G37*
G36*
G01*
X57007487Y75120000D02*
X57007487Y74820000D01*
G75*
G02*
X56857487Y74670000I-150000J0D01*
G01*
X55207487Y74670000D01*
G75*
G02*
X55057487Y74820000I0J150000D01*
G01*
X55057487Y75120000D01*
G75*
G02*
X55207487Y75270000I150000J0D01*
G01*
X56857487Y75270000D01*
G75*
G02*
X57007487Y75120000I0J-150000D01*
G01*
G37*
G04 #@! TD*
G04 #@! TO.C,C24*
G36*
G01*
X40442487Y10225001D02*
X41122487Y10225001D01*
G75*
G02*
X41207487Y10140001I0J-85000D01*
G01*
X41207487Y9460001D01*
G75*
G02*
X41122487Y9375001I-85000J0D01*
G01*
X40442487Y9375001D01*
G75*
G02*
X40357487Y9460001I0J85000D01*
G01*
X40357487Y10140001D01*
G75*
G02*
X40442487Y10225001I85000J0D01*
G01*
G37*
G36*
G01*
X40442487Y8644999D02*
X41122487Y8644999D01*
G75*
G02*
X41207487Y8559999I0J-85000D01*
G01*
X41207487Y7879999D01*
G75*
G02*
X41122487Y7794999I-85000J0D01*
G01*
X40442487Y7794999D01*
G75*
G02*
X40357487Y7879999I0J85000D01*
G01*
X40357487Y8559999D01*
G75*
G02*
X40442487Y8644999I85000J0D01*
G01*
G37*
G04 #@! TD*
G04 #@! TO.C,R39*
G36*
G01*
X129932486Y87385000D02*
X129932486Y88635000D01*
G75*
G02*
X130032486Y88735000I100000J0D01*
G01*
X130832486Y88735000D01*
G75*
G02*
X130932486Y88635000I0J-100000D01*
G01*
X130932486Y87385000D01*
G75*
G02*
X130832486Y87285000I-100000J0D01*
G01*
X130032486Y87285000D01*
G75*
G02*
X129932486Y87385000I0J100000D01*
G01*
G37*
G36*
G01*
X131832508Y87385000D02*
X131832508Y88635000D01*
G75*
G02*
X131932508Y88735000I100000J0D01*
G01*
X132732508Y88735000D01*
G75*
G02*
X132832508Y88635000I0J-100000D01*
G01*
X132832508Y87385000D01*
G75*
G02*
X132732508Y87285000I-100000J0D01*
G01*
X131932508Y87285000D01*
G75*
G02*
X131832508Y87385000I0J100000D01*
G01*
G37*
G04 #@! TD*
G04 #@! TO.C,Q10*
G36*
G01*
X61982487Y39580000D02*
X61982487Y38880000D01*
G75*
G02*
X61732487Y38630000I-250000J0D01*
G01*
X60032487Y38630000D01*
G75*
G02*
X59782487Y38880000I0J250000D01*
G01*
X59782487Y39580000D01*
G75*
G02*
X60032487Y39830000I250000J0D01*
G01*
X61732487Y39830000D01*
G75*
G02*
X61982487Y39580000I0J-250000D01*
G01*
G37*
G36*
G01*
X57782487Y44160003D02*
X57782487Y38859997D01*
G75*
G02*
X57532490Y38610000I-249997J0D01*
G01*
X51632484Y38610000D01*
G75*
G02*
X51382487Y38859997I0J249997D01*
G01*
X51382487Y44160003D01*
G75*
G02*
X51632484Y44410000I249997J0D01*
G01*
X57532490Y44410000D01*
G75*
G02*
X57782487Y44160003I0J-249997D01*
G01*
G37*
G36*
G01*
X61982487Y44140000D02*
X61982487Y43440000D01*
G75*
G02*
X61732487Y43190000I-250000J0D01*
G01*
X60032487Y43190000D01*
G75*
G02*
X59782487Y43440000I0J250000D01*
G01*
X59782487Y44140000D01*
G75*
G02*
X60032487Y44390000I250000J0D01*
G01*
X61732487Y44390000D01*
G75*
G02*
X61982487Y44140000I0J-250000D01*
G01*
G37*
G04 #@! TD*
D11*
G04 #@! TO.C,P8*
X116382487Y19310000D03*
G04 #@! TD*
G04 #@! TO.C,P5*
X74782487Y46010000D03*
G04 #@! TD*
G04 #@! TO.C,Q7*
G36*
G01*
X61982487Y60580000D02*
X61982487Y59880000D01*
G75*
G02*
X61732487Y59630000I-250000J0D01*
G01*
X60032487Y59630000D01*
G75*
G02*
X59782487Y59880000I0J250000D01*
G01*
X59782487Y60580000D01*
G75*
G02*
X60032487Y60830000I250000J0D01*
G01*
X61732487Y60830000D01*
G75*
G02*
X61982487Y60580000I0J-250000D01*
G01*
G37*
G36*
G01*
X57782487Y65160003D02*
X57782487Y59859997D01*
G75*
G02*
X57532490Y59610000I-249997J0D01*
G01*
X51632484Y59610000D01*
G75*
G02*
X51382487Y59859997I0J249997D01*
G01*
X51382487Y65160003D01*
G75*
G02*
X51632484Y65410000I249997J0D01*
G01*
X57532490Y65410000D01*
G75*
G02*
X57782487Y65160003I0J-249997D01*
G01*
G37*
G36*
G01*
X61982487Y65140000D02*
X61982487Y64440000D01*
G75*
G02*
X61732487Y64190000I-250000J0D01*
G01*
X60032487Y64190000D01*
G75*
G02*
X59782487Y64440000I0J250000D01*
G01*
X59782487Y65140000D01*
G75*
G02*
X60032487Y65390000I250000J0D01*
G01*
X61732487Y65390000D01*
G75*
G02*
X61982487Y65140000I0J-250000D01*
G01*
G37*
G04 #@! TD*
G04 #@! TO.C,Q8*
G36*
G01*
X61982487Y53580000D02*
X61982487Y52880000D01*
G75*
G02*
X61732487Y52630000I-250000J0D01*
G01*
X60032487Y52630000D01*
G75*
G02*
X59782487Y52880000I0J250000D01*
G01*
X59782487Y53580000D01*
G75*
G02*
X60032487Y53830000I250000J0D01*
G01*
X61732487Y53830000D01*
G75*
G02*
X61982487Y53580000I0J-250000D01*
G01*
G37*
G36*
G01*
X57782487Y58160003D02*
X57782487Y52859997D01*
G75*
G02*
X57532490Y52610000I-249997J0D01*
G01*
X51632484Y52610000D01*
G75*
G02*
X51382487Y52859997I0J249997D01*
G01*
X51382487Y58160003D01*
G75*
G02*
X51632484Y58410000I249997J0D01*
G01*
X57532490Y58410000D01*
G75*
G02*
X57782487Y58160003I0J-249997D01*
G01*
G37*
G36*
G01*
X61982487Y58140000D02*
X61982487Y57440000D01*
G75*
G02*
X61732487Y57190000I-250000J0D01*
G01*
X60032487Y57190000D01*
G75*
G02*
X59782487Y57440000I0J250000D01*
G01*
X59782487Y58140000D01*
G75*
G02*
X60032487Y58390000I250000J0D01*
G01*
X61732487Y58390000D01*
G75*
G02*
X61982487Y58140000I0J-250000D01*
G01*
G37*
G04 #@! TD*
G04 #@! TO.C,P1*
X65182487Y57510000D03*
G04 #@! TD*
G04 #@! TO.C,C26*
G36*
G01*
X56442487Y6725001D02*
X57122487Y6725001D01*
G75*
G02*
X57207487Y6640001I0J-85000D01*
G01*
X57207487Y5960001D01*
G75*
G02*
X57122487Y5875001I-85000J0D01*
G01*
X56442487Y5875001D01*
G75*
G02*
X56357487Y5960001I0J85000D01*
G01*
X56357487Y6640001D01*
G75*
G02*
X56442487Y6725001I85000J0D01*
G01*
G37*
G36*
G01*
X56442487Y5144999D02*
X57122487Y5144999D01*
G75*
G02*
X57207487Y5059999I0J-85000D01*
G01*
X57207487Y4379999D01*
G75*
G02*
X57122487Y4294999I-85000J0D01*
G01*
X56442487Y4294999D01*
G75*
G02*
X56357487Y4379999I0J85000D01*
G01*
X56357487Y5059999D01*
G75*
G02*
X56442487Y5144999I85000J0D01*
G01*
G37*
G04 #@! TD*
G04 #@! TO.C,R1*
G36*
G01*
X69264984Y80325000D02*
X69264984Y79545000D01*
G75*
G02*
X69194984Y79475000I-70000J0D01*
G01*
X68634984Y79475000D01*
G75*
G02*
X68564984Y79545000I0J70000D01*
G01*
X68564984Y80325000D01*
G75*
G02*
X68634984Y80395000I70000J0D01*
G01*
X69194984Y80395000D01*
G75*
G02*
X69264984Y80325000I0J-70000D01*
G01*
G37*
G36*
G01*
X67664984Y80325000D02*
X67664984Y79545000D01*
G75*
G02*
X67594984Y79475000I-70000J0D01*
G01*
X67034984Y79475000D01*
G75*
G02*
X66964984Y79545000I0J70000D01*
G01*
X66964984Y80325000D01*
G75*
G02*
X67034984Y80395000I70000J0D01*
G01*
X67594984Y80395000D01*
G75*
G02*
X67664984Y80325000I0J-70000D01*
G01*
G37*
G04 #@! TD*
D12*
G04 #@! TO.C,J25*
X16882487Y93985000D03*
D13*
X16132487Y88985000D03*
X16132487Y59485000D03*
D12*
X16882487Y54485000D03*
D14*
X22382487Y86235000D03*
X22382487Y83235000D03*
X22382487Y80235000D03*
X22382487Y77235000D03*
X22382487Y74235000D03*
X22382487Y71235000D03*
X22382487Y68235000D03*
X22382487Y65235000D03*
X22382487Y62235000D03*
X18882487Y84735000D03*
X18882487Y81735000D03*
X18882487Y78735000D03*
X18882487Y75735000D03*
X18882487Y72735000D03*
X18882487Y69735000D03*
X18882487Y66735000D03*
X18882487Y63735000D03*
X14882487Y84735000D03*
X14882487Y81735000D03*
X14882487Y78735000D03*
X14882487Y75735000D03*
X14882487Y72735000D03*
X14882487Y69735000D03*
X14882487Y66735000D03*
X14882487Y63735000D03*
X11382487Y86235000D03*
X11382487Y83235000D03*
X11382487Y80235000D03*
X11382487Y77235000D03*
X11382487Y74235000D03*
X11382487Y71235000D03*
X11382487Y68235000D03*
X11382487Y65235000D03*
X11382487Y62235000D03*
G04 #@! TD*
D11*
G04 #@! TO.C,P2*
X68082487Y57510000D03*
G04 #@! TD*
G04 #@! TO.C,C13*
G36*
G01*
X49567487Y16185001D02*
X50247487Y16185001D01*
G75*
G02*
X50332487Y16100001I0J-85000D01*
G01*
X50332487Y15420001D01*
G75*
G02*
X50247487Y15335001I-85000J0D01*
G01*
X49567487Y15335001D01*
G75*
G02*
X49482487Y15420001I0J85000D01*
G01*
X49482487Y16100001D01*
G75*
G02*
X49567487Y16185001I85000J0D01*
G01*
G37*
G36*
G01*
X49567487Y14604999D02*
X50247487Y14604999D01*
G75*
G02*
X50332487Y14519999I0J-85000D01*
G01*
X50332487Y13839999D01*
G75*
G02*
X50247487Y13754999I-85000J0D01*
G01*
X49567487Y13754999D01*
G75*
G02*
X49482487Y13839999I0J85000D01*
G01*
X49482487Y14519999D01*
G75*
G02*
X49567487Y14604999I85000J0D01*
G01*
G37*
G04 #@! TD*
G04 #@! TO.C,P15*
X38722487Y11510000D03*
G04 #@! TD*
D15*
G04 #@! TO.C,H1*
X34282487Y96510000D03*
X34985431Y98207056D03*
X34985431Y94812944D03*
X36682487Y98910000D03*
D16*
X36682487Y96510000D03*
D15*
X36682487Y94110000D03*
X38379543Y98207056D03*
X38379543Y94812944D03*
X39082487Y96510000D03*
G04 #@! TD*
G04 #@! TO.C,H4*
X127282487Y96510000D03*
X127985431Y98207056D03*
X127985431Y94812944D03*
X129682487Y98910000D03*
D16*
X129682487Y96510000D03*
D15*
X129682487Y94110000D03*
X131379543Y98207056D03*
X131379543Y94812944D03*
X132082487Y96510000D03*
G04 #@! TD*
D17*
G04 #@! TO.C,F4*
X51582487Y19460000D03*
G36*
G01*
X50682487Y18115010D02*
X50682487Y18805010D01*
G75*
G02*
X50912487Y19035010I230000J0D01*
G01*
X52252487Y19035010D01*
G75*
G02*
X52482487Y18805010I0J-230000D01*
G01*
X52482487Y18115010D01*
G75*
G02*
X52252487Y17885010I-230000J0D01*
G01*
X50912487Y17885010D01*
G75*
G02*
X50682487Y18115010I0J230000D01*
G01*
G37*
G36*
G01*
X50682487Y15214990D02*
X50682487Y15904990D01*
G75*
G02*
X50912487Y16134990I230000J0D01*
G01*
X52252487Y16134990D01*
G75*
G02*
X52482487Y15904990I0J-230000D01*
G01*
X52482487Y15214990D01*
G75*
G02*
X52252487Y14984990I-230000J0D01*
G01*
X50912487Y14984990D01*
G75*
G02*
X50682487Y15214990I0J230000D01*
G01*
G37*
X51582487Y14560000D03*
G04 #@! TD*
G04 #@! TO.C,R37*
G36*
G01*
X126482486Y84885000D02*
X126482486Y86135000D01*
G75*
G02*
X126582486Y86235000I100000J0D01*
G01*
X127382486Y86235000D01*
G75*
G02*
X127482486Y86135000I0J-100000D01*
G01*
X127482486Y84885000D01*
G75*
G02*
X127382486Y84785000I-100000J0D01*
G01*
X126582486Y84785000D01*
G75*
G02*
X126482486Y84885000I0J100000D01*
G01*
G37*
G36*
G01*
X128382508Y84885000D02*
X128382508Y86135000D01*
G75*
G02*
X128482508Y86235000I100000J0D01*
G01*
X129282508Y86235000D01*
G75*
G02*
X129382508Y86135000I0J-100000D01*
G01*
X129382508Y84885000D01*
G75*
G02*
X129282508Y84785000I-100000J0D01*
G01*
X128482508Y84785000D01*
G75*
G02*
X128382508Y84885000I0J100000D01*
G01*
G37*
G04 #@! TD*
G04 #@! TO.C,C11*
G36*
G01*
X34442487Y18525001D02*
X35122487Y18525001D01*
G75*
G02*
X35207487Y18440001I0J-85000D01*
G01*
X35207487Y17760001D01*
G75*
G02*
X35122487Y17675001I-85000J0D01*
G01*
X34442487Y17675001D01*
G75*
G02*
X34357487Y17760001I0J85000D01*
G01*
X34357487Y18440001D01*
G75*
G02*
X34442487Y18525001I85000J0D01*
G01*
G37*
G36*
G01*
X34442487Y16944999D02*
X35122487Y16944999D01*
G75*
G02*
X35207487Y16859999I0J-85000D01*
G01*
X35207487Y16179999D01*
G75*
G02*
X35122487Y16094999I-85000J0D01*
G01*
X34442487Y16094999D01*
G75*
G02*
X34357487Y16179999I0J85000D01*
G01*
X34357487Y16859999D01*
G75*
G02*
X34442487Y16944999I85000J0D01*
G01*
G37*
G04 #@! TD*
G04 #@! TO.C,J7*
G36*
G01*
X116857487Y2160000D02*
X115507487Y2160000D01*
G75*
G02*
X115257487Y2410000I0J250000D01*
G01*
X115257487Y3610000D01*
G75*
G02*
X115507487Y3860000I250000J0D01*
G01*
X116857487Y3860000D01*
G75*
G02*
X117107487Y3610000I0J-250000D01*
G01*
X117107487Y2410000D01*
G75*
G02*
X116857487Y2160000I-250000J0D01*
G01*
G37*
D18*
X116182487Y5510000D03*
X116182487Y8010000D03*
X116182487Y10510000D03*
X116182487Y13010000D03*
G04 #@! TD*
D11*
G04 #@! TO.C,P4*
X95682487Y7510000D03*
G04 #@! TD*
D15*
G04 #@! TO.C,H2*
X34282487Y3510000D03*
X34985431Y5207056D03*
X34985431Y1812944D03*
X36682487Y5910000D03*
D16*
X36682487Y3510000D03*
D15*
X36682487Y1110000D03*
X38379543Y5207056D03*
X38379543Y1812944D03*
X39082487Y3510000D03*
G04 #@! TD*
D19*
G04 #@! TO.C,M3*
X82357487Y62685000D03*
X81157487Y62685000D03*
X83557487Y62685000D03*
X84757487Y62685000D03*
X78297487Y77110000D03*
X77297487Y77110000D03*
G04 #@! TD*
G04 #@! TO.C,R10*
G36*
G01*
X62932487Y72850000D02*
X62932487Y72070000D01*
G75*
G02*
X62862487Y72000000I-70000J0D01*
G01*
X62302487Y72000000D01*
G75*
G02*
X62232487Y72070000I0J70000D01*
G01*
X62232487Y72850000D01*
G75*
G02*
X62302487Y72920000I70000J0D01*
G01*
X62862487Y72920000D01*
G75*
G02*
X62932487Y72850000I0J-70000D01*
G01*
G37*
G36*
G01*
X61332487Y72850000D02*
X61332487Y72070000D01*
G75*
G02*
X61262487Y72000000I-70000J0D01*
G01*
X60702487Y72000000D01*
G75*
G02*
X60632487Y72070000I0J70000D01*
G01*
X60632487Y72850000D01*
G75*
G02*
X60702487Y72920000I70000J0D01*
G01*
X61262487Y72920000D01*
G75*
G02*
X61332487Y72850000I0J-70000D01*
G01*
G37*
G04 #@! TD*
D11*
G04 #@! TO.C,P17*
X36182487Y11510000D03*
G04 #@! TD*
D20*
G04 #@! TO.C,J8*
X92432487Y3110000D03*
D21*
X90682487Y3910000D03*
X92432487Y4710000D03*
X90682487Y5510000D03*
X92432487Y6310000D03*
D22*
X91557487Y1060000D03*
X91557487Y8360000D03*
G04 #@! TD*
D17*
G04 #@! TO.C,F3*
X53782487Y19460000D03*
G36*
G01*
X52882487Y18115010D02*
X52882487Y18805010D01*
G75*
G02*
X53112487Y19035010I230000J0D01*
G01*
X54452487Y19035010D01*
G75*
G02*
X54682487Y18805010I0J-230000D01*
G01*
X54682487Y18115010D01*
G75*
G02*
X54452487Y17885010I-230000J0D01*
G01*
X53112487Y17885010D01*
G75*
G02*
X52882487Y18115010I0J230000D01*
G01*
G37*
G36*
G01*
X52882487Y15214990D02*
X52882487Y15904990D01*
G75*
G02*
X53112487Y16134990I230000J0D01*
G01*
X54452487Y16134990D01*
G75*
G02*
X54682487Y15904990I0J-230000D01*
G01*
X54682487Y15214990D01*
G75*
G02*
X54452487Y14984990I-230000J0D01*
G01*
X53112487Y14984990D01*
G75*
G02*
X52882487Y15214990I0J230000D01*
G01*
G37*
X53782487Y14560000D03*
G04 #@! TD*
D19*
G04 #@! TO.C,M2*
X112757486Y73135000D03*
X111807486Y73135000D03*
X110857488Y73135000D03*
X111857486Y81835000D03*
X112757486Y81835000D03*
G04 #@! TD*
G04 #@! TO.C,C25*
G36*
G01*
X41122487Y4294999D02*
X40442487Y4294999D01*
G75*
G02*
X40357487Y4379999I0J85000D01*
G01*
X40357487Y5059999D01*
G75*
G02*
X40442487Y5144999I85000J0D01*
G01*
X41122487Y5144999D01*
G75*
G02*
X41207487Y5059999I0J-85000D01*
G01*
X41207487Y4379999D01*
G75*
G02*
X41122487Y4294999I-85000J0D01*
G01*
G37*
G36*
G01*
X41122487Y5875001D02*
X40442487Y5875001D01*
G75*
G02*
X40357487Y5960001I0J85000D01*
G01*
X40357487Y6640001D01*
G75*
G02*
X40442487Y6725001I85000J0D01*
G01*
X41122487Y6725001D01*
G75*
G02*
X41207487Y6640001I0J-85000D01*
G01*
X41207487Y5960001D01*
G75*
G02*
X41122487Y5875001I-85000J0D01*
G01*
G37*
G04 #@! TD*
D11*
G04 #@! TO.C,P18*
X56182487Y11010000D03*
G04 #@! TD*
D12*
G04 #@! TO.C,J23*
X17007487Y44435000D03*
D13*
X16257487Y39435000D03*
X16257487Y9935000D03*
D12*
X17007487Y4935000D03*
D14*
X22507487Y36685000D03*
X22507487Y33685000D03*
X22507487Y30685000D03*
X22507487Y27685000D03*
X22507487Y24685000D03*
X22507487Y21685000D03*
X22507487Y18685000D03*
X22507487Y15685000D03*
X22507487Y12685000D03*
X19007487Y35185000D03*
X19007487Y32185000D03*
X19007487Y29185000D03*
X19007487Y26185000D03*
X19007487Y23185000D03*
X19007487Y20185000D03*
X19007487Y17185000D03*
X19007487Y14185000D03*
X15007487Y35185000D03*
X15007487Y32185000D03*
X15007487Y29185000D03*
X15007487Y26185000D03*
X15007487Y23185000D03*
X15007487Y20185000D03*
X15007487Y17185000D03*
X15007487Y14185000D03*
X11507487Y36685000D03*
X11507487Y33685000D03*
X11507487Y30685000D03*
X11507487Y27685000D03*
X11507487Y24685000D03*
X11507487Y21685000D03*
X11507487Y18685000D03*
X11507487Y15685000D03*
X11507487Y12685000D03*
G04 #@! TD*
D23*
G04 #@! TO.C,M1*
X74057482Y20834999D03*
X74057482Y14435002D03*
X74057482Y12534999D03*
X74057482Y8234999D03*
D19*
X74507481Y5835002D03*
X74507481Y4835001D03*
D23*
X74057482Y1984999D03*
X58557485Y21285001D03*
X58557485Y19435002D03*
X58557485Y14484999D03*
X58557485Y2435001D03*
G04 #@! TD*
G04 #@! TO.C,Q12*
G36*
G01*
X61982487Y25580000D02*
X61982487Y24880000D01*
G75*
G02*
X61732487Y24630000I-250000J0D01*
G01*
X60032487Y24630000D01*
G75*
G02*
X59782487Y24880000I0J250000D01*
G01*
X59782487Y25580000D01*
G75*
G02*
X60032487Y25830000I250000J0D01*
G01*
X61732487Y25830000D01*
G75*
G02*
X61982487Y25580000I0J-250000D01*
G01*
G37*
G36*
G01*
X57782487Y30160003D02*
X57782487Y24859997D01*
G75*
G02*
X57532490Y24610000I-249997J0D01*
G01*
X51632484Y24610000D01*
G75*
G02*
X51382487Y24859997I0J249997D01*
G01*
X51382487Y30160003D01*
G75*
G02*
X51632484Y30410000I249997J0D01*
G01*
X57532490Y30410000D01*
G75*
G02*
X57782487Y30160003I0J-249997D01*
G01*
G37*
G36*
G01*
X61982487Y30140000D02*
X61982487Y29440000D01*
G75*
G02*
X61732487Y29190000I-250000J0D01*
G01*
X60032487Y29190000D01*
G75*
G02*
X59782487Y29440000I0J250000D01*
G01*
X59782487Y30140000D01*
G75*
G02*
X60032487Y30390000I250000J0D01*
G01*
X61732487Y30390000D01*
G75*
G02*
X61982487Y30140000I0J-250000D01*
G01*
G37*
G04 #@! TD*
D11*
G04 #@! TO.C,P6*
X72242487Y46010000D03*
G04 #@! TD*
D24*
G04 #@! TO.C,M7*
X64082490Y43685005D03*
D25*
X64132488Y54034999D03*
X64132488Y53534998D03*
D26*
X65182486Y46985001D03*
X65707486Y47860003D03*
X66457484Y46684999D03*
X70007485Y46760002D03*
G04 #@! TD*
G04 #@! TO.C,R9*
G36*
G01*
X49517487Y19120000D02*
X50297487Y19120000D01*
G75*
G02*
X50367487Y19050000I0J-70000D01*
G01*
X50367487Y18490000D01*
G75*
G02*
X50297487Y18420000I-70000J0D01*
G01*
X49517487Y18420000D01*
G75*
G02*
X49447487Y18490000I0J70000D01*
G01*
X49447487Y19050000D01*
G75*
G02*
X49517487Y19120000I70000J0D01*
G01*
G37*
G36*
G01*
X49517487Y17520000D02*
X50297487Y17520000D01*
G75*
G02*
X50367487Y17450000I0J-70000D01*
G01*
X50367487Y16890000D01*
G75*
G02*
X50297487Y16820000I-70000J0D01*
G01*
X49517487Y16820000D01*
G75*
G02*
X49447487Y16890000I0J70000D01*
G01*
X49447487Y17450000D01*
G75*
G02*
X49517487Y17520000I70000J0D01*
G01*
G37*
G04 #@! TD*
G04 #@! TO.C,Q9*
G36*
G01*
X61982487Y46580000D02*
X61982487Y45880000D01*
G75*
G02*
X61732487Y45630000I-250000J0D01*
G01*
X60032487Y45630000D01*
G75*
G02*
X59782487Y45880000I0J250000D01*
G01*
X59782487Y46580000D01*
G75*
G02*
X60032487Y46830000I250000J0D01*
G01*
X61732487Y46830000D01*
G75*
G02*
X61982487Y46580000I0J-250000D01*
G01*
G37*
G36*
G01*
X57782487Y51160003D02*
X57782487Y45859997D01*
G75*
G02*
X57532490Y45610000I-249997J0D01*
G01*
X51632484Y45610000D01*
G75*
G02*
X51382487Y45859997I0J249997D01*
G01*
X51382487Y51160003D01*
G75*
G02*
X51632484Y51410000I249997J0D01*
G01*
X57532490Y51410000D01*
G75*
G02*
X57782487Y51160003I0J-249997D01*
G01*
G37*
G36*
G01*
X61982487Y51140000D02*
X61982487Y50440000D01*
G75*
G02*
X61732487Y50190000I-250000J0D01*
G01*
X60032487Y50190000D01*
G75*
G02*
X59782487Y50440000I0J250000D01*
G01*
X59782487Y51140000D01*
G75*
G02*
X60032487Y51390000I250000J0D01*
G01*
X61732487Y51390000D01*
G75*
G02*
X61982487Y51140000I0J-250000D01*
G01*
G37*
G04 #@! TD*
D27*
G04 #@! TO.C,U5*
X132182487Y14810000D03*
X132182487Y16310000D03*
X132182487Y17810000D03*
X132182487Y19310000D03*
X132182487Y20810000D03*
X132182487Y22310000D03*
X132182487Y23810000D03*
X132182487Y25310000D03*
X132182487Y26810000D03*
X132182487Y28310000D03*
X132182487Y29810000D03*
X132182487Y31310000D03*
X132182487Y32810000D03*
X119482487Y32810000D03*
X119482487Y31310000D03*
X119482487Y29810000D03*
X119482487Y28310000D03*
X119482487Y26810000D03*
X119482487Y25310000D03*
X119482487Y23810000D03*
X119482487Y22310000D03*
X119482487Y20810000D03*
X119482487Y19310000D03*
X119482487Y17810000D03*
X119482487Y16310000D03*
X119482487Y14810000D03*
G04 #@! TD*
G04 #@! TO.C,R35*
G36*
G01*
X126482486Y89885000D02*
X126482486Y91135000D01*
G75*
G02*
X126582486Y91235000I100000J0D01*
G01*
X127382486Y91235000D01*
G75*
G02*
X127482486Y91135000I0J-100000D01*
G01*
X127482486Y89885000D01*
G75*
G02*
X127382486Y89785000I-100000J0D01*
G01*
X126582486Y89785000D01*
G75*
G02*
X126482486Y89885000I0J100000D01*
G01*
G37*
G36*
G01*
X128382508Y89885000D02*
X128382508Y91135000D01*
G75*
G02*
X128482508Y91235000I100000J0D01*
G01*
X129282508Y91235000D01*
G75*
G02*
X129382508Y91135000I0J-100000D01*
G01*
X129382508Y89885000D01*
G75*
G02*
X129282508Y89785000I-100000J0D01*
G01*
X128482508Y89785000D01*
G75*
G02*
X128382508Y89885000I0J100000D01*
G01*
G37*
G04 #@! TD*
D17*
G04 #@! TO.C,F1*
X55982487Y19460000D03*
G36*
G01*
X55082487Y18115010D02*
X55082487Y18805010D01*
G75*
G02*
X55312487Y19035010I230000J0D01*
G01*
X56652487Y19035010D01*
G75*
G02*
X56882487Y18805010I0J-230000D01*
G01*
X56882487Y18115010D01*
G75*
G02*
X56652487Y17885010I-230000J0D01*
G01*
X55312487Y17885010D01*
G75*
G02*
X55082487Y18115010I0J230000D01*
G01*
G37*
G36*
G01*
X55082487Y15214990D02*
X55082487Y15904990D01*
G75*
G02*
X55312487Y16134990I230000J0D01*
G01*
X56652487Y16134990D01*
G75*
G02*
X56882487Y15904990I0J-230000D01*
G01*
X56882487Y15214990D01*
G75*
G02*
X56652487Y14984990I-230000J0D01*
G01*
X55312487Y14984990D01*
G75*
G02*
X55082487Y15214990I0J230000D01*
G01*
G37*
X55982487Y14560000D03*
G04 #@! TD*
D11*
G04 #@! TO.C,G3*
X72682487Y49970000D03*
X72682487Y52510000D03*
X72682487Y55050000D03*
X72682487Y57590000D03*
X72682487Y60130000D03*
X75222487Y49970000D03*
X75222487Y52510000D03*
X75222487Y55050000D03*
X75222487Y57590000D03*
X75222487Y60130000D03*
X77762487Y49970000D03*
X77762487Y52510000D03*
X77762487Y55050000D03*
X77762487Y57590000D03*
X77762487Y60130000D03*
G04 #@! TD*
G04 #@! TO.C,P3*
X95682487Y2510000D03*
G04 #@! TD*
D17*
G04 #@! TO.C,R4*
X76657096Y6484609D03*
G36*
G01*
X76032096Y6029610D02*
X77282096Y6029610D01*
G75*
G02*
X77382096Y5929610I0J-100000D01*
G01*
X77382096Y5129610D01*
G75*
G02*
X77282096Y5029610I-100000J0D01*
G01*
X76032096Y5029610D01*
G75*
G02*
X75932096Y5129610I0J100000D01*
G01*
X75932096Y5929610D01*
G75*
G02*
X76032096Y6029610I100000J0D01*
G01*
G37*
G36*
G01*
X76032096Y4129588D02*
X77282096Y4129588D01*
G75*
G02*
X77382096Y4029588I0J-100000D01*
G01*
X77382096Y3229588D01*
G75*
G02*
X77282096Y3129588I-100000J0D01*
G01*
X76032096Y3129588D01*
G75*
G02*
X75932096Y3229588I0J100000D01*
G01*
X75932096Y4029588D01*
G75*
G02*
X76032096Y4129588I100000J0D01*
G01*
G37*
X76657096Y2674609D03*
G04 #@! TD*
G04 #@! TO.C,R11*
G36*
G01*
X62992487Y79510000D02*
X63772487Y79510000D01*
G75*
G02*
X63842487Y79440000I0J-70000D01*
G01*
X63842487Y78880000D01*
G75*
G02*
X63772487Y78810000I-70000J0D01*
G01*
X62992487Y78810000D01*
G75*
G02*
X62922487Y78880000I0J70000D01*
G01*
X62922487Y79440000D01*
G75*
G02*
X62992487Y79510000I70000J0D01*
G01*
G37*
G36*
G01*
X62992487Y77910000D02*
X63772487Y77910000D01*
G75*
G02*
X63842487Y77840000I0J-70000D01*
G01*
X63842487Y77280000D01*
G75*
G02*
X63772487Y77210000I-70000J0D01*
G01*
X62992487Y77210000D01*
G75*
G02*
X62922487Y77280000I0J70000D01*
G01*
X62922487Y77840000D01*
G75*
G02*
X62992487Y77910000I70000J0D01*
G01*
G37*
G04 #@! TD*
G04 #@! TO.C,D3*
G36*
G01*
X52692487Y74410000D02*
X51672487Y74410000D01*
G75*
G02*
X51582487Y74500000I0J90000D01*
G01*
X51582487Y75220000D01*
G75*
G02*
X51672487Y75310000I90000J0D01*
G01*
X52692487Y75310000D01*
G75*
G02*
X52782487Y75220000I0J-90000D01*
G01*
X52782487Y74500000D01*
G75*
G02*
X52692487Y74410000I-90000J0D01*
G01*
G37*
G36*
G01*
X52692487Y77710000D02*
X51672487Y77710000D01*
G75*
G02*
X51582487Y77800000I0J90000D01*
G01*
X51582487Y78520000D01*
G75*
G02*
X51672487Y78610000I90000J0D01*
G01*
X52692487Y78610000D01*
G75*
G02*
X52782487Y78520000I0J-90000D01*
G01*
X52782487Y77800000D01*
G75*
G02*
X52692487Y77710000I-90000J0D01*
G01*
G37*
G04 #@! TD*
G04 #@! TO.C,R38*
G36*
G01*
X129932486Y89885000D02*
X129932486Y91135000D01*
G75*
G02*
X130032486Y91235000I100000J0D01*
G01*
X130832486Y91235000D01*
G75*
G02*
X130932486Y91135000I0J-100000D01*
G01*
X130932486Y89885000D01*
G75*
G02*
X130832486Y89785000I-100000J0D01*
G01*
X130032486Y89785000D01*
G75*
G02*
X129932486Y89885000I0J100000D01*
G01*
G37*
G36*
G01*
X131832508Y89885000D02*
X131832508Y91135000D01*
G75*
G02*
X131932508Y91235000I100000J0D01*
G01*
X132732508Y91235000D01*
G75*
G02*
X132832508Y91135000I0J-100000D01*
G01*
X132832508Y89885000D01*
G75*
G02*
X132732508Y89785000I-100000J0D01*
G01*
X131932508Y89785000D01*
G75*
G02*
X131832508Y89885000I0J100000D01*
G01*
G37*
G04 #@! TD*
G04 #@! TO.C,R36*
G36*
G01*
X126482486Y87385000D02*
X126482486Y88635000D01*
G75*
G02*
X126582486Y88735000I100000J0D01*
G01*
X127382486Y88735000D01*
G75*
G02*
X127482486Y88635000I0J-100000D01*
G01*
X127482486Y87385000D01*
G75*
G02*
X127382486Y87285000I-100000J0D01*
G01*
X126582486Y87285000D01*
G75*
G02*
X126482486Y87385000I0J100000D01*
G01*
G37*
G36*
G01*
X128382508Y87385000D02*
X128382508Y88635000D01*
G75*
G02*
X128482508Y88735000I100000J0D01*
G01*
X129282508Y88735000D01*
G75*
G02*
X129382508Y88635000I0J-100000D01*
G01*
X129382508Y87385000D01*
G75*
G02*
X129282508Y87285000I-100000J0D01*
G01*
X128482508Y87285000D01*
G75*
G02*
X128382508Y87385000I0J100000D01*
G01*
G37*
G04 #@! TD*
D28*
G04 #@! TO.C,U1*
X37382487Y20010000D03*
X37382487Y19010000D03*
X37382487Y18010000D03*
X37382487Y17010000D03*
X37382487Y16010000D03*
X37382487Y15010000D03*
X46982487Y15010000D03*
X46982487Y16010000D03*
X46982487Y17010000D03*
X46982487Y18010000D03*
X46982487Y19010000D03*
X46982487Y20010000D03*
D29*
X42182487Y17510000D03*
G04 #@! TD*
D28*
G04 #@! TO.C,U2*
X44007487Y10550000D03*
X44007487Y9550000D03*
X44007487Y8550000D03*
X44007487Y7550000D03*
X44007487Y6550000D03*
X44007487Y5550000D03*
X53607487Y5550000D03*
X53607487Y6550000D03*
X53607487Y7550000D03*
X53607487Y8550000D03*
X53607487Y9550000D03*
X53607487Y10550000D03*
D29*
X48807487Y8050000D03*
G04 #@! TD*
D11*
G04 #@! TO.C,P7*
X116382487Y24010000D03*
G04 #@! TD*
G04 #@! TO.C,Q11*
G36*
G01*
X61982487Y32580000D02*
X61982487Y31880000D01*
G75*
G02*
X61732487Y31630000I-250000J0D01*
G01*
X60032487Y31630000D01*
G75*
G02*
X59782487Y31880000I0J250000D01*
G01*
X59782487Y32580000D01*
G75*
G02*
X60032487Y32830000I250000J0D01*
G01*
X61732487Y32830000D01*
G75*
G02*
X61982487Y32580000I0J-250000D01*
G01*
G37*
G36*
G01*
X57782487Y37160003D02*
X57782487Y31859997D01*
G75*
G02*
X57532490Y31610000I-249997J0D01*
G01*
X51632484Y31610000D01*
G75*
G02*
X51382487Y31859997I0J249997D01*
G01*
X51382487Y37160003D01*
G75*
G02*
X51632484Y37410000I249997J0D01*
G01*
X57532490Y37410000D01*
G75*
G02*
X57782487Y37160003I0J-249997D01*
G01*
G37*
G36*
G01*
X61982487Y37140000D02*
X61982487Y36440000D01*
G75*
G02*
X61732487Y36190000I-250000J0D01*
G01*
X60032487Y36190000D01*
G75*
G02*
X59782487Y36440000I0J250000D01*
G01*
X59782487Y37140000D01*
G75*
G02*
X60032487Y37390000I250000J0D01*
G01*
X61732487Y37390000D01*
G75*
G02*
X61982487Y37140000I0J-250000D01*
G01*
G37*
G04 #@! TD*
D30*
G04 #@! TO.C,J9*
X80292487Y6615000D03*
X86072487Y6615000D03*
D31*
X79832487Y7680000D03*
X80632487Y7680000D03*
X81932487Y7680000D03*
X82932487Y7680000D03*
X83432487Y7680000D03*
X84432487Y7680000D03*
X85732487Y7680000D03*
X86532487Y7680000D03*
X86232487Y7680000D03*
X85432487Y7680000D03*
X84932487Y7680000D03*
X83932487Y7680000D03*
X82432487Y7680000D03*
X81432487Y7680000D03*
X80932487Y7680000D03*
X80132487Y7680000D03*
D32*
X78862487Y7115000D03*
D33*
X78862487Y2935000D03*
D32*
X87502487Y7115000D03*
D33*
X87502487Y2935000D03*
G04 #@! TD*
D15*
G04 #@! TO.C,H3*
X127282487Y3510000D03*
X127985431Y5207056D03*
X127985431Y1812944D03*
X129682487Y5910000D03*
D16*
X129682487Y3510000D03*
D15*
X129682487Y1110000D03*
X131379543Y5207056D03*
X131379543Y1812944D03*
X132082487Y3510000D03*
G04 #@! TD*
D19*
G04 #@! TO.C,M4*
X71307487Y62685000D03*
X70107487Y62685000D03*
X72507487Y62685000D03*
X73707487Y62685000D03*
X67247487Y77110000D03*
X66247487Y77110000D03*
G04 #@! TD*
D17*
G04 #@! TO.C,F2*
X51732487Y22610000D03*
G36*
G01*
X53077477Y21710000D02*
X52387477Y21710000D01*
G75*
G02*
X52157477Y21940000I0J230000D01*
G01*
X52157477Y23280000D01*
G75*
G02*
X52387477Y23510000I230000J0D01*
G01*
X53077477Y23510000D01*
G75*
G02*
X53307477Y23280000I0J-230000D01*
G01*
X53307477Y21940000D01*
G75*
G02*
X53077477Y21710000I-230000J0D01*
G01*
G37*
G36*
G01*
X55977497Y21710000D02*
X55287497Y21710000D01*
G75*
G02*
X55057497Y21940000I0J230000D01*
G01*
X55057497Y23280000D01*
G75*
G02*
X55287497Y23510000I230000J0D01*
G01*
X55977497Y23510000D01*
G75*
G02*
X56207497Y23280000I0J-230000D01*
G01*
X56207497Y21940000D01*
G75*
G02*
X55977497Y21710000I-230000J0D01*
G01*
G37*
X56632487Y22610000D03*
G04 #@! TD*
G04 #@! TO.C,D5*
G36*
G01*
X52692487Y66910000D02*
X51672487Y66910000D01*
G75*
G02*
X51582487Y67000000I0J90000D01*
G01*
X51582487Y67720000D01*
G75*
G02*
X51672487Y67810000I90000J0D01*
G01*
X52692487Y67810000D01*
G75*
G02*
X52782487Y67720000I0J-90000D01*
G01*
X52782487Y67000000D01*
G75*
G02*
X52692487Y66910000I-90000J0D01*
G01*
G37*
G36*
G01*
X52692487Y70210000D02*
X51672487Y70210000D01*
G75*
G02*
X51582487Y70300000I0J90000D01*
G01*
X51582487Y71020000D01*
G75*
G02*
X51672487Y71110000I90000J0D01*
G01*
X52692487Y71110000D01*
G75*
G02*
X52782487Y71020000I0J-90000D01*
G01*
X52782487Y70300000D01*
G75*
G02*
X52692487Y70210000I-90000J0D01*
G01*
G37*
G04 #@! TD*
D34*
G04 #@! TO.C,J6*
X131332487Y37910000D03*
D35*
X128792487Y37910000D03*
X126252487Y37910000D03*
X123712487Y37910000D03*
X121172487Y37910000D03*
X118632487Y37910000D03*
G04 #@! TD*
G04 #@! TO.C,R14*
G36*
G01*
X56392487Y9560000D02*
X57172487Y9560000D01*
G75*
G02*
X57242487Y9490000I0J-70000D01*
G01*
X57242487Y8930000D01*
G75*
G02*
X57172487Y8860000I-70000J0D01*
G01*
X56392487Y8860000D01*
G75*
G02*
X56322487Y8930000I0J70000D01*
G01*
X56322487Y9490000D01*
G75*
G02*
X56392487Y9560000I70000J0D01*
G01*
G37*
G36*
G01*
X56392487Y7960000D02*
X57172487Y7960000D01*
G75*
G02*
X57242487Y7890000I0J-70000D01*
G01*
X57242487Y7330000D01*
G75*
G02*
X57172487Y7260000I-70000J0D01*
G01*
X56392487Y7260000D01*
G75*
G02*
X56322487Y7330000I0J70000D01*
G01*
X56322487Y7890000D01*
G75*
G02*
X56392487Y7960000I70000J0D01*
G01*
G37*
G04 #@! TD*
D36*
G04 #@! TO.C,U3*
X105385737Y75440000D03*
X105385737Y52580000D03*
D37*
X103505737Y68952500D03*
X103505737Y59110000D03*
X102235737Y59110000D03*
X100965737Y59110000D03*
X99695737Y59110000D03*
D17*
X92685737Y70360000D03*
D37*
X99695737Y68952500D03*
X100965737Y68952500D03*
D17*
X92685737Y67820000D03*
D37*
X102235737Y68952500D03*
D17*
X92685737Y65280000D03*
X92685737Y62740000D03*
X92685737Y60200000D03*
X92685737Y57660000D03*
G04 #@! TD*
D11*
G04 #@! TO.C,P16*
X41262487Y11510000D03*
G04 #@! TD*
G04 #@! TO.C,C12*
G36*
G01*
X35122487Y12994999D02*
X34442487Y12994999D01*
G75*
G02*
X34357487Y13079999I0J85000D01*
G01*
X34357487Y13759999D01*
G75*
G02*
X34442487Y13844999I85000J0D01*
G01*
X35122487Y13844999D01*
G75*
G02*
X35207487Y13759999I0J-85000D01*
G01*
X35207487Y13079999D01*
G75*
G02*
X35122487Y12994999I-85000J0D01*
G01*
G37*
G36*
G01*
X35122487Y14575001D02*
X34442487Y14575001D01*
G75*
G02*
X34357487Y14660001I0J85000D01*
G01*
X34357487Y15340001D01*
G75*
G02*
X34442487Y15425001I85000J0D01*
G01*
X35122487Y15425001D01*
G75*
G02*
X35207487Y15340001I0J-85000D01*
G01*
X35207487Y14660001D01*
G75*
G02*
X35122487Y14575001I-85000J0D01*
G01*
G37*
G04 #@! TD*
G04 #@! TO.C,G4*
X80302487Y49970000D03*
X80302487Y52510000D03*
X80302487Y55050000D03*
X80302487Y57590000D03*
X80302487Y60130000D03*
X82842487Y49970000D03*
X82842487Y52510000D03*
X82842487Y55050000D03*
X82842487Y57590000D03*
X82842487Y60130000D03*
X85382487Y49970000D03*
X85382487Y52510000D03*
X85382487Y55050000D03*
X85382487Y57590000D03*
X85382487Y60130000D03*
G04 #@! TD*
D23*
G04 #@! TO.C,BT1*
X125182487Y21610142D03*
X125182487Y29110000D03*
G04 #@! TD*
M02*
