G04 #@! TF.GenerationSoftware,KiCad,Pcbnew,8.0.9-8.0.9-0~ubuntu24.04.1*
G04 #@! TF.CreationDate,2025-10-26T12:47:24+00:00*
G04 #@! TF.ProjectId,uaefi,75616566-692e-46b6-9963-61645f706362,E*
G04 #@! TF.SameCoordinates,Original*
G04 #@! TF.FileFunction,Legend,Bot*
G04 #@! TF.FilePolarity,Positive*
%FSLAX46Y46*%
G04 Gerber Fmt 4.6, Leading zero omitted, Abs format (unit mm)*
G04 Created by KiCad (PCBNEW 8.0.9-8.0.9-0~ubuntu24.04.1) date 2025-10-26 12:47:24*
%MOMM*%
%LPD*%
G01*
G04 APERTURE LIST*
%ADD10C,0.150000*%
%ADD11C,0.127000*%
%ADD12C,0.170000*%
%ADD13C,0.200000*%
%ADD14C,0.120000*%
%ADD15C,0.500000*%
%ADD16C,0.099060*%
%ADD17C,0.150012*%
%ADD18C,0.203200*%
G04 APERTURE END LIST*
D10*
X116384867Y76055181D02*
X116384867Y77055181D01*
X115908677Y76721848D02*
X115908677Y75721848D01*
X115908677Y76674229D02*
X115813439Y76721848D01*
X115813439Y76721848D02*
X115622963Y76721848D01*
X115622963Y76721848D02*
X115527725Y76674229D01*
X115527725Y76674229D02*
X115480106Y76626610D01*
X115480106Y76626610D02*
X115432487Y76531372D01*
X115432487Y76531372D02*
X115432487Y76245658D01*
X115432487Y76245658D02*
X115480106Y76150420D01*
X115480106Y76150420D02*
X115527725Y76102800D01*
X115527725Y76102800D02*
X115622963Y76055181D01*
X115622963Y76055181D02*
X115813439Y76055181D01*
X115813439Y76055181D02*
X115908677Y76102800D01*
X76320582Y51707562D02*
X76415820Y51755181D01*
X76415820Y51755181D02*
X76558677Y51755181D01*
X76558677Y51755181D02*
X76701534Y51707562D01*
X76701534Y51707562D02*
X76796772Y51612324D01*
X76796772Y51612324D02*
X76844391Y51517086D01*
X76844391Y51517086D02*
X76892010Y51326610D01*
X76892010Y51326610D02*
X76892010Y51183753D01*
X76892010Y51183753D02*
X76844391Y50993277D01*
X76844391Y50993277D02*
X76796772Y50898039D01*
X76796772Y50898039D02*
X76701534Y50802800D01*
X76701534Y50802800D02*
X76558677Y50755181D01*
X76558677Y50755181D02*
X76463439Y50755181D01*
X76463439Y50755181D02*
X76320582Y50802800D01*
X76320582Y50802800D02*
X76272963Y50850420D01*
X76272963Y50850420D02*
X76272963Y51183753D01*
X76272963Y51183753D02*
X76463439Y51183753D01*
X73720582Y51707562D02*
X73815820Y51755181D01*
X73815820Y51755181D02*
X73958677Y51755181D01*
X73958677Y51755181D02*
X74101534Y51707562D01*
X74101534Y51707562D02*
X74196772Y51612324D01*
X74196772Y51612324D02*
X74244391Y51517086D01*
X74244391Y51517086D02*
X74292010Y51326610D01*
X74292010Y51326610D02*
X74292010Y51183753D01*
X74292010Y51183753D02*
X74244391Y50993277D01*
X74244391Y50993277D02*
X74196772Y50898039D01*
X74196772Y50898039D02*
X74101534Y50802800D01*
X74101534Y50802800D02*
X73958677Y50755181D01*
X73958677Y50755181D02*
X73863439Y50755181D01*
X73863439Y50755181D02*
X73720582Y50802800D01*
X73720582Y50802800D02*
X73672963Y50850420D01*
X73672963Y50850420D02*
X73672963Y51183753D01*
X73672963Y51183753D02*
X73863439Y51183753D01*
X117120581Y21105181D02*
X117120581Y22105181D01*
X117120581Y22105181D02*
X116739629Y22105181D01*
X116739629Y22105181D02*
X116644391Y22057562D01*
X116644391Y22057562D02*
X116596772Y22009943D01*
X116596772Y22009943D02*
X116549153Y21914705D01*
X116549153Y21914705D02*
X116549153Y21771848D01*
X116549153Y21771848D02*
X116596772Y21676610D01*
X116596772Y21676610D02*
X116644391Y21628991D01*
X116644391Y21628991D02*
X116739629Y21581372D01*
X116739629Y21581372D02*
X117120581Y21581372D01*
X115977724Y21676610D02*
X116072962Y21724229D01*
X116072962Y21724229D02*
X116120581Y21771848D01*
X116120581Y21771848D02*
X116168200Y21867086D01*
X116168200Y21867086D02*
X116168200Y21914705D01*
X116168200Y21914705D02*
X116120581Y22009943D01*
X116120581Y22009943D02*
X116072962Y22057562D01*
X116072962Y22057562D02*
X115977724Y22105181D01*
X115977724Y22105181D02*
X115787248Y22105181D01*
X115787248Y22105181D02*
X115692010Y22057562D01*
X115692010Y22057562D02*
X115644391Y22009943D01*
X115644391Y22009943D02*
X115596772Y21914705D01*
X115596772Y21914705D02*
X115596772Y21867086D01*
X115596772Y21867086D02*
X115644391Y21771848D01*
X115644391Y21771848D02*
X115692010Y21724229D01*
X115692010Y21724229D02*
X115787248Y21676610D01*
X115787248Y21676610D02*
X115977724Y21676610D01*
X115977724Y21676610D02*
X116072962Y21628991D01*
X116072962Y21628991D02*
X116120581Y21581372D01*
X116120581Y21581372D02*
X116168200Y21486134D01*
X116168200Y21486134D02*
X116168200Y21295658D01*
X116168200Y21295658D02*
X116120581Y21200420D01*
X116120581Y21200420D02*
X116072962Y21152800D01*
X116072962Y21152800D02*
X115977724Y21105181D01*
X115977724Y21105181D02*
X115787248Y21105181D01*
X115787248Y21105181D02*
X115692010Y21152800D01*
X115692010Y21152800D02*
X115644391Y21200420D01*
X115644391Y21200420D02*
X115596772Y21295658D01*
X115596772Y21295658D02*
X115596772Y21486134D01*
X115596772Y21486134D02*
X115644391Y21581372D01*
X115644391Y21581372D02*
X115692010Y21628991D01*
X115692010Y21628991D02*
X115787248Y21676610D01*
X75520581Y47805181D02*
X75520581Y48805181D01*
X75520581Y48805181D02*
X75139629Y48805181D01*
X75139629Y48805181D02*
X75044391Y48757562D01*
X75044391Y48757562D02*
X74996772Y48709943D01*
X74996772Y48709943D02*
X74949153Y48614705D01*
X74949153Y48614705D02*
X74949153Y48471848D01*
X74949153Y48471848D02*
X74996772Y48376610D01*
X74996772Y48376610D02*
X75044391Y48328991D01*
X75044391Y48328991D02*
X75139629Y48281372D01*
X75139629Y48281372D02*
X75520581Y48281372D01*
X74044391Y48805181D02*
X74520581Y48805181D01*
X74520581Y48805181D02*
X74568200Y48328991D01*
X74568200Y48328991D02*
X74520581Y48376610D01*
X74520581Y48376610D02*
X74425343Y48424229D01*
X74425343Y48424229D02*
X74187248Y48424229D01*
X74187248Y48424229D02*
X74092010Y48376610D01*
X74092010Y48376610D02*
X74044391Y48328991D01*
X74044391Y48328991D02*
X73996772Y48233753D01*
X73996772Y48233753D02*
X73996772Y47995658D01*
X73996772Y47995658D02*
X74044391Y47900420D01*
X74044391Y47900420D02*
X74092010Y47852800D01*
X74092010Y47852800D02*
X74187248Y47805181D01*
X74187248Y47805181D02*
X74425343Y47805181D01*
X74425343Y47805181D02*
X74520581Y47852800D01*
X74520581Y47852800D02*
X74568200Y47900420D01*
X13545180Y87544524D02*
X13545180Y86973096D01*
X13545180Y87258810D02*
X14545180Y87258810D01*
X14545180Y87258810D02*
X14402323Y87163572D01*
X14402323Y87163572D02*
X14307085Y87068334D01*
X14307085Y87068334D02*
X14259466Y86973096D01*
X14116609Y88115953D02*
X14164228Y88020715D01*
X14164228Y88020715D02*
X14211847Y87973096D01*
X14211847Y87973096D02*
X14307085Y87925477D01*
X14307085Y87925477D02*
X14354704Y87925477D01*
X14354704Y87925477D02*
X14449942Y87973096D01*
X14449942Y87973096D02*
X14497561Y88020715D01*
X14497561Y88020715D02*
X14545180Y88115953D01*
X14545180Y88115953D02*
X14545180Y88306429D01*
X14545180Y88306429D02*
X14497561Y88401667D01*
X14497561Y88401667D02*
X14449942Y88449286D01*
X14449942Y88449286D02*
X14354704Y88496905D01*
X14354704Y88496905D02*
X14307085Y88496905D01*
X14307085Y88496905D02*
X14211847Y88449286D01*
X14211847Y88449286D02*
X14164228Y88401667D01*
X14164228Y88401667D02*
X14116609Y88306429D01*
X14116609Y88306429D02*
X14116609Y88115953D01*
X14116609Y88115953D02*
X14068990Y88020715D01*
X14068990Y88020715D02*
X14021371Y87973096D01*
X14021371Y87973096D02*
X13926133Y87925477D01*
X13926133Y87925477D02*
X13735657Y87925477D01*
X13735657Y87925477D02*
X13640419Y87973096D01*
X13640419Y87973096D02*
X13592800Y88020715D01*
X13592800Y88020715D02*
X13545180Y88115953D01*
X13545180Y88115953D02*
X13545180Y88306429D01*
X13545180Y88306429D02*
X13592800Y88401667D01*
X13592800Y88401667D02*
X13640419Y88449286D01*
X13640419Y88449286D02*
X13735657Y88496905D01*
X13735657Y88496905D02*
X13926133Y88496905D01*
X13926133Y88496905D02*
X14021371Y88449286D01*
X14021371Y88449286D02*
X14068990Y88401667D01*
X14068990Y88401667D02*
X14116609Y88306429D01*
X19545180Y61044524D02*
X19545180Y60473096D01*
X19545180Y60758810D02*
X20545180Y60758810D01*
X20545180Y60758810D02*
X20402323Y60663572D01*
X20402323Y60663572D02*
X20307085Y60568334D01*
X20307085Y60568334D02*
X20259466Y60473096D01*
X20545180Y61377858D02*
X20545180Y62044524D01*
X20545180Y62044524D02*
X19545180Y61615953D01*
X14449942Y59973096D02*
X14497561Y60020715D01*
X14497561Y60020715D02*
X14545180Y60115953D01*
X14545180Y60115953D02*
X14545180Y60354048D01*
X14545180Y60354048D02*
X14497561Y60449286D01*
X14497561Y60449286D02*
X14449942Y60496905D01*
X14449942Y60496905D02*
X14354704Y60544524D01*
X14354704Y60544524D02*
X14259466Y60544524D01*
X14259466Y60544524D02*
X14116609Y60496905D01*
X14116609Y60496905D02*
X13545180Y59925477D01*
X13545180Y59925477D02*
X13545180Y60544524D01*
X14545180Y61449286D02*
X14545180Y60973096D01*
X14545180Y60973096D02*
X14068990Y60925477D01*
X14068990Y60925477D02*
X14116609Y60973096D01*
X14116609Y60973096D02*
X14164228Y61068334D01*
X14164228Y61068334D02*
X14164228Y61306429D01*
X14164228Y61306429D02*
X14116609Y61401667D01*
X14116609Y61401667D02*
X14068990Y61449286D01*
X14068990Y61449286D02*
X13973752Y61496905D01*
X13973752Y61496905D02*
X13735657Y61496905D01*
X13735657Y61496905D02*
X13640419Y61449286D01*
X13640419Y61449286D02*
X13592800Y61401667D01*
X13592800Y61401667D02*
X13545180Y61306429D01*
X13545180Y61306429D02*
X13545180Y61068334D01*
X13545180Y61068334D02*
X13592800Y60973096D01*
X13592800Y60973096D02*
X13640419Y60925477D01*
X18545180Y87544524D02*
X18545180Y86973096D01*
X18545180Y87258810D02*
X19545180Y87258810D01*
X19545180Y87258810D02*
X19402323Y87163572D01*
X19402323Y87163572D02*
X19307085Y87068334D01*
X19307085Y87068334D02*
X19259466Y86973096D01*
X19545180Y88163572D02*
X19545180Y88258810D01*
X19545180Y88258810D02*
X19497561Y88354048D01*
X19497561Y88354048D02*
X19449942Y88401667D01*
X19449942Y88401667D02*
X19354704Y88449286D01*
X19354704Y88449286D02*
X19164228Y88496905D01*
X19164228Y88496905D02*
X18926133Y88496905D01*
X18926133Y88496905D02*
X18735657Y88449286D01*
X18735657Y88449286D02*
X18640419Y88401667D01*
X18640419Y88401667D02*
X18592800Y88354048D01*
X18592800Y88354048D02*
X18545180Y88258810D01*
X18545180Y88258810D02*
X18545180Y88163572D01*
X18545180Y88163572D02*
X18592800Y88068334D01*
X18592800Y88068334D02*
X18640419Y88020715D01*
X18640419Y88020715D02*
X18735657Y87973096D01*
X18735657Y87973096D02*
X18926133Y87925477D01*
X18926133Y87925477D02*
X19164228Y87925477D01*
X19164228Y87925477D02*
X19354704Y87973096D01*
X19354704Y87973096D02*
X19449942Y88020715D01*
X19449942Y88020715D02*
X19497561Y88068334D01*
X19497561Y88068334D02*
X19545180Y88163572D01*
X22045180Y58544525D02*
X22045180Y58735001D01*
X22045180Y58735001D02*
X22092800Y58830239D01*
X22092800Y58830239D02*
X22140419Y58877858D01*
X22140419Y58877858D02*
X22283276Y58973096D01*
X22283276Y58973096D02*
X22473752Y59020715D01*
X22473752Y59020715D02*
X22854704Y59020715D01*
X22854704Y59020715D02*
X22949942Y58973096D01*
X22949942Y58973096D02*
X22997561Y58925477D01*
X22997561Y58925477D02*
X23045180Y58830239D01*
X23045180Y58830239D02*
X23045180Y58639763D01*
X23045180Y58639763D02*
X22997561Y58544525D01*
X22997561Y58544525D02*
X22949942Y58496906D01*
X22949942Y58496906D02*
X22854704Y58449287D01*
X22854704Y58449287D02*
X22616609Y58449287D01*
X22616609Y58449287D02*
X22521371Y58496906D01*
X22521371Y58496906D02*
X22473752Y58544525D01*
X22473752Y58544525D02*
X22426133Y58639763D01*
X22426133Y58639763D02*
X22426133Y58830239D01*
X22426133Y58830239D02*
X22473752Y58925477D01*
X22473752Y58925477D02*
X22521371Y58973096D01*
X22521371Y58973096D02*
X22616609Y59020715D01*
X11949942Y88473096D02*
X11997561Y88520715D01*
X11997561Y88520715D02*
X12045180Y88615953D01*
X12045180Y88615953D02*
X12045180Y88854048D01*
X12045180Y88854048D02*
X11997561Y88949286D01*
X11997561Y88949286D02*
X11949942Y88996905D01*
X11949942Y88996905D02*
X11854704Y89044524D01*
X11854704Y89044524D02*
X11759466Y89044524D01*
X11759466Y89044524D02*
X11616609Y88996905D01*
X11616609Y88996905D02*
X11045180Y88425477D01*
X11045180Y88425477D02*
X11045180Y89044524D01*
X12045180Y89901667D02*
X12045180Y89711191D01*
X12045180Y89711191D02*
X11997561Y89615953D01*
X11997561Y89615953D02*
X11949942Y89568334D01*
X11949942Y89568334D02*
X11807085Y89473096D01*
X11807085Y89473096D02*
X11616609Y89425477D01*
X11616609Y89425477D02*
X11235657Y89425477D01*
X11235657Y89425477D02*
X11140419Y89473096D01*
X11140419Y89473096D02*
X11092800Y89520715D01*
X11092800Y89520715D02*
X11045180Y89615953D01*
X11045180Y89615953D02*
X11045180Y89806429D01*
X11045180Y89806429D02*
X11092800Y89901667D01*
X11092800Y89901667D02*
X11140419Y89949286D01*
X11140419Y89949286D02*
X11235657Y89996905D01*
X11235657Y89996905D02*
X11473752Y89996905D01*
X11473752Y89996905D02*
X11568990Y89949286D01*
X11568990Y89949286D02*
X11616609Y89901667D01*
X11616609Y89901667D02*
X11664228Y89806429D01*
X11664228Y89806429D02*
X11664228Y89615953D01*
X11664228Y89615953D02*
X11616609Y89520715D01*
X11616609Y89520715D02*
X11568990Y89473096D01*
X11568990Y89473096D02*
X11473752Y89425477D01*
X12045180Y58425477D02*
X12045180Y59044524D01*
X12045180Y59044524D02*
X11664228Y58711191D01*
X11664228Y58711191D02*
X11664228Y58854048D01*
X11664228Y58854048D02*
X11616609Y58949286D01*
X11616609Y58949286D02*
X11568990Y58996905D01*
X11568990Y58996905D02*
X11473752Y59044524D01*
X11473752Y59044524D02*
X11235657Y59044524D01*
X11235657Y59044524D02*
X11140419Y58996905D01*
X11140419Y58996905D02*
X11092800Y58949286D01*
X11092800Y58949286D02*
X11045180Y58854048D01*
X11045180Y58854048D02*
X11045180Y58568334D01*
X11045180Y58568334D02*
X11092800Y58473096D01*
X11092800Y58473096D02*
X11140419Y58425477D01*
X11711847Y59901667D02*
X11045180Y59901667D01*
X12092800Y59663572D02*
X11378514Y59425477D01*
X11378514Y59425477D02*
X11378514Y60044524D01*
X22013180Y89720715D02*
X22013180Y89149287D01*
X22013180Y89435001D02*
X23013180Y89435001D01*
X23013180Y89435001D02*
X22870323Y89339763D01*
X22870323Y89339763D02*
X22775085Y89244525D01*
X22775085Y89244525D02*
X22727466Y89149287D01*
X39936772Y8955181D02*
X39936772Y9955181D01*
X39936772Y9955181D02*
X39555820Y9955181D01*
X39555820Y9955181D02*
X39460582Y9907562D01*
X39460582Y9907562D02*
X39412963Y9859943D01*
X39412963Y9859943D02*
X39365344Y9764705D01*
X39365344Y9764705D02*
X39365344Y9621848D01*
X39365344Y9621848D02*
X39412963Y9526610D01*
X39412963Y9526610D02*
X39460582Y9478991D01*
X39460582Y9478991D02*
X39555820Y9431372D01*
X39555820Y9431372D02*
X39936772Y9431372D01*
X38412963Y8955181D02*
X38984391Y8955181D01*
X38698677Y8955181D02*
X38698677Y9955181D01*
X38698677Y9955181D02*
X38793915Y9812324D01*
X38793915Y9812324D02*
X38889153Y9717086D01*
X38889153Y9717086D02*
X38984391Y9669467D01*
X37508201Y9955181D02*
X37984391Y9955181D01*
X37984391Y9955181D02*
X38032010Y9478991D01*
X38032010Y9478991D02*
X37984391Y9526610D01*
X37984391Y9526610D02*
X37889153Y9574229D01*
X37889153Y9574229D02*
X37651058Y9574229D01*
X37651058Y9574229D02*
X37555820Y9526610D01*
X37555820Y9526610D02*
X37508201Y9478991D01*
X37508201Y9478991D02*
X37460582Y9383753D01*
X37460582Y9383753D02*
X37460582Y9145658D01*
X37460582Y9145658D02*
X37508201Y9050420D01*
X37508201Y9050420D02*
X37555820Y9002800D01*
X37555820Y9002800D02*
X37651058Y8955181D01*
X37651058Y8955181D02*
X37889153Y8955181D01*
X37889153Y8955181D02*
X37984391Y9002800D01*
X37984391Y9002800D02*
X38032010Y9050420D01*
D11*
X51836486Y21063232D02*
X52090486Y21063232D01*
X52090486Y20664089D02*
X52090486Y21426089D01*
X52090486Y21426089D02*
X51727629Y21426089D01*
X51110772Y21172089D02*
X51110772Y20664089D01*
X51292200Y21462374D02*
X51473629Y20918089D01*
X51473629Y20918089D02*
X51001914Y20918089D01*
D10*
X96420581Y9305181D02*
X96420581Y10305181D01*
X96420581Y10305181D02*
X96039629Y10305181D01*
X96039629Y10305181D02*
X95944391Y10257562D01*
X95944391Y10257562D02*
X95896772Y10209943D01*
X95896772Y10209943D02*
X95849153Y10114705D01*
X95849153Y10114705D02*
X95849153Y9971848D01*
X95849153Y9971848D02*
X95896772Y9876610D01*
X95896772Y9876610D02*
X95944391Y9828991D01*
X95944391Y9828991D02*
X96039629Y9781372D01*
X96039629Y9781372D02*
X96420581Y9781372D01*
X94992010Y9971848D02*
X94992010Y9305181D01*
X95230105Y10352800D02*
X95468200Y9638515D01*
X95468200Y9638515D02*
X94849153Y9638515D01*
X36923491Y8902346D02*
X36923491Y9902346D01*
X36923491Y9902346D02*
X36542539Y9902346D01*
X36542539Y9902346D02*
X36447301Y9854727D01*
X36447301Y9854727D02*
X36399682Y9807108D01*
X36399682Y9807108D02*
X36352063Y9711870D01*
X36352063Y9711870D02*
X36352063Y9569013D01*
X36352063Y9569013D02*
X36399682Y9473775D01*
X36399682Y9473775D02*
X36447301Y9426156D01*
X36447301Y9426156D02*
X36542539Y9378537D01*
X36542539Y9378537D02*
X36923491Y9378537D01*
X35399682Y8902346D02*
X35971110Y8902346D01*
X35685396Y8902346D02*
X35685396Y9902346D01*
X35685396Y9902346D02*
X35780634Y9759489D01*
X35780634Y9759489D02*
X35875872Y9664251D01*
X35875872Y9664251D02*
X35971110Y9616632D01*
X35066348Y9902346D02*
X34399682Y9902346D01*
X34399682Y9902346D02*
X34828253Y8902346D01*
D11*
X54036486Y21063232D02*
X54290486Y21063232D01*
X54290486Y20664089D02*
X54290486Y21426089D01*
X54290486Y21426089D02*
X53927629Y21426089D01*
X53709914Y21426089D02*
X53238200Y21426089D01*
X53238200Y21426089D02*
X53492200Y21135803D01*
X53492200Y21135803D02*
X53383343Y21135803D01*
X53383343Y21135803D02*
X53310772Y21099517D01*
X53310772Y21099517D02*
X53274486Y21063232D01*
X53274486Y21063232D02*
X53238200Y20990660D01*
X53238200Y20990660D02*
X53238200Y20809232D01*
X53238200Y20809232D02*
X53274486Y20736660D01*
X53274486Y20736660D02*
X53310772Y20700374D01*
X53310772Y20700374D02*
X53383343Y20664089D01*
X53383343Y20664089D02*
X53601057Y20664089D01*
X53601057Y20664089D02*
X53673629Y20700374D01*
X53673629Y20700374D02*
X53709914Y20736660D01*
D10*
X54458025Y11951133D02*
X54458025Y12951133D01*
X54458025Y12951133D02*
X54077073Y12951133D01*
X54077073Y12951133D02*
X53981835Y12903514D01*
X53981835Y12903514D02*
X53934216Y12855895D01*
X53934216Y12855895D02*
X53886597Y12760657D01*
X53886597Y12760657D02*
X53886597Y12617800D01*
X53886597Y12617800D02*
X53934216Y12522562D01*
X53934216Y12522562D02*
X53981835Y12474943D01*
X53981835Y12474943D02*
X54077073Y12427324D01*
X54077073Y12427324D02*
X54458025Y12427324D01*
X52934216Y11951133D02*
X53505644Y11951133D01*
X53219930Y11951133D02*
X53219930Y12951133D01*
X53219930Y12951133D02*
X53315168Y12808276D01*
X53315168Y12808276D02*
X53410406Y12713038D01*
X53410406Y12713038D02*
X53505644Y12665419D01*
X52362787Y12522562D02*
X52458025Y12570181D01*
X52458025Y12570181D02*
X52505644Y12617800D01*
X52505644Y12617800D02*
X52553263Y12713038D01*
X52553263Y12713038D02*
X52553263Y12760657D01*
X52553263Y12760657D02*
X52505644Y12855895D01*
X52505644Y12855895D02*
X52458025Y12903514D01*
X52458025Y12903514D02*
X52362787Y12951133D01*
X52362787Y12951133D02*
X52172311Y12951133D01*
X52172311Y12951133D02*
X52077073Y12903514D01*
X52077073Y12903514D02*
X52029454Y12855895D01*
X52029454Y12855895D02*
X51981835Y12760657D01*
X51981835Y12760657D02*
X51981835Y12713038D01*
X51981835Y12713038D02*
X52029454Y12617800D01*
X52029454Y12617800D02*
X52077073Y12570181D01*
X52077073Y12570181D02*
X52172311Y12522562D01*
X52172311Y12522562D02*
X52362787Y12522562D01*
X52362787Y12522562D02*
X52458025Y12474943D01*
X52458025Y12474943D02*
X52505644Y12427324D01*
X52505644Y12427324D02*
X52553263Y12332086D01*
X52553263Y12332086D02*
X52553263Y12141610D01*
X52553263Y12141610D02*
X52505644Y12046372D01*
X52505644Y12046372D02*
X52458025Y11998752D01*
X52458025Y11998752D02*
X52362787Y11951133D01*
X52362787Y11951133D02*
X52172311Y11951133D01*
X52172311Y11951133D02*
X52077073Y11998752D01*
X52077073Y11998752D02*
X52029454Y12046372D01*
X52029454Y12046372D02*
X51981835Y12141610D01*
X51981835Y12141610D02*
X51981835Y12332086D01*
X51981835Y12332086D02*
X52029454Y12427324D01*
X52029454Y12427324D02*
X52077073Y12474943D01*
X52077073Y12474943D02*
X52172311Y12522562D01*
X12045180Y8875477D02*
X12045180Y9494524D01*
X12045180Y9494524D02*
X11664228Y9161191D01*
X11664228Y9161191D02*
X11664228Y9304048D01*
X11664228Y9304048D02*
X11616609Y9399286D01*
X11616609Y9399286D02*
X11568990Y9446905D01*
X11568990Y9446905D02*
X11473752Y9494524D01*
X11473752Y9494524D02*
X11235657Y9494524D01*
X11235657Y9494524D02*
X11140419Y9446905D01*
X11140419Y9446905D02*
X11092800Y9399286D01*
X11092800Y9399286D02*
X11045180Y9304048D01*
X11045180Y9304048D02*
X11045180Y9018334D01*
X11045180Y9018334D02*
X11092800Y8923096D01*
X11092800Y8923096D02*
X11140419Y8875477D01*
X11711847Y10351667D02*
X11045180Y10351667D01*
X12092800Y10113572D02*
X11378514Y9875477D01*
X11378514Y9875477D02*
X11378514Y10494524D01*
X22045180Y8994525D02*
X22045180Y9185001D01*
X22045180Y9185001D02*
X22092800Y9280239D01*
X22092800Y9280239D02*
X22140419Y9327858D01*
X22140419Y9327858D02*
X22283276Y9423096D01*
X22283276Y9423096D02*
X22473752Y9470715D01*
X22473752Y9470715D02*
X22854704Y9470715D01*
X22854704Y9470715D02*
X22949942Y9423096D01*
X22949942Y9423096D02*
X22997561Y9375477D01*
X22997561Y9375477D02*
X23045180Y9280239D01*
X23045180Y9280239D02*
X23045180Y9089763D01*
X23045180Y9089763D02*
X22997561Y8994525D01*
X22997561Y8994525D02*
X22949942Y8946906D01*
X22949942Y8946906D02*
X22854704Y8899287D01*
X22854704Y8899287D02*
X22616609Y8899287D01*
X22616609Y8899287D02*
X22521371Y8946906D01*
X22521371Y8946906D02*
X22473752Y8994525D01*
X22473752Y8994525D02*
X22426133Y9089763D01*
X22426133Y9089763D02*
X22426133Y9280239D01*
X22426133Y9280239D02*
X22473752Y9375477D01*
X22473752Y9375477D02*
X22521371Y9423096D01*
X22521371Y9423096D02*
X22616609Y9470715D01*
X13545180Y37994524D02*
X13545180Y37423096D01*
X13545180Y37708810D02*
X14545180Y37708810D01*
X14545180Y37708810D02*
X14402323Y37613572D01*
X14402323Y37613572D02*
X14307085Y37518334D01*
X14307085Y37518334D02*
X14259466Y37423096D01*
X14116609Y38565953D02*
X14164228Y38470715D01*
X14164228Y38470715D02*
X14211847Y38423096D01*
X14211847Y38423096D02*
X14307085Y38375477D01*
X14307085Y38375477D02*
X14354704Y38375477D01*
X14354704Y38375477D02*
X14449942Y38423096D01*
X14449942Y38423096D02*
X14497561Y38470715D01*
X14497561Y38470715D02*
X14545180Y38565953D01*
X14545180Y38565953D02*
X14545180Y38756429D01*
X14545180Y38756429D02*
X14497561Y38851667D01*
X14497561Y38851667D02*
X14449942Y38899286D01*
X14449942Y38899286D02*
X14354704Y38946905D01*
X14354704Y38946905D02*
X14307085Y38946905D01*
X14307085Y38946905D02*
X14211847Y38899286D01*
X14211847Y38899286D02*
X14164228Y38851667D01*
X14164228Y38851667D02*
X14116609Y38756429D01*
X14116609Y38756429D02*
X14116609Y38565953D01*
X14116609Y38565953D02*
X14068990Y38470715D01*
X14068990Y38470715D02*
X14021371Y38423096D01*
X14021371Y38423096D02*
X13926133Y38375477D01*
X13926133Y38375477D02*
X13735657Y38375477D01*
X13735657Y38375477D02*
X13640419Y38423096D01*
X13640419Y38423096D02*
X13592800Y38470715D01*
X13592800Y38470715D02*
X13545180Y38565953D01*
X13545180Y38565953D02*
X13545180Y38756429D01*
X13545180Y38756429D02*
X13592800Y38851667D01*
X13592800Y38851667D02*
X13640419Y38899286D01*
X13640419Y38899286D02*
X13735657Y38946905D01*
X13735657Y38946905D02*
X13926133Y38946905D01*
X13926133Y38946905D02*
X14021371Y38899286D01*
X14021371Y38899286D02*
X14068990Y38851667D01*
X14068990Y38851667D02*
X14116609Y38756429D01*
X22013180Y40170715D02*
X22013180Y39599287D01*
X22013180Y39885001D02*
X23013180Y39885001D01*
X23013180Y39885001D02*
X22870323Y39789763D01*
X22870323Y39789763D02*
X22775085Y39694525D01*
X22775085Y39694525D02*
X22727466Y39599287D01*
X19545180Y11494524D02*
X19545180Y10923096D01*
X19545180Y11208810D02*
X20545180Y11208810D01*
X20545180Y11208810D02*
X20402323Y11113572D01*
X20402323Y11113572D02*
X20307085Y11018334D01*
X20307085Y11018334D02*
X20259466Y10923096D01*
X20545180Y11827858D02*
X20545180Y12494524D01*
X20545180Y12494524D02*
X19545180Y12065953D01*
X14449942Y10423096D02*
X14497561Y10470715D01*
X14497561Y10470715D02*
X14545180Y10565953D01*
X14545180Y10565953D02*
X14545180Y10804048D01*
X14545180Y10804048D02*
X14497561Y10899286D01*
X14497561Y10899286D02*
X14449942Y10946905D01*
X14449942Y10946905D02*
X14354704Y10994524D01*
X14354704Y10994524D02*
X14259466Y10994524D01*
X14259466Y10994524D02*
X14116609Y10946905D01*
X14116609Y10946905D02*
X13545180Y10375477D01*
X13545180Y10375477D02*
X13545180Y10994524D01*
X14545180Y11899286D02*
X14545180Y11423096D01*
X14545180Y11423096D02*
X14068990Y11375477D01*
X14068990Y11375477D02*
X14116609Y11423096D01*
X14116609Y11423096D02*
X14164228Y11518334D01*
X14164228Y11518334D02*
X14164228Y11756429D01*
X14164228Y11756429D02*
X14116609Y11851667D01*
X14116609Y11851667D02*
X14068990Y11899286D01*
X14068990Y11899286D02*
X13973752Y11946905D01*
X13973752Y11946905D02*
X13735657Y11946905D01*
X13735657Y11946905D02*
X13640419Y11899286D01*
X13640419Y11899286D02*
X13592800Y11851667D01*
X13592800Y11851667D02*
X13545180Y11756429D01*
X13545180Y11756429D02*
X13545180Y11518334D01*
X13545180Y11518334D02*
X13592800Y11423096D01*
X13592800Y11423096D02*
X13640419Y11375477D01*
X11949942Y38923096D02*
X11997561Y38970715D01*
X11997561Y38970715D02*
X12045180Y39065953D01*
X12045180Y39065953D02*
X12045180Y39304048D01*
X12045180Y39304048D02*
X11997561Y39399286D01*
X11997561Y39399286D02*
X11949942Y39446905D01*
X11949942Y39446905D02*
X11854704Y39494524D01*
X11854704Y39494524D02*
X11759466Y39494524D01*
X11759466Y39494524D02*
X11616609Y39446905D01*
X11616609Y39446905D02*
X11045180Y38875477D01*
X11045180Y38875477D02*
X11045180Y39494524D01*
X12045180Y40351667D02*
X12045180Y40161191D01*
X12045180Y40161191D02*
X11997561Y40065953D01*
X11997561Y40065953D02*
X11949942Y40018334D01*
X11949942Y40018334D02*
X11807085Y39923096D01*
X11807085Y39923096D02*
X11616609Y39875477D01*
X11616609Y39875477D02*
X11235657Y39875477D01*
X11235657Y39875477D02*
X11140419Y39923096D01*
X11140419Y39923096D02*
X11092800Y39970715D01*
X11092800Y39970715D02*
X11045180Y40065953D01*
X11045180Y40065953D02*
X11045180Y40256429D01*
X11045180Y40256429D02*
X11092800Y40351667D01*
X11092800Y40351667D02*
X11140419Y40399286D01*
X11140419Y40399286D02*
X11235657Y40446905D01*
X11235657Y40446905D02*
X11473752Y40446905D01*
X11473752Y40446905D02*
X11568990Y40399286D01*
X11568990Y40399286D02*
X11616609Y40351667D01*
X11616609Y40351667D02*
X11664228Y40256429D01*
X11664228Y40256429D02*
X11664228Y40065953D01*
X11664228Y40065953D02*
X11616609Y39970715D01*
X11616609Y39970715D02*
X11568990Y39923096D01*
X11568990Y39923096D02*
X11473752Y39875477D01*
X18545180Y37994524D02*
X18545180Y37423096D01*
X18545180Y37708810D02*
X19545180Y37708810D01*
X19545180Y37708810D02*
X19402323Y37613572D01*
X19402323Y37613572D02*
X19307085Y37518334D01*
X19307085Y37518334D02*
X19259466Y37423096D01*
X19545180Y38613572D02*
X19545180Y38708810D01*
X19545180Y38708810D02*
X19497561Y38804048D01*
X19497561Y38804048D02*
X19449942Y38851667D01*
X19449942Y38851667D02*
X19354704Y38899286D01*
X19354704Y38899286D02*
X19164228Y38946905D01*
X19164228Y38946905D02*
X18926133Y38946905D01*
X18926133Y38946905D02*
X18735657Y38899286D01*
X18735657Y38899286D02*
X18640419Y38851667D01*
X18640419Y38851667D02*
X18592800Y38804048D01*
X18592800Y38804048D02*
X18545180Y38708810D01*
X18545180Y38708810D02*
X18545180Y38613572D01*
X18545180Y38613572D02*
X18592800Y38518334D01*
X18592800Y38518334D02*
X18640419Y38470715D01*
X18640419Y38470715D02*
X18735657Y38423096D01*
X18735657Y38423096D02*
X18926133Y38375477D01*
X18926133Y38375477D02*
X19164228Y38375477D01*
X19164228Y38375477D02*
X19354704Y38423096D01*
X19354704Y38423096D02*
X19449942Y38470715D01*
X19449942Y38470715D02*
X19497561Y38518334D01*
X19497561Y38518334D02*
X19545180Y38613572D01*
X72980581Y47805181D02*
X72980581Y48805181D01*
X72980581Y48805181D02*
X72599629Y48805181D01*
X72599629Y48805181D02*
X72504391Y48757562D01*
X72504391Y48757562D02*
X72456772Y48709943D01*
X72456772Y48709943D02*
X72409153Y48614705D01*
X72409153Y48614705D02*
X72409153Y48471848D01*
X72409153Y48471848D02*
X72456772Y48376610D01*
X72456772Y48376610D02*
X72504391Y48328991D01*
X72504391Y48328991D02*
X72599629Y48281372D01*
X72599629Y48281372D02*
X72980581Y48281372D01*
X71552010Y48805181D02*
X71742486Y48805181D01*
X71742486Y48805181D02*
X71837724Y48757562D01*
X71837724Y48757562D02*
X71885343Y48709943D01*
X71885343Y48709943D02*
X71980581Y48567086D01*
X71980581Y48567086D02*
X72028200Y48376610D01*
X72028200Y48376610D02*
X72028200Y47995658D01*
X72028200Y47995658D02*
X71980581Y47900420D01*
X71980581Y47900420D02*
X71932962Y47852800D01*
X71932962Y47852800D02*
X71837724Y47805181D01*
X71837724Y47805181D02*
X71647248Y47805181D01*
X71647248Y47805181D02*
X71552010Y47852800D01*
X71552010Y47852800D02*
X71504391Y47900420D01*
X71504391Y47900420D02*
X71456772Y47995658D01*
X71456772Y47995658D02*
X71456772Y48233753D01*
X71456772Y48233753D02*
X71504391Y48328991D01*
X71504391Y48328991D02*
X71552010Y48376610D01*
X71552010Y48376610D02*
X71647248Y48424229D01*
X71647248Y48424229D02*
X71837724Y48424229D01*
X71837724Y48424229D02*
X71932962Y48376610D01*
X71932962Y48376610D02*
X71980581Y48328991D01*
X71980581Y48328991D02*
X72028200Y48233753D01*
D11*
X56236486Y21063232D02*
X56490486Y21063232D01*
X56490486Y20664089D02*
X56490486Y21426089D01*
X56490486Y21426089D02*
X56127629Y21426089D01*
X55438200Y20664089D02*
X55873629Y20664089D01*
X55655914Y20664089D02*
X55655914Y21426089D01*
X55655914Y21426089D02*
X55728486Y21317232D01*
X55728486Y21317232D02*
X55801057Y21244660D01*
X55801057Y21244660D02*
X55873629Y21208374D01*
D10*
X96420581Y4305181D02*
X96420581Y5305181D01*
X96420581Y5305181D02*
X96039629Y5305181D01*
X96039629Y5305181D02*
X95944391Y5257562D01*
X95944391Y5257562D02*
X95896772Y5209943D01*
X95896772Y5209943D02*
X95849153Y5114705D01*
X95849153Y5114705D02*
X95849153Y4971848D01*
X95849153Y4971848D02*
X95896772Y4876610D01*
X95896772Y4876610D02*
X95944391Y4828991D01*
X95944391Y4828991D02*
X96039629Y4781372D01*
X96039629Y4781372D02*
X96420581Y4781372D01*
X95515819Y5305181D02*
X94896772Y5305181D01*
X94896772Y5305181D02*
X95230105Y4924229D01*
X95230105Y4924229D02*
X95087248Y4924229D01*
X95087248Y4924229D02*
X94992010Y4876610D01*
X94992010Y4876610D02*
X94944391Y4828991D01*
X94944391Y4828991D02*
X94896772Y4733753D01*
X94896772Y4733753D02*
X94896772Y4495658D01*
X94896772Y4495658D02*
X94944391Y4400420D01*
X94944391Y4400420D02*
X94992010Y4352800D01*
X94992010Y4352800D02*
X95087248Y4305181D01*
X95087248Y4305181D02*
X95372962Y4305181D01*
X95372962Y4305181D02*
X95468200Y4352800D01*
X95468200Y4352800D02*
X95515819Y4400420D01*
D11*
X76784095Y7733698D02*
X77038095Y8096555D01*
X77219524Y7733698D02*
X77219524Y8495698D01*
X77219524Y8495698D02*
X76929238Y8495698D01*
X76929238Y8495698D02*
X76856667Y8459412D01*
X76856667Y8459412D02*
X76820381Y8423126D01*
X76820381Y8423126D02*
X76784095Y8350555D01*
X76784095Y8350555D02*
X76784095Y8241698D01*
X76784095Y8241698D02*
X76820381Y8169126D01*
X76820381Y8169126D02*
X76856667Y8132841D01*
X76856667Y8132841D02*
X76929238Y8096555D01*
X76929238Y8096555D02*
X77219524Y8096555D01*
X76130953Y8241698D02*
X76130953Y7733698D01*
X76312381Y8531983D02*
X76493810Y7987698D01*
X76493810Y7987698D02*
X76022095Y7987698D01*
D10*
X117120581Y25805181D02*
X117120581Y26805181D01*
X117120581Y26805181D02*
X116739629Y26805181D01*
X116739629Y26805181D02*
X116644391Y26757562D01*
X116644391Y26757562D02*
X116596772Y26709943D01*
X116596772Y26709943D02*
X116549153Y26614705D01*
X116549153Y26614705D02*
X116549153Y26471848D01*
X116549153Y26471848D02*
X116596772Y26376610D01*
X116596772Y26376610D02*
X116644391Y26328991D01*
X116644391Y26328991D02*
X116739629Y26281372D01*
X116739629Y26281372D02*
X117120581Y26281372D01*
X116215819Y26805181D02*
X115549153Y26805181D01*
X115549153Y26805181D02*
X115977724Y25805181D01*
D11*
X50129255Y22864000D02*
X50129255Y23118000D01*
X50528398Y23118000D02*
X49766398Y23118000D01*
X49766398Y23118000D02*
X49766398Y22755143D01*
X49838970Y22501143D02*
X49802684Y22464857D01*
X49802684Y22464857D02*
X49766398Y22392285D01*
X49766398Y22392285D02*
X49766398Y22210857D01*
X49766398Y22210857D02*
X49802684Y22138285D01*
X49802684Y22138285D02*
X49838970Y22102000D01*
X49838970Y22102000D02*
X49911541Y22065714D01*
X49911541Y22065714D02*
X49984113Y22065714D01*
X49984113Y22065714D02*
X50092970Y22102000D01*
X50092970Y22102000D02*
X50528398Y22537428D01*
X50528398Y22537428D02*
X50528398Y22065714D01*
D10*
X45396772Y11955181D02*
X45396772Y12955181D01*
X45396772Y12955181D02*
X45015820Y12955181D01*
X45015820Y12955181D02*
X44920582Y12907562D01*
X44920582Y12907562D02*
X44872963Y12859943D01*
X44872963Y12859943D02*
X44825344Y12764705D01*
X44825344Y12764705D02*
X44825344Y12621848D01*
X44825344Y12621848D02*
X44872963Y12526610D01*
X44872963Y12526610D02*
X44920582Y12478991D01*
X44920582Y12478991D02*
X45015820Y12431372D01*
X45015820Y12431372D02*
X45396772Y12431372D01*
X43872963Y11955181D02*
X44444391Y11955181D01*
X44158677Y11955181D02*
X44158677Y12955181D01*
X44158677Y12955181D02*
X44253915Y12812324D01*
X44253915Y12812324D02*
X44349153Y12717086D01*
X44349153Y12717086D02*
X44444391Y12669467D01*
X43015820Y12955181D02*
X43206296Y12955181D01*
X43206296Y12955181D02*
X43301534Y12907562D01*
X43301534Y12907562D02*
X43349153Y12859943D01*
X43349153Y12859943D02*
X43444391Y12717086D01*
X43444391Y12717086D02*
X43492010Y12526610D01*
X43492010Y12526610D02*
X43492010Y12145658D01*
X43492010Y12145658D02*
X43444391Y12050420D01*
X43444391Y12050420D02*
X43396772Y12002800D01*
X43396772Y12002800D02*
X43301534Y11955181D01*
X43301534Y11955181D02*
X43111058Y11955181D01*
X43111058Y11955181D02*
X43015820Y12002800D01*
X43015820Y12002800D02*
X42968201Y12050420D01*
X42968201Y12050420D02*
X42920582Y12145658D01*
X42920582Y12145658D02*
X42920582Y12383753D01*
X42920582Y12383753D02*
X42968201Y12478991D01*
X42968201Y12478991D02*
X43015820Y12526610D01*
X43015820Y12526610D02*
X43111058Y12574229D01*
X43111058Y12574229D02*
X43301534Y12574229D01*
X43301534Y12574229D02*
X43396772Y12526610D01*
X43396772Y12526610D02*
X43444391Y12478991D01*
X43444391Y12478991D02*
X43492010Y12383753D01*
X86420581Y78855181D02*
X86420581Y79855181D01*
X86420581Y79855181D02*
X86182486Y79855181D01*
X86182486Y79855181D02*
X86039629Y79807562D01*
X86039629Y79807562D02*
X85944391Y79712324D01*
X85944391Y79712324D02*
X85896772Y79617086D01*
X85896772Y79617086D02*
X85849153Y79426610D01*
X85849153Y79426610D02*
X85849153Y79283753D01*
X85849153Y79283753D02*
X85896772Y79093277D01*
X85896772Y79093277D02*
X85944391Y78998039D01*
X85944391Y78998039D02*
X86039629Y78902800D01*
X86039629Y78902800D02*
X86182486Y78855181D01*
X86182486Y78855181D02*
X86420581Y78855181D01*
X85277724Y79426610D02*
X85372962Y79474229D01*
X85372962Y79474229D02*
X85420581Y79521848D01*
X85420581Y79521848D02*
X85468200Y79617086D01*
X85468200Y79617086D02*
X85468200Y79664705D01*
X85468200Y79664705D02*
X85420581Y79759943D01*
X85420581Y79759943D02*
X85372962Y79807562D01*
X85372962Y79807562D02*
X85277724Y79855181D01*
X85277724Y79855181D02*
X85087248Y79855181D01*
X85087248Y79855181D02*
X84992010Y79807562D01*
X84992010Y79807562D02*
X84944391Y79759943D01*
X84944391Y79759943D02*
X84896772Y79664705D01*
X84896772Y79664705D02*
X84896772Y79617086D01*
X84896772Y79617086D02*
X84944391Y79521848D01*
X84944391Y79521848D02*
X84992010Y79474229D01*
X84992010Y79474229D02*
X85087248Y79426610D01*
X85087248Y79426610D02*
X85277724Y79426610D01*
X85277724Y79426610D02*
X85372962Y79378991D01*
X85372962Y79378991D02*
X85420581Y79331372D01*
X85420581Y79331372D02*
X85468200Y79236134D01*
X85468200Y79236134D02*
X85468200Y79045658D01*
X85468200Y79045658D02*
X85420581Y78950420D01*
X85420581Y78950420D02*
X85372962Y78902800D01*
X85372962Y78902800D02*
X85277724Y78855181D01*
X85277724Y78855181D02*
X85087248Y78855181D01*
X85087248Y78855181D02*
X84992010Y78902800D01*
X84992010Y78902800D02*
X84944391Y78950420D01*
X84944391Y78950420D02*
X84896772Y79045658D01*
X84896772Y79045658D02*
X84896772Y79236134D01*
X84896772Y79236134D02*
X84944391Y79331372D01*
X84944391Y79331372D02*
X84992010Y79378991D01*
X84992010Y79378991D02*
X85087248Y79426610D01*
X45611904Y69685181D02*
X45611904Y68875658D01*
X45611904Y68875658D02*
X45564285Y68780420D01*
X45564285Y68780420D02*
X45516666Y68732800D01*
X45516666Y68732800D02*
X45421428Y68685181D01*
X45421428Y68685181D02*
X45230952Y68685181D01*
X45230952Y68685181D02*
X45135714Y68732800D01*
X45135714Y68732800D02*
X45088095Y68780420D01*
X45088095Y68780420D02*
X45040476Y68875658D01*
X45040476Y68875658D02*
X45040476Y69685181D01*
X44659523Y69685181D02*
X43992857Y69685181D01*
X43992857Y69685181D02*
X44421428Y68685181D01*
D12*
X95295199Y68284348D02*
X95334247Y68323396D01*
X95334247Y68323396D02*
X95373294Y68440539D01*
X95373294Y68440539D02*
X95373294Y68518634D01*
X95373294Y68518634D02*
X95334247Y68635777D01*
X95334247Y68635777D02*
X95256151Y68713872D01*
X95256151Y68713872D02*
X95178056Y68752920D01*
X95178056Y68752920D02*
X95021865Y68791968D01*
X95021865Y68791968D02*
X94904722Y68791968D01*
X94904722Y68791968D02*
X94748532Y68752920D01*
X94748532Y68752920D02*
X94670436Y68713872D01*
X94670436Y68713872D02*
X94592341Y68635777D01*
X94592341Y68635777D02*
X94553293Y68518634D01*
X94553293Y68518634D02*
X94553293Y68440539D01*
X94553293Y68440539D02*
X94592341Y68323396D01*
X94592341Y68323396D02*
X94631389Y68284348D01*
X94631389Y67971967D02*
X94592341Y67932919D01*
X94592341Y67932919D02*
X94553293Y67854824D01*
X94553293Y67854824D02*
X94553293Y67659585D01*
X94553293Y67659585D02*
X94592341Y67581490D01*
X94592341Y67581490D02*
X94631389Y67542442D01*
X94631389Y67542442D02*
X94709484Y67503395D01*
X94709484Y67503395D02*
X94787579Y67503395D01*
X94787579Y67503395D02*
X94904722Y67542442D01*
X94904722Y67542442D02*
X95373294Y68011014D01*
X95373294Y68011014D02*
X95373294Y67503395D01*
X94553293Y67230061D02*
X94553293Y66683394D01*
X94553293Y66683394D02*
X95373294Y67034823D01*
X38290237Y29439492D02*
X38290237Y30259492D01*
X38290237Y30259492D02*
X38094999Y30259492D01*
X38094999Y30259492D02*
X37977856Y30220444D01*
X37977856Y30220444D02*
X37899761Y30142349D01*
X37899761Y30142349D02*
X37860714Y30064254D01*
X37860714Y30064254D02*
X37821666Y29908063D01*
X37821666Y29908063D02*
X37821666Y29790920D01*
X37821666Y29790920D02*
X37860714Y29634730D01*
X37860714Y29634730D02*
X37899761Y29556635D01*
X37899761Y29556635D02*
X37977856Y29478539D01*
X37977856Y29478539D02*
X38094999Y29439492D01*
X38094999Y29439492D02*
X38290237Y29439492D01*
X37118809Y29986159D02*
X37118809Y29439492D01*
X37314047Y30298539D02*
X37509285Y29712825D01*
X37509285Y29712825D02*
X37001666Y29712825D01*
D10*
X130735201Y16999049D02*
X130592344Y16951430D01*
X130592344Y16951430D02*
X130544725Y16903811D01*
X130544725Y16903811D02*
X130497106Y16808573D01*
X130497106Y16808573D02*
X130497106Y16665716D01*
X130497106Y16665716D02*
X130544725Y16570478D01*
X130544725Y16570478D02*
X130592344Y16522858D01*
X130592344Y16522858D02*
X130687582Y16475239D01*
X130687582Y16475239D02*
X131068534Y16475239D01*
X131068534Y16475239D02*
X131068534Y17475239D01*
X131068534Y17475239D02*
X130735201Y17475239D01*
X130735201Y17475239D02*
X130639963Y17427620D01*
X130639963Y17427620D02*
X130592344Y17380001D01*
X130592344Y17380001D02*
X130544725Y17284763D01*
X130544725Y17284763D02*
X130544725Y17189525D01*
X130544725Y17189525D02*
X130592344Y17094287D01*
X130592344Y17094287D02*
X130639963Y17046668D01*
X130639963Y17046668D02*
X130735201Y16999049D01*
X130735201Y16999049D02*
X131068534Y16999049D01*
X130211391Y17475239D02*
X129639963Y17475239D01*
X129925677Y16475239D02*
X129925677Y17475239D01*
X128782820Y16475239D02*
X129354248Y16475239D01*
X129068534Y16475239D02*
X129068534Y17475239D01*
X129068534Y17475239D02*
X129163772Y17332382D01*
X129163772Y17332382D02*
X129259010Y17237144D01*
X129259010Y17237144D02*
X129354248Y17189525D01*
D13*
X122998528Y33803305D02*
X123060432Y33741400D01*
X123060432Y33741400D02*
X123246147Y33679496D01*
X123246147Y33679496D02*
X123369956Y33679496D01*
X123369956Y33679496D02*
X123555670Y33741400D01*
X123555670Y33741400D02*
X123679480Y33865210D01*
X123679480Y33865210D02*
X123741385Y33989020D01*
X123741385Y33989020D02*
X123803289Y34236639D01*
X123803289Y34236639D02*
X123803289Y34422353D01*
X123803289Y34422353D02*
X123741385Y34669972D01*
X123741385Y34669972D02*
X123679480Y34793781D01*
X123679480Y34793781D02*
X123555670Y34917591D01*
X123555670Y34917591D02*
X123369956Y34979496D01*
X123369956Y34979496D02*
X123246147Y34979496D01*
X123246147Y34979496D02*
X123060432Y34917591D01*
X123060432Y34917591D02*
X122998528Y34855686D01*
X121698528Y33679496D02*
X122131861Y34298543D01*
X122441385Y33679496D02*
X122441385Y34979496D01*
X122441385Y34979496D02*
X121946147Y34979496D01*
X121946147Y34979496D02*
X121822337Y34917591D01*
X121822337Y34917591D02*
X121760432Y34855686D01*
X121760432Y34855686D02*
X121698528Y34731877D01*
X121698528Y34731877D02*
X121698528Y34546162D01*
X121698528Y34546162D02*
X121760432Y34422353D01*
X121760432Y34422353D02*
X121822337Y34360448D01*
X121822337Y34360448D02*
X121946147Y34298543D01*
X121946147Y34298543D02*
X122441385Y34298543D01*
X120460432Y33679496D02*
X121203289Y33679496D01*
X120831861Y33679496D02*
X120831861Y34979496D01*
X120831861Y34979496D02*
X120955670Y34793781D01*
X120955670Y34793781D02*
X121079480Y34669972D01*
X121079480Y34669972D02*
X121203289Y34608067D01*
X119965194Y34855686D02*
X119903290Y34917591D01*
X119903290Y34917591D02*
X119779480Y34979496D01*
X119779480Y34979496D02*
X119469956Y34979496D01*
X119469956Y34979496D02*
X119346147Y34917591D01*
X119346147Y34917591D02*
X119284242Y34855686D01*
X119284242Y34855686D02*
X119222337Y34731877D01*
X119222337Y34731877D02*
X119222337Y34608067D01*
X119222337Y34608067D02*
X119284242Y34422353D01*
X119284242Y34422353D02*
X120027099Y33679496D01*
X120027099Y33679496D02*
X119222337Y33679496D01*
X118727099Y34855686D02*
X118665195Y34917591D01*
X118665195Y34917591D02*
X118541385Y34979496D01*
X118541385Y34979496D02*
X118231861Y34979496D01*
X118231861Y34979496D02*
X118108052Y34917591D01*
X118108052Y34917591D02*
X118046147Y34855686D01*
X118046147Y34855686D02*
X117984242Y34731877D01*
X117984242Y34731877D02*
X117984242Y34608067D01*
X117984242Y34608067D02*
X118046147Y34422353D01*
X118046147Y34422353D02*
X118789004Y33679496D01*
X118789004Y33679496D02*
X117984242Y33679496D01*
X117179481Y34979496D02*
X117055671Y34979496D01*
X117055671Y34979496D02*
X116931862Y34917591D01*
X116931862Y34917591D02*
X116869957Y34855686D01*
X116869957Y34855686D02*
X116808052Y34731877D01*
X116808052Y34731877D02*
X116746147Y34484258D01*
X116746147Y34484258D02*
X116746147Y34174734D01*
X116746147Y34174734D02*
X116808052Y33927115D01*
X116808052Y33927115D02*
X116869957Y33803305D01*
X116869957Y33803305D02*
X116931862Y33741400D01*
X116931862Y33741400D02*
X117055671Y33679496D01*
X117055671Y33679496D02*
X117179481Y33679496D01*
X117179481Y33679496D02*
X117303290Y33741400D01*
X117303290Y33741400D02*
X117365195Y33803305D01*
X117365195Y33803305D02*
X117427100Y33927115D01*
X117427100Y33927115D02*
X117489004Y34174734D01*
X117489004Y34174734D02*
X117489004Y34484258D01*
X117489004Y34484258D02*
X117427100Y34731877D01*
X117427100Y34731877D02*
X117365195Y34855686D01*
X117365195Y34855686D02*
X117303290Y34917591D01*
X117303290Y34917591D02*
X117179481Y34979496D01*
D10*
X37938094Y45095181D02*
X37938094Y44285658D01*
X37938094Y44285658D02*
X37890475Y44190420D01*
X37890475Y44190420D02*
X37842856Y44142800D01*
X37842856Y44142800D02*
X37747618Y44095181D01*
X37747618Y44095181D02*
X37557142Y44095181D01*
X37557142Y44095181D02*
X37461904Y44142800D01*
X37461904Y44142800D02*
X37414285Y44190420D01*
X37414285Y44190420D02*
X37366666Y44285658D01*
X37366666Y44285658D02*
X37366666Y45095181D01*
X36366666Y44095181D02*
X36938094Y44095181D01*
X36652380Y44095181D02*
X36652380Y45095181D01*
X36652380Y45095181D02*
X36747618Y44952324D01*
X36747618Y44952324D02*
X36842856Y44857086D01*
X36842856Y44857086D02*
X36938094Y44809467D01*
X35747618Y45095181D02*
X35652380Y45095181D01*
X35652380Y45095181D02*
X35557142Y45047562D01*
X35557142Y45047562D02*
X35509523Y44999943D01*
X35509523Y44999943D02*
X35461904Y44904705D01*
X35461904Y44904705D02*
X35414285Y44714229D01*
X35414285Y44714229D02*
X35414285Y44476134D01*
X35414285Y44476134D02*
X35461904Y44285658D01*
X35461904Y44285658D02*
X35509523Y44190420D01*
X35509523Y44190420D02*
X35557142Y44142800D01*
X35557142Y44142800D02*
X35652380Y44095181D01*
X35652380Y44095181D02*
X35747618Y44095181D01*
X35747618Y44095181D02*
X35842856Y44142800D01*
X35842856Y44142800D02*
X35890475Y44190420D01*
X35890475Y44190420D02*
X35938094Y44285658D01*
X35938094Y44285658D02*
X35985713Y44476134D01*
X35985713Y44476134D02*
X35985713Y44714229D01*
X35985713Y44714229D02*
X35938094Y44904705D01*
X35938094Y44904705D02*
X35890475Y44999943D01*
X35890475Y44999943D02*
X35842856Y45047562D01*
X35842856Y45047562D02*
X35747618Y45095181D01*
D12*
X42615651Y48830809D02*
X42342318Y48440333D01*
X42147080Y48830809D02*
X42147080Y48010809D01*
X42147080Y48010809D02*
X42459461Y48010809D01*
X42459461Y48010809D02*
X42537556Y48049857D01*
X42537556Y48049857D02*
X42576603Y48088904D01*
X42576603Y48088904D02*
X42615651Y48167000D01*
X42615651Y48167000D02*
X42615651Y48284142D01*
X42615651Y48284142D02*
X42576603Y48362238D01*
X42576603Y48362238D02*
X42537556Y48401285D01*
X42537556Y48401285D02*
X42459461Y48440333D01*
X42459461Y48440333D02*
X42147080Y48440333D01*
X42888984Y48010809D02*
X43396603Y48010809D01*
X43396603Y48010809D02*
X43123270Y48323190D01*
X43123270Y48323190D02*
X43240413Y48323190D01*
X43240413Y48323190D02*
X43318508Y48362238D01*
X43318508Y48362238D02*
X43357556Y48401285D01*
X43357556Y48401285D02*
X43396603Y48479381D01*
X43396603Y48479381D02*
X43396603Y48674619D01*
X43396603Y48674619D02*
X43357556Y48752714D01*
X43357556Y48752714D02*
X43318508Y48791761D01*
X43318508Y48791761D02*
X43240413Y48830809D01*
X43240413Y48830809D02*
X43006127Y48830809D01*
X43006127Y48830809D02*
X42928032Y48791761D01*
X42928032Y48791761D02*
X42888984Y48752714D01*
X44177555Y48830809D02*
X43708984Y48830809D01*
X43943270Y48830809D02*
X43943270Y48010809D01*
X43943270Y48010809D02*
X43865174Y48127952D01*
X43865174Y48127952D02*
X43787079Y48206047D01*
X43787079Y48206047D02*
X43708984Y48245095D01*
X92406834Y80997288D02*
X92445882Y80958240D01*
X92445882Y80958240D02*
X92563025Y80919193D01*
X92563025Y80919193D02*
X92641120Y80919193D01*
X92641120Y80919193D02*
X92758263Y80958240D01*
X92758263Y80958240D02*
X92836359Y81036336D01*
X92836359Y81036336D02*
X92875406Y81114431D01*
X92875406Y81114431D02*
X92914454Y81270622D01*
X92914454Y81270622D02*
X92914454Y81387765D01*
X92914454Y81387765D02*
X92875406Y81543955D01*
X92875406Y81543955D02*
X92836359Y81622051D01*
X92836359Y81622051D02*
X92758263Y81700146D01*
X92758263Y81700146D02*
X92641120Y81739194D01*
X92641120Y81739194D02*
X92563025Y81739194D01*
X92563025Y81739194D02*
X92445882Y81700146D01*
X92445882Y81700146D02*
X92406834Y81661098D01*
X92133501Y81739194D02*
X91625881Y81739194D01*
X91625881Y81739194D02*
X91899215Y81426812D01*
X91899215Y81426812D02*
X91782072Y81426812D01*
X91782072Y81426812D02*
X91703976Y81387765D01*
X91703976Y81387765D02*
X91664929Y81348717D01*
X91664929Y81348717D02*
X91625881Y81270622D01*
X91625881Y81270622D02*
X91625881Y81075383D01*
X91625881Y81075383D02*
X91664929Y80997288D01*
X91664929Y80997288D02*
X91703976Y80958240D01*
X91703976Y80958240D02*
X91782072Y80919193D01*
X91782072Y80919193D02*
X92016358Y80919193D01*
X92016358Y80919193D02*
X92094453Y80958240D01*
X92094453Y80958240D02*
X92133501Y80997288D01*
X91118262Y81739194D02*
X91040166Y81739194D01*
X91040166Y81739194D02*
X90962071Y81700146D01*
X90962071Y81700146D02*
X90923023Y81661098D01*
X90923023Y81661098D02*
X90883976Y81583003D01*
X90883976Y81583003D02*
X90844928Y81426812D01*
X90844928Y81426812D02*
X90844928Y81231574D01*
X90844928Y81231574D02*
X90883976Y81075383D01*
X90883976Y81075383D02*
X90923023Y80997288D01*
X90923023Y80997288D02*
X90962071Y80958240D01*
X90962071Y80958240D02*
X91040166Y80919193D01*
X91040166Y80919193D02*
X91118262Y80919193D01*
X91118262Y80919193D02*
X91196357Y80958240D01*
X91196357Y80958240D02*
X91235405Y80997288D01*
X91235405Y80997288D02*
X91274452Y81075383D01*
X91274452Y81075383D02*
X91313500Y81231574D01*
X91313500Y81231574D02*
X91313500Y81426812D01*
X91313500Y81426812D02*
X91274452Y81583003D01*
X91274452Y81583003D02*
X91235405Y81661098D01*
X91235405Y81661098D02*
X91196357Y81700146D01*
X91196357Y81700146D02*
X91118262Y81739194D01*
X129195199Y34534348D02*
X129234247Y34573396D01*
X129234247Y34573396D02*
X129273294Y34690539D01*
X129273294Y34690539D02*
X129273294Y34768634D01*
X129273294Y34768634D02*
X129234247Y34885777D01*
X129234247Y34885777D02*
X129156151Y34963872D01*
X129156151Y34963872D02*
X129078056Y35002920D01*
X129078056Y35002920D02*
X128921865Y35041968D01*
X128921865Y35041968D02*
X128804722Y35041968D01*
X128804722Y35041968D02*
X128648532Y35002920D01*
X128648532Y35002920D02*
X128570436Y34963872D01*
X128570436Y34963872D02*
X128492341Y34885777D01*
X128492341Y34885777D02*
X128453293Y34768634D01*
X128453293Y34768634D02*
X128453293Y34690539D01*
X128453293Y34690539D02*
X128492341Y34573396D01*
X128492341Y34573396D02*
X128531389Y34534348D01*
X128453293Y34261014D02*
X128453293Y33753395D01*
X128453293Y33753395D02*
X128765675Y34026728D01*
X128765675Y34026728D02*
X128765675Y33909585D01*
X128765675Y33909585D02*
X128804722Y33831490D01*
X128804722Y33831490D02*
X128843770Y33792442D01*
X128843770Y33792442D02*
X128921865Y33753395D01*
X128921865Y33753395D02*
X129117104Y33753395D01*
X129117104Y33753395D02*
X129195199Y33792442D01*
X129195199Y33792442D02*
X129234247Y33831490D01*
X129234247Y33831490D02*
X129273294Y33909585D01*
X129273294Y33909585D02*
X129273294Y34143871D01*
X129273294Y34143871D02*
X129234247Y34221967D01*
X129234247Y34221967D02*
X129195199Y34261014D01*
X128453293Y33480061D02*
X128453293Y32972442D01*
X128453293Y32972442D02*
X128765675Y33245775D01*
X128765675Y33245775D02*
X128765675Y33128632D01*
X128765675Y33128632D02*
X128804722Y33050537D01*
X128804722Y33050537D02*
X128843770Y33011489D01*
X128843770Y33011489D02*
X128921865Y32972442D01*
X128921865Y32972442D02*
X129117104Y32972442D01*
X129117104Y32972442D02*
X129195199Y33011489D01*
X129195199Y33011489D02*
X129234247Y33050537D01*
X129234247Y33050537D02*
X129273294Y33128632D01*
X129273294Y33128632D02*
X129273294Y33362918D01*
X129273294Y33362918D02*
X129234247Y33441014D01*
X129234247Y33441014D02*
X129195199Y33480061D01*
X91806834Y76797288D02*
X91845882Y76758240D01*
X91845882Y76758240D02*
X91963025Y76719193D01*
X91963025Y76719193D02*
X92041120Y76719193D01*
X92041120Y76719193D02*
X92158263Y76758240D01*
X92158263Y76758240D02*
X92236359Y76836336D01*
X92236359Y76836336D02*
X92275406Y76914431D01*
X92275406Y76914431D02*
X92314454Y77070622D01*
X92314454Y77070622D02*
X92314454Y77187765D01*
X92314454Y77187765D02*
X92275406Y77343955D01*
X92275406Y77343955D02*
X92236359Y77422051D01*
X92236359Y77422051D02*
X92158263Y77500146D01*
X92158263Y77500146D02*
X92041120Y77539194D01*
X92041120Y77539194D02*
X91963025Y77539194D01*
X91963025Y77539194D02*
X91845882Y77500146D01*
X91845882Y77500146D02*
X91806834Y77461098D01*
X91494453Y77461098D02*
X91455405Y77500146D01*
X91455405Y77500146D02*
X91377310Y77539194D01*
X91377310Y77539194D02*
X91182072Y77539194D01*
X91182072Y77539194D02*
X91103976Y77500146D01*
X91103976Y77500146D02*
X91064929Y77461098D01*
X91064929Y77461098D02*
X91025881Y77383003D01*
X91025881Y77383003D02*
X91025881Y77304908D01*
X91025881Y77304908D02*
X91064929Y77187765D01*
X91064929Y77187765D02*
X91533501Y76719193D01*
X91533501Y76719193D02*
X91025881Y76719193D01*
X90635405Y76719193D02*
X90479214Y76719193D01*
X90479214Y76719193D02*
X90401119Y76758240D01*
X90401119Y76758240D02*
X90362071Y76797288D01*
X90362071Y76797288D02*
X90283976Y76914431D01*
X90283976Y76914431D02*
X90244928Y77070622D01*
X90244928Y77070622D02*
X90244928Y77383003D01*
X90244928Y77383003D02*
X90283976Y77461098D01*
X90283976Y77461098D02*
X90323023Y77500146D01*
X90323023Y77500146D02*
X90401119Y77539194D01*
X90401119Y77539194D02*
X90557309Y77539194D01*
X90557309Y77539194D02*
X90635405Y77500146D01*
X90635405Y77500146D02*
X90674452Y77461098D01*
X90674452Y77461098D02*
X90713500Y77383003D01*
X90713500Y77383003D02*
X90713500Y77187765D01*
X90713500Y77187765D02*
X90674452Y77109669D01*
X90674452Y77109669D02*
X90635405Y77070622D01*
X90635405Y77070622D02*
X90557309Y77031574D01*
X90557309Y77031574D02*
X90401119Y77031574D01*
X90401119Y77031574D02*
X90323023Y77070622D01*
X90323023Y77070622D02*
X90283976Y77109669D01*
X90283976Y77109669D02*
X90244928Y77187765D01*
X37754348Y50879192D02*
X38027681Y51269668D01*
X38222919Y50879192D02*
X38222919Y51699192D01*
X38222919Y51699192D02*
X37910538Y51699192D01*
X37910538Y51699192D02*
X37832443Y51660144D01*
X37832443Y51660144D02*
X37793396Y51621097D01*
X37793396Y51621097D02*
X37754348Y51543001D01*
X37754348Y51543001D02*
X37754348Y51425859D01*
X37754348Y51425859D02*
X37793396Y51347763D01*
X37793396Y51347763D02*
X37832443Y51308716D01*
X37832443Y51308716D02*
X37910538Y51269668D01*
X37910538Y51269668D02*
X38222919Y51269668D01*
X37481015Y51699192D02*
X36973396Y51699192D01*
X36973396Y51699192D02*
X37246729Y51386811D01*
X37246729Y51386811D02*
X37129586Y51386811D01*
X37129586Y51386811D02*
X37051491Y51347763D01*
X37051491Y51347763D02*
X37012443Y51308716D01*
X37012443Y51308716D02*
X36973396Y51230620D01*
X36973396Y51230620D02*
X36973396Y51035382D01*
X36973396Y51035382D02*
X37012443Y50957287D01*
X37012443Y50957287D02*
X37051491Y50918239D01*
X37051491Y50918239D02*
X37129586Y50879192D01*
X37129586Y50879192D02*
X37363872Y50879192D01*
X37363872Y50879192D02*
X37441967Y50918239D01*
X37441967Y50918239D02*
X37481015Y50957287D01*
X36270539Y51425859D02*
X36270539Y50879192D01*
X36465777Y51738239D02*
X36661015Y51152525D01*
X36661015Y51152525D02*
X36153396Y51152525D01*
X6655808Y29506846D02*
X6265332Y29780179D01*
X6655808Y29975417D02*
X5835808Y29975417D01*
X5835808Y29975417D02*
X5835808Y29663036D01*
X5835808Y29663036D02*
X5874856Y29584941D01*
X5874856Y29584941D02*
X5913903Y29545894D01*
X5913903Y29545894D02*
X5991999Y29506846D01*
X5991999Y29506846D02*
X6109141Y29506846D01*
X6109141Y29506846D02*
X6187237Y29545894D01*
X6187237Y29545894D02*
X6226284Y29584941D01*
X6226284Y29584941D02*
X6265332Y29663036D01*
X6265332Y29663036D02*
X6265332Y29975417D01*
X6655808Y28725894D02*
X6655808Y29194465D01*
X6655808Y28960179D02*
X5835808Y28960179D01*
X5835808Y28960179D02*
X5952951Y29038275D01*
X5952951Y29038275D02*
X6031046Y29116370D01*
X6031046Y29116370D02*
X6070094Y29194465D01*
D10*
X87244391Y76755181D02*
X87244391Y75945658D01*
X87244391Y75945658D02*
X87196772Y75850420D01*
X87196772Y75850420D02*
X87149153Y75802800D01*
X87149153Y75802800D02*
X87053915Y75755181D01*
X87053915Y75755181D02*
X86863439Y75755181D01*
X86863439Y75755181D02*
X86768201Y75802800D01*
X86768201Y75802800D02*
X86720582Y75850420D01*
X86720582Y75850420D02*
X86672963Y75945658D01*
X86672963Y75945658D02*
X86672963Y76755181D01*
X85768201Y76421848D02*
X85768201Y75755181D01*
X86006296Y76802800D02*
X86244391Y76088515D01*
X86244391Y76088515D02*
X85625344Y76088515D01*
X38138094Y53095181D02*
X38138094Y52285658D01*
X38138094Y52285658D02*
X38090475Y52190420D01*
X38090475Y52190420D02*
X38042856Y52142800D01*
X38042856Y52142800D02*
X37947618Y52095181D01*
X37947618Y52095181D02*
X37757142Y52095181D01*
X37757142Y52095181D02*
X37661904Y52142800D01*
X37661904Y52142800D02*
X37614285Y52190420D01*
X37614285Y52190420D02*
X37566666Y52285658D01*
X37566666Y52285658D02*
X37566666Y53095181D01*
X36566666Y52095181D02*
X37138094Y52095181D01*
X36852380Y52095181D02*
X36852380Y53095181D01*
X36852380Y53095181D02*
X36947618Y52952324D01*
X36947618Y52952324D02*
X37042856Y52857086D01*
X37042856Y52857086D02*
X37138094Y52809467D01*
X35614285Y52095181D02*
X36185713Y52095181D01*
X35899999Y52095181D02*
X35899999Y53095181D01*
X35899999Y53095181D02*
X35995237Y52952324D01*
X35995237Y52952324D02*
X36090475Y52857086D01*
X36090475Y52857086D02*
X36185713Y52809467D01*
D12*
X93395199Y76634348D02*
X93434247Y76673396D01*
X93434247Y76673396D02*
X93473294Y76790539D01*
X93473294Y76790539D02*
X93473294Y76868634D01*
X93473294Y76868634D02*
X93434247Y76985777D01*
X93434247Y76985777D02*
X93356151Y77063872D01*
X93356151Y77063872D02*
X93278056Y77102920D01*
X93278056Y77102920D02*
X93121865Y77141968D01*
X93121865Y77141968D02*
X93004722Y77141968D01*
X93004722Y77141968D02*
X92848532Y77102920D01*
X92848532Y77102920D02*
X92770436Y77063872D01*
X92770436Y77063872D02*
X92692341Y76985777D01*
X92692341Y76985777D02*
X92653293Y76868634D01*
X92653293Y76868634D02*
X92653293Y76790539D01*
X92653293Y76790539D02*
X92692341Y76673396D01*
X92692341Y76673396D02*
X92731389Y76634348D01*
X92653293Y76361014D02*
X92653293Y75853395D01*
X92653293Y75853395D02*
X92965675Y76126728D01*
X92965675Y76126728D02*
X92965675Y76009585D01*
X92965675Y76009585D02*
X93004722Y75931490D01*
X93004722Y75931490D02*
X93043770Y75892442D01*
X93043770Y75892442D02*
X93121865Y75853395D01*
X93121865Y75853395D02*
X93317104Y75853395D01*
X93317104Y75853395D02*
X93395199Y75892442D01*
X93395199Y75892442D02*
X93434247Y75931490D01*
X93434247Y75931490D02*
X93473294Y76009585D01*
X93473294Y76009585D02*
X93473294Y76243871D01*
X93473294Y76243871D02*
X93434247Y76321967D01*
X93434247Y76321967D02*
X93395199Y76361014D01*
X93473294Y75072442D02*
X93473294Y75541014D01*
X93473294Y75306728D02*
X92653293Y75306728D01*
X92653293Y75306728D02*
X92770436Y75384823D01*
X92770436Y75384823D02*
X92848532Y75462918D01*
X92848532Y75462918D02*
X92887579Y75541014D01*
X49715651Y69160809D02*
X49442318Y68770333D01*
X49247080Y69160809D02*
X49247080Y68340809D01*
X49247080Y68340809D02*
X49559461Y68340809D01*
X49559461Y68340809D02*
X49637556Y68379857D01*
X49637556Y68379857D02*
X49676603Y68418904D01*
X49676603Y68418904D02*
X49715651Y68497000D01*
X49715651Y68497000D02*
X49715651Y68614142D01*
X49715651Y68614142D02*
X49676603Y68692238D01*
X49676603Y68692238D02*
X49637556Y68731285D01*
X49637556Y68731285D02*
X49559461Y68770333D01*
X49559461Y68770333D02*
X49247080Y68770333D01*
X50496603Y69160809D02*
X50028032Y69160809D01*
X50262318Y69160809D02*
X50262318Y68340809D01*
X50262318Y68340809D02*
X50184222Y68457952D01*
X50184222Y68457952D02*
X50106127Y68536047D01*
X50106127Y68536047D02*
X50028032Y68575095D01*
X51004222Y68340809D02*
X51082317Y68340809D01*
X51082317Y68340809D02*
X51160413Y68379857D01*
X51160413Y68379857D02*
X51199460Y68418904D01*
X51199460Y68418904D02*
X51238508Y68497000D01*
X51238508Y68497000D02*
X51277555Y68653190D01*
X51277555Y68653190D02*
X51277555Y68848428D01*
X51277555Y68848428D02*
X51238508Y69004619D01*
X51238508Y69004619D02*
X51199460Y69082714D01*
X51199460Y69082714D02*
X51160413Y69121761D01*
X51160413Y69121761D02*
X51082317Y69160809D01*
X51082317Y69160809D02*
X51004222Y69160809D01*
X51004222Y69160809D02*
X50926127Y69121761D01*
X50926127Y69121761D02*
X50887079Y69082714D01*
X50887079Y69082714D02*
X50848032Y69004619D01*
X50848032Y69004619D02*
X50808984Y68848428D01*
X50808984Y68848428D02*
X50808984Y68653190D01*
X50808984Y68653190D02*
X50848032Y68497000D01*
X50848032Y68497000D02*
X50887079Y68418904D01*
X50887079Y68418904D02*
X50926127Y68379857D01*
X50926127Y68379857D02*
X51004222Y68340809D01*
X40950508Y69190238D02*
X40130508Y69190238D01*
X40130508Y69190238D02*
X40130508Y68995000D01*
X40130508Y68995000D02*
X40169556Y68877857D01*
X40169556Y68877857D02*
X40247651Y68799762D01*
X40247651Y68799762D02*
X40325746Y68760715D01*
X40325746Y68760715D02*
X40481937Y68721667D01*
X40481937Y68721667D02*
X40599080Y68721667D01*
X40599080Y68721667D02*
X40755270Y68760715D01*
X40755270Y68760715D02*
X40833365Y68799762D01*
X40833365Y68799762D02*
X40911461Y68877857D01*
X40911461Y68877857D02*
X40950508Y68995000D01*
X40950508Y68995000D02*
X40950508Y69190238D01*
X40208603Y68409286D02*
X40169556Y68370238D01*
X40169556Y68370238D02*
X40130508Y68292143D01*
X40130508Y68292143D02*
X40130508Y68096905D01*
X40130508Y68096905D02*
X40169556Y68018810D01*
X40169556Y68018810D02*
X40208603Y67979762D01*
X40208603Y67979762D02*
X40286699Y67940715D01*
X40286699Y67940715D02*
X40364794Y67940715D01*
X40364794Y67940715D02*
X40481937Y67979762D01*
X40481937Y67979762D02*
X40950508Y68448334D01*
X40950508Y68448334D02*
X40950508Y67940715D01*
X118380168Y15616745D02*
X118380168Y16416745D01*
X118380168Y16416745D02*
X118189692Y16416745D01*
X118189692Y16416745D02*
X118075406Y16378650D01*
X118075406Y16378650D02*
X117999216Y16302460D01*
X117999216Y16302460D02*
X117961121Y16226269D01*
X117961121Y16226269D02*
X117923025Y16073888D01*
X117923025Y16073888D02*
X117923025Y15959602D01*
X117923025Y15959602D02*
X117961121Y15807221D01*
X117961121Y15807221D02*
X117999216Y15731031D01*
X117999216Y15731031D02*
X118075406Y15654840D01*
X118075406Y15654840D02*
X118189692Y15616745D01*
X118189692Y15616745D02*
X118380168Y15616745D01*
X117161121Y15616745D02*
X117618264Y15616745D01*
X117389692Y15616745D02*
X117389692Y16416745D01*
X117389692Y16416745D02*
X117465883Y16302460D01*
X117465883Y16302460D02*
X117542073Y16226269D01*
X117542073Y16226269D02*
X117618264Y16188174D01*
X46434348Y57399192D02*
X46707681Y57789668D01*
X46902919Y57399192D02*
X46902919Y58219192D01*
X46902919Y58219192D02*
X46590538Y58219192D01*
X46590538Y58219192D02*
X46512443Y58180144D01*
X46512443Y58180144D02*
X46473396Y58141097D01*
X46473396Y58141097D02*
X46434348Y58063001D01*
X46434348Y58063001D02*
X46434348Y57945859D01*
X46434348Y57945859D02*
X46473396Y57867763D01*
X46473396Y57867763D02*
X46512443Y57828716D01*
X46512443Y57828716D02*
X46590538Y57789668D01*
X46590538Y57789668D02*
X46902919Y57789668D01*
X46161015Y58219192D02*
X45653396Y58219192D01*
X45653396Y58219192D02*
X45926729Y57906811D01*
X45926729Y57906811D02*
X45809586Y57906811D01*
X45809586Y57906811D02*
X45731491Y57867763D01*
X45731491Y57867763D02*
X45692443Y57828716D01*
X45692443Y57828716D02*
X45653396Y57750620D01*
X45653396Y57750620D02*
X45653396Y57555382D01*
X45653396Y57555382D02*
X45692443Y57477287D01*
X45692443Y57477287D02*
X45731491Y57438239D01*
X45731491Y57438239D02*
X45809586Y57399192D01*
X45809586Y57399192D02*
X46043872Y57399192D01*
X46043872Y57399192D02*
X46121967Y57438239D01*
X46121967Y57438239D02*
X46161015Y57477287D01*
X45380063Y58219192D02*
X44872444Y58219192D01*
X44872444Y58219192D02*
X45145777Y57906811D01*
X45145777Y57906811D02*
X45028634Y57906811D01*
X45028634Y57906811D02*
X44950539Y57867763D01*
X44950539Y57867763D02*
X44911491Y57828716D01*
X44911491Y57828716D02*
X44872444Y57750620D01*
X44872444Y57750620D02*
X44872444Y57555382D01*
X44872444Y57555382D02*
X44911491Y57477287D01*
X44911491Y57477287D02*
X44950539Y57438239D01*
X44950539Y57438239D02*
X45028634Y57399192D01*
X45028634Y57399192D02*
X45262920Y57399192D01*
X45262920Y57399192D02*
X45341015Y57438239D01*
X45341015Y57438239D02*
X45380063Y57477287D01*
X82473295Y2134349D02*
X82082819Y2407682D01*
X82473295Y2602920D02*
X81653295Y2602920D01*
X81653295Y2602920D02*
X81653295Y2290539D01*
X81653295Y2290539D02*
X81692343Y2212444D01*
X81692343Y2212444D02*
X81731390Y2173397D01*
X81731390Y2173397D02*
X81809486Y2134349D01*
X81809486Y2134349D02*
X81926628Y2134349D01*
X81926628Y2134349D02*
X82004724Y2173397D01*
X82004724Y2173397D02*
X82043771Y2212444D01*
X82043771Y2212444D02*
X82082819Y2290539D01*
X82082819Y2290539D02*
X82082819Y2602920D01*
X81653295Y1861016D02*
X81653295Y1314349D01*
X81653295Y1314349D02*
X82473295Y1665778D01*
X94895199Y76634348D02*
X94934247Y76673396D01*
X94934247Y76673396D02*
X94973294Y76790539D01*
X94973294Y76790539D02*
X94973294Y76868634D01*
X94973294Y76868634D02*
X94934247Y76985777D01*
X94934247Y76985777D02*
X94856151Y77063872D01*
X94856151Y77063872D02*
X94778056Y77102920D01*
X94778056Y77102920D02*
X94621865Y77141968D01*
X94621865Y77141968D02*
X94504722Y77141968D01*
X94504722Y77141968D02*
X94348532Y77102920D01*
X94348532Y77102920D02*
X94270436Y77063872D01*
X94270436Y77063872D02*
X94192341Y76985777D01*
X94192341Y76985777D02*
X94153293Y76868634D01*
X94153293Y76868634D02*
X94153293Y76790539D01*
X94153293Y76790539D02*
X94192341Y76673396D01*
X94192341Y76673396D02*
X94231389Y76634348D01*
X94153293Y76361014D02*
X94153293Y75853395D01*
X94153293Y75853395D02*
X94465675Y76126728D01*
X94465675Y76126728D02*
X94465675Y76009585D01*
X94465675Y76009585D02*
X94504722Y75931490D01*
X94504722Y75931490D02*
X94543770Y75892442D01*
X94543770Y75892442D02*
X94621865Y75853395D01*
X94621865Y75853395D02*
X94817104Y75853395D01*
X94817104Y75853395D02*
X94895199Y75892442D01*
X94895199Y75892442D02*
X94934247Y75931490D01*
X94934247Y75931490D02*
X94973294Y76009585D01*
X94973294Y76009585D02*
X94973294Y76243871D01*
X94973294Y76243871D02*
X94934247Y76321967D01*
X94934247Y76321967D02*
X94895199Y76361014D01*
X94231389Y75541014D02*
X94192341Y75501966D01*
X94192341Y75501966D02*
X94153293Y75423871D01*
X94153293Y75423871D02*
X94153293Y75228632D01*
X94153293Y75228632D02*
X94192341Y75150537D01*
X94192341Y75150537D02*
X94231389Y75111489D01*
X94231389Y75111489D02*
X94309484Y75072442D01*
X94309484Y75072442D02*
X94387579Y75072442D01*
X94387579Y75072442D02*
X94504722Y75111489D01*
X94504722Y75111489D02*
X94973294Y75580061D01*
X94973294Y75580061D02*
X94973294Y75072442D01*
X39823295Y90384349D02*
X39432819Y90657682D01*
X39823295Y90852920D02*
X39003295Y90852920D01*
X39003295Y90852920D02*
X39003295Y90540539D01*
X39003295Y90540539D02*
X39042343Y90462444D01*
X39042343Y90462444D02*
X39081390Y90423397D01*
X39081390Y90423397D02*
X39159486Y90384349D01*
X39159486Y90384349D02*
X39276628Y90384349D01*
X39276628Y90384349D02*
X39354724Y90423397D01*
X39354724Y90423397D02*
X39393771Y90462444D01*
X39393771Y90462444D02*
X39432819Y90540539D01*
X39432819Y90540539D02*
X39432819Y90852920D01*
X39823295Y89603397D02*
X39823295Y90071968D01*
X39823295Y89837682D02*
X39003295Y89837682D01*
X39003295Y89837682D02*
X39120438Y89915778D01*
X39120438Y89915778D02*
X39198533Y89993873D01*
X39198533Y89993873D02*
X39237581Y90071968D01*
X39003295Y88900540D02*
X39003295Y89056730D01*
X39003295Y89056730D02*
X39042343Y89134826D01*
X39042343Y89134826D02*
X39081390Y89173873D01*
X39081390Y89173873D02*
X39198533Y89251968D01*
X39198533Y89251968D02*
X39354724Y89291016D01*
X39354724Y89291016D02*
X39667105Y89291016D01*
X39667105Y89291016D02*
X39745200Y89251968D01*
X39745200Y89251968D02*
X39784248Y89212921D01*
X39784248Y89212921D02*
X39823295Y89134826D01*
X39823295Y89134826D02*
X39823295Y88978635D01*
X39823295Y88978635D02*
X39784248Y88900540D01*
X39784248Y88900540D02*
X39745200Y88861492D01*
X39745200Y88861492D02*
X39667105Y88822445D01*
X39667105Y88822445D02*
X39471867Y88822445D01*
X39471867Y88822445D02*
X39393771Y88861492D01*
X39393771Y88861492D02*
X39354724Y88900540D01*
X39354724Y88900540D02*
X39315676Y88978635D01*
X39315676Y88978635D02*
X39315676Y89134826D01*
X39315676Y89134826D02*
X39354724Y89212921D01*
X39354724Y89212921D02*
X39393771Y89251968D01*
X39393771Y89251968D02*
X39471867Y89291016D01*
D10*
X37061904Y36095181D02*
X37061904Y35285658D01*
X37061904Y35285658D02*
X37014285Y35190420D01*
X37014285Y35190420D02*
X36966666Y35142800D01*
X36966666Y35142800D02*
X36871428Y35095181D01*
X36871428Y35095181D02*
X36680952Y35095181D01*
X36680952Y35095181D02*
X36585714Y35142800D01*
X36585714Y35142800D02*
X36538095Y35190420D01*
X36538095Y35190420D02*
X36490476Y35285658D01*
X36490476Y35285658D02*
X36490476Y36095181D01*
X35966666Y35095181D02*
X35776190Y35095181D01*
X35776190Y35095181D02*
X35680952Y35142800D01*
X35680952Y35142800D02*
X35633333Y35190420D01*
X35633333Y35190420D02*
X35538095Y35333277D01*
X35538095Y35333277D02*
X35490476Y35523753D01*
X35490476Y35523753D02*
X35490476Y35904705D01*
X35490476Y35904705D02*
X35538095Y35999943D01*
X35538095Y35999943D02*
X35585714Y36047562D01*
X35585714Y36047562D02*
X35680952Y36095181D01*
X35680952Y36095181D02*
X35871428Y36095181D01*
X35871428Y36095181D02*
X35966666Y36047562D01*
X35966666Y36047562D02*
X36014285Y35999943D01*
X36014285Y35999943D02*
X36061904Y35904705D01*
X36061904Y35904705D02*
X36061904Y35666610D01*
X36061904Y35666610D02*
X36014285Y35571372D01*
X36014285Y35571372D02*
X35966666Y35523753D01*
X35966666Y35523753D02*
X35871428Y35476134D01*
X35871428Y35476134D02*
X35680952Y35476134D01*
X35680952Y35476134D02*
X35585714Y35523753D01*
X35585714Y35523753D02*
X35538095Y35571372D01*
X35538095Y35571372D02*
X35490476Y35666610D01*
D12*
X35824348Y35199192D02*
X36097681Y35589668D01*
X36292919Y35199192D02*
X36292919Y36019192D01*
X36292919Y36019192D02*
X35980538Y36019192D01*
X35980538Y36019192D02*
X35902443Y35980144D01*
X35902443Y35980144D02*
X35863396Y35941097D01*
X35863396Y35941097D02*
X35824348Y35863001D01*
X35824348Y35863001D02*
X35824348Y35745859D01*
X35824348Y35745859D02*
X35863396Y35667763D01*
X35863396Y35667763D02*
X35902443Y35628716D01*
X35902443Y35628716D02*
X35980538Y35589668D01*
X35980538Y35589668D02*
X36292919Y35589668D01*
X35551015Y36019192D02*
X35043396Y36019192D01*
X35043396Y36019192D02*
X35316729Y35706811D01*
X35316729Y35706811D02*
X35199586Y35706811D01*
X35199586Y35706811D02*
X35121491Y35667763D01*
X35121491Y35667763D02*
X35082443Y35628716D01*
X35082443Y35628716D02*
X35043396Y35550620D01*
X35043396Y35550620D02*
X35043396Y35355382D01*
X35043396Y35355382D02*
X35082443Y35277287D01*
X35082443Y35277287D02*
X35121491Y35238239D01*
X35121491Y35238239D02*
X35199586Y35199192D01*
X35199586Y35199192D02*
X35433872Y35199192D01*
X35433872Y35199192D02*
X35511967Y35238239D01*
X35511967Y35238239D02*
X35551015Y35277287D01*
X34535777Y36019192D02*
X34457682Y36019192D01*
X34457682Y36019192D02*
X34379586Y35980144D01*
X34379586Y35980144D02*
X34340539Y35941097D01*
X34340539Y35941097D02*
X34301491Y35863001D01*
X34301491Y35863001D02*
X34262444Y35706811D01*
X34262444Y35706811D02*
X34262444Y35511573D01*
X34262444Y35511573D02*
X34301491Y35355382D01*
X34301491Y35355382D02*
X34340539Y35277287D01*
X34340539Y35277287D02*
X34379586Y35238239D01*
X34379586Y35238239D02*
X34457682Y35199192D01*
X34457682Y35199192D02*
X34535777Y35199192D01*
X34535777Y35199192D02*
X34613872Y35238239D01*
X34613872Y35238239D02*
X34652920Y35277287D01*
X34652920Y35277287D02*
X34691967Y35355382D01*
X34691967Y35355382D02*
X34731015Y35511573D01*
X34731015Y35511573D02*
X34731015Y35706811D01*
X34731015Y35706811D02*
X34691967Y35863001D01*
X34691967Y35863001D02*
X34652920Y35941097D01*
X34652920Y35941097D02*
X34613872Y35980144D01*
X34613872Y35980144D02*
X34535777Y36019192D01*
D10*
X88137306Y87676667D02*
X88137306Y88152857D01*
X88137306Y88152857D02*
X87137306Y88152857D01*
X87232544Y87390952D02*
X87184925Y87343333D01*
X87184925Y87343333D02*
X87137306Y87248095D01*
X87137306Y87248095D02*
X87137306Y87010000D01*
X87137306Y87010000D02*
X87184925Y86914762D01*
X87184925Y86914762D02*
X87232544Y86867143D01*
X87232544Y86867143D02*
X87327782Y86819524D01*
X87327782Y86819524D02*
X87423020Y86819524D01*
X87423020Y86819524D02*
X87565877Y86867143D01*
X87565877Y86867143D02*
X88137306Y87438571D01*
X88137306Y87438571D02*
X88137306Y86819524D01*
D12*
X85073295Y2234349D02*
X84682819Y2507682D01*
X85073295Y2702920D02*
X84253295Y2702920D01*
X84253295Y2702920D02*
X84253295Y2390539D01*
X84253295Y2390539D02*
X84292343Y2312444D01*
X84292343Y2312444D02*
X84331390Y2273397D01*
X84331390Y2273397D02*
X84409486Y2234349D01*
X84409486Y2234349D02*
X84526628Y2234349D01*
X84526628Y2234349D02*
X84604724Y2273397D01*
X84604724Y2273397D02*
X84643771Y2312444D01*
X84643771Y2312444D02*
X84682819Y2390539D01*
X84682819Y2390539D02*
X84682819Y2702920D01*
X84604724Y1765778D02*
X84565676Y1843873D01*
X84565676Y1843873D02*
X84526628Y1882920D01*
X84526628Y1882920D02*
X84448533Y1921968D01*
X84448533Y1921968D02*
X84409486Y1921968D01*
X84409486Y1921968D02*
X84331390Y1882920D01*
X84331390Y1882920D02*
X84292343Y1843873D01*
X84292343Y1843873D02*
X84253295Y1765778D01*
X84253295Y1765778D02*
X84253295Y1609587D01*
X84253295Y1609587D02*
X84292343Y1531492D01*
X84292343Y1531492D02*
X84331390Y1492444D01*
X84331390Y1492444D02*
X84409486Y1453397D01*
X84409486Y1453397D02*
X84448533Y1453397D01*
X84448533Y1453397D02*
X84526628Y1492444D01*
X84526628Y1492444D02*
X84565676Y1531492D01*
X84565676Y1531492D02*
X84604724Y1609587D01*
X84604724Y1609587D02*
X84604724Y1765778D01*
X84604724Y1765778D02*
X84643771Y1843873D01*
X84643771Y1843873D02*
X84682819Y1882920D01*
X84682819Y1882920D02*
X84760914Y1921968D01*
X84760914Y1921968D02*
X84917105Y1921968D01*
X84917105Y1921968D02*
X84995200Y1882920D01*
X84995200Y1882920D02*
X85034248Y1843873D01*
X85034248Y1843873D02*
X85073295Y1765778D01*
X85073295Y1765778D02*
X85073295Y1609587D01*
X85073295Y1609587D02*
X85034248Y1531492D01*
X85034248Y1531492D02*
X84995200Y1492444D01*
X84995200Y1492444D02*
X84917105Y1453397D01*
X84917105Y1453397D02*
X84760914Y1453397D01*
X84760914Y1453397D02*
X84682819Y1492444D01*
X84682819Y1492444D02*
X84643771Y1531492D01*
X84643771Y1531492D02*
X84604724Y1609587D01*
X48373295Y18134349D02*
X47982819Y18407682D01*
X48373295Y18602920D02*
X47553295Y18602920D01*
X47553295Y18602920D02*
X47553295Y18290539D01*
X47553295Y18290539D02*
X47592343Y18212444D01*
X47592343Y18212444D02*
X47631390Y18173397D01*
X47631390Y18173397D02*
X47709486Y18134349D01*
X47709486Y18134349D02*
X47826628Y18134349D01*
X47826628Y18134349D02*
X47904724Y18173397D01*
X47904724Y18173397D02*
X47943771Y18212444D01*
X47943771Y18212444D02*
X47982819Y18290539D01*
X47982819Y18290539D02*
X47982819Y18602920D01*
X47553295Y17861016D02*
X47553295Y17353397D01*
X47553295Y17353397D02*
X47865676Y17626730D01*
X47865676Y17626730D02*
X47865676Y17509587D01*
X47865676Y17509587D02*
X47904724Y17431492D01*
X47904724Y17431492D02*
X47943771Y17392444D01*
X47943771Y17392444D02*
X48021867Y17353397D01*
X48021867Y17353397D02*
X48217105Y17353397D01*
X48217105Y17353397D02*
X48295200Y17392444D01*
X48295200Y17392444D02*
X48334248Y17431492D01*
X48334248Y17431492D02*
X48373295Y17509587D01*
X48373295Y17509587D02*
X48373295Y17743873D01*
X48373295Y17743873D02*
X48334248Y17821968D01*
X48334248Y17821968D02*
X48295200Y17861016D01*
X37373295Y90384349D02*
X36982819Y90657682D01*
X37373295Y90852920D02*
X36553295Y90852920D01*
X36553295Y90852920D02*
X36553295Y90540539D01*
X36553295Y90540539D02*
X36592343Y90462444D01*
X36592343Y90462444D02*
X36631390Y90423397D01*
X36631390Y90423397D02*
X36709486Y90384349D01*
X36709486Y90384349D02*
X36826628Y90384349D01*
X36826628Y90384349D02*
X36904724Y90423397D01*
X36904724Y90423397D02*
X36943771Y90462444D01*
X36943771Y90462444D02*
X36982819Y90540539D01*
X36982819Y90540539D02*
X36982819Y90852920D01*
X37373295Y89603397D02*
X37373295Y90071968D01*
X37373295Y89837682D02*
X36553295Y89837682D01*
X36553295Y89837682D02*
X36670438Y89915778D01*
X36670438Y89915778D02*
X36748533Y89993873D01*
X36748533Y89993873D02*
X36787581Y90071968D01*
X36553295Y88861492D02*
X36553295Y89251968D01*
X36553295Y89251968D02*
X36943771Y89291016D01*
X36943771Y89291016D02*
X36904724Y89251968D01*
X36904724Y89251968D02*
X36865676Y89173873D01*
X36865676Y89173873D02*
X36865676Y88978635D01*
X36865676Y88978635D02*
X36904724Y88900540D01*
X36904724Y88900540D02*
X36943771Y88861492D01*
X36943771Y88861492D02*
X37021867Y88822445D01*
X37021867Y88822445D02*
X37217105Y88822445D01*
X37217105Y88822445D02*
X37295200Y88861492D01*
X37295200Y88861492D02*
X37334248Y88900540D01*
X37334248Y88900540D02*
X37373295Y88978635D01*
X37373295Y88978635D02*
X37373295Y89173873D01*
X37373295Y89173873D02*
X37334248Y89251968D01*
X37334248Y89251968D02*
X37295200Y89291016D01*
X49059191Y24425652D02*
X49449667Y24152319D01*
X49059191Y23957081D02*
X49879191Y23957081D01*
X49879191Y23957081D02*
X49879191Y24269462D01*
X49879191Y24269462D02*
X49840143Y24347557D01*
X49840143Y24347557D02*
X49801096Y24386604D01*
X49801096Y24386604D02*
X49723000Y24425652D01*
X49723000Y24425652D02*
X49605858Y24425652D01*
X49605858Y24425652D02*
X49527762Y24386604D01*
X49527762Y24386604D02*
X49488715Y24347557D01*
X49488715Y24347557D02*
X49449667Y24269462D01*
X49449667Y24269462D02*
X49449667Y23957081D01*
X49059191Y25206604D02*
X49059191Y24738033D01*
X49059191Y24972319D02*
X49879191Y24972319D01*
X49879191Y24972319D02*
X49762048Y24894223D01*
X49762048Y24894223D02*
X49683953Y24816128D01*
X49683953Y24816128D02*
X49644905Y24738033D01*
X49879191Y25479937D02*
X49879191Y25987556D01*
X49879191Y25987556D02*
X49566810Y25714223D01*
X49566810Y25714223D02*
X49566810Y25831366D01*
X49566810Y25831366D02*
X49527762Y25909461D01*
X49527762Y25909461D02*
X49488715Y25948509D01*
X49488715Y25948509D02*
X49410619Y25987556D01*
X49410619Y25987556D02*
X49215381Y25987556D01*
X49215381Y25987556D02*
X49137286Y25948509D01*
X49137286Y25948509D02*
X49098239Y25909461D01*
X49098239Y25909461D02*
X49059191Y25831366D01*
X49059191Y25831366D02*
X49059191Y25597080D01*
X49059191Y25597080D02*
X49098239Y25518985D01*
X49098239Y25518985D02*
X49137286Y25479937D01*
X42554348Y61389192D02*
X42827681Y61779668D01*
X43022919Y61389192D02*
X43022919Y62209192D01*
X43022919Y62209192D02*
X42710538Y62209192D01*
X42710538Y62209192D02*
X42632443Y62170144D01*
X42632443Y62170144D02*
X42593396Y62131097D01*
X42593396Y62131097D02*
X42554348Y62053001D01*
X42554348Y62053001D02*
X42554348Y61935859D01*
X42554348Y61935859D02*
X42593396Y61857763D01*
X42593396Y61857763D02*
X42632443Y61818716D01*
X42632443Y61818716D02*
X42710538Y61779668D01*
X42710538Y61779668D02*
X43022919Y61779668D01*
X41773396Y61389192D02*
X42241967Y61389192D01*
X42007681Y61389192D02*
X42007681Y62209192D01*
X42007681Y62209192D02*
X42085777Y62092049D01*
X42085777Y62092049D02*
X42163872Y62013954D01*
X42163872Y62013954D02*
X42241967Y61974906D01*
X40992444Y61389192D02*
X41461015Y61389192D01*
X41226729Y61389192D02*
X41226729Y62209192D01*
X41226729Y62209192D02*
X41304825Y62092049D01*
X41304825Y62092049D02*
X41382920Y62013954D01*
X41382920Y62013954D02*
X41461015Y61974906D01*
X41080508Y63235238D02*
X40260508Y63235238D01*
X40260508Y63235238D02*
X40260508Y63040000D01*
X40260508Y63040000D02*
X40299556Y62922857D01*
X40299556Y62922857D02*
X40377651Y62844762D01*
X40377651Y62844762D02*
X40455746Y62805715D01*
X40455746Y62805715D02*
X40611937Y62766667D01*
X40611937Y62766667D02*
X40729080Y62766667D01*
X40729080Y62766667D02*
X40885270Y62805715D01*
X40885270Y62805715D02*
X40963365Y62844762D01*
X40963365Y62844762D02*
X41041461Y62922857D01*
X41041461Y62922857D02*
X41080508Y63040000D01*
X41080508Y63040000D02*
X41080508Y63235238D01*
X40260508Y62493334D02*
X40260508Y61985715D01*
X40260508Y61985715D02*
X40572889Y62259048D01*
X40572889Y62259048D02*
X40572889Y62141905D01*
X40572889Y62141905D02*
X40611937Y62063810D01*
X40611937Y62063810D02*
X40650984Y62024762D01*
X40650984Y62024762D02*
X40729080Y61985715D01*
X40729080Y61985715D02*
X40924318Y61985715D01*
X40924318Y61985715D02*
X41002413Y62024762D01*
X41002413Y62024762D02*
X41041461Y62063810D01*
X41041461Y62063810D02*
X41080508Y62141905D01*
X41080508Y62141905D02*
X41080508Y62376191D01*
X41080508Y62376191D02*
X41041461Y62454286D01*
X41041461Y62454286D02*
X41002413Y62493334D01*
X39695651Y44610809D02*
X39422318Y44220333D01*
X39227080Y44610809D02*
X39227080Y43790809D01*
X39227080Y43790809D02*
X39539461Y43790809D01*
X39539461Y43790809D02*
X39617556Y43829857D01*
X39617556Y43829857D02*
X39656603Y43868904D01*
X39656603Y43868904D02*
X39695651Y43947000D01*
X39695651Y43947000D02*
X39695651Y44064142D01*
X39695651Y44064142D02*
X39656603Y44142238D01*
X39656603Y44142238D02*
X39617556Y44181285D01*
X39617556Y44181285D02*
X39539461Y44220333D01*
X39539461Y44220333D02*
X39227080Y44220333D01*
X39968984Y43790809D02*
X40476603Y43790809D01*
X40476603Y43790809D02*
X40203270Y44103190D01*
X40203270Y44103190D02*
X40320413Y44103190D01*
X40320413Y44103190D02*
X40398508Y44142238D01*
X40398508Y44142238D02*
X40437556Y44181285D01*
X40437556Y44181285D02*
X40476603Y44259381D01*
X40476603Y44259381D02*
X40476603Y44454619D01*
X40476603Y44454619D02*
X40437556Y44532714D01*
X40437556Y44532714D02*
X40398508Y44571761D01*
X40398508Y44571761D02*
X40320413Y44610809D01*
X40320413Y44610809D02*
X40086127Y44610809D01*
X40086127Y44610809D02*
X40008032Y44571761D01*
X40008032Y44571761D02*
X39968984Y44532714D01*
X40788984Y43868904D02*
X40828032Y43829857D01*
X40828032Y43829857D02*
X40906127Y43790809D01*
X40906127Y43790809D02*
X41101365Y43790809D01*
X41101365Y43790809D02*
X41179460Y43829857D01*
X41179460Y43829857D02*
X41218508Y43868904D01*
X41218508Y43868904D02*
X41257555Y43947000D01*
X41257555Y43947000D02*
X41257555Y44025095D01*
X41257555Y44025095D02*
X41218508Y44142238D01*
X41218508Y44142238D02*
X40749936Y44610809D01*
X40749936Y44610809D02*
X41257555Y44610809D01*
X86006834Y81097288D02*
X86045882Y81058240D01*
X86045882Y81058240D02*
X86163025Y81019193D01*
X86163025Y81019193D02*
X86241120Y81019193D01*
X86241120Y81019193D02*
X86358263Y81058240D01*
X86358263Y81058240D02*
X86436359Y81136336D01*
X86436359Y81136336D02*
X86475406Y81214431D01*
X86475406Y81214431D02*
X86514454Y81370622D01*
X86514454Y81370622D02*
X86514454Y81487765D01*
X86514454Y81487765D02*
X86475406Y81643955D01*
X86475406Y81643955D02*
X86436359Y81722051D01*
X86436359Y81722051D02*
X86358263Y81800146D01*
X86358263Y81800146D02*
X86241120Y81839194D01*
X86241120Y81839194D02*
X86163025Y81839194D01*
X86163025Y81839194D02*
X86045882Y81800146D01*
X86045882Y81800146D02*
X86006834Y81761098D01*
X85694453Y81761098D02*
X85655405Y81800146D01*
X85655405Y81800146D02*
X85577310Y81839194D01*
X85577310Y81839194D02*
X85382072Y81839194D01*
X85382072Y81839194D02*
X85303976Y81800146D01*
X85303976Y81800146D02*
X85264929Y81761098D01*
X85264929Y81761098D02*
X85225881Y81683003D01*
X85225881Y81683003D02*
X85225881Y81604908D01*
X85225881Y81604908D02*
X85264929Y81487765D01*
X85264929Y81487765D02*
X85733501Y81019193D01*
X85733501Y81019193D02*
X85225881Y81019193D01*
X84757309Y81487765D02*
X84835405Y81526812D01*
X84835405Y81526812D02*
X84874452Y81565860D01*
X84874452Y81565860D02*
X84913500Y81643955D01*
X84913500Y81643955D02*
X84913500Y81683003D01*
X84913500Y81683003D02*
X84874452Y81761098D01*
X84874452Y81761098D02*
X84835405Y81800146D01*
X84835405Y81800146D02*
X84757309Y81839194D01*
X84757309Y81839194D02*
X84601119Y81839194D01*
X84601119Y81839194D02*
X84523023Y81800146D01*
X84523023Y81800146D02*
X84483976Y81761098D01*
X84483976Y81761098D02*
X84444928Y81683003D01*
X84444928Y81683003D02*
X84444928Y81643955D01*
X84444928Y81643955D02*
X84483976Y81565860D01*
X84483976Y81565860D02*
X84523023Y81526812D01*
X84523023Y81526812D02*
X84601119Y81487765D01*
X84601119Y81487765D02*
X84757309Y81487765D01*
X84757309Y81487765D02*
X84835405Y81448717D01*
X84835405Y81448717D02*
X84874452Y81409669D01*
X84874452Y81409669D02*
X84913500Y81331574D01*
X84913500Y81331574D02*
X84913500Y81175383D01*
X84913500Y81175383D02*
X84874452Y81097288D01*
X84874452Y81097288D02*
X84835405Y81058240D01*
X84835405Y81058240D02*
X84757309Y81019193D01*
X84757309Y81019193D02*
X84601119Y81019193D01*
X84601119Y81019193D02*
X84523023Y81058240D01*
X84523023Y81058240D02*
X84483976Y81097288D01*
X84483976Y81097288D02*
X84444928Y81175383D01*
X84444928Y81175383D02*
X84444928Y81331574D01*
X84444928Y81331574D02*
X84483976Y81409669D01*
X84483976Y81409669D02*
X84523023Y81448717D01*
X84523023Y81448717D02*
X84601119Y81487765D01*
D10*
X33672306Y85046905D02*
X34481829Y85046905D01*
X34481829Y85046905D02*
X34577067Y84999286D01*
X34577067Y84999286D02*
X34624687Y84951667D01*
X34624687Y84951667D02*
X34672306Y84856429D01*
X34672306Y84856429D02*
X34672306Y84665953D01*
X34672306Y84665953D02*
X34624687Y84570715D01*
X34624687Y84570715D02*
X34577067Y84523096D01*
X34577067Y84523096D02*
X34481829Y84475477D01*
X34481829Y84475477D02*
X33672306Y84475477D01*
X33672306Y83570715D02*
X33672306Y83761191D01*
X33672306Y83761191D02*
X33719925Y83856429D01*
X33719925Y83856429D02*
X33767544Y83904048D01*
X33767544Y83904048D02*
X33910401Y83999286D01*
X33910401Y83999286D02*
X34100877Y84046905D01*
X34100877Y84046905D02*
X34481829Y84046905D01*
X34481829Y84046905D02*
X34577067Y83999286D01*
X34577067Y83999286D02*
X34624687Y83951667D01*
X34624687Y83951667D02*
X34672306Y83856429D01*
X34672306Y83856429D02*
X34672306Y83665953D01*
X34672306Y83665953D02*
X34624687Y83570715D01*
X34624687Y83570715D02*
X34577067Y83523096D01*
X34577067Y83523096D02*
X34481829Y83475477D01*
X34481829Y83475477D02*
X34243734Y83475477D01*
X34243734Y83475477D02*
X34148496Y83523096D01*
X34148496Y83523096D02*
X34100877Y83570715D01*
X34100877Y83570715D02*
X34053258Y83665953D01*
X34053258Y83665953D02*
X34053258Y83856429D01*
X34053258Y83856429D02*
X34100877Y83951667D01*
X34100877Y83951667D02*
X34148496Y83999286D01*
X34148496Y83999286D02*
X34243734Y84046905D01*
D12*
X43175651Y42910809D02*
X42902318Y42520333D01*
X42707080Y42910809D02*
X42707080Y42090809D01*
X42707080Y42090809D02*
X43019461Y42090809D01*
X43019461Y42090809D02*
X43097556Y42129857D01*
X43097556Y42129857D02*
X43136603Y42168904D01*
X43136603Y42168904D02*
X43175651Y42247000D01*
X43175651Y42247000D02*
X43175651Y42364142D01*
X43175651Y42364142D02*
X43136603Y42442238D01*
X43136603Y42442238D02*
X43097556Y42481285D01*
X43097556Y42481285D02*
X43019461Y42520333D01*
X43019461Y42520333D02*
X42707080Y42520333D01*
X43488032Y42168904D02*
X43527080Y42129857D01*
X43527080Y42129857D02*
X43605175Y42090809D01*
X43605175Y42090809D02*
X43800413Y42090809D01*
X43800413Y42090809D02*
X43878508Y42129857D01*
X43878508Y42129857D02*
X43917556Y42168904D01*
X43917556Y42168904D02*
X43956603Y42247000D01*
X43956603Y42247000D02*
X43956603Y42325095D01*
X43956603Y42325095D02*
X43917556Y42442238D01*
X43917556Y42442238D02*
X43448984Y42910809D01*
X43448984Y42910809D02*
X43956603Y42910809D01*
X44347079Y42910809D02*
X44503270Y42910809D01*
X44503270Y42910809D02*
X44581365Y42871761D01*
X44581365Y42871761D02*
X44620413Y42832714D01*
X44620413Y42832714D02*
X44698508Y42715571D01*
X44698508Y42715571D02*
X44737555Y42559381D01*
X44737555Y42559381D02*
X44737555Y42247000D01*
X44737555Y42247000D02*
X44698508Y42168904D01*
X44698508Y42168904D02*
X44659460Y42129857D01*
X44659460Y42129857D02*
X44581365Y42090809D01*
X44581365Y42090809D02*
X44425174Y42090809D01*
X44425174Y42090809D02*
X44347079Y42129857D01*
X44347079Y42129857D02*
X44308032Y42168904D01*
X44308032Y42168904D02*
X44268984Y42247000D01*
X44268984Y42247000D02*
X44268984Y42442238D01*
X44268984Y42442238D02*
X44308032Y42520333D01*
X44308032Y42520333D02*
X44347079Y42559381D01*
X44347079Y42559381D02*
X44425174Y42598428D01*
X44425174Y42598428D02*
X44581365Y42598428D01*
X44581365Y42598428D02*
X44659460Y42559381D01*
X44659460Y42559381D02*
X44698508Y42520333D01*
X44698508Y42520333D02*
X44737555Y42442238D01*
D10*
X90137306Y87676667D02*
X90137306Y88152857D01*
X90137306Y88152857D02*
X89137306Y88152857D01*
X90137306Y86819524D02*
X90137306Y87390952D01*
X90137306Y87105238D02*
X89137306Y87105238D01*
X89137306Y87105238D02*
X89280163Y87200476D01*
X89280163Y87200476D02*
X89375401Y87295714D01*
X89375401Y87295714D02*
X89423020Y87390952D01*
D12*
X36770237Y30579492D02*
X36770237Y31399492D01*
X36770237Y31399492D02*
X36574999Y31399492D01*
X36574999Y31399492D02*
X36457856Y31360444D01*
X36457856Y31360444D02*
X36379761Y31282349D01*
X36379761Y31282349D02*
X36340714Y31204254D01*
X36340714Y31204254D02*
X36301666Y31048063D01*
X36301666Y31048063D02*
X36301666Y30930920D01*
X36301666Y30930920D02*
X36340714Y30774730D01*
X36340714Y30774730D02*
X36379761Y30696635D01*
X36379761Y30696635D02*
X36457856Y30618539D01*
X36457856Y30618539D02*
X36574999Y30579492D01*
X36574999Y30579492D02*
X36770237Y30579492D01*
X35559761Y31399492D02*
X35950237Y31399492D01*
X35950237Y31399492D02*
X35989285Y31009016D01*
X35989285Y31009016D02*
X35950237Y31048063D01*
X35950237Y31048063D02*
X35872142Y31087111D01*
X35872142Y31087111D02*
X35676904Y31087111D01*
X35676904Y31087111D02*
X35598809Y31048063D01*
X35598809Y31048063D02*
X35559761Y31009016D01*
X35559761Y31009016D02*
X35520714Y30930920D01*
X35520714Y30930920D02*
X35520714Y30735682D01*
X35520714Y30735682D02*
X35559761Y30657587D01*
X35559761Y30657587D02*
X35598809Y30618539D01*
X35598809Y30618539D02*
X35676904Y30579492D01*
X35676904Y30579492D02*
X35872142Y30579492D01*
X35872142Y30579492D02*
X35950237Y30618539D01*
X35950237Y30618539D02*
X35989285Y30657587D01*
X49890808Y33924349D02*
X49500332Y34197682D01*
X49890808Y34392920D02*
X49070808Y34392920D01*
X49070808Y34392920D02*
X49070808Y34080539D01*
X49070808Y34080539D02*
X49109856Y34002444D01*
X49109856Y34002444D02*
X49148903Y33963397D01*
X49148903Y33963397D02*
X49226999Y33924349D01*
X49226999Y33924349D02*
X49344141Y33924349D01*
X49344141Y33924349D02*
X49422237Y33963397D01*
X49422237Y33963397D02*
X49461284Y34002444D01*
X49461284Y34002444D02*
X49500332Y34080539D01*
X49500332Y34080539D02*
X49500332Y34392920D01*
X49890808Y33143397D02*
X49890808Y33611968D01*
X49890808Y33377682D02*
X49070808Y33377682D01*
X49070808Y33377682D02*
X49187951Y33455778D01*
X49187951Y33455778D02*
X49266046Y33533873D01*
X49266046Y33533873D02*
X49305094Y33611968D01*
X49148903Y32831016D02*
X49109856Y32791968D01*
X49109856Y32791968D02*
X49070808Y32713873D01*
X49070808Y32713873D02*
X49070808Y32518635D01*
X49070808Y32518635D02*
X49109856Y32440540D01*
X49109856Y32440540D02*
X49148903Y32401492D01*
X49148903Y32401492D02*
X49226999Y32362445D01*
X49226999Y32362445D02*
X49305094Y32362445D01*
X49305094Y32362445D02*
X49422237Y32401492D01*
X49422237Y32401492D02*
X49890808Y32870064D01*
X49890808Y32870064D02*
X49890808Y32362445D01*
X89273295Y61934349D02*
X88882819Y62207682D01*
X89273295Y62402920D02*
X88453295Y62402920D01*
X88453295Y62402920D02*
X88453295Y62090539D01*
X88453295Y62090539D02*
X88492343Y62012444D01*
X88492343Y62012444D02*
X88531390Y61973397D01*
X88531390Y61973397D02*
X88609486Y61934349D01*
X88609486Y61934349D02*
X88726628Y61934349D01*
X88726628Y61934349D02*
X88804724Y61973397D01*
X88804724Y61973397D02*
X88843771Y62012444D01*
X88843771Y62012444D02*
X88882819Y62090539D01*
X88882819Y62090539D02*
X88882819Y62402920D01*
X88453295Y61192444D02*
X88453295Y61582920D01*
X88453295Y61582920D02*
X88843771Y61621968D01*
X88843771Y61621968D02*
X88804724Y61582920D01*
X88804724Y61582920D02*
X88765676Y61504825D01*
X88765676Y61504825D02*
X88765676Y61309587D01*
X88765676Y61309587D02*
X88804724Y61231492D01*
X88804724Y61231492D02*
X88843771Y61192444D01*
X88843771Y61192444D02*
X88921867Y61153397D01*
X88921867Y61153397D02*
X89117105Y61153397D01*
X89117105Y61153397D02*
X89195200Y61192444D01*
X89195200Y61192444D02*
X89234248Y61231492D01*
X89234248Y61231492D02*
X89273295Y61309587D01*
X89273295Y61309587D02*
X89273295Y61504825D01*
X89273295Y61504825D02*
X89234248Y61582920D01*
X89234248Y61582920D02*
X89195200Y61621968D01*
X109873295Y70734349D02*
X109482819Y71007682D01*
X109873295Y71202920D02*
X109053295Y71202920D01*
X109053295Y71202920D02*
X109053295Y70890539D01*
X109053295Y70890539D02*
X109092343Y70812444D01*
X109092343Y70812444D02*
X109131390Y70773397D01*
X109131390Y70773397D02*
X109209486Y70734349D01*
X109209486Y70734349D02*
X109326628Y70734349D01*
X109326628Y70734349D02*
X109404724Y70773397D01*
X109404724Y70773397D02*
X109443771Y70812444D01*
X109443771Y70812444D02*
X109482819Y70890539D01*
X109482819Y70890539D02*
X109482819Y71202920D01*
X109053295Y70031492D02*
X109053295Y70187682D01*
X109053295Y70187682D02*
X109092343Y70265778D01*
X109092343Y70265778D02*
X109131390Y70304825D01*
X109131390Y70304825D02*
X109248533Y70382920D01*
X109248533Y70382920D02*
X109404724Y70421968D01*
X109404724Y70421968D02*
X109717105Y70421968D01*
X109717105Y70421968D02*
X109795200Y70382920D01*
X109795200Y70382920D02*
X109834248Y70343873D01*
X109834248Y70343873D02*
X109873295Y70265778D01*
X109873295Y70265778D02*
X109873295Y70109587D01*
X109873295Y70109587D02*
X109834248Y70031492D01*
X109834248Y70031492D02*
X109795200Y69992444D01*
X109795200Y69992444D02*
X109717105Y69953397D01*
X109717105Y69953397D02*
X109521867Y69953397D01*
X109521867Y69953397D02*
X109443771Y69992444D01*
X109443771Y69992444D02*
X109404724Y70031492D01*
X109404724Y70031492D02*
X109365676Y70109587D01*
X109365676Y70109587D02*
X109365676Y70265778D01*
X109365676Y70265778D02*
X109404724Y70343873D01*
X109404724Y70343873D02*
X109443771Y70382920D01*
X109443771Y70382920D02*
X109521867Y70421968D01*
X48373295Y21134349D02*
X47982819Y21407682D01*
X48373295Y21602920D02*
X47553295Y21602920D01*
X47553295Y21602920D02*
X47553295Y21290539D01*
X47553295Y21290539D02*
X47592343Y21212444D01*
X47592343Y21212444D02*
X47631390Y21173397D01*
X47631390Y21173397D02*
X47709486Y21134349D01*
X47709486Y21134349D02*
X47826628Y21134349D01*
X47826628Y21134349D02*
X47904724Y21173397D01*
X47904724Y21173397D02*
X47943771Y21212444D01*
X47943771Y21212444D02*
X47982819Y21290539D01*
X47982819Y21290539D02*
X47982819Y21602920D01*
X47631390Y20821968D02*
X47592343Y20782920D01*
X47592343Y20782920D02*
X47553295Y20704825D01*
X47553295Y20704825D02*
X47553295Y20509587D01*
X47553295Y20509587D02*
X47592343Y20431492D01*
X47592343Y20431492D02*
X47631390Y20392444D01*
X47631390Y20392444D02*
X47709486Y20353397D01*
X47709486Y20353397D02*
X47787581Y20353397D01*
X47787581Y20353397D02*
X47904724Y20392444D01*
X47904724Y20392444D02*
X48373295Y20861016D01*
X48373295Y20861016D02*
X48373295Y20353397D01*
D10*
X45761904Y33945181D02*
X45761904Y33135658D01*
X45761904Y33135658D02*
X45714285Y33040420D01*
X45714285Y33040420D02*
X45666666Y32992800D01*
X45666666Y32992800D02*
X45571428Y32945181D01*
X45571428Y32945181D02*
X45380952Y32945181D01*
X45380952Y32945181D02*
X45285714Y32992800D01*
X45285714Y32992800D02*
X45238095Y33040420D01*
X45238095Y33040420D02*
X45190476Y33135658D01*
X45190476Y33135658D02*
X45190476Y33945181D01*
X44571428Y33516610D02*
X44666666Y33564229D01*
X44666666Y33564229D02*
X44714285Y33611848D01*
X44714285Y33611848D02*
X44761904Y33707086D01*
X44761904Y33707086D02*
X44761904Y33754705D01*
X44761904Y33754705D02*
X44714285Y33849943D01*
X44714285Y33849943D02*
X44666666Y33897562D01*
X44666666Y33897562D02*
X44571428Y33945181D01*
X44571428Y33945181D02*
X44380952Y33945181D01*
X44380952Y33945181D02*
X44285714Y33897562D01*
X44285714Y33897562D02*
X44238095Y33849943D01*
X44238095Y33849943D02*
X44190476Y33754705D01*
X44190476Y33754705D02*
X44190476Y33707086D01*
X44190476Y33707086D02*
X44238095Y33611848D01*
X44238095Y33611848D02*
X44285714Y33564229D01*
X44285714Y33564229D02*
X44380952Y33516610D01*
X44380952Y33516610D02*
X44571428Y33516610D01*
X44571428Y33516610D02*
X44666666Y33468991D01*
X44666666Y33468991D02*
X44714285Y33421372D01*
X44714285Y33421372D02*
X44761904Y33326134D01*
X44761904Y33326134D02*
X44761904Y33135658D01*
X44761904Y33135658D02*
X44714285Y33040420D01*
X44714285Y33040420D02*
X44666666Y32992800D01*
X44666666Y32992800D02*
X44571428Y32945181D01*
X44571428Y32945181D02*
X44380952Y32945181D01*
X44380952Y32945181D02*
X44285714Y32992800D01*
X44285714Y32992800D02*
X44238095Y33040420D01*
X44238095Y33040420D02*
X44190476Y33135658D01*
X44190476Y33135658D02*
X44190476Y33326134D01*
X44190476Y33326134D02*
X44238095Y33421372D01*
X44238095Y33421372D02*
X44285714Y33468991D01*
X44285714Y33468991D02*
X44380952Y33516610D01*
D14*
G04 #@! TO.C,P8*
X115052487Y17980000D02*
X115052487Y20640000D01*
X115346949Y20640000D02*
X115052487Y20640000D01*
X115358114Y17980000D02*
X115052487Y17980000D01*
X117406860Y20640000D02*
X117712487Y20640000D01*
X117418025Y17980000D02*
X117712487Y17980000D01*
X117712487Y20640000D02*
X117712487Y17980000D01*
G04 #@! TO.C,M5*
D13*
X118607487Y67210000D02*
X132507487Y67210000D01*
X132507487Y39710000D01*
X118607487Y39710000D01*
X118607487Y67210000D01*
D14*
G04 #@! TO.C,P5*
X73452487Y44680000D02*
X73452487Y47340000D01*
X73746949Y47340000D02*
X73452487Y47340000D01*
X73758114Y44680000D02*
X73452487Y44680000D01*
X75806860Y47340000D02*
X76112487Y47340000D01*
X75818025Y44680000D02*
X76112487Y44680000D01*
X76112487Y47340000D02*
X76112487Y44680000D01*
D15*
G04 #@! TO.C,J25*
X3300000Y93485000D02*
X3300000Y54985000D01*
X3300000Y54985000D02*
X30700000Y54985000D01*
X13500000Y97485000D02*
X13500000Y93485000D01*
X13500000Y50985000D02*
X13500000Y54985000D01*
X13500000Y50985000D02*
X20500000Y50985000D01*
X20500000Y97485000D02*
X13500000Y97485000D01*
X20500000Y97485000D02*
X20500000Y93485000D01*
X20500000Y50985000D02*
X20500000Y54985000D01*
X30700000Y93485000D02*
X3300000Y93485000D01*
X30700000Y54985000D02*
X30700000Y93485000D01*
D14*
G04 #@! TO.C,P15*
X37392487Y10180000D02*
X37392487Y12840000D01*
X37686949Y12840000D02*
X37392487Y12840000D01*
X37698114Y10180000D02*
X37392487Y10180000D01*
X39746860Y12840000D02*
X40052487Y12840000D01*
X39758025Y10180000D02*
X40052487Y10180000D01*
X40052487Y12840000D02*
X40052487Y10180000D01*
G04 #@! TO.C,F4*
X50582487Y14610000D02*
X50582487Y19460000D01*
X52582487Y14610000D02*
X52582487Y19460000D01*
X50582487Y19460000D02*
G75*
G02*
X52582487Y19460000I1000000J0D01*
G01*
X52582487Y14560000D02*
G75*
G02*
X50582487Y14560000I-1000000J0D01*
G01*
G04 #@! TO.C,P4*
X94352487Y6180000D02*
X94352487Y8840000D01*
X94646949Y8840000D02*
X94352487Y8840000D01*
X94658114Y6180000D02*
X94352487Y6180000D01*
X96706860Y8840000D02*
X97012487Y8840000D01*
X96718025Y6180000D02*
X97012487Y6180000D01*
X97012487Y8840000D02*
X97012487Y6180000D01*
D13*
G04 #@! TO.C,M3*
X75557487Y77385000D02*
X75557487Y62385000D01*
X75557487Y77385000D02*
X76857487Y77385000D01*
X75557487Y62385000D02*
X80657487Y62385000D01*
X85157487Y77385000D02*
X78757487Y77385000D01*
X85157487Y62985000D02*
X85157487Y77385000D01*
D14*
G04 #@! TO.C,P17*
X34852487Y10180000D02*
X34852487Y12840000D01*
X35146949Y12840000D02*
X34852487Y12840000D01*
X35158114Y10180000D02*
X34852487Y10180000D01*
X37206860Y12840000D02*
X37512487Y12840000D01*
X37218025Y10180000D02*
X37512487Y10180000D01*
X37512487Y12840000D02*
X37512487Y10180000D01*
G04 #@! TO.C,F3*
X52782487Y14610000D02*
X52782487Y19460000D01*
X54782487Y14610000D02*
X54782487Y19460000D01*
X52782487Y19460000D02*
G75*
G02*
X54782487Y19460000I1000000J0D01*
G01*
X54782487Y14560000D02*
G75*
G02*
X52782487Y14560000I-1000000J0D01*
G01*
D13*
G04 #@! TO.C,M2*
X110257486Y82035000D02*
X110257486Y72935000D01*
X110257486Y82035000D02*
X111257488Y82035000D01*
X113357489Y82035000D02*
X113357489Y72935000D01*
D14*
G04 #@! TO.C,P18*
X54852487Y9680000D02*
X54852487Y12340000D01*
X55146949Y12340000D02*
X54852487Y12340000D01*
X55158114Y9680000D02*
X54852487Y9680000D01*
X57206860Y12340000D02*
X57512487Y12340000D01*
X57218025Y9680000D02*
X57512487Y9680000D01*
X57512487Y12340000D02*
X57512487Y9680000D01*
D15*
G04 #@! TO.C,J23*
X3300000Y43935000D02*
X3300000Y5435000D01*
X3300000Y5435000D02*
X30700000Y5435000D01*
X13500000Y47935000D02*
X13500000Y43935000D01*
X13500000Y1435000D02*
X13500000Y5435000D01*
X13500000Y1435000D02*
X20500000Y1435000D01*
X20500000Y47935000D02*
X13500000Y47935000D01*
X20500000Y47935000D02*
X20500000Y43935000D01*
X20500000Y1435000D02*
X20500000Y5435000D01*
X30700000Y43935000D02*
X3300000Y43935000D01*
X30700000Y5435000D02*
X30700000Y43935000D01*
D13*
G04 #@! TO.C,M1*
X57907486Y15334999D02*
X57907486Y18535002D01*
X57907486Y3234999D02*
X57907486Y13635001D01*
X57907486Y1334999D02*
X57907486Y1634999D01*
X57907486Y1334999D02*
X73307486Y1334999D01*
X59407486Y21934997D02*
X74707485Y21934999D01*
X74707483Y15235001D02*
X74707483Y20035001D01*
X74707483Y9034999D02*
X74707483Y11734999D01*
X74707483Y6335001D02*
X74707483Y7435004D01*
X74707483Y2784999D02*
X74707488Y4334999D01*
X74707485Y21635001D02*
X74707485Y21934999D01*
D14*
G04 #@! TO.C,P6*
X70912487Y44680000D02*
X70912487Y47340000D01*
X71206949Y47340000D02*
X70912487Y47340000D01*
X71218114Y44680000D02*
X70912487Y44680000D01*
X73266860Y47340000D02*
X73572487Y47340000D01*
X73278025Y44680000D02*
X73572487Y44680000D01*
X73572487Y47340000D02*
X73572487Y44680000D01*
D13*
G04 #@! TO.C,M7*
X63901284Y43410001D02*
X70794161Y43410001D01*
X63907487Y54253795D02*
X63907487Y43410001D01*
X63957487Y54309997D02*
X63907487Y54253795D01*
X63957487Y54309997D02*
X64782486Y54309997D01*
X65057492Y54585001D02*
X64782486Y54309997D01*
X65057492Y54585001D02*
X70755314Y54585001D01*
X70755314Y54585001D02*
X70794161Y43410001D01*
D14*
G04 #@! TO.C,F1*
X54982487Y14610000D02*
X54982487Y19460000D01*
X56982487Y14610000D02*
X56982487Y19460000D01*
X54982487Y19460000D02*
G75*
G02*
X56982487Y19460000I1000000J0D01*
G01*
X56982487Y14560000D02*
G75*
G02*
X54982487Y14560000I-1000000J0D01*
G01*
G04 #@! TO.C,P3*
X94352487Y1180000D02*
X94352487Y3840000D01*
X94646949Y3840000D02*
X94352487Y3840000D01*
X94658114Y1180000D02*
X94352487Y1180000D01*
X96706860Y3840000D02*
X97012487Y3840000D01*
X96718025Y1180000D02*
X97012487Y1180000D01*
X97012487Y3840000D02*
X97012487Y1180000D01*
D16*
G04 #@! TO.C,R4*
X75857096Y6103609D02*
X75857096Y5087609D01*
X75857096Y4071609D02*
X75857096Y3055609D01*
X77457096Y5087609D02*
X77457096Y6103609D01*
X77457096Y3055609D02*
X77457096Y4071609D01*
D14*
X75855458Y6158609D02*
G75*
G02*
X77457096Y6154609I801638J326000D01*
G01*
X77457096Y3004609D02*
G75*
G02*
X75853601Y2996007I-800000J-330000D01*
G01*
G04 #@! TO.C,P7*
X115052487Y22680000D02*
X115052487Y25340000D01*
X115346949Y25340000D02*
X115052487Y25340000D01*
X115358114Y22680000D02*
X115052487Y22680000D01*
X117406860Y25340000D02*
X117712487Y25340000D01*
X117418025Y22680000D02*
X117712487Y22680000D01*
X117712487Y25340000D02*
X117712487Y22680000D01*
D13*
G04 #@! TO.C,M6*
X78782487Y48110000D02*
X78782487Y12310010D01*
X112582497Y48110000D02*
X78782487Y48110000D01*
X112582497Y48110000D02*
X112582497Y12310010D01*
X112582497Y12310010D02*
X78782487Y12310010D01*
G04 #@! TO.C,M4*
X64507487Y77385000D02*
X64507487Y62385000D01*
X64507487Y77385000D02*
X65807487Y77385000D01*
X64507487Y62385000D02*
X69607487Y62385000D01*
X74107487Y77385000D02*
X67707487Y77385000D01*
X74107487Y62985000D02*
X74107487Y77385000D01*
D14*
G04 #@! TO.C,F2*
X56582487Y23610000D02*
X51732487Y23610000D01*
X56582487Y21610000D02*
X51732487Y21610000D01*
X51732487Y21610000D02*
G75*
G02*
X51732487Y23610000I0J1000000D01*
G01*
X56632487Y23610000D02*
G75*
G02*
X56632487Y21610000I0J-1000000D01*
G01*
G04 #@! TO.C,P16*
X39932487Y10180000D02*
X39932487Y12840000D01*
X40226949Y12840000D02*
X39932487Y12840000D01*
X40238114Y10180000D02*
X39932487Y10180000D01*
X42286860Y12840000D02*
X42592487Y12840000D01*
X42298025Y10180000D02*
X42592487Y10180000D01*
X42592487Y12840000D02*
X42592487Y10180000D01*
G04 #@! TO.C,D8*
X87122487Y79592023D02*
X87122487Y81267023D01*
X87122487Y79592023D02*
X87122487Y78942023D01*
X90242487Y79592023D02*
X90242487Y80242023D01*
X90242487Y79592023D02*
X90242487Y78942023D01*
G04 #@! TO.C,U7*
X42900000Y68300000D02*
X44850000Y68300000D01*
X42900000Y63180000D02*
X44850000Y63180000D01*
X46800000Y63180000D02*
X44850000Y63180000D01*
X48300000Y68300000D02*
X44850000Y68300000D01*
D13*
G04 #@! TO.C,C10*
X45807487Y14970000D02*
X44807487Y14970000D01*
G04 #@! TO.C,C27*
X94632501Y65110000D02*
X95382486Y65110000D01*
D14*
G04 #@! TO.C,D4*
X35435000Y32610000D02*
X39335000Y32610000D01*
X35435000Y30610000D02*
X35435000Y32610000D01*
X35435000Y30610000D02*
X39335000Y30610000D01*
D12*
X37135000Y31610000D02*
X37335000Y31610000D01*
X37335000Y31960000D02*
X37335000Y31260000D01*
X37335000Y31610000D02*
X38035000Y31960000D01*
X37335000Y31610000D02*
X38035000Y31260000D01*
X38035000Y31960000D02*
X38035000Y31260000D01*
X38035000Y31610000D02*
X38335000Y31610000D01*
D17*
G04 #@! TO.C,BT1*
X118070487Y21446032D02*
X118070487Y18290006D01*
X119270789Y21446032D02*
X118070487Y21446032D01*
X122951376Y18290006D02*
X118070487Y18290006D01*
X127722487Y29853458D02*
X127722487Y28329458D01*
X127722487Y22614458D02*
X127722487Y20582458D01*
X128738487Y21598458D02*
X126706487Y21598458D01*
X132294487Y21446032D02*
X131353087Y21446032D01*
X132294487Y21446032D02*
X132294487Y18290006D01*
X132294487Y18290006D02*
X127413597Y18290006D01*
X122885035Y18694629D02*
G75*
G02*
X123058568Y32381548I2297434J6815431D01*
G01*
X127336536Y32427673D02*
G75*
G02*
X127357594Y18599025I-2154015J-6917620D01*
G01*
D14*
G04 #@! TO.C,U10*
X38000000Y50560000D02*
X36050000Y50560000D01*
X38000000Y50560000D02*
X41450000Y50560000D01*
X38000000Y45440000D02*
X36050000Y45440000D01*
X38000000Y45440000D02*
X39950000Y45440000D01*
D18*
G04 #@! TO.C,R31*
X43290000Y50164995D02*
X42890000Y50164985D01*
X43291056Y49419160D02*
X42891057Y49419149D01*
D13*
G04 #@! TO.C,C30*
X90372488Y82959986D02*
X90372488Y82210001D01*
G04 #@! TO.C,C7*
X39807487Y14970000D02*
X38807487Y14970000D01*
G04 #@! TO.C,C33*
X129832501Y34010000D02*
X130582486Y34010000D01*
G04 #@! TO.C,C29*
X88682487Y76742037D02*
X88682487Y77492022D01*
D18*
G04 #@! TO.C,R34*
X37028944Y52940840D02*
X37428943Y52940851D01*
X37030000Y52195005D02*
X37430000Y52195015D01*
G04 #@! TO.C,R1*
X7409149Y30078943D02*
X7409160Y29678944D01*
X8154985Y30080000D02*
X8154995Y29680000D01*
D13*
G04 #@! TO.C,C17*
X49282487Y9510000D02*
X50282487Y9510000D01*
G04 #@! TO.C,C3*
X40807487Y18970000D02*
X41807487Y18970000D01*
G04 #@! TO.C,C23*
X52282487Y5510000D02*
X51282487Y5510000D01*
D14*
G04 #@! TO.C,U4*
X86122487Y71810000D02*
X86122487Y75260000D01*
X86122487Y71810000D02*
X86122487Y69860000D01*
X91242487Y71810000D02*
X91242487Y73760000D01*
X91242487Y71810000D02*
X91242487Y69860000D01*
D13*
G04 #@! TO.C,C1*
X36807487Y18970000D02*
X37807487Y18970000D01*
D14*
G04 #@! TO.C,U11*
X38000000Y58560000D02*
X36050000Y58560000D01*
X38000000Y58560000D02*
X41450000Y58560000D01*
X38000000Y53440000D02*
X36050000Y53440000D01*
X38000000Y53440000D02*
X39950000Y53440000D01*
D13*
G04 #@! TO.C,C31*
X93132473Y73510000D02*
X92382488Y73510000D01*
G04 #@! TO.C,C14*
X43282487Y9510000D02*
X44282487Y9510000D01*
G04 #@! TO.C,C19*
X44282487Y5510000D02*
X43282487Y5510000D01*
G04 #@! TO.C,C4*
X42807487Y18970000D02*
X43807487Y18970000D01*
D18*
G04 #@! TO.C,R10*
X50040000Y67944985D02*
X50440000Y67944995D01*
X50041057Y67199149D02*
X50441056Y67199160D01*
D14*
G04 #@! TO.C,D2*
X37780000Y66335000D02*
X37780000Y70235000D01*
D12*
X38430000Y68935000D02*
X39130000Y68935000D01*
X38430000Y68235000D02*
X39130000Y68235000D01*
X38780000Y68935000D02*
X38780000Y69235000D01*
X38780000Y68235000D02*
X38430000Y68935000D01*
X38780000Y68235000D02*
X39130000Y68935000D01*
X38780000Y68035000D02*
X38780000Y68235000D01*
D14*
X39780000Y66335000D02*
X37780000Y66335000D01*
X39780000Y66335000D02*
X39780000Y70235000D01*
D10*
G04 #@! TO.C,D1*
X119454490Y16584995D02*
X119454490Y16163995D01*
X119454490Y16584995D02*
X122382487Y16584995D01*
X119454490Y16264000D02*
X119582487Y16264000D01*
X119454490Y15856005D02*
X119454490Y15410000D01*
X119454490Y15756000D02*
X119581490Y15756000D01*
X119454490Y15410000D02*
X122382488Y15410000D01*
X119582487Y16560000D02*
X119581490Y16163995D01*
X119582487Y15856005D02*
X119582487Y15410000D01*
D12*
X120582487Y16010000D02*
X120782487Y16010000D01*
X120782487Y16360000D02*
X120782487Y15660000D01*
X120782487Y16010000D02*
X121482487Y16360000D01*
X120782487Y16010000D02*
X121482487Y15660000D01*
X121482487Y16360000D02*
X121482487Y15660000D01*
X121482487Y16010000D02*
X121782487Y16010000D01*
D18*
G04 #@! TO.C,R33*
X43450000Y58214995D02*
X43050000Y58214985D01*
X43451056Y57469160D02*
X43051057Y57469149D01*
D13*
G04 #@! TO.C,C21*
X48282487Y5510000D02*
X47282487Y5510000D01*
D18*
G04 #@! TO.C,R7*
X81811647Y4187262D02*
X81811636Y4587261D01*
X82557482Y4188318D02*
X82557472Y4588318D01*
D13*
G04 #@! TO.C,C32*
X94932473Y73510000D02*
X94182488Y73510000D01*
D18*
G04 #@! TO.C,R16*
X37861647Y89658944D02*
X37861636Y90058943D01*
X38607482Y89660000D02*
X38607472Y90060000D01*
D14*
G04 #@! TO.C,U9*
X38000000Y41560000D02*
X36050000Y41560000D01*
X38000000Y41560000D02*
X41450000Y41560000D01*
X38000000Y36440000D02*
X36050000Y36440000D01*
X38000000Y36440000D02*
X39950000Y36440000D01*
D18*
G04 #@! TO.C,R30*
X37698944Y36010840D02*
X38098943Y36010851D01*
X37700000Y35265005D02*
X38100000Y35265015D01*
D14*
G04 #@! TO.C,L2*
X87172487Y85172779D02*
X87172487Y84847221D01*
X88192487Y85172779D02*
X88192487Y84847221D01*
D13*
G04 #@! TO.C,C16*
X47282487Y9510000D02*
X48282487Y9510000D01*
G04 #@! TO.C,C22*
X50282487Y5510000D02*
X49282487Y5510000D01*
D18*
G04 #@! TO.C,R8*
X84311647Y4187262D02*
X84311636Y4587261D01*
X85057482Y4188318D02*
X85057472Y4588318D01*
G04 #@! TO.C,R3*
X48811647Y17808944D02*
X48811636Y18208943D01*
X49557482Y17810000D02*
X49557472Y18210000D01*
G04 #@! TO.C,R15*
X35311647Y89658944D02*
X35311636Y90058943D01*
X36057482Y89660000D02*
X36057472Y90060000D01*
G04 #@! TO.C,R13*
X49129160Y27298944D02*
X49129149Y27698943D01*
X49874995Y27300000D02*
X49874985Y27700000D01*
G04 #@! TO.C,R11*
X44878943Y62350851D02*
X44478944Y62350840D01*
X44880000Y61605015D02*
X44480000Y61605005D01*
D14*
G04 #@! TO.C,D3*
X37760000Y60130000D02*
X37760000Y64030000D01*
D12*
X38410000Y62130000D02*
X39110000Y62130000D01*
X38410000Y61430000D02*
X38760000Y62130000D01*
X38410000Y61430000D02*
X39110000Y61430000D01*
X38760000Y62130000D02*
X38760000Y62330000D01*
X38760000Y61130000D02*
X38760000Y61430000D01*
X39110000Y61430000D02*
X38760000Y62130000D01*
D14*
X39760000Y64030000D02*
X37760000Y64030000D01*
X39760000Y60130000D02*
X39760000Y64030000D01*
D13*
G04 #@! TO.C,C5*
X44807487Y18970000D02*
X45807487Y18970000D01*
D18*
G04 #@! TO.C,R32*
X37518944Y44540840D02*
X37918943Y44540851D01*
X37520000Y43795005D02*
X37920000Y43795015D01*
D13*
G04 #@! TO.C,C28*
X86982487Y82260014D02*
X86982487Y83009999D01*
D14*
G04 #@! TO.C,U6*
X35057487Y84285000D02*
X35057487Y87735000D01*
X35057487Y84285000D02*
X35057487Y82335000D01*
X40177487Y84285000D02*
X40177487Y86235000D01*
X40177487Y84285000D02*
X40177487Y82335000D01*
D18*
G04 #@! TO.C,R29*
X43460000Y41254995D02*
X43060000Y41254985D01*
X43461056Y40509160D02*
X43061057Y40509149D01*
D14*
G04 #@! TO.C,L1*
X89172487Y85172779D02*
X89172487Y84847221D01*
X90192487Y85172779D02*
X90192487Y84847221D01*
D13*
G04 #@! TO.C,C15*
X45282487Y9510000D02*
X46282487Y9510000D01*
G04 #@! TO.C,C8*
X41807487Y14970000D02*
X40807487Y14970000D01*
G04 #@! TO.C,C9*
X43807487Y14970000D02*
X42807487Y14970000D01*
G04 #@! TO.C,C6*
X37807487Y14970000D02*
X36807487Y14970000D01*
D14*
G04 #@! TO.C,D5*
X35415000Y30100000D02*
X35415000Y28100000D01*
D12*
X37315000Y29100000D02*
X37115000Y29100000D01*
X37315000Y28750000D02*
X37315000Y29450000D01*
X38015000Y29450000D02*
X37315000Y29100000D01*
X38015000Y28750000D02*
X37315000Y29100000D01*
X38015000Y28750000D02*
X38015000Y29450000D01*
X38315000Y29100000D02*
X38015000Y29100000D01*
D14*
X39315000Y30100000D02*
X35415000Y30100000D01*
X39315000Y28100000D02*
X35415000Y28100000D01*
D13*
G04 #@! TO.C,C2*
X38807487Y18970000D02*
X39807487Y18970000D01*
G04 #@! TO.C,C18*
X51282487Y9510000D02*
X52282487Y9510000D01*
D18*
G04 #@! TO.C,R12*
X49129160Y30798944D02*
X49129149Y31198943D01*
X49874995Y30800000D02*
X49874985Y31200000D01*
D13*
G04 #@! TO.C,C20*
X46282487Y5510000D02*
X45282487Y5510000D01*
D18*
G04 #@! TO.C,R5*
X89707492Y62010000D02*
X89707502Y61610000D01*
X90453327Y62011056D02*
X90453338Y61611057D01*
G04 #@! TO.C,R6*
X110407492Y71010000D02*
X110407502Y70610000D01*
X111153327Y71011056D02*
X111153338Y70611057D01*
G04 #@! TO.C,R2*
X48811647Y20808944D02*
X48811636Y21208943D01*
X49557482Y20810000D02*
X49557472Y21210000D01*
D14*
G04 #@! TO.C,U8*
X45000000Y32560000D02*
X43050000Y32560000D01*
X45000000Y32560000D02*
X48450000Y32560000D01*
X45000000Y27440000D02*
X43050000Y27440000D01*
X45000000Y27440000D02*
X46950000Y27440000D01*
G04 #@! TD*
M02*
