M48
INCH,TZ
T01C0.013750
T02C0.021650
T03C0.026600
T04C0.032500
T05C0.039200
T06C0.043300
T07C0.051200
T08C0.059100
T09C0.090600
T10C0.119050
T11C0.127950
%
T01
X26697Y18490
X26904Y18835
X27199Y18372
X28596Y18401
X27116Y30350
X27510Y30350
X28636Y24671
X29108Y24671
X29581Y24671
X30053Y24671
X30368Y2289
X30368Y1896
X31467Y30350
X31860Y30350
X32130Y14602
X32130Y14287
X32130Y13972
X32130Y13657
X32130Y13342
X32130Y13027
X32130Y12712
X32130Y12398
X32130Y12083
X32130Y11768
X32130Y11453
X32130Y11138
X32130Y10823
X32130Y10508
X32130Y9878
X32130Y9327
X32130Y9012
X32130Y8697
X32130Y8382
X32130Y8067
X32130Y7752
X32130Y16295
X32130Y10193
X32287Y4917
X32602Y4917
X32917Y4917
X32986Y24671
X33232Y4917
X33459Y24671
X33547Y4917
X33862Y4917
X33931Y24671
X34177Y4917
X34404Y24671
X34492Y4917
X34728Y18854
X34807Y4917
X35122Y4917
X35201Y18854
X35437Y4917
X35673Y18854
X35752Y4917
X36146Y18854
X36618Y18854
X36697Y4917
X37012Y4917
X37091Y18854
X37327Y4917
X37563Y18854
X37642Y4917
X37957Y4917
X38035Y18854
X38272Y4917
X38508Y18854
X38587Y4917
X38902Y4917
X38980Y18854
X39217Y4917
X39453Y18854
X39925Y18854
X40398Y18854
X40870Y18854
X40909Y4917
X41343Y18854
X41815Y18854
X41972Y4917
X42287Y18854
X42366Y4917
X42760Y18854
X43232Y18854
X43705Y18854
X44177Y18854
X44679Y28785
X45053Y28785
X45073Y32211
X45122Y18854
X45280Y17870
X45280Y17476
X45280Y13264
X45280Y12870
X45280Y12476
X45280Y12083
X45280Y11689
X45280Y11295
X45280Y10901
X45280Y10508
X45280Y9484
X45280Y9169
X45280Y7319
X45280Y6768
X45280Y4917
X45427Y32211
X45427Y28785
X48400Y15806
X48793Y15806
X49187Y15806
X50085Y15806
X50485Y15806
X51411Y26275
X51805Y26275
X52199Y26275
X52593Y26275
X3826Y26516
X4180Y27496
X4464Y28594
X4550Y29586
X4716Y30685
X4759Y31772
X4862Y35571
X4908Y32933
X6751Y36149
X8743Y36228
X10669Y35311
X10676Y24807
X10961Y10453
X11216Y34874
X11349Y29945
X11365Y31398
X11499Y1606
X12078Y32126
X12117Y18405
X12444Y19976
X13479Y3523
X13637Y32051
X13991Y29149
X14177Y11090
X14475Y17153
X14531Y32122
X14948Y36701
X15034Y3374
X15086Y7846
X15161Y6689
X15164Y7465
X15201Y5508
X15358Y32968
X15527Y28992
X15752Y8382
X16382Y8303
X16411Y6673
X16579Y32831
X16618Y3854
X16776Y31590
X16854Y4957
X16889Y30480
X16933Y8264
X17045Y5870
X17118Y14059
X17508Y32864
X17602Y3815
X17642Y2988
X17642Y2043
X17681Y8264
X17681Y5862
X17701Y32476
X17870Y5120
X17995Y17823
X18024Y15071
X18176Y13842
X18278Y4596
X18421Y8307
X18429Y5862
X18508Y1295
X18705Y30193
X18882Y13823
X18882Y12610
X18941Y4642
X19020Y2949
X19058Y34240
X19177Y8461
X19453Y2161
X19453Y1295
X19461Y13791
X19524Y27732
X19531Y4563
X19551Y8224
X19571Y5390
X19807Y9406
X19853Y24063
X20004Y8303
X20240Y4602
X20240Y2161
X20240Y1295
X20260Y6354
X20550Y33992
X20673Y9602
X20764Y28937
X20988Y1295
X21028Y2161
X21106Y31886
X21224Y6689
X21389Y27555
X21538Y19651
X21579Y4681
X21646Y16882
X21866Y22744
X21965Y18437
X22016Y20945
X22051Y1689
X22287Y27043
X22489Y383
X22583Y31512
X22799Y2594
X22839Y2184
X22917Y3027
X22953Y18201
X23016Y27594
X23075Y5075
X23106Y24988
X23154Y394
X23307Y11523
X23508Y1335
X23547Y586
X23665Y6689
X23752Y23657
X23764Y30016
X23820Y9060
X23862Y31374
X24283Y26169
X24335Y17752
X24335Y17201
X24802Y22283
X24807Y17740
X25157Y17984
X25219Y33957
X25471Y19634
X25475Y18890
X25487Y20425
X25634Y22752
X25723Y14996
X25810Y13516
X25814Y14252
X25988Y26335
X26028Y29563
X26047Y28067
X26067Y32075
X26461Y16768
X26960Y21744
X27031Y11709
X27130Y24287
X27247Y12984
X27370Y16747
X27609Y33980
X27858Y9976
X27944Y13461
X28114Y21768
X28406Y32071
X28513Y14255
X28646Y12594
X29078Y18878
X29256Y13500
X29303Y9862
X29335Y12712
X29550Y30764
X29621Y16468
X29668Y23602
X29689Y9523
X29728Y13303
X30028Y32079
X30043Y21216
X30201Y19051
X30464Y9031
X30468Y30933
X30468Y17287
X30476Y29523
X30476Y27201
X30516Y12398
X30516Y24720
X30516Y15823
X30516Y13972
X30516Y9445
X30634Y6807
X30641Y22665
X30650Y21649
X30673Y1453
X30688Y2679
X30713Y3775
X30732Y4169
X31287Y342
X31323Y3716
X31402Y7594
X31461Y18106
X31559Y5165
X31637Y4292
X31638Y3918
X31736Y15114
X31771Y20346
X31776Y17712
X31815Y6177
X31838Y9665
X32071Y3817
X32406Y2122
X32720Y30862
X32799Y1335
X32848Y4167
X33114Y20272
X33114Y272
X33350Y2437
X33547Y32122
X33567Y31307
X34138Y20311
X34167Y22712
X34256Y30823
X34256Y4563
X34256Y586
X34409Y22189
X34529Y2589
X34728Y32122
X34807Y1335
X34965Y390
X35295Y23039
X35713Y28146
X35735Y26686
X35799Y22331
X35894Y35949
X35949Y31571
X35988Y2398
X36028Y4642
X36067Y272
X36159Y27903
X36377Y3461
X37091Y32122
X37101Y35913
X37130Y21374
X37209Y28894
X37760Y3146
X37917Y29244
X38035Y21216
X38311Y31453
X38311Y24602
X38504Y3795
X38665Y28618
X38902Y25941
X38933Y23342
X39138Y4445
X39374Y32083
X39649Y33925
X39657Y34457
X39925Y4602
X40181Y24598
X40516Y29799
X40701Y20579
X40785Y27634
X40791Y25980
X40909Y350
X41303Y25311
X41397Y24516
X41420Y22697
X41421Y4563
X41976Y36031
X42003Y4217
X42012Y24051
X42524Y22240
X42760Y27516
X42786Y33549
X42826Y34405
X42957Y31964
X43547Y25862
X43866Y4212
X43916Y37016
X44217Y2398
X44374Y22398
X44453Y4563
X44614Y20075
X44650Y27201
X44650Y19149
X44650Y24051
X44807Y21610
X45122Y390
X45201Y23815
X45398Y25311
X45555Y18421
X45555Y17004
X45594Y13815
X45594Y9996
X45634Y8736
X45634Y7791
X45634Y3342
X45673Y7043
X45673Y6335
X45713Y20508
X45857Y30356
X45988Y33186
X46570Y33177
X46854Y32462
X46933Y8579
X47012Y350
X47130Y25862
X47209Y15482
X47253Y17558
X47287Y10744
X47406Y26295
X47406Y12831
X47445Y32462
X47445Y17004
X47494Y18146
X47524Y21649
X47701Y34894
X47799Y26689
X47917Y32437
X47957Y13886
X47996Y429
X48342Y38866
X48705Y26728
X48961Y15449
X49177Y11571
X49243Y34272
X49256Y26728
X49531Y8185
X49650Y13224
X49768Y26728
X49936Y34170
X50516Y390
X51146Y26807
X51146Y13185
X51251Y28083
X51805Y28471
X51933Y9484
X52169Y15350
X52199Y29123
X52346Y6413
X52479Y28504
X52484Y12634
X52602Y5823
X52771Y27555
X52815Y34133
X53024Y26862
X53043Y14090
X53075Y13382
X24886Y669
X24614Y1305
X24828Y1690
X24187Y2119
X24147Y2455
X24344Y3045
X24620Y3301
X24738Y3832
X24344Y4128
X24147Y3636
X24147Y4817
X24147Y6392
X24620Y6372
X25731Y6664
X26778Y6639
X27100Y6351
X28153Y6276
X29265Y6392
X30053Y6392
X29580Y5388
X28935Y5382
X28995Y4136
X29462Y4226
X29630Y3746
X30053Y4029
X29631Y2861
X30327Y2689
X30368Y2297
X30368Y1903
X29686Y1997
X29376Y1508
X29763Y1191
X29366Y761
X28977Y1140
X28902Y1864
X28950Y2297
X27634Y1312
X27634Y683
X26715Y669
X25860Y669
X26083Y1311
X26667Y2336
X27060Y3783
X26313Y3832
X26746Y4342
X27335Y5340
X28281Y7297
X29213Y7364
X29659Y6982
X30053Y7573
X29226Y8360
X27227Y8528
X27185Y8122
X26398Y8112
X26133Y7709
X24696Y7786
X25105Y7151
X24265Y6918
X44533Y32213
X44786Y32061
X45073Y32219
X45428Y32219
X45094Y31217
X44989Y30943
X45202Y30700
X44689Y31250
X45429Y29771
X45428Y28794
X45054Y28794
X44680Y28794
X32612Y30368
X34258Y30341
X33429Y30319
X30905Y29597
X31662Y29588
X32441Y29562
X34270Y29514
X33338Y29512
X32636Y29340
X34242Y29166
X31033Y29079
X32348Y29049
X30899Y28774
X34433Y28718
X32886Y28641
X31640Y28630
X33961Y28476
X32950Y28353
X32927Y28059
X33328Y27817
X32522Y27685
X32848Y27632
X32130Y27622
X31047Y27602
X31419Y27552
X31769Y27512
X32427Y27291
X30899Y26982
X32474Y26913
X32898Y26599
X32612Y26480
X32108Y26382
X33571Y26360
X31059Y26317
X32868Y26294
X34242Y26225
X34183Y25929
X32913Y25746
X34412Y25734
X31539Y25407
X31531Y24931
X31362Y24689
X31775Y24679
X30880Y24663
X31860Y30358
X31466Y30358
X34403Y24679
X33931Y24679
X33459Y24679
X32986Y24679
X28616Y30230
X26648Y30230
X29955Y30191
X28538Y29364
X27475Y29207
X26648Y29089
X29955Y28852
X29049Y28459
X28065Y28419
X27435Y27868
X26648Y27829
X29955Y27435
X29246Y27199
X26648Y27120
X28555Y27034
X27002Y26608
X27868Y26097
X26923Y25860
X29955Y25703
X26648Y25388
X29130Y25070
X28262Y24797
X26923Y24797
X27510Y30358
X27116Y30358
X30053Y24679
X29581Y24679
X29109Y24679
X28636Y24679
X50860Y15751
X47930Y15826
X49600Y15870
X52966Y15870
X52776Y16103
X51496Y16159
X51185Y16159
X48162Y16313
X49753Y16541
X49055Y16633
X51683Y16696
X52616Y16833
X52888Y17125
X47848Y17228
X48485Y17274
X48862Y17316
X50169Y17391
X51406Y17395
X52927Y17671
X50841Y17752
X52130Y17877
X50181Y17937
X49134Y17946
X50891Y18055
X52966Y18153
X47843Y18950
X52159Y19118
X50354Y19408
X49415Y19638
X50915Y19639
X50122Y19640
X49879Y19846
X53065Y19866
X50220Y19924
X48843Y20231
X50978Y20439
X48894Y20528
X53035Y20653
X49541Y20669
X48888Y20838
X52321Y20856
X50939Y20929
X49939Y20988
X49264Y21141
X52238Y21145
X51505Y21446
X48539Y21464
X48238Y21472
X53045Y21844
X48407Y22051
X47822Y22076
X48706Y22085
X48041Y22342
X49683Y22480
X50530Y22526
X51043Y22596
X51943Y22596
X52244Y22596
X52545Y22596
X52846Y22596
X51451Y22600
X49915Y22976
X50132Y23232
X53087Y25307
X51338Y25524
X48085Y25564
X48498Y25712
X51431Y25811
X49079Y25850
X49354Y25850
X49630Y25850
X48518Y26027
X53094Y26047
X49079Y26155
X49354Y26155
X48104Y26352
X48399Y15814
X48793Y15814
X49187Y15814
X50085Y15814
X50485Y15814
X51411Y26283
X51805Y26283
X52199Y26283
X52592Y26283
X45122Y18862
X44646Y18831
X44414Y18641
X44178Y18862
X43941Y18661
X43705Y18862
X43469Y18661
X43233Y18862
X42996Y18661
X42760Y18862
X42524Y18661
X42288Y18862
X42052Y18661
X41815Y18862
X41579Y18661
X41343Y18862
X41107Y18661
X40870Y18862
X40634Y18661
X40398Y18862
X40162Y18661
X39926Y18862
X39689Y18661
X39453Y18862
X39217Y18661
X38981Y18862
X38744Y18661
X38508Y18862
X38272Y18661
X38036Y18862
X37800Y18661
X37563Y18862
X37327Y18661
X37091Y18862
X36855Y18661
X36618Y18862
X36382Y18661
X36146Y18862
X35910Y18661
X35674Y18862
X35437Y18661
X35201Y18862
X34965Y18661
X34729Y18862
X34414Y18704
X34421Y18169
X34848Y17975
X35299Y17965
X35741Y17958
X36214Y17960
X36719Y16913
X37029Y16913
X37276Y17386
X37874Y17183
X38170Y17174
X38013Y16903
X37896Y16221
X38151Y15953
X38248Y15412
X37809Y15412
X37349Y15532
X37349Y15200
X37349Y14905
X37355Y14614
X37025Y13930
X36480Y13934
X36618Y13350
X37248Y13429
X37318Y12597
X37333Y12211
X37681Y12405
X37915Y12605
X38172Y12172
X38865Y11871
X39463Y11854
X39810Y12150
X40585Y11975
X40567Y12530
X40577Y13077
X41285Y12950
X41240Y12151
X41266Y11386
X41288Y10576
X40585Y10536
X40585Y10821
X40585Y11106
X40585Y10235
X39797Y9919
X39810Y9634
X39842Y9336
X39792Y8854
X39388Y8803
X38758Y8325
X38381Y8337
X37445Y8193
X37120Y8793
X36912Y8590
X36930Y9117
X36572Y9164
X37123Y9348
X37329Y10491
X37552Y10720
X37598Y11403
X37889Y11414
X37402Y11622
X36733Y11622
X35867Y11811
X35673Y12025
X35469Y12229
X35267Y12431
X35270Y11618
X35717Y11153
X35730Y10452
X35354Y10550
X35477Y10082
X35679Y9545
X35439Y9319
X35245Y8921
X35437Y8665
X35538Y8282
X35578Y7976
X35280Y8074
X34776Y8276
X34720Y8577
X34776Y9139
X34629Y9384
X34886Y9767
X34904Y10258
X33676Y10650
X33366Y10964
X33548Y11185
X33583Y11705
X32130Y11775
X32130Y11460
X32130Y11145
X32130Y10830
X32130Y10515
X32130Y10200
X32130Y9886
X32269Y9608
X32130Y9334
X32130Y9019
X32130Y8704
X32130Y8389
X32130Y8074
X32130Y7760
X32487Y7672
X32270Y7428
X32579Y6726
X32583Y5791
X32956Y5747
X32958Y6032
X33331Y5791
X33233Y4925
X33548Y4925
X33863Y4925
X34178Y4925
X34492Y4925
X34807Y4925
X35122Y4925
X35437Y4925
X35752Y4925
X36343Y5122
X36697Y4925
X37012Y4925
X37327Y4925
X37642Y4925
X37957Y4925
X38272Y4925
X38587Y4925
X38902Y4925
X39217Y4925
X39729Y4964
X39635Y5619
X40033Y5655
X40378Y5610
X40657Y5912
X40599Y5157
X40910Y4925
X41973Y4925
X42367Y4925
X42728Y4949
X42720Y5412
X42950Y5857
X43031Y6730
X43471Y6507
X42285Y6195
X41822Y5876
X41865Y6727
X41422Y6775
X40937Y7203
X40929Y7488
X40861Y7848
X40858Y8144
X41588Y8045
X41579Y8429
X41588Y8754
X41249Y9082
X41588Y9462
X41572Y9814
X41592Y10109
X41275Y9791
X42270Y9363
X42273Y8919
X43449Y9063
X43429Y9584
X43430Y9973
X42605Y10438
X42305Y10399
X42282Y10852
X42282Y11139
X42282Y11426
X42282Y11842
X42282Y12128
X42264Y12552
X42264Y12860
X42264Y13149
X42040Y13889
X41760Y13984
X41448Y14379
X41746Y14699
X41746Y15265
X41753Y15551
X41662Y16212
X41865Y16957
X41697Y17189
X41997Y17224
X42622Y17388
X42918Y17388
X43544Y17183
X43830Y17183
X43666Y16900
X43562Y16224
X43721Y15955
X43901Y15378
X43425Y15378
X42939Y15532
X42939Y15200
X42939Y14905
X42946Y14614
X43709Y14392
X43705Y14015
X44508Y14007
X44481Y14341
X44776Y13909
X45255Y13866
X45280Y13271
X45280Y12878
X45280Y12484
X45280Y12090
X45280Y11697
X45280Y11303
X45280Y10909
X45280Y10515
X45241Y9886
X45280Y9492
X45280Y9177
X45280Y8803
X45152Y8320
X45241Y7956
X45280Y7326
X44996Y7216
X45280Y6775
X45259Y5613
X45280Y4925
X44256Y8193
X44130Y8488
X43261Y8003
X41269Y7711
X40392Y7263
X40260Y6874
X39922Y6945
X39499Y7267
X39059Y7366
X38318Y7288
X37790Y6352
X37650Y6073
X37579Y5766
X37317Y6456
X36486Y6427
X36294Y6102
X35550Y6448
X35624Y7296
X35330Y7296
X35039Y7296
X33853Y7238
X33823Y6775
X34098Y6244
X34124Y5340
X35234Y5213
X32918Y4925
X32603Y4925
X32288Y4925
X33482Y7829
X33638Y8068
X33410Y8360
X33193Y8787
X33634Y8785
X33732Y9469
X33216Y9758
X32940Y9204
X32929Y10413
X32130Y12090
X32130Y12405
X32130Y12720
X32130Y13035
X32130Y13350
X32130Y13665
X32130Y13980
X32130Y14295
X32130Y14610
X32649Y15224
X32209Y15830
X32130Y16303
X32701Y16901
X32701Y17220
X32701Y17538
X32701Y17856
X32701Y18175
X33065Y18501
X32347Y18544
X33943Y17713
X33810Y17134
X34374Y16224
X34607Y15520
X34593Y15200
X34598Y14912
X34599Y14614
X35386Y14392
X35395Y13979
X35905Y14364
X36195Y14580
X36195Y15153
X36158Y15539
X35554Y15405
X35054Y15412
X35394Y15958
X35273Y16624
X35590Y16624
X35936Y16624
X34926Y16635
X36737Y16224
X38953Y15539
X38951Y15140
X38951Y14701
X38869Y14317
X38142Y14339
X38193Y14057
X39335Y13925
X39659Y13917
X39681Y13425
X40091Y13705
X40162Y14534
X40139Y14905
X40152Y15200
X40162Y15700
X40457Y15437
X41126Y15392
X40926Y15934
X40997Y16810
X40766Y17390
X40056Y17183
X39764Y17183
X39906Y16893
X39783Y16224
X39137Y17344
X38809Y17395
X40804Y14386
X41003Y13980
X42616Y13930
X43150Y13311
X43150Y12550
X43150Y11789
X43149Y11027
X39466Y11080
X39670Y10755
X39508Y9867
X40587Y8767
X39788Y6144
X39344Y6240
X39251Y6510
X39048Y6147
X36542Y7489
X36484Y7772
X34911Y13305
X34532Y12956
X33445Y13101
X33494Y13830
X33806Y13798
X34269Y13930
X32734Y13623
X39056Y12568
X44542Y15112
X44504Y15577
X44786Y15899
X45277Y15938
X44679Y16490
X44945Y16802
X45280Y17484
X45280Y17878
X45260Y18463
X44689Y18271
X44492Y17388
X45152Y14580
X26904Y18843
X26697Y18499
X27199Y18380
X28597Y18410
T02
X448Y37988
X448Y1362
X724Y38656
X724Y37320
X724Y2030
X724Y694
X1393Y38933
X1393Y37043
X1393Y2307
X1393Y417
X2061Y38656
X2061Y37320
X2061Y2030
X2061Y694
X2337Y37988
X2337Y1362
X51146Y37988
X51146Y1374
X51422Y38656
X51422Y37320
X51422Y2042
X51422Y706
X52091Y38933
X52091Y37043
X52091Y2319
X52091Y429
X52759Y38656
X52759Y37320
X52759Y2042
X52759Y706
X53035Y37988
X53035Y1374
X32083Y3010G85X32083Y2577
X32083Y1266G85X32083Y1029
X35484Y3010G85X35484Y2577
X35484Y1266G85X35484Y1029
T03
X36736Y2161
X36736Y1531
X37425Y2476
X37425Y1846
X37425Y1216
X36825Y3283G85X37337Y3283
X36825Y409G85X37337Y409
X32646Y2596
X34921Y2596
T04
X14444Y11913
X16294Y25693
X21343Y7653
X21343Y5724
X21402Y8894
X22209Y7653
X22209Y5724
X23075Y7653
X23075Y5724
X23331Y8894
X31214Y2545
X31214Y1045
X37525Y27693
X37525Y26693
X37525Y25693
X37525Y24693
X37525Y23693
X37525Y22693
X46776Y5114
X46776Y4130
X46776Y3146
X46776Y2161
X46776Y1177
X39185Y13567
X37607Y13567
X36185Y13567
T05
X15280Y4523
X16280Y4523
X17280Y4523
X23154Y4327
X24089Y8372
X24089Y7644
X24089Y5695
X24089Y951
X29476Y18106
X30191Y8195
X30191Y5675
X30191Y4927
X30191Y3234
X30191Y773
X30476Y18106
X38705Y2949
X38705Y980
X46854Y9445
X46854Y7594
X47740Y14917
X48740Y14917
X49740Y14917
X50740Y14917
X51740Y14917
X52740Y14917
X24088Y958
X24088Y5703
X30191Y5683
X30191Y4935
X30191Y3242
X30191Y781
X30191Y8203
X24088Y8380
X24088Y7651
X52081Y23137
X50899Y23925
X52081Y24712
X52159Y16011
X51759Y18011
X52559Y18011
X44965Y5240
X35886Y6211
X35886Y5411
X33886Y5811
T06
X48272Y22960
X48272Y23960
X48272Y24960
T07
X5562Y33943
X5562Y32762
X5562Y31581
X5562Y30399
X5562Y29218
X5562Y28037
X5562Y26856
X5562Y25675
X5562Y24494
X5562Y14829
X5562Y13648
X5562Y12466
X5562Y11285
X5562Y10104
X5562Y8923
X5562Y7742
X5562Y6561
X5562Y5380
X6940Y33352
X6940Y32171
X6940Y30990
X6940Y29809
X6940Y28628
X6940Y27447
X6940Y26266
X6940Y25085
X6940Y14238
X6940Y13057
X6940Y11876
X6940Y10695
X6940Y9514
X6940Y8333
X6940Y7151
X6940Y5970
X8515Y33352
X8515Y32171
X8515Y30990
X8515Y29809
X8515Y28628
X8515Y27447
X8515Y26266
X8515Y25085
X8515Y14238
X8515Y13057
X8515Y11876
X8515Y10695
X8515Y9514
X8515Y8333
X8515Y7151
X8515Y5970
X9893Y33943
X9893Y32762
X9893Y31581
X9893Y30399
X9893Y29218
X9893Y28037
X9893Y26856
X9893Y25675
X9893Y24494
X9893Y14829
X9893Y13648
X9893Y12466
X9893Y11285
X9893Y10104
X9893Y8923
X9893Y7742
X9893Y6561
X9893Y5380
T08
X50319Y11453
X50319Y8500
T09
X7432Y35025
X7432Y23411
X7432Y15911
X7432Y4297
T10
X39343Y22358
X39492Y28264
X42525Y29693
X42525Y20693
T11
X1393Y37988
X1393Y1362
X52091Y37988
X52091Y1374
X7727Y36994
X7727Y21443
X7727Y17880
X7727Y2329
M30
