M48
INCH,TZ
T01C0.013750
T02C0.021650
T03C0.026600
T04C0.032500
T05C0.039200
T06C0.043300
T07C0.051200
T08C0.059100
T09C0.090600
T10C0.119050
T11C0.127950
%
T01
X25661Y18494
X25868Y18839
X26163Y18376
X27561Y18406
X26081Y30354
X26474Y30354
X27600Y24675
X28073Y24675
X28545Y24675
X29018Y24675
X29333Y2293
X29333Y1900
X30431Y30354
X30825Y30354
X31094Y14606
X31094Y14291
X31094Y13976
X31094Y13661
X31094Y13346
X31094Y13031
X31094Y12717
X31094Y12402
X31094Y12087
X31094Y11772
X31094Y11457
X31094Y11142
X31094Y10827
X31094Y10512
X31094Y9882
X31094Y9331
X31094Y9016
X31094Y8701
X31094Y8386
X31094Y8071
X31094Y7756
X31095Y16299
X31095Y10197
X31252Y4921
X31567Y4921
X31882Y4921
X31951Y24675
X32197Y4921
X32423Y24675
X32512Y4921
X32827Y4921
X32896Y24675
X33142Y4921
X33368Y24675
X33457Y4921
X33693Y18858
X33772Y4921
X34087Y4921
X34165Y18858
X34402Y4921
X34638Y18858
X34717Y4921
X35110Y18858
X35583Y18858
X35661Y4921
X35976Y4921
X36055Y18858
X36291Y4921
X36528Y18858
X36606Y4921
X36921Y4921
X37000Y18858
X37236Y4921
X37472Y18858
X37551Y4921
X37866Y4921
X37945Y18858
X38181Y4921
X38417Y18858
X38890Y18858
X39362Y18858
X39835Y18858
X39874Y4921
X40307Y18858
X40780Y18858
X40937Y4921
X41252Y18858
X41331Y4921
X41724Y18858
X42197Y18858
X42669Y18858
X43142Y18858
X43644Y28789
X44018Y28789
X44037Y32215
X44087Y18858
X44244Y17874
X44244Y17480
X44244Y13268
X44244Y12874
X44244Y12480
X44244Y12087
X44244Y11693
X44244Y11299
X44244Y10906
X44244Y10512
X44244Y9488
X44244Y9173
X44244Y7323
X44244Y6772
X44244Y4921
X44392Y32215
X44392Y28789
X47364Y15811
X47758Y15811
X48152Y15811
X49049Y15811
X49449Y15811
X50376Y26280
X50770Y26280
X51163Y26280
X51557Y26280
X13299Y29843
X13319Y23819
X13327Y3138
X13472Y16496
X13496Y32126
X13575Y27185
X13693Y36142
X13766Y13204
X14004Y26548
X14004Y25098
X14004Y23051
X14024Y21693
X14045Y19612
X14047Y2953
X14051Y7850
X14126Y6693
X14128Y7469
X14165Y5512
X14244Y17087
X14323Y32972
X14677Y20413
X14711Y17106
X14717Y8386
X14819Y17610
X15287Y26555
X15287Y23051
X15307Y25276
X15307Y19626
X15316Y21918
X15317Y18425
X15346Y8307
X15349Y17044
X15376Y6677
X15543Y32835
X15543Y276
X15583Y3858
X15609Y14092
X15685Y30693
X15720Y16169
X15720Y35719
X15740Y31594
X15819Y4961
X15898Y8268
X15976Y472
X16010Y5874
X16240Y16198
X16311Y14311
X16331Y827
X16472Y16584
X16472Y32868
X16567Y3819
X16606Y2992
X16606Y2047
X16646Y8268
X16646Y5866
X16665Y32480
X16835Y5124
X17243Y4600
X17386Y8311
X17394Y5866
X17472Y1299
X17602Y10912
X17669Y30197
X17728Y26890
X17733Y20226
X17768Y21929
X17827Y25236
X17827Y10354
X17906Y4646
X17984Y2953
X18102Y11260
X18142Y8465
X18417Y2165
X18417Y1299
X18436Y37339
X18496Y15866
X18496Y4567
X18516Y8228
X18535Y5394
X18772Y38661
X18772Y9410
X18898Y26937
X18969Y8307
X19205Y4606
X19205Y2165
X19205Y1299
X19224Y6358
X19638Y9606
X19729Y28941
X19910Y17153
X19953Y1299
X19992Y2165
X20071Y31890
X20110Y34685
X20110Y26850
X20150Y29764
X20189Y6693
X20445Y22618
X20503Y19656
X20504Y25394
X20543Y4685
X20858Y19055
X20858Y17126
X20858Y16457
X20878Y22185
X20898Y25000
X20902Y10831
X21016Y1693
X21252Y27047
X21331Y30000
X21331Y28976
X21396Y29527
X21453Y387
X21547Y31516
X21646Y28307
X21708Y10819
X21764Y13543
X21764Y2598
X21803Y2188
X21882Y3031
X21980Y27598
X22039Y5079
X22079Y32165
X22118Y236
X22276Y14055
X22472Y1339
X22512Y591
X22630Y6693
X22728Y30020
X22785Y9064
X22827Y31378
X22984Y38740
X23004Y28091
X23177Y29565
X23260Y11772
X23280Y19957
X23299Y25531
X23299Y22756
X23299Y17756
X23299Y17205
X23339Y23701
X23358Y20942
X23358Y18185
X23358Y15392
X23358Y12673
X23378Y14488
X23496Y26161
X23772Y17744
X23929Y23228
X23929Y14921
X23969Y20433
X23969Y12165
X24008Y28091
X24008Y11102
X24205Y10748
X24402Y20453
X24478Y19958
X24559Y14449
X24579Y13543
X24598Y22756
X24638Y25531
X24638Y9724
X24662Y11571
X24874Y12362
X24953Y26339
X24992Y29567
X25012Y28071
X25032Y10000
X25189Y12677
X25189Y11358
X25268Y10709
X25287Y24252
X25406Y21772
X25425Y16772
X25445Y16004
X25504Y14291
X25583Y30984
X25976Y21772
X25996Y11713
X26094Y24291
X26252Y34945
X26334Y16751
X26823Y9980
X26853Y10954
X27079Y21772
X27394Y30866
X27477Y14259
X27610Y12598
X27771Y10714
X27945Y31496
X28042Y18882
X28220Y13504
X28267Y9866
X28299Y12717
X28496Y16654
X28575Y30827
X28654Y9528
X28693Y13307
X29008Y21220
X29047Y31929
X29165Y19055
X29343Y34980
X29428Y9035
X29441Y29528
X29441Y27205
X29480Y12402
X29480Y24724
X29480Y15827
X29480Y13976
X29480Y9449
X29596Y17417
X29598Y6811
X29638Y1457
X29652Y2683
X29677Y3780
X29697Y4173
X29874Y30866
X30189Y23150
X30266Y38618
X30287Y3720
X30366Y7598
X30425Y18110
X30524Y5169
X30602Y4296
X30602Y3922
X30701Y15118
X30701Y236
X30740Y17717
X30780Y6181
X30803Y9669
X31035Y3821
X31118Y23169
X31370Y2126
X31685Y30866
X31764Y1339
X31813Y4171
X32079Y20276
X32079Y276
X32315Y2441
X32512Y32126
X33102Y20315
X33102Y35276
X33131Y22207
X33220Y30827
X33220Y4567
X33220Y591
X33494Y2593
X33693Y32126
X33693Y29252
X33772Y1339
X33811Y25512
X33929Y394
X34598Y38661
X34677Y28150
X34700Y26690
X34913Y31575
X34953Y2402
X34992Y4646
X35032Y276
X35124Y27907
X35342Y3465
X35543Y35433
X36055Y32126
X36094Y21378
X36173Y28898
X36724Y3150
X36882Y29248
X37000Y21220
X37276Y31457
X37276Y24606
X37469Y3799
X37630Y28622
X37630Y22992
X37866Y25945
X38102Y4449
X38339Y32087
X38890Y4606
X39027Y34945
X39480Y29803
X39749Y27638
X39756Y25984
X39756Y36654
X39874Y354
X40228Y38740
X40268Y25315
X40386Y4567
X40968Y4221
X40976Y24055
X41488Y22244
X41724Y27520
X41921Y31969
X42512Y25866
X43181Y2402
X43339Y22402
X43417Y4567
X43579Y20079
X43614Y27205
X43614Y19154
X43614Y24055
X43772Y21614
X44087Y394
X44165Y23819
X44362Y25315
X44520Y18425
X44520Y17008
X44559Y13819
X44559Y10000
X44598Y12913
X44598Y8740
X44598Y7795
X44598Y3346
X44638Y7047
X44638Y6339
X44677Y20512
X44821Y30360
X45818Y32467
X45898Y8583
X45960Y34663
X45976Y354
X46035Y27067
X46094Y25866
X46173Y15486
X46218Y17562
X46252Y10748
X46370Y26299
X46370Y12835
X46409Y32467
X46409Y17008
X46459Y18150
X46488Y38858
X46488Y21654
X46764Y26693
X46882Y32441
X46961Y433
X47669Y26732
X47925Y15453
X48142Y11575
X48220Y26732
X48496Y8189
X48614Y13228
X48732Y26732
X49480Y394
X50110Y26811
X50110Y13189
X50661Y28248
X50898Y9488
X51055Y35630
X51055Y34646
X51055Y33661
X51055Y28642
X51134Y15354
X51213Y14094
X51311Y6417
X51449Y12638
X51567Y5827
X51724Y29409
X51780Y34137
X52000Y36220
X52039Y13386
X52197Y26772
X52197Y15433
X10788Y665
X10516Y1301
X10730Y1686
X10089Y2115
X10049Y2451
X10246Y3041
X10522Y3297
X10640Y3828
X10246Y4124
X10049Y3632
X10049Y4813
X10049Y6388
X10522Y6368
X11633Y6660
X12680Y6635
X13002Y6347
X14055Y6272
X15167Y6388
X15955Y6388
X15482Y5384
X14837Y5378
X14897Y4132
X15364Y4222
X15532Y3742
X15955Y4025
X15533Y2857
X16229Y2685
X16270Y2293
X16270Y1899
X15588Y1993
X15278Y1504
X15665Y1187
X15268Y757
X14879Y1136
X14804Y1860
X14852Y2293
X13536Y1308
X13536Y679
X12617Y665
X11762Y665
X11985Y1307
X12569Y2332
X12962Y3779
X12215Y3828
X12648Y4338
X13237Y5336
X14183Y7293
X15115Y7360
X15561Y6978
X15955Y7569
X15128Y8356
X13129Y8524
X13087Y8118
X12300Y8108
X12035Y7705
X10598Y7782
X11007Y7147
X10167Y6914
X30434Y32209
X30687Y32057
X30974Y32215
X31329Y32215
X30995Y31213
X30890Y30939
X31103Y30696
X30590Y31246
X31330Y29767
X31329Y28790
X30955Y28790
X30581Y28790
X18514Y30364
X20160Y30337
X19331Y30315
X16807Y29593
X17564Y29584
X18343Y29558
X20172Y29510
X19240Y29508
X18538Y29336
X20144Y29162
X16935Y29075
X18250Y29045
X16801Y28770
X20335Y28714
X18788Y28637
X17542Y28626
X19863Y28472
X18852Y28349
X18829Y28055
X19230Y27813
X18424Y27681
X18750Y27628
X18032Y27618
X16949Y27598
X17321Y27548
X17671Y27508
X18329Y27287
X16801Y26978
X18376Y26909
X18800Y26595
X18514Y26476
X18010Y26378
X19473Y26356
X16961Y26313
X18770Y26290
X20144Y26221
X20085Y25925
X18815Y25742
X20314Y25730
X17441Y25403
X17433Y24927
X17264Y24685
X17677Y24675
X16782Y24659
X17762Y30354
X17368Y30354
X20305Y24675
X19833Y24675
X19361Y24675
X18888Y24675
X14517Y30226
X12549Y30226
X15856Y30187
X14439Y29360
X13376Y29203
X12549Y29085
X15856Y28848
X14950Y28455
X13966Y28415
X13336Y27864
X12549Y27825
X15856Y27431
X15147Y27195
X12549Y27116
X14456Y27030
X12903Y26604
X13769Y26093
X12824Y25856
X15856Y25699
X12549Y25384
X15031Y25066
X14163Y24793
X12824Y24793
X13411Y30354
X13017Y30354
X15954Y24675
X15482Y24675
X15010Y24675
X14537Y24675
X36762Y15748
X33832Y15823
X35502Y15867
X38868Y15867
X38678Y16100
X37398Y16156
X37087Y16156
X34064Y16310
X35655Y16538
X34957Y16630
X37585Y16693
X38518Y16830
X38790Y17122
X33750Y17225
X34387Y17271
X34764Y17313
X36071Y17388
X37308Y17392
X38829Y17668
X36743Y17749
X38032Y17874
X36083Y17934
X35036Y17943
X36793Y18052
X38868Y18150
X33745Y18947
X38061Y19115
X36256Y19405
X35317Y19635
X36817Y19636
X36024Y19637
X35781Y19843
X38967Y19863
X36122Y19921
X34745Y20228
X36880Y20436
X34796Y20525
X38937Y20650
X35443Y20666
X34790Y20835
X38223Y20853
X36841Y20926
X35841Y20985
X35166Y21138
X38140Y21142
X37407Y21443
X34441Y21461
X34140Y21469
X38947Y21841
X34309Y22048
X33724Y22073
X34608Y22082
X33943Y22339
X35585Y22477
X36432Y22523
X36945Y22593
X37845Y22593
X38146Y22593
X38447Y22593
X38748Y22593
X37353Y22597
X35817Y22973
X36034Y23229
X38989Y25304
X37240Y25521
X33987Y25561
X34400Y25709
X37333Y25808
X34981Y25847
X35256Y25847
X35532Y25847
X34420Y26024
X38996Y26044
X34981Y26152
X35256Y26152
X34006Y26349
X34301Y15811
X34695Y15811
X35089Y15811
X35987Y15811
X36387Y15811
X37313Y26280
X37707Y26280
X38101Y26280
X38494Y26280
X31023Y18858
X30547Y18827
X30315Y18637
X30079Y18858
X29842Y18657
X29606Y18858
X29370Y18657
X29134Y18858
X28897Y18657
X28661Y18858
X28425Y18657
X28189Y18858
X27953Y18657
X27716Y18858
X27480Y18657
X27244Y18858
X27008Y18657
X26771Y18858
X26535Y18657
X26299Y18858
X26063Y18657
X25827Y18858
X25590Y18657
X25354Y18858
X25118Y18657
X24882Y18858
X24645Y18657
X24409Y18858
X24173Y18657
X23937Y18858
X23701Y18657
X23464Y18858
X23228Y18657
X22992Y18858
X22756Y18657
X22519Y18858
X22283Y18657
X22047Y18858
X21811Y18657
X21575Y18858
X21338Y18657
X21102Y18858
X20866Y18657
X20630Y18858
X20315Y18700
X20322Y18165
X20749Y17971
X21200Y17961
X21642Y17954
X22115Y17956
X22620Y16909
X22930Y16909
X23177Y17382
X23775Y17179
X24071Y17170
X23914Y16899
X23797Y16217
X24052Y15949
X24149Y15408
X23710Y15408
X23250Y15528
X23250Y15196
X23250Y14901
X23256Y14610
X22926Y13926
X22381Y13930
X22519Y13346
X23149Y13425
X23219Y12593
X23234Y12207
X23582Y12401
X23816Y12601
X24073Y12168
X24766Y11867
X25364Y11850
X25711Y12146
X26486Y11971
X26468Y12526
X26478Y13073
X27186Y12946
X27141Y12147
X27167Y11382
X27189Y10572
X26486Y10532
X26486Y10817
X26486Y11102
X26486Y10231
X25698Y9915
X25711Y9630
X25743Y9332
X25693Y8850
X25289Y8799
X24659Y8321
X24282Y8333
X23346Y8189
X23021Y8789
X22813Y8586
X22831Y9113
X22473Y9160
X23024Y9344
X23230Y10487
X23453Y10716
X23499Y11399
X23790Y11410
X23303Y11618
X22634Y11618
X21768Y11807
X21574Y12021
X21370Y12225
X21168Y12427
X21171Y11614
X21618Y11149
X21631Y10448
X21255Y10546
X21378Y10078
X21580Y9541
X21340Y9315
X21146Y8917
X21338Y8661
X21439Y8278
X21479Y7972
X21181Y8070
X20677Y8272
X20621Y8573
X20677Y9135
X20530Y9380
X20787Y9763
X20805Y10254
X19577Y10646
X19267Y10960
X19449Y11181
X19484Y11701
X18031Y11771
X18031Y11456
X18031Y11141
X18031Y10826
X18031Y10511
X18031Y10196
X18031Y9882
X18170Y9604
X18031Y9330
X18031Y9015
X18031Y8700
X18031Y8385
X18031Y8070
X18031Y7756
X18388Y7668
X18171Y7424
X18480Y6722
X18484Y5787
X18857Y5743
X18859Y6028
X19232Y5787
X19134Y4921
X19449Y4921
X19764Y4921
X20079Y4921
X20393Y4921
X20708Y4921
X21023Y4921
X21338Y4921
X21653Y4921
X22244Y5118
X22598Y4921
X22913Y4921
X23228Y4921
X23543Y4921
X23858Y4921
X24173Y4921
X24488Y4921
X24803Y4921
X25118Y4921
X25630Y4960
X25536Y5615
X25934Y5651
X26279Y5606
X26558Y5908
X26500Y5153
X26811Y4921
X27874Y4921
X28268Y4921
X28629Y4945
X28621Y5408
X28851Y5853
X28932Y6726
X29372Y6503
X28186Y6191
X27723Y5872
X27766Y6723
X27323Y6771
X26838Y7199
X26830Y7484
X26762Y7844
X26759Y8140
X27489Y8041
X27480Y8425
X27489Y8750
X27150Y9078
X27489Y9458
X27473Y9810
X27493Y10105
X27176Y9787
X28171Y9359
X28174Y8915
X29350Y9059
X29330Y9580
X29331Y9969
X28506Y10434
X28206Y10395
X28183Y10848
X28183Y11135
X28183Y11422
X28183Y11838
X28183Y12124
X28165Y12548
X28165Y12856
X28165Y13145
X27941Y13885
X27661Y13980
X27349Y14375
X27647Y14695
X27647Y15261
X27654Y15547
X27563Y16208
X27766Y16953
X27598Y17185
X27898Y17220
X28523Y17384
X28819Y17384
X29445Y17179
X29731Y17179
X29567Y16896
X29463Y16220
X29622Y15951
X29802Y15374
X29326Y15374
X28840Y15528
X28840Y15196
X28840Y14901
X28847Y14610
X29610Y14388
X29606Y14011
X30409Y14003
X30382Y14337
X30677Y13905
X31156Y13862
X31181Y13267
X31181Y12874
X31181Y12480
X31181Y12086
X31181Y11693
X31181Y11299
X31181Y10905
X31181Y10511
X31142Y9882
X31181Y9488
X31181Y9173
X31181Y8799
X31053Y8316
X31142Y7952
X31181Y7322
X30897Y7212
X31181Y6771
X31160Y5609
X31181Y4921
X30157Y8189
X30031Y8484
X29162Y7999
X27170Y7707
X26293Y7259
X26161Y6870
X25823Y6941
X25400Y7263
X24960Y7362
X24219Y7284
X23691Y6348
X23551Y6069
X23480Y5762
X23218Y6452
X22387Y6423
X22195Y6098
X21451Y6444
X21525Y7292
X21231Y7292
X20940Y7292
X19754Y7234
X19724Y6771
X19999Y6240
X20025Y5336
X21135Y5209
X18819Y4921
X18504Y4921
X18189Y4921
X19383Y7825
X19539Y8064
X19311Y8356
X19094Y8783
X19535Y8781
X19633Y9465
X19117Y9754
X18841Y9200
X18830Y10409
X18031Y12086
X18031Y12401
X18031Y12716
X18031Y13031
X18031Y13346
X18031Y13661
X18031Y13976
X18031Y14291
X18031Y14606
X18550Y15220
X18110Y15826
X18031Y16299
X18602Y16897
X18602Y17216
X18602Y17534
X18602Y17852
X18602Y18171
X18966Y18497
X18248Y18540
X19844Y17709
X19711Y17130
X20275Y16220
X20508Y15516
X20494Y15196
X20499Y14908
X20500Y14610
X21287Y14388
X21296Y13975
X21806Y14360
X22096Y14576
X22096Y15149
X22059Y15535
X21455Y15401
X20955Y15408
X21295Y15954
X21174Y16620
X21491Y16620
X21837Y16620
X20827Y16631
X22638Y16220
X24854Y15535
X24852Y15136
X24852Y14697
X24770Y14313
X24043Y14335
X24094Y14053
X25236Y13921
X25560Y13913
X25582Y13421
X25992Y13701
X26063Y14530
X26040Y14901
X26053Y15196
X26063Y15696
X26358Y15433
X27027Y15388
X26827Y15930
X26898Y16806
X26667Y17386
X25957Y17179
X25665Y17179
X25807Y16889
X25684Y16220
X25038Y17340
X24710Y17391
X26705Y14382
X26904Y13976
X28517Y13926
X29051Y13307
X29051Y12546
X29051Y11785
X29050Y11023
X25367Y11076
X25571Y10751
X25409Y9863
X26488Y8763
X25689Y6140
X25245Y6236
X25152Y6506
X24949Y6143
X22443Y7485
X22385Y7768
X20812Y13301
X20433Y12952
X19346Y13097
X19395Y13826
X19707Y13794
X20170Y13926
X18635Y13619
X24957Y12564
X30443Y15108
X30405Y15573
X30687Y15895
X31178Y15934
X30580Y16486
X30846Y16798
X31181Y17480
X31181Y17874
X31161Y18459
X30590Y18267
X30393Y17384
X31053Y14576
X12805Y18839
X12598Y18495
X13100Y18376
X14498Y18406
T02
X13496Y37992
X13496Y1378
X13773Y38660
X13773Y37324
X13773Y2046
X13773Y710
X14441Y38937
X14441Y37047
X14441Y2323
X14441Y433
X15109Y38660
X15109Y37324
X15109Y2046
X15109Y710
X15386Y37992
X15386Y1378
X50110Y37992
X50110Y1378
X50387Y38660
X50387Y37324
X50387Y2046
X50387Y710
X51055Y38937
X51055Y37047
X51055Y2323
X51055Y433
X51723Y38660
X51723Y37324
X51723Y2046
X51723Y710
X52000Y37992
X52000Y1378
X31047Y3014G85X31047Y2581
X31047Y1270G85X31047Y1033
X34449Y3014G85X34449Y2581
X34449Y1270G85X34449Y1033
T03
X35701Y2165
X35701Y1535
X36390Y2480
X36390Y1850
X36390Y1220
X35789Y3287G85X36301Y3287
X35789Y413G85X36301Y413
X31610Y2600
X33886Y2600
T04
X20307Y7657
X20307Y5728
X20366Y8898
X21173Y7657
X21173Y5728
X22039Y7657
X22039Y5728
X22295Y8898
X30179Y2549
X30179Y1049
X36489Y27697
X36489Y26697
X36489Y25697
X36489Y24697
X36489Y23697
X36489Y22697
X45740Y5118
X45740Y4134
X45740Y3150
X45740Y2165
X45740Y1181
X25086Y13563
X23508Y13563
X22086Y13563
T05
X14244Y4528
X15244Y4528
X16244Y4528
X22118Y4331
X23053Y8376
X23053Y7648
X23053Y5699
X23053Y955
X25661Y22638
X26803Y22638
X28441Y18110
X28614Y23669
X28614Y22669
X28614Y21669
X28614Y20669
X28614Y19669
X29156Y8199
X29156Y5679
X29156Y4931
X29156Y3238
X29156Y778
X29441Y18110
X29614Y23669
X29614Y22669
X29614Y21669
X29614Y20669
X29614Y19669
X30614Y23669
X30614Y22669
X30614Y21669
X30614Y20669
X30614Y19669
X31614Y23669
X31614Y22669
X31614Y21669
X31614Y20669
X31614Y19669
X32614Y23669
X32614Y22669
X32614Y21669
X32614Y20669
X32614Y19669
X33614Y23669
X33614Y22669
X33614Y21669
X33614Y20669
X33614Y19669
X37669Y2953
X37669Y984
X45819Y9449
X45819Y7598
X46705Y14921
X47705Y14921
X48705Y14921
X49705Y14921
X50705Y14921
X51705Y14921
X9990Y954
X9990Y5699
X16093Y5679
X16093Y4931
X16093Y3238
X16093Y777
X16093Y8199
X9990Y8376
X9990Y7647
X37983Y23134
X36801Y23922
X37983Y24709
X38061Y16008
X37661Y18008
X38461Y18008
X30866Y5236
X21787Y6207
X21787Y5407
X19787Y5807
T06
X34174Y22957
X34174Y23957
X34174Y24957
T07
X4480Y33947
X4480Y32766
X4480Y31585
X4480Y30404
X4480Y29222
X4480Y28041
X4480Y26860
X4480Y25679
X4480Y24498
X4530Y14439
X4530Y13258
X4530Y12077
X4530Y10896
X4530Y9715
X4530Y8533
X4530Y7352
X4530Y6171
X4530Y4990
X5858Y33356
X5858Y32175
X5858Y30994
X5858Y29813
X5858Y28632
X5858Y27451
X5858Y26270
X5858Y25089
X5907Y13848
X5907Y12667
X5907Y11486
X5907Y10305
X5907Y9124
X5907Y7943
X5907Y6762
X5907Y5581
X7433Y33356
X7433Y32175
X7433Y30994
X7433Y29813
X7433Y28632
X7433Y27451
X7433Y26270
X7433Y25089
X7482Y13848
X7482Y12667
X7482Y11486
X7482Y10305
X7482Y9124
X7482Y7943
X7482Y6762
X7482Y5581
X8811Y33947
X8811Y32766
X8811Y31585
X8811Y30404
X8811Y29222
X8811Y28041
X8811Y26860
X8811Y25679
X8811Y24498
X8860Y14439
X8860Y13258
X8860Y12077
X8860Y10896
X8860Y9715
X8860Y8533
X8860Y7352
X8860Y6171
X8860Y4990
T08
X49283Y11457
X49283Y8504
T09
X6350Y35030
X6350Y23415
X6400Y15522
X6400Y3907
T10
X38307Y22362
X38457Y28268
X41489Y29697
X41489Y20697
T11
X14441Y37992
X14441Y1378
X51055Y37992
X51055Y1378
X6646Y36998
X6646Y21447
X6695Y17490
X6695Y1939
M30
