G75*
G70*
%OFA0B0*%
%FSLAX25Y25*%
%IPPOS*%
%LPD*%
%AMOC8*
5,1,8,0,0,1.08239X$1,22.5*
%
%AMM1*
21,1,0.086610,0.073230,0.000000,0.000000,270.000000*
21,1,0.069290,0.090550,0.000000,0.000000,270.000000*
1,1,0.017320,-0.036610,-0.034650*
1,1,0.017320,-0.036610,0.034650*
1,1,0.017320,0.036610,0.034650*
1,1,0.017320,0.036610,-0.034650*
%
%AMM10*
21,1,0.015750,0.016540,0.000000,0.000000,270.000000*
21,1,0.012600,0.019680,0.000000,0.000000,270.000000*
1,1,0.003150,-0.008270,-0.006300*
1,1,0.003150,-0.008270,0.006300*
1,1,0.003150,0.008270,0.006300*
1,1,0.003150,0.008270,-0.006300*
%
%AMM11*
21,1,0.023620,0.018900,0.000000,0.000000,90.000000*
21,1,0.018900,0.023620,0.000000,0.000000,90.000000*
1,1,0.004720,0.009450,0.009450*
1,1,0.004720,0.009450,-0.009450*
1,1,0.004720,-0.009450,-0.009450*
1,1,0.004720,-0.009450,0.009450*
%
%AMM117*
21,1,0.021650,0.052760,0.000000,-0.000000,180.000000*
21,1,0.017320,0.057090,0.000000,-0.000000,180.000000*
1,1,0.004330,-0.008660,0.026380*
1,1,0.004330,0.008660,0.026380*
1,1,0.004330,0.008660,-0.026380*
1,1,0.004330,-0.008660,-0.026380*
%
%AMM12*
21,1,0.019680,0.019680,0.000000,0.000000,0.000000*
21,1,0.015750,0.023620,0.000000,0.000000,0.000000*
1,1,0.003940,0.007870,-0.009840*
1,1,0.003940,-0.007870,-0.009840*
1,1,0.003940,-0.007870,0.009840*
1,1,0.003940,0.007870,0.009840*
%
%AMM13*
21,1,0.019680,0.019680,0.000000,0.000000,270.000000*
21,1,0.015750,0.023620,0.000000,0.000000,270.000000*
1,1,0.003940,-0.009840,-0.007870*
1,1,0.003940,-0.009840,0.007870*
1,1,0.003940,0.009840,0.007870*
1,1,0.003940,0.009840,-0.007870*
%
%AMM185*
21,1,0.025590,0.026380,-0.000000,-0.000000,90.000000*
21,1,0.020470,0.031500,-0.000000,-0.000000,90.000000*
1,1,0.005120,0.013190,0.010240*
1,1,0.005120,0.013190,-0.010240*
1,1,0.005120,-0.013190,-0.010240*
1,1,0.005120,-0.013190,0.010240*
%
%AMM186*
21,1,0.017720,0.027950,-0.000000,-0.000000,90.000000*
21,1,0.014170,0.031500,-0.000000,-0.000000,90.000000*
1,1,0.003540,0.013980,0.007090*
1,1,0.003540,0.013980,-0.007090*
1,1,0.003540,-0.013980,-0.007090*
1,1,0.003540,-0.013980,0.007090*
%
%AMM187*
21,1,0.012600,0.028980,-0.000000,-0.000000,270.000000*
21,1,0.010080,0.031500,-0.000000,-0.000000,270.000000*
1,1,0.002520,-0.014490,-0.005040*
1,1,0.002520,-0.014490,0.005040*
1,1,0.002520,0.014490,0.005040*
1,1,0.002520,0.014490,-0.005040*
%
%AMM188*
21,1,0.023620,0.030710,-0.000000,-0.000000,0.000000*
21,1,0.018900,0.035430,-0.000000,-0.000000,0.000000*
1,1,0.004720,0.009450,-0.015350*
1,1,0.004720,-0.009450,-0.015350*
1,1,0.004720,-0.009450,0.015350*
1,1,0.004720,0.009450,0.015350*
%
%AMM189*
21,1,0.027560,0.018900,-0.000000,-0.000000,270.000000*
21,1,0.022840,0.023620,-0.000000,-0.000000,270.000000*
1,1,0.004720,-0.009450,-0.011420*
1,1,0.004720,-0.009450,0.011420*
1,1,0.004720,0.009450,0.011420*
1,1,0.004720,0.009450,-0.011420*
%
%AMM190*
21,1,0.031500,0.072440,-0.000000,-0.000000,270.000000*
21,1,0.025200,0.078740,-0.000000,-0.000000,270.000000*
1,1,0.006300,-0.036220,-0.012600*
1,1,0.006300,-0.036220,0.012600*
1,1,0.006300,0.036220,0.012600*
1,1,0.006300,0.036220,-0.012600*
%
%AMM191*
21,1,0.027560,0.018900,-0.000000,-0.000000,0.000000*
21,1,0.022840,0.023620,-0.000000,-0.000000,0.000000*
1,1,0.004720,0.011420,-0.009450*
1,1,0.004720,-0.011420,-0.009450*
1,1,0.004720,-0.011420,0.009450*
1,1,0.004720,0.011420,0.009450*
%
%AMM192*
21,1,0.023620,0.030710,-0.000000,-0.000000,90.000000*
21,1,0.018900,0.035430,-0.000000,-0.000000,90.000000*
1,1,0.004720,0.015350,0.009450*
1,1,0.004720,0.015350,-0.009450*
1,1,0.004720,-0.015350,-0.009450*
1,1,0.004720,-0.015350,0.009450*
%
%AMM193*
21,1,0.035430,0.030320,-0.000000,-0.000000,90.000000*
21,1,0.028350,0.037400,-0.000000,-0.000000,90.000000*
1,1,0.007090,0.015160,0.014170*
1,1,0.007090,0.015160,-0.014170*
1,1,0.007090,-0.015160,-0.014170*
1,1,0.007090,-0.015160,0.014170*
%
%AMM194*
21,1,0.043310,0.075980,-0.000000,-0.000000,180.000000*
21,1,0.034650,0.084650,-0.000000,-0.000000,180.000000*
1,1,0.008660,-0.017320,0.037990*
1,1,0.008660,0.017320,0.037990*
1,1,0.008660,0.017320,-0.037990*
1,1,0.008660,-0.017320,-0.037990*
%
%AMM195*
21,1,0.039370,0.035430,-0.000000,-0.000000,180.000000*
21,1,0.031500,0.043310,-0.000000,-0.000000,180.000000*
1,1,0.007870,-0.015750,0.017720*
1,1,0.007870,0.015750,0.017720*
1,1,0.007870,0.015750,-0.017720*
1,1,0.007870,-0.015750,-0.017720*
%
%AMM196*
21,1,0.027560,0.030710,-0.000000,-0.000000,180.000000*
21,1,0.022050,0.036220,-0.000000,-0.000000,180.000000*
1,1,0.005510,-0.011020,0.015350*
1,1,0.005510,0.011020,0.015350*
1,1,0.005510,0.011020,-0.015350*
1,1,0.005510,-0.011020,-0.015350*
%
%AMM197*
21,1,0.031500,0.072440,-0.000000,-0.000000,180.000000*
21,1,0.025200,0.078740,-0.000000,-0.000000,180.000000*
1,1,0.006300,-0.012600,0.036220*
1,1,0.006300,0.012600,0.036220*
1,1,0.006300,0.012600,-0.036220*
1,1,0.006300,-0.012600,-0.036220*
%
%AMM198*
21,1,0.137800,0.067720,-0.000000,-0.000000,180.000000*
21,1,0.120870,0.084650,-0.000000,-0.000000,180.000000*
1,1,0.016930,-0.060430,0.033860*
1,1,0.016930,0.060430,0.033860*
1,1,0.016930,0.060430,-0.033860*
1,1,0.016930,-0.060430,-0.033860*
%
%AMM199*
21,1,0.043310,0.075990,-0.000000,-0.000000,180.000000*
21,1,0.034650,0.084650,-0.000000,-0.000000,180.000000*
1,1,0.008660,-0.017320,0.037990*
1,1,0.008660,0.017320,0.037990*
1,1,0.008660,0.017320,-0.037990*
1,1,0.008660,-0.017320,-0.037990*
%
%AMM2*
21,1,0.094490,0.111020,0.000000,0.000000,0.000000*
21,1,0.075590,0.129920,0.000000,0.000000,0.000000*
1,1,0.018900,0.037800,-0.055510*
1,1,0.018900,-0.037800,-0.055510*
1,1,0.018900,-0.037800,0.055510*
1,1,0.018900,0.037800,0.055510*
%
%AMM200*
21,1,0.086610,0.073230,-0.000000,-0.000000,270.000000*
21,1,0.069290,0.090550,-0.000000,-0.000000,270.000000*
1,1,0.017320,-0.036610,-0.034650*
1,1,0.017320,-0.036610,0.034650*
1,1,0.017320,0.036610,0.034650*
1,1,0.017320,0.036610,-0.034650*
%
%AMM251*
21,1,0.035430,0.030320,0.000000,-0.000000,90.000000*
21,1,0.028350,0.037400,0.000000,-0.000000,90.000000*
1,1,0.007090,0.015160,0.014170*
1,1,0.007090,0.015160,-0.014170*
1,1,0.007090,-0.015160,-0.014170*
1,1,0.007090,-0.015160,0.014170*
%
%AMM252*
21,1,0.033470,0.026770,0.000000,-0.000000,270.000000*
21,1,0.026770,0.033470,0.000000,-0.000000,270.000000*
1,1,0.006690,-0.013390,-0.013390*
1,1,0.006690,-0.013390,0.013390*
1,1,0.006690,0.013390,0.013390*
1,1,0.006690,0.013390,-0.013390*
%
%AMM253*
21,1,0.027560,0.030710,0.000000,-0.000000,90.000000*
21,1,0.022050,0.036220,0.000000,-0.000000,90.000000*
1,1,0.005510,0.015350,0.011020*
1,1,0.005510,0.015350,-0.011020*
1,1,0.005510,-0.015350,-0.011020*
1,1,0.005510,-0.015350,0.011020*
%
%AMM3*
21,1,0.074800,0.083460,0.000000,0.000000,0.000000*
21,1,0.059840,0.098430,0.000000,0.000000,0.000000*
1,1,0.014960,0.029920,-0.041730*
1,1,0.014960,-0.029920,-0.041730*
1,1,0.014960,-0.029920,0.041730*
1,1,0.014960,0.029920,0.041730*
%
%AMM4*
21,1,0.078740,0.053540,0.000000,0.000000,180.000000*
21,1,0.065350,0.066930,0.000000,0.000000,180.000000*
1,1,0.013390,-0.032680,0.026770*
1,1,0.013390,0.032680,0.026770*
1,1,0.013390,0.032680,-0.026770*
1,1,0.013390,-0.032680,-0.026770*
%
%AMM5*
21,1,0.035430,0.030320,0.000000,0.000000,90.000000*
21,1,0.028350,0.037400,0.000000,0.000000,90.000000*
1,1,0.007090,0.015160,0.014170*
1,1,0.007090,0.015160,-0.014170*
1,1,0.007090,-0.015160,-0.014170*
1,1,0.007090,-0.015160,0.014170*
%
%AMM6*
21,1,0.021650,0.052760,0.000000,0.000000,270.000000*
21,1,0.017320,0.057090,0.000000,0.000000,270.000000*
1,1,0.004330,-0.026380,-0.008660*
1,1,0.004330,-0.026380,0.008660*
1,1,0.004330,0.026380,0.008660*
1,1,0.004330,0.026380,-0.008660*
%
%AMM7*
21,1,0.035830,0.026770,0.000000,0.000000,0.000000*
21,1,0.029130,0.033470,0.000000,0.000000,0.000000*
1,1,0.006690,0.014570,-0.013390*
1,1,0.006690,-0.014570,-0.013390*
1,1,0.006690,-0.014570,0.013390*
1,1,0.006690,0.014570,0.013390*
%
%AMM8*
21,1,0.070870,0.036220,0.000000,0.000000,90.000000*
21,1,0.061810,0.045280,0.000000,0.000000,90.000000*
1,1,0.009060,0.018110,0.030910*
1,1,0.009060,0.018110,-0.030910*
1,1,0.009060,-0.018110,-0.030910*
1,1,0.009060,-0.018110,0.030910*
%
%AMM9*
21,1,0.033470,0.026770,0.000000,0.000000,0.000000*
21,1,0.026770,0.033470,0.000000,0.000000,0.000000*
1,1,0.006690,0.013390,-0.013390*
1,1,0.006690,-0.013390,-0.013390*
1,1,0.006690,-0.013390,0.013390*
1,1,0.006690,0.013390,0.013390*
%
%ADD103M1*%
%ADD104M2*%
%ADD105M3*%
%ADD106M4*%
%ADD107M5*%
%ADD108M6*%
%ADD109M7*%
%ADD110M8*%
%ADD111M9*%
%ADD112M10*%
%ADD113M11*%
%ADD114M12*%
%ADD115M13*%
%ADD155R,0.02559X0.01575*%
%ADD156R,0.01575X0.02559*%
%ADD159R,0.03543X0.03150*%
%ADD163R,0.03150X0.03543*%
%ADD183O,0.04724X0.00866*%
%ADD184O,0.00866X0.04724*%
%ADD185O,0.04331X0.01181*%
%ADD188R,0.01378X0.00984*%
%ADD189R,0.00984X0.01378*%
%ADD194O,0.08661X0.02362*%
%ADD22C,0.03150*%
%ADD26C,0.02362*%
%ADD299M117*%
%ADD309R,0.01181X0.05512*%
%ADD310R,0.08661X0.04724*%
%ADD314R,0.12008X0.10827*%
%ADD337O,0.02362X0.08661*%
%ADD395M185*%
%ADD396M186*%
%ADD397M187*%
%ADD398M188*%
%ADD399M189*%
%ADD400M190*%
%ADD401M191*%
%ADD402M192*%
%ADD403M193*%
%ADD404M194*%
%ADD405M195*%
%ADD406M196*%
%ADD407M197*%
%ADD408M198*%
%ADD409M199*%
%ADD410M200*%
%ADD462M251*%
%ADD463M252*%
%ADD464M253*%
%ADD53R,0.05118X0.03937*%
%ADD54R,0.07874X0.02559*%
%ADD56R,0.00787X0.14567*%
%ADD57R,0.00787X0.01575*%
%ADD58R,0.00787X0.06299*%
%ADD59R,0.00787X0.38189*%
%ADD60R,0.00787X0.09055*%
%ADD61R,0.05512X0.00787*%
%ADD62R,0.25197X0.00787*%
%ADD63R,0.06693X0.00787*%
%ADD64R,0.12992X0.00787*%
%ADD65R,0.00787X0.27559*%
%ADD66R,0.00787X0.12992*%
%ADD67R,0.00787X0.24803*%
%ADD68R,0.01181X0.04528*%
%ADD74R,0.02717X0.05315*%
%ADD83O,0.00000X0.00000*%
%ADD84R,0.07677X0.04567*%
X0000000Y0000000D02*
%LPD*%
G01*
G36*
G01*
X0511535Y0334154D02*
X0511535Y0339075D01*
G75*
G02*
X0511929Y0339469I0000394J0000000D01*
G01*
X0515079Y0339469D01*
G75*
G02*
X0515472Y0339075I0000000J-000394D01*
G01*
X0515472Y0334154D01*
G75*
G02*
X0515079Y0333760I-000394J0000000D01*
G01*
X0511929Y0333760D01*
G75*
G02*
X0511535Y0334154I0000000J0000394D01*
G01*
G37*
G36*
G01*
X0519016Y0334154D02*
X0519016Y0339075D01*
G75*
G02*
X0519409Y0339469I0000394J0000000D01*
G01*
X0522559Y0339469D01*
G75*
G02*
X0522953Y0339075I0000000J-000394D01*
G01*
X0522953Y0334154D01*
G75*
G02*
X0522559Y0333760I-000394J0000000D01*
G01*
X0519409Y0333760D01*
G75*
G02*
X0519016Y0334154I0000000J0000394D01*
G01*
G37*
G36*
G01*
X0243917Y0295709D02*
X0243917Y0294528D01*
G75*
G02*
X0243327Y0293937I-000591J0000000D01*
G01*
X0236830Y0293937D01*
G75*
G02*
X0236240Y0294528I0000000J0000591D01*
G01*
X0236240Y0295709D01*
G75*
G02*
X0236830Y0296300I0000591J0000000D01*
G01*
X0243327Y0296300D01*
G75*
G02*
X0243917Y0295709I0000000J-000591D01*
G01*
G37*
G36*
G01*
X0243917Y0300709D02*
X0243917Y0299528D01*
G75*
G02*
X0243327Y0298937I-000591J0000000D01*
G01*
X0236830Y0298937D01*
G75*
G02*
X0236240Y0299528I0000000J0000591D01*
G01*
X0236240Y0300709D01*
G75*
G02*
X0236830Y0301300I0000591J0000000D01*
G01*
X0243327Y0301300D01*
G75*
G02*
X0243917Y0300709I0000000J-000591D01*
G01*
G37*
G36*
G01*
X0243917Y0305709D02*
X0243917Y0304528D01*
G75*
G02*
X0243327Y0303937I-000591J0000000D01*
G01*
X0236830Y0303937D01*
G75*
G02*
X0236240Y0304528I0000000J0000591D01*
G01*
X0236240Y0305709D01*
G75*
G02*
X0236830Y0306300I0000591J0000000D01*
G01*
X0243327Y0306300D01*
G75*
G02*
X0243917Y0305709I0000000J-000591D01*
G01*
G37*
G36*
G01*
X0243917Y0310709D02*
X0243917Y0309528D01*
G75*
G02*
X0243327Y0308937I-000591J0000000D01*
G01*
X0236830Y0308937D01*
G75*
G02*
X0236240Y0309528I0000000J0000591D01*
G01*
X0236240Y0310709D01*
G75*
G02*
X0236830Y0311300I0000591J0000000D01*
G01*
X0243327Y0311300D01*
G75*
G02*
X0243917Y0310709I0000000J-000591D01*
G01*
G37*
G36*
G01*
X0224429Y0310709D02*
X0224429Y0309528D01*
G75*
G02*
X0223838Y0308937I-000591J0000000D01*
G01*
X0217342Y0308937D01*
G75*
G02*
X0216752Y0309528I0000000J0000591D01*
G01*
X0216752Y0310709D01*
G75*
G02*
X0217342Y0311300I0000591J0000000D01*
G01*
X0223838Y0311300D01*
G75*
G02*
X0224429Y0310709I0000000J-000591D01*
G01*
G37*
G36*
G01*
X0224429Y0305709D02*
X0224429Y0304528D01*
G75*
G02*
X0223838Y0303937I-000591J0000000D01*
G01*
X0217342Y0303937D01*
G75*
G02*
X0216752Y0304528I0000000J0000591D01*
G01*
X0216752Y0305709D01*
G75*
G02*
X0217342Y0306300I0000591J0000000D01*
G01*
X0223838Y0306300D01*
G75*
G02*
X0224429Y0305709I0000000J-000591D01*
G01*
G37*
G36*
G01*
X0224429Y0300709D02*
X0224429Y0299528D01*
G75*
G02*
X0223838Y0298937I-000591J0000000D01*
G01*
X0217342Y0298937D01*
G75*
G02*
X0216752Y0299528I0000000J0000591D01*
G01*
X0216752Y0300709D01*
G75*
G02*
X0217342Y0301300I0000591J0000000D01*
G01*
X0223838Y0301300D01*
G75*
G02*
X0224429Y0300709I0000000J-000591D01*
G01*
G37*
G36*
G01*
X0224429Y0295709D02*
X0224429Y0294528D01*
G75*
G02*
X0223838Y0293937I-000591J0000000D01*
G01*
X0217342Y0293937D01*
G75*
G02*
X0216752Y0294528I0000000J0000591D01*
G01*
X0216752Y0295709D01*
G75*
G02*
X0217342Y0296300I0000591J0000000D01*
G01*
X0223838Y0296300D01*
G75*
G02*
X0224429Y0295709I0000000J-000591D01*
G01*
G37*
G36*
G01*
X0159212Y0040217D02*
X0161890Y0040217D01*
G75*
G02*
X0162224Y0039882I0000000J-000335D01*
G01*
X0162224Y0037205D01*
G75*
G02*
X0161890Y0036870I-000335J0000000D01*
G01*
X0159212Y0036870D01*
G75*
G02*
X0158878Y0037205I0000000J0000335D01*
G01*
X0158878Y0039882D01*
G75*
G02*
X0159212Y0040217I0000335J0000000D01*
G01*
G37*
G36*
G01*
X0159212Y0033996D02*
X0161890Y0033996D01*
G75*
G02*
X0162224Y0033662I0000000J-000335D01*
G01*
X0162224Y0030985D01*
G75*
G02*
X0161890Y0030650I-000335J0000000D01*
G01*
X0159212Y0030650D01*
G75*
G02*
X0158878Y0030985I0000000J0000335D01*
G01*
X0158878Y0033662D01*
G75*
G02*
X0159212Y0033996I0000335J0000000D01*
G01*
G37*
G36*
G01*
X0511535Y0343996D02*
X0511535Y0348918D01*
G75*
G02*
X0511929Y0349311I0000394J0000000D01*
G01*
X0515079Y0349311D01*
G75*
G02*
X0515472Y0348918I0000000J-000394D01*
G01*
X0515472Y0343996D01*
G75*
G02*
X0515079Y0343603I-000394J0000000D01*
G01*
X0511929Y0343603D01*
G75*
G02*
X0511535Y0343996I0000000J0000394D01*
G01*
G37*
G36*
G01*
X0519016Y0343996D02*
X0519016Y0348918D01*
G75*
G02*
X0519409Y0349311I0000394J0000000D01*
G01*
X0522559Y0349311D01*
G75*
G02*
X0522953Y0348918I0000000J-000394D01*
G01*
X0522953Y0343996D01*
G75*
G02*
X0522559Y0343603I-000394J0000000D01*
G01*
X0519409Y0343603D01*
G75*
G02*
X0519016Y0343996I0000000J0000394D01*
G01*
G37*
G36*
G01*
X0244016Y0155788D02*
X0244016Y0153032D01*
G75*
G02*
X0243031Y0152048I-000984J0000000D01*
G01*
X0236338Y0152048D01*
G75*
G02*
X0235354Y0153032I0000000J0000984D01*
G01*
X0235354Y0155788D01*
G75*
G02*
X0236338Y0156772I0000984J0000000D01*
G01*
X0243031Y0156772D01*
G75*
G02*
X0244016Y0155788I0000000J-000984D01*
G01*
G37*
G36*
G01*
X0227480Y0161811D02*
X0227480Y0152953D01*
G75*
G02*
X0226496Y0151969I-000984J0000000D01*
G01*
X0216456Y0151969D01*
G75*
G02*
X0215472Y0152953I0000000J0000984D01*
G01*
X0215472Y0161811D01*
G75*
G02*
X0216456Y0162796I0000984J0000000D01*
G01*
X0226496Y0162796D01*
G75*
G02*
X0227480Y0161811I0000000J-000984D01*
G01*
G37*
G36*
G01*
X0227480Y0173819D02*
X0227480Y0164961D01*
G75*
G02*
X0226496Y0163977I-000984J0000000D01*
G01*
X0216456Y0163977D01*
G75*
G02*
X0215472Y0164961I0000000J0000984D01*
G01*
X0215472Y0173819D01*
G75*
G02*
X0216456Y0174804I0000984J0000000D01*
G01*
X0226496Y0174804D01*
G75*
G02*
X0227480Y0173819I0000000J-000984D01*
G01*
G37*
G36*
G01*
X0214291Y0161811D02*
X0214291Y0152953D01*
G75*
G02*
X0213307Y0151969I-000984J0000000D01*
G01*
X0203268Y0151969D01*
G75*
G02*
X0202283Y0152953I0000000J0000984D01*
G01*
X0202283Y0161811D01*
G75*
G02*
X0203268Y0162796I0000984J0000000D01*
G01*
X0213307Y0162796D01*
G75*
G02*
X0214291Y0161811I0000000J-000984D01*
G01*
G37*
G36*
G01*
X0214291Y0173819D02*
X0214291Y0164961D01*
G75*
G02*
X0213307Y0163977I-000984J0000000D01*
G01*
X0203268Y0163977D01*
G75*
G02*
X0202283Y0164961I0000000J0000984D01*
G01*
X0202283Y0173819D01*
G75*
G02*
X0203268Y0174804I0000984J0000000D01*
G01*
X0213307Y0174804D01*
G75*
G02*
X0214291Y0173819I0000000J-000984D01*
G01*
G37*
G36*
G01*
X0244016Y0173741D02*
X0244016Y0170985D01*
G75*
G02*
X0243031Y0170000I-000984J0000000D01*
G01*
X0236338Y0170000D01*
G75*
G02*
X0235354Y0170985I0000000J0000984D01*
G01*
X0235354Y0173741D01*
G75*
G02*
X0236338Y0174725I0000984J0000000D01*
G01*
X0243031Y0174725D01*
G75*
G02*
X0244016Y0173741I0000000J-000984D01*
G01*
G37*
G36*
G01*
X0244016Y0238465D02*
X0244016Y0235709D01*
G75*
G02*
X0243031Y0234725I-000984J0000000D01*
G01*
X0236338Y0234725D01*
G75*
G02*
X0235354Y0235709I0000000J0000984D01*
G01*
X0235354Y0238465D01*
G75*
G02*
X0236338Y0239449I0000984J0000000D01*
G01*
X0243031Y0239449D01*
G75*
G02*
X0244016Y0238465I0000000J-000984D01*
G01*
G37*
G36*
G01*
X0227480Y0244489D02*
X0227480Y0235630D01*
G75*
G02*
X0226496Y0234646I-000984J0000000D01*
G01*
X0216456Y0234646D01*
G75*
G02*
X0215472Y0235630I0000000J0000984D01*
G01*
X0215472Y0244489D01*
G75*
G02*
X0216456Y0245473I0000984J0000000D01*
G01*
X0226496Y0245473D01*
G75*
G02*
X0227480Y0244489I0000000J-000984D01*
G01*
G37*
G36*
G01*
X0227480Y0256496D02*
X0227480Y0247638D01*
G75*
G02*
X0226496Y0246654I-000984J0000000D01*
G01*
X0216456Y0246654D01*
G75*
G02*
X0215472Y0247638I0000000J0000984D01*
G01*
X0215472Y0256496D01*
G75*
G02*
X0216456Y0257481I0000984J0000000D01*
G01*
X0226496Y0257481D01*
G75*
G02*
X0227480Y0256496I0000000J-000984D01*
G01*
G37*
G36*
G01*
X0214291Y0244489D02*
X0214291Y0235630D01*
G75*
G02*
X0213307Y0234646I-000984J0000000D01*
G01*
X0203268Y0234646D01*
G75*
G02*
X0202283Y0235630I0000000J0000984D01*
G01*
X0202283Y0244489D01*
G75*
G02*
X0203268Y0245473I0000984J0000000D01*
G01*
X0213307Y0245473D01*
G75*
G02*
X0214291Y0244489I0000000J-000984D01*
G01*
G37*
G36*
G01*
X0214291Y0256496D02*
X0214291Y0247638D01*
G75*
G02*
X0213307Y0246654I-000984J0000000D01*
G01*
X0203268Y0246654D01*
G75*
G02*
X0202283Y0247638I0000000J0000984D01*
G01*
X0202283Y0256496D01*
G75*
G02*
X0203268Y0257481I0000984J0000000D01*
G01*
X0213307Y0257481D01*
G75*
G02*
X0214291Y0256496I0000000J-000984D01*
G01*
G37*
G36*
G01*
X0244016Y0256418D02*
X0244016Y0253662D01*
G75*
G02*
X0243031Y0252678I-000984J0000000D01*
G01*
X0236338Y0252678D01*
G75*
G02*
X0235354Y0253662I0000000J0000984D01*
G01*
X0235354Y0256418D01*
G75*
G02*
X0236338Y0257402I0000984J0000000D01*
G01*
X0243031Y0257402D01*
G75*
G02*
X0244016Y0256418I0000000J-000984D01*
G01*
G37*
G36*
G01*
X0244016Y0210906D02*
X0244016Y0208150D01*
G75*
G02*
X0243031Y0207166I-000984J0000000D01*
G01*
X0236338Y0207166D01*
G75*
G02*
X0235354Y0208150I0000000J0000984D01*
G01*
X0235354Y0210906D01*
G75*
G02*
X0236338Y0211890I0000984J0000000D01*
G01*
X0243031Y0211890D01*
G75*
G02*
X0244016Y0210906I0000000J-000984D01*
G01*
G37*
G36*
G01*
X0227480Y0216930D02*
X0227480Y0208071D01*
G75*
G02*
X0226496Y0207087I-000984J0000000D01*
G01*
X0216456Y0207087D01*
G75*
G02*
X0215472Y0208071I0000000J0000984D01*
G01*
X0215472Y0216930D01*
G75*
G02*
X0216456Y0217914I0000984J0000000D01*
G01*
X0226496Y0217914D01*
G75*
G02*
X0227480Y0216930I0000000J-000984D01*
G01*
G37*
G36*
G01*
X0227480Y0228937D02*
X0227480Y0220079D01*
G75*
G02*
X0226496Y0219095I-000984J0000000D01*
G01*
X0216456Y0219095D01*
G75*
G02*
X0215472Y0220079I0000000J0000984D01*
G01*
X0215472Y0228937D01*
G75*
G02*
X0216456Y0229922I0000984J0000000D01*
G01*
X0226496Y0229922D01*
G75*
G02*
X0227480Y0228937I0000000J-000984D01*
G01*
G37*
G36*
G01*
X0214291Y0216930D02*
X0214291Y0208071D01*
G75*
G02*
X0213307Y0207087I-000984J0000000D01*
G01*
X0203268Y0207087D01*
G75*
G02*
X0202283Y0208071I0000000J0000984D01*
G01*
X0202283Y0216930D01*
G75*
G02*
X0203268Y0217914I0000984J0000000D01*
G01*
X0213307Y0217914D01*
G75*
G02*
X0214291Y0216930I0000000J-000984D01*
G01*
G37*
G36*
G01*
X0214291Y0228937D02*
X0214291Y0220079D01*
G75*
G02*
X0213307Y0219095I-000984J0000000D01*
G01*
X0203268Y0219095D01*
G75*
G02*
X0202283Y0220079I0000000J0000984D01*
G01*
X0202283Y0228937D01*
G75*
G02*
X0203268Y0229922I0000984J0000000D01*
G01*
X0213307Y0229922D01*
G75*
G02*
X0214291Y0228937I0000000J-000984D01*
G01*
G37*
G36*
G01*
X0244016Y0228859D02*
X0244016Y0226103D01*
G75*
G02*
X0243031Y0225118I-000984J0000000D01*
G01*
X0236338Y0225118D01*
G75*
G02*
X0235354Y0226103I0000000J0000984D01*
G01*
X0235354Y0228859D01*
G75*
G02*
X0236338Y0229843I0000984J0000000D01*
G01*
X0243031Y0229843D01*
G75*
G02*
X0244016Y0228859I0000000J-000984D01*
G01*
G37*
G36*
G01*
X0222205Y0026437D02*
X0224882Y0026437D01*
G75*
G02*
X0225216Y0026103I0000000J-000335D01*
G01*
X0225216Y0023426D01*
G75*
G02*
X0224882Y0023091I-000335J0000000D01*
G01*
X0222205Y0023091D01*
G75*
G02*
X0221870Y0023426I0000000J0000335D01*
G01*
X0221870Y0026103D01*
G75*
G02*
X0222205Y0026437I0000335J0000000D01*
G01*
G37*
G36*
G01*
X0222205Y0020217D02*
X0224882Y0020217D01*
G75*
G02*
X0225216Y0019882I0000000J-000335D01*
G01*
X0225216Y0017205D01*
G75*
G02*
X0224882Y0016870I-000335J0000000D01*
G01*
X0222205Y0016870D01*
G75*
G02*
X0221870Y0017205I0000000J0000335D01*
G01*
X0221870Y0019882D01*
G75*
G02*
X0222205Y0020217I0000335J0000000D01*
G01*
G37*
G36*
G01*
X0272687Y0316201D02*
X0272687Y0313130D01*
G75*
G02*
X0272411Y0312855I-000276J0000000D01*
G01*
X0270206Y0312855D01*
G75*
G02*
X0269931Y0313130I0000000J0000276D01*
G01*
X0269931Y0316201D01*
G75*
G02*
X0270206Y0316477I0000276J0000000D01*
G01*
X0272411Y0316477D01*
G75*
G02*
X0272687Y0316201I0000000J-000276D01*
G01*
G37*
G36*
G01*
X0266388Y0316201D02*
X0266388Y0313130D01*
G75*
G02*
X0266112Y0312855I-000276J0000000D01*
G01*
X0263907Y0312855D01*
G75*
G02*
X0263632Y0313130I0000000J0000276D01*
G01*
X0263632Y0316201D01*
G75*
G02*
X0263907Y0316477I0000276J0000000D01*
G01*
X0266112Y0316477D01*
G75*
G02*
X0266388Y0316201I0000000J-000276D01*
G01*
G37*
G36*
G01*
X0195138Y0063681D02*
X0197815Y0063681D01*
G75*
G02*
X0198149Y0063347I0000000J-000335D01*
G01*
X0198149Y0060670D01*
G75*
G02*
X0197815Y0060335I-000335J0000000D01*
G01*
X0195138Y0060335D01*
G75*
G02*
X0194803Y0060670I0000000J0000335D01*
G01*
X0194803Y0063347D01*
G75*
G02*
X0195138Y0063681I0000335J0000000D01*
G01*
G37*
G36*
G01*
X0195138Y0057461D02*
X0197815Y0057461D01*
G75*
G02*
X0198149Y0057126I0000000J-000335D01*
G01*
X0198149Y0054449D01*
G75*
G02*
X0197815Y0054115I-000335J0000000D01*
G01*
X0195138Y0054115D01*
G75*
G02*
X0194803Y0054449I0000000J0000335D01*
G01*
X0194803Y0057126D01*
G75*
G02*
X0195138Y0057461I0000335J0000000D01*
G01*
G37*
G36*
G01*
X0199527Y0071280D02*
X0199527Y0073996D01*
G75*
G02*
X0200433Y0074902I0000906J0000000D01*
G01*
X0205708Y0074902D01*
G75*
G02*
X0206614Y0073996I0000000J-000906D01*
G01*
X0206614Y0071280D01*
G75*
G02*
X0205708Y0070374I-000906J0000000D01*
G01*
X0200433Y0070374D01*
G75*
G02*
X0199527Y0071280I0000000J0000906D01*
G01*
G37*
G36*
G01*
X0199527Y0059863D02*
X0199527Y0062579D01*
G75*
G02*
X0200433Y0063485I0000906J0000000D01*
G01*
X0205708Y0063485D01*
G75*
G02*
X0206614Y0062579I0000000J-000906D01*
G01*
X0206614Y0059863D01*
G75*
G02*
X0205708Y0058957I-000906J0000000D01*
G01*
X0200433Y0058957D01*
G75*
G02*
X0199527Y0059863I0000000J0000906D01*
G01*
G37*
G36*
G01*
X0497953Y0334154D02*
X0497953Y0339075D01*
G75*
G02*
X0498346Y0339469I0000394J0000000D01*
G01*
X0501496Y0339469D01*
G75*
G02*
X0501890Y0339075I0000000J-000394D01*
G01*
X0501890Y0334154D01*
G75*
G02*
X0501496Y0333760I-000394J0000000D01*
G01*
X0498346Y0333760D01*
G75*
G02*
X0497953Y0334154I0000000J0000394D01*
G01*
G37*
G36*
G01*
X0505433Y0334154D02*
X0505433Y0339075D01*
G75*
G02*
X0505827Y0339469I0000394J0000000D01*
G01*
X0508976Y0339469D01*
G75*
G02*
X0509370Y0339075I0000000J-000394D01*
G01*
X0509370Y0334154D01*
G75*
G02*
X0508976Y0333760I-000394J0000000D01*
G01*
X0505827Y0333760D01*
G75*
G02*
X0505433Y0334154I0000000J0000394D01*
G01*
G37*
G36*
G01*
X0135590Y0072894D02*
X0138268Y0072894D01*
G75*
G02*
X0138602Y0072559I0000000J-000335D01*
G01*
X0138602Y0069882D01*
G75*
G02*
X0138268Y0069548I-000335J0000000D01*
G01*
X0135590Y0069548D01*
G75*
G02*
X0135256Y0069882I0000000J0000335D01*
G01*
X0135256Y0072559D01*
G75*
G02*
X0135590Y0072894I0000335J0000000D01*
G01*
G37*
G36*
G01*
X0135590Y0066674D02*
X0138268Y0066674D01*
G75*
G02*
X0138602Y0066339I0000000J-000335D01*
G01*
X0138602Y0063662D01*
G75*
G02*
X0138268Y0063327I-000335J0000000D01*
G01*
X0135590Y0063327D01*
G75*
G02*
X0135256Y0063662I0000000J0000335D01*
G01*
X0135256Y0066339D01*
G75*
G02*
X0135590Y0066674I0000335J0000000D01*
G01*
G37*
G36*
G01*
X0247756Y0286772D02*
X0247756Y0283701D01*
G75*
G02*
X0247480Y0283426I-000276J0000000D01*
G01*
X0245275Y0283426D01*
G75*
G02*
X0245000Y0283701I0000000J0000276D01*
G01*
X0245000Y0286772D01*
G75*
G02*
X0245275Y0287048I0000276J0000000D01*
G01*
X0247480Y0287048D01*
G75*
G02*
X0247756Y0286772I0000000J-000276D01*
G01*
G37*
G36*
G01*
X0241456Y0286772D02*
X0241456Y0283701D01*
G75*
G02*
X0241181Y0283426I-000276J0000000D01*
G01*
X0238976Y0283426D01*
G75*
G02*
X0238701Y0283701I0000000J0000276D01*
G01*
X0238701Y0286772D01*
G75*
G02*
X0238976Y0287048I0000276J0000000D01*
G01*
X0241181Y0287048D01*
G75*
G02*
X0241456Y0286772I0000000J-000276D01*
G01*
G37*
G36*
G01*
X0208189Y0071280D02*
X0208189Y0073996D01*
G75*
G02*
X0209094Y0074902I0000906J0000000D01*
G01*
X0214370Y0074902D01*
G75*
G02*
X0215275Y0073996I0000000J-000906D01*
G01*
X0215275Y0071280D01*
G75*
G02*
X0214370Y0070374I-000906J0000000D01*
G01*
X0209094Y0070374D01*
G75*
G02*
X0208189Y0071280I0000000J0000906D01*
G01*
G37*
G36*
G01*
X0208189Y0059863D02*
X0208189Y0062579D01*
G75*
G02*
X0209094Y0063485I0000906J0000000D01*
G01*
X0214370Y0063485D01*
G75*
G02*
X0215275Y0062579I0000000J-000906D01*
G01*
X0215275Y0059863D01*
G75*
G02*
X0214370Y0058957I-000906J0000000D01*
G01*
X0209094Y0058957D01*
G75*
G02*
X0208189Y0059863I0000000J0000906D01*
G01*
G37*
G36*
G01*
X0161890Y0016870D02*
X0159212Y0016870D01*
G75*
G02*
X0158878Y0017205I0000000J0000335D01*
G01*
X0158878Y0019882D01*
G75*
G02*
X0159212Y0020217I0000335J0000000D01*
G01*
X0161890Y0020217D01*
G75*
G02*
X0162224Y0019882I0000000J-000335D01*
G01*
X0162224Y0017205D01*
G75*
G02*
X0161890Y0016870I-000335J0000000D01*
G01*
G37*
G36*
G01*
X0161890Y0023091D02*
X0159212Y0023091D01*
G75*
G02*
X0158878Y0023426I0000000J0000335D01*
G01*
X0158878Y0026103D01*
G75*
G02*
X0159212Y0026437I0000335J0000000D01*
G01*
X0161890Y0026437D01*
G75*
G02*
X0162224Y0026103I0000000J-000335D01*
G01*
X0162224Y0023426D01*
G75*
G02*
X0161890Y0023091I-000335J0000000D01*
G01*
G37*
G36*
G01*
X0244016Y0100670D02*
X0244016Y0097914D01*
G75*
G02*
X0243031Y0096930I-000984J0000000D01*
G01*
X0236338Y0096930D01*
G75*
G02*
X0235354Y0097914I0000000J0000984D01*
G01*
X0235354Y0100670D01*
G75*
G02*
X0236338Y0101654I0000984J0000000D01*
G01*
X0243031Y0101654D01*
G75*
G02*
X0244016Y0100670I0000000J-000984D01*
G01*
G37*
G36*
G01*
X0227480Y0106693D02*
X0227480Y0097835D01*
G75*
G02*
X0226496Y0096851I-000984J0000000D01*
G01*
X0216456Y0096851D01*
G75*
G02*
X0215472Y0097835I0000000J0000984D01*
G01*
X0215472Y0106693D01*
G75*
G02*
X0216456Y0107678I0000984J0000000D01*
G01*
X0226496Y0107678D01*
G75*
G02*
X0227480Y0106693I0000000J-000984D01*
G01*
G37*
G36*
G01*
X0227480Y0118701D02*
X0227480Y0109843D01*
G75*
G02*
X0226496Y0108859I-000984J0000000D01*
G01*
X0216456Y0108859D01*
G75*
G02*
X0215472Y0109843I0000000J0000984D01*
G01*
X0215472Y0118701D01*
G75*
G02*
X0216456Y0119685I0000984J0000000D01*
G01*
X0226496Y0119685D01*
G75*
G02*
X0227480Y0118701I0000000J-000984D01*
G01*
G37*
G36*
G01*
X0214291Y0106693D02*
X0214291Y0097835D01*
G75*
G02*
X0213307Y0096851I-000984J0000000D01*
G01*
X0203268Y0096851D01*
G75*
G02*
X0202283Y0097835I0000000J0000984D01*
G01*
X0202283Y0106693D01*
G75*
G02*
X0203268Y0107678I0000984J0000000D01*
G01*
X0213307Y0107678D01*
G75*
G02*
X0214291Y0106693I0000000J-000984D01*
G01*
G37*
G36*
G01*
X0214291Y0118701D02*
X0214291Y0109843D01*
G75*
G02*
X0213307Y0108859I-000984J0000000D01*
G01*
X0203268Y0108859D01*
G75*
G02*
X0202283Y0109843I0000000J0000984D01*
G01*
X0202283Y0118701D01*
G75*
G02*
X0203268Y0119685I0000984J0000000D01*
G01*
X0213307Y0119685D01*
G75*
G02*
X0214291Y0118701I0000000J-000984D01*
G01*
G37*
G36*
G01*
X0244016Y0118622D02*
X0244016Y0115867D01*
G75*
G02*
X0243031Y0114882I-000984J0000000D01*
G01*
X0236338Y0114882D01*
G75*
G02*
X0235354Y0115867I0000000J0000984D01*
G01*
X0235354Y0118622D01*
G75*
G02*
X0236338Y0119607I0000984J0000000D01*
G01*
X0243031Y0119607D01*
G75*
G02*
X0244016Y0118622I0000000J-000984D01*
G01*
G37*
D83*
X0252283Y0190158D03*
G36*
G01*
X0194941Y0075237D02*
X0198012Y0075237D01*
G75*
G02*
X0198287Y0074961I0000000J-000276D01*
G01*
X0198287Y0072756D01*
G75*
G02*
X0198012Y0072481I-000276J0000000D01*
G01*
X0194941Y0072481D01*
G75*
G02*
X0194665Y0072756I0000000J0000276D01*
G01*
X0194665Y0074961D01*
G75*
G02*
X0194941Y0075237I0000276J0000000D01*
G01*
G37*
G36*
G01*
X0194941Y0068937D02*
X0198012Y0068937D01*
G75*
G02*
X0198287Y0068662I0000000J-000276D01*
G01*
X0198287Y0066457D01*
G75*
G02*
X0198012Y0066181I-000276J0000000D01*
G01*
X0194941Y0066181D01*
G75*
G02*
X0194665Y0066457I0000000J0000276D01*
G01*
X0194665Y0068662D01*
G75*
G02*
X0194941Y0068937I0000276J0000000D01*
G01*
G37*
G36*
G01*
X0244016Y0183347D02*
X0244016Y0180591D01*
G75*
G02*
X0243031Y0179607I-000984J0000000D01*
G01*
X0236338Y0179607D01*
G75*
G02*
X0235354Y0180591I0000000J0000984D01*
G01*
X0235354Y0183347D01*
G75*
G02*
X0236338Y0184331I0000984J0000000D01*
G01*
X0243031Y0184331D01*
G75*
G02*
X0244016Y0183347I0000000J-000984D01*
G01*
G37*
G36*
G01*
X0227480Y0189370D02*
X0227480Y0180512D01*
G75*
G02*
X0226496Y0179528I-000984J0000000D01*
G01*
X0216456Y0179528D01*
G75*
G02*
X0215472Y0180512I0000000J0000984D01*
G01*
X0215472Y0189370D01*
G75*
G02*
X0216456Y0190355I0000984J0000000D01*
G01*
X0226496Y0190355D01*
G75*
G02*
X0227480Y0189370I0000000J-000984D01*
G01*
G37*
G36*
G01*
X0227480Y0201378D02*
X0227480Y0192520D01*
G75*
G02*
X0226496Y0191536I-000984J0000000D01*
G01*
X0216456Y0191536D01*
G75*
G02*
X0215472Y0192520I0000000J0000984D01*
G01*
X0215472Y0201378D01*
G75*
G02*
X0216456Y0202363I0000984J0000000D01*
G01*
X0226496Y0202363D01*
G75*
G02*
X0227480Y0201378I0000000J-000984D01*
G01*
G37*
G36*
G01*
X0214291Y0189370D02*
X0214291Y0180512D01*
G75*
G02*
X0213307Y0179528I-000984J0000000D01*
G01*
X0203268Y0179528D01*
G75*
G02*
X0202283Y0180512I0000000J0000984D01*
G01*
X0202283Y0189370D01*
G75*
G02*
X0203268Y0190355I0000984J0000000D01*
G01*
X0213307Y0190355D01*
G75*
G02*
X0214291Y0189370I0000000J-000984D01*
G01*
G37*
G36*
G01*
X0214291Y0201378D02*
X0214291Y0192520D01*
G75*
G02*
X0213307Y0191536I-000984J0000000D01*
G01*
X0203268Y0191536D01*
G75*
G02*
X0202283Y0192520I0000000J0000984D01*
G01*
X0202283Y0201378D01*
G75*
G02*
X0203268Y0202363I0000984J0000000D01*
G01*
X0213307Y0202363D01*
G75*
G02*
X0214291Y0201378I0000000J-000984D01*
G01*
G37*
G36*
G01*
X0244016Y0201300D02*
X0244016Y0198544D01*
G75*
G02*
X0243031Y0197559I-000984J0000000D01*
G01*
X0236338Y0197559D01*
G75*
G02*
X0235354Y0198544I0000000J0000984D01*
G01*
X0235354Y0201300D01*
G75*
G02*
X0236338Y0202284I0000984J0000000D01*
G01*
X0243031Y0202284D01*
G75*
G02*
X0244016Y0201300I0000000J-000984D01*
G01*
G37*
D53*
X0520393Y0058268D03*
X0520393Y0064174D03*
X0520393Y0070079D03*
X0520393Y0075985D03*
X0520393Y0081890D03*
X0520393Y0087796D03*
X0520393Y0093701D03*
X0520393Y0099607D03*
X0520393Y0105512D03*
X0520393Y0111418D03*
X0520393Y0117323D03*
X0520393Y0123229D03*
X0520393Y0129134D03*
X0470393Y0129134D03*
X0470393Y0123229D03*
X0470393Y0117323D03*
X0470393Y0111418D03*
X0470393Y0105512D03*
X0470393Y0099607D03*
X0470393Y0093701D03*
X0470393Y0087796D03*
X0470393Y0081890D03*
X0470393Y0075985D03*
X0470393Y0070079D03*
X0470393Y0064174D03*
X0470393Y0058268D03*
G36*
G01*
X0497953Y0353839D02*
X0497953Y0358760D01*
G75*
G02*
X0498346Y0359154I0000394J0000000D01*
G01*
X0501496Y0359154D01*
G75*
G02*
X0501890Y0358760I0000000J-000394D01*
G01*
X0501890Y0353839D01*
G75*
G02*
X0501496Y0353445I-000394J0000000D01*
G01*
X0498346Y0353445D01*
G75*
G02*
X0497953Y0353839I0000000J0000394D01*
G01*
G37*
G36*
G01*
X0505433Y0353839D02*
X0505433Y0358760D01*
G75*
G02*
X0505827Y0359154I0000394J0000000D01*
G01*
X0508976Y0359154D01*
G75*
G02*
X0509370Y0358760I0000000J-000394D01*
G01*
X0509370Y0353839D01*
G75*
G02*
X0508976Y0353445I-000394J0000000D01*
G01*
X0505827Y0353445D01*
G75*
G02*
X0505433Y0353839I0000000J0000394D01*
G01*
G37*
G36*
G01*
X0216850Y0071280D02*
X0216850Y0073996D01*
G75*
G02*
X0217756Y0074902I0000906J0000000D01*
G01*
X0223031Y0074902D01*
G75*
G02*
X0223937Y0073996I0000000J-000906D01*
G01*
X0223937Y0071280D01*
G75*
G02*
X0223031Y0070374I-000906J0000000D01*
G01*
X0217756Y0070374D01*
G75*
G02*
X0216850Y0071280I0000000J0000906D01*
G01*
G37*
G36*
G01*
X0216850Y0059863D02*
X0216850Y0062579D01*
G75*
G02*
X0217756Y0063485I0000906J0000000D01*
G01*
X0223031Y0063485D01*
G75*
G02*
X0223937Y0062579I0000000J-000906D01*
G01*
X0223937Y0059863D01*
G75*
G02*
X0223031Y0058957I-000906J0000000D01*
G01*
X0217756Y0058957D01*
G75*
G02*
X0216850Y0059863I0000000J0000906D01*
G01*
G37*
G36*
G01*
X0299329Y0023700D02*
X0304250Y0023700D01*
G75*
G02*
X0304644Y0023306I0000000J-000394D01*
G01*
X0304644Y0020156D01*
G75*
G02*
X0304250Y0019763I-000394J0000000D01*
G01*
X0299329Y0019763D01*
G75*
G02*
X0298935Y0020156I0000000J0000394D01*
G01*
X0298935Y0023306D01*
G75*
G02*
X0299329Y0023700I0000394J0000000D01*
G01*
G37*
G36*
G01*
X0299329Y0016219D02*
X0304250Y0016219D01*
G75*
G02*
X0304644Y0015826I0000000J-000394D01*
G01*
X0304644Y0012676D01*
G75*
G02*
X0304250Y0012282I-000394J0000000D01*
G01*
X0299329Y0012282D01*
G75*
G02*
X0298935Y0012676I0000000J0000394D01*
G01*
X0298935Y0015826D01*
G75*
G02*
X0299329Y0016219I0000394J0000000D01*
G01*
G37*
G36*
G01*
X0247992Y0312992D02*
X0251063Y0312992D01*
G75*
G02*
X0251338Y0312717I0000000J-000276D01*
G01*
X0251338Y0310512D01*
G75*
G02*
X0251063Y0310237I-000276J0000000D01*
G01*
X0247992Y0310237D01*
G75*
G02*
X0247716Y0310512I0000000J0000276D01*
G01*
X0247716Y0312717D01*
G75*
G02*
X0247992Y0312992I0000276J0000000D01*
G01*
G37*
G36*
G01*
X0247992Y0306693D02*
X0251063Y0306693D01*
G75*
G02*
X0251338Y0306418I0000000J-000276D01*
G01*
X0251338Y0304213D01*
G75*
G02*
X0251063Y0303937I-000276J0000000D01*
G01*
X0247992Y0303937D01*
G75*
G02*
X0247716Y0304213I0000000J0000276D01*
G01*
X0247716Y0306418D01*
G75*
G02*
X0247992Y0306693I0000276J0000000D01*
G01*
G37*
G36*
G01*
X0207441Y0292914D02*
X0203425Y0292914D01*
G75*
G02*
X0203071Y0293268I0000000J0000354D01*
G01*
X0203071Y0296103D01*
G75*
G02*
X0203425Y0296457I0000354J0000000D01*
G01*
X0207441Y0296457D01*
G75*
G02*
X0207795Y0296103I0000000J-000354D01*
G01*
X0207795Y0293268D01*
G75*
G02*
X0207441Y0292914I-000354J0000000D01*
G01*
G37*
G36*
G01*
X0207441Y0305906D02*
X0203425Y0305906D01*
G75*
G02*
X0203071Y0306260I0000000J0000354D01*
G01*
X0203071Y0309095D01*
G75*
G02*
X0203425Y0309449I0000354J0000000D01*
G01*
X0207441Y0309449D01*
G75*
G02*
X0207795Y0309095I0000000J-000354D01*
G01*
X0207795Y0306260D01*
G75*
G02*
X0207441Y0305906I-000354J0000000D01*
G01*
G37*
G36*
G01*
X0511535Y0353839D02*
X0511535Y0358760D01*
G75*
G02*
X0511929Y0359154I0000394J0000000D01*
G01*
X0515079Y0359154D01*
G75*
G02*
X0515472Y0358760I0000000J-000394D01*
G01*
X0515472Y0353839D01*
G75*
G02*
X0515079Y0353445I-000394J0000000D01*
G01*
X0511929Y0353445D01*
G75*
G02*
X0511535Y0353839I0000000J0000394D01*
G01*
G37*
G36*
G01*
X0519016Y0353839D02*
X0519016Y0358760D01*
G75*
G02*
X0519409Y0359154I0000394J0000000D01*
G01*
X0522559Y0359154D01*
G75*
G02*
X0522953Y0358760I0000000J-000394D01*
G01*
X0522953Y0353839D01*
G75*
G02*
X0522559Y0353445I-000394J0000000D01*
G01*
X0519409Y0353445D01*
G75*
G02*
X0519016Y0353839I0000000J0000394D01*
G01*
G37*
G36*
G01*
X0497953Y0343996D02*
X0497953Y0348918D01*
G75*
G02*
X0498346Y0349311I0000394J0000000D01*
G01*
X0501496Y0349311D01*
G75*
G02*
X0501890Y0348918I0000000J-000394D01*
G01*
X0501890Y0343996D01*
G75*
G02*
X0501496Y0343603I-000394J0000000D01*
G01*
X0498346Y0343603D01*
G75*
G02*
X0497953Y0343996I0000000J0000394D01*
G01*
G37*
G36*
G01*
X0505433Y0343996D02*
X0505433Y0348918D01*
G75*
G02*
X0505827Y0349311I0000394J0000000D01*
G01*
X0508976Y0349311D01*
G75*
G02*
X0509370Y0348918I0000000J-000394D01*
G01*
X0509370Y0343996D01*
G75*
G02*
X0508976Y0343603I-000394J0000000D01*
G01*
X0505827Y0343603D01*
G75*
G02*
X0505433Y0343996I0000000J0000394D01*
G01*
G37*
D84*
X0161634Y0080394D03*
X0161634Y0074646D03*
X0161634Y0068898D03*
X0161634Y0063150D03*
X0161634Y0057402D03*
X0170492Y0080394D03*
X0170492Y0074646D03*
X0170492Y0068898D03*
X0170492Y0063150D03*
X0170492Y0057402D03*
D54*
X0147165Y0078741D03*
X0147165Y0074804D03*
X0147165Y0070867D03*
X0147165Y0066930D03*
X0147165Y0062992D03*
X0147165Y0059055D03*
X0184960Y0059055D03*
X0184960Y0062992D03*
X0184960Y0066930D03*
X0184960Y0070867D03*
X0184960Y0074804D03*
X0184960Y0078741D03*
D84*
X0187716Y0043150D03*
X0187716Y0037402D03*
X0187716Y0031654D03*
X0187716Y0025906D03*
X0187716Y0020158D03*
X0196575Y0043150D03*
X0196575Y0037402D03*
X0196575Y0031654D03*
X0196575Y0025906D03*
X0196575Y0020158D03*
D54*
X0173248Y0041496D03*
X0173248Y0037559D03*
X0173248Y0033622D03*
X0173248Y0029685D03*
X0173248Y0025748D03*
X0173248Y0021811D03*
X0211043Y0021811D03*
X0211043Y0025748D03*
X0211043Y0029685D03*
X0211043Y0033622D03*
X0211043Y0037559D03*
X0211043Y0041496D03*
G36*
G01*
X0244016Y0128229D02*
X0244016Y0125473D01*
G75*
G02*
X0243031Y0124489I-000984J0000000D01*
G01*
X0236338Y0124489D01*
G75*
G02*
X0235354Y0125473I0000000J0000984D01*
G01*
X0235354Y0128229D01*
G75*
G02*
X0236338Y0129213I0000984J0000000D01*
G01*
X0243031Y0129213D01*
G75*
G02*
X0244016Y0128229I0000000J-000984D01*
G01*
G37*
G36*
G01*
X0227480Y0134252D02*
X0227480Y0125394D01*
G75*
G02*
X0226496Y0124410I-000984J0000000D01*
G01*
X0216456Y0124410D01*
G75*
G02*
X0215472Y0125394I0000000J0000984D01*
G01*
X0215472Y0134252D01*
G75*
G02*
X0216456Y0135237I0000984J0000000D01*
G01*
X0226496Y0135237D01*
G75*
G02*
X0227480Y0134252I0000000J-000984D01*
G01*
G37*
G36*
G01*
X0227480Y0146260D02*
X0227480Y0137402D01*
G75*
G02*
X0226496Y0136418I-000984J0000000D01*
G01*
X0216456Y0136418D01*
G75*
G02*
X0215472Y0137402I0000000J0000984D01*
G01*
X0215472Y0146260D01*
G75*
G02*
X0216456Y0147244I0000984J0000000D01*
G01*
X0226496Y0147244D01*
G75*
G02*
X0227480Y0146260I0000000J-000984D01*
G01*
G37*
G36*
G01*
X0214291Y0134252D02*
X0214291Y0125394D01*
G75*
G02*
X0213307Y0124410I-000984J0000000D01*
G01*
X0203268Y0124410D01*
G75*
G02*
X0202283Y0125394I0000000J0000984D01*
G01*
X0202283Y0134252D01*
G75*
G02*
X0203268Y0135237I0000984J0000000D01*
G01*
X0213307Y0135237D01*
G75*
G02*
X0214291Y0134252I0000000J-000984D01*
G01*
G37*
G36*
G01*
X0214291Y0146260D02*
X0214291Y0137402D01*
G75*
G02*
X0213307Y0136418I-000984J0000000D01*
G01*
X0203268Y0136418D01*
G75*
G02*
X0202283Y0137402I0000000J0000984D01*
G01*
X0202283Y0146260D01*
G75*
G02*
X0203268Y0147244I0000984J0000000D01*
G01*
X0213307Y0147244D01*
G75*
G02*
X0214291Y0146260I0000000J-000984D01*
G01*
G37*
G36*
G01*
X0244016Y0146181D02*
X0244016Y0143426D01*
G75*
G02*
X0243031Y0142441I-000984J0000000D01*
G01*
X0236338Y0142441D01*
G75*
G02*
X0235354Y0143426I0000000J0000984D01*
G01*
X0235354Y0146181D01*
G75*
G02*
X0236338Y0147166I0000984J0000000D01*
G01*
X0243031Y0147166D01*
G75*
G02*
X0244016Y0146181I0000000J-000984D01*
G01*
G37*
D68*
X0314291Y0030197D03*
X0317441Y0030197D03*
X0322559Y0030197D03*
X0326496Y0030197D03*
X0328464Y0030197D03*
X0332401Y0030197D03*
X0337519Y0030197D03*
X0340669Y0030197D03*
X0339488Y0030197D03*
X0336338Y0030197D03*
X0334370Y0030197D03*
X0330433Y0030197D03*
X0324527Y0030197D03*
X0320590Y0030197D03*
X0318622Y0030197D03*
X0315472Y0030197D03*
G36*
G01*
X0208956Y0085433D02*
X0206240Y0085433D01*
G75*
G02*
X0205334Y0086339I0000000J0000906D01*
G01*
X0205334Y0091615D01*
G75*
G02*
X0206240Y0092520I0000906J0000000D01*
G01*
X0208956Y0092520D01*
G75*
G02*
X0209862Y0091615I0000000J-000906D01*
G01*
X0209862Y0086339D01*
G75*
G02*
X0208956Y0085433I-000906J0000000D01*
G01*
G37*
G36*
G01*
X0220374Y0085433D02*
X0217657Y0085433D01*
G75*
G02*
X0216752Y0086339I0000000J0000906D01*
G01*
X0216752Y0091615D01*
G75*
G02*
X0217657Y0092520I0000906J0000000D01*
G01*
X0220374Y0092520D01*
G75*
G02*
X0221279Y0091615I0000000J-000906D01*
G01*
X0221279Y0086339D01*
G75*
G02*
X0220374Y0085433I-000906J0000000D01*
G01*
G37*
G36*
G01*
X0207441Y0263386D02*
X0203425Y0263386D01*
G75*
G02*
X0203071Y0263741I0000000J0000354D01*
G01*
X0203071Y0266575D01*
G75*
G02*
X0203425Y0266930I0000354J0000000D01*
G01*
X0207441Y0266930D01*
G75*
G02*
X0207795Y0266575I0000000J-000354D01*
G01*
X0207795Y0263741D01*
G75*
G02*
X0207441Y0263386I-000354J0000000D01*
G01*
G37*
G36*
G01*
X0207441Y0276378D02*
X0203425Y0276378D01*
G75*
G02*
X0203071Y0276733I0000000J0000354D01*
G01*
X0203071Y0279567D01*
G75*
G02*
X0203425Y0279922I0000354J0000000D01*
G01*
X0207441Y0279922D01*
G75*
G02*
X0207795Y0279567I0000000J-000354D01*
G01*
X0207795Y0276733D01*
G75*
G02*
X0207441Y0276378I-000354J0000000D01*
G01*
G37*
G36*
G01*
X0222008Y0037599D02*
X0225079Y0037599D01*
G75*
G02*
X0225354Y0037323I0000000J-000276D01*
G01*
X0225354Y0035118D01*
G75*
G02*
X0225079Y0034843I-000276J0000000D01*
G01*
X0222008Y0034843D01*
G75*
G02*
X0221732Y0035118I0000000J0000276D01*
G01*
X0221732Y0037323D01*
G75*
G02*
X0222008Y0037599I0000276J0000000D01*
G01*
G37*
G36*
G01*
X0222008Y0031300D02*
X0225079Y0031300D01*
G75*
G02*
X0225354Y0031024I0000000J-000276D01*
G01*
X0225354Y0028819D01*
G75*
G02*
X0225079Y0028544I-000276J0000000D01*
G01*
X0222008Y0028544D01*
G75*
G02*
X0221732Y0028819I0000000J0000276D01*
G01*
X0221732Y0031024D01*
G75*
G02*
X0222008Y0031300I0000276J0000000D01*
G01*
G37*
D74*
X0407493Y0271428D03*
X0407493Y0232678D03*
X0402493Y0232678D03*
X0397493Y0232678D03*
X0392493Y0232678D03*
X0392493Y0271428D03*
X0397493Y0271428D03*
X0402493Y0271428D03*
G36*
G01*
X0138268Y0051122D02*
X0135590Y0051122D01*
G75*
G02*
X0135256Y0051457I0000000J0000335D01*
G01*
X0135256Y0054134D01*
G75*
G02*
X0135590Y0054469I0000335J0000000D01*
G01*
X0138268Y0054469D01*
G75*
G02*
X0138602Y0054134I0000000J-000335D01*
G01*
X0138602Y0051457D01*
G75*
G02*
X0138268Y0051122I-000335J0000000D01*
G01*
G37*
G36*
G01*
X0138268Y0057343D02*
X0135590Y0057343D01*
G75*
G02*
X0135256Y0057678I0000000J0000335D01*
G01*
X0135256Y0060355D01*
G75*
G02*
X0135590Y0060689I0000335J0000000D01*
G01*
X0138268Y0060689D01*
G75*
G02*
X0138602Y0060355I0000000J-000335D01*
G01*
X0138602Y0057678D01*
G75*
G02*
X0138268Y0057343I-000335J0000000D01*
G01*
G37*
X0227589Y0004862D02*
G01*
G75*
D103*
X0272668Y0029229D02*
D03*
X0272668Y0011512D02*
D03*
D104*
X0269341Y0053681D02*
D03*
X0241979Y0053681D02*
D03*
D105*
X0258101Y0030453D02*
D03*
X0241959Y0030453D02*
D03*
D106*
X0259872Y0012342D02*
D03*
X0244124Y0012342D02*
D03*
D107*
X0236933Y0074120D02*
D03*
X0246185Y0070380D02*
D03*
D107*
X0246185Y0077860D02*
D03*
D108*
X0269020Y0083799D02*
D03*
D108*
X0269020Y0080059D02*
D03*
X0269020Y0076319D02*
D03*
X0277484Y0076319D02*
D03*
X0277484Y0083799D02*
D03*
D109*
X0281336Y0069798D02*
D03*
X0268344Y0069798D02*
D03*
D110*
X0263050Y0070086D02*
D03*
X0251632Y0070086D02*
D03*
D111*
X0282235Y0037539D02*
D03*
X0276014Y0037539D02*
D03*
X0271644Y0037539D02*
D03*
X0265424Y0037539D02*
D03*
D112*
X0231558Y0014650D02*
D03*
X0231558Y0018784D02*
D03*
X0282113Y0056524D02*
D03*
X0282113Y0060658D02*
D03*
X0282113Y0051811D02*
D03*
X0282113Y0047677D02*
D03*
X0283005Y0032162D02*
D03*
X0283005Y0028028D02*
D03*
D113*
X0263902Y0076369D02*
D03*
X0263902Y0080306D02*
D03*
X0250227Y0077271D02*
D03*
X0258888Y0077271D02*
D03*
X0250227Y0083668D02*
D03*
X0258888Y0083668D02*
D03*
D114*
X0241854Y0083799D02*
D03*
X0245398Y0083799D02*
D03*
D115*
X0277855Y0060461D02*
D03*
X0277855Y0056917D02*
D03*
X0277855Y0051417D02*
D03*
X0277855Y0047874D02*
D03*
X0283005Y0019861D02*
D03*
X0283005Y0023405D02*
D03*
X0433691Y0323366D02*
G01*
G75*
D299*
X0443915Y0308661D02*
D03*
X0436435Y0308661D02*
D03*
X0436435Y0317126D02*
D03*
X0440175Y0317126D02*
D03*
X0443915Y0293012D02*
D03*
X0436435Y0293012D02*
D03*
X0436435Y0301476D02*
D03*
X0440175Y0301476D02*
D03*
D299*
X0443915Y0317126D02*
D03*
X0443915Y0301476D02*
D03*
X0297077Y0305059D02*
%LPD*%
G01*
G36*
G01*
X0314695Y0287618D02*
X0316152Y0287618D01*
G75*
G02*
X0316683Y0287087I0000000J-000531D01*
G01*
X0316683Y0286024D01*
G75*
G02*
X0316152Y0285492I-000531J0000000D01*
G01*
X0314695Y0285492D01*
G75*
G02*
X0314164Y0286024I0000000J0000531D01*
G01*
X0314164Y0287087D01*
G75*
G02*
X0314695Y0287618I0000531J0000000D01*
G01*
G37*
G36*
G01*
X0314695Y0291634D02*
X0316152Y0291634D01*
G75*
G02*
X0316683Y0291102I0000000J-000531D01*
G01*
X0316683Y0290039D01*
G75*
G02*
X0316152Y0289508I-000531J0000000D01*
G01*
X0314695Y0289508D01*
G75*
G02*
X0314164Y0290039I0000000J0000531D01*
G01*
X0314164Y0291102D01*
G75*
G02*
X0314695Y0291634I0000531J0000000D01*
G01*
G37*
G36*
G01*
X0299006Y0264370D02*
X0299006Y0265827D01*
G75*
G02*
X0299538Y0266358I0000531J0000000D01*
G01*
X0300601Y0266358D01*
G75*
G02*
X0301132Y0265827I0000000J-000531D01*
G01*
X0301132Y0264370D01*
G75*
G02*
X0300601Y0263839I-000531J0000000D01*
G01*
X0299538Y0263839D01*
G75*
G02*
X0299006Y0264370I0000000J0000531D01*
G01*
G37*
G36*
G01*
X0303022Y0264370D02*
X0303022Y0265827D01*
G75*
G02*
X0303553Y0266358I0000531J0000000D01*
G01*
X0304616Y0266358D01*
G75*
G02*
X0305148Y0265827I0000000J-000531D01*
G01*
X0305148Y0264370D01*
G75*
G02*
X0304616Y0263839I-000531J0000000D01*
G01*
X0303553Y0263839D01*
G75*
G02*
X0303022Y0264370I0000000J0000531D01*
G01*
G37*
G36*
G01*
X0331349Y0275342D02*
X0332530Y0275342D01*
G75*
G02*
X0333120Y0274752I0000000J-000591D01*
G01*
X0333120Y0268256D01*
G75*
G02*
X0332530Y0267665I-000591J0000000D01*
G01*
X0331349Y0267665D01*
G75*
G02*
X0330758Y0268256I0000000J0000591D01*
G01*
X0330758Y0274752D01*
G75*
G02*
X0331349Y0275342I0000591J0000000D01*
G01*
G37*
G36*
G01*
X0326349Y0275342D02*
X0327530Y0275342D01*
G75*
G02*
X0328120Y0274752I0000000J-000591D01*
G01*
X0328120Y0268256D01*
G75*
G02*
X0327530Y0267665I-000591J0000000D01*
G01*
X0326349Y0267665D01*
G75*
G02*
X0325758Y0268256I0000000J0000591D01*
G01*
X0325758Y0274752D01*
G75*
G02*
X0326349Y0275342I0000591J0000000D01*
G01*
G37*
G36*
G01*
X0321349Y0275342D02*
X0322530Y0275342D01*
G75*
G02*
X0323120Y0274752I0000000J-000591D01*
G01*
X0323120Y0268256D01*
G75*
G02*
X0322530Y0267665I-000591J0000000D01*
G01*
X0321349Y0267665D01*
G75*
G02*
X0320758Y0268256I0000000J0000591D01*
G01*
X0320758Y0274752D01*
G75*
G02*
X0321349Y0275342I0000591J0000000D01*
G01*
G37*
G36*
G01*
X0316349Y0275342D02*
X0317530Y0275342D01*
G75*
G02*
X0318120Y0274752I0000000J-000591D01*
G01*
X0318120Y0268256D01*
G75*
G02*
X0317530Y0267665I-000591J0000000D01*
G01*
X0316349Y0267665D01*
G75*
G02*
X0315758Y0268256I0000000J0000591D01*
G01*
X0315758Y0274752D01*
G75*
G02*
X0316349Y0275342I0000591J0000000D01*
G01*
G37*
G36*
G01*
X0316349Y0255854D02*
X0317530Y0255854D01*
G75*
G02*
X0318120Y0255264I0000000J-000591D01*
G01*
X0318120Y0248768D01*
G75*
G02*
X0317530Y0248177I-000591J0000000D01*
G01*
X0316349Y0248177D01*
G75*
G02*
X0315758Y0248768I0000000J0000591D01*
G01*
X0315758Y0255264D01*
G75*
G02*
X0316349Y0255854I0000591J0000000D01*
G01*
G37*
G36*
G01*
X0321349Y0255854D02*
X0322530Y0255854D01*
G75*
G02*
X0323120Y0255264I0000000J-000591D01*
G01*
X0323120Y0248768D01*
G75*
G02*
X0322530Y0248177I-000591J0000000D01*
G01*
X0321349Y0248177D01*
G75*
G02*
X0320758Y0248768I0000000J0000591D01*
G01*
X0320758Y0255264D01*
G75*
G02*
X0321349Y0255854I0000591J0000000D01*
G01*
G37*
G36*
G01*
X0326349Y0255854D02*
X0327530Y0255854D01*
G75*
G02*
X0328120Y0255264I0000000J-000591D01*
G01*
X0328120Y0248768D01*
G75*
G02*
X0327530Y0248177I-000591J0000000D01*
G01*
X0326349Y0248177D01*
G75*
G02*
X0325758Y0248768I0000000J0000591D01*
G01*
X0325758Y0255264D01*
G75*
G02*
X0326349Y0255854I0000591J0000000D01*
G01*
G37*
G36*
G01*
X0331349Y0255854D02*
X0332530Y0255854D01*
G75*
G02*
X0333120Y0255264I0000000J-000591D01*
G01*
X0333120Y0248768D01*
G75*
G02*
X0332530Y0248177I-000591J0000000D01*
G01*
X0331349Y0248177D01*
G75*
G02*
X0330758Y0248768I0000000J0000591D01*
G01*
X0330758Y0255264D01*
G75*
G02*
X0331349Y0255854I0000591J0000000D01*
G01*
G37*
D156*
X0332077Y0289862D03*
X0329518Y0289862D03*
X0326959Y0289862D03*
X0326959Y0282382D03*
X0329518Y0282382D03*
X0332077Y0282382D03*
G36*
G01*
X0312989Y0273701D02*
X0312989Y0272244D01*
G75*
G02*
X0312457Y0271713I-000531J0000000D01*
G01*
X0311394Y0271713D01*
G75*
G02*
X0310863Y0272244I0000000J0000531D01*
G01*
X0310863Y0273701D01*
G75*
G02*
X0311394Y0274232I0000531J0000000D01*
G01*
X0312457Y0274232D01*
G75*
G02*
X0312989Y0273701I0000000J-000531D01*
G01*
G37*
G36*
G01*
X0308973Y0273701D02*
X0308973Y0272244D01*
G75*
G02*
X0308442Y0271713I-000531J0000000D01*
G01*
X0307379Y0271713D01*
G75*
G02*
X0306847Y0272244I0000000J0000531D01*
G01*
X0306847Y0273701D01*
G75*
G02*
X0307379Y0274232I0000531J0000000D01*
G01*
X0308442Y0274232D01*
G75*
G02*
X0308973Y0273701I0000000J-000531D01*
G01*
G37*
G36*
G01*
X0306926Y0268366D02*
X0306926Y0269705D01*
G75*
G02*
X0307477Y0270256I0000551J0000000D01*
G01*
X0308579Y0270256D01*
G75*
G02*
X0309131Y0269705I0000000J-000551D01*
G01*
X0309131Y0268366D01*
G75*
G02*
X0308579Y0267815I-000551J0000000D01*
G01*
X0307477Y0267815D01*
G75*
G02*
X0306926Y0268366I0000000J0000551D01*
G01*
G37*
G36*
G01*
X0310705Y0268366D02*
X0310705Y0269705D01*
G75*
G02*
X0311257Y0270256I0000551J0000000D01*
G01*
X0312359Y0270256D01*
G75*
G02*
X0312910Y0269705I0000000J-000551D01*
G01*
X0312910Y0268366D01*
G75*
G02*
X0312359Y0267815I-000551J0000000D01*
G01*
X0311257Y0267815D01*
G75*
G02*
X0310705Y0268366I0000000J0000551D01*
G01*
G37*
G36*
G01*
X0299006Y0272244D02*
X0299006Y0273701D01*
G75*
G02*
X0299538Y0274232I0000531J0000000D01*
G01*
X0300601Y0274232D01*
G75*
G02*
X0301132Y0273701I0000000J-000531D01*
G01*
X0301132Y0272244D01*
G75*
G02*
X0300601Y0271713I-000531J0000000D01*
G01*
X0299538Y0271713D01*
G75*
G02*
X0299006Y0272244I0000000J0000531D01*
G01*
G37*
G36*
G01*
X0303022Y0272244D02*
X0303022Y0273701D01*
G75*
G02*
X0303553Y0274232I0000531J0000000D01*
G01*
X0304616Y0274232D01*
G75*
G02*
X0305148Y0273701I0000000J-000531D01*
G01*
X0305148Y0272244D01*
G75*
G02*
X0304616Y0271713I-000531J0000000D01*
G01*
X0303553Y0271713D01*
G75*
G02*
X0303022Y0272244I0000000J0000531D01*
G01*
G37*
G36*
G01*
X0305069Y0260650D02*
X0305069Y0259311D01*
G75*
G02*
X0304518Y0258760I-000551J0000000D01*
G01*
X0303416Y0258760D01*
G75*
G02*
X0302864Y0259311I0000000J0000551D01*
G01*
X0302864Y0260650D01*
G75*
G02*
X0303416Y0261201I0000551J0000000D01*
G01*
X0304518Y0261201D01*
G75*
G02*
X0305069Y0260650I0000000J-000551D01*
G01*
G37*
G36*
G01*
X0301290Y0260650D02*
X0301290Y0259311D01*
G75*
G02*
X0300738Y0258760I-000551J0000000D01*
G01*
X0299636Y0258760D01*
G75*
G02*
X0299085Y0259311I0000000J0000551D01*
G01*
X0299085Y0260650D01*
G75*
G02*
X0299636Y0261201I0000551J0000000D01*
G01*
X0300738Y0261201D01*
G75*
G02*
X0301290Y0260650I0000000J-000551D01*
G01*
G37*
G36*
G01*
X0308927Y0283779D02*
X0308927Y0282441D01*
G75*
G02*
X0308376Y0281890I-000551J0000000D01*
G01*
X0307274Y0281890D01*
G75*
G02*
X0306723Y0282441I0000000J0000551D01*
G01*
X0306723Y0283779D01*
G75*
G02*
X0307274Y0284331I0000551J0000000D01*
G01*
X0308376Y0284331D01*
G75*
G02*
X0308927Y0283779I0000000J-000551D01*
G01*
G37*
G36*
G01*
X0305148Y0283779D02*
X0305148Y0282441D01*
G75*
G02*
X0304597Y0281890I-000551J0000000D01*
G01*
X0303494Y0281890D01*
G75*
G02*
X0302943Y0282441I0000000J0000551D01*
G01*
X0302943Y0283779D01*
G75*
G02*
X0303494Y0284331I0000551J0000000D01*
G01*
X0304597Y0284331D01*
G75*
G02*
X0305148Y0283779I0000000J-000551D01*
G01*
G37*
G36*
G01*
X0312175Y0278012D02*
X0310719Y0278012D01*
G75*
G02*
X0310187Y0278543I0000000J0000531D01*
G01*
X0310187Y0279606D01*
G75*
G02*
X0310719Y0280138I0000531J0000000D01*
G01*
X0312175Y0280138D01*
G75*
G02*
X0312707Y0279606I0000000J-000531D01*
G01*
X0312707Y0278543D01*
G75*
G02*
X0312175Y0278012I-000531J0000000D01*
G01*
G37*
G36*
G01*
X0312175Y0282028D02*
X0310719Y0282028D01*
G75*
G02*
X0310187Y0282559I0000000J0000531D01*
G01*
X0310187Y0283622D01*
G75*
G02*
X0310719Y0284153I0000531J0000000D01*
G01*
X0312175Y0284153D01*
G75*
G02*
X0312707Y0283622I0000000J-000531D01*
G01*
X0312707Y0282559D01*
G75*
G02*
X0312175Y0282028I-000531J0000000D01*
G01*
G37*
G36*
G01*
X0312904Y0247185D02*
X0311565Y0247185D01*
G75*
G02*
X0311014Y0247736I0000000J0000551D01*
G01*
X0311014Y0248839D01*
G75*
G02*
X0311565Y0249390I0000551J0000000D01*
G01*
X0312904Y0249390D01*
G75*
G02*
X0313455Y0248839I0000000J-000551D01*
G01*
X0313455Y0247736D01*
G75*
G02*
X0312904Y0247185I-000551J0000000D01*
G01*
G37*
G36*
G01*
X0312904Y0250965D02*
X0311565Y0250965D01*
G75*
G02*
X0311014Y0251516I0000000J0000551D01*
G01*
X0311014Y0252618D01*
G75*
G02*
X0311565Y0253169I0000551J0000000D01*
G01*
X0312904Y0253169D01*
G75*
G02*
X0313455Y0252618I0000000J-000551D01*
G01*
X0313455Y0251516D01*
G75*
G02*
X0312904Y0250965I-000551J0000000D01*
G01*
G37*
G36*
G01*
X0318667Y0296240D02*
X0320684Y0296240D01*
G75*
G02*
X0321546Y0295379I0000000J-000861D01*
G01*
X0321546Y0293656D01*
G75*
G02*
X0320684Y0292795I-000861J0000000D01*
G01*
X0318667Y0292795D01*
G75*
G02*
X0317805Y0293656I0000000J0000861D01*
G01*
X0317805Y0295379D01*
G75*
G02*
X0318667Y0296240I0000861J0000000D01*
G01*
G37*
G36*
G01*
X0318667Y0302441D02*
X0320684Y0302441D01*
G75*
G02*
X0321546Y0301580I0000000J-000861D01*
G01*
X0321546Y0299857D01*
G75*
G02*
X0320684Y0298996I-000861J0000000D01*
G01*
X0318667Y0298996D01*
G75*
G02*
X0317805Y0299857I0000000J0000861D01*
G01*
X0317805Y0301580D01*
G75*
G02*
X0318667Y0302441I0000861J0000000D01*
G01*
G37*
G36*
G01*
X0323888Y0277461D02*
X0323888Y0278799D01*
G75*
G02*
X0324439Y0279350I0000551J0000000D01*
G01*
X0325542Y0279350D01*
G75*
G02*
X0326093Y0278799I0000000J-000551D01*
G01*
X0326093Y0277461D01*
G75*
G02*
X0325542Y0276909I-000551J0000000D01*
G01*
X0324439Y0276909D01*
G75*
G02*
X0323888Y0277461I0000000J0000551D01*
G01*
G37*
G36*
G01*
X0327668Y0277461D02*
X0327668Y0278799D01*
G75*
G02*
X0328219Y0279350I0000551J0000000D01*
G01*
X0329321Y0279350D01*
G75*
G02*
X0329872Y0278799I0000000J-000551D01*
G01*
X0329872Y0277461D01*
G75*
G02*
X0329321Y0276909I-000551J0000000D01*
G01*
X0328219Y0276909D01*
G75*
G02*
X0327668Y0277461I0000000J0000551D01*
G01*
G37*
G36*
G01*
X0326742Y0295098D02*
X0325286Y0295098D01*
G75*
G02*
X0324754Y0295630I0000000J0000531D01*
G01*
X0324754Y0296693D01*
G75*
G02*
X0325286Y0297224I0000531J0000000D01*
G01*
X0326742Y0297224D01*
G75*
G02*
X0327274Y0296693I0000000J-000531D01*
G01*
X0327274Y0295630D01*
G75*
G02*
X0326742Y0295098I-000531J0000000D01*
G01*
G37*
G36*
G01*
X0326742Y0299114D02*
X0325286Y0299114D01*
G75*
G02*
X0324754Y0299646I0000000J0000531D01*
G01*
X0324754Y0300709D01*
G75*
G02*
X0325286Y0301240I0000531J0000000D01*
G01*
X0326742Y0301240D01*
G75*
G02*
X0327274Y0300709I0000000J-000531D01*
G01*
X0327274Y0299646D01*
G75*
G02*
X0326742Y0299114I-000531J0000000D01*
G01*
G37*
G36*
G01*
X0314656Y0284153D02*
X0316112Y0284153D01*
G75*
G02*
X0316644Y0283622I0000000J-000531D01*
G01*
X0316644Y0282559D01*
G75*
G02*
X0316112Y0282028I-000531J0000000D01*
G01*
X0314656Y0282028D01*
G75*
G02*
X0314124Y0282559I0000000J0000531D01*
G01*
X0314124Y0283622D01*
G75*
G02*
X0314656Y0284153I0000531J0000000D01*
G01*
G37*
G36*
G01*
X0314656Y0280138D02*
X0316112Y0280138D01*
G75*
G02*
X0316644Y0279606I0000000J-000531D01*
G01*
X0316644Y0278543D01*
G75*
G02*
X0316112Y0278012I-000531J0000000D01*
G01*
X0314656Y0278012D01*
G75*
G02*
X0314124Y0278543I0000000J0000531D01*
G01*
X0314124Y0279606D01*
G75*
G02*
X0314656Y0280138I0000531J0000000D01*
G01*
G37*
G36*
G01*
X0308865Y0279016D02*
X0308865Y0277559D01*
G75*
G02*
X0308334Y0277028I-000531J0000000D01*
G01*
X0307271Y0277028D01*
G75*
G02*
X0306739Y0277559I0000000J0000531D01*
G01*
X0306739Y0279016D01*
G75*
G02*
X0307271Y0279547I0000531J0000000D01*
G01*
X0308334Y0279547D01*
G75*
G02*
X0308865Y0279016I0000000J-000531D01*
G01*
G37*
G36*
G01*
X0304849Y0279016D02*
X0304849Y0277559D01*
G75*
G02*
X0304318Y0277028I-000531J0000000D01*
G01*
X0303255Y0277028D01*
G75*
G02*
X0302724Y0277559I0000000J0000531D01*
G01*
X0302724Y0279016D01*
G75*
G02*
X0303255Y0279547I0000531J0000000D01*
G01*
X0304318Y0279547D01*
G75*
G02*
X0304849Y0279016I0000000J-000531D01*
G01*
G37*
G36*
G01*
X0315463Y0296358D02*
X0314124Y0296358D01*
G75*
G02*
X0313573Y0296909I0000000J0000551D01*
G01*
X0313573Y0298012D01*
G75*
G02*
X0314124Y0298563I0000551J0000000D01*
G01*
X0315463Y0298563D01*
G75*
G02*
X0316014Y0298012I0000000J-000551D01*
G01*
X0316014Y0296909D01*
G75*
G02*
X0315463Y0296358I-000551J0000000D01*
G01*
G37*
G36*
G01*
X0315463Y0300138D02*
X0314124Y0300138D01*
G75*
G02*
X0313573Y0300689I0000000J0000551D01*
G01*
X0313573Y0301791D01*
G75*
G02*
X0314124Y0302342I0000551J0000000D01*
G01*
X0315463Y0302342D01*
G75*
G02*
X0316014Y0301791I0000000J-000551D01*
G01*
X0316014Y0300689D01*
G75*
G02*
X0315463Y0300138I-000551J0000000D01*
G01*
G37*
G36*
G01*
X0306926Y0259311D02*
X0306926Y0260650D01*
G75*
G02*
X0307477Y0261201I0000551J0000000D01*
G01*
X0308579Y0261201D01*
G75*
G02*
X0309131Y0260650I0000000J-000551D01*
G01*
X0309131Y0259311D01*
G75*
G02*
X0308579Y0258760I-000551J0000000D01*
G01*
X0307477Y0258760D01*
G75*
G02*
X0306926Y0259311I0000000J0000551D01*
G01*
G37*
G36*
G01*
X0310705Y0259311D02*
X0310705Y0260650D01*
G75*
G02*
X0311257Y0261201I0000551J0000000D01*
G01*
X0312359Y0261201D01*
G75*
G02*
X0312910Y0260650I0000000J-000551D01*
G01*
X0312910Y0259311D01*
G75*
G02*
X0312359Y0258760I-000551J0000000D01*
G01*
X0311257Y0258760D01*
G75*
G02*
X0310705Y0259311I0000000J0000551D01*
G01*
G37*
G36*
G01*
X0299400Y0284331D02*
X0300857Y0284331D01*
G75*
G02*
X0301388Y0283799I0000000J-000531D01*
G01*
X0301388Y0282736D01*
G75*
G02*
X0300857Y0282205I-000531J0000000D01*
G01*
X0299400Y0282205D01*
G75*
G02*
X0298868Y0282736I0000000J0000531D01*
G01*
X0298868Y0283799D01*
G75*
G02*
X0299400Y0284331I0000531J0000000D01*
G01*
G37*
G36*
G01*
X0299400Y0280315D02*
X0300857Y0280315D01*
G75*
G02*
X0301388Y0279783I0000000J-000531D01*
G01*
X0301388Y0278720D01*
G75*
G02*
X0300857Y0278189I-000531J0000000D01*
G01*
X0299400Y0278189D01*
G75*
G02*
X0298868Y0278720I0000000J0000531D01*
G01*
X0298868Y0279783D01*
G75*
G02*
X0299400Y0280315I0000531J0000000D01*
G01*
G37*
D155*
X0300620Y0255072D03*
X0300620Y0252513D03*
X0300620Y0249954D03*
X0308101Y0249954D03*
X0308101Y0252513D03*
X0308101Y0255072D03*
G36*
G01*
X0309406Y0301021D02*
X0310587Y0301021D01*
G75*
G02*
X0311178Y0300430I0000000J-000591D01*
G01*
X0311178Y0296395D01*
G75*
G02*
X0310587Y0295804I-000591J0000000D01*
G01*
X0309406Y0295804D01*
G75*
G02*
X0308816Y0296395I0000000J0000591D01*
G01*
X0308816Y0300430D01*
G75*
G02*
X0309406Y0301021I0000591J0000000D01*
G01*
G37*
G36*
G01*
X0305666Y0301021D02*
X0306847Y0301021D01*
G75*
G02*
X0307438Y0300430I0000000J-000591D01*
G01*
X0307438Y0296395D01*
G75*
G02*
X0306847Y0295804I-000591J0000000D01*
G01*
X0305666Y0295804D01*
G75*
G02*
X0305075Y0296395I0000000J0000591D01*
G01*
X0305075Y0300430D01*
G75*
G02*
X0305666Y0301021I0000591J0000000D01*
G01*
G37*
G36*
G01*
X0301926Y0301021D02*
X0303107Y0301021D01*
G75*
G02*
X0303697Y0300430I0000000J-000591D01*
G01*
X0303697Y0296395D01*
G75*
G02*
X0303107Y0295804I-000591J0000000D01*
G01*
X0301926Y0295804D01*
G75*
G02*
X0301335Y0296395I0000000J0000591D01*
G01*
X0301335Y0300430D01*
G75*
G02*
X0301926Y0301021I0000591J0000000D01*
G01*
G37*
G36*
G01*
X0301926Y0292064D02*
X0303107Y0292064D01*
G75*
G02*
X0303697Y0291474I0000000J-000591D01*
G01*
X0303697Y0287438D01*
G75*
G02*
X0303107Y0286848I-000591J0000000D01*
G01*
X0301926Y0286848D01*
G75*
G02*
X0301335Y0287438I0000000J0000591D01*
G01*
X0301335Y0291474D01*
G75*
G02*
X0301926Y0292064I0000591J0000000D01*
G01*
G37*
G36*
G01*
X0305666Y0292064D02*
X0306847Y0292064D01*
G75*
G02*
X0307438Y0291474I0000000J-000591D01*
G01*
X0307438Y0287438D01*
G75*
G02*
X0306847Y0286848I-000591J0000000D01*
G01*
X0305666Y0286848D01*
G75*
G02*
X0305075Y0287438I0000000J0000591D01*
G01*
X0305075Y0291474D01*
G75*
G02*
X0305666Y0292064I0000591J0000000D01*
G01*
G37*
G36*
G01*
X0309406Y0292064D02*
X0310587Y0292064D01*
G75*
G02*
X0311178Y0291474I0000000J-000591D01*
G01*
X0311178Y0287438D01*
G75*
G02*
X0310587Y0286848I-000591J0000000D01*
G01*
X0309406Y0286848D01*
G75*
G02*
X0308816Y0287438I0000000J0000591D01*
G01*
X0308816Y0291474D01*
G75*
G02*
X0309406Y0292064I0000591J0000000D01*
G01*
G37*
G36*
G01*
X0321290Y0289902D02*
X0322628Y0289902D01*
G75*
G02*
X0323179Y0289350I0000000J-000551D01*
G01*
X0323179Y0288248D01*
G75*
G02*
X0322628Y0287697I-000551J0000000D01*
G01*
X0321290Y0287697D01*
G75*
G02*
X0320738Y0288248I0000000J0000551D01*
G01*
X0320738Y0289350D01*
G75*
G02*
X0321290Y0289902I0000551J0000000D01*
G01*
G37*
G36*
G01*
X0321290Y0286122D02*
X0322628Y0286122D01*
G75*
G02*
X0323179Y0285571I0000000J-000551D01*
G01*
X0323179Y0284468D01*
G75*
G02*
X0322628Y0283917I-000551J0000000D01*
G01*
X0321290Y0283917D01*
G75*
G02*
X0320738Y0284468I0000000J0000551D01*
G01*
X0320738Y0285571D01*
G75*
G02*
X0321290Y0286122I0000551J0000000D01*
G01*
G37*
G36*
G01*
X0299085Y0268366D02*
X0299085Y0269705D01*
G75*
G02*
X0299636Y0270256I0000551J0000000D01*
G01*
X0300738Y0270256D01*
G75*
G02*
X0301290Y0269705I0000000J-000551D01*
G01*
X0301290Y0268366D01*
G75*
G02*
X0300738Y0267815I-000551J0000000D01*
G01*
X0299636Y0267815D01*
G75*
G02*
X0299085Y0268366I0000000J0000551D01*
G01*
G37*
G36*
G01*
X0302864Y0268366D02*
X0302864Y0269705D01*
G75*
G02*
X0303416Y0270256I0000551J0000000D01*
G01*
X0304518Y0270256D01*
G75*
G02*
X0305069Y0269705I0000000J-000551D01*
G01*
X0305069Y0268366D01*
G75*
G02*
X0304518Y0267815I-000551J0000000D01*
G01*
X0303416Y0267815D01*
G75*
G02*
X0302864Y0268366I0000000J0000551D01*
G01*
G37*
G36*
G01*
X0306847Y0264370D02*
X0306847Y0265827D01*
G75*
G02*
X0307379Y0266358I0000531J0000000D01*
G01*
X0308442Y0266358D01*
G75*
G02*
X0308973Y0265827I0000000J-000531D01*
G01*
X0308973Y0264370D01*
G75*
G02*
X0308442Y0263839I-000531J0000000D01*
G01*
X0307379Y0263839D01*
G75*
G02*
X0306847Y0264370I0000000J0000531D01*
G01*
G37*
G36*
G01*
X0310863Y0264370D02*
X0310863Y0265827D01*
G75*
G02*
X0311394Y0266358I0000531J0000000D01*
G01*
X0312457Y0266358D01*
G75*
G02*
X0312989Y0265827I0000000J-000531D01*
G01*
X0312989Y0264370D01*
G75*
G02*
X0312457Y0263839I-000531J0000000D01*
G01*
X0311394Y0263839D01*
G75*
G02*
X0310863Y0264370I0000000J0000531D01*
G01*
G37*
X0253573Y0305059D02*
%LPD*%
G01*
D309*
X0266565Y0271201D03*
X0264597Y0271201D03*
X0262628Y0271201D03*
X0260660Y0271201D03*
X0258691Y0271201D03*
X0258691Y0253878D03*
X0260660Y0253878D03*
X0262628Y0253878D03*
X0264597Y0253878D03*
X0266565Y0253878D03*
G36*
G01*
X0279754Y0263681D02*
X0279754Y0260610D01*
G75*
G02*
X0279479Y0260335I-000276J0000000D01*
G01*
X0277274Y0260335D01*
G75*
G02*
X0276998Y0260610I0000000J0000276D01*
G01*
X0276998Y0263681D01*
G75*
G02*
X0277274Y0263957I0000276J0000000D01*
G01*
X0279479Y0263957D01*
G75*
G02*
X0279754Y0263681I0000000J-000276D01*
G01*
G37*
G36*
G01*
X0273455Y0263681D02*
X0273455Y0260610D01*
G75*
G02*
X0273179Y0260335I-000276J0000000D01*
G01*
X0270975Y0260335D01*
G75*
G02*
X0270699Y0260610I0000000J0000276D01*
G01*
X0270699Y0263681D01*
G75*
G02*
X0270975Y0263957I0000276J0000000D01*
G01*
X0273179Y0263957D01*
G75*
G02*
X0273455Y0263681I0000000J-000276D01*
G01*
G37*
G36*
G01*
X0286408Y0249350D02*
X0283337Y0249350D01*
G75*
G02*
X0283061Y0249626I0000000J0000276D01*
G01*
X0283061Y0251831D01*
G75*
G02*
X0283337Y0252106I0000276J0000000D01*
G01*
X0286408Y0252106D01*
G75*
G02*
X0286683Y0251831I0000000J-000276D01*
G01*
X0286683Y0249626D01*
G75*
G02*
X0286408Y0249350I-000276J0000000D01*
G01*
G37*
G36*
G01*
X0286408Y0255650D02*
X0283337Y0255650D01*
G75*
G02*
X0283061Y0255925I0000000J0000276D01*
G01*
X0283061Y0258130D01*
G75*
G02*
X0283337Y0258405I0000276J0000000D01*
G01*
X0286408Y0258405D01*
G75*
G02*
X0286683Y0258130I0000000J-000276D01*
G01*
X0286683Y0255925D01*
G75*
G02*
X0286408Y0255650I-000276J0000000D01*
G01*
G37*
G36*
G01*
X0279754Y0269587D02*
X0279754Y0266516D01*
G75*
G02*
X0279479Y0266240I-000276J0000000D01*
G01*
X0277274Y0266240D01*
G75*
G02*
X0276998Y0266516I0000000J0000276D01*
G01*
X0276998Y0269587D01*
G75*
G02*
X0277274Y0269862I0000276J0000000D01*
G01*
X0279479Y0269862D01*
G75*
G02*
X0279754Y0269587I0000000J-000276D01*
G01*
G37*
G36*
G01*
X0273455Y0269587D02*
X0273455Y0266516D01*
G75*
G02*
X0273179Y0266240I-000276J0000000D01*
G01*
X0270975Y0266240D01*
G75*
G02*
X0270699Y0266516I0000000J0000276D01*
G01*
X0270699Y0269587D01*
G75*
G02*
X0270975Y0269862I0000276J0000000D01*
G01*
X0273179Y0269862D01*
G75*
G02*
X0273455Y0269587I0000000J-000276D01*
G01*
G37*
G36*
G01*
X0286078Y0261260D02*
X0284060Y0261260D01*
G75*
G02*
X0283199Y0262121I0000000J0000861D01*
G01*
X0283199Y0263843D01*
G75*
G02*
X0284060Y0264705I0000861J0000000D01*
G01*
X0286078Y0264705D01*
G75*
G02*
X0286939Y0263843I0000000J-000861D01*
G01*
X0286939Y0262121D01*
G75*
G02*
X0286078Y0261260I-000861J0000000D01*
G01*
G37*
G36*
G01*
X0286078Y0267461D02*
X0284060Y0267461D01*
G75*
G02*
X0283199Y0268322I0000000J0000861D01*
G01*
X0283199Y0270044D01*
G75*
G02*
X0284060Y0270905I0000861J0000000D01*
G01*
X0286078Y0270905D01*
G75*
G02*
X0286939Y0270044I0000000J-000861D01*
G01*
X0286939Y0268322D01*
G75*
G02*
X0286078Y0267461I-000861J0000000D01*
G01*
G37*
G36*
G01*
X0279116Y0255315D02*
X0276439Y0255315D01*
G75*
G02*
X0276104Y0255650I0000000J0000335D01*
G01*
X0276104Y0258327D01*
G75*
G02*
X0276439Y0258661I0000335J0000000D01*
G01*
X0279116Y0258661D01*
G75*
G02*
X0279451Y0258327I0000000J-000335D01*
G01*
X0279451Y0255650D01*
G75*
G02*
X0279116Y0255315I-000335J0000000D01*
G01*
G37*
G36*
G01*
X0279116Y0249094D02*
X0276439Y0249094D01*
G75*
G02*
X0276104Y0249429I0000000J0000335D01*
G01*
X0276104Y0252106D01*
G75*
G02*
X0276439Y0252441I0000335J0000000D01*
G01*
X0279116Y0252441D01*
G75*
G02*
X0279451Y0252106I0000000J-000335D01*
G01*
X0279451Y0249429D01*
G75*
G02*
X0279116Y0249094I-000335J0000000D01*
G01*
G37*
G36*
G01*
X0273809Y0249094D02*
X0271132Y0249094D01*
G75*
G02*
X0270797Y0249429I0000000J0000335D01*
G01*
X0270797Y0252106D01*
G75*
G02*
X0271132Y0252441I0000335J0000000D01*
G01*
X0273809Y0252441D01*
G75*
G02*
X0274144Y0252106I0000000J-000335D01*
G01*
X0274144Y0249429D01*
G75*
G02*
X0273809Y0249094I-000335J0000000D01*
G01*
G37*
G36*
G01*
X0273809Y0255315D02*
X0271132Y0255315D01*
G75*
G02*
X0270797Y0255650I0000000J0000335D01*
G01*
X0270797Y0258327D01*
G75*
G02*
X0271132Y0258661I0000335J0000000D01*
G01*
X0273809Y0258661D01*
G75*
G02*
X0274144Y0258327I0000000J-000335D01*
G01*
X0274144Y0255650D01*
G75*
G02*
X0273809Y0255315I-000335J0000000D01*
G01*
G37*
G36*
G01*
X0280010Y0274508D02*
X0280010Y0271831D01*
G75*
G02*
X0279675Y0271496I-000335J0000000D01*
G01*
X0276998Y0271496D01*
G75*
G02*
X0276664Y0271831I0000000J0000335D01*
G01*
X0276664Y0274508D01*
G75*
G02*
X0276998Y0274842I0000335J0000000D01*
G01*
X0279675Y0274842D01*
G75*
G02*
X0280010Y0274508I0000000J-000335D01*
G01*
G37*
G36*
G01*
X0273790Y0274508D02*
X0273790Y0271831D01*
G75*
G02*
X0273455Y0271496I-000335J0000000D01*
G01*
X0270778Y0271496D01*
G75*
G02*
X0270443Y0271831I0000000J0000335D01*
G01*
X0270443Y0274508D01*
G75*
G02*
X0270778Y0274842I0000335J0000000D01*
G01*
X0273455Y0274842D01*
G75*
G02*
X0273790Y0274508I0000000J-000335D01*
G01*
G37*
X0522077Y0155945D02*
%LPD*%
G01*
G36*
G01*
X0486368Y0223553D02*
X0486368Y0222195D01*
G75*
G02*
X0485788Y0221614I-000581J0000000D01*
G01*
X0484626Y0221614D01*
G75*
G02*
X0484046Y0222195I0000000J0000581D01*
G01*
X0484046Y0223553D01*
G75*
G02*
X0484626Y0224134I0000581J0000000D01*
G01*
X0485788Y0224134D01*
G75*
G02*
X0486368Y0223553I0000000J-000581D01*
G01*
G37*
G36*
G01*
X0482549Y0223553D02*
X0482549Y0222195D01*
G75*
G02*
X0481969Y0221614I-000581J0000000D01*
G01*
X0480807Y0221614D01*
G75*
G02*
X0480227Y0222195I0000000J0000581D01*
G01*
X0480227Y0223553D01*
G75*
G02*
X0480807Y0224134I0000581J0000000D01*
G01*
X0481969Y0224134D01*
G75*
G02*
X0482549Y0223553I0000000J-000581D01*
G01*
G37*
G36*
G01*
X0501792Y0164980D02*
X0500433Y0164980D01*
G75*
G02*
X0499853Y0165561I0000000J0000581D01*
G01*
X0499853Y0166723D01*
G75*
G02*
X0500433Y0167303I0000581J0000000D01*
G01*
X0501792Y0167303D01*
G75*
G02*
X0502372Y0166723I0000000J-000581D01*
G01*
X0502372Y0165561D01*
G75*
G02*
X0501792Y0164980I-000581J0000000D01*
G01*
G37*
G36*
G01*
X0501792Y0168799D02*
X0500433Y0168799D01*
G75*
G02*
X0499853Y0169380I0000000J0000581D01*
G01*
X0499853Y0170541D01*
G75*
G02*
X0500433Y0171122I0000581J0000000D01*
G01*
X0501792Y0171122D01*
G75*
G02*
X0502372Y0170541I0000000J-000581D01*
G01*
X0502372Y0169380D01*
G75*
G02*
X0501792Y0168799I-000581J0000000D01*
G01*
G37*
G36*
G01*
X0486595Y0175507D02*
X0486595Y0177525D01*
G75*
G02*
X0487456Y0178386I0000861J0000000D01*
G01*
X0489178Y0178386D01*
G75*
G02*
X0490040Y0177525I0000000J-000861D01*
G01*
X0490040Y0175507D01*
G75*
G02*
X0489178Y0174646I-000861J0000000D01*
G01*
X0487456Y0174646D01*
G75*
G02*
X0486595Y0175507I0000000J0000861D01*
G01*
G37*
G36*
G01*
X0492796Y0175507D02*
X0492796Y0177525D01*
G75*
G02*
X0493657Y0178386I0000861J0000000D01*
G01*
X0495379Y0178386D01*
G75*
G02*
X0496240Y0177525I0000000J-000861D01*
G01*
X0496240Y0175507D01*
G75*
G02*
X0495379Y0174646I-000861J0000000D01*
G01*
X0493657Y0174646D01*
G75*
G02*
X0492796Y0175507I0000000J0000861D01*
G01*
G37*
G36*
G01*
X0511624Y0221998D02*
X0511624Y0223356D01*
G75*
G02*
X0512205Y0223937I0000581J0000000D01*
G01*
X0513366Y0223937D01*
G75*
G02*
X0513947Y0223356I0000000J-000581D01*
G01*
X0513947Y0221998D01*
G75*
G02*
X0513366Y0221417I-000581J0000000D01*
G01*
X0512205Y0221417D01*
G75*
G02*
X0511624Y0221998I0000000J0000581D01*
G01*
G37*
G36*
G01*
X0515443Y0221998D02*
X0515443Y0223356D01*
G75*
G02*
X0516024Y0223937I0000581J0000000D01*
G01*
X0517185Y0223937D01*
G75*
G02*
X0517766Y0223356I0000000J-000581D01*
G01*
X0517766Y0221998D01*
G75*
G02*
X0517185Y0221417I-000581J0000000D01*
G01*
X0516024Y0221417D01*
G75*
G02*
X0515443Y0221998I0000000J0000581D01*
G01*
G37*
D163*
X0495797Y0170807D03*
X0488317Y0170807D03*
X0492057Y0162933D03*
G36*
G01*
X0511624Y0217815D02*
X0511624Y0219173D01*
G75*
G02*
X0512205Y0219754I0000581J0000000D01*
G01*
X0513366Y0219754D01*
G75*
G02*
X0513947Y0219173I0000000J-000581D01*
G01*
X0513947Y0217815D01*
G75*
G02*
X0513366Y0217234I-000581J0000000D01*
G01*
X0512205Y0217234D01*
G75*
G02*
X0511624Y0217815I0000000J0000581D01*
G01*
G37*
G36*
G01*
X0515443Y0217815D02*
X0515443Y0219173D01*
G75*
G02*
X0516024Y0219754I0000581J0000000D01*
G01*
X0517185Y0219754D01*
G75*
G02*
X0517766Y0219173I0000000J-000581D01*
G01*
X0517766Y0217815D01*
G75*
G02*
X0517185Y0217234I-000581J0000000D01*
G01*
X0516024Y0217234D01*
G75*
G02*
X0515443Y0217815I0000000J0000581D01*
G01*
G37*
G36*
G01*
X0487707Y0222195D02*
X0487707Y0223553D01*
G75*
G02*
X0488288Y0224134I0000581J0000000D01*
G01*
X0489449Y0224134D01*
G75*
G02*
X0490030Y0223553I0000000J-000581D01*
G01*
X0490030Y0222195D01*
G75*
G02*
X0489449Y0221614I-000581J0000000D01*
G01*
X0488288Y0221614D01*
G75*
G02*
X0487707Y0222195I0000000J0000581D01*
G01*
G37*
G36*
G01*
X0491526Y0222195D02*
X0491526Y0223553D01*
G75*
G02*
X0492107Y0224134I0000581J0000000D01*
G01*
X0493268Y0224134D01*
G75*
G02*
X0493849Y0223553I0000000J-000581D01*
G01*
X0493849Y0222195D01*
G75*
G02*
X0493268Y0221614I-000581J0000000D01*
G01*
X0492107Y0221614D01*
G75*
G02*
X0491526Y0222195I0000000J0000581D01*
G01*
G37*
G36*
G01*
X0475443Y0218435D02*
X0475443Y0217077D01*
G75*
G02*
X0474862Y0216496I-000581J0000000D01*
G01*
X0473701Y0216496D01*
G75*
G02*
X0473120Y0217077I0000000J0000581D01*
G01*
X0473120Y0218435D01*
G75*
G02*
X0473701Y0219016I0000581J0000000D01*
G01*
X0474862Y0219016D01*
G75*
G02*
X0475443Y0218435I0000000J-000581D01*
G01*
G37*
G36*
G01*
X0471624Y0218435D02*
X0471624Y0217077D01*
G75*
G02*
X0471044Y0216496I-000581J0000000D01*
G01*
X0469882Y0216496D01*
G75*
G02*
X0469301Y0217077I0000000J0000581D01*
G01*
X0469301Y0218435D01*
G75*
G02*
X0469882Y0219016I0000581J0000000D01*
G01*
X0471044Y0219016D01*
G75*
G02*
X0471624Y0218435I0000000J-000581D01*
G01*
G37*
G36*
G01*
X0502215Y0223553D02*
X0502215Y0222195D01*
G75*
G02*
X0501634Y0221614I-000581J0000000D01*
G01*
X0500473Y0221614D01*
G75*
G02*
X0499892Y0222195I0000000J0000581D01*
G01*
X0499892Y0223553D01*
G75*
G02*
X0500473Y0224134I0000581J0000000D01*
G01*
X0501634Y0224134D01*
G75*
G02*
X0502215Y0223553I0000000J-000581D01*
G01*
G37*
G36*
G01*
X0498396Y0223553D02*
X0498396Y0222195D01*
G75*
G02*
X0497815Y0221614I-000581J0000000D01*
G01*
X0496654Y0221614D01*
G75*
G02*
X0496073Y0222195I0000000J0000581D01*
G01*
X0496073Y0223553D01*
G75*
G02*
X0496654Y0224134I0000581J0000000D01*
G01*
X0497815Y0224134D01*
G75*
G02*
X0498396Y0223553I0000000J-000581D01*
G01*
G37*
G36*
G01*
X0475443Y0183789D02*
X0475443Y0182431D01*
G75*
G02*
X0474862Y0181851I-000581J0000000D01*
G01*
X0473701Y0181851D01*
G75*
G02*
X0473120Y0182431I0000000J0000581D01*
G01*
X0473120Y0183789D01*
G75*
G02*
X0473701Y0184370I0000581J0000000D01*
G01*
X0474862Y0184370D01*
G75*
G02*
X0475443Y0183789I0000000J-000581D01*
G01*
G37*
G36*
G01*
X0471624Y0183789D02*
X0471624Y0182431D01*
G75*
G02*
X0471044Y0181851I-000581J0000000D01*
G01*
X0469882Y0181851D01*
G75*
G02*
X0469301Y0182431I0000000J0000581D01*
G01*
X0469301Y0183789D01*
G75*
G02*
X0469882Y0184370I0000581J0000000D01*
G01*
X0471044Y0184370D01*
G75*
G02*
X0471624Y0183789I0000000J-000581D01*
G01*
G37*
D314*
X0500325Y0245256D03*
X0500325Y0233248D03*
X0513514Y0245256D03*
X0513514Y0233248D03*
D310*
X0482116Y0248228D03*
X0482116Y0230276D03*
G36*
G01*
X0501890Y0172756D02*
X0500532Y0172756D01*
G75*
G02*
X0499951Y0173337I0000000J0000581D01*
G01*
X0499951Y0174498D01*
G75*
G02*
X0500532Y0175079I0000581J0000000D01*
G01*
X0501890Y0175079D01*
G75*
G02*
X0502471Y0174498I0000000J-000581D01*
G01*
X0502471Y0173337D01*
G75*
G02*
X0501890Y0172756I-000581J0000000D01*
G01*
G37*
G36*
G01*
X0501890Y0176575D02*
X0500532Y0176575D01*
G75*
G02*
X0499951Y0177156I0000000J0000581D01*
G01*
X0499951Y0178317D01*
G75*
G02*
X0500532Y0178898I0000581J0000000D01*
G01*
X0501890Y0178898D01*
G75*
G02*
X0502471Y0178317I0000000J-000581D01*
G01*
X0502471Y0177156D01*
G75*
G02*
X0501890Y0176575I-000581J0000000D01*
G01*
G37*
G36*
G01*
X0515556Y0211260D02*
X0517574Y0211260D01*
G75*
G02*
X0518435Y0210399I0000000J-000861D01*
G01*
X0518435Y0208676D01*
G75*
G02*
X0517574Y0207815I-000861J0000000D01*
G01*
X0515556Y0207815D01*
G75*
G02*
X0514695Y0208676I0000000J0000861D01*
G01*
X0514695Y0210399D01*
G75*
G02*
X0515556Y0211260I0000861J0000000D01*
G01*
G37*
G36*
G01*
X0515556Y0205059D02*
X0517574Y0205059D01*
G75*
G02*
X0518435Y0204198I0000000J-000861D01*
G01*
X0518435Y0202476D01*
G75*
G02*
X0517574Y0201614I-000861J0000000D01*
G01*
X0515556Y0201614D01*
G75*
G02*
X0514695Y0202476I0000000J0000861D01*
G01*
X0514695Y0204198D01*
G75*
G02*
X0515556Y0205059I0000861J0000000D01*
G01*
G37*
G36*
G01*
X0511624Y0213632D02*
X0511624Y0214990D01*
G75*
G02*
X0512205Y0215571I0000581J0000000D01*
G01*
X0513366Y0215571D01*
G75*
G02*
X0513947Y0214990I0000000J-000581D01*
G01*
X0513947Y0213632D01*
G75*
G02*
X0513366Y0213051I-000581J0000000D01*
G01*
X0512205Y0213051D01*
G75*
G02*
X0511624Y0213632I0000000J0000581D01*
G01*
G37*
G36*
G01*
X0515443Y0213632D02*
X0515443Y0214990D01*
G75*
G02*
X0516024Y0215571I0000581J0000000D01*
G01*
X0517185Y0215571D01*
G75*
G02*
X0517766Y0214990I0000000J-000581D01*
G01*
X0517766Y0213632D01*
G75*
G02*
X0517185Y0213051I-000581J0000000D01*
G01*
X0516024Y0213051D01*
G75*
G02*
X0515443Y0213632I0000000J0000581D01*
G01*
G37*
G36*
G01*
X0516171Y0257741D02*
X0516171Y0255724D01*
G75*
G02*
X0515310Y0254862I-000861J0000000D01*
G01*
X0513588Y0254862D01*
G75*
G02*
X0512727Y0255724I0000000J0000861D01*
G01*
X0512727Y0257741D01*
G75*
G02*
X0513588Y0258602I0000861J0000000D01*
G01*
X0515310Y0258602D01*
G75*
G02*
X0516171Y0257741I0000000J-000861D01*
G01*
G37*
G36*
G01*
X0509971Y0257741D02*
X0509971Y0255724D01*
G75*
G02*
X0509109Y0254862I-000861J0000000D01*
G01*
X0507387Y0254862D01*
G75*
G02*
X0506526Y0255724I0000000J0000861D01*
G01*
X0506526Y0257741D01*
G75*
G02*
X0507387Y0258602I0000861J0000000D01*
G01*
X0509109Y0258602D01*
G75*
G02*
X0509971Y0257741I0000000J-000861D01*
G01*
G37*
G36*
G01*
X0517574Y0189902D02*
X0515556Y0189902D01*
G75*
G02*
X0514695Y0190763I0000000J0000861D01*
G01*
X0514695Y0192485D01*
G75*
G02*
X0515556Y0193347I0000861J0000000D01*
G01*
X0517574Y0193347D01*
G75*
G02*
X0518435Y0192485I0000000J-000861D01*
G01*
X0518435Y0190763D01*
G75*
G02*
X0517574Y0189902I-000861J0000000D01*
G01*
G37*
G36*
G01*
X0517574Y0196102D02*
X0515556Y0196102D01*
G75*
G02*
X0514695Y0196964I0000000J0000861D01*
G01*
X0514695Y0198686D01*
G75*
G02*
X0515556Y0199547I0000861J0000000D01*
G01*
X0517574Y0199547D01*
G75*
G02*
X0518435Y0198686I0000000J-000861D01*
G01*
X0518435Y0196964D01*
G75*
G02*
X0517574Y0196102I-000861J0000000D01*
G01*
G37*
G36*
G01*
X0513396Y0185581D02*
X0513396Y0186939D01*
G75*
G02*
X0513977Y0187520I0000581J0000000D01*
G01*
X0515138Y0187520D01*
G75*
G02*
X0515719Y0186939I0000000J-000581D01*
G01*
X0515719Y0185581D01*
G75*
G02*
X0515138Y0185000I-000581J0000000D01*
G01*
X0513977Y0185000D01*
G75*
G02*
X0513396Y0185581I0000000J0000581D01*
G01*
G37*
G36*
G01*
X0517215Y0185581D02*
X0517215Y0186939D01*
G75*
G02*
X0517796Y0187520I0000581J0000000D01*
G01*
X0518957Y0187520D01*
G75*
G02*
X0519538Y0186939I0000000J-000581D01*
G01*
X0519538Y0185581D01*
G75*
G02*
X0518957Y0185000I-000581J0000000D01*
G01*
X0517796Y0185000D01*
G75*
G02*
X0517215Y0185581I0000000J0000581D01*
G01*
G37*
G36*
G01*
X0500719Y0220020D02*
X0501703Y0220020D01*
G75*
G02*
X0502195Y0219528I0000000J-000492D01*
G01*
X0502195Y0214606D01*
G75*
G02*
X0501703Y0214114I-000492J0000000D01*
G01*
X0500719Y0214114D01*
G75*
G02*
X0500227Y0214606I0000000J0000492D01*
G01*
X0500227Y0219528D01*
G75*
G02*
X0500719Y0220020I0000492J0000000D01*
G01*
G37*
G36*
G01*
X0497569Y0220020D02*
X0498553Y0220020D01*
G75*
G02*
X0499046Y0219528I0000000J-000492D01*
G01*
X0499046Y0214606D01*
G75*
G02*
X0498553Y0214114I-000492J0000000D01*
G01*
X0497569Y0214114D01*
G75*
G02*
X0497077Y0214606I0000000J0000492D01*
G01*
X0497077Y0219528D01*
G75*
G02*
X0497569Y0220020I0000492J0000000D01*
G01*
G37*
G36*
G01*
X0494420Y0220020D02*
X0495404Y0220020D01*
G75*
G02*
X0495896Y0219528I0000000J-000492D01*
G01*
X0495896Y0214606D01*
G75*
G02*
X0495404Y0214114I-000492J0000000D01*
G01*
X0494420Y0214114D01*
G75*
G02*
X0493927Y0214606I0000000J0000492D01*
G01*
X0493927Y0219528D01*
G75*
G02*
X0494420Y0220020I0000492J0000000D01*
G01*
G37*
G36*
G01*
X0491270Y0220020D02*
X0492254Y0220020D01*
G75*
G02*
X0492746Y0219528I0000000J-000492D01*
G01*
X0492746Y0214606D01*
G75*
G02*
X0492254Y0214114I-000492J0000000D01*
G01*
X0491270Y0214114D01*
G75*
G02*
X0490778Y0214606I0000000J0000492D01*
G01*
X0490778Y0219528D01*
G75*
G02*
X0491270Y0220020I0000492J0000000D01*
G01*
G37*
G36*
G01*
X0488120Y0220020D02*
X0489105Y0220020D01*
G75*
G02*
X0489597Y0219528I0000000J-000492D01*
G01*
X0489597Y0214606D01*
G75*
G02*
X0489105Y0214114I-000492J0000000D01*
G01*
X0488120Y0214114D01*
G75*
G02*
X0487628Y0214606I0000000J0000492D01*
G01*
X0487628Y0219528D01*
G75*
G02*
X0488120Y0220020I0000492J0000000D01*
G01*
G37*
G36*
G01*
X0484971Y0220020D02*
X0485955Y0220020D01*
G75*
G02*
X0486447Y0219528I0000000J-000492D01*
G01*
X0486447Y0214606D01*
G75*
G02*
X0485955Y0214114I-000492J0000000D01*
G01*
X0484971Y0214114D01*
G75*
G02*
X0484479Y0214606I0000000J0000492D01*
G01*
X0484479Y0219528D01*
G75*
G02*
X0484971Y0220020I0000492J0000000D01*
G01*
G37*
G36*
G01*
X0481821Y0220020D02*
X0482805Y0220020D01*
G75*
G02*
X0483297Y0219528I0000000J-000492D01*
G01*
X0483297Y0214606D01*
G75*
G02*
X0482805Y0214114I-000492J0000000D01*
G01*
X0481821Y0214114D01*
G75*
G02*
X0481329Y0214606I0000000J0000492D01*
G01*
X0481329Y0219528D01*
G75*
G02*
X0481821Y0220020I0000492J0000000D01*
G01*
G37*
G36*
G01*
X0478671Y0220020D02*
X0479656Y0220020D01*
G75*
G02*
X0480148Y0219528I0000000J-000492D01*
G01*
X0480148Y0214606D01*
G75*
G02*
X0479656Y0214114I-000492J0000000D01*
G01*
X0478671Y0214114D01*
G75*
G02*
X0478179Y0214606I0000000J0000492D01*
G01*
X0478179Y0219528D01*
G75*
G02*
X0478671Y0220020I0000492J0000000D01*
G01*
G37*
G36*
G01*
X0471290Y0212638D02*
X0476211Y0212638D01*
G75*
G02*
X0476703Y0212146I0000000J-000492D01*
G01*
X0476703Y0211162D01*
G75*
G02*
X0476211Y0210669I-000492J0000000D01*
G01*
X0471290Y0210669D01*
G75*
G02*
X0470797Y0211162I0000000J0000492D01*
G01*
X0470797Y0212146D01*
G75*
G02*
X0471290Y0212638I0000492J0000000D01*
G01*
G37*
G36*
G01*
X0471290Y0209488D02*
X0476211Y0209488D01*
G75*
G02*
X0476703Y0208996I0000000J-000492D01*
G01*
X0476703Y0208012D01*
G75*
G02*
X0476211Y0207520I-000492J0000000D01*
G01*
X0471290Y0207520D01*
G75*
G02*
X0470797Y0208012I0000000J0000492D01*
G01*
X0470797Y0208996D01*
G75*
G02*
X0471290Y0209488I0000492J0000000D01*
G01*
G37*
G36*
G01*
X0471290Y0206339D02*
X0476211Y0206339D01*
G75*
G02*
X0476703Y0205847I0000000J-000492D01*
G01*
X0476703Y0204862D01*
G75*
G02*
X0476211Y0204370I-000492J0000000D01*
G01*
X0471290Y0204370D01*
G75*
G02*
X0470797Y0204862I0000000J0000492D01*
G01*
X0470797Y0205847D01*
G75*
G02*
X0471290Y0206339I0000492J0000000D01*
G01*
G37*
G36*
G01*
X0471290Y0203189D02*
X0476211Y0203189D01*
G75*
G02*
X0476703Y0202697I0000000J-000492D01*
G01*
X0476703Y0201713D01*
G75*
G02*
X0476211Y0201221I-000492J0000000D01*
G01*
X0471290Y0201221D01*
G75*
G02*
X0470797Y0201713I0000000J0000492D01*
G01*
X0470797Y0202697D01*
G75*
G02*
X0471290Y0203189I0000492J0000000D01*
G01*
G37*
G36*
G01*
X0471290Y0200039D02*
X0476211Y0200039D01*
G75*
G02*
X0476703Y0199547I0000000J-000492D01*
G01*
X0476703Y0198563D01*
G75*
G02*
X0476211Y0198071I-000492J0000000D01*
G01*
X0471290Y0198071D01*
G75*
G02*
X0470797Y0198563I0000000J0000492D01*
G01*
X0470797Y0199547D01*
G75*
G02*
X0471290Y0200039I0000492J0000000D01*
G01*
G37*
G36*
G01*
X0471290Y0196890D02*
X0476211Y0196890D01*
G75*
G02*
X0476703Y0196398I0000000J-000492D01*
G01*
X0476703Y0195414D01*
G75*
G02*
X0476211Y0194921I-000492J0000000D01*
G01*
X0471290Y0194921D01*
G75*
G02*
X0470797Y0195414I0000000J0000492D01*
G01*
X0470797Y0196398D01*
G75*
G02*
X0471290Y0196890I0000492J0000000D01*
G01*
G37*
G36*
G01*
X0471290Y0193740D02*
X0476211Y0193740D01*
G75*
G02*
X0476703Y0193248I0000000J-000492D01*
G01*
X0476703Y0192264D01*
G75*
G02*
X0476211Y0191772I-000492J0000000D01*
G01*
X0471290Y0191772D01*
G75*
G02*
X0470797Y0192264I0000000J0000492D01*
G01*
X0470797Y0193248D01*
G75*
G02*
X0471290Y0193740I0000492J0000000D01*
G01*
G37*
G36*
G01*
X0471290Y0190591D02*
X0476211Y0190591D01*
G75*
G02*
X0476703Y0190099I0000000J-000492D01*
G01*
X0476703Y0189114D01*
G75*
G02*
X0476211Y0188622I-000492J0000000D01*
G01*
X0471290Y0188622D01*
G75*
G02*
X0470797Y0189114I0000000J0000492D01*
G01*
X0470797Y0190099D01*
G75*
G02*
X0471290Y0190591I0000492J0000000D01*
G01*
G37*
G36*
G01*
X0478671Y0187146D02*
X0479656Y0187146D01*
G75*
G02*
X0480148Y0186654I0000000J-000492D01*
G01*
X0480148Y0181732D01*
G75*
G02*
X0479656Y0181240I-000492J0000000D01*
G01*
X0478671Y0181240D01*
G75*
G02*
X0478179Y0181732I0000000J0000492D01*
G01*
X0478179Y0186654D01*
G75*
G02*
X0478671Y0187146I0000492J0000000D01*
G01*
G37*
G36*
G01*
X0481821Y0187146D02*
X0482805Y0187146D01*
G75*
G02*
X0483297Y0186654I0000000J-000492D01*
G01*
X0483297Y0181732D01*
G75*
G02*
X0482805Y0181240I-000492J0000000D01*
G01*
X0481821Y0181240D01*
G75*
G02*
X0481329Y0181732I0000000J0000492D01*
G01*
X0481329Y0186654D01*
G75*
G02*
X0481821Y0187146I0000492J0000000D01*
G01*
G37*
G36*
G01*
X0484971Y0187146D02*
X0485955Y0187146D01*
G75*
G02*
X0486447Y0186654I0000000J-000492D01*
G01*
X0486447Y0181732D01*
G75*
G02*
X0485955Y0181240I-000492J0000000D01*
G01*
X0484971Y0181240D01*
G75*
G02*
X0484479Y0181732I0000000J0000492D01*
G01*
X0484479Y0186654D01*
G75*
G02*
X0484971Y0187146I0000492J0000000D01*
G01*
G37*
G36*
G01*
X0488120Y0187146D02*
X0489105Y0187146D01*
G75*
G02*
X0489597Y0186654I0000000J-000492D01*
G01*
X0489597Y0181732D01*
G75*
G02*
X0489105Y0181240I-000492J0000000D01*
G01*
X0488120Y0181240D01*
G75*
G02*
X0487628Y0181732I0000000J0000492D01*
G01*
X0487628Y0186654D01*
G75*
G02*
X0488120Y0187146I0000492J0000000D01*
G01*
G37*
G36*
G01*
X0491270Y0187146D02*
X0492254Y0187146D01*
G75*
G02*
X0492746Y0186654I0000000J-000492D01*
G01*
X0492746Y0181732D01*
G75*
G02*
X0492254Y0181240I-000492J0000000D01*
G01*
X0491270Y0181240D01*
G75*
G02*
X0490778Y0181732I0000000J0000492D01*
G01*
X0490778Y0186654D01*
G75*
G02*
X0491270Y0187146I0000492J0000000D01*
G01*
G37*
G36*
G01*
X0494420Y0187146D02*
X0495404Y0187146D01*
G75*
G02*
X0495896Y0186654I0000000J-000492D01*
G01*
X0495896Y0181732D01*
G75*
G02*
X0495404Y0181240I-000492J0000000D01*
G01*
X0494420Y0181240D01*
G75*
G02*
X0493927Y0181732I0000000J0000492D01*
G01*
X0493927Y0186654D01*
G75*
G02*
X0494420Y0187146I0000492J0000000D01*
G01*
G37*
G36*
G01*
X0497569Y0187146D02*
X0498553Y0187146D01*
G75*
G02*
X0499046Y0186654I0000000J-000492D01*
G01*
X0499046Y0181732D01*
G75*
G02*
X0498553Y0181240I-000492J0000000D01*
G01*
X0497569Y0181240D01*
G75*
G02*
X0497077Y0181732I0000000J0000492D01*
G01*
X0497077Y0186654D01*
G75*
G02*
X0497569Y0187146I0000492J0000000D01*
G01*
G37*
G36*
G01*
X0500719Y0187146D02*
X0501703Y0187146D01*
G75*
G02*
X0502195Y0186654I0000000J-000492D01*
G01*
X0502195Y0181732D01*
G75*
G02*
X0501703Y0181240I-000492J0000000D01*
G01*
X0500719Y0181240D01*
G75*
G02*
X0500227Y0181732I0000000J0000492D01*
G01*
X0500227Y0186654D01*
G75*
G02*
X0500719Y0187146I0000492J0000000D01*
G01*
G37*
G36*
G01*
X0504164Y0190591D02*
X0509085Y0190591D01*
G75*
G02*
X0509577Y0190099I0000000J-000492D01*
G01*
X0509577Y0189114D01*
G75*
G02*
X0509085Y0188622I-000492J0000000D01*
G01*
X0504164Y0188622D01*
G75*
G02*
X0503671Y0189114I0000000J0000492D01*
G01*
X0503671Y0190099D01*
G75*
G02*
X0504164Y0190591I0000492J0000000D01*
G01*
G37*
G36*
G01*
X0504164Y0193740D02*
X0509085Y0193740D01*
G75*
G02*
X0509577Y0193248I0000000J-000492D01*
G01*
X0509577Y0192264D01*
G75*
G02*
X0509085Y0191772I-000492J0000000D01*
G01*
X0504164Y0191772D01*
G75*
G02*
X0503671Y0192264I0000000J0000492D01*
G01*
X0503671Y0193248D01*
G75*
G02*
X0504164Y0193740I0000492J0000000D01*
G01*
G37*
G36*
G01*
X0504164Y0196890D02*
X0509085Y0196890D01*
G75*
G02*
X0509577Y0196398I0000000J-000492D01*
G01*
X0509577Y0195414D01*
G75*
G02*
X0509085Y0194921I-000492J0000000D01*
G01*
X0504164Y0194921D01*
G75*
G02*
X0503671Y0195414I0000000J0000492D01*
G01*
X0503671Y0196398D01*
G75*
G02*
X0504164Y0196890I0000492J0000000D01*
G01*
G37*
G36*
G01*
X0504164Y0200039D02*
X0509085Y0200039D01*
G75*
G02*
X0509577Y0199547I0000000J-000492D01*
G01*
X0509577Y0198563D01*
G75*
G02*
X0509085Y0198071I-000492J0000000D01*
G01*
X0504164Y0198071D01*
G75*
G02*
X0503671Y0198563I0000000J0000492D01*
G01*
X0503671Y0199547D01*
G75*
G02*
X0504164Y0200039I0000492J0000000D01*
G01*
G37*
G36*
G01*
X0504164Y0203189D02*
X0509085Y0203189D01*
G75*
G02*
X0509577Y0202697I0000000J-000492D01*
G01*
X0509577Y0201713D01*
G75*
G02*
X0509085Y0201221I-000492J0000000D01*
G01*
X0504164Y0201221D01*
G75*
G02*
X0503671Y0201713I0000000J0000492D01*
G01*
X0503671Y0202697D01*
G75*
G02*
X0504164Y0203189I0000492J0000000D01*
G01*
G37*
G36*
G01*
X0504164Y0206339D02*
X0509085Y0206339D01*
G75*
G02*
X0509577Y0205847I0000000J-000492D01*
G01*
X0509577Y0204862D01*
G75*
G02*
X0509085Y0204370I-000492J0000000D01*
G01*
X0504164Y0204370D01*
G75*
G02*
X0503671Y0204862I0000000J0000492D01*
G01*
X0503671Y0205847D01*
G75*
G02*
X0504164Y0206339I0000492J0000000D01*
G01*
G37*
G36*
G01*
X0504164Y0209488D02*
X0509085Y0209488D01*
G75*
G02*
X0509577Y0208996I0000000J-000492D01*
G01*
X0509577Y0208012D01*
G75*
G02*
X0509085Y0207520I-000492J0000000D01*
G01*
X0504164Y0207520D01*
G75*
G02*
X0503671Y0208012I0000000J0000492D01*
G01*
X0503671Y0208996D01*
G75*
G02*
X0504164Y0209488I0000492J0000000D01*
G01*
G37*
G36*
G01*
X0504164Y0212638D02*
X0509085Y0212638D01*
G75*
G02*
X0509577Y0212146I0000000J-000492D01*
G01*
X0509577Y0211162D01*
G75*
G02*
X0509085Y0210669I-000492J0000000D01*
G01*
X0504164Y0210669D01*
G75*
G02*
X0503671Y0211162I0000000J0000492D01*
G01*
X0503671Y0212146D01*
G75*
G02*
X0504164Y0212638I0000492J0000000D01*
G01*
G37*
G36*
G01*
X0482618Y0178012D02*
X0483977Y0178012D01*
G75*
G02*
X0484557Y0177431I0000000J-000581D01*
G01*
X0484557Y0176270D01*
G75*
G02*
X0483977Y0175689I-000581J0000000D01*
G01*
X0482618Y0175689D01*
G75*
G02*
X0482038Y0176270I0000000J0000581D01*
G01*
X0482038Y0177431D01*
G75*
G02*
X0482618Y0178012I0000581J0000000D01*
G01*
G37*
G36*
G01*
X0482618Y0174193D02*
X0483977Y0174193D01*
G75*
G02*
X0484557Y0173612I0000000J-000581D01*
G01*
X0484557Y0172451D01*
G75*
G02*
X0483977Y0171870I-000581J0000000D01*
G01*
X0482618Y0171870D01*
G75*
G02*
X0482038Y0172451I0000000J0000581D01*
G01*
X0482038Y0173612D01*
G75*
G02*
X0482618Y0174193I0000581J0000000D01*
G01*
G37*
G36*
G01*
X0506014Y0185089D02*
X0506014Y0186447D01*
G75*
G02*
X0506595Y0187028I0000581J0000000D01*
G01*
X0507756Y0187028D01*
G75*
G02*
X0508337Y0186447I0000000J-000581D01*
G01*
X0508337Y0185089D01*
G75*
G02*
X0507756Y0184508I-000581J0000000D01*
G01*
X0506595Y0184508D01*
G75*
G02*
X0506014Y0185089I0000000J0000581D01*
G01*
G37*
G36*
G01*
X0509833Y0185089D02*
X0509833Y0186447D01*
G75*
G02*
X0510414Y0187028I0000581J0000000D01*
G01*
X0511575Y0187028D01*
G75*
G02*
X0512156Y0186447I0000000J-000581D01*
G01*
X0512156Y0185089D01*
G75*
G02*
X0511575Y0184508I-000581J0000000D01*
G01*
X0510414Y0184508D01*
G75*
G02*
X0509833Y0185089I0000000J0000581D01*
G01*
G37*
G36*
G01*
X0483977Y0161445D02*
X0482618Y0161445D01*
G75*
G02*
X0482038Y0162026I0000000J0000581D01*
G01*
X0482038Y0163187D01*
G75*
G02*
X0482618Y0163768I0000581J0000000D01*
G01*
X0483977Y0163768D01*
G75*
G02*
X0484557Y0163187I0000000J-000581D01*
G01*
X0484557Y0162026D01*
G75*
G02*
X0483977Y0161445I-000581J0000000D01*
G01*
G37*
G36*
G01*
X0483977Y0165264D02*
X0482618Y0165264D01*
G75*
G02*
X0482038Y0165845I0000000J0000581D01*
G01*
X0482038Y0167006D01*
G75*
G02*
X0482618Y0167587I0000581J0000000D01*
G01*
X0483977Y0167587D01*
G75*
G02*
X0484557Y0167006I0000000J-000581D01*
G01*
X0484557Y0165845D01*
G75*
G02*
X0483977Y0165264I-000581J0000000D01*
G01*
G37*
D159*
X0478376Y0162933D03*
X0478376Y0170414D03*
X0470502Y0166673D03*
G36*
G01*
X0504144Y0221998D02*
X0504144Y0223356D01*
G75*
G02*
X0504725Y0223937I0000581J0000000D01*
G01*
X0505886Y0223937D01*
G75*
G02*
X0506467Y0223356I0000000J-000581D01*
G01*
X0506467Y0221998D01*
G75*
G02*
X0505886Y0221417I-000581J0000000D01*
G01*
X0504725Y0221417D01*
G75*
G02*
X0504144Y0221998I0000000J0000581D01*
G01*
G37*
G36*
G01*
X0507963Y0221998D02*
X0507963Y0223356D01*
G75*
G02*
X0508544Y0223937I0000581J0000000D01*
G01*
X0509705Y0223937D01*
G75*
G02*
X0510286Y0223356I0000000J-000581D01*
G01*
X0510286Y0221998D01*
G75*
G02*
X0509705Y0221417I-000581J0000000D01*
G01*
X0508544Y0221417D01*
G75*
G02*
X0507963Y0221998I0000000J0000581D01*
G01*
G37*
G36*
G01*
X0469105Y0175871D02*
X0469105Y0177889D01*
G75*
G02*
X0469966Y0178750I0000861J0000000D01*
G01*
X0471688Y0178750D01*
G75*
G02*
X0472549Y0177889I0000000J-000861D01*
G01*
X0472549Y0175871D01*
G75*
G02*
X0471688Y0175010I-000861J0000000D01*
G01*
X0469966Y0175010D01*
G75*
G02*
X0469105Y0175871I0000000J0000861D01*
G01*
G37*
G36*
G01*
X0475305Y0175871D02*
X0475305Y0177889D01*
G75*
G02*
X0476167Y0178750I0000861J0000000D01*
G01*
X0477889Y0178750D01*
G75*
G02*
X0478750Y0177889I0000000J-000861D01*
G01*
X0478750Y0175871D01*
G75*
G02*
X0477889Y0175010I-000861J0000000D01*
G01*
X0476167Y0175010D01*
G75*
G02*
X0475305Y0175871I0000000J0000861D01*
G01*
G37*
X0443632Y0189803D02*
G01*
G75*
D64*
X0390285Y0048464D02*
D03*
D63*
X0404065Y0048464D02*
D03*
D66*
X0310167Y0154567D02*
D03*
D61*
X0351900Y0048464D02*
D03*
X0436152Y0189409D02*
D03*
D62*
X0322372Y0189409D02*
D03*
X0427884Y0048464D02*
D03*
D59*
X0443238Y0153779D02*
D03*
D60*
X0443238Y0185275D02*
D03*
D58*
X0443238Y0100039D02*
D03*
D67*
X0310167Y0177401D02*
D03*
D65*
X0310167Y0061850D02*
D03*
D56*
X0443238Y0082520D02*
D03*
X0443238Y0058504D02*
D03*
D57*
X0443238Y0070512D02*
D03*
X0310167Y0096102D02*
D03*
D395*
X0320010Y0171713D02*
D03*
X0312923Y0171713D02*
D03*
X0312923Y0181752D02*
D03*
X0320010Y0181752D02*
D03*
X0431821Y0122972D02*
D03*
X0438908Y0122972D02*
D03*
X0438908Y0133012D02*
D03*
X0431821Y0133012D02*
D03*
X0431821Y0116870D02*
D03*
X0438908Y0116870D02*
D03*
X0438908Y0106830D02*
D03*
X0431821Y0106830D02*
D03*
D396*
X0320010Y0175157D02*
D03*
X0320010Y0178307D02*
D03*
X0312923Y0178307D02*
D03*
X0312923Y0175157D02*
D03*
X0438908Y0129567D02*
D03*
X0438908Y0126417D02*
D03*
X0431821Y0126417D02*
D03*
X0431821Y0129567D02*
D03*
X0431821Y0113425D02*
D03*
X0431821Y0110275D02*
D03*
X0438908Y0110275D02*
D03*
X0438908Y0113425D02*
D03*
D397*
X0324222Y0174709D02*
D03*
X0324222Y0172150D02*
D03*
X0324222Y0169590D02*
D03*
X0331702Y0174709D02*
D03*
X0331702Y0169590D02*
D03*
X0331702Y0172150D02*
D03*
X0331702Y0179334D02*
D03*
X0331702Y0184453D02*
D03*
X0324222Y0179334D02*
D03*
X0324222Y0181894D02*
D03*
X0324222Y0184453D02*
D03*
X0331702Y0181894D02*
D03*
D183*
X0391430Y0075433D02*
D03*
X0391430Y0077401D02*
D03*
X0391430Y0079370D02*
D03*
X0391430Y0081338D02*
D03*
X0391430Y0083307D02*
D03*
X0391430Y0085275D02*
D03*
X0391430Y0087244D02*
D03*
X0391430Y0089212D02*
D03*
X0391430Y0091181D02*
D03*
X0391430Y0095118D02*
D03*
X0391430Y0097087D02*
D03*
X0391430Y0099055D02*
D03*
X0391430Y0101024D02*
D03*
X0391430Y0102992D02*
D03*
X0391430Y0104961D02*
D03*
X0391430Y0106929D02*
D03*
X0391430Y0108898D02*
D03*
X0391430Y0110866D02*
D03*
X0391430Y0112835D02*
D03*
X0391430Y0114803D02*
D03*
X0391430Y0116771D02*
D03*
X0391430Y0118740D02*
D03*
X0391430Y0120708D02*
D03*
X0391430Y0122677D02*
D03*
X0330406Y0122677D02*
D03*
X0330406Y0120708D02*
D03*
X0330406Y0118740D02*
D03*
X0330406Y0116771D02*
D03*
X0330406Y0114803D02*
D03*
X0330406Y0112835D02*
D03*
X0330406Y0110866D02*
D03*
X0330406Y0108898D02*
D03*
X0330406Y0106929D02*
D03*
X0330406Y0104961D02*
D03*
X0330406Y0102992D02*
D03*
X0330406Y0101024D02*
D03*
X0330406Y0099055D02*
D03*
X0330406Y0097087D02*
D03*
X0330406Y0095118D02*
D03*
X0330406Y0093150D02*
D03*
X0330406Y0091181D02*
D03*
X0330406Y0089212D02*
D03*
X0330406Y0087244D02*
D03*
X0330406Y0085275D02*
D03*
X0330406Y0083307D02*
D03*
X0330406Y0081338D02*
D03*
X0330406Y0079370D02*
D03*
X0330406Y0075433D02*
D03*
X0391430Y0093150D02*
D03*
X0330406Y0077401D02*
D03*
D184*
X0384540Y0129567D02*
D03*
X0380603Y0129567D02*
D03*
X0378634Y0129567D02*
D03*
X0376666Y0129567D02*
D03*
X0374697Y0129567D02*
D03*
X0372729Y0129567D02*
D03*
X0370760Y0129567D02*
D03*
X0368792Y0129567D02*
D03*
X0366823Y0129567D02*
D03*
X0364855Y0129567D02*
D03*
X0362886Y0129567D02*
D03*
X0360918Y0129567D02*
D03*
X0358949Y0129567D02*
D03*
X0356981Y0129567D02*
D03*
X0355012Y0129567D02*
D03*
X0353044Y0129567D02*
D03*
X0351075Y0129567D02*
D03*
X0349107Y0129567D02*
D03*
X0347138Y0129567D02*
D03*
X0345170Y0129567D02*
D03*
X0343201Y0129567D02*
D03*
X0341233Y0129567D02*
D03*
X0339264Y0129567D02*
D03*
X0337296Y0129567D02*
D03*
X0337296Y0068543D02*
D03*
X0339264Y0068543D02*
D03*
X0341233Y0068543D02*
D03*
X0343201Y0068543D02*
D03*
X0345170Y0068543D02*
D03*
X0347138Y0068543D02*
D03*
X0349107Y0068543D02*
D03*
X0351075Y0068543D02*
D03*
X0353044Y0068543D02*
D03*
X0355012Y0068543D02*
D03*
X0356981Y0068543D02*
D03*
X0358949Y0068543D02*
D03*
X0360918Y0068543D02*
D03*
X0362886Y0068543D02*
D03*
X0364855Y0068543D02*
D03*
X0366823Y0068543D02*
D03*
X0368792Y0068543D02*
D03*
X0370760Y0068543D02*
D03*
X0372729Y0068543D02*
D03*
X0374697Y0068543D02*
D03*
X0376666Y0068543D02*
D03*
X0378634Y0068543D02*
D03*
X0380603Y0068543D02*
D03*
X0382571Y0068543D02*
D03*
X0384540Y0068543D02*
D03*
X0382571Y0129567D02*
D03*
D185*
X0387923Y0146496D02*
D03*
X0359971Y0146496D02*
D03*
X0415876Y0146496D02*
D03*
X0410364Y0151614D02*
D03*
X0382411Y0141378D02*
D03*
X0382411Y0143937D02*
D03*
X0382411Y0146496D02*
D03*
X0382411Y0149055D02*
D03*
X0382411Y0151614D02*
D03*
X0382411Y0154173D02*
D03*
X0382411Y0156732D02*
D03*
X0359971Y0141378D02*
D03*
X0359971Y0143937D02*
D03*
X0359971Y0149055D02*
D03*
X0359971Y0151614D02*
D03*
X0359971Y0154173D02*
D03*
X0359971Y0156732D02*
D03*
X0438317Y0141378D02*
D03*
X0438317Y0143937D02*
D03*
X0438317Y0146496D02*
D03*
X0438317Y0149055D02*
D03*
X0438317Y0151614D02*
D03*
X0438317Y0154173D02*
D03*
X0438317Y0156732D02*
D03*
X0415876Y0141378D02*
D03*
X0415876Y0143937D02*
D03*
X0415876Y0149055D02*
D03*
X0415876Y0151614D02*
D03*
X0415876Y0154173D02*
D03*
X0415876Y0156732D02*
D03*
X0410364Y0141378D02*
D03*
X0410364Y0143937D02*
D03*
X0410364Y0146496D02*
D03*
X0410364Y0149055D02*
D03*
X0410364Y0154173D02*
D03*
X0410364Y0156732D02*
D03*
X0387923Y0141378D02*
D03*
X0387923Y0143937D02*
D03*
X0387923Y0149055D02*
D03*
X0387923Y0151614D02*
D03*
X0387923Y0154173D02*
D03*
X0387923Y0156732D02*
D03*
X0332018Y0156732D02*
D03*
X0332018Y0154173D02*
D03*
X0332018Y0151614D02*
D03*
X0332018Y0149055D02*
D03*
X0332018Y0146496D02*
D03*
X0332018Y0143937D02*
D03*
X0332018Y0141378D02*
D03*
X0354459Y0156732D02*
D03*
X0354459Y0154173D02*
D03*
X0354459Y0151614D02*
D03*
X0354459Y0149055D02*
D03*
X0354459Y0146496D02*
D03*
X0354459Y0143937D02*
D03*
X0354459Y0141378D02*
D03*
D398*
X0319223Y0054370D02*
D03*
X0315482Y0054370D02*
D03*
X0322963Y0054370D02*
D03*
X0322963Y0063819D02*
D03*
X0319223Y0063819D02*
D03*
X0315482Y0063819D02*
D03*
D399*
X0317773Y0075630D02*
D03*
X0317773Y0070905D02*
D03*
X0319242Y0085177D02*
D03*
X0405782Y0058392D02*
D03*
X0392470Y0134258D02*
D03*
X0321709Y0075630D02*
D03*
X0315304Y0085177D02*
D03*
X0320604Y0122161D02*
D03*
X0316667Y0122161D02*
D03*
X0320604Y0131216D02*
D03*
X0316667Y0131216D02*
D03*
X0321709Y0070905D02*
D03*
X0401845Y0058392D02*
D03*
X0408922Y0075107D02*
D03*
X0404985Y0075107D02*
D03*
X0388533Y0134258D02*
D03*
X0388514Y0129962D02*
D03*
X0392451Y0129962D02*
D03*
D188*
X0315316Y0093812D02*
D03*
X0315316Y0095780D02*
D03*
X0321615Y0091843D02*
D03*
X0321615Y0093812D02*
D03*
X0321615Y0089875D02*
D03*
X0321615Y0095780D02*
D03*
X0315316Y0089875D02*
D03*
X0315316Y0091843D02*
D03*
D189*
X0317481Y0095977D02*
D03*
X0319450Y0095977D02*
D03*
X0319450Y0089678D02*
D03*
X0317481Y0089678D02*
D03*
D400*
X0320221Y0100827D02*
D03*
X0320221Y0117362D02*
D03*
D401*
X0348750Y0173268D02*
D03*
X0339301Y0173268D02*
D03*
X0344026Y0173268D02*
D03*
X0353474Y0173268D02*
D03*
X0339301Y0184685D02*
D03*
X0348750Y0184685D02*
D03*
X0344026Y0184685D02*
D03*
X0353474Y0184685D02*
D03*
X0359684Y0166288D02*
D03*
X0359684Y0162351D02*
D03*
X0353474Y0180748D02*
D03*
D03*
X0353474Y0176811D02*
D03*
X0348750Y0180748D02*
D03*
X0348750Y0176811D02*
D03*
X0353474Y0169331D02*
D03*
X0344026Y0180748D02*
D03*
X0344026Y0176811D02*
D03*
X0348750Y0169331D02*
D03*
X0344026Y0169331D02*
D03*
X0339301Y0180748D02*
D03*
X0339301Y0176811D02*
D03*
X0339301Y0180748D02*
D03*
X0339301Y0169331D02*
D03*
X0348750Y0180748D02*
D03*
X0344026Y0180748D02*
D03*
X0439498Y0178386D02*
D03*
X0439498Y0182323D02*
D03*
X0414892Y0180748D02*
D03*
X0414892Y0184685D02*
D03*
X0400719Y0180748D02*
D03*
X0400719Y0184685D02*
D03*
X0381821Y0176811D02*
D03*
X0381821Y0180748D02*
D03*
X0381821Y0184685D02*
D03*
X0381821Y0180748D02*
D03*
X0367648Y0176811D02*
D03*
X0367648Y0180748D02*
D03*
X0439498Y0161653D02*
D03*
X0439498Y0165590D02*
D03*
X0433789Y0180748D02*
D03*
X0433789Y0176811D02*
D03*
X0429065Y0180748D02*
D03*
X0429065Y0176811D02*
D03*
X0424341Y0180748D02*
D03*
X0424341Y0176811D02*
D03*
X0419616Y0180748D02*
D03*
X0419616Y0176811D02*
D03*
X0433789Y0180748D02*
D03*
X0433789Y0184685D02*
D03*
X0429065Y0180748D02*
D03*
X0429065Y0184685D02*
D03*
X0424341Y0180748D02*
D03*
X0424341Y0184685D02*
D03*
X0419616Y0180748D02*
D03*
X0419616Y0184685D02*
D03*
X0414892Y0180748D02*
D03*
X0414892Y0176811D02*
D03*
X0410167Y0180748D02*
D03*
X0410167Y0176811D02*
D03*
X0405443Y0180748D02*
D03*
X0405443Y0176811D02*
D03*
X0400719Y0180748D02*
D03*
X0400719Y0176811D02*
D03*
X0410167Y0180748D02*
D03*
X0410167Y0184685D02*
D03*
X0405443Y0180748D02*
D03*
X0405443Y0184685D02*
D03*
X0395994Y0176811D02*
D03*
X0395994Y0180748D02*
D03*
X0391270Y0176811D02*
D03*
X0391270Y0180748D02*
D03*
X0386545Y0176811D02*
D03*
X0386545Y0180748D02*
D03*
X0395994Y0184685D02*
D03*
X0395994Y0180748D02*
D03*
X0391270Y0184685D02*
D03*
X0391270Y0180748D02*
D03*
X0386545Y0184685D02*
D03*
X0386545Y0180748D02*
D03*
X0377096Y0176811D02*
D03*
X0377096Y0180748D02*
D03*
X0372372Y0176811D02*
D03*
X0372372Y0180748D02*
D03*
X0362923Y0176811D02*
D03*
X0362923Y0180748D02*
D03*
X0377096Y0184685D02*
D03*
X0377096Y0180748D02*
D03*
X0372372Y0184685D02*
D03*
X0372372Y0180748D02*
D03*
X0367648Y0184685D02*
D03*
X0367648Y0180748D02*
D03*
X0362923Y0184685D02*
D03*
X0362923Y0180748D02*
D03*
X0439498Y0170709D02*
D03*
X0439498Y0174646D02*
D03*
D402*
X0374734Y0167756D02*
D03*
X0393632Y0167756D02*
D03*
X0412530Y0167756D02*
D03*
X0431427Y0167756D02*
D03*
X0403081Y0164016D02*
D03*
X0403081Y0167756D02*
D03*
X0403081Y0171496D02*
D03*
X0412530Y0171496D02*
D03*
X0412530Y0164016D02*
D03*
X0421978Y0164016D02*
D03*
X0421978Y0167756D02*
D03*
X0421978Y0171496D02*
D03*
X0431427Y0171496D02*
D03*
X0431427Y0164016D02*
D03*
X0384183Y0164016D02*
D03*
X0384183Y0167756D02*
D03*
X0384183Y0171496D02*
D03*
X0393632Y0171496D02*
D03*
X0393632Y0164016D02*
D03*
X0365285Y0164016D02*
D03*
X0365285Y0167756D02*
D03*
X0365285Y0171496D02*
D03*
X0374734Y0171496D02*
D03*
X0374734Y0164016D02*
D03*
D403*
X0408719Y0070721D02*
D03*
X0390797Y0060472D02*
D03*
D194*
X0418041Y0095844D02*
D03*
X0436939Y0100844D02*
D03*
X0436939Y0085844D02*
D03*
X0436939Y0090844D02*
D03*
X0436939Y0095844D02*
D03*
X0418041Y0085844D02*
D03*
X0418041Y0090844D02*
D03*
X0418041Y0100844D02*
D03*
D404*
X0436349Y0078203D02*
D03*
X0418238Y0078203D02*
D03*
D405*
X0401887Y0109729D02*
D03*
X0418096Y0110277D02*
D03*
X0401410Y0117889D02*
D03*
X0401410Y0125500D02*
D03*
X0418096Y0117889D02*
D03*
X0418096Y0125500D02*
D03*
X0401410Y0133112D02*
D03*
X0418096Y0133112D02*
D03*
X0408580Y0109729D02*
D03*
X0408103Y0117889D02*
D03*
X0408103Y0125500D02*
D03*
X0408103Y0133112D02*
D03*
X0424789Y0117889D02*
D03*
X0424789Y0110277D02*
D03*
X0408580Y0101752D02*
D03*
X0401887Y0101752D02*
D03*
X0401887Y0094665D02*
D03*
X0408580Y0094665D02*
D03*
X0408580Y0087579D02*
D03*
X0401887Y0087579D02*
D03*
X0401887Y0080492D02*
D03*
X0408580Y0080492D02*
D03*
X0424789Y0125500D02*
D03*
X0424789Y0133112D02*
D03*
X0401887Y0052992D02*
D03*
X0408580Y0052992D02*
D03*
D406*
X0315213Y0080405D02*
D03*
X0321513Y0080405D02*
D03*
X0322573Y0126846D02*
D03*
X0316273Y0126846D02*
D03*
D407*
X0355838Y0057463D02*
D03*
X0372373Y0057463D02*
D03*
D403*
X0390797Y0052992D02*
D03*
X0381545Y0056732D02*
D03*
X0408719Y0063241D02*
D03*
X0399467Y0066981D02*
D03*
D408*
X0427293Y0053793D02*
D03*
D409*
X0427293Y0078203D02*
D03*
D22*
X0358002Y0180748D02*
D03*
X0438908Y0186653D02*
D03*
D410*
X0320811Y0163006D02*
D03*
X0320811Y0145290D02*
D03*
X0251211Y0215295D02*
G01*
G75*
D462*
X0264223Y0203878D02*
D03*
X0254971Y0207618D02*
D03*
D462*
X0264223Y0211358D02*
D03*
D337*
X0275837Y0196319D02*
D03*
X0270837Y0196319D02*
D03*
X0265837Y0196319D02*
D03*
X0260837Y0196319D02*
D03*
X0275837Y0177421D02*
D03*
X0270837Y0177421D02*
D03*
X0265837Y0177421D02*
D03*
X0260837Y0177421D02*
D03*
D463*
X0255542Y0180610D02*
D03*
X0255542Y0174390D02*
D03*
X0255542Y0188956D02*
D03*
X0255542Y0195177D02*
D03*
D464*
X0269124Y0210768D02*
D03*
X0269124Y0204468D02*
D03*
D26*
X0253081Y0200138D02*
D03*
M02*
