M48
INCH,TZ
T01C0.013750
T02C0.021650
T03C0.026600
T04C0.032500
T05C0.039200
T06C0.043300
T07C0.051200
T08C0.059100
T09C0.090600
T10C0.119050
T11C0.127950
%
T01
X25661Y18494
X25868Y18839
X26163Y18376
X27561Y18405
X26081Y30354
X26474Y30354
X27600Y24675
X28073Y24675
X28545Y24675
X29018Y24675
X29333Y2293
X29333Y1900
X30431Y30354
X30825Y30354
X31094Y14606
X31094Y14291
X31094Y13976
X31094Y13661
X31094Y13346
X31094Y13031
X31094Y12716
X31094Y12402
X31094Y12087
X31094Y11772
X31094Y11457
X31094Y11142
X31094Y10827
X31094Y10512
X31094Y9882
X31094Y9331
X31094Y9016
X31094Y8701
X31094Y8386
X31094Y8071
X31094Y7756
X31094Y16299
X31094Y10197
X31252Y4921
X31567Y4921
X31882Y4921
X31951Y24675
X32197Y4921
X32423Y24675
X32512Y4921
X32827Y4921
X32896Y24675
X33142Y4921
X33368Y24675
X33457Y4921
X33693Y18858
X33772Y4921
X34087Y4921
X34165Y18858
X34402Y4921
X34638Y18858
X34717Y4921
X35110Y18858
X35583Y18858
X35661Y4921
X35976Y4921
X36055Y18858
X36291Y4921
X36528Y18858
X36606Y4921
X36921Y4921
X37000Y18858
X37236Y4921
X37472Y18858
X37551Y4921
X37866Y4921
X37945Y18858
X38181Y4921
X38417Y18858
X38890Y18858
X39362Y18858
X39835Y18858
X39874Y4921
X40307Y18858
X40780Y18858
X40937Y4921
X41252Y18858
X41331Y4921
X41724Y18858
X42197Y18858
X42669Y18858
X43142Y18858
X43644Y28789
X44018Y28789
X44037Y32215
X44087Y18858
X44244Y17874
X44244Y17480
X44244Y13268
X44244Y12874
X44244Y12480
X44244Y12087
X44244Y11693
X44244Y11299
X44244Y10905
X44244Y10512
X44244Y9488
X44244Y9173
X44244Y7323
X44244Y6772
X44244Y4921
X44392Y32215
X44392Y28789
X47364Y15810
X47758Y15810
X48152Y15810
X49049Y15810
X49449Y15810
X50376Y26279
X50770Y26279
X51163Y26279
X51557Y26279
X13299Y29842
X13319Y23819
X13327Y3138
X13472Y16496
X13496Y32126
X13575Y27185
X13693Y36142
X13766Y13204
X14004Y26548
X14004Y25098
X14004Y23051
X14024Y21693
X14045Y19612
X14047Y2953
X14051Y7850
X14126Y6693
X14128Y7469
X14165Y5512
X14244Y17087
X14323Y32972
X14677Y20413
X14711Y17106
X14717Y8386
X14819Y17610
X15287Y26555
X15287Y23051
X15307Y25276
X15307Y19626
X15316Y21918
X15317Y18425
X15346Y8307
X15349Y17044
X15376Y6677
X15543Y32835
X15543Y276
X15583Y3858
X15609Y14092
X15685Y30693
X15720Y16169
X15720Y35718
X15740Y31594
X15819Y4961
X15898Y8268
X15976Y472
X16010Y5874
X16240Y16198
X16311Y14311
X16331Y827
X16472Y16584
X16472Y32868
X16567Y3819
X16606Y2992
X16606Y2047
X16646Y8268
X16646Y5866
X16665Y32480
X16835Y5124
X17243Y4600
X17386Y8311
X17394Y5866
X17472Y1299
X17602Y10912
X17669Y30197
X17728Y26890
X17733Y20226
X17768Y21929
X17827Y25236
X17827Y10354
X17905Y4646
X17984Y2953
X18102Y11260
X18142Y8465
X18417Y2165
X18417Y1299
X18436Y37339
X18496Y15866
X18496Y4567
X18516Y8228
X18535Y5394
X18772Y38661
X18772Y9410
X18898Y26937
X18968Y8307
X19205Y4606
X19205Y2165
X19205Y1299
X19224Y6358
X19638Y9606
X19729Y28941
X19910Y17153
X19953Y1299
X19992Y2165
X20071Y31890
X20110Y34685
X20110Y26850
X20150Y29764
X20189Y6693
X20445Y22618
X20503Y19655
X20504Y25394
X20543Y4685
X20858Y19055
X20858Y17126
X20858Y16457
X20878Y22185
X20898Y25000
X20902Y10831
X21016Y1693
X21252Y27047
X21331Y30000
X21331Y28976
X21395Y29527
X21453Y387
X21547Y31516
X21646Y28307
X21708Y10819
X21764Y13543
X21764Y2598
X21803Y2188
X21882Y3031
X21980Y27598
X22039Y5079
X22079Y32165
X22118Y236
X22276Y14055
X22472Y1339
X22512Y590
X22630Y6693
X22728Y30020
X22784Y9064
X22827Y31378
X22984Y38740
X23004Y28090
X23177Y29565
X23260Y11772
X23280Y19957
X23299Y25531
X23299Y22756
X23299Y17756
X23299Y17205
X23339Y23701
X23358Y20942
X23358Y18185
X23358Y15391
X23358Y12673
X23378Y14488
X23496Y26161
X23772Y17744
X23929Y23228
X23929Y14921
X23968Y20433
X23968Y12165
X24008Y28090
X24008Y11102
X24205Y10748
X24402Y20453
X24478Y19958
X24559Y14449
X24579Y13543
X24598Y22756
X24638Y25531
X24638Y9724
X24662Y11571
X24874Y12362
X24953Y26339
X24992Y29567
X25012Y28071
X25031Y10000
X25189Y12677
X25189Y11358
X25268Y10709
X25287Y24252
X25405Y21772
X25425Y16772
X25445Y16004
X25504Y14291
X25583Y30984
X25976Y21772
X25996Y11713
X26094Y24291
X26252Y34945
X26334Y16751
X26823Y9980
X26853Y10954
X27079Y21772
X27394Y30866
X27477Y14259
X27610Y12598
X27771Y10714
X27945Y31496
X28042Y18882
X28220Y13504
X28267Y9866
X28299Y12716
X28496Y16653
X28575Y30827
X28654Y9527
X28693Y13307
X29008Y21220
X29047Y31929
X29165Y19055
X29342Y34980
X29428Y9035
X29441Y29527
X29441Y27205
X29480Y12402
X29480Y24724
X29480Y15827
X29480Y13976
X29480Y9449
X29596Y17417
X29598Y6811
X29638Y1457
X29652Y2683
X29677Y3779
X29697Y4173
X29874Y30866
X30189Y23150
X30266Y38618
X30287Y3720
X30366Y7598
X30425Y18110
X30524Y5169
X30602Y4296
X30602Y3922
X30701Y15118
X30701Y236
X30740Y17716
X30780Y6181
X30803Y9669
X31035Y3821
X31118Y23169
X31370Y2126
X31685Y30866
X31764Y1339
X31813Y4171
X32079Y20276
X32079Y276
X32315Y2441
X32512Y32126
X33102Y20315
X33102Y35276
X33131Y22206
X33220Y30827
X33220Y4567
X33220Y590
X33494Y2593
X33693Y32126
X33693Y29252
X33772Y1339
X33811Y25512
X33929Y394
X34598Y38661
X34677Y28150
X34700Y26690
X34913Y31575
X34953Y2402
X34992Y4646
X35031Y276
X35124Y27907
X35342Y3465
X35543Y35433
X36055Y32126
X36094Y21378
X36173Y28898
X36724Y3150
X36882Y29248
X37000Y21220
X37276Y31457
X37276Y24606
X37469Y3799
X37630Y28622
X37630Y22992
X37866Y25945
X38102Y4449
X38339Y32087
X38890Y4606
X39027Y34945
X39480Y29803
X39749Y27638
X39756Y25984
X39756Y36653
X39874Y354
X40228Y38740
X40268Y25315
X40386Y4567
X40968Y4221
X40976Y24055
X41488Y22244
X41724Y27520
X41921Y31968
X42512Y25866
X43181Y2402
X43339Y22402
X43417Y4567
X43578Y20079
X43614Y27205
X43614Y19153
X43614Y24055
X43772Y21614
X44087Y394
X44165Y23819
X44362Y25315
X44520Y18425
X44520Y17008
X44559Y13819
X44559Y10000
X44598Y12913
X44598Y8740
X44598Y7795
X44598Y3346
X44638Y7047
X44638Y6339
X44677Y20512
X44821Y30360
X45818Y32466
X45898Y8583
X45959Y34662
X45976Y354
X46035Y27067
X46094Y25866
X46173Y15486
X46218Y17562
X46252Y10748
X46370Y26299
X46370Y12835
X46409Y32466
X46409Y17008
X46459Y18150
X46488Y38858
X46488Y21653
X46764Y26693
X46882Y32441
X46961Y433
X47669Y26732
X47925Y15453
X48142Y11575
X48220Y26732
X48496Y8189
X48614Y13228
X48732Y26732
X49480Y394
X50110Y26811
X50110Y13189
X50661Y28248
X50898Y9488
X51055Y35630
X51055Y34646
X51055Y33661
X51055Y28642
X51134Y15354
X51213Y14094
X51311Y6417
X51449Y12638
X51567Y5827
X51724Y29409
X51780Y34137
X52000Y36220
X52039Y13386
X52197Y26772
X52197Y15433
X23852Y669
X23580Y1305
X23794Y1690
X23153Y2119
X23113Y2455
X23310Y3045
X23586Y3301
X23704Y3832
X23310Y4128
X23113Y3636
X23113Y4817
X23113Y6392
X23586Y6372
X24697Y6664
X25744Y6639
X26066Y6351
X27119Y6276
X28231Y6392
X29019Y6392
X28546Y5388
X27901Y5382
X27961Y4136
X28428Y4226
X28596Y3746
X29019Y4029
X28597Y2861
X29293Y2689
X29334Y2297
X29334Y1903
X28652Y1997
X28342Y1508
X28729Y1191
X28332Y761
X27943Y1140
X27868Y1864
X27916Y2297
X26600Y1312
X26600Y683
X25681Y669
X24826Y669
X25049Y1311
X25633Y2336
X26026Y3783
X25279Y3832
X25712Y4342
X26301Y5340
X27247Y7297
X28179Y7364
X28625Y6982
X29019Y7573
X28192Y8360
X26193Y8528
X26151Y8122
X25364Y8112
X25099Y7709
X23662Y7786
X24071Y7151
X23231Y6918
X43498Y32213
X43751Y32061
X44038Y32219
X44393Y32219
X44059Y31217
X43954Y30943
X44167Y30700
X43654Y31250
X44394Y29771
X44393Y28794
X44019Y28794
X43645Y28794
X31578Y30368
X33224Y30341
X32395Y30319
X29871Y29597
X30628Y29588
X31407Y29562
X33236Y29514
X32304Y29512
X31602Y29340
X33208Y29166
X29999Y29079
X31314Y29049
X29865Y28774
X33399Y28718
X31852Y28641
X30606Y28630
X32927Y28476
X31916Y28353
X31893Y28059
X32294Y27817
X31488Y27685
X31814Y27632
X31096Y27622
X30013Y27602
X30385Y27552
X30735Y27512
X31393Y27291
X29865Y26982
X31440Y26913
X31864Y26599
X31578Y26480
X31074Y26382
X32537Y26360
X30025Y26317
X31834Y26294
X33208Y26225
X33149Y25929
X31879Y25746
X33378Y25734
X30505Y25407
X30497Y24931
X30328Y24689
X30741Y24679
X29846Y24663
X30826Y30358
X30432Y30358
X33369Y24679
X32897Y24679
X32425Y24679
X31952Y24679
X27581Y30230
X25613Y30230
X28920Y30191
X27503Y29364
X26440Y29207
X25613Y29089
X28920Y28852
X28014Y28459
X27030Y28419
X26400Y27868
X25613Y27829
X28920Y27435
X28211Y27199
X25613Y27120
X27520Y27034
X25967Y26608
X26833Y26097
X25888Y25860
X28920Y25703
X25613Y25388
X28095Y25070
X27227Y24797
X25888Y24797
X26475Y30358
X26081Y30358
X29018Y24679
X28546Y24679
X28074Y24679
X27601Y24679
X49826Y15751
X46896Y15826
X48566Y15870
X51932Y15870
X51742Y16103
X50462Y16159
X50151Y16159
X47128Y16313
X48719Y16541
X48021Y16633
X50649Y16696
X51582Y16833
X51854Y17125
X46814Y17228
X47451Y17274
X47828Y17316
X49135Y17391
X50372Y17395
X51893Y17671
X49807Y17752
X51096Y17877
X49147Y17937
X48100Y17946
X49857Y18055
X51932Y18153
X46809Y18950
X51125Y19118
X49320Y19408
X48381Y19638
X49881Y19639
X49088Y19640
X48845Y19846
X52031Y19866
X49186Y19924
X47809Y20231
X49944Y20439
X47860Y20528
X52001Y20653
X48507Y20669
X47854Y20838
X51287Y20856
X49905Y20929
X48905Y20988
X48230Y21141
X51204Y21145
X50471Y21446
X47505Y21464
X47204Y21472
X52011Y21844
X47373Y22051
X46788Y22076
X47672Y22085
X47007Y22342
X48649Y22480
X49496Y22526
X50009Y22596
X50909Y22596
X51210Y22596
X51511Y22596
X51812Y22596
X50417Y22600
X48881Y22976
X49098Y23232
X52053Y25307
X50304Y25524
X47051Y25564
X47464Y25712
X50397Y25811
X48045Y25850
X48320Y25850
X48596Y25850
X47484Y26027
X52060Y26047
X48045Y26155
X48320Y26155
X47070Y26352
X47365Y15814
X47759Y15814
X48153Y15814
X49051Y15814
X49451Y15814
X50377Y26283
X50771Y26283
X51165Y26283
X51558Y26283
X44087Y18862
X43611Y18831
X43379Y18641
X43143Y18862
X42906Y18661
X42670Y18862
X42434Y18661
X42198Y18862
X41961Y18661
X41725Y18862
X41489Y18661
X41253Y18862
X41017Y18661
X40780Y18862
X40544Y18661
X40308Y18862
X40072Y18661
X39835Y18862
X39599Y18661
X39363Y18862
X39127Y18661
X38891Y18862
X38654Y18661
X38418Y18862
X38182Y18661
X37946Y18862
X37709Y18661
X37473Y18862
X37237Y18661
X37001Y18862
X36765Y18661
X36528Y18862
X36292Y18661
X36056Y18862
X35820Y18661
X35583Y18862
X35347Y18661
X35111Y18862
X34875Y18661
X34639Y18862
X34402Y18661
X34166Y18862
X33930Y18661
X33694Y18862
X33379Y18704
X33386Y18169
X33813Y17975
X34264Y17965
X34706Y17958
X35179Y17960
X35684Y16913
X35994Y16913
X36241Y17386
X36839Y17183
X37135Y17174
X36978Y16903
X36861Y16221
X37116Y15953
X37213Y15412
X36774Y15412
X36314Y15532
X36314Y15200
X36314Y14905
X36320Y14614
X35990Y13930
X35445Y13934
X35583Y13350
X36213Y13429
X36283Y12597
X36298Y12211
X36646Y12405
X36880Y12605
X37137Y12172
X37830Y11871
X38428Y11854
X38775Y12150
X39550Y11975
X39532Y12530
X39542Y13077
X40250Y12950
X40205Y12151
X40231Y11386
X40253Y10576
X39550Y10536
X39550Y10821
X39550Y11106
X39550Y10235
X38762Y9919
X38775Y9634
X38807Y9336
X38757Y8854
X38353Y8803
X37723Y8325
X37346Y8337
X36410Y8193
X36085Y8793
X35877Y8590
X35895Y9117
X35537Y9164
X36088Y9348
X36294Y10491
X36517Y10720
X36563Y11403
X36854Y11414
X36367Y11622
X35698Y11622
X34832Y11811
X34638Y12025
X34434Y12229
X34232Y12431
X34235Y11618
X34682Y11153
X34695Y10452
X34319Y10550
X34442Y10082
X34644Y9545
X34404Y9319
X34210Y8921
X34402Y8665
X34503Y8282
X34543Y7976
X34245Y8074
X33741Y8276
X33685Y8577
X33741Y9139
X33594Y9384
X33851Y9767
X33869Y10258
X32641Y10650
X32331Y10964
X32513Y11185
X32548Y11705
X31095Y11775
X31095Y11460
X31095Y11145
X31095Y10830
X31095Y10515
X31095Y10200
X31095Y9886
X31234Y9608
X31095Y9334
X31095Y9019
X31095Y8704
X31095Y8389
X31095Y8074
X31095Y7760
X31452Y7672
X31235Y7428
X31544Y6726
X31548Y5791
X31921Y5747
X31923Y6032
X32296Y5791
X32198Y4925
X32513Y4925
X32828Y4925
X33143Y4925
X33457Y4925
X33772Y4925
X34087Y4925
X34402Y4925
X34717Y4925
X35308Y5122
X35662Y4925
X35977Y4925
X36292Y4925
X36607Y4925
X36922Y4925
X37237Y4925
X37552Y4925
X37867Y4925
X38182Y4925
X38694Y4964
X38600Y5619
X38998Y5655
X39343Y5610
X39622Y5912
X39564Y5157
X39875Y4925
X40938Y4925
X41332Y4925
X41693Y4949
X41685Y5412
X41915Y5857
X41996Y6730
X42436Y6507
X41250Y6195
X40787Y5876
X40830Y6727
X40387Y6775
X39902Y7203
X39894Y7488
X39826Y7848
X39823Y8144
X40553Y8045
X40544Y8429
X40553Y8754
X40214Y9082
X40553Y9462
X40537Y9814
X40557Y10109
X40240Y9791
X41235Y9363
X41238Y8919
X42414Y9063
X42394Y9584
X42395Y9973
X41570Y10438
X41270Y10399
X41247Y10852
X41247Y11139
X41247Y11426
X41247Y11842
X41247Y12128
X41229Y12552
X41229Y12860
X41229Y13149
X41005Y13889
X40725Y13984
X40413Y14379
X40711Y14699
X40711Y15265
X40718Y15551
X40627Y16212
X40830Y16957
X40662Y17189
X40962Y17224
X41587Y17388
X41883Y17388
X42509Y17183
X42795Y17183
X42631Y16900
X42527Y16224
X42686Y15955
X42866Y15378
X42390Y15378
X41904Y15532
X41904Y15200
X41904Y14905
X41911Y14614
X42674Y14392
X42670Y14015
X43473Y14007
X43446Y14341
X43741Y13909
X44220Y13866
X44245Y13271
X44245Y12878
X44245Y12484
X44245Y12090
X44245Y11697
X44245Y11303
X44245Y10909
X44245Y10515
X44206Y9886
X44245Y9492
X44245Y9177
X44245Y8803
X44117Y8320
X44206Y7956
X44245Y7326
X43961Y7216
X44245Y6775
X44224Y5613
X44245Y4925
X43221Y8193
X43095Y8488
X42226Y8003
X40234Y7711
X39357Y7263
X39225Y6874
X38887Y6945
X38464Y7267
X38024Y7366
X37283Y7288
X36755Y6352
X36615Y6073
X36544Y5766
X36282Y6456
X35451Y6427
X35259Y6102
X34515Y6448
X34589Y7296
X34295Y7296
X34004Y7296
X32818Y7238
X32788Y6775
X33063Y6244
X33089Y5340
X34199Y5213
X31883Y4925
X31568Y4925
X31253Y4925
X32447Y7829
X32603Y8068
X32375Y8360
X32158Y8787
X32599Y8785
X32697Y9469
X32181Y9758
X31905Y9204
X31894Y10413
X31095Y12090
X31095Y12405
X31095Y12720
X31095Y13035
X31095Y13350
X31095Y13665
X31095Y13980
X31095Y14295
X31095Y14610
X31614Y15224
X31174Y15830
X31095Y16303
X31666Y16901
X31666Y17220
X31666Y17538
X31666Y17856
X31666Y18175
X32030Y18501
X31312Y18544
X32908Y17713
X32775Y17134
X33339Y16224
X33572Y15520
X33558Y15200
X33563Y14912
X33564Y14614
X34351Y14392
X34360Y13979
X34870Y14364
X35160Y14580
X35160Y15153
X35123Y15539
X34519Y15405
X34019Y15412
X34359Y15958
X34238Y16624
X34555Y16624
X34901Y16624
X33891Y16635
X35702Y16224
X37918Y15539
X37916Y15140
X37916Y14701
X37834Y14317
X37107Y14339
X37158Y14057
X38300Y13925
X38624Y13917
X38646Y13425
X39056Y13705
X39127Y14534
X39104Y14905
X39117Y15200
X39127Y15700
X39422Y15437
X40091Y15392
X39891Y15934
X39962Y16810
X39731Y17390
X39021Y17183
X38729Y17183
X38871Y16893
X38748Y16224
X38102Y17344
X37774Y17395
X39769Y14386
X39968Y13980
X41581Y13930
X42115Y13311
X42115Y12550
X42115Y11789
X42114Y11027
X38431Y11080
X38635Y10755
X38473Y9867
X39552Y8767
X38753Y6144
X38309Y6240
X38216Y6510
X38013Y6147
X35507Y7489
X35449Y7772
X33876Y13305
X33497Y12956
X32410Y13101
X32459Y13830
X32771Y13798
X33234Y13930
X31699Y13623
X38021Y12568
X43507Y15112
X43469Y15577
X43751Y15899
X44242Y15938
X43644Y16490
X43910Y16802
X44245Y17484
X44245Y17878
X44225Y18463
X43654Y18271
X43457Y17388
X44117Y14580
X25869Y18843
X25662Y18499
X26164Y18380
X27562Y18410
T02
X13496Y37992
X13496Y1378
X13773Y38660
X13773Y37324
X13773Y2046
X13773Y710
X14441Y38937
X14441Y37047
X14441Y2323
X14441Y433
X15109Y38660
X15109Y37324
X15109Y2046
X15109Y710
X15386Y37992
X15386Y1378
X50110Y37992
X50110Y1378
X50387Y38660
X50387Y37324
X50387Y2046
X50387Y710
X51055Y38937
X51055Y37047
X51055Y2323
X51055Y433
X51723Y38660
X51723Y37324
X51723Y2046
X51723Y710
X52000Y37992
X52000Y1378
X31047Y3014G85X31047Y2581
X31047Y1270G85X31047Y1033
X34449Y3014G85X34449Y2581
X34449Y1270G85X34449Y1033
T03
X35701Y2165
X35701Y1535
X36390Y2480
X36390Y1850
X36390Y1220
X35789Y3287G85X36301Y3287
X35789Y413G85X36301Y413
X31610Y2600
X33886Y2600
T04
X20307Y7657
X20307Y5728
X20366Y8898
X21173Y7657
X21173Y5728
X22039Y7657
X22039Y5728
X22295Y8898
X30179Y2549
X30179Y1049
X36489Y27697
X36489Y26697
X36489Y25697
X36489Y24697
X36489Y23697
X36489Y22697
X45740Y5118
X45740Y4134
X45740Y3150
X45740Y2165
X45740Y1181
X38150Y13567
X36572Y13567
X35150Y13567
T05
X14244Y4527
X15244Y4527
X16244Y4527
X22118Y4331
X23053Y8376
X23053Y7648
X23053Y5699
X23053Y955
X25661Y22638
X26803Y22638
X28441Y18110
X28614Y23669
X28614Y22669
X28614Y21669
X28614Y20669
X28614Y19669
X29155Y8199
X29155Y5679
X29155Y4931
X29155Y3238
X29155Y777
X29441Y18110
X29614Y23669
X29614Y22669
X29614Y21669
X29614Y20669
X29614Y19669
X30614Y23669
X30614Y22669
X30614Y21669
X30614Y20669
X30614Y19669
X31614Y23669
X31614Y22669
X31614Y21669
X31614Y20669
X31614Y19669
X32614Y23669
X32614Y22669
X32614Y21669
X32614Y20669
X32614Y19669
X33614Y23669
X33614Y22669
X33614Y21669
X33614Y20669
X33614Y19669
X37669Y2953
X37669Y984
X45819Y9449
X45819Y7598
X46705Y14921
X47705Y14921
X48705Y14921
X49705Y14921
X50705Y14921
X51705Y14921
X23054Y958
X23054Y5703
X29157Y5683
X29157Y4935
X29157Y3242
X29157Y781
X29157Y8203
X23054Y8380
X23054Y7651
X51047Y23137
X49865Y23925
X51047Y24712
X51125Y16011
X50725Y18011
X51525Y18011
X43930Y5240
X34851Y6211
X34851Y5411
X32851Y5811
T06
X47238Y22960
X47238Y23960
X47238Y24960
T07
X4480Y33947
X4480Y32766
X4480Y31585
X4480Y30403
X4480Y29222
X4480Y28041
X4480Y26860
X4480Y25679
X4480Y24498
X4530Y14439
X4530Y13258
X4530Y12077
X4530Y10896
X4530Y9715
X4530Y8533
X4530Y7352
X4530Y6171
X4530Y4990
X5858Y33356
X5858Y32175
X5858Y30994
X5858Y29813
X5858Y28632
X5858Y27451
X5858Y26270
X5858Y25089
X5907Y13848
X5907Y12667
X5907Y11486
X5907Y10305
X5907Y9124
X5907Y7943
X5907Y6762
X5907Y5581
X7433Y33356
X7433Y32175
X7433Y30994
X7433Y29813
X7433Y28632
X7433Y27451
X7433Y26270
X7433Y25089
X7482Y13848
X7482Y12667
X7482Y11486
X7482Y10305
X7482Y9124
X7482Y7943
X7482Y6762
X7482Y5581
X8811Y33947
X8811Y32766
X8811Y31585
X8811Y30403
X8811Y29222
X8811Y28041
X8811Y26860
X8811Y25679
X8811Y24498
X8860Y14439
X8860Y13258
X8860Y12077
X8860Y10896
X8860Y9715
X8860Y8533
X8860Y7352
X8860Y6171
X8860Y4990
T08
X49283Y11457
X49283Y8504
T09
X6350Y35029
X6350Y23415
X6400Y15522
X6400Y3907
T10
X38307Y22362
X38457Y28268
X41489Y29697
X41489Y20697
T11
X14441Y37992
X14441Y1378
X51055Y37992
X51055Y1378
X6646Y36998
X6646Y21447
X6695Y17490
X6695Y1939
M30
