G75*
G70*
%OFA0B0*%
%FSLAX25Y25*%
%IPPOS*%
%LPD*%
%AMOC8*
5,1,8,0,0,1.08239X$1,22.5*
%
%AMM118*
21,1,0.027170,0.052760,0.000000,-0.000000,180.000000*
21,1,0.017320,0.062600,0.000000,-0.000000,180.000000*
1,1,0.009840,-0.008660,0.026380*
1,1,0.009840,0.008660,0.026380*
1,1,0.009840,0.008660,-0.026380*
1,1,0.009840,-0.008660,-0.026380*
%
%AMM14*
21,1,0.092130,0.073230,0.000000,0.000000,270.000000*
21,1,0.069290,0.096060,0.000000,0.000000,270.000000*
1,1,0.022840,-0.036610,-0.034650*
1,1,0.022840,-0.036610,0.034650*
1,1,0.022840,0.036610,0.034650*
1,1,0.022840,0.036610,-0.034650*
%
%AMM15*
21,1,0.100000,0.111020,0.000000,0.000000,0.000000*
21,1,0.075590,0.135430,0.000000,0.000000,0.000000*
1,1,0.024410,0.037800,-0.055510*
1,1,0.024410,-0.037800,-0.055510*
1,1,0.024410,-0.037800,0.055510*
1,1,0.024410,0.037800,0.055510*
%
%AMM16*
21,1,0.080320,0.083460,0.000000,0.000000,0.000000*
21,1,0.059840,0.103940,0.000000,0.000000,0.000000*
1,1,0.020470,0.029920,-0.041730*
1,1,0.020470,-0.029920,-0.041730*
1,1,0.020470,-0.029920,0.041730*
1,1,0.020470,0.029920,0.041730*
%
%AMM17*
21,1,0.084250,0.053540,0.000000,0.000000,180.000000*
21,1,0.065350,0.072440,0.000000,0.000000,180.000000*
1,1,0.018900,-0.032680,0.026770*
1,1,0.018900,0.032680,0.026770*
1,1,0.018900,0.032680,-0.026770*
1,1,0.018900,-0.032680,-0.026770*
%
%AMM18*
21,1,0.040950,0.030320,0.000000,0.000000,90.000000*
21,1,0.028350,0.042910,0.000000,0.000000,90.000000*
1,1,0.012600,0.015160,0.014170*
1,1,0.012600,0.015160,-0.014170*
1,1,0.012600,-0.015160,-0.014170*
1,1,0.012600,-0.015160,0.014170*
%
%AMM19*
21,1,0.027170,0.052760,0.000000,0.000000,270.000000*
21,1,0.017320,0.062600,0.000000,0.000000,270.000000*
1,1,0.009840,-0.026380,-0.008660*
1,1,0.009840,-0.026380,0.008660*
1,1,0.009840,0.026380,0.008660*
1,1,0.009840,0.026380,-0.008660*
%
%AMM20*
21,1,0.041340,0.026770,0.000000,0.000000,0.000000*
21,1,0.029130,0.038980,0.000000,0.000000,0.000000*
1,1,0.012210,0.014570,-0.013390*
1,1,0.012210,-0.014570,-0.013390*
1,1,0.012210,-0.014570,0.013390*
1,1,0.012210,0.014570,0.013390*
%
%AMM201*
21,1,0.029530,0.026380,-0.000000,-0.000000,90.000000*
21,1,0.020470,0.035430,-0.000000,-0.000000,90.000000*
1,1,0.009060,0.013190,0.010240*
1,1,0.009060,0.013190,-0.010240*
1,1,0.009060,-0.013190,-0.010240*
1,1,0.009060,-0.013190,0.010240*
%
%AMM202*
21,1,0.021650,0.027950,-0.000000,-0.000000,90.000000*
21,1,0.014170,0.035430,-0.000000,-0.000000,90.000000*
1,1,0.007480,0.013980,0.007090*
1,1,0.007480,0.013980,-0.007090*
1,1,0.007480,-0.013980,-0.007090*
1,1,0.007480,-0.013980,0.007090*
%
%AMM203*
21,1,0.016540,0.028980,-0.000000,-0.000000,270.000000*
21,1,0.010080,0.035430,-0.000000,-0.000000,270.000000*
1,1,0.006460,-0.014490,-0.005040*
1,1,0.006460,-0.014490,0.005040*
1,1,0.006460,0.014490,0.005040*
1,1,0.006460,0.014490,-0.005040*
%
%AMM204*
21,1,0.027560,0.030710,-0.000000,-0.000000,0.000000*
21,1,0.018900,0.039370,-0.000000,-0.000000,0.000000*
1,1,0.008660,0.009450,-0.015350*
1,1,0.008660,-0.009450,-0.015350*
1,1,0.008660,-0.009450,0.015350*
1,1,0.008660,0.009450,0.015350*
%
%AMM205*
21,1,0.031500,0.018900,-0.000000,-0.000000,270.000000*
21,1,0.022840,0.027560,-0.000000,-0.000000,270.000000*
1,1,0.008660,-0.009450,-0.011420*
1,1,0.008660,-0.009450,0.011420*
1,1,0.008660,0.009450,0.011420*
1,1,0.008660,0.009450,-0.011420*
%
%AMM206*
21,1,0.035430,0.072440,-0.000000,-0.000000,270.000000*
21,1,0.025200,0.082680,-0.000000,-0.000000,270.000000*
1,1,0.010240,-0.036220,-0.012600*
1,1,0.010240,-0.036220,0.012600*
1,1,0.010240,0.036220,0.012600*
1,1,0.010240,0.036220,-0.012600*
%
%AMM207*
21,1,0.031500,0.018900,-0.000000,-0.000000,0.000000*
21,1,0.022840,0.027560,-0.000000,-0.000000,0.000000*
1,1,0.008660,0.011420,-0.009450*
1,1,0.008660,-0.011420,-0.009450*
1,1,0.008660,-0.011420,0.009450*
1,1,0.008660,0.011420,0.009450*
%
%AMM208*
21,1,0.027560,0.030710,-0.000000,-0.000000,90.000000*
21,1,0.018900,0.039370,-0.000000,-0.000000,90.000000*
1,1,0.008660,0.015350,0.009450*
1,1,0.008660,0.015350,-0.009450*
1,1,0.008660,-0.015350,-0.009450*
1,1,0.008660,-0.015350,0.009450*
%
%AMM209*
21,1,0.039370,0.030320,-0.000000,-0.000000,90.000000*
21,1,0.028350,0.041340,-0.000000,-0.000000,90.000000*
1,1,0.011020,0.015160,0.014170*
1,1,0.011020,0.015160,-0.014170*
1,1,0.011020,-0.015160,-0.014170*
1,1,0.011020,-0.015160,0.014170*
%
%AMM21*
21,1,0.076380,0.036220,0.000000,0.000000,90.000000*
21,1,0.061810,0.050790,0.000000,0.000000,90.000000*
1,1,0.014570,0.018110,0.030910*
1,1,0.014570,0.018110,-0.030910*
1,1,0.014570,-0.018110,-0.030910*
1,1,0.014570,-0.018110,0.030910*
%
%AMM210*
21,1,0.047240,0.075980,-0.000000,-0.000000,180.000000*
21,1,0.034650,0.088580,-0.000000,-0.000000,180.000000*
1,1,0.012600,-0.017320,0.037990*
1,1,0.012600,0.017320,0.037990*
1,1,0.012600,0.017320,-0.037990*
1,1,0.012600,-0.017320,-0.037990*
%
%AMM211*
21,1,0.043310,0.035430,-0.000000,-0.000000,180.000000*
21,1,0.031500,0.047240,-0.000000,-0.000000,180.000000*
1,1,0.011810,-0.015750,0.017720*
1,1,0.011810,0.015750,0.017720*
1,1,0.011810,0.015750,-0.017720*
1,1,0.011810,-0.015750,-0.017720*
%
%AMM212*
21,1,0.031500,0.030710,-0.000000,-0.000000,180.000000*
21,1,0.022050,0.040160,-0.000000,-0.000000,180.000000*
1,1,0.009450,-0.011020,0.015350*
1,1,0.009450,0.011020,0.015350*
1,1,0.009450,0.011020,-0.015350*
1,1,0.009450,-0.011020,-0.015350*
%
%AMM213*
21,1,0.035430,0.072440,-0.000000,-0.000000,180.000000*
21,1,0.025200,0.082680,-0.000000,-0.000000,180.000000*
1,1,0.010240,-0.012600,0.036220*
1,1,0.010240,0.012600,0.036220*
1,1,0.010240,0.012600,-0.036220*
1,1,0.010240,-0.012600,-0.036220*
%
%AMM214*
21,1,0.141730,0.067720,-0.000000,-0.000000,180.000000*
21,1,0.120870,0.088580,-0.000000,-0.000000,180.000000*
1,1,0.020870,-0.060430,0.033860*
1,1,0.020870,0.060430,0.033860*
1,1,0.020870,0.060430,-0.033860*
1,1,0.020870,-0.060430,-0.033860*
%
%AMM215*
21,1,0.047240,0.075990,-0.000000,-0.000000,180.000000*
21,1,0.034650,0.088580,-0.000000,-0.000000,180.000000*
1,1,0.012600,-0.017320,0.037990*
1,1,0.012600,0.017320,0.037990*
1,1,0.012600,0.017320,-0.037990*
1,1,0.012600,-0.017320,-0.037990*
%
%AMM216*
21,1,0.090550,0.073230,-0.000000,-0.000000,270.000000*
21,1,0.069290,0.094490,-0.000000,-0.000000,270.000000*
1,1,0.021260,-0.036610,-0.034650*
1,1,0.021260,-0.036610,0.034650*
1,1,0.021260,0.036610,0.034650*
1,1,0.021260,0.036610,-0.034650*
%
%AMM22*
21,1,0.038980,0.026770,0.000000,0.000000,0.000000*
21,1,0.026770,0.038980,0.000000,0.000000,0.000000*
1,1,0.012210,0.013390,-0.013390*
1,1,0.012210,-0.013390,-0.013390*
1,1,0.012210,-0.013390,0.013390*
1,1,0.012210,0.013390,0.013390*
%
%AMM23*
21,1,0.021260,0.016540,0.000000,0.000000,270.000000*
21,1,0.012600,0.025200,0.000000,0.000000,270.000000*
1,1,0.008660,-0.008270,-0.006300*
1,1,0.008660,-0.008270,0.006300*
1,1,0.008660,0.008270,0.006300*
1,1,0.008660,0.008270,-0.006300*
%
%AMM24*
21,1,0.029130,0.018900,0.000000,0.000000,90.000000*
21,1,0.018900,0.029130,0.000000,0.000000,90.000000*
1,1,0.010240,0.009450,0.009450*
1,1,0.010240,0.009450,-0.009450*
1,1,0.010240,-0.009450,-0.009450*
1,1,0.010240,-0.009450,0.009450*
%
%AMM25*
21,1,0.025200,0.019680,0.000000,0.000000,0.000000*
21,1,0.015750,0.029130,0.000000,0.000000,0.000000*
1,1,0.009450,0.007870,-0.009840*
1,1,0.009450,-0.007870,-0.009840*
1,1,0.009450,-0.007870,0.009840*
1,1,0.009450,0.007870,0.009840*
%
%AMM254*
21,1,0.040950,0.030320,0.000000,-0.000000,90.000000*
21,1,0.028350,0.042910,0.000000,-0.000000,90.000000*
1,1,0.012600,0.015160,0.014170*
1,1,0.012600,0.015160,-0.014170*
1,1,0.012600,-0.015160,-0.014170*
1,1,0.012600,-0.015160,0.014170*
%
%AMM255*
21,1,0.038980,0.026770,0.000000,-0.000000,270.000000*
21,1,0.026770,0.038980,0.000000,-0.000000,270.000000*
1,1,0.012210,-0.013390,-0.013390*
1,1,0.012210,-0.013390,0.013390*
1,1,0.012210,0.013390,0.013390*
1,1,0.012210,0.013390,-0.013390*
%
%AMM256*
21,1,0.033070,0.030710,0.000000,-0.000000,90.000000*
21,1,0.022050,0.041730,0.000000,-0.000000,90.000000*
1,1,0.011020,0.015350,0.011020*
1,1,0.011020,0.015350,-0.011020*
1,1,0.011020,-0.015350,-0.011020*
1,1,0.011020,-0.015350,0.011020*
%
%AMM26*
21,1,0.025200,0.019680,0.000000,0.000000,270.000000*
21,1,0.015750,0.029130,0.000000,0.000000,270.000000*
1,1,0.009450,-0.009840,-0.007870*
1,1,0.009450,-0.009840,0.007870*
1,1,0.009450,0.009840,0.007870*
1,1,0.009450,0.009840,-0.007870*
%
%ADD10C,0.06693*%
%ADD115M14*%
%ADD116M15*%
%ADD117M16*%
%ADD118M17*%
%ADD119M18*%
%ADD120M19*%
%ADD121M20*%
%ADD122M21*%
%ADD123M22*%
%ADD124M23*%
%ADD125M24*%
%ADD126M25*%
%ADD127M26*%
%ADD128C,0.02913*%
%ADD129C,0.06457*%
%ADD153R,0.02559X0.01575*%
%ADD154R,0.01575X0.02559*%
%ADD157R,0.03543X0.03150*%
%ADD159C,0.05118*%
%ADD161R,0.03150X0.03543*%
%ADD169C,0.03100*%
%ADD172C,0.03900*%
%ADD20C,0.07874*%
%ADD206O,0.05118X0.01260*%
%ADD207O,0.01260X0.05118*%
%ADD208O,0.04724X0.01575*%
%ADD209C,0.03494*%
%ADD21C,0.03150*%
%ADD212R,0.01772X0.01378*%
%ADD213R,0.01378X0.01772*%
%ADD218O,0.09055X0.02756*%
%ADD22C,0.25197*%
%ADD225C,0.03543*%
%ADD227C,0.04724*%
%ADD228C,0.04294*%
%ADD23C,0.06000*%
%ADD24O,0.07283X0.06693*%
%ADD25C,0.02362*%
%ADD272O,0.02520X0.01535*%
%ADD273O,0.01535X0.02520*%
%ADD298M118*%
%ADD307R,0.01181X0.05512*%
%ADD308R,0.08661X0.04724*%
%ADD309R,0.25197X0.22835*%
%ADD31R,0.04331X0.04331*%
%ADD310R,0.07874X0.07500*%
%ADD311O,0.07874X0.07500*%
%ADD32C,0.04331*%
%ADD33O,0.09449X0.04331*%
%ADD36C,0.05906*%
%ADD409M201*%
%ADD410M202*%
%ADD411M203*%
%ADD412M204*%
%ADD413M205*%
%ADD414M206*%
%ADD415M207*%
%ADD416M208*%
%ADD417M209*%
%ADD418M210*%
%ADD419M211*%
%ADD420M212*%
%ADD421M213*%
%ADD422M214*%
%ADD423M215*%
%ADD424M216*%
%ADD453O,0.02913X0.09213*%
%ADD463M254*%
%ADD464M255*%
%ADD465M256*%
%ADD49O,0.00984X0.01969*%
%ADD51O,0.01969X0.00984*%
%ADD52R,0.05118X0.03937*%
%ADD53R,0.07874X0.02559*%
%ADD54R,0.17717X0.31890*%
%ADD67R,0.01181X0.04528*%
%ADD68O,0.03937X0.08268*%
%ADD69O,0.03937X0.06299*%
%ADD70R,0.06693X0.06693*%
%ADD71O,0.06693X0.06693*%
%ADD72C,0.13000*%
%ADD73R,0.02717X0.05315*%
%ADD74C,0.12992*%
%ADD80C,0.00472*%
%ADD81C,0.09055*%
%ADD82C,0.02559*%
X0000000Y0000000D02*
%LPD*%
G01*
D80*
X0531339Y0028405D02*
X0480157Y0028405D01*
X0480157Y0055964D01*
X0531339Y0055964D01*
X0531339Y0028405D01*
G36*
X0531339Y0028405D02*
G01*
X0480157Y0028405D01*
X0480157Y0055964D01*
X0531339Y0055964D01*
X0531339Y0028405D01*
G37*
G36*
G01*
X0263120Y0327677D02*
X0258199Y0327677D01*
G75*
G02*
X0257805Y0328071I0000000J0000394D01*
G01*
X0257805Y0331220D01*
G75*
G02*
X0258199Y0331614I0000394J0000000D01*
G01*
X0263120Y0331614D01*
G75*
G02*
X0263514Y0331220I0000000J-000394D01*
G01*
X0263514Y0328071D01*
G75*
G02*
X0263120Y0327677I-000394J0000000D01*
G01*
G37*
G36*
G01*
X0263120Y0335157D02*
X0258199Y0335157D01*
G75*
G02*
X0257805Y0335551I0000000J0000394D01*
G01*
X0257805Y0338701D01*
G75*
G02*
X0258199Y0339094I0000394J0000000D01*
G01*
X0263120Y0339094D01*
G75*
G02*
X0263514Y0338701I0000000J-000394D01*
G01*
X0263514Y0335551D01*
G75*
G02*
X0263120Y0335157I-000394J0000000D01*
G01*
G37*
G36*
G01*
X0169567Y0040177D02*
X0172244Y0040177D01*
G75*
G02*
X0172579Y0039842I0000000J-000335D01*
G01*
X0172579Y0037165D01*
G75*
G02*
X0172244Y0036830I-000335J0000000D01*
G01*
X0169567Y0036830D01*
G75*
G02*
X0169232Y0037165I0000000J0000335D01*
G01*
X0169232Y0039842D01*
G75*
G02*
X0169567Y0040177I0000335J0000000D01*
G01*
G37*
G36*
G01*
X0169567Y0033956D02*
X0172244Y0033956D01*
G75*
G02*
X0172579Y0033622I0000000J-000335D01*
G01*
X0172579Y0030945D01*
G75*
G02*
X0172244Y0030610I-000335J0000000D01*
G01*
X0169567Y0030610D01*
G75*
G02*
X0169232Y0030945I0000000J0000335D01*
G01*
X0169232Y0033622D01*
G75*
G02*
X0169567Y0033956I0000335J0000000D01*
G01*
G37*
G36*
G01*
X0411368Y0346949D02*
X0411368Y0342027D01*
G75*
G02*
X0410974Y0341634I-000394J0000000D01*
G01*
X0407825Y0341634D01*
G75*
G02*
X0407431Y0342027I0000000J0000394D01*
G01*
X0407431Y0346949D01*
G75*
G02*
X0407825Y0347342I0000394J0000000D01*
G01*
X0410974Y0347342D01*
G75*
G02*
X0411368Y0346949I0000000J-000394D01*
G01*
G37*
G36*
G01*
X0403888Y0346949D02*
X0403888Y0342027D01*
G75*
G02*
X0403494Y0341634I-000394J0000000D01*
G01*
X0400344Y0341634D01*
G75*
G02*
X0399951Y0342027I0000000J0000394D01*
G01*
X0399951Y0346949D01*
G75*
G02*
X0400344Y0347342I0000394J0000000D01*
G01*
X0403494Y0347342D01*
G75*
G02*
X0403888Y0346949I0000000J-000394D01*
G01*
G37*
D10*
X0468543Y0075945D03*
X0304764Y0181063D03*
G36*
G01*
X0232559Y0026397D02*
X0235236Y0026397D01*
G75*
G02*
X0235571Y0026063I0000000J-000335D01*
G01*
X0235571Y0023386D01*
G75*
G02*
X0235236Y0023051I-000335J0000000D01*
G01*
X0232559Y0023051D01*
G75*
G02*
X0232224Y0023386I0000000J0000335D01*
G01*
X0232224Y0026063D01*
G75*
G02*
X0232559Y0026397I0000335J0000000D01*
G01*
G37*
G36*
G01*
X0232559Y0020177D02*
X0235236Y0020177D01*
G75*
G02*
X0235571Y0019842I0000000J-000335D01*
G01*
X0235571Y0017165D01*
G75*
G02*
X0235236Y0016830I-000335J0000000D01*
G01*
X0232559Y0016830D01*
G75*
G02*
X0232224Y0017165I0000000J0000335D01*
G01*
X0232224Y0019842D01*
G75*
G02*
X0232559Y0020177I0000335J0000000D01*
G01*
G37*
D74*
X0077274Y0369941D03*
D81*
X0074321Y0350256D03*
X0074321Y0234114D03*
D74*
X0077274Y0214429D03*
D20*
X0098927Y0339429D03*
X0098927Y0327618D03*
X0098927Y0315807D03*
X0098927Y0303996D03*
X0098927Y0292185D03*
X0098927Y0280374D03*
X0098927Y0268563D03*
X0098927Y0256752D03*
X0098927Y0244941D03*
X0085148Y0333523D03*
X0085148Y0321712D03*
X0085148Y0309901D03*
X0085148Y0298090D03*
X0085148Y0286279D03*
X0085148Y0274468D03*
X0085148Y0262657D03*
X0085148Y0250846D03*
X0069400Y0333523D03*
X0069400Y0321712D03*
X0069400Y0309901D03*
X0069400Y0298090D03*
X0069400Y0286279D03*
X0069400Y0274468D03*
X0069400Y0262657D03*
X0069400Y0250846D03*
X0055620Y0339429D03*
X0055620Y0327618D03*
X0055620Y0315807D03*
X0055620Y0303996D03*
X0055620Y0292185D03*
X0055620Y0280374D03*
X0055620Y0268563D03*
X0055620Y0256752D03*
X0055620Y0244941D03*
G36*
G01*
X0205492Y0063641D02*
X0208169Y0063641D01*
G75*
G02*
X0208504Y0063307I0000000J-000335D01*
G01*
X0208504Y0060630D01*
G75*
G02*
X0208169Y0060295I-000335J0000000D01*
G01*
X0205492Y0060295D01*
G75*
G02*
X0205157Y0060630I0000000J0000335D01*
G01*
X0205157Y0063307D01*
G75*
G02*
X0205492Y0063641I0000335J0000000D01*
G01*
G37*
G36*
G01*
X0205492Y0057421D02*
X0208169Y0057421D01*
G75*
G02*
X0208504Y0057086I0000000J-000335D01*
G01*
X0208504Y0054409D01*
G75*
G02*
X0208169Y0054075I-000335J0000000D01*
G01*
X0205492Y0054075D01*
G75*
G02*
X0205157Y0054409I0000000J0000335D01*
G01*
X0205157Y0057086D01*
G75*
G02*
X0205492Y0057421I0000335J0000000D01*
G01*
G37*
D10*
X0162795Y0045236D03*
D21*
X0004477Y0379882D03*
X0007244Y0386563D03*
X0007244Y0373200D03*
X0013925Y0389330D03*
D22*
X0013925Y0379882D03*
D21*
X0013925Y0370433D03*
X0020607Y0386563D03*
X0020607Y0373200D03*
X0023374Y0379882D03*
X0511457Y0379882D03*
X0514224Y0386563D03*
X0514224Y0373200D03*
X0520906Y0389330D03*
D22*
X0520906Y0379882D03*
D21*
X0520906Y0370433D03*
X0527587Y0386563D03*
X0527587Y0373200D03*
X0530354Y0379882D03*
D23*
X0213425Y0076535D03*
G36*
G01*
X0209882Y0071240D02*
X0209882Y0073956D01*
G75*
G02*
X0210787Y0074862I0000906J0000000D01*
G01*
X0216063Y0074862D01*
G75*
G02*
X0216969Y0073956I0000000J-000906D01*
G01*
X0216969Y0071240D01*
G75*
G02*
X0216063Y0070334I-000906J0000000D01*
G01*
X0210787Y0070334D01*
G75*
G02*
X0209882Y0071240I0000000J0000906D01*
G01*
G37*
G36*
G01*
X0209882Y0059823D02*
X0209882Y0062539D01*
G75*
G02*
X0210787Y0063445I0000906J0000000D01*
G01*
X0216063Y0063445D01*
G75*
G02*
X0216969Y0062539I0000000J-000906D01*
G01*
X0216969Y0059823D01*
G75*
G02*
X0216063Y0058917I-000906J0000000D01*
G01*
X0210787Y0058917D01*
G75*
G02*
X0209882Y0059823I0000000J0000906D01*
G01*
G37*
X0213425Y0057244D03*
G36*
G01*
X0266427Y0338976D02*
X0271348Y0338976D01*
G75*
G02*
X0271742Y0338582I0000000J-000394D01*
G01*
X0271742Y0335433D01*
G75*
G02*
X0271348Y0335039I-000394J0000000D01*
G01*
X0266427Y0335039D01*
G75*
G02*
X0266034Y0335433I0000000J0000394D01*
G01*
X0266034Y0338582D01*
G75*
G02*
X0266427Y0338976I0000394J0000000D01*
G01*
G37*
G36*
G01*
X0266427Y0331496D02*
X0271348Y0331496D01*
G75*
G02*
X0271742Y0331102I0000000J-000394D01*
G01*
X0271742Y0327952D01*
G75*
G02*
X0271348Y0327559I-000394J0000000D01*
G01*
X0266427Y0327559D01*
G75*
G02*
X0266034Y0327952I0000000J0000394D01*
G01*
X0266034Y0331102D01*
G75*
G02*
X0266427Y0331496I0000394J0000000D01*
G01*
G37*
G36*
G01*
X0244380Y0141471D02*
X0244380Y0143489D01*
G75*
G02*
X0245241Y0144350I0000861J0000000D01*
G01*
X0246964Y0144350D01*
G75*
G02*
X0247825Y0143489I0000000J-000861D01*
G01*
X0247825Y0141471D01*
G75*
G02*
X0246964Y0140610I-000861J0000000D01*
G01*
X0245241Y0140610D01*
G75*
G02*
X0244380Y0141471I0000000J0000861D01*
G01*
G37*
G36*
G01*
X0250581Y0141471D02*
X0250581Y0143489D01*
G75*
G02*
X0251442Y0144350I0000861J0000000D01*
G01*
X0253164Y0144350D01*
G75*
G02*
X0254026Y0143489I0000000J-000861D01*
G01*
X0254026Y0141471D01*
G75*
G02*
X0253164Y0140610I-000861J0000000D01*
G01*
X0251442Y0140610D01*
G75*
G02*
X0250581Y0141471I0000000J0000861D01*
G01*
G37*
G36*
G01*
X0145945Y0072854D02*
X0148622Y0072854D01*
G75*
G02*
X0148957Y0072519I0000000J-000335D01*
G01*
X0148957Y0069842D01*
G75*
G02*
X0148622Y0069508I-000335J0000000D01*
G01*
X0145945Y0069508D01*
G75*
G02*
X0145610Y0069842I0000000J0000335D01*
G01*
X0145610Y0072519D01*
G75*
G02*
X0145945Y0072854I0000335J0000000D01*
G01*
G37*
G36*
G01*
X0145945Y0066634D02*
X0148622Y0066634D01*
G75*
G02*
X0148957Y0066299I0000000J-000335D01*
G01*
X0148957Y0063622D01*
G75*
G02*
X0148622Y0063287I-000335J0000000D01*
G01*
X0145945Y0063287D01*
G75*
G02*
X0145610Y0063622I0000000J0000335D01*
G01*
X0145610Y0066299D01*
G75*
G02*
X0145945Y0066634I0000335J0000000D01*
G01*
G37*
G36*
G01*
X0470413Y0008425D02*
X0465098Y0008425D01*
G75*
G02*
X0464114Y0009409I0000000J0000984D01*
G01*
X0464114Y0014134D01*
G75*
G02*
X0465098Y0015118I0000984J0000000D01*
G01*
X0470413Y0015118D01*
G75*
G02*
X0471398Y0014134I0000000J-000984D01*
G01*
X0471398Y0009409D01*
G75*
G02*
X0470413Y0008425I-000984J0000000D01*
G01*
G37*
D24*
X0467756Y0021614D03*
X0467756Y0031456D03*
X0467756Y0041299D03*
X0467756Y0051141D03*
G36*
G01*
X0240453Y0203479D02*
X0240453Y0205497D01*
G75*
G02*
X0241314Y0206358I0000861J0000000D01*
G01*
X0243036Y0206358D01*
G75*
G02*
X0243898Y0205497I0000000J-000861D01*
G01*
X0243898Y0203479D01*
G75*
G02*
X0243036Y0202618I-000861J0000000D01*
G01*
X0241314Y0202618D01*
G75*
G02*
X0240453Y0203479I0000000J0000861D01*
G01*
G37*
G36*
G01*
X0246654Y0203479D02*
X0246654Y0205497D01*
G75*
G02*
X0247515Y0206358I0000861J0000000D01*
G01*
X0249237Y0206358D01*
G75*
G02*
X0250098Y0205497I0000000J-000861D01*
G01*
X0250098Y0203479D01*
G75*
G02*
X0249237Y0202618I-000861J0000000D01*
G01*
X0247515Y0202618D01*
G75*
G02*
X0246654Y0203479I0000000J0000861D01*
G01*
G37*
D10*
X0387047Y0029488D03*
D21*
X0004477Y0013622D03*
X0007244Y0020303D03*
X0007244Y0006940D03*
X0013925Y0023071D03*
D22*
X0013925Y0013622D03*
D21*
X0013925Y0004173D03*
X0020607Y0020303D03*
X0020607Y0006940D03*
X0023374Y0013622D03*
D25*
X0334587Y0246712D03*
X0329862Y0246712D03*
X0339311Y0246712D03*
X0344035Y0246712D03*
X0318602Y0303504D03*
X0314665Y0303504D03*
D10*
X0152795Y0045236D03*
G36*
G01*
X0244154Y0133833D02*
X0244154Y0135851D01*
G75*
G02*
X0245015Y0136712I0000861J0000000D01*
G01*
X0246737Y0136712D01*
G75*
G02*
X0247598Y0135851I0000000J-000861D01*
G01*
X0247598Y0133833D01*
G75*
G02*
X0246737Y0132972I-000861J0000000D01*
G01*
X0245015Y0132972D01*
G75*
G02*
X0244154Y0133833I0000000J0000861D01*
G01*
G37*
G36*
G01*
X0250354Y0133833D02*
X0250354Y0135851D01*
G75*
G02*
X0251216Y0136712I0000861J0000000D01*
G01*
X0252938Y0136712D01*
G75*
G02*
X0253799Y0135851I0000000J-000861D01*
G01*
X0253799Y0133833D01*
G75*
G02*
X0252938Y0132972I-000861J0000000D01*
G01*
X0251216Y0132972D01*
G75*
G02*
X0250354Y0133833I0000000J0000861D01*
G01*
G37*
D31*
X0374252Y0012165D03*
D32*
X0367362Y0015315D03*
X0374252Y0018464D03*
X0367362Y0021614D03*
X0374252Y0024764D03*
D33*
X0370807Y0004094D03*
X0370807Y0032834D03*
D23*
X0222087Y0076535D03*
G36*
G01*
X0218543Y0071240D02*
X0218543Y0073956D01*
G75*
G02*
X0219449Y0074862I0000906J0000000D01*
G01*
X0224724Y0074862D01*
G75*
G02*
X0225630Y0073956I0000000J-000906D01*
G01*
X0225630Y0071240D01*
G75*
G02*
X0224724Y0070334I-000906J0000000D01*
G01*
X0219449Y0070334D01*
G75*
G02*
X0218543Y0071240I0000000J0000906D01*
G01*
G37*
G36*
G01*
X0218543Y0059823D02*
X0218543Y0062539D01*
G75*
G02*
X0219449Y0063445I0000906J0000000D01*
G01*
X0224724Y0063445D01*
G75*
G02*
X0225630Y0062539I0000000J-000906D01*
G01*
X0225630Y0059823D01*
G75*
G02*
X0224724Y0058917I-000906J0000000D01*
G01*
X0219449Y0058917D01*
G75*
G02*
X0218543Y0059823I0000000J0000906D01*
G01*
G37*
X0222087Y0057244D03*
D25*
X0454272Y0287854D03*
X0450531Y0287854D03*
X0446791Y0287854D03*
X0450728Y0322106D03*
X0454272Y0322106D03*
G36*
G01*
X0172244Y0016830D02*
X0169567Y0016830D01*
G75*
G02*
X0169232Y0017165I0000000J0000335D01*
G01*
X0169232Y0019842D01*
G75*
G02*
X0169567Y0020177I0000335J0000000D01*
G01*
X0172244Y0020177D01*
G75*
G02*
X0172579Y0019842I0000000J-000335D01*
G01*
X0172579Y0017165D01*
G75*
G02*
X0172244Y0016830I-000335J0000000D01*
G01*
G37*
G36*
G01*
X0172244Y0023051D02*
X0169567Y0023051D01*
G75*
G02*
X0169232Y0023386I0000000J0000335D01*
G01*
X0169232Y0026063D01*
G75*
G02*
X0169567Y0026397I0000335J0000000D01*
G01*
X0172244Y0026397D01*
G75*
G02*
X0172579Y0026063I0000000J-000335D01*
G01*
X0172579Y0023386D01*
G75*
G02*
X0172244Y0023051I-000335J0000000D01*
G01*
G37*
D10*
X0231535Y0043267D03*
D74*
X0077274Y0178799D03*
D81*
X0074321Y0159114D03*
X0074321Y0042972D03*
D74*
X0077274Y0023287D03*
D20*
X0098927Y0148287D03*
X0098927Y0136476D03*
X0098927Y0124665D03*
X0098927Y0112854D03*
X0098927Y0101043D03*
X0098927Y0089232D03*
X0098927Y0077421D03*
X0098927Y0065610D03*
X0098927Y0053799D03*
X0085148Y0142382D03*
X0085148Y0130571D03*
X0085148Y0118760D03*
X0085148Y0106949D03*
X0085148Y0095138D03*
X0085148Y0083327D03*
X0085148Y0071515D03*
X0085148Y0059704D03*
X0069400Y0142382D03*
X0069400Y0130571D03*
X0069400Y0118760D03*
X0069400Y0106949D03*
X0069400Y0095138D03*
X0069400Y0083327D03*
X0069400Y0071515D03*
X0069400Y0059704D03*
X0055620Y0148287D03*
X0055620Y0136476D03*
X0055620Y0124665D03*
X0055620Y0112854D03*
X0055620Y0101043D03*
X0055620Y0089232D03*
X0055620Y0077421D03*
X0055620Y0065610D03*
X0055620Y0053799D03*
D36*
X0301909Y0081949D03*
X0301909Y0056752D03*
X0301909Y0049271D03*
X0301909Y0032342D03*
D25*
X0303681Y0022893D03*
X0303681Y0018956D03*
D36*
X0301909Y0007736D03*
X0240886Y0083720D03*
X0240886Y0076437D03*
X0240886Y0056949D03*
X0240886Y0009508D03*
G36*
G01*
X0244262Y0148991D02*
X0244262Y0151009D01*
G75*
G02*
X0245123Y0151870I0000861J0000000D01*
G01*
X0246846Y0151870D01*
G75*
G02*
X0247707Y0151009I0000000J-000861D01*
G01*
X0247707Y0148991D01*
G75*
G02*
X0246846Y0148130I-000861J0000000D01*
G01*
X0245123Y0148130D01*
G75*
G02*
X0244262Y0148991I0000000J0000861D01*
G01*
G37*
G36*
G01*
X0250463Y0148991D02*
X0250463Y0151009D01*
G75*
G02*
X0251324Y0151870I0000861J0000000D01*
G01*
X0253046Y0151870D01*
G75*
G02*
X0253908Y0151009I0000000J-000861D01*
G01*
X0253908Y0148991D01*
G75*
G02*
X0253046Y0148130I-000861J0000000D01*
G01*
X0251324Y0148130D01*
G75*
G02*
X0250463Y0148991I0000000J0000861D01*
G01*
G37*
D10*
X0294764Y0181063D03*
D49*
X0262638Y0171909D03*
D51*
X0262835Y0212657D03*
X0262835Y0210689D03*
D25*
X0266968Y0184901D03*
X0269035Y0188346D03*
X0271988Y0183720D03*
X0285965Y0184015D03*
G36*
G01*
X0205295Y0075197D02*
X0208366Y0075197D01*
G75*
G02*
X0208642Y0074921I0000000J-000276D01*
G01*
X0208642Y0072716D01*
G75*
G02*
X0208366Y0072441I-000276J0000000D01*
G01*
X0205295Y0072441D01*
G75*
G02*
X0205020Y0072716I0000000J0000276D01*
G01*
X0205020Y0074921D01*
G75*
G02*
X0205295Y0075197I0000276J0000000D01*
G01*
G37*
G36*
G01*
X0205295Y0068897D02*
X0208366Y0068897D01*
G75*
G02*
X0208642Y0068622I0000000J-000276D01*
G01*
X0208642Y0066417D01*
G75*
G02*
X0208366Y0066141I-000276J0000000D01*
G01*
X0205295Y0066141D01*
G75*
G02*
X0205020Y0066417I0000000J0000276D01*
G01*
X0205020Y0068622D01*
G75*
G02*
X0205295Y0068897I0000276J0000000D01*
G01*
G37*
G36*
G01*
X0240059Y0187810D02*
X0240059Y0189827D01*
G75*
G02*
X0240920Y0190689I0000861J0000000D01*
G01*
X0242643Y0190689D01*
G75*
G02*
X0243504Y0189827I0000000J-000861D01*
G01*
X0243504Y0187810D01*
G75*
G02*
X0242643Y0186949I-000861J0000000D01*
G01*
X0240920Y0186949D01*
G75*
G02*
X0240059Y0187810I0000000J0000861D01*
G01*
G37*
G36*
G01*
X0246260Y0187810D02*
X0246260Y0189827D01*
G75*
G02*
X0247121Y0190689I0000861J0000000D01*
G01*
X0248844Y0190689D01*
G75*
G02*
X0249705Y0189827I0000000J-000861D01*
G01*
X0249705Y0187810D01*
G75*
G02*
X0248844Y0186949I-000861J0000000D01*
G01*
X0247121Y0186949D01*
G75*
G02*
X0246260Y0187810I0000000J0000861D01*
G01*
G37*
D52*
X0530748Y0058228D03*
X0530748Y0064134D03*
X0530748Y0070039D03*
X0530748Y0075945D03*
X0530748Y0081850D03*
X0530748Y0087756D03*
X0530748Y0093661D03*
X0530748Y0099567D03*
X0530748Y0105472D03*
X0530748Y0111378D03*
X0530748Y0117283D03*
X0530748Y0123189D03*
X0530748Y0129094D03*
X0480748Y0129094D03*
X0480748Y0123189D03*
X0480748Y0117283D03*
X0480748Y0111378D03*
X0480748Y0105472D03*
X0480748Y0099567D03*
X0480748Y0093661D03*
X0480748Y0087756D03*
X0480748Y0081850D03*
X0480748Y0075945D03*
X0480748Y0070039D03*
X0480748Y0064134D03*
X0480748Y0058228D03*
G36*
G01*
X0391526Y0338523D02*
X0391526Y0333602D01*
G75*
G02*
X0391132Y0333208I-000394J0000000D01*
G01*
X0387982Y0333208D01*
G75*
G02*
X0387589Y0333602I0000000J0000394D01*
G01*
X0387589Y0338523D01*
G75*
G02*
X0387982Y0338917I0000394J0000000D01*
G01*
X0391132Y0338917D01*
G75*
G02*
X0391526Y0338523I0000000J-000394D01*
G01*
G37*
G36*
G01*
X0384045Y0338523D02*
X0384045Y0333602D01*
G75*
G02*
X0383652Y0333208I-000394J0000000D01*
G01*
X0380502Y0333208D01*
G75*
G02*
X0380108Y0333602I0000000J0000394D01*
G01*
X0380108Y0338523D01*
G75*
G02*
X0380502Y0338917I0000394J0000000D01*
G01*
X0383652Y0338917D01*
G75*
G02*
X0384045Y0338523I0000000J-000394D01*
G01*
G37*
D23*
X0230748Y0076535D03*
G36*
G01*
X0227205Y0071240D02*
X0227205Y0073956D01*
G75*
G02*
X0228110Y0074862I0000906J0000000D01*
G01*
X0233386Y0074862D01*
G75*
G02*
X0234291Y0073956I0000000J-000906D01*
G01*
X0234291Y0071240D01*
G75*
G02*
X0233386Y0070334I-000906J0000000D01*
G01*
X0228110Y0070334D01*
G75*
G02*
X0227205Y0071240I0000000J0000906D01*
G01*
G37*
G36*
G01*
X0227205Y0059823D02*
X0227205Y0062539D01*
G75*
G02*
X0228110Y0063445I0000906J0000000D01*
G01*
X0233386Y0063445D01*
G75*
G02*
X0234291Y0062539I0000000J-000906D01*
G01*
X0234291Y0059823D01*
G75*
G02*
X0233386Y0058917I-000906J0000000D01*
G01*
X0228110Y0058917D01*
G75*
G02*
X0227205Y0059823I0000000J0000906D01*
G01*
G37*
X0230748Y0057244D03*
D10*
X0387047Y0009803D03*
D23*
X0312144Y0025451D03*
G36*
G01*
X0309684Y0023660D02*
X0314605Y0023660D01*
G75*
G02*
X0314998Y0023266I0000000J-000394D01*
G01*
X0314998Y0020116D01*
G75*
G02*
X0314605Y0019723I-000394J0000000D01*
G01*
X0309684Y0019723D01*
G75*
G02*
X0309290Y0020116I0000000J0000394D01*
G01*
X0309290Y0023266D01*
G75*
G02*
X0309684Y0023660I0000394J0000000D01*
G01*
G37*
G36*
G01*
X0309684Y0016179D02*
X0314605Y0016179D01*
G75*
G02*
X0314998Y0015786I0000000J-000394D01*
G01*
X0314998Y0012636D01*
G75*
G02*
X0314605Y0012242I-000394J0000000D01*
G01*
X0309684Y0012242D01*
G75*
G02*
X0309290Y0012636I0000000J0000394D01*
G01*
X0309290Y0015786D01*
G75*
G02*
X0309684Y0016179I0000394J0000000D01*
G01*
G37*
X0312144Y0010451D03*
G36*
G01*
X0380069Y0341082D02*
X0380069Y0346004D01*
G75*
G02*
X0380463Y0346397I0000394J0000000D01*
G01*
X0383612Y0346397D01*
G75*
G02*
X0384006Y0346004I0000000J-000394D01*
G01*
X0384006Y0341082D01*
G75*
G02*
X0383612Y0340689I-000394J0000000D01*
G01*
X0380463Y0340689D01*
G75*
G02*
X0380069Y0341082I0000000J0000394D01*
G01*
G37*
G36*
G01*
X0387549Y0341082D02*
X0387549Y0346004D01*
G75*
G02*
X0387943Y0346397I0000394J0000000D01*
G01*
X0391093Y0346397D01*
G75*
G02*
X0391486Y0346004I0000000J-000394D01*
G01*
X0391486Y0341082D01*
G75*
G02*
X0391093Y0340689I-000394J0000000D01*
G01*
X0387943Y0340689D01*
G75*
G02*
X0387549Y0341082I0000000J0000394D01*
G01*
G37*
G36*
G01*
X0399793Y0333720D02*
X0399793Y0338641D01*
G75*
G02*
X0400187Y0339035I0000394J0000000D01*
G01*
X0403337Y0339035D01*
G75*
G02*
X0403730Y0338641I0000000J-000394D01*
G01*
X0403730Y0333720D01*
G75*
G02*
X0403337Y0333327I-000394J0000000D01*
G01*
X0400187Y0333327D01*
G75*
G02*
X0399793Y0333720I0000000J0000394D01*
G01*
G37*
G36*
G01*
X0407274Y0333720D02*
X0407274Y0338641D01*
G75*
G02*
X0407667Y0339035I0000394J0000000D01*
G01*
X0410817Y0339035D01*
G75*
G02*
X0411211Y0338641I0000000J-000394D01*
G01*
X0411211Y0333720D01*
G75*
G02*
X0410817Y0333327I-000394J0000000D01*
G01*
X0407667Y0333327D01*
G75*
G02*
X0407274Y0333720I0000000J0000394D01*
G01*
G37*
G36*
G01*
X0240285Y0195251D02*
X0240285Y0197268D01*
G75*
G02*
X0241147Y0198130I0000861J0000000D01*
G01*
X0242869Y0198130D01*
G75*
G02*
X0243730Y0197268I0000000J-000861D01*
G01*
X0243730Y0195251D01*
G75*
G02*
X0242869Y0194390I-000861J0000000D01*
G01*
X0241147Y0194390D01*
G75*
G02*
X0240285Y0195251I0000000J0000861D01*
G01*
G37*
G36*
G01*
X0246486Y0195251D02*
X0246486Y0197268D01*
G75*
G02*
X0247347Y0198130I0000861J0000000D01*
G01*
X0249070Y0198130D01*
G75*
G02*
X0249931Y0197268I0000000J-000861D01*
G01*
X0249931Y0195251D01*
G75*
G02*
X0249070Y0194390I-000861J0000000D01*
G01*
X0247347Y0194390D01*
G75*
G02*
X0246486Y0195251I0000000J0000861D01*
G01*
G37*
D53*
X0157520Y0078701D03*
X0157520Y0074764D03*
X0157520Y0070827D03*
X0157520Y0066890D03*
X0157520Y0062952D03*
X0157520Y0059015D03*
X0195315Y0059015D03*
X0195315Y0062952D03*
X0195315Y0066890D03*
X0195315Y0070827D03*
X0195315Y0074764D03*
X0195315Y0078701D03*
D54*
X0176417Y0068858D03*
D53*
X0183602Y0041456D03*
X0183602Y0037519D03*
X0183602Y0033582D03*
X0183602Y0029645D03*
X0183602Y0025708D03*
X0183602Y0021771D03*
X0221398Y0021771D03*
X0221398Y0025708D03*
X0221398Y0029645D03*
X0221398Y0033582D03*
X0221398Y0037519D03*
X0221398Y0041456D03*
D54*
X0202500Y0031614D03*
D10*
X0468543Y0094449D03*
D82*
X0326457Y0025964D03*
X0349213Y0025964D03*
D67*
X0324646Y0030157D03*
X0327795Y0030157D03*
X0332913Y0030157D03*
X0336850Y0030157D03*
X0338819Y0030157D03*
X0342756Y0030157D03*
X0347874Y0030157D03*
X0351024Y0030157D03*
X0349843Y0030157D03*
X0346693Y0030157D03*
X0344724Y0030157D03*
X0340787Y0030157D03*
X0334882Y0030157D03*
X0330945Y0030157D03*
X0328976Y0030157D03*
X0325827Y0030157D03*
D68*
X0320827Y0027933D03*
D69*
X0320827Y0011476D03*
D68*
X0354843Y0027933D03*
D69*
X0354843Y0011476D03*
D21*
X0511457Y0013740D03*
X0514224Y0020421D03*
X0514224Y0007059D03*
X0520906Y0023189D03*
D22*
X0520906Y0013740D03*
D21*
X0520906Y0004291D03*
X0527587Y0020421D03*
X0527587Y0007059D03*
X0530354Y0013740D03*
D25*
X0291083Y0246712D03*
X0286358Y0246712D03*
X0295807Y0246712D03*
X0300531Y0246712D03*
X0275098Y0303504D03*
X0271161Y0303504D03*
D23*
X0214016Y0088937D03*
G36*
G01*
X0219311Y0085393D02*
X0216594Y0085393D01*
G75*
G02*
X0215689Y0086299I0000000J0000906D01*
G01*
X0215689Y0091575D01*
G75*
G02*
X0216594Y0092480I0000906J0000000D01*
G01*
X0219311Y0092480D01*
G75*
G02*
X0220216Y0091575I0000000J-000906D01*
G01*
X0220216Y0086299D01*
G75*
G02*
X0219311Y0085393I-000906J0000000D01*
G01*
G37*
G36*
G01*
X0230728Y0085393D02*
X0228012Y0085393D01*
G75*
G02*
X0227106Y0086299I0000000J0000906D01*
G01*
X0227106Y0091575D01*
G75*
G02*
X0228012Y0092480I0000906J0000000D01*
G01*
X0230728Y0092480D01*
G75*
G02*
X0231634Y0091575I0000000J-000906D01*
G01*
X0231634Y0086299D01*
G75*
G02*
X0230728Y0085393I-000906J0000000D01*
G01*
G37*
X0233307Y0088937D03*
D70*
X0527402Y0149173D03*
D71*
X0517402Y0149173D03*
X0507402Y0149173D03*
X0497402Y0149173D03*
X0487402Y0149173D03*
X0477402Y0149173D03*
G36*
G01*
X0232362Y0037559D02*
X0235433Y0037559D01*
G75*
G02*
X0235709Y0037283I0000000J-000276D01*
G01*
X0235709Y0035078D01*
G75*
G02*
X0235433Y0034803I-000276J0000000D01*
G01*
X0232362Y0034803D01*
G75*
G02*
X0232087Y0035078I0000000J0000276D01*
G01*
X0232087Y0037283D01*
G75*
G02*
X0232362Y0037559I0000276J0000000D01*
G01*
G37*
G36*
G01*
X0232362Y0031260D02*
X0235433Y0031260D01*
G75*
G02*
X0235709Y0030984I0000000J-000276D01*
G01*
X0235709Y0028779D01*
G75*
G02*
X0235433Y0028504I-000276J0000000D01*
G01*
X0232362Y0028504D01*
G75*
G02*
X0232087Y0028779I0000000J0000276D01*
G01*
X0232087Y0030984D01*
G75*
G02*
X0232362Y0031260I0000276J0000000D01*
G01*
G37*
D72*
X0425249Y0296929D03*
X0425249Y0206929D03*
D73*
X0417847Y0271388D03*
X0417847Y0232638D03*
X0412847Y0232638D03*
X0407847Y0232638D03*
X0402847Y0232638D03*
D23*
X0375249Y0276929D03*
D73*
X0402847Y0271388D03*
X0407847Y0271388D03*
D23*
X0375249Y0266929D03*
D73*
X0412847Y0271388D03*
D23*
X0375249Y0256929D03*
X0375249Y0246929D03*
X0375249Y0236929D03*
X0375249Y0226929D03*
D10*
X0172795Y0045236D03*
G36*
G01*
X0148622Y0051082D02*
X0145945Y0051082D01*
G75*
G02*
X0145610Y0051417I0000000J0000335D01*
G01*
X0145610Y0054094D01*
G75*
G02*
X0145945Y0054429I0000335J0000000D01*
G01*
X0148622Y0054429D01*
G75*
G02*
X0148957Y0054094I0000000J-000335D01*
G01*
X0148957Y0051417D01*
G75*
G02*
X0148622Y0051082I-000335J0000000D01*
G01*
G37*
G36*
G01*
X0148622Y0057303D02*
X0145945Y0057303D01*
G75*
G02*
X0145610Y0057638I0000000J0000335D01*
G01*
X0145610Y0060315D01*
G75*
G02*
X0145945Y0060649I0000335J0000000D01*
G01*
X0148622Y0060649D01*
G75*
G02*
X0148957Y0060315I0000000J-000335D01*
G01*
X0148957Y0057638D01*
G75*
G02*
X0148622Y0057303I-000335J0000000D01*
G01*
G37*
D36*
X0503189Y0085000D03*
X0503189Y0114527D03*
X0237933Y0004862D02*
G01*
G75*
D115*
X0283012Y0029229D02*
D03*
X0283012Y0011512D02*
D03*
D116*
X0279685Y0053681D02*
D03*
X0252323Y0053681D02*
D03*
D117*
X0268445Y0030453D02*
D03*
X0252303Y0030453D02*
D03*
D118*
X0270216Y0012342D02*
D03*
X0254468Y0012342D02*
D03*
D119*
X0247277Y0074120D02*
D03*
X0256529Y0070380D02*
D03*
D119*
X0256529Y0077860D02*
D03*
D120*
X0279364Y0083799D02*
D03*
D120*
X0279364Y0080059D02*
D03*
X0279364Y0076319D02*
D03*
X0287828Y0076319D02*
D03*
X0287828Y0083799D02*
D03*
D121*
X0291680Y0069798D02*
D03*
X0278688Y0069798D02*
D03*
D122*
X0273394Y0070086D02*
D03*
X0261976Y0070086D02*
D03*
D123*
X0292579Y0037539D02*
D03*
X0286358Y0037539D02*
D03*
X0281988Y0037539D02*
D03*
X0275768Y0037539D02*
D03*
D124*
X0241902Y0014650D02*
D03*
X0241902Y0018784D02*
D03*
X0292457Y0056524D02*
D03*
X0292457Y0060658D02*
D03*
X0292457Y0051811D02*
D03*
X0292457Y0047677D02*
D03*
X0293349Y0032162D02*
D03*
X0293349Y0028028D02*
D03*
D125*
X0274246Y0076369D02*
D03*
X0274246Y0080306D02*
D03*
X0260571Y0077271D02*
D03*
X0269232Y0077271D02*
D03*
X0260571Y0083668D02*
D03*
X0269232Y0083668D02*
D03*
D126*
X0252198Y0083799D02*
D03*
X0255742Y0083799D02*
D03*
D127*
X0288199Y0060461D02*
D03*
X0288199Y0056917D02*
D03*
X0288199Y0051417D02*
D03*
X0288199Y0047874D02*
D03*
X0293349Y0019861D02*
D03*
X0293349Y0023405D02*
D03*
D128*
X0303681Y0022972D02*
D03*
X0303681Y0019035D02*
D03*
D129*
X0240886Y0076515D02*
D03*
X0240886Y0009586D02*
D03*
X0240886Y0057027D02*
D03*
X0301909Y0056830D02*
D03*
X0301909Y0082027D02*
D03*
X0301909Y0032421D02*
D03*
X0301909Y0049350D02*
D03*
X0301909Y0007815D02*
D03*
X0240886Y0083799D02*
D03*
X0444035Y0323366D02*
G01*
G75*
D298*
X0454259Y0308661D02*
D03*
X0446779Y0308661D02*
D03*
X0446779Y0317126D02*
D03*
X0450519Y0317126D02*
D03*
X0454259Y0293012D02*
D03*
X0446779Y0293012D02*
D03*
X0446779Y0301476D02*
D03*
X0450519Y0301476D02*
D03*
D298*
X0454259Y0317126D02*
D03*
X0454259Y0301476D02*
D03*
D128*
X0454271Y0287933D02*
D03*
X0450531Y0287933D02*
D03*
X0446791Y0287933D02*
D03*
X0450728Y0322185D02*
D03*
X0454271Y0322185D02*
D03*
X0307421Y0305059D02*
%LPD*%
G01*
D25*
X0334586Y0246791D03*
X0329862Y0246791D03*
X0339311Y0246791D03*
X0344035Y0246791D03*
X0318602Y0303583D03*
X0314665Y0303583D03*
G36*
G01*
X0325039Y0287618D02*
X0326496Y0287618D01*
G75*
G02*
X0327027Y0287087I0000000J-000531D01*
G01*
X0327027Y0286024D01*
G75*
G02*
X0326496Y0285492I-000531J0000000D01*
G01*
X0325039Y0285492D01*
G75*
G02*
X0324508Y0286024I0000000J0000531D01*
G01*
X0324508Y0287087D01*
G75*
G02*
X0325039Y0287618I0000531J0000000D01*
G01*
G37*
G36*
G01*
X0325039Y0291634D02*
X0326496Y0291634D01*
G75*
G02*
X0327027Y0291102I0000000J-000531D01*
G01*
X0327027Y0290039D01*
G75*
G02*
X0326496Y0289508I-000531J0000000D01*
G01*
X0325039Y0289508D01*
G75*
G02*
X0324508Y0290039I0000000J0000531D01*
G01*
X0324508Y0291102D01*
G75*
G02*
X0325039Y0291634I0000531J0000000D01*
G01*
G37*
G36*
G01*
X0309350Y0264370D02*
X0309350Y0265827D01*
G75*
G02*
X0309882Y0266358I0000531J0000000D01*
G01*
X0310945Y0266358D01*
G75*
G02*
X0311476Y0265827I0000000J-000531D01*
G01*
X0311476Y0264370D01*
G75*
G02*
X0310945Y0263839I-000531J0000000D01*
G01*
X0309882Y0263839D01*
G75*
G02*
X0309350Y0264370I0000000J0000531D01*
G01*
G37*
G36*
G01*
X0313366Y0264370D02*
X0313366Y0265827D01*
G75*
G02*
X0313897Y0266358I0000531J0000000D01*
G01*
X0314960Y0266358D01*
G75*
G02*
X0315492Y0265827I0000000J-000531D01*
G01*
X0315492Y0264370D01*
G75*
G02*
X0314960Y0263839I-000531J0000000D01*
G01*
X0313897Y0263839D01*
G75*
G02*
X0313366Y0264370I0000000J0000531D01*
G01*
G37*
G36*
G01*
X0341693Y0275342D02*
X0342874Y0275342D01*
G75*
G02*
X0343464Y0274752I0000000J-000591D01*
G01*
X0343464Y0268256D01*
G75*
G02*
X0342874Y0267665I-000591J0000000D01*
G01*
X0341693Y0267665D01*
G75*
G02*
X0341102Y0268256I0000000J0000591D01*
G01*
X0341102Y0274752D01*
G75*
G02*
X0341693Y0275342I0000591J0000000D01*
G01*
G37*
G36*
G01*
X0336693Y0275342D02*
X0337874Y0275342D01*
G75*
G02*
X0338464Y0274752I0000000J-000591D01*
G01*
X0338464Y0268256D01*
G75*
G02*
X0337874Y0267665I-000591J0000000D01*
G01*
X0336693Y0267665D01*
G75*
G02*
X0336102Y0268256I0000000J0000591D01*
G01*
X0336102Y0274752D01*
G75*
G02*
X0336693Y0275342I0000591J0000000D01*
G01*
G37*
G36*
G01*
X0331693Y0275342D02*
X0332874Y0275342D01*
G75*
G02*
X0333464Y0274752I0000000J-000591D01*
G01*
X0333464Y0268256D01*
G75*
G02*
X0332874Y0267665I-000591J0000000D01*
G01*
X0331693Y0267665D01*
G75*
G02*
X0331102Y0268256I0000000J0000591D01*
G01*
X0331102Y0274752D01*
G75*
G02*
X0331693Y0275342I0000591J0000000D01*
G01*
G37*
G36*
G01*
X0326693Y0275342D02*
X0327874Y0275342D01*
G75*
G02*
X0328464Y0274752I0000000J-000591D01*
G01*
X0328464Y0268256D01*
G75*
G02*
X0327874Y0267665I-000591J0000000D01*
G01*
X0326693Y0267665D01*
G75*
G02*
X0326102Y0268256I0000000J0000591D01*
G01*
X0326102Y0274752D01*
G75*
G02*
X0326693Y0275342I0000591J0000000D01*
G01*
G37*
G36*
G01*
X0326693Y0255854D02*
X0327874Y0255854D01*
G75*
G02*
X0328464Y0255264I0000000J-000591D01*
G01*
X0328464Y0248768D01*
G75*
G02*
X0327874Y0248177I-000591J0000000D01*
G01*
X0326693Y0248177D01*
G75*
G02*
X0326102Y0248768I0000000J0000591D01*
G01*
X0326102Y0255264D01*
G75*
G02*
X0326693Y0255854I0000591J0000000D01*
G01*
G37*
G36*
G01*
X0331693Y0255854D02*
X0332874Y0255854D01*
G75*
G02*
X0333464Y0255264I0000000J-000591D01*
G01*
X0333464Y0248768D01*
G75*
G02*
X0332874Y0248177I-000591J0000000D01*
G01*
X0331693Y0248177D01*
G75*
G02*
X0331102Y0248768I0000000J0000591D01*
G01*
X0331102Y0255264D01*
G75*
G02*
X0331693Y0255854I0000591J0000000D01*
G01*
G37*
G36*
G01*
X0336693Y0255854D02*
X0337874Y0255854D01*
G75*
G02*
X0338464Y0255264I0000000J-000591D01*
G01*
X0338464Y0248768D01*
G75*
G02*
X0337874Y0248177I-000591J0000000D01*
G01*
X0336693Y0248177D01*
G75*
G02*
X0336102Y0248768I0000000J0000591D01*
G01*
X0336102Y0255264D01*
G75*
G02*
X0336693Y0255854I0000591J0000000D01*
G01*
G37*
G36*
G01*
X0341693Y0255854D02*
X0342874Y0255854D01*
G75*
G02*
X0343464Y0255264I0000000J-000591D01*
G01*
X0343464Y0248768D01*
G75*
G02*
X0342874Y0248177I-000591J0000000D01*
G01*
X0341693Y0248177D01*
G75*
G02*
X0341102Y0248768I0000000J0000591D01*
G01*
X0341102Y0255264D01*
G75*
G02*
X0341693Y0255854I0000591J0000000D01*
G01*
G37*
D154*
X0342421Y0289862D03*
X0339862Y0289862D03*
X0337303Y0289862D03*
X0337303Y0282382D03*
X0339862Y0282382D03*
X0342421Y0282382D03*
G36*
G01*
X0323333Y0273701D02*
X0323333Y0272244D01*
G75*
G02*
X0322801Y0271713I-000531J0000000D01*
G01*
X0321738Y0271713D01*
G75*
G02*
X0321207Y0272244I0000000J0000531D01*
G01*
X0321207Y0273701D01*
G75*
G02*
X0321738Y0274232I0000531J0000000D01*
G01*
X0322801Y0274232D01*
G75*
G02*
X0323333Y0273701I0000000J-000531D01*
G01*
G37*
G36*
G01*
X0319317Y0273701D02*
X0319317Y0272244D01*
G75*
G02*
X0318786Y0271713I-000531J0000000D01*
G01*
X0317723Y0271713D01*
G75*
G02*
X0317191Y0272244I0000000J0000531D01*
G01*
X0317191Y0273701D01*
G75*
G02*
X0317723Y0274232I0000531J0000000D01*
G01*
X0318786Y0274232D01*
G75*
G02*
X0319317Y0273701I0000000J-000531D01*
G01*
G37*
G36*
G01*
X0317270Y0268366D02*
X0317270Y0269705D01*
G75*
G02*
X0317821Y0270256I0000551J0000000D01*
G01*
X0318923Y0270256D01*
G75*
G02*
X0319475Y0269705I0000000J-000551D01*
G01*
X0319475Y0268366D01*
G75*
G02*
X0318923Y0267815I-000551J0000000D01*
G01*
X0317821Y0267815D01*
G75*
G02*
X0317270Y0268366I0000000J0000551D01*
G01*
G37*
G36*
G01*
X0321049Y0268366D02*
X0321049Y0269705D01*
G75*
G02*
X0321601Y0270256I0000551J0000000D01*
G01*
X0322703Y0270256D01*
G75*
G02*
X0323254Y0269705I0000000J-000551D01*
G01*
X0323254Y0268366D01*
G75*
G02*
X0322703Y0267815I-000551J0000000D01*
G01*
X0321601Y0267815D01*
G75*
G02*
X0321049Y0268366I0000000J0000551D01*
G01*
G37*
G36*
G01*
X0309350Y0272244D02*
X0309350Y0273701D01*
G75*
G02*
X0309882Y0274232I0000531J0000000D01*
G01*
X0310945Y0274232D01*
G75*
G02*
X0311476Y0273701I0000000J-000531D01*
G01*
X0311476Y0272244D01*
G75*
G02*
X0310945Y0271713I-000531J0000000D01*
G01*
X0309882Y0271713D01*
G75*
G02*
X0309350Y0272244I0000000J0000531D01*
G01*
G37*
G36*
G01*
X0313366Y0272244D02*
X0313366Y0273701D01*
G75*
G02*
X0313897Y0274232I0000531J0000000D01*
G01*
X0314960Y0274232D01*
G75*
G02*
X0315492Y0273701I0000000J-000531D01*
G01*
X0315492Y0272244D01*
G75*
G02*
X0314960Y0271713I-000531J0000000D01*
G01*
X0313897Y0271713D01*
G75*
G02*
X0313366Y0272244I0000000J0000531D01*
G01*
G37*
G36*
G01*
X0315413Y0260650D02*
X0315413Y0259311D01*
G75*
G02*
X0314862Y0258760I-000551J0000000D01*
G01*
X0313760Y0258760D01*
G75*
G02*
X0313208Y0259311I0000000J0000551D01*
G01*
X0313208Y0260650D01*
G75*
G02*
X0313760Y0261201I0000551J0000000D01*
G01*
X0314862Y0261201D01*
G75*
G02*
X0315413Y0260650I0000000J-000551D01*
G01*
G37*
G36*
G01*
X0311634Y0260650D02*
X0311634Y0259311D01*
G75*
G02*
X0311082Y0258760I-000551J0000000D01*
G01*
X0309980Y0258760D01*
G75*
G02*
X0309429Y0259311I0000000J0000551D01*
G01*
X0309429Y0260650D01*
G75*
G02*
X0309980Y0261201I0000551J0000000D01*
G01*
X0311082Y0261201D01*
G75*
G02*
X0311634Y0260650I0000000J-000551D01*
G01*
G37*
G36*
G01*
X0319271Y0283779D02*
X0319271Y0282441D01*
G75*
G02*
X0318720Y0281890I-000551J0000000D01*
G01*
X0317618Y0281890D01*
G75*
G02*
X0317067Y0282441I0000000J0000551D01*
G01*
X0317067Y0283779D01*
G75*
G02*
X0317618Y0284331I0000551J0000000D01*
G01*
X0318720Y0284331D01*
G75*
G02*
X0319271Y0283779I0000000J-000551D01*
G01*
G37*
G36*
G01*
X0315492Y0283779D02*
X0315492Y0282441D01*
G75*
G02*
X0314941Y0281890I-000551J0000000D01*
G01*
X0313838Y0281890D01*
G75*
G02*
X0313287Y0282441I0000000J0000551D01*
G01*
X0313287Y0283779D01*
G75*
G02*
X0313838Y0284331I0000551J0000000D01*
G01*
X0314941Y0284331D01*
G75*
G02*
X0315492Y0283779I0000000J-000551D01*
G01*
G37*
G36*
G01*
X0322519Y0278012D02*
X0321063Y0278012D01*
G75*
G02*
X0320531Y0278543I0000000J0000531D01*
G01*
X0320531Y0279606D01*
G75*
G02*
X0321063Y0280138I0000531J0000000D01*
G01*
X0322519Y0280138D01*
G75*
G02*
X0323051Y0279606I0000000J-000531D01*
G01*
X0323051Y0278543D01*
G75*
G02*
X0322519Y0278012I-000531J0000000D01*
G01*
G37*
G36*
G01*
X0322519Y0282028D02*
X0321063Y0282028D01*
G75*
G02*
X0320531Y0282559I0000000J0000531D01*
G01*
X0320531Y0283622D01*
G75*
G02*
X0321063Y0284153I0000531J0000000D01*
G01*
X0322519Y0284153D01*
G75*
G02*
X0323051Y0283622I0000000J-000531D01*
G01*
X0323051Y0282559D01*
G75*
G02*
X0322519Y0282028I-000531J0000000D01*
G01*
G37*
G36*
G01*
X0323248Y0247185D02*
X0321909Y0247185D01*
G75*
G02*
X0321358Y0247736I0000000J0000551D01*
G01*
X0321358Y0248839D01*
G75*
G02*
X0321909Y0249390I0000551J0000000D01*
G01*
X0323248Y0249390D01*
G75*
G02*
X0323799Y0248839I0000000J-000551D01*
G01*
X0323799Y0247736D01*
G75*
G02*
X0323248Y0247185I-000551J0000000D01*
G01*
G37*
G36*
G01*
X0323248Y0250965D02*
X0321909Y0250965D01*
G75*
G02*
X0321358Y0251516I0000000J0000551D01*
G01*
X0321358Y0252618D01*
G75*
G02*
X0321909Y0253169I0000551J0000000D01*
G01*
X0323248Y0253169D01*
G75*
G02*
X0323799Y0252618I0000000J-000551D01*
G01*
X0323799Y0251516D01*
G75*
G02*
X0323248Y0250965I-000551J0000000D01*
G01*
G37*
G36*
G01*
X0329011Y0296240D02*
X0331028Y0296240D01*
G75*
G02*
X0331890Y0295379I0000000J-000861D01*
G01*
X0331890Y0293656D01*
G75*
G02*
X0331028Y0292795I-000861J0000000D01*
G01*
X0329011Y0292795D01*
G75*
G02*
X0328149Y0293656I0000000J0000861D01*
G01*
X0328149Y0295379D01*
G75*
G02*
X0329011Y0296240I0000861J0000000D01*
G01*
G37*
G36*
G01*
X0329011Y0302441D02*
X0331028Y0302441D01*
G75*
G02*
X0331890Y0301580I0000000J-000861D01*
G01*
X0331890Y0299857D01*
G75*
G02*
X0331028Y0298996I-000861J0000000D01*
G01*
X0329011Y0298996D01*
G75*
G02*
X0328149Y0299857I0000000J0000861D01*
G01*
X0328149Y0301580D01*
G75*
G02*
X0329011Y0302441I0000861J0000000D01*
G01*
G37*
G36*
G01*
X0334232Y0277461D02*
X0334232Y0278799D01*
G75*
G02*
X0334783Y0279350I0000551J0000000D01*
G01*
X0335886Y0279350D01*
G75*
G02*
X0336437Y0278799I0000000J-000551D01*
G01*
X0336437Y0277461D01*
G75*
G02*
X0335886Y0276909I-000551J0000000D01*
G01*
X0334783Y0276909D01*
G75*
G02*
X0334232Y0277461I0000000J0000551D01*
G01*
G37*
G36*
G01*
X0338012Y0277461D02*
X0338012Y0278799D01*
G75*
G02*
X0338563Y0279350I0000551J0000000D01*
G01*
X0339665Y0279350D01*
G75*
G02*
X0340216Y0278799I0000000J-000551D01*
G01*
X0340216Y0277461D01*
G75*
G02*
X0339665Y0276909I-000551J0000000D01*
G01*
X0338563Y0276909D01*
G75*
G02*
X0338012Y0277461I0000000J0000551D01*
G01*
G37*
G36*
G01*
X0337086Y0295098D02*
X0335630Y0295098D01*
G75*
G02*
X0335098Y0295630I0000000J0000531D01*
G01*
X0335098Y0296693D01*
G75*
G02*
X0335630Y0297224I0000531J0000000D01*
G01*
X0337086Y0297224D01*
G75*
G02*
X0337618Y0296693I0000000J-000531D01*
G01*
X0337618Y0295630D01*
G75*
G02*
X0337086Y0295098I-000531J0000000D01*
G01*
G37*
G36*
G01*
X0337086Y0299114D02*
X0335630Y0299114D01*
G75*
G02*
X0335098Y0299646I0000000J0000531D01*
G01*
X0335098Y0300709D01*
G75*
G02*
X0335630Y0301240I0000531J0000000D01*
G01*
X0337086Y0301240D01*
G75*
G02*
X0337618Y0300709I0000000J-000531D01*
G01*
X0337618Y0299646D01*
G75*
G02*
X0337086Y0299114I-000531J0000000D01*
G01*
G37*
G36*
G01*
X0325000Y0284153D02*
X0326456Y0284153D01*
G75*
G02*
X0326988Y0283622I0000000J-000531D01*
G01*
X0326988Y0282559D01*
G75*
G02*
X0326456Y0282028I-000531J0000000D01*
G01*
X0325000Y0282028D01*
G75*
G02*
X0324468Y0282559I0000000J0000531D01*
G01*
X0324468Y0283622D01*
G75*
G02*
X0325000Y0284153I0000531J0000000D01*
G01*
G37*
G36*
G01*
X0325000Y0280138D02*
X0326456Y0280138D01*
G75*
G02*
X0326988Y0279606I0000000J-000531D01*
G01*
X0326988Y0278543D01*
G75*
G02*
X0326456Y0278012I-000531J0000000D01*
G01*
X0325000Y0278012D01*
G75*
G02*
X0324468Y0278543I0000000J0000531D01*
G01*
X0324468Y0279606D01*
G75*
G02*
X0325000Y0280138I0000531J0000000D01*
G01*
G37*
G36*
G01*
X0319209Y0279016D02*
X0319209Y0277559D01*
G75*
G02*
X0318678Y0277028I-000531J0000000D01*
G01*
X0317615Y0277028D01*
G75*
G02*
X0317083Y0277559I0000000J0000531D01*
G01*
X0317083Y0279016D01*
G75*
G02*
X0317615Y0279547I0000531J0000000D01*
G01*
X0318678Y0279547D01*
G75*
G02*
X0319209Y0279016I0000000J-000531D01*
G01*
G37*
G36*
G01*
X0315193Y0279016D02*
X0315193Y0277559D01*
G75*
G02*
X0314662Y0277028I-000531J0000000D01*
G01*
X0313599Y0277028D01*
G75*
G02*
X0313068Y0277559I0000000J0000531D01*
G01*
X0313068Y0279016D01*
G75*
G02*
X0313599Y0279547I0000531J0000000D01*
G01*
X0314662Y0279547D01*
G75*
G02*
X0315193Y0279016I0000000J-000531D01*
G01*
G37*
G36*
G01*
X0325807Y0296358D02*
X0324468Y0296358D01*
G75*
G02*
X0323917Y0296909I0000000J0000551D01*
G01*
X0323917Y0298012D01*
G75*
G02*
X0324468Y0298563I0000551J0000000D01*
G01*
X0325807Y0298563D01*
G75*
G02*
X0326358Y0298012I0000000J-000551D01*
G01*
X0326358Y0296909D01*
G75*
G02*
X0325807Y0296358I-000551J0000000D01*
G01*
G37*
G36*
G01*
X0325807Y0300138D02*
X0324468Y0300138D01*
G75*
G02*
X0323917Y0300689I0000000J0000551D01*
G01*
X0323917Y0301791D01*
G75*
G02*
X0324468Y0302342I0000551J0000000D01*
G01*
X0325807Y0302342D01*
G75*
G02*
X0326358Y0301791I0000000J-000551D01*
G01*
X0326358Y0300689D01*
G75*
G02*
X0325807Y0300138I-000551J0000000D01*
G01*
G37*
G36*
G01*
X0317270Y0259311D02*
X0317270Y0260650D01*
G75*
G02*
X0317821Y0261201I0000551J0000000D01*
G01*
X0318923Y0261201D01*
G75*
G02*
X0319475Y0260650I0000000J-000551D01*
G01*
X0319475Y0259311D01*
G75*
G02*
X0318923Y0258760I-000551J0000000D01*
G01*
X0317821Y0258760D01*
G75*
G02*
X0317270Y0259311I0000000J0000551D01*
G01*
G37*
G36*
G01*
X0321049Y0259311D02*
X0321049Y0260650D01*
G75*
G02*
X0321601Y0261201I0000551J0000000D01*
G01*
X0322703Y0261201D01*
G75*
G02*
X0323254Y0260650I0000000J-000551D01*
G01*
X0323254Y0259311D01*
G75*
G02*
X0322703Y0258760I-000551J0000000D01*
G01*
X0321601Y0258760D01*
G75*
G02*
X0321049Y0259311I0000000J0000551D01*
G01*
G37*
G36*
G01*
X0309744Y0284331D02*
X0311201Y0284331D01*
G75*
G02*
X0311732Y0283799I0000000J-000531D01*
G01*
X0311732Y0282736D01*
G75*
G02*
X0311201Y0282205I-000531J0000000D01*
G01*
X0309744Y0282205D01*
G75*
G02*
X0309212Y0282736I0000000J0000531D01*
G01*
X0309212Y0283799D01*
G75*
G02*
X0309744Y0284331I0000531J0000000D01*
G01*
G37*
G36*
G01*
X0309744Y0280315D02*
X0311201Y0280315D01*
G75*
G02*
X0311732Y0279783I0000000J-000531D01*
G01*
X0311732Y0278720D01*
G75*
G02*
X0311201Y0278189I-000531J0000000D01*
G01*
X0309744Y0278189D01*
G75*
G02*
X0309212Y0278720I0000000J0000531D01*
G01*
X0309212Y0279783D01*
G75*
G02*
X0309744Y0280315I0000531J0000000D01*
G01*
G37*
D153*
X0310964Y0255072D03*
X0310964Y0252513D03*
X0310964Y0249954D03*
X0318445Y0249954D03*
X0318445Y0252513D03*
X0318445Y0255072D03*
G36*
G01*
X0319750Y0301021D02*
X0320931Y0301021D01*
G75*
G02*
X0321522Y0300430I0000000J-000591D01*
G01*
X0321522Y0296395D01*
G75*
G02*
X0320931Y0295804I-000591J0000000D01*
G01*
X0319750Y0295804D01*
G75*
G02*
X0319160Y0296395I0000000J0000591D01*
G01*
X0319160Y0300430D01*
G75*
G02*
X0319750Y0301021I0000591J0000000D01*
G01*
G37*
G36*
G01*
X0316010Y0301021D02*
X0317191Y0301021D01*
G75*
G02*
X0317782Y0300430I0000000J-000591D01*
G01*
X0317782Y0296395D01*
G75*
G02*
X0317191Y0295804I-000591J0000000D01*
G01*
X0316010Y0295804D01*
G75*
G02*
X0315419Y0296395I0000000J0000591D01*
G01*
X0315419Y0300430D01*
G75*
G02*
X0316010Y0301021I0000591J0000000D01*
G01*
G37*
G36*
G01*
X0312270Y0301021D02*
X0313451Y0301021D01*
G75*
G02*
X0314041Y0300430I0000000J-000591D01*
G01*
X0314041Y0296395D01*
G75*
G02*
X0313451Y0295804I-000591J0000000D01*
G01*
X0312270Y0295804D01*
G75*
G02*
X0311679Y0296395I0000000J0000591D01*
G01*
X0311679Y0300430D01*
G75*
G02*
X0312270Y0301021I0000591J0000000D01*
G01*
G37*
G36*
G01*
X0312270Y0292064D02*
X0313451Y0292064D01*
G75*
G02*
X0314041Y0291474I0000000J-000591D01*
G01*
X0314041Y0287438D01*
G75*
G02*
X0313451Y0286848I-000591J0000000D01*
G01*
X0312270Y0286848D01*
G75*
G02*
X0311679Y0287438I0000000J0000591D01*
G01*
X0311679Y0291474D01*
G75*
G02*
X0312270Y0292064I0000591J0000000D01*
G01*
G37*
G36*
G01*
X0316010Y0292064D02*
X0317191Y0292064D01*
G75*
G02*
X0317782Y0291474I0000000J-000591D01*
G01*
X0317782Y0287438D01*
G75*
G02*
X0317191Y0286848I-000591J0000000D01*
G01*
X0316010Y0286848D01*
G75*
G02*
X0315419Y0287438I0000000J0000591D01*
G01*
X0315419Y0291474D01*
G75*
G02*
X0316010Y0292064I0000591J0000000D01*
G01*
G37*
G36*
G01*
X0319750Y0292064D02*
X0320931Y0292064D01*
G75*
G02*
X0321522Y0291474I0000000J-000591D01*
G01*
X0321522Y0287438D01*
G75*
G02*
X0320931Y0286848I-000591J0000000D01*
G01*
X0319750Y0286848D01*
G75*
G02*
X0319160Y0287438I0000000J0000591D01*
G01*
X0319160Y0291474D01*
G75*
G02*
X0319750Y0292064I0000591J0000000D01*
G01*
G37*
G36*
G01*
X0331634Y0289902D02*
X0332972Y0289902D01*
G75*
G02*
X0333523Y0289350I0000000J-000551D01*
G01*
X0333523Y0288248D01*
G75*
G02*
X0332972Y0287697I-000551J0000000D01*
G01*
X0331634Y0287697D01*
G75*
G02*
X0331082Y0288248I0000000J0000551D01*
G01*
X0331082Y0289350D01*
G75*
G02*
X0331634Y0289902I0000551J0000000D01*
G01*
G37*
G36*
G01*
X0331634Y0286122D02*
X0332972Y0286122D01*
G75*
G02*
X0333523Y0285571I0000000J-000551D01*
G01*
X0333523Y0284468D01*
G75*
G02*
X0332972Y0283917I-000551J0000000D01*
G01*
X0331634Y0283917D01*
G75*
G02*
X0331082Y0284468I0000000J0000551D01*
G01*
X0331082Y0285571D01*
G75*
G02*
X0331634Y0286122I0000551J0000000D01*
G01*
G37*
G36*
G01*
X0309429Y0268366D02*
X0309429Y0269705D01*
G75*
G02*
X0309980Y0270256I0000551J0000000D01*
G01*
X0311082Y0270256D01*
G75*
G02*
X0311634Y0269705I0000000J-000551D01*
G01*
X0311634Y0268366D01*
G75*
G02*
X0311082Y0267815I-000551J0000000D01*
G01*
X0309980Y0267815D01*
G75*
G02*
X0309429Y0268366I0000000J0000551D01*
G01*
G37*
G36*
G01*
X0313208Y0268366D02*
X0313208Y0269705D01*
G75*
G02*
X0313760Y0270256I0000551J0000000D01*
G01*
X0314862Y0270256D01*
G75*
G02*
X0315413Y0269705I0000000J-000551D01*
G01*
X0315413Y0268366D01*
G75*
G02*
X0314862Y0267815I-000551J0000000D01*
G01*
X0313760Y0267815D01*
G75*
G02*
X0313208Y0268366I0000000J0000551D01*
G01*
G37*
G36*
G01*
X0317191Y0264370D02*
X0317191Y0265827D01*
G75*
G02*
X0317723Y0266358I0000531J0000000D01*
G01*
X0318786Y0266358D01*
G75*
G02*
X0319317Y0265827I0000000J-000531D01*
G01*
X0319317Y0264370D01*
G75*
G02*
X0318786Y0263839I-000531J0000000D01*
G01*
X0317723Y0263839D01*
G75*
G02*
X0317191Y0264370I0000000J0000531D01*
G01*
G37*
G36*
G01*
X0321207Y0264370D02*
X0321207Y0265827D01*
G75*
G02*
X0321738Y0266358I0000531J0000000D01*
G01*
X0322801Y0266358D01*
G75*
G02*
X0323333Y0265827I0000000J-000531D01*
G01*
X0323333Y0264370D01*
G75*
G02*
X0322801Y0263839I-000531J0000000D01*
G01*
X0321738Y0263839D01*
G75*
G02*
X0321207Y0264370I0000000J0000531D01*
G01*
G37*
X0263917Y0305059D02*
%LPD*%
G01*
D25*
X0291082Y0246791D03*
X0286358Y0246791D03*
X0295807Y0246791D03*
X0300531Y0246791D03*
X0275098Y0303583D03*
X0271161Y0303583D03*
D307*
X0276909Y0271201D03*
X0274941Y0271201D03*
X0272972Y0271201D03*
X0271004Y0271201D03*
X0269035Y0271201D03*
X0269035Y0253878D03*
X0271004Y0253878D03*
X0272972Y0253878D03*
X0274941Y0253878D03*
X0276909Y0253878D03*
G36*
G01*
X0290098Y0263681D02*
X0290098Y0260610D01*
G75*
G02*
X0289823Y0260335I-000276J0000000D01*
G01*
X0287618Y0260335D01*
G75*
G02*
X0287342Y0260610I0000000J0000276D01*
G01*
X0287342Y0263681D01*
G75*
G02*
X0287618Y0263957I0000276J0000000D01*
G01*
X0289823Y0263957D01*
G75*
G02*
X0290098Y0263681I0000000J-000276D01*
G01*
G37*
G36*
G01*
X0283799Y0263681D02*
X0283799Y0260610D01*
G75*
G02*
X0283523Y0260335I-000276J0000000D01*
G01*
X0281319Y0260335D01*
G75*
G02*
X0281043Y0260610I0000000J0000276D01*
G01*
X0281043Y0263681D01*
G75*
G02*
X0281319Y0263957I0000276J0000000D01*
G01*
X0283523Y0263957D01*
G75*
G02*
X0283799Y0263681I0000000J-000276D01*
G01*
G37*
G36*
G01*
X0296752Y0249350D02*
X0293681Y0249350D01*
G75*
G02*
X0293405Y0249626I0000000J0000276D01*
G01*
X0293405Y0251831D01*
G75*
G02*
X0293681Y0252106I0000276J0000000D01*
G01*
X0296752Y0252106D01*
G75*
G02*
X0297027Y0251831I0000000J-000276D01*
G01*
X0297027Y0249626D01*
G75*
G02*
X0296752Y0249350I-000276J0000000D01*
G01*
G37*
G36*
G01*
X0296752Y0255650D02*
X0293681Y0255650D01*
G75*
G02*
X0293405Y0255925I0000000J0000276D01*
G01*
X0293405Y0258130D01*
G75*
G02*
X0293681Y0258405I0000276J0000000D01*
G01*
X0296752Y0258405D01*
G75*
G02*
X0297027Y0258130I0000000J-000276D01*
G01*
X0297027Y0255925D01*
G75*
G02*
X0296752Y0255650I-000276J0000000D01*
G01*
G37*
G36*
G01*
X0290098Y0269587D02*
X0290098Y0266516D01*
G75*
G02*
X0289823Y0266240I-000276J0000000D01*
G01*
X0287618Y0266240D01*
G75*
G02*
X0287342Y0266516I0000000J0000276D01*
G01*
X0287342Y0269587D01*
G75*
G02*
X0287618Y0269862I0000276J0000000D01*
G01*
X0289823Y0269862D01*
G75*
G02*
X0290098Y0269587I0000000J-000276D01*
G01*
G37*
G36*
G01*
X0283799Y0269587D02*
X0283799Y0266516D01*
G75*
G02*
X0283523Y0266240I-000276J0000000D01*
G01*
X0281319Y0266240D01*
G75*
G02*
X0281043Y0266516I0000000J0000276D01*
G01*
X0281043Y0269587D01*
G75*
G02*
X0281319Y0269862I0000276J0000000D01*
G01*
X0283523Y0269862D01*
G75*
G02*
X0283799Y0269587I0000000J-000276D01*
G01*
G37*
G36*
G01*
X0293838Y0280236D02*
X0293838Y0277520D01*
G75*
G02*
X0292933Y0276614I-000906J0000000D01*
G01*
X0287657Y0276614D01*
G75*
G02*
X0286752Y0277520I0000000J0000906D01*
G01*
X0286752Y0280236D01*
G75*
G02*
X0287657Y0281142I0000906J0000000D01*
G01*
X0292933Y0281142D01*
G75*
G02*
X0293838Y0280236I0000000J-000906D01*
G01*
G37*
G36*
G01*
X0293838Y0291654D02*
X0293838Y0288937D01*
G75*
G02*
X0292933Y0288031I-000906J0000000D01*
G01*
X0287657Y0288031D01*
G75*
G02*
X0286752Y0288937I0000000J0000906D01*
G01*
X0286752Y0291654D01*
G75*
G02*
X0287657Y0292559I0000906J0000000D01*
G01*
X0292933Y0292559D01*
G75*
G02*
X0293838Y0291654I0000000J-000906D01*
G01*
G37*
G36*
G01*
X0283996Y0280236D02*
X0283996Y0277520D01*
G75*
G02*
X0283090Y0276614I-000906J0000000D01*
G01*
X0277815Y0276614D01*
G75*
G02*
X0276909Y0277520I0000000J0000906D01*
G01*
X0276909Y0280236D01*
G75*
G02*
X0277815Y0281142I0000906J0000000D01*
G01*
X0283090Y0281142D01*
G75*
G02*
X0283996Y0280236I0000000J-000906D01*
G01*
G37*
G36*
G01*
X0283996Y0291654D02*
X0283996Y0288937D01*
G75*
G02*
X0283090Y0288031I-000906J0000000D01*
G01*
X0277815Y0288031D01*
G75*
G02*
X0276909Y0288937I0000000J0000906D01*
G01*
X0276909Y0291654D01*
G75*
G02*
X0277815Y0292559I0000906J0000000D01*
G01*
X0283090Y0292559D01*
G75*
G02*
X0283996Y0291654I0000000J-000906D01*
G01*
G37*
G36*
G01*
X0290315Y0302303D02*
X0293031Y0302303D01*
G75*
G02*
X0293937Y0301398I0000000J-000906D01*
G01*
X0293937Y0296122D01*
G75*
G02*
X0293031Y0295216I-000906J0000000D01*
G01*
X0290315Y0295216D01*
G75*
G02*
X0289409Y0296122I0000000J0000906D01*
G01*
X0289409Y0301398D01*
G75*
G02*
X0290315Y0302303I0000906J0000000D01*
G01*
G37*
G36*
G01*
X0278897Y0302303D02*
X0281614Y0302303D01*
G75*
G02*
X0282519Y0301398I0000000J-000906D01*
G01*
X0282519Y0296122D01*
G75*
G02*
X0281614Y0295216I-000906J0000000D01*
G01*
X0278897Y0295216D01*
G75*
G02*
X0277992Y0296122I0000000J0000906D01*
G01*
X0277992Y0301398D01*
G75*
G02*
X0278897Y0302303I0000906J0000000D01*
G01*
G37*
G36*
G01*
X0274547Y0286929D02*
X0274547Y0284213D01*
G75*
G02*
X0273641Y0283307I-000906J0000000D01*
G01*
X0268366Y0283307D01*
G75*
G02*
X0267460Y0284213I0000000J0000906D01*
G01*
X0267460Y0286929D01*
G75*
G02*
X0268366Y0287835I0000906J0000000D01*
G01*
X0273641Y0287835D01*
G75*
G02*
X0274547Y0286929I0000000J-000906D01*
G01*
G37*
G36*
G01*
X0274547Y0298346D02*
X0274547Y0295630D01*
G75*
G02*
X0273641Y0294724I-000906J0000000D01*
G01*
X0268366Y0294724D01*
G75*
G02*
X0267460Y0295630I0000000J0000906D01*
G01*
X0267460Y0298346D01*
G75*
G02*
X0268366Y0299252I0000906J0000000D01*
G01*
X0273641Y0299252D01*
G75*
G02*
X0274547Y0298346I0000000J-000906D01*
G01*
G37*
G36*
G01*
X0296422Y0261260D02*
X0294404Y0261260D01*
G75*
G02*
X0293543Y0262121I0000000J0000861D01*
G01*
X0293543Y0263843D01*
G75*
G02*
X0294404Y0264705I0000861J0000000D01*
G01*
X0296422Y0264705D01*
G75*
G02*
X0297283Y0263843I0000000J-000861D01*
G01*
X0297283Y0262121D01*
G75*
G02*
X0296422Y0261260I-000861J0000000D01*
G01*
G37*
G36*
G01*
X0296422Y0267461D02*
X0294404Y0267461D01*
G75*
G02*
X0293543Y0268322I0000000J0000861D01*
G01*
X0293543Y0270044D01*
G75*
G02*
X0294404Y0270905I0000861J0000000D01*
G01*
X0296422Y0270905D01*
G75*
G02*
X0297283Y0270044I0000000J-000861D01*
G01*
X0297283Y0268322D01*
G75*
G02*
X0296422Y0267461I-000861J0000000D01*
G01*
G37*
G36*
G01*
X0289460Y0255315D02*
X0286783Y0255315D01*
G75*
G02*
X0286448Y0255650I0000000J0000335D01*
G01*
X0286448Y0258327D01*
G75*
G02*
X0286783Y0258661I0000335J0000000D01*
G01*
X0289460Y0258661D01*
G75*
G02*
X0289795Y0258327I0000000J-000335D01*
G01*
X0289795Y0255650D01*
G75*
G02*
X0289460Y0255315I-000335J0000000D01*
G01*
G37*
G36*
G01*
X0289460Y0249094D02*
X0286783Y0249094D01*
G75*
G02*
X0286448Y0249429I0000000J0000335D01*
G01*
X0286448Y0252106D01*
G75*
G02*
X0286783Y0252441I0000335J0000000D01*
G01*
X0289460Y0252441D01*
G75*
G02*
X0289795Y0252106I0000000J-000335D01*
G01*
X0289795Y0249429D01*
G75*
G02*
X0289460Y0249094I-000335J0000000D01*
G01*
G37*
G36*
G01*
X0284153Y0249094D02*
X0281476Y0249094D01*
G75*
G02*
X0281141Y0249429I0000000J0000335D01*
G01*
X0281141Y0252106D01*
G75*
G02*
X0281476Y0252441I0000335J0000000D01*
G01*
X0284153Y0252441D01*
G75*
G02*
X0284488Y0252106I0000000J-000335D01*
G01*
X0284488Y0249429D01*
G75*
G02*
X0284153Y0249094I-000335J0000000D01*
G01*
G37*
G36*
G01*
X0284153Y0255315D02*
X0281476Y0255315D01*
G75*
G02*
X0281141Y0255650I0000000J0000335D01*
G01*
X0281141Y0258327D01*
G75*
G02*
X0281476Y0258661I0000335J0000000D01*
G01*
X0284153Y0258661D01*
G75*
G02*
X0284488Y0258327I0000000J-000335D01*
G01*
X0284488Y0255650D01*
G75*
G02*
X0284153Y0255315I-000335J0000000D01*
G01*
G37*
G36*
G01*
X0290354Y0274508D02*
X0290354Y0271831D01*
G75*
G02*
X0290019Y0271496I-000335J0000000D01*
G01*
X0287342Y0271496D01*
G75*
G02*
X0287008Y0271831I0000000J0000335D01*
G01*
X0287008Y0274508D01*
G75*
G02*
X0287342Y0274842I0000335J0000000D01*
G01*
X0290019Y0274842D01*
G75*
G02*
X0290354Y0274508I0000000J-000335D01*
G01*
G37*
G36*
G01*
X0284134Y0274508D02*
X0284134Y0271831D01*
G75*
G02*
X0283799Y0271496I-000335J0000000D01*
G01*
X0281122Y0271496D01*
G75*
G02*
X0280787Y0271831I0000000J0000335D01*
G01*
X0280787Y0274508D01*
G75*
G02*
X0281122Y0274842I0000335J0000000D01*
G01*
X0283799Y0274842D01*
G75*
G02*
X0284134Y0274508I0000000J-000335D01*
G01*
G37*
X0532421Y0155945D02*
%LPD*%
G01*
G36*
G01*
X0496712Y0223553D02*
X0496712Y0222195D01*
G75*
G02*
X0496132Y0221614I-000581J0000000D01*
G01*
X0494970Y0221614D01*
G75*
G02*
X0494390Y0222195I0000000J0000581D01*
G01*
X0494390Y0223553D01*
G75*
G02*
X0494970Y0224134I0000581J0000000D01*
G01*
X0496132Y0224134D01*
G75*
G02*
X0496712Y0223553I0000000J-000581D01*
G01*
G37*
G36*
G01*
X0492893Y0223553D02*
X0492893Y0222195D01*
G75*
G02*
X0492313Y0221614I-000581J0000000D01*
G01*
X0491151Y0221614D01*
G75*
G02*
X0490571Y0222195I0000000J0000581D01*
G01*
X0490571Y0223553D01*
G75*
G02*
X0491151Y0224134I0000581J0000000D01*
G01*
X0492313Y0224134D01*
G75*
G02*
X0492893Y0223553I0000000J-000581D01*
G01*
G37*
G36*
G01*
X0512136Y0164980D02*
X0510777Y0164980D01*
G75*
G02*
X0510197Y0165561I0000000J0000581D01*
G01*
X0510197Y0166723D01*
G75*
G02*
X0510777Y0167303I0000581J0000000D01*
G01*
X0512136Y0167303D01*
G75*
G02*
X0512716Y0166723I0000000J-000581D01*
G01*
X0512716Y0165561D01*
G75*
G02*
X0512136Y0164980I-000581J0000000D01*
G01*
G37*
G36*
G01*
X0512136Y0168799D02*
X0510777Y0168799D01*
G75*
G02*
X0510197Y0169380I0000000J0000581D01*
G01*
X0510197Y0170541D01*
G75*
G02*
X0510777Y0171122I0000581J0000000D01*
G01*
X0512136Y0171122D01*
G75*
G02*
X0512716Y0170541I0000000J-000581D01*
G01*
X0512716Y0169380D01*
G75*
G02*
X0512136Y0168799I-000581J0000000D01*
G01*
G37*
G36*
G01*
X0496939Y0175507D02*
X0496939Y0177525D01*
G75*
G02*
X0497800Y0178386I0000861J0000000D01*
G01*
X0499522Y0178386D01*
G75*
G02*
X0500384Y0177525I0000000J-000861D01*
G01*
X0500384Y0175507D01*
G75*
G02*
X0499522Y0174646I-000861J0000000D01*
G01*
X0497800Y0174646D01*
G75*
G02*
X0496939Y0175507I0000000J0000861D01*
G01*
G37*
G36*
G01*
X0503140Y0175507D02*
X0503140Y0177525D01*
G75*
G02*
X0504001Y0178386I0000861J0000000D01*
G01*
X0505723Y0178386D01*
G75*
G02*
X0506584Y0177525I0000000J-000861D01*
G01*
X0506584Y0175507D01*
G75*
G02*
X0505723Y0174646I-000861J0000000D01*
G01*
X0504001Y0174646D01*
G75*
G02*
X0503140Y0175507I0000000J0000861D01*
G01*
G37*
G36*
G01*
X0521968Y0221998D02*
X0521968Y0223356D01*
G75*
G02*
X0522549Y0223937I0000581J0000000D01*
G01*
X0523710Y0223937D01*
G75*
G02*
X0524291Y0223356I0000000J-000581D01*
G01*
X0524291Y0221998D01*
G75*
G02*
X0523710Y0221417I-000581J0000000D01*
G01*
X0522549Y0221417D01*
G75*
G02*
X0521968Y0221998I0000000J0000581D01*
G01*
G37*
G36*
G01*
X0525787Y0221998D02*
X0525787Y0223356D01*
G75*
G02*
X0526368Y0223937I0000581J0000000D01*
G01*
X0527529Y0223937D01*
G75*
G02*
X0528110Y0223356I0000000J-000581D01*
G01*
X0528110Y0221998D01*
G75*
G02*
X0527529Y0221417I-000581J0000000D01*
G01*
X0526368Y0221417D01*
G75*
G02*
X0525787Y0221998I0000000J0000581D01*
G01*
G37*
D161*
X0506141Y0170807D03*
X0498661Y0170807D03*
X0502401Y0162933D03*
G36*
G01*
X0521968Y0217815D02*
X0521968Y0219173D01*
G75*
G02*
X0522549Y0219754I0000581J0000000D01*
G01*
X0523710Y0219754D01*
G75*
G02*
X0524291Y0219173I0000000J-000581D01*
G01*
X0524291Y0217815D01*
G75*
G02*
X0523710Y0217234I-000581J0000000D01*
G01*
X0522549Y0217234D01*
G75*
G02*
X0521968Y0217815I0000000J0000581D01*
G01*
G37*
G36*
G01*
X0525787Y0217815D02*
X0525787Y0219173D01*
G75*
G02*
X0526368Y0219754I0000581J0000000D01*
G01*
X0527529Y0219754D01*
G75*
G02*
X0528110Y0219173I0000000J-000581D01*
G01*
X0528110Y0217815D01*
G75*
G02*
X0527529Y0217234I-000581J0000000D01*
G01*
X0526368Y0217234D01*
G75*
G02*
X0525787Y0217815I0000000J0000581D01*
G01*
G37*
G36*
G01*
X0498051Y0222195D02*
X0498051Y0223553D01*
G75*
G02*
X0498632Y0224134I0000581J0000000D01*
G01*
X0499793Y0224134D01*
G75*
G02*
X0500374Y0223553I0000000J-000581D01*
G01*
X0500374Y0222195D01*
G75*
G02*
X0499793Y0221614I-000581J0000000D01*
G01*
X0498632Y0221614D01*
G75*
G02*
X0498051Y0222195I0000000J0000581D01*
G01*
G37*
G36*
G01*
X0501870Y0222195D02*
X0501870Y0223553D01*
G75*
G02*
X0502451Y0224134I0000581J0000000D01*
G01*
X0503612Y0224134D01*
G75*
G02*
X0504193Y0223553I0000000J-000581D01*
G01*
X0504193Y0222195D01*
G75*
G02*
X0503612Y0221614I-000581J0000000D01*
G01*
X0502451Y0221614D01*
G75*
G02*
X0501870Y0222195I0000000J0000581D01*
G01*
G37*
G36*
G01*
X0485787Y0218435D02*
X0485787Y0217077D01*
G75*
G02*
X0485206Y0216496I-000581J0000000D01*
G01*
X0484045Y0216496D01*
G75*
G02*
X0483464Y0217077I0000000J0000581D01*
G01*
X0483464Y0218435D01*
G75*
G02*
X0484045Y0219016I0000581J0000000D01*
G01*
X0485206Y0219016D01*
G75*
G02*
X0485787Y0218435I0000000J-000581D01*
G01*
G37*
G36*
G01*
X0481968Y0218435D02*
X0481968Y0217077D01*
G75*
G02*
X0481388Y0216496I-000581J0000000D01*
G01*
X0480226Y0216496D01*
G75*
G02*
X0479645Y0217077I0000000J0000581D01*
G01*
X0479645Y0218435D01*
G75*
G02*
X0480226Y0219016I0000581J0000000D01*
G01*
X0481388Y0219016D01*
G75*
G02*
X0481968Y0218435I0000000J-000581D01*
G01*
G37*
G36*
G01*
X0512559Y0223553D02*
X0512559Y0222195D01*
G75*
G02*
X0511978Y0221614I-000581J0000000D01*
G01*
X0510817Y0221614D01*
G75*
G02*
X0510236Y0222195I0000000J0000581D01*
G01*
X0510236Y0223553D01*
G75*
G02*
X0510817Y0224134I0000581J0000000D01*
G01*
X0511978Y0224134D01*
G75*
G02*
X0512559Y0223553I0000000J-000581D01*
G01*
G37*
G36*
G01*
X0508740Y0223553D02*
X0508740Y0222195D01*
G75*
G02*
X0508159Y0221614I-000581J0000000D01*
G01*
X0506998Y0221614D01*
G75*
G02*
X0506417Y0222195I0000000J0000581D01*
G01*
X0506417Y0223553D01*
G75*
G02*
X0506998Y0224134I0000581J0000000D01*
G01*
X0508159Y0224134D01*
G75*
G02*
X0508740Y0223553I0000000J-000581D01*
G01*
G37*
G36*
G01*
X0485787Y0183789D02*
X0485787Y0182431D01*
G75*
G02*
X0485206Y0181851I-000581J0000000D01*
G01*
X0484045Y0181851D01*
G75*
G02*
X0483464Y0182431I0000000J0000581D01*
G01*
X0483464Y0183789D01*
G75*
G02*
X0484045Y0184370I0000581J0000000D01*
G01*
X0485206Y0184370D01*
G75*
G02*
X0485787Y0183789I0000000J-000581D01*
G01*
G37*
G36*
G01*
X0481968Y0183789D02*
X0481968Y0182431D01*
G75*
G02*
X0481388Y0181851I-000581J0000000D01*
G01*
X0480226Y0181851D01*
G75*
G02*
X0479645Y0182431I0000000J0000581D01*
G01*
X0479645Y0183789D01*
G75*
G02*
X0480226Y0184370I0000581J0000000D01*
G01*
X0481388Y0184370D01*
G75*
G02*
X0481968Y0183789I0000000J-000581D01*
G01*
G37*
D308*
X0492460Y0248228D03*
D159*
X0520807Y0247126D03*
X0508996Y0239252D03*
X0520807Y0231378D03*
D309*
X0517264Y0239252D03*
D308*
X0492460Y0230276D03*
G36*
G01*
X0512234Y0172756D02*
X0510876Y0172756D01*
G75*
G02*
X0510295Y0173337I0000000J0000581D01*
G01*
X0510295Y0174498D01*
G75*
G02*
X0510876Y0175079I0000581J0000000D01*
G01*
X0512234Y0175079D01*
G75*
G02*
X0512815Y0174498I0000000J-000581D01*
G01*
X0512815Y0173337D01*
G75*
G02*
X0512234Y0172756I-000581J0000000D01*
G01*
G37*
G36*
G01*
X0512234Y0176575D02*
X0510876Y0176575D01*
G75*
G02*
X0510295Y0177156I0000000J0000581D01*
G01*
X0510295Y0178317D01*
G75*
G02*
X0510876Y0178898I0000581J0000000D01*
G01*
X0512234Y0178898D01*
G75*
G02*
X0512815Y0178317I0000000J-000581D01*
G01*
X0512815Y0177156D01*
G75*
G02*
X0512234Y0176575I-000581J0000000D01*
G01*
G37*
G36*
G01*
X0525900Y0211260D02*
X0527918Y0211260D01*
G75*
G02*
X0528779Y0210399I0000000J-000861D01*
G01*
X0528779Y0208676D01*
G75*
G02*
X0527918Y0207815I-000861J0000000D01*
G01*
X0525900Y0207815D01*
G75*
G02*
X0525039Y0208676I0000000J0000861D01*
G01*
X0525039Y0210399D01*
G75*
G02*
X0525900Y0211260I0000861J0000000D01*
G01*
G37*
G36*
G01*
X0525900Y0205059D02*
X0527918Y0205059D01*
G75*
G02*
X0528779Y0204198I0000000J-000861D01*
G01*
X0528779Y0202476D01*
G75*
G02*
X0527918Y0201614I-000861J0000000D01*
G01*
X0525900Y0201614D01*
G75*
G02*
X0525039Y0202476I0000000J0000861D01*
G01*
X0525039Y0204198D01*
G75*
G02*
X0525900Y0205059I0000861J0000000D01*
G01*
G37*
G36*
G01*
X0521968Y0213632D02*
X0521968Y0214990D01*
G75*
G02*
X0522549Y0215571I0000581J0000000D01*
G01*
X0523710Y0215571D01*
G75*
G02*
X0524291Y0214990I0000000J-000581D01*
G01*
X0524291Y0213632D01*
G75*
G02*
X0523710Y0213051I-000581J0000000D01*
G01*
X0522549Y0213051D01*
G75*
G02*
X0521968Y0213632I0000000J0000581D01*
G01*
G37*
G36*
G01*
X0525787Y0213632D02*
X0525787Y0214990D01*
G75*
G02*
X0526368Y0215571I0000581J0000000D01*
G01*
X0527529Y0215571D01*
G75*
G02*
X0528110Y0214990I0000000J-000581D01*
G01*
X0528110Y0213632D01*
G75*
G02*
X0527529Y0213051I-000581J0000000D01*
G01*
X0526368Y0213051D01*
G75*
G02*
X0525787Y0213632I0000000J0000581D01*
G01*
G37*
G36*
G01*
X0526515Y0257741D02*
X0526515Y0255724D01*
G75*
G02*
X0525654Y0254862I-000861J0000000D01*
G01*
X0523932Y0254862D01*
G75*
G02*
X0523071Y0255724I0000000J0000861D01*
G01*
X0523071Y0257741D01*
G75*
G02*
X0523932Y0258602I0000861J0000000D01*
G01*
X0525654Y0258602D01*
G75*
G02*
X0526515Y0257741I0000000J-000861D01*
G01*
G37*
G36*
G01*
X0520315Y0257741D02*
X0520315Y0255724D01*
G75*
G02*
X0519453Y0254862I-000861J0000000D01*
G01*
X0517731Y0254862D01*
G75*
G02*
X0516870Y0255724I0000000J0000861D01*
G01*
X0516870Y0257741D01*
G75*
G02*
X0517731Y0258602I0000861J0000000D01*
G01*
X0519453Y0258602D01*
G75*
G02*
X0520315Y0257741I0000000J-000861D01*
G01*
G37*
G36*
G01*
X0527918Y0189902D02*
X0525900Y0189902D01*
G75*
G02*
X0525039Y0190763I0000000J0000861D01*
G01*
X0525039Y0192485D01*
G75*
G02*
X0525900Y0193347I0000861J0000000D01*
G01*
X0527918Y0193347D01*
G75*
G02*
X0528779Y0192485I0000000J-000861D01*
G01*
X0528779Y0190763D01*
G75*
G02*
X0527918Y0189902I-000861J0000000D01*
G01*
G37*
G36*
G01*
X0527918Y0196102D02*
X0525900Y0196102D01*
G75*
G02*
X0525039Y0196964I0000000J0000861D01*
G01*
X0525039Y0198686D01*
G75*
G02*
X0525900Y0199547I0000861J0000000D01*
G01*
X0527918Y0199547D01*
G75*
G02*
X0528779Y0198686I0000000J-000861D01*
G01*
X0528779Y0196964D01*
G75*
G02*
X0527918Y0196102I-000861J0000000D01*
G01*
G37*
G36*
G01*
X0523740Y0185581D02*
X0523740Y0186939D01*
G75*
G02*
X0524321Y0187520I0000581J0000000D01*
G01*
X0525482Y0187520D01*
G75*
G02*
X0526063Y0186939I0000000J-000581D01*
G01*
X0526063Y0185581D01*
G75*
G02*
X0525482Y0185000I-000581J0000000D01*
G01*
X0524321Y0185000D01*
G75*
G02*
X0523740Y0185581I0000000J0000581D01*
G01*
G37*
G36*
G01*
X0527559Y0185581D02*
X0527559Y0186939D01*
G75*
G02*
X0528140Y0187520I0000581J0000000D01*
G01*
X0529301Y0187520D01*
G75*
G02*
X0529882Y0186939I0000000J-000581D01*
G01*
X0529882Y0185581D01*
G75*
G02*
X0529301Y0185000I-000581J0000000D01*
G01*
X0528140Y0185000D01*
G75*
G02*
X0527559Y0185581I0000000J0000581D01*
G01*
G37*
G36*
G01*
X0511063Y0220020D02*
X0512047Y0220020D01*
G75*
G02*
X0512539Y0219528I0000000J-000492D01*
G01*
X0512539Y0214606D01*
G75*
G02*
X0512047Y0214114I-000492J0000000D01*
G01*
X0511063Y0214114D01*
G75*
G02*
X0510571Y0214606I0000000J0000492D01*
G01*
X0510571Y0219528D01*
G75*
G02*
X0511063Y0220020I0000492J0000000D01*
G01*
G37*
G36*
G01*
X0507913Y0220020D02*
X0508897Y0220020D01*
G75*
G02*
X0509390Y0219528I0000000J-000492D01*
G01*
X0509390Y0214606D01*
G75*
G02*
X0508897Y0214114I-000492J0000000D01*
G01*
X0507913Y0214114D01*
G75*
G02*
X0507421Y0214606I0000000J0000492D01*
G01*
X0507421Y0219528D01*
G75*
G02*
X0507913Y0220020I0000492J0000000D01*
G01*
G37*
G36*
G01*
X0504764Y0220020D02*
X0505748Y0220020D01*
G75*
G02*
X0506240Y0219528I0000000J-000492D01*
G01*
X0506240Y0214606D01*
G75*
G02*
X0505748Y0214114I-000492J0000000D01*
G01*
X0504764Y0214114D01*
G75*
G02*
X0504271Y0214606I0000000J0000492D01*
G01*
X0504271Y0219528D01*
G75*
G02*
X0504764Y0220020I0000492J0000000D01*
G01*
G37*
G36*
G01*
X0501614Y0220020D02*
X0502598Y0220020D01*
G75*
G02*
X0503090Y0219528I0000000J-000492D01*
G01*
X0503090Y0214606D01*
G75*
G02*
X0502598Y0214114I-000492J0000000D01*
G01*
X0501614Y0214114D01*
G75*
G02*
X0501122Y0214606I0000000J0000492D01*
G01*
X0501122Y0219528D01*
G75*
G02*
X0501614Y0220020I0000492J0000000D01*
G01*
G37*
G36*
G01*
X0498464Y0220020D02*
X0499449Y0220020D01*
G75*
G02*
X0499941Y0219528I0000000J-000492D01*
G01*
X0499941Y0214606D01*
G75*
G02*
X0499449Y0214114I-000492J0000000D01*
G01*
X0498464Y0214114D01*
G75*
G02*
X0497972Y0214606I0000000J0000492D01*
G01*
X0497972Y0219528D01*
G75*
G02*
X0498464Y0220020I0000492J0000000D01*
G01*
G37*
G36*
G01*
X0495315Y0220020D02*
X0496299Y0220020D01*
G75*
G02*
X0496791Y0219528I0000000J-000492D01*
G01*
X0496791Y0214606D01*
G75*
G02*
X0496299Y0214114I-000492J0000000D01*
G01*
X0495315Y0214114D01*
G75*
G02*
X0494823Y0214606I0000000J0000492D01*
G01*
X0494823Y0219528D01*
G75*
G02*
X0495315Y0220020I0000492J0000000D01*
G01*
G37*
G36*
G01*
X0492165Y0220020D02*
X0493149Y0220020D01*
G75*
G02*
X0493641Y0219528I0000000J-000492D01*
G01*
X0493641Y0214606D01*
G75*
G02*
X0493149Y0214114I-000492J0000000D01*
G01*
X0492165Y0214114D01*
G75*
G02*
X0491673Y0214606I0000000J0000492D01*
G01*
X0491673Y0219528D01*
G75*
G02*
X0492165Y0220020I0000492J0000000D01*
G01*
G37*
G36*
G01*
X0489015Y0220020D02*
X0490000Y0220020D01*
G75*
G02*
X0490492Y0219528I0000000J-000492D01*
G01*
X0490492Y0214606D01*
G75*
G02*
X0490000Y0214114I-000492J0000000D01*
G01*
X0489015Y0214114D01*
G75*
G02*
X0488523Y0214606I0000000J0000492D01*
G01*
X0488523Y0219528D01*
G75*
G02*
X0489015Y0220020I0000492J0000000D01*
G01*
G37*
G36*
G01*
X0481634Y0212638D02*
X0486555Y0212638D01*
G75*
G02*
X0487047Y0212146I0000000J-000492D01*
G01*
X0487047Y0211162D01*
G75*
G02*
X0486555Y0210669I-000492J0000000D01*
G01*
X0481634Y0210669D01*
G75*
G02*
X0481141Y0211162I0000000J0000492D01*
G01*
X0481141Y0212146D01*
G75*
G02*
X0481634Y0212638I0000492J0000000D01*
G01*
G37*
G36*
G01*
X0481634Y0209488D02*
X0486555Y0209488D01*
G75*
G02*
X0487047Y0208996I0000000J-000492D01*
G01*
X0487047Y0208012D01*
G75*
G02*
X0486555Y0207520I-000492J0000000D01*
G01*
X0481634Y0207520D01*
G75*
G02*
X0481141Y0208012I0000000J0000492D01*
G01*
X0481141Y0208996D01*
G75*
G02*
X0481634Y0209488I0000492J0000000D01*
G01*
G37*
G36*
G01*
X0481634Y0206339D02*
X0486555Y0206339D01*
G75*
G02*
X0487047Y0205847I0000000J-000492D01*
G01*
X0487047Y0204862D01*
G75*
G02*
X0486555Y0204370I-000492J0000000D01*
G01*
X0481634Y0204370D01*
G75*
G02*
X0481141Y0204862I0000000J0000492D01*
G01*
X0481141Y0205847D01*
G75*
G02*
X0481634Y0206339I0000492J0000000D01*
G01*
G37*
G36*
G01*
X0481634Y0203189D02*
X0486555Y0203189D01*
G75*
G02*
X0487047Y0202697I0000000J-000492D01*
G01*
X0487047Y0201713D01*
G75*
G02*
X0486555Y0201221I-000492J0000000D01*
G01*
X0481634Y0201221D01*
G75*
G02*
X0481141Y0201713I0000000J0000492D01*
G01*
X0481141Y0202697D01*
G75*
G02*
X0481634Y0203189I0000492J0000000D01*
G01*
G37*
G36*
G01*
X0481634Y0200039D02*
X0486555Y0200039D01*
G75*
G02*
X0487047Y0199547I0000000J-000492D01*
G01*
X0487047Y0198563D01*
G75*
G02*
X0486555Y0198071I-000492J0000000D01*
G01*
X0481634Y0198071D01*
G75*
G02*
X0481141Y0198563I0000000J0000492D01*
G01*
X0481141Y0199547D01*
G75*
G02*
X0481634Y0200039I0000492J0000000D01*
G01*
G37*
G36*
G01*
X0481634Y0196890D02*
X0486555Y0196890D01*
G75*
G02*
X0487047Y0196398I0000000J-000492D01*
G01*
X0487047Y0195414D01*
G75*
G02*
X0486555Y0194921I-000492J0000000D01*
G01*
X0481634Y0194921D01*
G75*
G02*
X0481141Y0195414I0000000J0000492D01*
G01*
X0481141Y0196398D01*
G75*
G02*
X0481634Y0196890I0000492J0000000D01*
G01*
G37*
G36*
G01*
X0481634Y0193740D02*
X0486555Y0193740D01*
G75*
G02*
X0487047Y0193248I0000000J-000492D01*
G01*
X0487047Y0192264D01*
G75*
G02*
X0486555Y0191772I-000492J0000000D01*
G01*
X0481634Y0191772D01*
G75*
G02*
X0481141Y0192264I0000000J0000492D01*
G01*
X0481141Y0193248D01*
G75*
G02*
X0481634Y0193740I0000492J0000000D01*
G01*
G37*
G36*
G01*
X0481634Y0190591D02*
X0486555Y0190591D01*
G75*
G02*
X0487047Y0190099I0000000J-000492D01*
G01*
X0487047Y0189114D01*
G75*
G02*
X0486555Y0188622I-000492J0000000D01*
G01*
X0481634Y0188622D01*
G75*
G02*
X0481141Y0189114I0000000J0000492D01*
G01*
X0481141Y0190099D01*
G75*
G02*
X0481634Y0190591I0000492J0000000D01*
G01*
G37*
G36*
G01*
X0489015Y0187146D02*
X0490000Y0187146D01*
G75*
G02*
X0490492Y0186654I0000000J-000492D01*
G01*
X0490492Y0181732D01*
G75*
G02*
X0490000Y0181240I-000492J0000000D01*
G01*
X0489015Y0181240D01*
G75*
G02*
X0488523Y0181732I0000000J0000492D01*
G01*
X0488523Y0186654D01*
G75*
G02*
X0489015Y0187146I0000492J0000000D01*
G01*
G37*
G36*
G01*
X0492165Y0187146D02*
X0493149Y0187146D01*
G75*
G02*
X0493641Y0186654I0000000J-000492D01*
G01*
X0493641Y0181732D01*
G75*
G02*
X0493149Y0181240I-000492J0000000D01*
G01*
X0492165Y0181240D01*
G75*
G02*
X0491673Y0181732I0000000J0000492D01*
G01*
X0491673Y0186654D01*
G75*
G02*
X0492165Y0187146I0000492J0000000D01*
G01*
G37*
G36*
G01*
X0495315Y0187146D02*
X0496299Y0187146D01*
G75*
G02*
X0496791Y0186654I0000000J-000492D01*
G01*
X0496791Y0181732D01*
G75*
G02*
X0496299Y0181240I-000492J0000000D01*
G01*
X0495315Y0181240D01*
G75*
G02*
X0494823Y0181732I0000000J0000492D01*
G01*
X0494823Y0186654D01*
G75*
G02*
X0495315Y0187146I0000492J0000000D01*
G01*
G37*
G36*
G01*
X0498464Y0187146D02*
X0499449Y0187146D01*
G75*
G02*
X0499941Y0186654I0000000J-000492D01*
G01*
X0499941Y0181732D01*
G75*
G02*
X0499449Y0181240I-000492J0000000D01*
G01*
X0498464Y0181240D01*
G75*
G02*
X0497972Y0181732I0000000J0000492D01*
G01*
X0497972Y0186654D01*
G75*
G02*
X0498464Y0187146I0000492J0000000D01*
G01*
G37*
G36*
G01*
X0501614Y0187146D02*
X0502598Y0187146D01*
G75*
G02*
X0503090Y0186654I0000000J-000492D01*
G01*
X0503090Y0181732D01*
G75*
G02*
X0502598Y0181240I-000492J0000000D01*
G01*
X0501614Y0181240D01*
G75*
G02*
X0501122Y0181732I0000000J0000492D01*
G01*
X0501122Y0186654D01*
G75*
G02*
X0501614Y0187146I0000492J0000000D01*
G01*
G37*
G36*
G01*
X0504764Y0187146D02*
X0505748Y0187146D01*
G75*
G02*
X0506240Y0186654I0000000J-000492D01*
G01*
X0506240Y0181732D01*
G75*
G02*
X0505748Y0181240I-000492J0000000D01*
G01*
X0504764Y0181240D01*
G75*
G02*
X0504271Y0181732I0000000J0000492D01*
G01*
X0504271Y0186654D01*
G75*
G02*
X0504764Y0187146I0000492J0000000D01*
G01*
G37*
G36*
G01*
X0507913Y0187146D02*
X0508897Y0187146D01*
G75*
G02*
X0509390Y0186654I0000000J-000492D01*
G01*
X0509390Y0181732D01*
G75*
G02*
X0508897Y0181240I-000492J0000000D01*
G01*
X0507913Y0181240D01*
G75*
G02*
X0507421Y0181732I0000000J0000492D01*
G01*
X0507421Y0186654D01*
G75*
G02*
X0507913Y0187146I0000492J0000000D01*
G01*
G37*
G36*
G01*
X0511063Y0187146D02*
X0512047Y0187146D01*
G75*
G02*
X0512539Y0186654I0000000J-000492D01*
G01*
X0512539Y0181732D01*
G75*
G02*
X0512047Y0181240I-000492J0000000D01*
G01*
X0511063Y0181240D01*
G75*
G02*
X0510571Y0181732I0000000J0000492D01*
G01*
X0510571Y0186654D01*
G75*
G02*
X0511063Y0187146I0000492J0000000D01*
G01*
G37*
G36*
G01*
X0514508Y0190591D02*
X0519429Y0190591D01*
G75*
G02*
X0519921Y0190099I0000000J-000492D01*
G01*
X0519921Y0189114D01*
G75*
G02*
X0519429Y0188622I-000492J0000000D01*
G01*
X0514508Y0188622D01*
G75*
G02*
X0514015Y0189114I0000000J0000492D01*
G01*
X0514015Y0190099D01*
G75*
G02*
X0514508Y0190591I0000492J0000000D01*
G01*
G37*
G36*
G01*
X0514508Y0193740D02*
X0519429Y0193740D01*
G75*
G02*
X0519921Y0193248I0000000J-000492D01*
G01*
X0519921Y0192264D01*
G75*
G02*
X0519429Y0191772I-000492J0000000D01*
G01*
X0514508Y0191772D01*
G75*
G02*
X0514015Y0192264I0000000J0000492D01*
G01*
X0514015Y0193248D01*
G75*
G02*
X0514508Y0193740I0000492J0000000D01*
G01*
G37*
G36*
G01*
X0514508Y0196890D02*
X0519429Y0196890D01*
G75*
G02*
X0519921Y0196398I0000000J-000492D01*
G01*
X0519921Y0195414D01*
G75*
G02*
X0519429Y0194921I-000492J0000000D01*
G01*
X0514508Y0194921D01*
G75*
G02*
X0514015Y0195414I0000000J0000492D01*
G01*
X0514015Y0196398D01*
G75*
G02*
X0514508Y0196890I0000492J0000000D01*
G01*
G37*
G36*
G01*
X0514508Y0200039D02*
X0519429Y0200039D01*
G75*
G02*
X0519921Y0199547I0000000J-000492D01*
G01*
X0519921Y0198563D01*
G75*
G02*
X0519429Y0198071I-000492J0000000D01*
G01*
X0514508Y0198071D01*
G75*
G02*
X0514015Y0198563I0000000J0000492D01*
G01*
X0514015Y0199547D01*
G75*
G02*
X0514508Y0200039I0000492J0000000D01*
G01*
G37*
G36*
G01*
X0514508Y0203189D02*
X0519429Y0203189D01*
G75*
G02*
X0519921Y0202697I0000000J-000492D01*
G01*
X0519921Y0201713D01*
G75*
G02*
X0519429Y0201221I-000492J0000000D01*
G01*
X0514508Y0201221D01*
G75*
G02*
X0514015Y0201713I0000000J0000492D01*
G01*
X0514015Y0202697D01*
G75*
G02*
X0514508Y0203189I0000492J0000000D01*
G01*
G37*
G36*
G01*
X0514508Y0206339D02*
X0519429Y0206339D01*
G75*
G02*
X0519921Y0205847I0000000J-000492D01*
G01*
X0519921Y0204862D01*
G75*
G02*
X0519429Y0204370I-000492J0000000D01*
G01*
X0514508Y0204370D01*
G75*
G02*
X0514015Y0204862I0000000J0000492D01*
G01*
X0514015Y0205847D01*
G75*
G02*
X0514508Y0206339I0000492J0000000D01*
G01*
G37*
G36*
G01*
X0514508Y0209488D02*
X0519429Y0209488D01*
G75*
G02*
X0519921Y0208996I0000000J-000492D01*
G01*
X0519921Y0208012D01*
G75*
G02*
X0519429Y0207520I-000492J0000000D01*
G01*
X0514508Y0207520D01*
G75*
G02*
X0514015Y0208012I0000000J0000492D01*
G01*
X0514015Y0208996D01*
G75*
G02*
X0514508Y0209488I0000492J0000000D01*
G01*
G37*
G36*
G01*
X0514508Y0212638D02*
X0519429Y0212638D01*
G75*
G02*
X0519921Y0212146I0000000J-000492D01*
G01*
X0519921Y0211162D01*
G75*
G02*
X0519429Y0210669I-000492J0000000D01*
G01*
X0514508Y0210669D01*
G75*
G02*
X0514015Y0211162I0000000J0000492D01*
G01*
X0514015Y0212146D01*
G75*
G02*
X0514508Y0212638I0000492J0000000D01*
G01*
G37*
G36*
G01*
X0492962Y0178012D02*
X0494321Y0178012D01*
G75*
G02*
X0494901Y0177431I0000000J-000581D01*
G01*
X0494901Y0176270D01*
G75*
G02*
X0494321Y0175689I-000581J0000000D01*
G01*
X0492962Y0175689D01*
G75*
G02*
X0492382Y0176270I0000000J0000581D01*
G01*
X0492382Y0177431D01*
G75*
G02*
X0492962Y0178012I0000581J0000000D01*
G01*
G37*
G36*
G01*
X0492962Y0174193D02*
X0494321Y0174193D01*
G75*
G02*
X0494901Y0173612I0000000J-000581D01*
G01*
X0494901Y0172451D01*
G75*
G02*
X0494321Y0171870I-000581J0000000D01*
G01*
X0492962Y0171870D01*
G75*
G02*
X0492382Y0172451I0000000J0000581D01*
G01*
X0492382Y0173612D01*
G75*
G02*
X0492962Y0174193I0000581J0000000D01*
G01*
G37*
G36*
G01*
X0516358Y0185089D02*
X0516358Y0186447D01*
G75*
G02*
X0516939Y0187028I0000581J0000000D01*
G01*
X0518100Y0187028D01*
G75*
G02*
X0518681Y0186447I0000000J-000581D01*
G01*
X0518681Y0185089D01*
G75*
G02*
X0518100Y0184508I-000581J0000000D01*
G01*
X0516939Y0184508D01*
G75*
G02*
X0516358Y0185089I0000000J0000581D01*
G01*
G37*
G36*
G01*
X0520177Y0185089D02*
X0520177Y0186447D01*
G75*
G02*
X0520758Y0187028I0000581J0000000D01*
G01*
X0521919Y0187028D01*
G75*
G02*
X0522500Y0186447I0000000J-000581D01*
G01*
X0522500Y0185089D01*
G75*
G02*
X0521919Y0184508I-000581J0000000D01*
G01*
X0520758Y0184508D01*
G75*
G02*
X0520177Y0185089I0000000J0000581D01*
G01*
G37*
G36*
G01*
X0494321Y0161445D02*
X0492962Y0161445D01*
G75*
G02*
X0492382Y0162026I0000000J0000581D01*
G01*
X0492382Y0163187D01*
G75*
G02*
X0492962Y0163768I0000581J0000000D01*
G01*
X0494321Y0163768D01*
G75*
G02*
X0494901Y0163187I0000000J-000581D01*
G01*
X0494901Y0162026D01*
G75*
G02*
X0494321Y0161445I-000581J0000000D01*
G01*
G37*
G36*
G01*
X0494321Y0165264D02*
X0492962Y0165264D01*
G75*
G02*
X0492382Y0165845I0000000J0000581D01*
G01*
X0492382Y0167006D01*
G75*
G02*
X0492962Y0167587I0000581J0000000D01*
G01*
X0494321Y0167587D01*
G75*
G02*
X0494901Y0167006I0000000J-000581D01*
G01*
X0494901Y0165845D01*
G75*
G02*
X0494321Y0165264I-000581J0000000D01*
G01*
G37*
D157*
X0488720Y0162933D03*
X0488720Y0170414D03*
X0480846Y0166673D03*
G36*
G01*
X0514488Y0221998D02*
X0514488Y0223356D01*
G75*
G02*
X0515069Y0223937I0000581J0000000D01*
G01*
X0516230Y0223937D01*
G75*
G02*
X0516811Y0223356I0000000J-000581D01*
G01*
X0516811Y0221998D01*
G75*
G02*
X0516230Y0221417I-000581J0000000D01*
G01*
X0515069Y0221417D01*
G75*
G02*
X0514488Y0221998I0000000J0000581D01*
G01*
G37*
G36*
G01*
X0518307Y0221998D02*
X0518307Y0223356D01*
G75*
G02*
X0518888Y0223937I0000581J0000000D01*
G01*
X0520049Y0223937D01*
G75*
G02*
X0520630Y0223356I0000000J-000581D01*
G01*
X0520630Y0221998D01*
G75*
G02*
X0520049Y0221417I-000581J0000000D01*
G01*
X0518888Y0221417D01*
G75*
G02*
X0518307Y0221998I0000000J0000581D01*
G01*
G37*
G36*
G01*
X0479449Y0175871D02*
X0479449Y0177889D01*
G75*
G02*
X0480310Y0178750I0000861J0000000D01*
G01*
X0482032Y0178750D01*
G75*
G02*
X0482893Y0177889I0000000J-000861D01*
G01*
X0482893Y0175871D01*
G75*
G02*
X0482032Y0175010I-000861J0000000D01*
G01*
X0480310Y0175010D01*
G75*
G02*
X0479449Y0175871I0000000J0000861D01*
G01*
G37*
G36*
G01*
X0485649Y0175871D02*
X0485649Y0177889D01*
G75*
G02*
X0486511Y0178750I0000861J0000000D01*
G01*
X0488233Y0178750D01*
G75*
G02*
X0489094Y0177889I0000000J-000861D01*
G01*
X0489094Y0175871D01*
G75*
G02*
X0488233Y0175010I-000861J0000000D01*
G01*
X0486511Y0175010D01*
G75*
G02*
X0485649Y0175871I0000000J0000861D01*
G01*
G37*
D172*
X0521594Y0160118D03*
X0525594Y0180118D03*
X0517594Y0180118D03*
D169*
X0524094Y0165118D03*
X0519094Y0165118D03*
X0524094Y0170118D03*
X0519094Y0170118D03*
X0524094Y0175118D03*
X0519094Y0175118D03*
D310*
X0482716Y0249606D03*
D311*
X0482716Y0239606D03*
X0482716Y0229606D03*
X0453976Y0189803D02*
G01*
G75*
D409*
X0330354Y0171713D02*
D03*
X0323267Y0171713D02*
D03*
X0323267Y0181752D02*
D03*
X0330354Y0181752D02*
D03*
X0442165Y0122972D02*
D03*
X0449252Y0122972D02*
D03*
X0449252Y0133012D02*
D03*
X0442165Y0133012D02*
D03*
X0442165Y0116870D02*
D03*
X0449252Y0116870D02*
D03*
X0449252Y0106830D02*
D03*
X0442165Y0106830D02*
D03*
D410*
X0330354Y0175157D02*
D03*
X0330354Y0178307D02*
D03*
X0323267Y0178307D02*
D03*
X0323267Y0175157D02*
D03*
X0449252Y0129567D02*
D03*
X0449252Y0126417D02*
D03*
X0442165Y0126417D02*
D03*
X0442165Y0129567D02*
D03*
X0442165Y0113425D02*
D03*
X0442165Y0110275D02*
D03*
X0449252Y0110275D02*
D03*
X0449252Y0113425D02*
D03*
D411*
X0334566Y0174709D02*
D03*
X0334566Y0172150D02*
D03*
X0334566Y0169590D02*
D03*
X0342046Y0174709D02*
D03*
X0342046Y0169590D02*
D03*
X0342046Y0172150D02*
D03*
X0342046Y0179334D02*
D03*
X0342046Y0184453D02*
D03*
X0334566Y0179334D02*
D03*
X0334566Y0181894D02*
D03*
X0334566Y0184453D02*
D03*
X0342046Y0181894D02*
D03*
D206*
X0401774Y0075433D02*
D03*
X0401774Y0077401D02*
D03*
X0401774Y0079370D02*
D03*
X0401774Y0081338D02*
D03*
X0401774Y0083307D02*
D03*
X0401774Y0085275D02*
D03*
X0401774Y0087244D02*
D03*
X0401774Y0089212D02*
D03*
X0401774Y0091181D02*
D03*
X0401774Y0095118D02*
D03*
X0401774Y0097087D02*
D03*
X0401774Y0099055D02*
D03*
X0401774Y0101024D02*
D03*
X0401774Y0102992D02*
D03*
X0401774Y0104961D02*
D03*
X0401774Y0106929D02*
D03*
X0401774Y0108898D02*
D03*
X0401774Y0110866D02*
D03*
X0401774Y0112835D02*
D03*
X0401774Y0114803D02*
D03*
X0401774Y0116771D02*
D03*
X0401774Y0118740D02*
D03*
X0401774Y0120708D02*
D03*
X0401774Y0122677D02*
D03*
X0340750Y0122677D02*
D03*
X0340750Y0120708D02*
D03*
X0340750Y0118740D02*
D03*
X0340750Y0116771D02*
D03*
X0340750Y0114803D02*
D03*
X0340750Y0112835D02*
D03*
X0340750Y0110866D02*
D03*
X0340750Y0108898D02*
D03*
X0340750Y0106929D02*
D03*
X0340750Y0104961D02*
D03*
X0340750Y0102992D02*
D03*
X0340750Y0101024D02*
D03*
X0340750Y0099055D02*
D03*
X0340750Y0097087D02*
D03*
X0340750Y0095118D02*
D03*
X0340750Y0093150D02*
D03*
X0340750Y0091181D02*
D03*
X0340750Y0089212D02*
D03*
X0340750Y0087244D02*
D03*
X0340750Y0085275D02*
D03*
X0340750Y0083307D02*
D03*
X0340750Y0081338D02*
D03*
X0340750Y0079370D02*
D03*
X0340750Y0075433D02*
D03*
X0401774Y0093150D02*
D03*
X0340750Y0077401D02*
D03*
D207*
X0394884Y0129567D02*
D03*
X0390947Y0129567D02*
D03*
X0388978Y0129567D02*
D03*
X0387010Y0129567D02*
D03*
X0385041Y0129567D02*
D03*
X0383073Y0129567D02*
D03*
X0381104Y0129567D02*
D03*
X0379136Y0129567D02*
D03*
X0377167Y0129567D02*
D03*
X0375199Y0129567D02*
D03*
X0373230Y0129567D02*
D03*
X0371262Y0129567D02*
D03*
X0369293Y0129567D02*
D03*
X0367325Y0129567D02*
D03*
X0365356Y0129567D02*
D03*
X0363388Y0129567D02*
D03*
X0361419Y0129567D02*
D03*
X0359451Y0129567D02*
D03*
X0357482Y0129567D02*
D03*
X0355514Y0129567D02*
D03*
X0353545Y0129567D02*
D03*
X0351577Y0129567D02*
D03*
X0349608Y0129567D02*
D03*
X0347640Y0129567D02*
D03*
X0347640Y0068543D02*
D03*
X0349608Y0068543D02*
D03*
X0351577Y0068543D02*
D03*
X0353545Y0068543D02*
D03*
X0355514Y0068543D02*
D03*
X0357482Y0068543D02*
D03*
X0359451Y0068543D02*
D03*
X0361419Y0068543D02*
D03*
X0363388Y0068543D02*
D03*
X0365356Y0068543D02*
D03*
X0367325Y0068543D02*
D03*
X0369293Y0068543D02*
D03*
X0371262Y0068543D02*
D03*
X0373230Y0068543D02*
D03*
X0375199Y0068543D02*
D03*
X0377167Y0068543D02*
D03*
X0379136Y0068543D02*
D03*
X0381104Y0068543D02*
D03*
X0383073Y0068543D02*
D03*
X0385041Y0068543D02*
D03*
X0387010Y0068543D02*
D03*
X0388978Y0068543D02*
D03*
X0390947Y0068543D02*
D03*
X0392915Y0068543D02*
D03*
X0394884Y0068543D02*
D03*
X0392915Y0129567D02*
D03*
D208*
X0398267Y0146496D02*
D03*
X0370315Y0146496D02*
D03*
X0426220Y0146496D02*
D03*
X0420708Y0151614D02*
D03*
X0392755Y0141378D02*
D03*
X0392755Y0143937D02*
D03*
X0392755Y0146496D02*
D03*
X0392755Y0149055D02*
D03*
X0392755Y0151614D02*
D03*
X0392755Y0154173D02*
D03*
X0392755Y0156732D02*
D03*
X0370315Y0141378D02*
D03*
X0370315Y0143937D02*
D03*
X0370315Y0149055D02*
D03*
X0370315Y0151614D02*
D03*
X0370315Y0154173D02*
D03*
X0370315Y0156732D02*
D03*
X0448661Y0141378D02*
D03*
X0448661Y0143937D02*
D03*
X0448661Y0146496D02*
D03*
X0448661Y0149055D02*
D03*
X0448661Y0151614D02*
D03*
X0448661Y0154173D02*
D03*
X0448661Y0156732D02*
D03*
X0426220Y0141378D02*
D03*
X0426220Y0143937D02*
D03*
X0426220Y0149055D02*
D03*
X0426220Y0151614D02*
D03*
X0426220Y0154173D02*
D03*
X0426220Y0156732D02*
D03*
X0420708Y0141378D02*
D03*
X0420708Y0143937D02*
D03*
X0420708Y0146496D02*
D03*
X0420708Y0149055D02*
D03*
X0420708Y0154173D02*
D03*
X0420708Y0156732D02*
D03*
X0398267Y0141378D02*
D03*
X0398267Y0143937D02*
D03*
X0398267Y0149055D02*
D03*
X0398267Y0151614D02*
D03*
X0398267Y0154173D02*
D03*
X0398267Y0156732D02*
D03*
X0342362Y0156732D02*
D03*
X0342362Y0154173D02*
D03*
X0342362Y0151614D02*
D03*
X0342362Y0149055D02*
D03*
X0342362Y0146496D02*
D03*
X0342362Y0143937D02*
D03*
X0342362Y0141378D02*
D03*
X0364803Y0156732D02*
D03*
X0364803Y0154173D02*
D03*
X0364803Y0151614D02*
D03*
X0364803Y0149055D02*
D03*
X0364803Y0146496D02*
D03*
X0364803Y0143937D02*
D03*
X0364803Y0141378D02*
D03*
D209*
X0343858Y0055610D02*
D03*
X0343858Y0060610D02*
D03*
X0348858Y0055610D02*
D03*
X0348858Y0060610D02*
D03*
X0353858Y0055610D02*
D03*
X0353858Y0060610D02*
D03*
D412*
X0329567Y0054370D02*
D03*
X0325826Y0054370D02*
D03*
X0333307Y0054370D02*
D03*
X0333307Y0063819D02*
D03*
X0329567Y0063819D02*
D03*
X0325826Y0063819D02*
D03*
D413*
X0328117Y0075630D02*
D03*
X0328117Y0070905D02*
D03*
X0329586Y0085177D02*
D03*
X0416126Y0058392D02*
D03*
X0402814Y0134258D02*
D03*
X0332053Y0075630D02*
D03*
X0325648Y0085177D02*
D03*
X0330948Y0122161D02*
D03*
X0327011Y0122161D02*
D03*
X0330948Y0131216D02*
D03*
X0327011Y0131216D02*
D03*
X0332053Y0070905D02*
D03*
X0412189Y0058392D02*
D03*
X0419266Y0075107D02*
D03*
X0415329Y0075107D02*
D03*
X0398877Y0134258D02*
D03*
X0398858Y0129962D02*
D03*
X0402795Y0129962D02*
D03*
D212*
X0325660Y0093812D02*
D03*
X0325660Y0095780D02*
D03*
X0331959Y0091843D02*
D03*
X0331959Y0093812D02*
D03*
X0331959Y0089875D02*
D03*
X0331959Y0095780D02*
D03*
X0325660Y0089875D02*
D03*
X0325660Y0091843D02*
D03*
D213*
X0327825Y0095977D02*
D03*
X0329794Y0095977D02*
D03*
X0329794Y0089678D02*
D03*
X0327825Y0089678D02*
D03*
D414*
X0330565Y0100827D02*
D03*
X0330565Y0117362D02*
D03*
D415*
X0359094Y0173268D02*
D03*
X0349645Y0173268D02*
D03*
X0354370Y0173268D02*
D03*
X0363818Y0173268D02*
D03*
X0349645Y0184685D02*
D03*
X0359094Y0184685D02*
D03*
X0354370Y0184685D02*
D03*
X0363818Y0184685D02*
D03*
X0370028Y0166288D02*
D03*
X0370028Y0162351D02*
D03*
X0363818Y0180748D02*
D03*
D03*
X0363818Y0176811D02*
D03*
X0359094Y0180748D02*
D03*
X0359094Y0176811D02*
D03*
X0363818Y0169331D02*
D03*
X0354370Y0180748D02*
D03*
X0354370Y0176811D02*
D03*
X0359094Y0169331D02*
D03*
X0354370Y0169331D02*
D03*
X0349645Y0180748D02*
D03*
X0349645Y0176811D02*
D03*
X0349645Y0180748D02*
D03*
X0349645Y0169331D02*
D03*
X0359094Y0180748D02*
D03*
X0354370Y0180748D02*
D03*
X0449842Y0178386D02*
D03*
X0449842Y0182323D02*
D03*
X0425236Y0180748D02*
D03*
X0425236Y0184685D02*
D03*
X0411063Y0180748D02*
D03*
X0411063Y0184685D02*
D03*
X0392165Y0176811D02*
D03*
X0392165Y0180748D02*
D03*
X0392165Y0184685D02*
D03*
X0392165Y0180748D02*
D03*
X0377992Y0176811D02*
D03*
X0377992Y0180748D02*
D03*
X0449842Y0161653D02*
D03*
X0449842Y0165590D02*
D03*
X0444133Y0180748D02*
D03*
X0444133Y0176811D02*
D03*
X0439409Y0180748D02*
D03*
X0439409Y0176811D02*
D03*
X0434685Y0180748D02*
D03*
X0434685Y0176811D02*
D03*
X0429960Y0180748D02*
D03*
X0429960Y0176811D02*
D03*
X0444133Y0180748D02*
D03*
X0444133Y0184685D02*
D03*
X0439409Y0180748D02*
D03*
X0439409Y0184685D02*
D03*
X0434685Y0180748D02*
D03*
X0434685Y0184685D02*
D03*
X0429960Y0180748D02*
D03*
X0429960Y0184685D02*
D03*
X0425236Y0180748D02*
D03*
X0425236Y0176811D02*
D03*
X0420511Y0180748D02*
D03*
X0420511Y0176811D02*
D03*
X0415787Y0180748D02*
D03*
X0415787Y0176811D02*
D03*
X0411063Y0180748D02*
D03*
X0411063Y0176811D02*
D03*
X0420511Y0180748D02*
D03*
X0420511Y0184685D02*
D03*
X0415787Y0180748D02*
D03*
X0415787Y0184685D02*
D03*
X0406338Y0176811D02*
D03*
X0406338Y0180748D02*
D03*
X0401614Y0176811D02*
D03*
X0401614Y0180748D02*
D03*
X0396889Y0176811D02*
D03*
X0396889Y0180748D02*
D03*
X0406338Y0184685D02*
D03*
X0406338Y0180748D02*
D03*
X0401614Y0184685D02*
D03*
X0401614Y0180748D02*
D03*
X0396889Y0184685D02*
D03*
X0396889Y0180748D02*
D03*
X0387440Y0176811D02*
D03*
X0387440Y0180748D02*
D03*
X0382716Y0176811D02*
D03*
X0382716Y0180748D02*
D03*
X0373267Y0176811D02*
D03*
X0373267Y0180748D02*
D03*
X0387440Y0184685D02*
D03*
X0387440Y0180748D02*
D03*
X0382716Y0184685D02*
D03*
X0382716Y0180748D02*
D03*
X0377992Y0184685D02*
D03*
X0377992Y0180748D02*
D03*
X0373267Y0184685D02*
D03*
X0373267Y0180748D02*
D03*
X0449842Y0170709D02*
D03*
X0449842Y0174646D02*
D03*
D416*
X0385078Y0167756D02*
D03*
X0403976Y0167756D02*
D03*
X0422874Y0167756D02*
D03*
X0441771Y0167756D02*
D03*
X0413425Y0164016D02*
D03*
X0413425Y0167756D02*
D03*
X0413425Y0171496D02*
D03*
X0422874Y0171496D02*
D03*
X0422874Y0164016D02*
D03*
X0432322Y0164016D02*
D03*
X0432322Y0167756D02*
D03*
X0432322Y0171496D02*
D03*
X0441771Y0171496D02*
D03*
X0441771Y0164016D02*
D03*
X0394527Y0164016D02*
D03*
X0394527Y0167756D02*
D03*
X0394527Y0171496D02*
D03*
X0403976Y0171496D02*
D03*
X0403976Y0164016D02*
D03*
X0375629Y0164016D02*
D03*
X0375629Y0167756D02*
D03*
X0375629Y0171496D02*
D03*
X0385078Y0171496D02*
D03*
X0385078Y0164016D02*
D03*
D417*
X0419063Y0070721D02*
D03*
X0401141Y0060472D02*
D03*
D218*
X0428385Y0095844D02*
D03*
X0447283Y0100844D02*
D03*
X0447283Y0085844D02*
D03*
X0447283Y0090844D02*
D03*
X0447283Y0095844D02*
D03*
X0428385Y0085844D02*
D03*
X0428385Y0090844D02*
D03*
X0428385Y0100844D02*
D03*
D418*
X0446693Y0078203D02*
D03*
X0428582Y0078203D02*
D03*
D419*
X0412231Y0109729D02*
D03*
X0428440Y0110277D02*
D03*
X0411754Y0117889D02*
D03*
X0411754Y0125500D02*
D03*
X0428440Y0117889D02*
D03*
X0428440Y0125500D02*
D03*
X0411754Y0133112D02*
D03*
X0428440Y0133112D02*
D03*
X0418924Y0109729D02*
D03*
X0418447Y0117889D02*
D03*
X0418447Y0125500D02*
D03*
X0418447Y0133112D02*
D03*
X0435133Y0117889D02*
D03*
X0435133Y0110277D02*
D03*
X0418924Y0101752D02*
D03*
X0412231Y0101752D02*
D03*
X0412231Y0094665D02*
D03*
X0418924Y0094665D02*
D03*
X0418924Y0087579D02*
D03*
X0412231Y0087579D02*
D03*
X0412231Y0080492D02*
D03*
X0418924Y0080492D02*
D03*
X0435133Y0125500D02*
D03*
X0435133Y0133112D02*
D03*
X0412231Y0052992D02*
D03*
X0418924Y0052992D02*
D03*
D420*
X0325557Y0080405D02*
D03*
X0331857Y0080405D02*
D03*
X0332917Y0126846D02*
D03*
X0326617Y0126846D02*
D03*
D421*
X0366182Y0057463D02*
D03*
X0382717Y0057463D02*
D03*
D417*
X0401141Y0052992D02*
D03*
X0391889Y0056732D02*
D03*
X0419063Y0063241D02*
D03*
X0409811Y0066981D02*
D03*
D422*
X0437637Y0053793D02*
D03*
D423*
X0437637Y0078203D02*
D03*
D225*
X0368346Y0180748D02*
D03*
X0449252Y0186653D02*
D03*
D424*
X0331155Y0163006D02*
D03*
X0331155Y0145290D02*
D03*
D227*
X0376063Y0135669D02*
D03*
X0361850Y0135669D02*
D03*
X0391850Y0135669D02*
D03*
D228*
X0338858Y0058110D02*
D03*
X0358858Y0062110D02*
D03*
X0358858Y0054110D02*
D03*
D36*
X0449645Y0052401D02*
D03*
X0261555Y0215295D02*
G01*
G75*
D273*
X0262638Y0171988D02*
D03*
D272*
X0262835Y0212736D02*
D03*
X0262835Y0210767D02*
D03*
D463*
X0274567Y0203878D02*
D03*
X0265315Y0207618D02*
D03*
D463*
X0274567Y0211358D02*
D03*
D453*
X0286181Y0196319D02*
D03*
X0281181Y0196319D02*
D03*
X0276181Y0196319D02*
D03*
X0271181Y0196319D02*
D03*
X0286181Y0177421D02*
D03*
X0281181Y0177421D02*
D03*
X0276181Y0177421D02*
D03*
X0271181Y0177421D02*
D03*
D464*
X0265886Y0180610D02*
D03*
X0265886Y0174390D02*
D03*
X0265886Y0188956D02*
D03*
X0265886Y0195177D02*
D03*
D465*
X0279468Y0210768D02*
D03*
X0279468Y0204468D02*
D03*
D128*
X0263425Y0200138D02*
D03*
X0285964Y0184094D02*
D03*
X0271988Y0183799D02*
D03*
X0266968Y0184980D02*
D03*
X0269035Y0188425D02*
D03*
M02*
