G75*
G70*
%OFA0B0*%
%FSLAX25Y25*%
%IPPOS*%
%LPD*%
%AMOC8*
5,1,8,0,0,1.08239X$1,22.5*
%
%AMM123*
21,1,0.029130,0.018900,0.000000,-0.000000,90.000000*
21,1,0.018900,0.029130,0.000000,-0.000000,90.000000*
1,1,0.010240,0.009450,0.009450*
1,1,0.010240,0.009450,-0.009450*
1,1,0.010240,-0.009450,-0.009450*
1,1,0.010240,-0.009450,0.009450*
%
%AMM124*
21,1,0.025200,0.019680,0.000000,-0.000000,180.000000*
21,1,0.015750,0.029130,0.000000,-0.000000,180.000000*
1,1,0.009450,-0.007870,0.009840*
1,1,0.009450,0.007870,0.009840*
1,1,0.009450,0.007870,-0.009840*
1,1,0.009450,-0.007870,-0.009840*
%
%AMM125*
21,1,0.038980,0.026770,0.000000,-0.000000,180.000000*
21,1,0.026770,0.038980,0.000000,-0.000000,180.000000*
1,1,0.012210,-0.013390,0.013390*
1,1,0.012210,0.013390,0.013390*
1,1,0.012210,0.013390,-0.013390*
1,1,0.012210,-0.013390,-0.013390*
%
%AMM126*
21,1,0.025200,0.019680,0.000000,-0.000000,270.000000*
21,1,0.015750,0.029130,0.000000,-0.000000,270.000000*
1,1,0.009450,-0.009840,-0.007870*
1,1,0.009450,-0.009840,0.007870*
1,1,0.009450,0.009840,0.007870*
1,1,0.009450,0.009840,-0.007870*
%
%AMM20*
21,1,0.041340,0.026770,0.000000,0.000000,0.000000*
21,1,0.029130,0.038980,0.000000,0.000000,0.000000*
1,1,0.012210,0.014570,-0.013390*
1,1,0.012210,-0.014570,-0.013390*
1,1,0.012210,-0.014570,0.013390*
1,1,0.012210,0.014570,0.013390*
%
%AMM201*
21,1,0.029530,0.026380,-0.000000,-0.000000,90.000000*
21,1,0.020470,0.035430,-0.000000,-0.000000,90.000000*
1,1,0.009060,0.013190,0.010240*
1,1,0.009060,0.013190,-0.010240*
1,1,0.009060,-0.013190,-0.010240*
1,1,0.009060,-0.013190,0.010240*
%
%AMM202*
21,1,0.021650,0.027950,-0.000000,-0.000000,90.000000*
21,1,0.014170,0.035430,-0.000000,-0.000000,90.000000*
1,1,0.007480,0.013980,0.007090*
1,1,0.007480,0.013980,-0.007090*
1,1,0.007480,-0.013980,-0.007090*
1,1,0.007480,-0.013980,0.007090*
%
%AMM205*
21,1,0.031500,0.018900,-0.000000,-0.000000,270.000000*
21,1,0.022840,0.027560,-0.000000,-0.000000,270.000000*
1,1,0.008660,-0.009450,-0.011420*
1,1,0.008660,-0.009450,0.011420*
1,1,0.008660,0.009450,0.011420*
1,1,0.008660,0.009450,-0.011420*
%
%AMM207*
21,1,0.031500,0.018900,-0.000000,-0.000000,0.000000*
21,1,0.022840,0.027560,-0.000000,-0.000000,0.000000*
1,1,0.008660,0.011420,-0.009450*
1,1,0.008660,-0.011420,-0.009450*
1,1,0.008660,-0.011420,0.009450*
1,1,0.008660,0.011420,0.009450*
%
%AMM209*
21,1,0.039370,0.030320,-0.000000,-0.000000,90.000000*
21,1,0.028350,0.041340,-0.000000,-0.000000,90.000000*
1,1,0.011020,0.015160,0.014170*
1,1,0.011020,0.015160,-0.014170*
1,1,0.011020,-0.015160,-0.014170*
1,1,0.011020,-0.015160,0.014170*
%
%AMM21*
21,1,0.076380,0.036220,0.000000,0.000000,90.000000*
21,1,0.061810,0.050790,0.000000,0.000000,90.000000*
1,1,0.014570,0.018110,0.030910*
1,1,0.014570,0.018110,-0.030910*
1,1,0.014570,-0.018110,-0.030910*
1,1,0.014570,-0.018110,0.030910*
%
%AMM212*
21,1,0.031500,0.030710,-0.000000,-0.000000,180.000000*
21,1,0.022050,0.040160,-0.000000,-0.000000,180.000000*
1,1,0.009450,-0.011020,0.015350*
1,1,0.009450,0.011020,0.015350*
1,1,0.009450,0.011020,-0.015350*
1,1,0.009450,-0.011020,-0.015350*
%
%AMM230*
21,1,0.037400,0.026770,-0.000000,-0.000000,270.000000*
21,1,0.026770,0.037400,-0.000000,-0.000000,270.000000*
1,1,0.010630,-0.013390,-0.013390*
1,1,0.010630,-0.013390,0.013390*
1,1,0.010630,0.013390,0.013390*
1,1,0.010630,0.013390,-0.013390*
%
%AMM231*
21,1,0.029530,0.026380,-0.000000,-0.000000,180.000000*
21,1,0.020470,0.035430,-0.000000,-0.000000,180.000000*
1,1,0.009060,-0.010240,0.013190*
1,1,0.009060,0.010240,0.013190*
1,1,0.009060,0.010240,-0.013190*
1,1,0.009060,-0.010240,-0.013190*
%
%AMM232*
21,1,0.021650,0.027950,-0.000000,-0.000000,180.000000*
21,1,0.014170,0.035430,-0.000000,-0.000000,180.000000*
1,1,0.007480,-0.007090,0.013980*
1,1,0.007480,0.007090,0.013980*
1,1,0.007480,0.007090,-0.013980*
1,1,0.007480,-0.007090,-0.013980*
%
%AMM233*
21,1,0.037400,0.026770,-0.000000,-0.000000,180.000000*
21,1,0.026770,0.037400,-0.000000,-0.000000,180.000000*
1,1,0.010630,-0.013390,0.013390*
1,1,0.010630,0.013390,0.013390*
1,1,0.010630,0.013390,-0.013390*
1,1,0.010630,-0.013390,-0.013390*
%
%AMM234*
21,1,0.082680,0.045670,-0.000000,-0.000000,0.000000*
21,1,0.067320,0.061020,-0.000000,-0.000000,0.000000*
1,1,0.015350,0.033660,-0.022840*
1,1,0.015350,-0.033660,-0.022840*
1,1,0.015350,-0.033660,0.022840*
1,1,0.015350,0.033660,0.022840*
%
%AMM235*
21,1,0.062990,0.020470,-0.000000,-0.000000,0.000000*
21,1,0.053940,0.029530,-0.000000,-0.000000,0.000000*
1,1,0.009060,0.026970,-0.010240*
1,1,0.009060,-0.026970,-0.010240*
1,1,0.009060,-0.026970,0.010240*
1,1,0.009060,0.026970,0.010240*
%
%AMM236*
21,1,0.039370,0.030320,-0.000000,-0.000000,0.000000*
21,1,0.028350,0.041340,-0.000000,-0.000000,0.000000*
1,1,0.011020,0.014170,-0.015160*
1,1,0.011020,-0.014170,-0.015160*
1,1,0.011020,-0.014170,0.015160*
1,1,0.011020,0.014170,0.015160*
%
%AMM237*
21,1,0.016540,0.028980,-0.000000,-0.000000,0.000000*
21,1,0.010080,0.035430,-0.000000,-0.000000,0.000000*
1,1,0.006460,0.005040,-0.014490*
1,1,0.006460,-0.005040,-0.014490*
1,1,0.006460,-0.005040,0.014490*
1,1,0.006460,0.005040,0.014490*
%
%AMM238*
21,1,0.074800,0.036220,-0.000000,-0.000000,180.000000*
21,1,0.061810,0.049210,-0.000000,-0.000000,180.000000*
1,1,0.012990,-0.030910,0.018110*
1,1,0.012990,0.030910,0.018110*
1,1,0.012990,0.030910,-0.018110*
1,1,0.012990,-0.030910,-0.018110*
%
%AMM239*
21,1,0.039760,0.026770,-0.000000,-0.000000,180.000000*
21,1,0.029130,0.037400,-0.000000,-0.000000,180.000000*
1,1,0.010630,-0.014570,0.013390*
1,1,0.010630,0.014570,0.013390*
1,1,0.010630,0.014570,-0.013390*
1,1,0.010630,-0.014570,-0.013390*
%
%AMM24*
21,1,0.029130,0.018900,0.000000,0.000000,90.000000*
21,1,0.018900,0.029130,0.000000,0.000000,90.000000*
1,1,0.010240,0.009450,0.009450*
1,1,0.010240,0.009450,-0.009450*
1,1,0.010240,-0.009450,-0.009450*
1,1,0.010240,-0.009450,0.009450*
%
%AMM240*
21,1,0.031500,0.049610,-0.000000,-0.000000,180.000000*
21,1,0.022050,0.059060,-0.000000,-0.000000,180.000000*
1,1,0.009450,-0.011020,0.024800*
1,1,0.009450,0.011020,0.024800*
1,1,0.009450,0.011020,-0.024800*
1,1,0.009450,-0.011020,-0.024800*
%
%AMM241*
21,1,0.074800,0.036220,-0.000000,-0.000000,270.000000*
21,1,0.061810,0.049210,-0.000000,-0.000000,270.000000*
1,1,0.012990,-0.018110,-0.030910*
1,1,0.012990,-0.018110,0.030910*
1,1,0.012990,0.018110,0.030910*
1,1,0.012990,0.018110,-0.030910*
%
%AMM242*
21,1,0.031500,0.030710,-0.000000,-0.000000,270.000000*
21,1,0.022050,0.040160,-0.000000,-0.000000,270.000000*
1,1,0.009450,-0.015350,-0.011020*
1,1,0.009450,-0.015350,0.011020*
1,1,0.009450,0.015350,0.011020*
1,1,0.009450,0.015350,-0.011020*
%
%AMM25*
21,1,0.025200,0.019680,0.000000,0.000000,0.000000*
21,1,0.015750,0.029130,0.000000,0.000000,0.000000*
1,1,0.009450,0.007870,-0.009840*
1,1,0.009450,-0.007870,-0.009840*
1,1,0.009450,-0.007870,0.009840*
1,1,0.009450,0.007870,0.009840*
%
%AMM26*
21,1,0.025200,0.019680,0.000000,0.000000,270.000000*
21,1,0.015750,0.029130,0.000000,0.000000,270.000000*
1,1,0.009450,-0.009840,-0.007870*
1,1,0.009450,-0.009840,0.007870*
1,1,0.009450,0.009840,0.007870*
1,1,0.009450,0.009840,-0.007870*
%
%AMM32*
21,1,0.029130,0.018900,0.000000,0.000000,0.000000*
21,1,0.018900,0.029130,0.000000,0.000000,0.000000*
1,1,0.010240,0.009450,-0.009450*
1,1,0.010240,-0.009450,-0.009450*
1,1,0.010240,-0.009450,0.009450*
1,1,0.010240,0.009450,0.009450*
%
%AMM33*
21,1,0.111810,0.050390,0.000000,0.000000,90.000000*
21,1,0.093700,0.068500,0.000000,0.000000,90.000000*
1,1,0.018110,0.025200,0.046850*
1,1,0.018110,0.025200,-0.046850*
1,1,0.018110,-0.025200,-0.046850*
1,1,0.018110,-0.025200,0.046850*
%
%AMM34*
21,1,0.038980,0.026770,0.000000,0.000000,270.000000*
21,1,0.026770,0.038980,0.000000,0.000000,270.000000*
1,1,0.012210,-0.013390,-0.013390*
1,1,0.012210,-0.013390,0.013390*
1,1,0.012210,0.013390,0.013390*
1,1,0.012210,0.013390,-0.013390*
%
%AMM35*
21,1,0.127560,0.075590,0.000000,0.000000,180.000000*
21,1,0.103150,0.100000,0.000000,0.000000,180.000000*
1,1,0.024410,-0.051580,0.037800*
1,1,0.024410,0.051580,0.037800*
1,1,0.024410,0.051580,-0.037800*
1,1,0.024410,-0.051580,-0.037800*
%
%AMM36*
21,1,0.123620,0.083460,0.000000,0.000000,0.000000*
21,1,0.097240,0.109840,0.000000,0.000000,0.000000*
1,1,0.026380,0.048620,-0.041730*
1,1,0.026380,-0.048620,-0.041730*
1,1,0.026380,-0.048620,0.041730*
1,1,0.026380,0.048620,0.041730*
%
%ADD11C,0.06693*%
%ADD123M20*%
%ADD124M21*%
%ADD127M24*%
%ADD128M25*%
%ADD129M26*%
%ADD130C,0.02913*%
%ADD131C,0.06457*%
%ADD139M32*%
%ADD140M33*%
%ADD141M34*%
%ADD142O,0.02520X0.09213*%
%ADD143M35*%
%ADD144M36*%
%ADD161C,0.05118*%
%ADD174C,0.03900*%
%ADD21C,0.07874*%
%ADD22C,0.03150*%
%ADD229C,0.04724*%
%ADD23C,0.25197*%
%ADD230C,0.04294*%
%ADD24C,0.06000*%
%ADD25O,0.07283X0.06693*%
%ADD255R,0.01772X0.01870*%
%ADD257O,0.05354X0.01378*%
%ADD26C,0.02362*%
%ADD260R,0.09843X0.07087*%
%ADD261R,0.01870X0.01772*%
%ADD263R,0.04331X0.04724*%
%ADD305M123*%
%ADD306M124*%
%ADD307M125*%
%ADD308M126*%
%ADD312R,0.07874X0.07500*%
%ADD313O,0.07874X0.07500*%
%ADD315R,0.01772X0.05709*%
%ADD316R,0.02559X0.04803*%
%ADD32R,0.04331X0.04331*%
%ADD33C,0.04331*%
%ADD34O,0.09449X0.04331*%
%ADD37C,0.05906*%
%ADD411M201*%
%ADD412M202*%
%ADD415M205*%
%ADD417M207*%
%ADD419M209*%
%ADD422M212*%
%ADD440M230*%
%ADD441M231*%
%ADD442M232*%
%ADD443M233*%
%ADD444M234*%
%ADD445M235*%
%ADD446M236*%
%ADD447M237*%
%ADD448M238*%
%ADD449M239*%
%ADD450M240*%
%ADD451M241*%
%ADD452M242*%
%ADD69O,0.03937X0.08268*%
%ADD70O,0.03937X0.06299*%
%ADD71R,0.06693X0.06693*%
%ADD72O,0.06693X0.06693*%
%ADD73C,0.13000*%
%ADD75C,0.12992*%
%ADD80C,0.00472*%
%ADD81C,0.09055*%
%ADD82C,0.02559*%
%ADD98R,0.09055X0.17323*%
%ADD99R,0.09055X0.15748*%
X0000000Y0000000D02*
%LPD*%
G01*
D80*
X0520984Y0028445D02*
X0469803Y0028445D01*
X0469803Y0056004D01*
X0520984Y0056004D01*
X0520984Y0028445D01*
G36*
X0520984Y0028445D02*
G01*
X0469803Y0028445D01*
X0469803Y0056004D01*
X0520984Y0056004D01*
X0520984Y0028445D01*
G37*
D11*
X0458189Y0075984D03*
X0294410Y0181102D03*
X0256614Y0226378D03*
D75*
X0066457Y0369980D03*
D81*
X0063504Y0350295D03*
X0063504Y0234154D03*
D75*
X0066457Y0214469D03*
D21*
X0088110Y0339469D03*
X0088110Y0327657D03*
X0088110Y0315846D03*
X0088110Y0304035D03*
X0088110Y0292224D03*
X0088110Y0280413D03*
X0088110Y0268602D03*
X0088110Y0256791D03*
X0088110Y0244980D03*
X0074331Y0333563D03*
X0074331Y0321752D03*
X0074331Y0309941D03*
X0074331Y0298130D03*
X0074331Y0286319D03*
X0074331Y0274508D03*
X0074331Y0262697D03*
X0074331Y0250886D03*
X0058583Y0333563D03*
X0058583Y0321752D03*
X0058583Y0309941D03*
X0058583Y0298130D03*
X0058583Y0286319D03*
X0058583Y0274508D03*
X0058583Y0262697D03*
X0058583Y0250886D03*
X0044803Y0339469D03*
X0044803Y0327657D03*
X0044803Y0315846D03*
X0044803Y0304035D03*
X0044803Y0292224D03*
X0044803Y0280413D03*
X0044803Y0268602D03*
X0044803Y0256791D03*
X0044803Y0244980D03*
D11*
X0268032Y0226378D03*
X0152441Y0045276D03*
D22*
X0134961Y0379921D03*
X0137728Y0386603D03*
X0137728Y0373240D03*
X0144410Y0389370D03*
D23*
X0144410Y0379921D03*
D22*
X0144410Y0370472D03*
X0151091Y0386603D03*
X0151091Y0373240D03*
X0153858Y0379921D03*
X0501102Y0379921D03*
X0503870Y0386603D03*
X0503870Y0373240D03*
X0510551Y0389370D03*
D23*
X0510551Y0379921D03*
D22*
X0510551Y0370472D03*
X0517233Y0386603D03*
X0517233Y0373240D03*
X0520000Y0379921D03*
D24*
X0203071Y0076575D03*
X0203071Y0057283D03*
G36*
G01*
X0460059Y0008465D02*
X0454744Y0008465D01*
G75*
G02*
X0453760Y0009449I0000000J0000984D01*
G01*
X0453760Y0014173D01*
G75*
G02*
X0454744Y0015157I0000984J0000000D01*
G01*
X0460059Y0015157D01*
G75*
G02*
X0461043Y0014173I0000000J-000984D01*
G01*
X0461043Y0009449D01*
G75*
G02*
X0460059Y0008465I-000984J0000000D01*
G01*
G37*
D25*
X0457402Y0021654D03*
X0457402Y0031496D03*
X0457402Y0041339D03*
X0457402Y0051181D03*
D11*
X0376693Y0029528D03*
D22*
X0134961Y0013780D03*
X0137728Y0020461D03*
X0137728Y0007098D03*
X0144410Y0023228D03*
D23*
X0144410Y0013780D03*
D22*
X0144410Y0004331D03*
X0151091Y0020461D03*
X0151091Y0007098D03*
X0153858Y0013780D03*
D26*
X0324232Y0246752D03*
X0319508Y0246752D03*
X0328957Y0246752D03*
X0333681Y0246752D03*
X0308248Y0303543D03*
X0304311Y0303543D03*
D11*
X0142441Y0045276D03*
D32*
X0363898Y0012205D03*
D33*
X0357008Y0015354D03*
X0363898Y0018504D03*
X0357008Y0021654D03*
X0363898Y0024803D03*
D34*
X0360453Y0004134D03*
X0360453Y0032874D03*
D24*
X0211732Y0076575D03*
X0211732Y0057283D03*
D26*
X0443917Y0287894D03*
X0440177Y0287894D03*
X0436437Y0287894D03*
X0440374Y0322146D03*
X0443917Y0322146D03*
D11*
X0221181Y0043307D03*
D75*
X0066949Y0174902D03*
D81*
X0063996Y0155217D03*
X0063996Y0039075D03*
D75*
X0066949Y0019390D03*
D21*
X0088602Y0144390D03*
X0088602Y0132579D03*
X0088602Y0120768D03*
X0088602Y0108957D03*
X0088602Y0097146D03*
X0088602Y0085335D03*
X0088602Y0073524D03*
X0088602Y0061713D03*
X0088602Y0049902D03*
X0074823Y0138484D03*
X0074823Y0126673D03*
X0074823Y0114862D03*
X0074823Y0103051D03*
X0074823Y0091240D03*
X0074823Y0079429D03*
X0074823Y0067618D03*
X0074823Y0055807D03*
X0059075Y0138484D03*
X0059075Y0126673D03*
X0059075Y0114862D03*
X0059075Y0103051D03*
X0059075Y0091240D03*
X0059075Y0079429D03*
X0059075Y0067618D03*
X0059075Y0055807D03*
X0045295Y0144390D03*
X0045295Y0132579D03*
X0045295Y0120768D03*
X0045295Y0108957D03*
X0045295Y0097146D03*
X0045295Y0085335D03*
X0045295Y0073524D03*
X0045295Y0061713D03*
X0045295Y0049902D03*
D37*
X0291555Y0081988D03*
X0291555Y0056791D03*
X0291555Y0049311D03*
X0291555Y0032382D03*
D26*
X0293327Y0022933D03*
X0293327Y0018996D03*
D37*
X0291555Y0007776D03*
X0230532Y0083760D03*
X0230532Y0076476D03*
X0230532Y0056988D03*
X0230532Y0009547D03*
D11*
X0284410Y0181102D03*
D26*
X0256614Y0184941D03*
X0258681Y0188386D03*
X0261634Y0183760D03*
X0275610Y0184055D03*
D24*
X0220394Y0076575D03*
X0220394Y0057283D03*
D11*
X0286142Y0196693D03*
X0286142Y0206693D03*
X0286142Y0216693D03*
X0286142Y0226693D03*
X0286142Y0236693D03*
X0296142Y0196693D03*
X0296142Y0206693D03*
X0296142Y0216693D03*
X0296142Y0226693D03*
X0296142Y0236693D03*
X0306142Y0196693D03*
X0306142Y0206693D03*
X0306142Y0216693D03*
X0306142Y0226693D03*
X0306142Y0236693D03*
X0376693Y0009843D03*
D24*
X0301790Y0025491D03*
X0301790Y0010491D03*
D11*
X0458189Y0094488D03*
D82*
X0316102Y0026004D03*
X0338858Y0026004D03*
D69*
X0310473Y0027972D03*
D70*
X0310473Y0011516D03*
D69*
X0344488Y0027972D03*
D70*
X0344488Y0011516D03*
D22*
X0501102Y0013780D03*
X0503870Y0020461D03*
X0503870Y0007098D03*
X0510551Y0023228D03*
D23*
X0510551Y0013780D03*
D22*
X0510551Y0004331D03*
X0517233Y0020461D03*
X0517233Y0007098D03*
X0520000Y0013780D03*
D26*
X0280728Y0246752D03*
X0276004Y0246752D03*
X0285453Y0246752D03*
X0290177Y0246752D03*
X0264744Y0303543D03*
X0260807Y0303543D03*
D24*
X0203661Y0088976D03*
X0222953Y0088976D03*
D71*
X0517047Y0149213D03*
D72*
X0507047Y0149213D03*
X0497047Y0149213D03*
X0487047Y0149213D03*
X0477047Y0149213D03*
X0467047Y0149213D03*
D73*
X0414895Y0296969D03*
X0414895Y0206969D03*
D24*
X0364895Y0276969D03*
X0364895Y0266969D03*
X0364895Y0256969D03*
X0364895Y0246969D03*
X0364895Y0236969D03*
X0364895Y0226969D03*
D11*
X0162441Y0045276D03*
X0316142Y0196693D03*
X0316142Y0206693D03*
X0316142Y0216693D03*
X0316142Y0226693D03*
X0316142Y0236693D03*
X0326142Y0196693D03*
X0326142Y0206693D03*
X0326142Y0216693D03*
X0326142Y0226693D03*
X0326142Y0236693D03*
X0336142Y0196693D03*
X0336142Y0206693D03*
X0336142Y0216693D03*
X0336142Y0226693D03*
X0336142Y0236693D03*
G36*
G01*
X0344803Y0319910D02*
X0345984Y0319910D01*
G75*
G02*
X0346575Y0319319I0000000J-000591D01*
G01*
X0346575Y0314693D01*
G75*
G02*
X0345984Y0314102I-000591J0000000D01*
G01*
X0344803Y0314102D01*
G75*
G02*
X0344213Y0314693I0000000J0000591D01*
G01*
X0344213Y0319319D01*
G75*
G02*
X0344803Y0319910I0000591J0000000D01*
G01*
G37*
G36*
G01*
X0352284Y0319910D02*
X0353465Y0319910D01*
G75*
G02*
X0354055Y0319319I0000000J-000591D01*
G01*
X0354055Y0314693D01*
G75*
G02*
X0353465Y0314102I-000591J0000000D01*
G01*
X0352284Y0314102D01*
G75*
G02*
X0351693Y0314693I0000000J0000591D01*
G01*
X0351693Y0319319D01*
G75*
G02*
X0352284Y0319910I0000591J0000000D01*
G01*
G37*
G36*
G01*
X0348543Y0312528D02*
X0349724Y0312528D01*
G75*
G02*
X0350315Y0311937I0000000J-000591D01*
G01*
X0350315Y0307311D01*
G75*
G02*
X0349724Y0306721I-000591J0000000D01*
G01*
X0348543Y0306721D01*
G75*
G02*
X0347953Y0307311I0000000J0000591D01*
G01*
X0347953Y0311937D01*
G75*
G02*
X0348543Y0312528I0000591J0000000D01*
G01*
G37*
G36*
G01*
X0180433Y0052992D02*
X0176299Y0052992D01*
G75*
G02*
X0175906Y0053386I0000000J0000394D01*
G01*
X0175906Y0056535D01*
G75*
G02*
X0176299Y0056929I0000394J0000000D01*
G01*
X0180433Y0056929D01*
G75*
G02*
X0180827Y0056535I0000000J-000394D01*
G01*
X0180827Y0053386D01*
G75*
G02*
X0180433Y0052992I-000394J0000000D01*
G01*
G37*
G36*
G01*
X0180433Y0060866D02*
X0176299Y0060866D01*
G75*
G02*
X0175906Y0061260I0000000J0000394D01*
G01*
X0175906Y0064409D01*
G75*
G02*
X0176299Y0064803I0000394J0000000D01*
G01*
X0180433Y0064803D01*
G75*
G02*
X0180827Y0064409I0000000J-000394D01*
G01*
X0180827Y0061260D01*
G75*
G02*
X0180433Y0060866I-000394J0000000D01*
G01*
G37*
G36*
G01*
X0372599Y0261083D02*
X0375276Y0261083D01*
G75*
G02*
X0375610Y0260748I0000000J-000335D01*
G01*
X0375610Y0258071D01*
G75*
G02*
X0375276Y0257736I-000335J0000000D01*
G01*
X0372599Y0257736D01*
G75*
G02*
X0372264Y0258071I0000000J0000335D01*
G01*
X0372264Y0260748D01*
G75*
G02*
X0372599Y0261083I0000335J0000000D01*
G01*
G37*
G36*
G01*
X0372599Y0254862D02*
X0375276Y0254862D01*
G75*
G02*
X0375610Y0254528I0000000J-000335D01*
G01*
X0375610Y0251850D01*
G75*
G02*
X0375276Y0251516I-000335J0000000D01*
G01*
X0372599Y0251516D01*
G75*
G02*
X0372264Y0251850I0000000J0000335D01*
G01*
X0372264Y0254528D01*
G75*
G02*
X0372599Y0254862I0000335J0000000D01*
G01*
G37*
G36*
G01*
X0207441Y0298819D02*
X0203425Y0298819D01*
G75*
G02*
X0203071Y0299173I0000000J0000354D01*
G01*
X0203071Y0302008D01*
G75*
G02*
X0203425Y0302362I0000354J0000000D01*
G01*
X0207441Y0302362D01*
G75*
G02*
X0207795Y0302008I0000000J-000354D01*
G01*
X0207795Y0299173D01*
G75*
G02*
X0207441Y0298819I-000354J0000000D01*
G01*
G37*
G36*
G01*
X0207441Y0311811D02*
X0203425Y0311811D01*
G75*
G02*
X0203071Y0312165I0000000J0000354D01*
G01*
X0203071Y0315000D01*
G75*
G02*
X0203425Y0315354I0000354J0000000D01*
G01*
X0207441Y0315354D01*
G75*
G02*
X0207795Y0315000I0000000J-000354D01*
G01*
X0207795Y0312165D01*
G75*
G02*
X0207441Y0311811I-000354J0000000D01*
G01*
G37*
D37*
X0492835Y0085040D03*
X0492835Y0114567D03*
D98*
X0492835Y0068898D03*
D99*
X0492835Y0131890D03*
G36*
G01*
X0134941Y0247638D02*
X0136122Y0247638D01*
G75*
G02*
X0136713Y0247047I0000000J-000591D01*
G01*
X0136713Y0240551D01*
G75*
G02*
X0136122Y0239961I-000591J0000000D01*
G01*
X0134941Y0239961D01*
G75*
G02*
X0134350Y0240551I0000000J0000591D01*
G01*
X0134350Y0247047D01*
G75*
G02*
X0134941Y0247638I0000591J0000000D01*
G01*
G37*
G36*
G01*
X0139941Y0247638D02*
X0141122Y0247638D01*
G75*
G02*
X0141713Y0247047I0000000J-000591D01*
G01*
X0141713Y0240551D01*
G75*
G02*
X0141122Y0239961I-000591J0000000D01*
G01*
X0139941Y0239961D01*
G75*
G02*
X0139350Y0240551I0000000J0000591D01*
G01*
X0139350Y0247047D01*
G75*
G02*
X0139941Y0247638I0000591J0000000D01*
G01*
G37*
G36*
G01*
X0144941Y0247638D02*
X0146122Y0247638D01*
G75*
G02*
X0146713Y0247047I0000000J-000591D01*
G01*
X0146713Y0240551D01*
G75*
G02*
X0146122Y0239961I-000591J0000000D01*
G01*
X0144941Y0239961D01*
G75*
G02*
X0144350Y0240551I0000000J0000591D01*
G01*
X0144350Y0247047D01*
G75*
G02*
X0144941Y0247638I0000591J0000000D01*
G01*
G37*
G36*
G01*
X0149941Y0247638D02*
X0151122Y0247638D01*
G75*
G02*
X0151713Y0247047I0000000J-000591D01*
G01*
X0151713Y0240551D01*
G75*
G02*
X0151122Y0239961I-000591J0000000D01*
G01*
X0149941Y0239961D01*
G75*
G02*
X0149350Y0240551I0000000J0000591D01*
G01*
X0149350Y0247047D01*
G75*
G02*
X0149941Y0247638I0000591J0000000D01*
G01*
G37*
G36*
G01*
X0149941Y0228150D02*
X0151122Y0228150D01*
G75*
G02*
X0151713Y0227559I0000000J-000591D01*
G01*
X0151713Y0221063D01*
G75*
G02*
X0151122Y0220472I-000591J0000000D01*
G01*
X0149941Y0220472D01*
G75*
G02*
X0149350Y0221063I0000000J0000591D01*
G01*
X0149350Y0227559D01*
G75*
G02*
X0149941Y0228150I0000591J0000000D01*
G01*
G37*
G36*
G01*
X0144941Y0228150D02*
X0146122Y0228150D01*
G75*
G02*
X0146713Y0227559I0000000J-000591D01*
G01*
X0146713Y0221063D01*
G75*
G02*
X0146122Y0220472I-000591J0000000D01*
G01*
X0144941Y0220472D01*
G75*
G02*
X0144350Y0221063I0000000J0000591D01*
G01*
X0144350Y0227559D01*
G75*
G02*
X0144941Y0228150I0000591J0000000D01*
G01*
G37*
G36*
G01*
X0139941Y0228150D02*
X0141122Y0228150D01*
G75*
G02*
X0141713Y0227559I0000000J-000591D01*
G01*
X0141713Y0221063D01*
G75*
G02*
X0141122Y0220472I-000591J0000000D01*
G01*
X0139941Y0220472D01*
G75*
G02*
X0139350Y0221063I0000000J0000591D01*
G01*
X0139350Y0227559D01*
G75*
G02*
X0139941Y0228150I0000591J0000000D01*
G01*
G37*
G36*
G01*
X0134941Y0228150D02*
X0136122Y0228150D01*
G75*
G02*
X0136713Y0227559I0000000J-000591D01*
G01*
X0136713Y0221063D01*
G75*
G02*
X0136122Y0220472I-000591J0000000D01*
G01*
X0134941Y0220472D01*
G75*
G02*
X0134350Y0221063I0000000J0000591D01*
G01*
X0134350Y0227559D01*
G75*
G02*
X0134941Y0228150I0000591J0000000D01*
G01*
G37*
G36*
G01*
X0142205Y0160039D02*
X0139134Y0160039D01*
G75*
G02*
X0138858Y0160315I0000000J0000276D01*
G01*
X0138858Y0162520D01*
G75*
G02*
X0139134Y0162795I0000276J0000000D01*
G01*
X0142205Y0162795D01*
G75*
G02*
X0142480Y0162520I0000000J-000276D01*
G01*
X0142480Y0160315D01*
G75*
G02*
X0142205Y0160039I-000276J0000000D01*
G01*
G37*
G36*
G01*
X0142205Y0166339D02*
X0139134Y0166339D01*
G75*
G02*
X0138858Y0166614I0000000J0000276D01*
G01*
X0138858Y0168819D01*
G75*
G02*
X0139134Y0169094I0000276J0000000D01*
G01*
X0142205Y0169094D01*
G75*
G02*
X0142480Y0168819I0000000J-000276D01*
G01*
X0142480Y0166614D01*
G75*
G02*
X0142205Y0166339I-000276J0000000D01*
G01*
G37*
G36*
G01*
X0360571Y0326535D02*
X0360571Y0323858D01*
G75*
G02*
X0360236Y0323524I-000335J0000000D01*
G01*
X0357559Y0323524D01*
G75*
G02*
X0357224Y0323858I0000000J0000335D01*
G01*
X0357224Y0326535D01*
G75*
G02*
X0357559Y0326870I0000335J0000000D01*
G01*
X0360236Y0326870D01*
G75*
G02*
X0360571Y0326535I0000000J-000335D01*
G01*
G37*
G36*
G01*
X0354350Y0326535D02*
X0354350Y0323858D01*
G75*
G02*
X0354016Y0323524I-000335J0000000D01*
G01*
X0351339Y0323524D01*
G75*
G02*
X0351004Y0323858I0000000J0000335D01*
G01*
X0351004Y0326535D01*
G75*
G02*
X0351339Y0326870I0000335J0000000D01*
G01*
X0354016Y0326870D01*
G75*
G02*
X0354350Y0326535I0000000J-000335D01*
G01*
G37*
G36*
G01*
X0156811Y0052992D02*
X0152677Y0052992D01*
G75*
G02*
X0152284Y0053386I0000000J0000394D01*
G01*
X0152284Y0056535D01*
G75*
G02*
X0152677Y0056929I0000394J0000000D01*
G01*
X0156811Y0056929D01*
G75*
G02*
X0157205Y0056535I0000000J-000394D01*
G01*
X0157205Y0053386D01*
G75*
G02*
X0156811Y0052992I-000394J0000000D01*
G01*
G37*
G36*
G01*
X0156811Y0060866D02*
X0152677Y0060866D01*
G75*
G02*
X0152284Y0061260I0000000J0000394D01*
G01*
X0152284Y0064409D01*
G75*
G02*
X0152677Y0064803I0000394J0000000D01*
G01*
X0156811Y0064803D01*
G75*
G02*
X0157205Y0064409I0000000J-000394D01*
G01*
X0157205Y0061260D01*
G75*
G02*
X0156811Y0060866I-000394J0000000D01*
G01*
G37*
G36*
G01*
X0511181Y0138642D02*
X0513858Y0138642D01*
G75*
G02*
X0514193Y0138307I0000000J-000335D01*
G01*
X0514193Y0135630D01*
G75*
G02*
X0513858Y0135295I-000335J0000000D01*
G01*
X0511181Y0135295D01*
G75*
G02*
X0510847Y0135630I0000000J0000335D01*
G01*
X0510847Y0138307D01*
G75*
G02*
X0511181Y0138642I0000335J0000000D01*
G01*
G37*
G36*
G01*
X0511181Y0132421D02*
X0513858Y0132421D01*
G75*
G02*
X0514193Y0132087I0000000J-000335D01*
G01*
X0514193Y0129409D01*
G75*
G02*
X0513858Y0129075I-000335J0000000D01*
G01*
X0511181Y0129075D01*
G75*
G02*
X0510847Y0129409I0000000J0000335D01*
G01*
X0510847Y0132087D01*
G75*
G02*
X0511181Y0132421I0000335J0000000D01*
G01*
G37*
G36*
G01*
X0344350Y0302134D02*
X0344350Y0304811D01*
G75*
G02*
X0344685Y0305146I0000335J0000000D01*
G01*
X0347362Y0305146D01*
G75*
G02*
X0347697Y0304811I0000000J-000335D01*
G01*
X0347697Y0302134D01*
G75*
G02*
X0347362Y0301799I-000335J0000000D01*
G01*
X0344685Y0301799D01*
G75*
G02*
X0344350Y0302134I0000000J0000335D01*
G01*
G37*
G36*
G01*
X0350571Y0302134D02*
X0350571Y0304811D01*
G75*
G02*
X0350906Y0305146I0000335J0000000D01*
G01*
X0353583Y0305146D01*
G75*
G02*
X0353917Y0304811I0000000J-000335D01*
G01*
X0353917Y0302134D01*
G75*
G02*
X0353583Y0301799I-000335J0000000D01*
G01*
X0350906Y0301799D01*
G75*
G02*
X0350571Y0302134I0000000J0000335D01*
G01*
G37*
G36*
G01*
X0155394Y0160039D02*
X0152323Y0160039D01*
G75*
G02*
X0152047Y0160315I0000000J0000276D01*
G01*
X0152047Y0162520D01*
G75*
G02*
X0152323Y0162795I0000276J0000000D01*
G01*
X0155394Y0162795D01*
G75*
G02*
X0155669Y0162520I0000000J-000276D01*
G01*
X0155669Y0160315D01*
G75*
G02*
X0155394Y0160039I-000276J0000000D01*
G01*
G37*
G36*
G01*
X0155394Y0166339D02*
X0152323Y0166339D01*
G75*
G02*
X0152047Y0166614I0000000J0000276D01*
G01*
X0152047Y0168819D01*
G75*
G02*
X0152323Y0169094I0000276J0000000D01*
G01*
X0155394Y0169094D01*
G75*
G02*
X0155669Y0168819I0000000J-000276D01*
G01*
X0155669Y0166614D01*
G75*
G02*
X0155394Y0166339I-000276J0000000D01*
G01*
G37*
G36*
G01*
X0193917Y0043307D02*
X0198051Y0043307D01*
G75*
G02*
X0198445Y0042913I0000000J-000394D01*
G01*
X0198445Y0039764D01*
G75*
G02*
X0198051Y0039370I-000394J0000000D01*
G01*
X0193917Y0039370D01*
G75*
G02*
X0193524Y0039764I0000000J0000394D01*
G01*
X0193524Y0042913D01*
G75*
G02*
X0193917Y0043307I0000394J0000000D01*
G01*
G37*
G36*
G01*
X0193917Y0035433D02*
X0198051Y0035433D01*
G75*
G02*
X0198445Y0035039I0000000J-000394D01*
G01*
X0198445Y0031890D01*
G75*
G02*
X0198051Y0031496I-000394J0000000D01*
G01*
X0193917Y0031496D01*
G75*
G02*
X0193524Y0031890I0000000J0000394D01*
G01*
X0193524Y0035039D01*
G75*
G02*
X0193917Y0035433I0000394J0000000D01*
G01*
G37*
G36*
G01*
X0238799Y0251280D02*
X0238799Y0240059D01*
G75*
G02*
X0237815Y0239075I-000984J0000000D01*
G01*
X0234961Y0239075D01*
G75*
G02*
X0233976Y0240059I0000000J0000984D01*
G01*
X0233976Y0251280D01*
G75*
G02*
X0234961Y0252264I0000984J0000000D01*
G01*
X0237815Y0252264D01*
G75*
G02*
X0238799Y0251280I0000000J-000984D01*
G01*
G37*
G36*
G01*
X0215473Y0251280D02*
X0215473Y0240059D01*
G75*
G02*
X0214488Y0239075I-000984J0000000D01*
G01*
X0211634Y0239075D01*
G75*
G02*
X0210650Y0240059I0000000J0000984D01*
G01*
X0210650Y0251280D01*
G75*
G02*
X0211634Y0252264I0000984J0000000D01*
G01*
X0214488Y0252264D01*
G75*
G02*
X0215473Y0251280I0000000J-000984D01*
G01*
G37*
G36*
G01*
X0160551Y0080551D02*
X0164685Y0080551D01*
G75*
G02*
X0165079Y0080157I0000000J-000394D01*
G01*
X0165079Y0077008D01*
G75*
G02*
X0164685Y0076614I-000394J0000000D01*
G01*
X0160551Y0076614D01*
G75*
G02*
X0160158Y0077008I0000000J0000394D01*
G01*
X0160158Y0080157D01*
G75*
G02*
X0160551Y0080551I0000394J0000000D01*
G01*
G37*
G36*
G01*
X0160551Y0072677D02*
X0164685Y0072677D01*
G75*
G02*
X0165079Y0072283I0000000J-000394D01*
G01*
X0165079Y0069134D01*
G75*
G02*
X0164685Y0068740I-000394J0000000D01*
G01*
X0160551Y0068740D01*
G75*
G02*
X0160158Y0069134I0000000J0000394D01*
G01*
X0160158Y0072283D01*
G75*
G02*
X0160551Y0072677I0000394J0000000D01*
G01*
G37*
G36*
G01*
X0205925Y0015748D02*
X0201791Y0015748D01*
G75*
G02*
X0201398Y0016142I0000000J0000394D01*
G01*
X0201398Y0019291D01*
G75*
G02*
X0201791Y0019685I0000394J0000000D01*
G01*
X0205925Y0019685D01*
G75*
G02*
X0206319Y0019291I0000000J-000394D01*
G01*
X0206319Y0016142D01*
G75*
G02*
X0205925Y0015748I-000394J0000000D01*
G01*
G37*
G36*
G01*
X0205925Y0023622D02*
X0201791Y0023622D01*
G75*
G02*
X0201398Y0024016I0000000J0000394D01*
G01*
X0201398Y0027165D01*
G75*
G02*
X0201791Y0027559I0000394J0000000D01*
G01*
X0205925Y0027559D01*
G75*
G02*
X0206319Y0027165I0000000J-000394D01*
G01*
X0206319Y0024016D01*
G75*
G02*
X0205925Y0023622I-000394J0000000D01*
G01*
G37*
G36*
G01*
X0341043Y0296260D02*
X0342224Y0296260D01*
G75*
G02*
X0342815Y0295669I0000000J-000591D01*
G01*
X0342815Y0289173D01*
G75*
G02*
X0342224Y0288583I-000591J0000000D01*
G01*
X0341043Y0288583D01*
G75*
G02*
X0340453Y0289173I0000000J0000591D01*
G01*
X0340453Y0295669D01*
G75*
G02*
X0341043Y0296260I0000591J0000000D01*
G01*
G37*
G36*
G01*
X0346043Y0296260D02*
X0347224Y0296260D01*
G75*
G02*
X0347815Y0295669I0000000J-000591D01*
G01*
X0347815Y0289173D01*
G75*
G02*
X0347224Y0288583I-000591J0000000D01*
G01*
X0346043Y0288583D01*
G75*
G02*
X0345453Y0289173I0000000J0000591D01*
G01*
X0345453Y0295669D01*
G75*
G02*
X0346043Y0296260I0000591J0000000D01*
G01*
G37*
G36*
G01*
X0351043Y0296260D02*
X0352224Y0296260D01*
G75*
G02*
X0352815Y0295669I0000000J-000591D01*
G01*
X0352815Y0289173D01*
G75*
G02*
X0352224Y0288583I-000591J0000000D01*
G01*
X0351043Y0288583D01*
G75*
G02*
X0350453Y0289173I0000000J0000591D01*
G01*
X0350453Y0295669D01*
G75*
G02*
X0351043Y0296260I0000591J0000000D01*
G01*
G37*
G36*
G01*
X0356043Y0296260D02*
X0357224Y0296260D01*
G75*
G02*
X0357815Y0295669I0000000J-000591D01*
G01*
X0357815Y0289173D01*
G75*
G02*
X0357224Y0288583I-000591J0000000D01*
G01*
X0356043Y0288583D01*
G75*
G02*
X0355453Y0289173I0000000J0000591D01*
G01*
X0355453Y0295669D01*
G75*
G02*
X0356043Y0296260I0000591J0000000D01*
G01*
G37*
G36*
G01*
X0356043Y0276772D02*
X0357224Y0276772D01*
G75*
G02*
X0357815Y0276181I0000000J-000591D01*
G01*
X0357815Y0269685D01*
G75*
G02*
X0357224Y0269094I-000591J0000000D01*
G01*
X0356043Y0269094D01*
G75*
G02*
X0355453Y0269685I0000000J0000591D01*
G01*
X0355453Y0276181D01*
G75*
G02*
X0356043Y0276772I0000591J0000000D01*
G01*
G37*
G36*
G01*
X0351043Y0276772D02*
X0352224Y0276772D01*
G75*
G02*
X0352815Y0276181I0000000J-000591D01*
G01*
X0352815Y0269685D01*
G75*
G02*
X0352224Y0269094I-000591J0000000D01*
G01*
X0351043Y0269094D01*
G75*
G02*
X0350453Y0269685I0000000J0000591D01*
G01*
X0350453Y0276181D01*
G75*
G02*
X0351043Y0276772I0000591J0000000D01*
G01*
G37*
G36*
G01*
X0346043Y0276772D02*
X0347224Y0276772D01*
G75*
G02*
X0347815Y0276181I0000000J-000591D01*
G01*
X0347815Y0269685D01*
G75*
G02*
X0347224Y0269094I-000591J0000000D01*
G01*
X0346043Y0269094D01*
G75*
G02*
X0345453Y0269685I0000000J0000591D01*
G01*
X0345453Y0276181D01*
G75*
G02*
X0346043Y0276772I0000591J0000000D01*
G01*
G37*
G36*
G01*
X0341043Y0276772D02*
X0342224Y0276772D01*
G75*
G02*
X0342815Y0276181I0000000J-000591D01*
G01*
X0342815Y0269685D01*
G75*
G02*
X0342224Y0269094I-000591J0000000D01*
G01*
X0341043Y0269094D01*
G75*
G02*
X0340453Y0269685I0000000J0000591D01*
G01*
X0340453Y0276181D01*
G75*
G02*
X0341043Y0276772I0000591J0000000D01*
G01*
G37*
G36*
G01*
X0144803Y0080551D02*
X0148937Y0080551D01*
G75*
G02*
X0149331Y0080157I0000000J-000394D01*
G01*
X0149331Y0077008D01*
G75*
G02*
X0148937Y0076614I-000394J0000000D01*
G01*
X0144803Y0076614D01*
G75*
G02*
X0144410Y0077008I0000000J0000394D01*
G01*
X0144410Y0080157D01*
G75*
G02*
X0144803Y0080551I0000394J0000000D01*
G01*
G37*
G36*
G01*
X0144803Y0072677D02*
X0148937Y0072677D01*
G75*
G02*
X0149331Y0072283I0000000J-000394D01*
G01*
X0149331Y0069134D01*
G75*
G02*
X0148937Y0068740I-000394J0000000D01*
G01*
X0144803Y0068740D01*
G75*
G02*
X0144410Y0069134I0000000J0000394D01*
G01*
X0144410Y0072283D01*
G75*
G02*
X0144803Y0072677I0000394J0000000D01*
G01*
G37*
G36*
G01*
X0238799Y0168602D02*
X0238799Y0157382D01*
G75*
G02*
X0237815Y0156398I-000984J0000000D01*
G01*
X0234961Y0156398D01*
G75*
G02*
X0233976Y0157382I0000000J0000984D01*
G01*
X0233976Y0168602D01*
G75*
G02*
X0234961Y0169587I0000984J0000000D01*
G01*
X0237815Y0169587D01*
G75*
G02*
X0238799Y0168602I0000000J-000984D01*
G01*
G37*
G36*
G01*
X0215473Y0168602D02*
X0215473Y0157382D01*
G75*
G02*
X0214488Y0156398I-000984J0000000D01*
G01*
X0211634Y0156398D01*
G75*
G02*
X0210650Y0157382I0000000J0000984D01*
G01*
X0210650Y0168602D01*
G75*
G02*
X0211634Y0169587I0000984J0000000D01*
G01*
X0214488Y0169587D01*
G75*
G02*
X0215473Y0168602I0000000J-000984D01*
G01*
G37*
G36*
G01*
X0134941Y0213976D02*
X0136122Y0213976D01*
G75*
G02*
X0136713Y0213386I0000000J-000591D01*
G01*
X0136713Y0206890D01*
G75*
G02*
X0136122Y0206299I-000591J0000000D01*
G01*
X0134941Y0206299D01*
G75*
G02*
X0134350Y0206890I0000000J0000591D01*
G01*
X0134350Y0213386D01*
G75*
G02*
X0134941Y0213976I0000591J0000000D01*
G01*
G37*
G36*
G01*
X0139941Y0213976D02*
X0141122Y0213976D01*
G75*
G02*
X0141713Y0213386I0000000J-000591D01*
G01*
X0141713Y0206890D01*
G75*
G02*
X0141122Y0206299I-000591J0000000D01*
G01*
X0139941Y0206299D01*
G75*
G02*
X0139350Y0206890I0000000J0000591D01*
G01*
X0139350Y0213386D01*
G75*
G02*
X0139941Y0213976I0000591J0000000D01*
G01*
G37*
G36*
G01*
X0144941Y0213976D02*
X0146122Y0213976D01*
G75*
G02*
X0146713Y0213386I0000000J-000591D01*
G01*
X0146713Y0206890D01*
G75*
G02*
X0146122Y0206299I-000591J0000000D01*
G01*
X0144941Y0206299D01*
G75*
G02*
X0144350Y0206890I0000000J0000591D01*
G01*
X0144350Y0213386D01*
G75*
G02*
X0144941Y0213976I0000591J0000000D01*
G01*
G37*
G36*
G01*
X0149941Y0213976D02*
X0151122Y0213976D01*
G75*
G02*
X0151713Y0213386I0000000J-000591D01*
G01*
X0151713Y0206890D01*
G75*
G02*
X0151122Y0206299I-000591J0000000D01*
G01*
X0149941Y0206299D01*
G75*
G02*
X0149350Y0206890I0000000J0000591D01*
G01*
X0149350Y0213386D01*
G75*
G02*
X0149941Y0213976I0000591J0000000D01*
G01*
G37*
G36*
G01*
X0149941Y0194488D02*
X0151122Y0194488D01*
G75*
G02*
X0151713Y0193898I0000000J-000591D01*
G01*
X0151713Y0187402D01*
G75*
G02*
X0151122Y0186811I-000591J0000000D01*
G01*
X0149941Y0186811D01*
G75*
G02*
X0149350Y0187402I0000000J0000591D01*
G01*
X0149350Y0193898D01*
G75*
G02*
X0149941Y0194488I0000591J0000000D01*
G01*
G37*
G36*
G01*
X0144941Y0194488D02*
X0146122Y0194488D01*
G75*
G02*
X0146713Y0193898I0000000J-000591D01*
G01*
X0146713Y0187402D01*
G75*
G02*
X0146122Y0186811I-000591J0000000D01*
G01*
X0144941Y0186811D01*
G75*
G02*
X0144350Y0187402I0000000J0000591D01*
G01*
X0144350Y0193898D01*
G75*
G02*
X0144941Y0194488I0000591J0000000D01*
G01*
G37*
G36*
G01*
X0139941Y0194488D02*
X0141122Y0194488D01*
G75*
G02*
X0141713Y0193898I0000000J-000591D01*
G01*
X0141713Y0187402D01*
G75*
G02*
X0141122Y0186811I-000591J0000000D01*
G01*
X0139941Y0186811D01*
G75*
G02*
X0139350Y0187402I0000000J0000591D01*
G01*
X0139350Y0193898D01*
G75*
G02*
X0139941Y0194488I0000591J0000000D01*
G01*
G37*
G36*
G01*
X0134941Y0194488D02*
X0136122Y0194488D01*
G75*
G02*
X0136713Y0193898I0000000J-000591D01*
G01*
X0136713Y0187402D01*
G75*
G02*
X0136122Y0186811I-000591J0000000D01*
G01*
X0134941Y0186811D01*
G75*
G02*
X0134350Y0187402I0000000J0000591D01*
G01*
X0134350Y0193898D01*
G75*
G02*
X0134941Y0194488I0000591J0000000D01*
G01*
G37*
G36*
G01*
X0366614Y0284587D02*
X0363937Y0284587D01*
G75*
G02*
X0363602Y0284921I0000000J0000335D01*
G01*
X0363602Y0287598D01*
G75*
G02*
X0363937Y0287933I0000335J0000000D01*
G01*
X0366614Y0287933D01*
G75*
G02*
X0366949Y0287598I0000000J-000335D01*
G01*
X0366949Y0284921D01*
G75*
G02*
X0366614Y0284587I-000335J0000000D01*
G01*
G37*
G36*
G01*
X0366614Y0290807D02*
X0363937Y0290807D01*
G75*
G02*
X0363602Y0291142I0000000J0000335D01*
G01*
X0363602Y0293819D01*
G75*
G02*
X0363937Y0294154I0000335J0000000D01*
G01*
X0366614Y0294154D01*
G75*
G02*
X0366949Y0293819I0000000J-000335D01*
G01*
X0366949Y0291142D01*
G75*
G02*
X0366614Y0290807I-000335J0000000D01*
G01*
G37*
G36*
G01*
X0248125Y0140453D02*
X0250143Y0140453D01*
G75*
G02*
X0251004Y0139592I0000000J-000861D01*
G01*
X0251004Y0137869D01*
G75*
G02*
X0250143Y0137008I-000861J0000000D01*
G01*
X0248125Y0137008D01*
G75*
G02*
X0247264Y0137869I0000000J0000861D01*
G01*
X0247264Y0139592D01*
G75*
G02*
X0248125Y0140453I0000861J0000000D01*
G01*
G37*
G36*
G01*
X0248125Y0134252D02*
X0250143Y0134252D01*
G75*
G02*
X0251004Y0133391I0000000J-000861D01*
G01*
X0251004Y0131668D01*
G75*
G02*
X0250143Y0130807I-000861J0000000D01*
G01*
X0248125Y0130807D01*
G75*
G02*
X0247264Y0131668I0000000J0000861D01*
G01*
X0247264Y0133391D01*
G75*
G02*
X0248125Y0134252I0000861J0000000D01*
G01*
G37*
G36*
G01*
X0170295Y0043307D02*
X0174429Y0043307D01*
G75*
G02*
X0174823Y0042913I0000000J-000394D01*
G01*
X0174823Y0039764D01*
G75*
G02*
X0174429Y0039370I-000394J0000000D01*
G01*
X0170295Y0039370D01*
G75*
G02*
X0169902Y0039764I0000000J0000394D01*
G01*
X0169902Y0042913D01*
G75*
G02*
X0170295Y0043307I0000394J0000000D01*
G01*
G37*
G36*
G01*
X0170295Y0035433D02*
X0174429Y0035433D01*
G75*
G02*
X0174823Y0035039I0000000J-000394D01*
G01*
X0174823Y0031890D01*
G75*
G02*
X0174429Y0031496I-000394J0000000D01*
G01*
X0170295Y0031496D01*
G75*
G02*
X0169902Y0031890I0000000J0000394D01*
G01*
X0169902Y0035039D01*
G75*
G02*
X0170295Y0035433I0000394J0000000D01*
G01*
G37*
G36*
G01*
X0174429Y0015748D02*
X0170295Y0015748D01*
G75*
G02*
X0169902Y0016142I0000000J0000394D01*
G01*
X0169902Y0019291D01*
G75*
G02*
X0170295Y0019685I0000394J0000000D01*
G01*
X0174429Y0019685D01*
G75*
G02*
X0174823Y0019291I0000000J-000394D01*
G01*
X0174823Y0016142D01*
G75*
G02*
X0174429Y0015748I-000394J0000000D01*
G01*
G37*
G36*
G01*
X0174429Y0023622D02*
X0170295Y0023622D01*
G75*
G02*
X0169902Y0024016I0000000J0000394D01*
G01*
X0169902Y0027165D01*
G75*
G02*
X0170295Y0027559I0000394J0000000D01*
G01*
X0174429Y0027559D01*
G75*
G02*
X0174823Y0027165I0000000J-000394D01*
G01*
X0174823Y0024016D01*
G75*
G02*
X0174429Y0023622I-000394J0000000D01*
G01*
G37*
G36*
G01*
X0247928Y0250492D02*
X0249946Y0250492D01*
G75*
G02*
X0250807Y0249631I0000000J-000861D01*
G01*
X0250807Y0247908D01*
G75*
G02*
X0249946Y0247047I-000861J0000000D01*
G01*
X0247928Y0247047D01*
G75*
G02*
X0247067Y0247908I0000000J0000861D01*
G01*
X0247067Y0249631D01*
G75*
G02*
X0247928Y0250492I0000861J0000000D01*
G01*
G37*
G36*
G01*
X0247928Y0244291D02*
X0249946Y0244291D01*
G75*
G02*
X0250807Y0243430I0000000J-000861D01*
G01*
X0250807Y0241708D01*
G75*
G02*
X0249946Y0240846I-000861J0000000D01*
G01*
X0247928Y0240846D01*
G75*
G02*
X0247067Y0241708I0000000J0000861D01*
G01*
X0247067Y0243430D01*
G75*
G02*
X0247928Y0244291I0000861J0000000D01*
G01*
G37*
G36*
G01*
X0238799Y0141043D02*
X0238799Y0129823D01*
G75*
G02*
X0237815Y0128839I-000984J0000000D01*
G01*
X0234961Y0128839D01*
G75*
G02*
X0233976Y0129823I0000000J0000984D01*
G01*
X0233976Y0141043D01*
G75*
G02*
X0234961Y0142028I0000984J0000000D01*
G01*
X0237815Y0142028D01*
G75*
G02*
X0238799Y0141043I0000000J-000984D01*
G01*
G37*
G36*
G01*
X0215473Y0141043D02*
X0215473Y0129823D01*
G75*
G02*
X0214488Y0128839I-000984J0000000D01*
G01*
X0211634Y0128839D01*
G75*
G02*
X0210650Y0129823I0000000J0000984D01*
G01*
X0210650Y0141043D01*
G75*
G02*
X0211634Y0142028I0000984J0000000D01*
G01*
X0214488Y0142028D01*
G75*
G02*
X0215473Y0141043I0000000J-000984D01*
G01*
G37*
G36*
G01*
X0238799Y0223720D02*
X0238799Y0212500D01*
G75*
G02*
X0237815Y0211516I-000984J0000000D01*
G01*
X0234961Y0211516D01*
G75*
G02*
X0233976Y0212500I0000000J0000984D01*
G01*
X0233976Y0223720D01*
G75*
G02*
X0234961Y0224705I0000984J0000000D01*
G01*
X0237815Y0224705D01*
G75*
G02*
X0238799Y0223720I0000000J-000984D01*
G01*
G37*
G36*
G01*
X0215473Y0223720D02*
X0215473Y0212500D01*
G75*
G02*
X0214488Y0211516I-000984J0000000D01*
G01*
X0211634Y0211516D01*
G75*
G02*
X0210650Y0212500I0000000J0000984D01*
G01*
X0210650Y0223720D01*
G75*
G02*
X0211634Y0224705I0000984J0000000D01*
G01*
X0214488Y0224705D01*
G75*
G02*
X0215473Y0223720I0000000J-000984D01*
G01*
G37*
G36*
G01*
X0168425Y0080551D02*
X0172559Y0080551D01*
G75*
G02*
X0172953Y0080157I0000000J-000394D01*
G01*
X0172953Y0077008D01*
G75*
G02*
X0172559Y0076614I-000394J0000000D01*
G01*
X0168425Y0076614D01*
G75*
G02*
X0168032Y0077008I0000000J0000394D01*
G01*
X0168032Y0080157D01*
G75*
G02*
X0168425Y0080551I0000394J0000000D01*
G01*
G37*
G36*
G01*
X0168425Y0072677D02*
X0172559Y0072677D01*
G75*
G02*
X0172953Y0072283I0000000J-000394D01*
G01*
X0172953Y0069134D01*
G75*
G02*
X0172559Y0068740I-000394J0000000D01*
G01*
X0168425Y0068740D01*
G75*
G02*
X0168032Y0069134I0000000J0000394D01*
G01*
X0168032Y0072283D01*
G75*
G02*
X0168425Y0072677I0000394J0000000D01*
G01*
G37*
G36*
G01*
X0456983Y0132579D02*
X0459001Y0132579D01*
G75*
G02*
X0459862Y0131718I0000000J-000861D01*
G01*
X0459862Y0129995D01*
G75*
G02*
X0459001Y0129134I-000861J0000000D01*
G01*
X0456983Y0129134D01*
G75*
G02*
X0456122Y0129995I0000000J0000861D01*
G01*
X0456122Y0131718D01*
G75*
G02*
X0456983Y0132579I0000861J0000000D01*
G01*
G37*
G36*
G01*
X0456983Y0126378D02*
X0459001Y0126378D01*
G75*
G02*
X0459862Y0125517I0000000J-000861D01*
G01*
X0459862Y0123794D01*
G75*
G02*
X0459001Y0122933I-000861J0000000D01*
G01*
X0456983Y0122933D01*
G75*
G02*
X0456122Y0123794I0000000J0000861D01*
G01*
X0456122Y0125517D01*
G75*
G02*
X0456983Y0126378I0000861J0000000D01*
G01*
G37*
G36*
G01*
X0207441Y0269291D02*
X0203425Y0269291D01*
G75*
G02*
X0203071Y0269646I0000000J0000354D01*
G01*
X0203071Y0272480D01*
G75*
G02*
X0203425Y0272835I0000354J0000000D01*
G01*
X0207441Y0272835D01*
G75*
G02*
X0207795Y0272480I0000000J-000354D01*
G01*
X0207795Y0269646D01*
G75*
G02*
X0207441Y0269291I-000354J0000000D01*
G01*
G37*
G36*
G01*
X0207441Y0282283D02*
X0203425Y0282283D01*
G75*
G02*
X0203071Y0282638I0000000J0000354D01*
G01*
X0203071Y0285472D01*
G75*
G02*
X0203425Y0285827I0000354J0000000D01*
G01*
X0207441Y0285827D01*
G75*
G02*
X0207795Y0285472I0000000J-000354D01*
G01*
X0207795Y0282638D01*
G75*
G02*
X0207441Y0282283I-000354J0000000D01*
G01*
G37*
G36*
G01*
X0473701Y0061811D02*
X0471811Y0061811D01*
G75*
G02*
X0471575Y0062047I0000000J0000236D01*
G01*
X0471575Y0063937D01*
G75*
G02*
X0471811Y0064173I0000236J0000000D01*
G01*
X0473701Y0064173D01*
G75*
G02*
X0473937Y0063937I0000000J-000236D01*
G01*
X0473937Y0062047D01*
G75*
G02*
X0473701Y0061811I-000236J0000000D01*
G01*
G37*
G36*
G01*
X0482362Y0061811D02*
X0480473Y0061811D01*
G75*
G02*
X0480236Y0062047I0000000J0000236D01*
G01*
X0480236Y0063937D01*
G75*
G02*
X0480473Y0064173I0000236J0000000D01*
G01*
X0482362Y0064173D01*
G75*
G02*
X0482599Y0063937I0000000J-000236D01*
G01*
X0482599Y0062047D01*
G75*
G02*
X0482362Y0061811I-000236J0000000D01*
G01*
G37*
G36*
G01*
X0244419Y0186024D02*
X0241349Y0186024D01*
G75*
G02*
X0241073Y0186299I0000000J0000276D01*
G01*
X0241073Y0188504D01*
G75*
G02*
X0241349Y0188780I0000276J0000000D01*
G01*
X0244419Y0188780D01*
G75*
G02*
X0244695Y0188504I0000000J-000276D01*
G01*
X0244695Y0186299D01*
G75*
G02*
X0244419Y0186024I-000276J0000000D01*
G01*
G37*
G36*
G01*
X0244419Y0192323D02*
X0241349Y0192323D01*
G75*
G02*
X0241073Y0192598I0000000J0000276D01*
G01*
X0241073Y0194803D01*
G75*
G02*
X0241349Y0195079I0000276J0000000D01*
G01*
X0244419Y0195079D01*
G75*
G02*
X0244695Y0194803I0000000J-000276D01*
G01*
X0244695Y0192598D01*
G75*
G02*
X0244419Y0192323I-000276J0000000D01*
G01*
G37*
G36*
G01*
X0255079Y0114764D02*
X0258150Y0114764D01*
G75*
G02*
X0258425Y0114488I0000000J-000276D01*
G01*
X0258425Y0112283D01*
G75*
G02*
X0258150Y0112008I-000276J0000000D01*
G01*
X0255079Y0112008D01*
G75*
G02*
X0254803Y0112283I0000000J0000276D01*
G01*
X0254803Y0114488D01*
G75*
G02*
X0255079Y0114764I0000276J0000000D01*
G01*
G37*
G36*
G01*
X0255079Y0108465D02*
X0258150Y0108465D01*
G75*
G02*
X0258425Y0108189I0000000J-000276D01*
G01*
X0258425Y0105984D01*
G75*
G02*
X0258150Y0105709I-000276J0000000D01*
G01*
X0255079Y0105709D01*
G75*
G02*
X0254803Y0105984I0000000J0000276D01*
G01*
X0254803Y0108189D01*
G75*
G02*
X0255079Y0108465I0000276J0000000D01*
G01*
G37*
G36*
G01*
X0190177Y0015748D02*
X0186043Y0015748D01*
G75*
G02*
X0185650Y0016142I0000000J0000394D01*
G01*
X0185650Y0019291D01*
G75*
G02*
X0186043Y0019685I0000394J0000000D01*
G01*
X0190177Y0019685D01*
G75*
G02*
X0190571Y0019291I0000000J-000394D01*
G01*
X0190571Y0016142D01*
G75*
G02*
X0190177Y0015748I-000394J0000000D01*
G01*
G37*
G36*
G01*
X0190177Y0023622D02*
X0186043Y0023622D01*
G75*
G02*
X0185650Y0024016I0000000J0000394D01*
G01*
X0185650Y0027165D01*
G75*
G02*
X0186043Y0027559I0000394J0000000D01*
G01*
X0190177Y0027559D01*
G75*
G02*
X0190571Y0027165I0000000J-000394D01*
G01*
X0190571Y0024016D01*
G75*
G02*
X0190177Y0023622I-000394J0000000D01*
G01*
G37*
G36*
G01*
X0248125Y0168012D02*
X0250143Y0168012D01*
G75*
G02*
X0251004Y0167151I0000000J-000861D01*
G01*
X0251004Y0165428D01*
G75*
G02*
X0250143Y0164567I-000861J0000000D01*
G01*
X0248125Y0164567D01*
G75*
G02*
X0247264Y0165428I0000000J0000861D01*
G01*
X0247264Y0167151D01*
G75*
G02*
X0248125Y0168012I0000861J0000000D01*
G01*
G37*
G36*
G01*
X0248125Y0161811D02*
X0250143Y0161811D01*
G75*
G02*
X0251004Y0160950I0000000J-000861D01*
G01*
X0251004Y0159227D01*
G75*
G02*
X0250143Y0158366I-000861J0000000D01*
G01*
X0248125Y0158366D01*
G75*
G02*
X0247264Y0159227I0000000J0000861D01*
G01*
X0247264Y0160950D01*
G75*
G02*
X0248125Y0161811I0000861J0000000D01*
G01*
G37*
G36*
G01*
X0244419Y0158465D02*
X0241349Y0158465D01*
G75*
G02*
X0241073Y0158740I0000000J0000276D01*
G01*
X0241073Y0160945D01*
G75*
G02*
X0241349Y0161220I0000276J0000000D01*
G01*
X0244419Y0161220D01*
G75*
G02*
X0244695Y0160945I0000000J-000276D01*
G01*
X0244695Y0158740D01*
G75*
G02*
X0244419Y0158465I-000276J0000000D01*
G01*
G37*
G36*
G01*
X0244419Y0164764D02*
X0241349Y0164764D01*
G75*
G02*
X0241073Y0165039I0000000J0000276D01*
G01*
X0241073Y0167244D01*
G75*
G02*
X0241349Y0167520I0000276J0000000D01*
G01*
X0244419Y0167520D01*
G75*
G02*
X0244695Y0167244I0000000J-000276D01*
G01*
X0244695Y0165039D01*
G75*
G02*
X0244419Y0164764I-000276J0000000D01*
G01*
G37*
G36*
G01*
X0325079Y0012710D02*
X0322008Y0012710D01*
G75*
G02*
X0321732Y0012986I0000000J0000276D01*
G01*
X0321732Y0015190D01*
G75*
G02*
X0322008Y0015466I0000276J0000000D01*
G01*
X0325079Y0015466D01*
G75*
G02*
X0325354Y0015190I0000000J-000276D01*
G01*
X0325354Y0012986D01*
G75*
G02*
X0325079Y0012710I-000276J0000000D01*
G01*
G37*
G36*
G01*
X0325079Y0019009D02*
X0322008Y0019009D01*
G75*
G02*
X0321732Y0019285I0000000J0000276D01*
G01*
X0321732Y0021489D01*
G75*
G02*
X0322008Y0021765I0000276J0000000D01*
G01*
X0325079Y0021765D01*
G75*
G02*
X0325354Y0021489I0000000J-000276D01*
G01*
X0325354Y0019285D01*
G75*
G02*
X0325079Y0019009I-000276J0000000D01*
G01*
G37*
G36*
G01*
X0244419Y0130906D02*
X0241349Y0130906D01*
G75*
G02*
X0241073Y0131181I0000000J0000276D01*
G01*
X0241073Y0133386D01*
G75*
G02*
X0241349Y0133661I0000276J0000000D01*
G01*
X0244419Y0133661D01*
G75*
G02*
X0244695Y0133386I0000000J-000276D01*
G01*
X0244695Y0131181D01*
G75*
G02*
X0244419Y0130906I-000276J0000000D01*
G01*
G37*
G36*
G01*
X0244419Y0137205D02*
X0241349Y0137205D01*
G75*
G02*
X0241073Y0137480I0000000J0000276D01*
G01*
X0241073Y0139685D01*
G75*
G02*
X0241349Y0139961I0000276J0000000D01*
G01*
X0244419Y0139961D01*
G75*
G02*
X0244695Y0139685I0000000J-000276D01*
G01*
X0244695Y0137480D01*
G75*
G02*
X0244419Y0137205I-000276J0000000D01*
G01*
G37*
G36*
G01*
X0248322Y0195374D02*
X0250340Y0195374D01*
G75*
G02*
X0251201Y0194513I0000000J-000861D01*
G01*
X0251201Y0192790D01*
G75*
G02*
X0250340Y0191929I-000861J0000000D01*
G01*
X0248322Y0191929D01*
G75*
G02*
X0247461Y0192790I0000000J0000861D01*
G01*
X0247461Y0194513D01*
G75*
G02*
X0248322Y0195374I0000861J0000000D01*
G01*
G37*
G36*
G01*
X0248322Y0189173D02*
X0250340Y0189173D01*
G75*
G02*
X0251201Y0188312I0000000J-000861D01*
G01*
X0251201Y0186590D01*
G75*
G02*
X0250340Y0185728I-000861J0000000D01*
G01*
X0248322Y0185728D01*
G75*
G02*
X0247461Y0186590I0000000J0000861D01*
G01*
X0247461Y0188312D01*
G75*
G02*
X0248322Y0189173I0000861J0000000D01*
G01*
G37*
G36*
G01*
X0373701Y0284587D02*
X0371024Y0284587D01*
G75*
G02*
X0370689Y0284921I0000000J0000335D01*
G01*
X0370689Y0287598D01*
G75*
G02*
X0371024Y0287933I0000335J0000000D01*
G01*
X0373701Y0287933D01*
G75*
G02*
X0374036Y0287598I0000000J-000335D01*
G01*
X0374036Y0284921D01*
G75*
G02*
X0373701Y0284587I-000335J0000000D01*
G01*
G37*
G36*
G01*
X0373701Y0290807D02*
X0371024Y0290807D01*
G75*
G02*
X0370689Y0291142I0000000J0000335D01*
G01*
X0370689Y0293819D01*
G75*
G02*
X0371024Y0294154I0000335J0000000D01*
G01*
X0373701Y0294154D01*
G75*
G02*
X0374036Y0293819I0000000J-000335D01*
G01*
X0374036Y0291142D01*
G75*
G02*
X0373701Y0290807I-000335J0000000D01*
G01*
G37*
G36*
G01*
X0152047Y0349213D02*
X0148976Y0349213D01*
G75*
G02*
X0148701Y0349488I0000000J0000276D01*
G01*
X0148701Y0351693D01*
G75*
G02*
X0148976Y0351969I0000276J0000000D01*
G01*
X0152047Y0351969D01*
G75*
G02*
X0152323Y0351693I0000000J-000276D01*
G01*
X0152323Y0349488D01*
G75*
G02*
X0152047Y0349213I-000276J0000000D01*
G01*
G37*
G36*
G01*
X0152047Y0355512D02*
X0148976Y0355512D01*
G75*
G02*
X0148701Y0355787I0000000J0000276D01*
G01*
X0148701Y0357992D01*
G75*
G02*
X0148976Y0358268I0000276J0000000D01*
G01*
X0152047Y0358268D01*
G75*
G02*
X0152323Y0357992I0000000J-000276D01*
G01*
X0152323Y0355787D01*
G75*
G02*
X0152047Y0355512I-000276J0000000D01*
G01*
G37*
G36*
G01*
X0134941Y0282087D02*
X0136122Y0282087D01*
G75*
G02*
X0136713Y0281496I0000000J-000591D01*
G01*
X0136713Y0275000D01*
G75*
G02*
X0136122Y0274409I-000591J0000000D01*
G01*
X0134941Y0274409D01*
G75*
G02*
X0134350Y0275000I0000000J0000591D01*
G01*
X0134350Y0281496D01*
G75*
G02*
X0134941Y0282087I0000591J0000000D01*
G01*
G37*
G36*
G01*
X0139941Y0282087D02*
X0141122Y0282087D01*
G75*
G02*
X0141713Y0281496I0000000J-000591D01*
G01*
X0141713Y0275000D01*
G75*
G02*
X0141122Y0274409I-000591J0000000D01*
G01*
X0139941Y0274409D01*
G75*
G02*
X0139350Y0275000I0000000J0000591D01*
G01*
X0139350Y0281496D01*
G75*
G02*
X0139941Y0282087I0000591J0000000D01*
G01*
G37*
G36*
G01*
X0144941Y0282087D02*
X0146122Y0282087D01*
G75*
G02*
X0146713Y0281496I0000000J-000591D01*
G01*
X0146713Y0275000D01*
G75*
G02*
X0146122Y0274409I-000591J0000000D01*
G01*
X0144941Y0274409D01*
G75*
G02*
X0144350Y0275000I0000000J0000591D01*
G01*
X0144350Y0281496D01*
G75*
G02*
X0144941Y0282087I0000591J0000000D01*
G01*
G37*
G36*
G01*
X0149941Y0282087D02*
X0151122Y0282087D01*
G75*
G02*
X0151713Y0281496I0000000J-000591D01*
G01*
X0151713Y0275000D01*
G75*
G02*
X0151122Y0274409I-000591J0000000D01*
G01*
X0149941Y0274409D01*
G75*
G02*
X0149350Y0275000I0000000J0000591D01*
G01*
X0149350Y0281496D01*
G75*
G02*
X0149941Y0282087I0000591J0000000D01*
G01*
G37*
G36*
G01*
X0149941Y0262598D02*
X0151122Y0262598D01*
G75*
G02*
X0151713Y0262008I0000000J-000591D01*
G01*
X0151713Y0255512D01*
G75*
G02*
X0151122Y0254921I-000591J0000000D01*
G01*
X0149941Y0254921D01*
G75*
G02*
X0149350Y0255512I0000000J0000591D01*
G01*
X0149350Y0262008D01*
G75*
G02*
X0149941Y0262598I0000591J0000000D01*
G01*
G37*
G36*
G01*
X0144941Y0262598D02*
X0146122Y0262598D01*
G75*
G02*
X0146713Y0262008I0000000J-000591D01*
G01*
X0146713Y0255512D01*
G75*
G02*
X0146122Y0254921I-000591J0000000D01*
G01*
X0144941Y0254921D01*
G75*
G02*
X0144350Y0255512I0000000J0000591D01*
G01*
X0144350Y0262008D01*
G75*
G02*
X0144941Y0262598I0000591J0000000D01*
G01*
G37*
G36*
G01*
X0139941Y0262598D02*
X0141122Y0262598D01*
G75*
G02*
X0141713Y0262008I0000000J-000591D01*
G01*
X0141713Y0255512D01*
G75*
G02*
X0141122Y0254921I-000591J0000000D01*
G01*
X0139941Y0254921D01*
G75*
G02*
X0139350Y0255512I0000000J0000591D01*
G01*
X0139350Y0262008D01*
G75*
G02*
X0139941Y0262598I0000591J0000000D01*
G01*
G37*
G36*
G01*
X0134941Y0262598D02*
X0136122Y0262598D01*
G75*
G02*
X0136713Y0262008I0000000J-000591D01*
G01*
X0136713Y0255512D01*
G75*
G02*
X0136122Y0254921I-000591J0000000D01*
G01*
X0134941Y0254921D01*
G75*
G02*
X0134350Y0255512I0000000J0000591D01*
G01*
X0134350Y0262008D01*
G75*
G02*
X0134941Y0262598I0000591J0000000D01*
G01*
G37*
G36*
G01*
X0274685Y0098425D02*
X0271614Y0098425D01*
G75*
G02*
X0271339Y0098701I0000000J0000276D01*
G01*
X0271339Y0100906D01*
G75*
G02*
X0271614Y0101181I0000276J0000000D01*
G01*
X0274685Y0101181D01*
G75*
G02*
X0274961Y0100906I0000000J-000276D01*
G01*
X0274961Y0098701D01*
G75*
G02*
X0274685Y0098425I-000276J0000000D01*
G01*
G37*
G36*
G01*
X0274685Y0104724D02*
X0271614Y0104724D01*
G75*
G02*
X0271339Y0105000I0000000J0000276D01*
G01*
X0271339Y0107205D01*
G75*
G02*
X0271614Y0107480I0000276J0000000D01*
G01*
X0274685Y0107480D01*
G75*
G02*
X0274961Y0107205I0000000J-000276D01*
G01*
X0274961Y0105000D01*
G75*
G02*
X0274685Y0104724I-000276J0000000D01*
G01*
G37*
G36*
G01*
X0238799Y0196161D02*
X0238799Y0184941D01*
G75*
G02*
X0237815Y0183957I-000984J0000000D01*
G01*
X0234961Y0183957D01*
G75*
G02*
X0233976Y0184941I0000000J0000984D01*
G01*
X0233976Y0196161D01*
G75*
G02*
X0234961Y0197146I0000984J0000000D01*
G01*
X0237815Y0197146D01*
G75*
G02*
X0238799Y0196161I0000000J-000984D01*
G01*
G37*
G36*
G01*
X0215473Y0196161D02*
X0215473Y0184941D01*
G75*
G02*
X0214488Y0183957I-000984J0000000D01*
G01*
X0211634Y0183957D01*
G75*
G02*
X0210650Y0184941I0000000J0000984D01*
G01*
X0210650Y0196161D01*
G75*
G02*
X0211634Y0197146I0000984J0000000D01*
G01*
X0214488Y0197146D01*
G75*
G02*
X0215473Y0196161I0000000J-000984D01*
G01*
G37*
G36*
G01*
X0244419Y0103346D02*
X0241349Y0103346D01*
G75*
G02*
X0241073Y0103622I0000000J0000276D01*
G01*
X0241073Y0105827D01*
G75*
G02*
X0241349Y0106102I0000276J0000000D01*
G01*
X0244419Y0106102D01*
G75*
G02*
X0244695Y0105827I0000000J-000276D01*
G01*
X0244695Y0103622D01*
G75*
G02*
X0244419Y0103346I-000276J0000000D01*
G01*
G37*
G36*
G01*
X0244419Y0109646D02*
X0241349Y0109646D01*
G75*
G02*
X0241073Y0109921I0000000J0000276D01*
G01*
X0241073Y0112126D01*
G75*
G02*
X0241349Y0112402I0000276J0000000D01*
G01*
X0244419Y0112402D01*
G75*
G02*
X0244695Y0112126I0000000J-000276D01*
G01*
X0244695Y0109921D01*
G75*
G02*
X0244419Y0109646I-000276J0000000D01*
G01*
G37*
G36*
G01*
X0344188Y0339469D02*
X0346206Y0339469D01*
G75*
G02*
X0347067Y0338607I0000000J-000861D01*
G01*
X0347067Y0336885D01*
G75*
G02*
X0346206Y0336024I-000861J0000000D01*
G01*
X0344188Y0336024D01*
G75*
G02*
X0343327Y0336885I0000000J0000861D01*
G01*
X0343327Y0338607D01*
G75*
G02*
X0344188Y0339469I0000861J0000000D01*
G01*
G37*
G36*
G01*
X0344188Y0333268D02*
X0346206Y0333268D01*
G75*
G02*
X0347067Y0332406I0000000J-000861D01*
G01*
X0347067Y0330684D01*
G75*
G02*
X0346206Y0329823I-000861J0000000D01*
G01*
X0344188Y0329823D01*
G75*
G02*
X0343327Y0330684I0000000J0000861D01*
G01*
X0343327Y0332406D01*
G75*
G02*
X0344188Y0333268I0000861J0000000D01*
G01*
G37*
G36*
G01*
X0186043Y0043307D02*
X0190177Y0043307D01*
G75*
G02*
X0190571Y0042913I0000000J-000394D01*
G01*
X0190571Y0039764D01*
G75*
G02*
X0190177Y0039370I-000394J0000000D01*
G01*
X0186043Y0039370D01*
G75*
G02*
X0185650Y0039764I0000000J0000394D01*
G01*
X0185650Y0042913D01*
G75*
G02*
X0186043Y0043307I0000394J0000000D01*
G01*
G37*
G36*
G01*
X0186043Y0035433D02*
X0190177Y0035433D01*
G75*
G02*
X0190571Y0035039I0000000J-000394D01*
G01*
X0190571Y0031890D01*
G75*
G02*
X0190177Y0031496I-000394J0000000D01*
G01*
X0186043Y0031496D01*
G75*
G02*
X0185650Y0031890I0000000J0000394D01*
G01*
X0185650Y0035039D01*
G75*
G02*
X0186043Y0035433I0000394J0000000D01*
G01*
G37*
G36*
G01*
X0244419Y0241142D02*
X0241349Y0241142D01*
G75*
G02*
X0241073Y0241417I0000000J0000276D01*
G01*
X0241073Y0243622D01*
G75*
G02*
X0241349Y0243898I0000276J0000000D01*
G01*
X0244419Y0243898D01*
G75*
G02*
X0244695Y0243622I0000000J-000276D01*
G01*
X0244695Y0241417D01*
G75*
G02*
X0244419Y0241142I-000276J0000000D01*
G01*
G37*
G36*
G01*
X0244419Y0247441D02*
X0241349Y0247441D01*
G75*
G02*
X0241073Y0247717I0000000J0000276D01*
G01*
X0241073Y0249921D01*
G75*
G02*
X0241349Y0250197I0000276J0000000D01*
G01*
X0244419Y0250197D01*
G75*
G02*
X0244695Y0249921I0000000J-000276D01*
G01*
X0244695Y0247717D01*
G75*
G02*
X0244419Y0247441I-000276J0000000D01*
G01*
G37*
G36*
G01*
X0198051Y0015748D02*
X0193917Y0015748D01*
G75*
G02*
X0193524Y0016142I0000000J0000394D01*
G01*
X0193524Y0019291D01*
G75*
G02*
X0193917Y0019685I0000394J0000000D01*
G01*
X0198051Y0019685D01*
G75*
G02*
X0198445Y0019291I0000000J-000394D01*
G01*
X0198445Y0016142D01*
G75*
G02*
X0198051Y0015748I-000394J0000000D01*
G01*
G37*
G36*
G01*
X0198051Y0023622D02*
X0193917Y0023622D01*
G75*
G02*
X0193524Y0024016I0000000J0000394D01*
G01*
X0193524Y0027165D01*
G75*
G02*
X0193917Y0027559I0000394J0000000D01*
G01*
X0198051Y0027559D01*
G75*
G02*
X0198445Y0027165I0000000J-000394D01*
G01*
X0198445Y0024016D01*
G75*
G02*
X0198051Y0023622I-000394J0000000D01*
G01*
G37*
G36*
G01*
X0334921Y0012710D02*
X0331850Y0012710D01*
G75*
G02*
X0331575Y0012986I0000000J0000276D01*
G01*
X0331575Y0015190D01*
G75*
G02*
X0331850Y0015466I0000276J0000000D01*
G01*
X0334921Y0015466D01*
G75*
G02*
X0335197Y0015190I0000000J-000276D01*
G01*
X0335197Y0012986D01*
G75*
G02*
X0334921Y0012710I-000276J0000000D01*
G01*
G37*
G36*
G01*
X0334921Y0019009D02*
X0331850Y0019009D01*
G75*
G02*
X0331575Y0019285I0000000J0000276D01*
G01*
X0331575Y0021489D01*
G75*
G02*
X0331850Y0021765I0000276J0000000D01*
G01*
X0334921Y0021765D01*
G75*
G02*
X0335197Y0021489I0000000J-000276D01*
G01*
X0335197Y0019285D01*
G75*
G02*
X0334921Y0019009I-000276J0000000D01*
G01*
G37*
G36*
G01*
X0195158Y0066339D02*
X0192087Y0066339D01*
G75*
G02*
X0191811Y0066614I0000000J0000276D01*
G01*
X0191811Y0068819D01*
G75*
G02*
X0192087Y0069094I0000276J0000000D01*
G01*
X0195158Y0069094D01*
G75*
G02*
X0195433Y0068819I0000000J-000276D01*
G01*
X0195433Y0066614D01*
G75*
G02*
X0195158Y0066339I-000276J0000000D01*
G01*
G37*
G36*
G01*
X0195158Y0072638D02*
X0192087Y0072638D01*
G75*
G02*
X0191811Y0072913I0000000J0000276D01*
G01*
X0191811Y0075118D01*
G75*
G02*
X0192087Y0075394I0000276J0000000D01*
G01*
X0195158Y0075394D01*
G75*
G02*
X0195433Y0075118I0000000J-000276D01*
G01*
X0195433Y0072913D01*
G75*
G02*
X0195158Y0072638I-000276J0000000D01*
G01*
G37*
G36*
G01*
X0142008Y0349213D02*
X0138937Y0349213D01*
G75*
G02*
X0138661Y0349488I0000000J0000276D01*
G01*
X0138661Y0351693D01*
G75*
G02*
X0138937Y0351969I0000276J0000000D01*
G01*
X0142008Y0351969D01*
G75*
G02*
X0142284Y0351693I0000000J-000276D01*
G01*
X0142284Y0349488D01*
G75*
G02*
X0142008Y0349213I-000276J0000000D01*
G01*
G37*
G36*
G01*
X0142008Y0355512D02*
X0138937Y0355512D01*
G75*
G02*
X0138661Y0355787I0000000J0000276D01*
G01*
X0138661Y0357992D01*
G75*
G02*
X0138937Y0358268I0000276J0000000D01*
G01*
X0142008Y0358268D01*
G75*
G02*
X0142284Y0357992I0000000J-000276D01*
G01*
X0142284Y0355787D01*
G75*
G02*
X0142008Y0355512I-000276J0000000D01*
G01*
G37*
G36*
G01*
X0251457Y0284055D02*
X0248386Y0284055D01*
G75*
G02*
X0248110Y0284331I0000000J0000276D01*
G01*
X0248110Y0286535D01*
G75*
G02*
X0248386Y0286811I0000276J0000000D01*
G01*
X0251457Y0286811D01*
G75*
G02*
X0251732Y0286535I0000000J-000276D01*
G01*
X0251732Y0284331D01*
G75*
G02*
X0251457Y0284055I-000276J0000000D01*
G01*
G37*
G36*
G01*
X0251457Y0290354D02*
X0248386Y0290354D01*
G75*
G02*
X0248110Y0290630I0000000J0000276D01*
G01*
X0248110Y0292835D01*
G75*
G02*
X0248386Y0293110I0000276J0000000D01*
G01*
X0251457Y0293110D01*
G75*
G02*
X0251732Y0292835I0000000J-000276D01*
G01*
X0251732Y0290630D01*
G75*
G02*
X0251457Y0290354I-000276J0000000D01*
G01*
G37*
G36*
G01*
X0176299Y0080551D02*
X0180433Y0080551D01*
G75*
G02*
X0180827Y0080157I0000000J-000394D01*
G01*
X0180827Y0077008D01*
G75*
G02*
X0180433Y0076614I-000394J0000000D01*
G01*
X0176299Y0076614D01*
G75*
G02*
X0175906Y0077008I0000000J0000394D01*
G01*
X0175906Y0080157D01*
G75*
G02*
X0176299Y0080551I0000394J0000000D01*
G01*
G37*
G36*
G01*
X0176299Y0072677D02*
X0180433Y0072677D01*
G75*
G02*
X0180827Y0072283I0000000J-000394D01*
G01*
X0180827Y0069134D01*
G75*
G02*
X0180433Y0068740I-000394J0000000D01*
G01*
X0176299Y0068740D01*
G75*
G02*
X0175906Y0069134I0000000J0000394D01*
G01*
X0175906Y0072283D01*
G75*
G02*
X0176299Y0072677I0000394J0000000D01*
G01*
G37*
G36*
G01*
X0247928Y0222933D02*
X0249946Y0222933D01*
G75*
G02*
X0250807Y0222072I0000000J-000861D01*
G01*
X0250807Y0220349D01*
G75*
G02*
X0249946Y0219488I-000861J0000000D01*
G01*
X0247928Y0219488D01*
G75*
G02*
X0247067Y0220349I0000000J0000861D01*
G01*
X0247067Y0222072D01*
G75*
G02*
X0247928Y0222933I0000861J0000000D01*
G01*
G37*
G36*
G01*
X0247928Y0216732D02*
X0249946Y0216732D01*
G75*
G02*
X0250807Y0215871I0000000J-000861D01*
G01*
X0250807Y0214149D01*
G75*
G02*
X0249946Y0213287I-000861J0000000D01*
G01*
X0247928Y0213287D01*
G75*
G02*
X0247067Y0214149I0000000J0000861D01*
G01*
X0247067Y0215871D01*
G75*
G02*
X0247928Y0216732I0000861J0000000D01*
G01*
G37*
G36*
G01*
X0262362Y0116339D02*
X0265433Y0116339D01*
G75*
G02*
X0265709Y0116063I0000000J-000276D01*
G01*
X0265709Y0113858D01*
G75*
G02*
X0265433Y0113583I-000276J0000000D01*
G01*
X0262362Y0113583D01*
G75*
G02*
X0262087Y0113858I0000000J0000276D01*
G01*
X0262087Y0116063D01*
G75*
G02*
X0262362Y0116339I0000276J0000000D01*
G01*
G37*
G36*
G01*
X0262362Y0110039D02*
X0265433Y0110039D01*
G75*
G02*
X0265709Y0109764I0000000J-000276D01*
G01*
X0265709Y0107559D01*
G75*
G02*
X0265433Y0107283I-000276J0000000D01*
G01*
X0262362Y0107283D01*
G75*
G02*
X0262087Y0107559I0000000J0000276D01*
G01*
X0262087Y0109764D01*
G75*
G02*
X0262362Y0110039I0000276J0000000D01*
G01*
G37*
G36*
G01*
X0337658Y0323858D02*
X0337658Y0326535D01*
G75*
G02*
X0337992Y0326870I0000335J0000000D01*
G01*
X0340669Y0326870D01*
G75*
G02*
X0341004Y0326535I0000000J-000335D01*
G01*
X0341004Y0323858D01*
G75*
G02*
X0340669Y0323524I-000335J0000000D01*
G01*
X0337992Y0323524D01*
G75*
G02*
X0337658Y0323858I0000000J0000335D01*
G01*
G37*
G36*
G01*
X0343878Y0323858D02*
X0343878Y0326535D01*
G75*
G02*
X0344213Y0326870I0000335J0000000D01*
G01*
X0346890Y0326870D01*
G75*
G02*
X0347224Y0326535I0000000J-000335D01*
G01*
X0347224Y0323858D01*
G75*
G02*
X0346890Y0323524I-000335J0000000D01*
G01*
X0344213Y0323524D01*
G75*
G02*
X0343878Y0323858I0000000J0000335D01*
G01*
G37*
G36*
G01*
X0140000Y0345374D02*
X0141181Y0345374D01*
G75*
G02*
X0141772Y0344783I0000000J-000591D01*
G01*
X0141772Y0338287D01*
G75*
G02*
X0141181Y0337697I-000591J0000000D01*
G01*
X0140000Y0337697D01*
G75*
G02*
X0139410Y0338287I0000000J0000591D01*
G01*
X0139410Y0344783D01*
G75*
G02*
X0140000Y0345374I0000591J0000000D01*
G01*
G37*
G36*
G01*
X0145000Y0345374D02*
X0146181Y0345374D01*
G75*
G02*
X0146772Y0344783I0000000J-000591D01*
G01*
X0146772Y0338287D01*
G75*
G02*
X0146181Y0337697I-000591J0000000D01*
G01*
X0145000Y0337697D01*
G75*
G02*
X0144410Y0338287I0000000J0000591D01*
G01*
X0144410Y0344783D01*
G75*
G02*
X0145000Y0345374I0000591J0000000D01*
G01*
G37*
G36*
G01*
X0150000Y0345374D02*
X0151181Y0345374D01*
G75*
G02*
X0151772Y0344783I0000000J-000591D01*
G01*
X0151772Y0338287D01*
G75*
G02*
X0151181Y0337697I-000591J0000000D01*
G01*
X0150000Y0337697D01*
G75*
G02*
X0149410Y0338287I0000000J0000591D01*
G01*
X0149410Y0344783D01*
G75*
G02*
X0150000Y0345374I0000591J0000000D01*
G01*
G37*
G36*
G01*
X0155000Y0345374D02*
X0156181Y0345374D01*
G75*
G02*
X0156772Y0344783I0000000J-000591D01*
G01*
X0156772Y0338287D01*
G75*
G02*
X0156181Y0337697I-000591J0000000D01*
G01*
X0155000Y0337697D01*
G75*
G02*
X0154410Y0338287I0000000J0000591D01*
G01*
X0154410Y0344783D01*
G75*
G02*
X0155000Y0345374I0000591J0000000D01*
G01*
G37*
G36*
G01*
X0155000Y0325886D02*
X0156181Y0325886D01*
G75*
G02*
X0156772Y0325295I0000000J-000591D01*
G01*
X0156772Y0318799D01*
G75*
G02*
X0156181Y0318209I-000591J0000000D01*
G01*
X0155000Y0318209D01*
G75*
G02*
X0154410Y0318799I0000000J0000591D01*
G01*
X0154410Y0325295D01*
G75*
G02*
X0155000Y0325886I0000591J0000000D01*
G01*
G37*
G36*
G01*
X0150000Y0325886D02*
X0151181Y0325886D01*
G75*
G02*
X0151772Y0325295I0000000J-000591D01*
G01*
X0151772Y0318799D01*
G75*
G02*
X0151181Y0318209I-000591J0000000D01*
G01*
X0150000Y0318209D01*
G75*
G02*
X0149410Y0318799I0000000J0000591D01*
G01*
X0149410Y0325295D01*
G75*
G02*
X0150000Y0325886I0000591J0000000D01*
G01*
G37*
G36*
G01*
X0145000Y0325886D02*
X0146181Y0325886D01*
G75*
G02*
X0146772Y0325295I0000000J-000591D01*
G01*
X0146772Y0318799D01*
G75*
G02*
X0146181Y0318209I-000591J0000000D01*
G01*
X0145000Y0318209D01*
G75*
G02*
X0144410Y0318799I0000000J0000591D01*
G01*
X0144410Y0325295D01*
G75*
G02*
X0145000Y0325886I0000591J0000000D01*
G01*
G37*
G36*
G01*
X0140000Y0325886D02*
X0141181Y0325886D01*
G75*
G02*
X0141772Y0325295I0000000J-000591D01*
G01*
X0141772Y0318799D01*
G75*
G02*
X0141181Y0318209I-000591J0000000D01*
G01*
X0140000Y0318209D01*
G75*
G02*
X0139410Y0318799I0000000J0000591D01*
G01*
X0139410Y0325295D01*
G75*
G02*
X0140000Y0325886I0000591J0000000D01*
G01*
G37*
G36*
G01*
X0148898Y0160039D02*
X0145827Y0160039D01*
G75*
G02*
X0145551Y0160315I0000000J0000276D01*
G01*
X0145551Y0162520D01*
G75*
G02*
X0145827Y0162795I0000276J0000000D01*
G01*
X0148898Y0162795D01*
G75*
G02*
X0149173Y0162520I0000000J-000276D01*
G01*
X0149173Y0160315D01*
G75*
G02*
X0148898Y0160039I-000276J0000000D01*
G01*
G37*
G36*
G01*
X0148898Y0166339D02*
X0145827Y0166339D01*
G75*
G02*
X0145551Y0166614I0000000J0000276D01*
G01*
X0145551Y0168819D01*
G75*
G02*
X0145827Y0169094I0000276J0000000D01*
G01*
X0148898Y0169094D01*
G75*
G02*
X0149173Y0168819I0000000J-000276D01*
G01*
X0149173Y0166614D01*
G75*
G02*
X0148898Y0166339I-000276J0000000D01*
G01*
G37*
G36*
G01*
X0244419Y0213583D02*
X0241349Y0213583D01*
G75*
G02*
X0241073Y0213858I0000000J0000276D01*
G01*
X0241073Y0216063D01*
G75*
G02*
X0241349Y0216339I0000276J0000000D01*
G01*
X0244419Y0216339D01*
G75*
G02*
X0244695Y0216063I0000000J-000276D01*
G01*
X0244695Y0213858D01*
G75*
G02*
X0244419Y0213583I-000276J0000000D01*
G01*
G37*
G36*
G01*
X0244419Y0219882D02*
X0241349Y0219882D01*
G75*
G02*
X0241073Y0220157I0000000J0000276D01*
G01*
X0241073Y0222362D01*
G75*
G02*
X0241349Y0222638I0000276J0000000D01*
G01*
X0244419Y0222638D01*
G75*
G02*
X0244695Y0222362I0000000J-000276D01*
G01*
X0244695Y0220157D01*
G75*
G02*
X0244419Y0219882I-000276J0000000D01*
G01*
G37*
G36*
G01*
X0352062Y0339469D02*
X0354080Y0339469D01*
G75*
G02*
X0354941Y0338607I0000000J-000861D01*
G01*
X0354941Y0336885D01*
G75*
G02*
X0354080Y0336024I-000861J0000000D01*
G01*
X0352062Y0336024D01*
G75*
G02*
X0351201Y0336885I0000000J0000861D01*
G01*
X0351201Y0338607D01*
G75*
G02*
X0352062Y0339469I0000861J0000000D01*
G01*
G37*
G36*
G01*
X0352062Y0333268D02*
X0354080Y0333268D01*
G75*
G02*
X0354941Y0332406I0000000J-000861D01*
G01*
X0354941Y0330684D01*
G75*
G02*
X0354080Y0329823I-000861J0000000D01*
G01*
X0352062Y0329823D01*
G75*
G02*
X0351201Y0330684I0000000J0000861D01*
G01*
X0351201Y0332406D01*
G75*
G02*
X0352062Y0333268I0000861J0000000D01*
G01*
G37*
G36*
G01*
X0178169Y0043307D02*
X0182303Y0043307D01*
G75*
G02*
X0182697Y0042913I0000000J-000394D01*
G01*
X0182697Y0039764D01*
G75*
G02*
X0182303Y0039370I-000394J0000000D01*
G01*
X0178169Y0039370D01*
G75*
G02*
X0177776Y0039764I0000000J0000394D01*
G01*
X0177776Y0042913D01*
G75*
G02*
X0178169Y0043307I0000394J0000000D01*
G01*
G37*
G36*
G01*
X0178169Y0035433D02*
X0182303Y0035433D01*
G75*
G02*
X0182697Y0035039I0000000J-000394D01*
G01*
X0182697Y0031890D01*
G75*
G02*
X0182303Y0031496I-000394J0000000D01*
G01*
X0178169Y0031496D01*
G75*
G02*
X0177776Y0031890I0000000J0000394D01*
G01*
X0177776Y0035039D01*
G75*
G02*
X0178169Y0035433I0000394J0000000D01*
G01*
G37*
G36*
G01*
X0238799Y0113484D02*
X0238799Y0102264D01*
G75*
G02*
X0237815Y0101280I-000984J0000000D01*
G01*
X0234961Y0101280D01*
G75*
G02*
X0233976Y0102264I0000000J0000984D01*
G01*
X0233976Y0113484D01*
G75*
G02*
X0234961Y0114469I0000984J0000000D01*
G01*
X0237815Y0114469D01*
G75*
G02*
X0238799Y0113484I0000000J-000984D01*
G01*
G37*
G36*
G01*
X0215473Y0113484D02*
X0215473Y0102264D01*
G75*
G02*
X0214488Y0101280I-000984J0000000D01*
G01*
X0211634Y0101280D01*
G75*
G02*
X0210650Y0102264I0000000J0000984D01*
G01*
X0210650Y0113484D01*
G75*
G02*
X0211634Y0114469I0000984J0000000D01*
G01*
X0214488Y0114469D01*
G75*
G02*
X0215473Y0113484I0000000J-000984D01*
G01*
G37*
G36*
G01*
X0164685Y0052992D02*
X0160551Y0052992D01*
G75*
G02*
X0160158Y0053386I0000000J0000394D01*
G01*
X0160158Y0056535D01*
G75*
G02*
X0160551Y0056929I0000394J0000000D01*
G01*
X0164685Y0056929D01*
G75*
G02*
X0165079Y0056535I0000000J-000394D01*
G01*
X0165079Y0053386D01*
G75*
G02*
X0164685Y0052992I-000394J0000000D01*
G01*
G37*
G36*
G01*
X0164685Y0060866D02*
X0160551Y0060866D01*
G75*
G02*
X0160158Y0061260I0000000J0000394D01*
G01*
X0160158Y0064409D01*
G75*
G02*
X0160551Y0064803I0000394J0000000D01*
G01*
X0164685Y0064803D01*
G75*
G02*
X0165079Y0064409I0000000J-000394D01*
G01*
X0165079Y0061260D01*
G75*
G02*
X0164685Y0060866I-000394J0000000D01*
G01*
G37*
G36*
G01*
X0172559Y0052992D02*
X0168425Y0052992D01*
G75*
G02*
X0168032Y0053386I0000000J0000394D01*
G01*
X0168032Y0056535D01*
G75*
G02*
X0168425Y0056929I0000394J0000000D01*
G01*
X0172559Y0056929D01*
G75*
G02*
X0172953Y0056535I0000000J-000394D01*
G01*
X0172953Y0053386D01*
G75*
G02*
X0172559Y0052992I-000394J0000000D01*
G01*
G37*
G36*
G01*
X0172559Y0060866D02*
X0168425Y0060866D01*
G75*
G02*
X0168032Y0061260I0000000J0000394D01*
G01*
X0168032Y0064409D01*
G75*
G02*
X0168425Y0064803I0000394J0000000D01*
G01*
X0172559Y0064803D01*
G75*
G02*
X0172953Y0064409I0000000J-000394D01*
G01*
X0172953Y0061260D01*
G75*
G02*
X0172559Y0060866I-000394J0000000D01*
G01*
G37*
G36*
G01*
X0148937Y0052992D02*
X0144803Y0052992D01*
G75*
G02*
X0144410Y0053386I0000000J0000394D01*
G01*
X0144410Y0056535D01*
G75*
G02*
X0144803Y0056929I0000394J0000000D01*
G01*
X0148937Y0056929D01*
G75*
G02*
X0149331Y0056535I0000000J-000394D01*
G01*
X0149331Y0053386D01*
G75*
G02*
X0148937Y0052992I-000394J0000000D01*
G01*
G37*
G36*
G01*
X0148937Y0060866D02*
X0144803Y0060866D01*
G75*
G02*
X0144410Y0061260I0000000J0000394D01*
G01*
X0144410Y0064409D01*
G75*
G02*
X0144803Y0064803I0000394J0000000D01*
G01*
X0148937Y0064803D01*
G75*
G02*
X0149331Y0064409I0000000J-000394D01*
G01*
X0149331Y0061260D01*
G75*
G02*
X0148937Y0060866I-000394J0000000D01*
G01*
G37*
G36*
G01*
X0152677Y0080551D02*
X0156811Y0080551D01*
G75*
G02*
X0157205Y0080157I0000000J-000394D01*
G01*
X0157205Y0077008D01*
G75*
G02*
X0156811Y0076614I-000394J0000000D01*
G01*
X0152677Y0076614D01*
G75*
G02*
X0152284Y0077008I0000000J0000394D01*
G01*
X0152284Y0080157D01*
G75*
G02*
X0152677Y0080551I0000394J0000000D01*
G01*
G37*
G36*
G01*
X0152677Y0072677D02*
X0156811Y0072677D01*
G75*
G02*
X0157205Y0072283I0000000J-000394D01*
G01*
X0157205Y0069134D01*
G75*
G02*
X0156811Y0068740I-000394J0000000D01*
G01*
X0152677Y0068740D01*
G75*
G02*
X0152284Y0069134I0000000J0000394D01*
G01*
X0152284Y0072283D01*
G75*
G02*
X0152677Y0072677I0000394J0000000D01*
G01*
G37*
G36*
G01*
X0201791Y0043307D02*
X0205925Y0043307D01*
G75*
G02*
X0206319Y0042913I0000000J-000394D01*
G01*
X0206319Y0039764D01*
G75*
G02*
X0205925Y0039370I-000394J0000000D01*
G01*
X0201791Y0039370D01*
G75*
G02*
X0201398Y0039764I0000000J0000394D01*
G01*
X0201398Y0042913D01*
G75*
G02*
X0201791Y0043307I0000394J0000000D01*
G01*
G37*
G36*
G01*
X0201791Y0035433D02*
X0205925Y0035433D01*
G75*
G02*
X0206319Y0035039I0000000J-000394D01*
G01*
X0206319Y0031890D01*
G75*
G02*
X0205925Y0031496I-000394J0000000D01*
G01*
X0201791Y0031496D01*
G75*
G02*
X0201398Y0031890I0000000J0000394D01*
G01*
X0201398Y0035039D01*
G75*
G02*
X0201791Y0035433I0000394J0000000D01*
G01*
G37*
G36*
G01*
X0251457Y0297441D02*
X0248386Y0297441D01*
G75*
G02*
X0248110Y0297717I0000000J0000276D01*
G01*
X0248110Y0299921D01*
G75*
G02*
X0248386Y0300197I0000276J0000000D01*
G01*
X0251457Y0300197D01*
G75*
G02*
X0251732Y0299921I0000000J-000276D01*
G01*
X0251732Y0297717D01*
G75*
G02*
X0251457Y0297441I-000276J0000000D01*
G01*
G37*
G36*
G01*
X0251457Y0303740D02*
X0248386Y0303740D01*
G75*
G02*
X0248110Y0304016I0000000J0000276D01*
G01*
X0248110Y0306220D01*
G75*
G02*
X0248386Y0306496I0000276J0000000D01*
G01*
X0251457Y0306496D01*
G75*
G02*
X0251732Y0306220I0000000J-000276D01*
G01*
X0251732Y0304016D01*
G75*
G02*
X0251457Y0303740I-000276J0000000D01*
G01*
G37*
G36*
G01*
X0182303Y0015748D02*
X0178169Y0015748D01*
G75*
G02*
X0177776Y0016142I0000000J0000394D01*
G01*
X0177776Y0019291D01*
G75*
G02*
X0178169Y0019685I0000394J0000000D01*
G01*
X0182303Y0019685D01*
G75*
G02*
X0182697Y0019291I0000000J-000394D01*
G01*
X0182697Y0016142D01*
G75*
G02*
X0182303Y0015748I-000394J0000000D01*
G01*
G37*
G36*
G01*
X0182303Y0023622D02*
X0178169Y0023622D01*
G75*
G02*
X0177776Y0024016I0000000J0000394D01*
G01*
X0177776Y0027165D01*
G75*
G02*
X0178169Y0027559I0000394J0000000D01*
G01*
X0182303Y0027559D01*
G75*
G02*
X0182697Y0027165I0000000J-000394D01*
G01*
X0182697Y0024016D01*
G75*
G02*
X0182303Y0023622I-000394J0000000D01*
G01*
G37*
G36*
G01*
X0353110Y0247835D02*
X0356181Y0247835D01*
G75*
G02*
X0356457Y0247559I0000000J-000276D01*
G01*
X0356457Y0245354D01*
G75*
G02*
X0356181Y0245079I-000276J0000000D01*
G01*
X0353110Y0245079D01*
G75*
G02*
X0352835Y0245354I0000000J0000276D01*
G01*
X0352835Y0247559D01*
G75*
G02*
X0353110Y0247835I0000276J0000000D01*
G01*
G37*
G36*
G01*
X0353110Y0241535D02*
X0356181Y0241535D01*
G75*
G02*
X0356457Y0241260I0000000J-000276D01*
G01*
X0356457Y0239055D01*
G75*
G02*
X0356181Y0238780I-000276J0000000D01*
G01*
X0353110Y0238780D01*
G75*
G02*
X0352835Y0239055I0000000J0000276D01*
G01*
X0352835Y0241260D01*
G75*
G02*
X0353110Y0241535I0000276J0000000D01*
G01*
G37*
G36*
G01*
X0434606Y0283268D02*
X0437677Y0283268D01*
G75*
G02*
X0437953Y0282992I0000000J-000276D01*
G01*
X0437953Y0280787D01*
G75*
G02*
X0437677Y0280512I-000276J0000000D01*
G01*
X0434606Y0280512D01*
G75*
G02*
X0434331Y0280787I0000000J0000276D01*
G01*
X0434331Y0282992D01*
G75*
G02*
X0434606Y0283268I0000276J0000000D01*
G01*
G37*
G36*
G01*
X0434606Y0276969D02*
X0437677Y0276969D01*
G75*
G02*
X0437953Y0276693I0000000J-000276D01*
G01*
X0437953Y0274488D01*
G75*
G02*
X0437677Y0274213I-000276J0000000D01*
G01*
X0434606Y0274213D01*
G75*
G02*
X0434331Y0274488I0000000J0000276D01*
G01*
X0434331Y0276693D01*
G75*
G02*
X0434606Y0276969I0000276J0000000D01*
G01*
G37*
G36*
G01*
X0195158Y0078150D02*
X0192087Y0078150D01*
G75*
G02*
X0191811Y0078425I0000000J0000276D01*
G01*
X0191811Y0080630D01*
G75*
G02*
X0192087Y0080906I0000276J0000000D01*
G01*
X0195158Y0080906D01*
G75*
G02*
X0195433Y0080630I0000000J-000276D01*
G01*
X0195433Y0078425D01*
G75*
G02*
X0195158Y0078150I-000276J0000000D01*
G01*
G37*
G36*
G01*
X0195158Y0084449D02*
X0192087Y0084449D01*
G75*
G02*
X0191811Y0084724I0000000J0000276D01*
G01*
X0191811Y0086929D01*
G75*
G02*
X0192087Y0087205I0000276J0000000D01*
G01*
X0195158Y0087205D01*
G75*
G02*
X0195433Y0086929I0000000J-000276D01*
G01*
X0195433Y0084724D01*
G75*
G02*
X0195158Y0084449I-000276J0000000D01*
G01*
G37*
G36*
G01*
X0243917Y0305709D02*
X0243917Y0304528D01*
G75*
G02*
X0243327Y0303937I-000591J0000000D01*
G01*
X0236831Y0303937D01*
G75*
G02*
X0236240Y0304528I0000000J0000591D01*
G01*
X0236240Y0305709D01*
G75*
G02*
X0236831Y0306299I0000591J0000000D01*
G01*
X0243327Y0306299D01*
G75*
G02*
X0243917Y0305709I0000000J-000591D01*
G01*
G37*
G36*
G01*
X0243917Y0300709D02*
X0243917Y0299528D01*
G75*
G02*
X0243327Y0298937I-000591J0000000D01*
G01*
X0236831Y0298937D01*
G75*
G02*
X0236240Y0299528I0000000J0000591D01*
G01*
X0236240Y0300709D01*
G75*
G02*
X0236831Y0301299I0000591J0000000D01*
G01*
X0243327Y0301299D01*
G75*
G02*
X0243917Y0300709I0000000J-000591D01*
G01*
G37*
G36*
G01*
X0243917Y0295709D02*
X0243917Y0294528D01*
G75*
G02*
X0243327Y0293937I-000591J0000000D01*
G01*
X0236831Y0293937D01*
G75*
G02*
X0236240Y0294528I0000000J0000591D01*
G01*
X0236240Y0295709D01*
G75*
G02*
X0236831Y0296299I0000591J0000000D01*
G01*
X0243327Y0296299D01*
G75*
G02*
X0243917Y0295709I0000000J-000591D01*
G01*
G37*
G36*
G01*
X0243917Y0290709D02*
X0243917Y0289528D01*
G75*
G02*
X0243327Y0288937I-000591J0000000D01*
G01*
X0236831Y0288937D01*
G75*
G02*
X0236240Y0289528I0000000J0000591D01*
G01*
X0236240Y0290709D01*
G75*
G02*
X0236831Y0291299I0000591J0000000D01*
G01*
X0243327Y0291299D01*
G75*
G02*
X0243917Y0290709I0000000J-000591D01*
G01*
G37*
G36*
G01*
X0224429Y0290709D02*
X0224429Y0289528D01*
G75*
G02*
X0223839Y0288937I-000591J0000000D01*
G01*
X0217343Y0288937D01*
G75*
G02*
X0216752Y0289528I0000000J0000591D01*
G01*
X0216752Y0290709D01*
G75*
G02*
X0217343Y0291299I0000591J0000000D01*
G01*
X0223839Y0291299D01*
G75*
G02*
X0224429Y0290709I0000000J-000591D01*
G01*
G37*
G36*
G01*
X0224429Y0295709D02*
X0224429Y0294528D01*
G75*
G02*
X0223839Y0293937I-000591J0000000D01*
G01*
X0217343Y0293937D01*
G75*
G02*
X0216752Y0294528I0000000J0000591D01*
G01*
X0216752Y0295709D01*
G75*
G02*
X0217343Y0296299I0000591J0000000D01*
G01*
X0223839Y0296299D01*
G75*
G02*
X0224429Y0295709I0000000J-000591D01*
G01*
G37*
G36*
G01*
X0224429Y0300709D02*
X0224429Y0299528D01*
G75*
G02*
X0223839Y0298937I-000591J0000000D01*
G01*
X0217343Y0298937D01*
G75*
G02*
X0216752Y0299528I0000000J0000591D01*
G01*
X0216752Y0300709D01*
G75*
G02*
X0217343Y0301299I0000591J0000000D01*
G01*
X0223839Y0301299D01*
G75*
G02*
X0224429Y0300709I0000000J-000591D01*
G01*
G37*
G36*
G01*
X0224429Y0305709D02*
X0224429Y0304528D01*
G75*
G02*
X0223839Y0303937I-000591J0000000D01*
G01*
X0217343Y0303937D01*
G75*
G02*
X0216752Y0304528I0000000J0000591D01*
G01*
X0216752Y0305709D01*
G75*
G02*
X0217343Y0306299I0000591J0000000D01*
G01*
X0223839Y0306299D01*
G75*
G02*
X0224429Y0305709I0000000J-000591D01*
G01*
G37*
X0096949Y0004823D02*
G01*
G75*
D123*
X0126864Y0081201D02*
D03*
X0113872Y0081201D02*
D03*
D124*
X0146724Y0081595D02*
D03*
X0135307Y0081595D02*
D03*
X0146724Y0073563D02*
D03*
X0135307Y0073563D02*
D03*
D127*
X0109351Y0059547D02*
D03*
X0109351Y0063484D02*
D03*
X0106004Y0074114D02*
D03*
X0114666Y0074114D02*
D03*
X0105217Y0068866D02*
D03*
X0113878Y0068866D02*
D03*
D128*
X0117104Y0016240D02*
D03*
X0113560Y0016240D02*
D03*
X0126495Y0052973D02*
D03*
X0130039Y0052973D02*
D03*
X0118498Y0068078D02*
D03*
X0122041Y0068078D02*
D03*
X0125722Y0016240D02*
D03*
X0122179Y0016240D02*
D03*
X0105217Y0020177D02*
D03*
X0108760Y0020177D02*
D03*
D129*
X0130702Y0069653D02*
D03*
X0130702Y0073197D02*
D03*
X0109935Y0082055D02*
D03*
X0109935Y0078511D02*
D03*
X0158699Y0023738D02*
D03*
X0158699Y0027282D02*
D03*
D130*
X0162697Y0022933D02*
D03*
X0162697Y0018996D02*
D03*
D131*
X0099902Y0076476D02*
D03*
X0099902Y0009547D02*
D03*
X0099902Y0056988D02*
D03*
X0160925Y0056791D02*
D03*
X0160925Y0081988D02*
D03*
X0160925Y0032382D02*
D03*
X0160925Y0049311D02*
D03*
X0160925Y0007776D02*
D03*
X0099902Y0083760D02*
D03*
D139*
X0154823Y0082776D02*
D03*
X0154823Y0074114D02*
D03*
X0116907Y0020177D02*
D03*
X0112970Y0020177D02*
D03*
X0121588Y0020177D02*
D03*
X0125525Y0020177D02*
D03*
X0118301Y0074114D02*
D03*
X0122238Y0074114D02*
D03*
X0141234Y0052500D02*
D03*
X0145171Y0052500D02*
D03*
X0149010Y0015059D02*
D03*
X0145072Y0015059D02*
D03*
D140*
X0146162Y0061122D02*
D03*
X0135138Y0061122D02*
D03*
D141*
X0113484Y0056799D02*
D03*
X0113484Y0063019D02*
D03*
X0127578Y0056799D02*
D03*
X0127578Y0063019D02*
D03*
X0122887Y0056799D02*
D03*
X0122887Y0063019D02*
D03*
X0118195Y0056799D02*
D03*
X0118195Y0063019D02*
D03*
X0126397Y0069043D02*
D03*
X0126397Y0075264D02*
D03*
D142*
X0122021Y0026937D02*
D03*
X0117021Y0026937D02*
D03*
X0112021Y0026937D02*
D03*
X0107021Y0026937D02*
D03*
X0122021Y0049574D02*
D03*
X0117021Y0049574D02*
D03*
X0112021Y0049574D02*
D03*
X0107021Y0049574D02*
D03*
X0145088Y0021654D02*
D03*
X0140088Y0021654D02*
D03*
X0135088Y0021654D02*
D03*
X0130088Y0021654D02*
D03*
X0145088Y0045079D02*
D03*
X0140088Y0045079D02*
D03*
X0135088Y0045079D02*
D03*
X0130088Y0045079D02*
D03*
D143*
X0114521Y0038255D02*
D03*
D144*
X0137588Y0033366D02*
D03*
X0303051Y0323327D02*
G01*
G75*
D130*
X0313287Y0287894D02*
D03*
X0309547Y0287894D02*
D03*
X0305807Y0287894D02*
D03*
X0309744Y0322146D02*
D03*
X0313287Y0322146D02*
D03*
D305*
X0313287Y0295374D02*
D03*
X0313287Y0291437D02*
D03*
X0313287Y0306497D02*
D03*
X0313287Y0310434D02*
D03*
X0313287Y0314863D02*
D03*
X0313287Y0318800D02*
D03*
X0306004Y0295374D02*
D03*
X0306004Y0291437D02*
D03*
D306*
X0305807Y0298759D02*
D03*
X0309350Y0298759D02*
D03*
D307*
X0312520Y0302644D02*
D03*
X0306299Y0302644D02*
D03*
D308*
X0309350Y0315256D02*
D03*
X0309350Y0318799D02*
D03*
X0305807Y0306890D02*
D03*
X0305807Y0310433D02*
D03*
X0309408Y0292028D02*
D03*
X0309408Y0295571D02*
D03*
X0305807Y0318799D02*
D03*
X0305807Y0315256D02*
D03*
X0166437Y0305020D02*
%LPD*%
G01*
D26*
X0193602Y0246752D03*
X0188878Y0246752D03*
X0198327Y0246752D03*
X0203051Y0246752D03*
X0177618Y0303544D03*
X0173681Y0303544D03*
G36*
G01*
X0197031Y0288091D02*
X0195850Y0288091D01*
G75*
G02*
X0195259Y0288681I0000000J0000591D01*
G01*
X0195259Y0292717D01*
G75*
G02*
X0195850Y0293307I0000591J0000000D01*
G01*
X0197031Y0293307D01*
G75*
G02*
X0197621Y0292717I0000000J-000591D01*
G01*
X0197621Y0288681D01*
G75*
G02*
X0197031Y0288091I-000591J0000000D01*
G01*
G37*
G36*
G01*
X0193290Y0288091D02*
X0192109Y0288091D01*
G75*
G02*
X0191519Y0288681I0000000J0000591D01*
G01*
X0191519Y0292717D01*
G75*
G02*
X0192109Y0293307I0000591J0000000D01*
G01*
X0193290Y0293307D01*
G75*
G02*
X0193881Y0292717I0000000J-000591D01*
G01*
X0193881Y0288681D01*
G75*
G02*
X0193290Y0288091I-000591J0000000D01*
G01*
G37*
G36*
G01*
X0189550Y0288091D02*
X0188369Y0288091D01*
G75*
G02*
X0187779Y0288681I0000000J0000591D01*
G01*
X0187779Y0292717D01*
G75*
G02*
X0188369Y0293307I0000591J0000000D01*
G01*
X0189550Y0293307D01*
G75*
G02*
X0190141Y0292717I0000000J-000591D01*
G01*
X0190141Y0288681D01*
G75*
G02*
X0189550Y0288091I-000591J0000000D01*
G01*
G37*
G36*
G01*
X0189550Y0297048D02*
X0188369Y0297048D01*
G75*
G02*
X0187779Y0297638I0000000J0000591D01*
G01*
X0187779Y0301674D01*
G75*
G02*
X0188369Y0302264I0000591J0000000D01*
G01*
X0189550Y0302264D01*
G75*
G02*
X0190141Y0301674I0000000J-000591D01*
G01*
X0190141Y0297638D01*
G75*
G02*
X0189550Y0297048I-000591J0000000D01*
G01*
G37*
G36*
G01*
X0197031Y0297048D02*
X0195850Y0297048D01*
G75*
G02*
X0195259Y0297638I0000000J0000591D01*
G01*
X0195259Y0301674D01*
G75*
G02*
X0195850Y0302264I0000591J0000000D01*
G01*
X0197031Y0302264D01*
G75*
G02*
X0197621Y0301674I0000000J-000591D01*
G01*
X0197621Y0297638D01*
G75*
G02*
X0197031Y0297048I-000591J0000000D01*
G01*
G37*
G36*
G01*
X0174744Y0288366D02*
X0174744Y0287028D01*
G75*
G02*
X0174193Y0286477I-000551J0000000D01*
G01*
X0173091Y0286477D01*
G75*
G02*
X0172539Y0287028I0000000J0000551D01*
G01*
X0172539Y0288366D01*
G75*
G02*
X0173091Y0288918I0000551J0000000D01*
G01*
X0174193Y0288918D01*
G75*
G02*
X0174744Y0288366I0000000J-000551D01*
G01*
G37*
G36*
G01*
X0170965Y0288366D02*
X0170965Y0287028D01*
G75*
G02*
X0170413Y0286477I-000551J0000000D01*
G01*
X0169311Y0286477D01*
G75*
G02*
X0168760Y0287028I0000000J0000551D01*
G01*
X0168760Y0288366D01*
G75*
G02*
X0169311Y0288918I0000551J0000000D01*
G01*
X0170413Y0288918D01*
G75*
G02*
X0170965Y0288366I0000000J-000551D01*
G01*
G37*
G36*
G01*
X0197461Y0261851D02*
X0198799Y0261851D01*
G75*
G02*
X0199350Y0261300I0000000J-000551D01*
G01*
X0199350Y0260197D01*
G75*
G02*
X0198799Y0259646I-000551J0000000D01*
G01*
X0197461Y0259646D01*
G75*
G02*
X0196909Y0260197I0000000J0000551D01*
G01*
X0196909Y0261300D01*
G75*
G02*
X0197461Y0261851I0000551J0000000D01*
G01*
G37*
G36*
G01*
X0197461Y0258071D02*
X0198799Y0258071D01*
G75*
G02*
X0199350Y0257520I0000000J-000551D01*
G01*
X0199350Y0256418D01*
G75*
G02*
X0198799Y0255866I-000551J0000000D01*
G01*
X0197461Y0255866D01*
G75*
G02*
X0196909Y0256418I0000000J0000551D01*
G01*
X0196909Y0257520D01*
G75*
G02*
X0197461Y0258071I0000551J0000000D01*
G01*
G37*
G36*
G01*
X0202461Y0248504D02*
X0201122Y0248504D01*
G75*
G02*
X0200571Y0249055I0000000J0000551D01*
G01*
X0200571Y0250158D01*
G75*
G02*
X0201122Y0250709I0000551J0000000D01*
G01*
X0202461Y0250709D01*
G75*
G02*
X0203012Y0250158I0000000J-000551D01*
G01*
X0203012Y0249055D01*
G75*
G02*
X0202461Y0248504I-000551J0000000D01*
G01*
G37*
G36*
G01*
X0202461Y0252284D02*
X0201122Y0252284D01*
G75*
G02*
X0200571Y0252835I0000000J0000551D01*
G01*
X0200571Y0253937D01*
G75*
G02*
X0201122Y0254489I0000551J0000000D01*
G01*
X0202461Y0254489D01*
G75*
G02*
X0203012Y0253937I0000000J-000551D01*
G01*
X0203012Y0252835D01*
G75*
G02*
X0202461Y0252284I-000551J0000000D01*
G01*
G37*
G36*
G01*
X0193720Y0270256D02*
X0195059Y0270256D01*
G75*
G02*
X0195610Y0269705I0000000J-000551D01*
G01*
X0195610Y0268603D01*
G75*
G02*
X0195059Y0268051I-000551J0000000D01*
G01*
X0193720Y0268051D01*
G75*
G02*
X0193169Y0268603I0000000J0000551D01*
G01*
X0193169Y0269705D01*
G75*
G02*
X0193720Y0270256I0000551J0000000D01*
G01*
G37*
G36*
G01*
X0193720Y0266477D02*
X0195059Y0266477D01*
G75*
G02*
X0195610Y0265926I0000000J-000551D01*
G01*
X0195610Y0264823D01*
G75*
G02*
X0195059Y0264272I-000551J0000000D01*
G01*
X0193720Y0264272D01*
G75*
G02*
X0193169Y0264823I0000000J0000551D01*
G01*
X0193169Y0265926D01*
G75*
G02*
X0193720Y0266477I0000551J0000000D01*
G01*
G37*
G36*
G01*
X0198799Y0248701D02*
X0197461Y0248701D01*
G75*
G02*
X0196909Y0249252I0000000J0000551D01*
G01*
X0196909Y0250355D01*
G75*
G02*
X0197461Y0250906I0000551J0000000D01*
G01*
X0198799Y0250906D01*
G75*
G02*
X0199350Y0250355I0000000J-000551D01*
G01*
X0199350Y0249252D01*
G75*
G02*
X0198799Y0248701I-000551J0000000D01*
G01*
G37*
G36*
G01*
X0198799Y0252481D02*
X0197461Y0252481D01*
G75*
G02*
X0196909Y0253032I0000000J0000551D01*
G01*
X0196909Y0254134D01*
G75*
G02*
X0197461Y0254685I0000551J0000000D01*
G01*
X0198799Y0254685D01*
G75*
G02*
X0199350Y0254134I0000000J-000551D01*
G01*
X0199350Y0253032D01*
G75*
G02*
X0198799Y0252481I-000551J0000000D01*
G01*
G37*
G36*
G01*
X0177283Y0253977D02*
X0178622Y0253977D01*
G75*
G02*
X0179173Y0253426I0000000J-000551D01*
G01*
X0179173Y0252323D01*
G75*
G02*
X0178622Y0251772I-000551J0000000D01*
G01*
X0177283Y0251772D01*
G75*
G02*
X0176732Y0252323I0000000J0000551D01*
G01*
X0176732Y0253426D01*
G75*
G02*
X0177283Y0253977I0000551J0000000D01*
G01*
G37*
G36*
G01*
X0177283Y0250197D02*
X0178622Y0250197D01*
G75*
G02*
X0179173Y0249646I0000000J-000551D01*
G01*
X0179173Y0248544D01*
G75*
G02*
X0178622Y0247992I-000551J0000000D01*
G01*
X0177283Y0247992D01*
G75*
G02*
X0176732Y0248544I0000000J0000551D01*
G01*
X0176732Y0249646D01*
G75*
G02*
X0177283Y0250197I0000551J0000000D01*
G01*
G37*
G36*
G01*
X0169783Y0284486D02*
X0170571Y0284486D01*
G75*
G02*
X0170965Y0284092I0000000J-000394D01*
G01*
X0170965Y0279072D01*
G75*
G02*
X0170571Y0278679I-000394J0000000D01*
G01*
X0169783Y0278679D01*
G75*
G02*
X0169390Y0279072I0000000J0000394D01*
G01*
X0169390Y0284092D01*
G75*
G02*
X0169783Y0284486I0000394J0000000D01*
G01*
G37*
G36*
G01*
X0172343Y0284486D02*
X0173130Y0284486D01*
G75*
G02*
X0173524Y0284092I0000000J-000394D01*
G01*
X0173524Y0279072D01*
G75*
G02*
X0173130Y0278679I-000394J0000000D01*
G01*
X0172343Y0278679D01*
G75*
G02*
X0171949Y0279072I0000000J0000394D01*
G01*
X0171949Y0284092D01*
G75*
G02*
X0172343Y0284486I0000394J0000000D01*
G01*
G37*
G36*
G01*
X0174902Y0284486D02*
X0175689Y0284486D01*
G75*
G02*
X0176083Y0284092I0000000J-000394D01*
G01*
X0176083Y0279072D01*
G75*
G02*
X0175689Y0278679I-000394J0000000D01*
G01*
X0174902Y0278679D01*
G75*
G02*
X0174508Y0279072I0000000J0000394D01*
G01*
X0174508Y0284092D01*
G75*
G02*
X0174902Y0284486I0000394J0000000D01*
G01*
G37*
G36*
G01*
X0177461Y0284486D02*
X0178248Y0284486D01*
G75*
G02*
X0178642Y0284092I0000000J-000394D01*
G01*
X0178642Y0279072D01*
G75*
G02*
X0178248Y0278679I-000394J0000000D01*
G01*
X0177461Y0278679D01*
G75*
G02*
X0177067Y0279072I0000000J0000394D01*
G01*
X0177067Y0284092D01*
G75*
G02*
X0177461Y0284486I0000394J0000000D01*
G01*
G37*
G36*
G01*
X0180020Y0284486D02*
X0180807Y0284486D01*
G75*
G02*
X0181201Y0284092I0000000J-000394D01*
G01*
X0181201Y0279072D01*
G75*
G02*
X0180807Y0278679I-000394J0000000D01*
G01*
X0180020Y0278679D01*
G75*
G02*
X0179626Y0279072I0000000J0000394D01*
G01*
X0179626Y0284092D01*
G75*
G02*
X0180020Y0284486I0000394J0000000D01*
G01*
G37*
G36*
G01*
X0182579Y0284486D02*
X0183366Y0284486D01*
G75*
G02*
X0183760Y0284092I0000000J-000394D01*
G01*
X0183760Y0279072D01*
G75*
G02*
X0183366Y0278679I-000394J0000000D01*
G01*
X0182579Y0278679D01*
G75*
G02*
X0182185Y0279072I0000000J0000394D01*
G01*
X0182185Y0284092D01*
G75*
G02*
X0182579Y0284486I0000394J0000000D01*
G01*
G37*
G36*
G01*
X0185138Y0284486D02*
X0185925Y0284486D01*
G75*
G02*
X0186319Y0284092I0000000J-000394D01*
G01*
X0186319Y0279072D01*
G75*
G02*
X0185925Y0278679I-000394J0000000D01*
G01*
X0185138Y0278679D01*
G75*
G02*
X0184744Y0279072I0000000J0000394D01*
G01*
X0184744Y0284092D01*
G75*
G02*
X0185138Y0284486I0000394J0000000D01*
G01*
G37*
G36*
G01*
X0185138Y0261946D02*
X0185925Y0261946D01*
G75*
G02*
X0186319Y0261553I0000000J-000394D01*
G01*
X0186319Y0256533D01*
G75*
G02*
X0185925Y0256139I-000394J0000000D01*
G01*
X0185138Y0256139D01*
G75*
G02*
X0184744Y0256533I0000000J0000394D01*
G01*
X0184744Y0261553D01*
G75*
G02*
X0185138Y0261946I0000394J0000000D01*
G01*
G37*
G36*
G01*
X0182579Y0261946D02*
X0183366Y0261946D01*
G75*
G02*
X0183760Y0261553I0000000J-000394D01*
G01*
X0183760Y0256533D01*
G75*
G02*
X0183366Y0256139I-000394J0000000D01*
G01*
X0182579Y0256139D01*
G75*
G02*
X0182185Y0256533I0000000J0000394D01*
G01*
X0182185Y0261553D01*
G75*
G02*
X0182579Y0261946I0000394J0000000D01*
G01*
G37*
G36*
G01*
X0180020Y0261946D02*
X0180807Y0261946D01*
G75*
G02*
X0181201Y0261553I0000000J-000394D01*
G01*
X0181201Y0256533D01*
G75*
G02*
X0180807Y0256139I-000394J0000000D01*
G01*
X0180020Y0256139D01*
G75*
G02*
X0179626Y0256533I0000000J0000394D01*
G01*
X0179626Y0261553D01*
G75*
G02*
X0180020Y0261946I0000394J0000000D01*
G01*
G37*
G36*
G01*
X0177461Y0261946D02*
X0178248Y0261946D01*
G75*
G02*
X0178642Y0261553I0000000J-000394D01*
G01*
X0178642Y0256533D01*
G75*
G02*
X0178248Y0256139I-000394J0000000D01*
G01*
X0177461Y0256139D01*
G75*
G02*
X0177067Y0256533I0000000J0000394D01*
G01*
X0177067Y0261553D01*
G75*
G02*
X0177461Y0261946I0000394J0000000D01*
G01*
G37*
G36*
G01*
X0174902Y0261946D02*
X0175689Y0261946D01*
G75*
G02*
X0176083Y0261553I0000000J-000394D01*
G01*
X0176083Y0256533D01*
G75*
G02*
X0175689Y0256139I-000394J0000000D01*
G01*
X0174902Y0256139D01*
G75*
G02*
X0174508Y0256533I0000000J0000394D01*
G01*
X0174508Y0261553D01*
G75*
G02*
X0174902Y0261946I0000394J0000000D01*
G01*
G37*
G36*
G01*
X0172343Y0261946D02*
X0173130Y0261946D01*
G75*
G02*
X0173524Y0261553I0000000J-000394D01*
G01*
X0173524Y0256533D01*
G75*
G02*
X0173130Y0256139I-000394J0000000D01*
G01*
X0172343Y0256139D01*
G75*
G02*
X0171949Y0256533I0000000J0000394D01*
G01*
X0171949Y0261553D01*
G75*
G02*
X0172343Y0261946I0000394J0000000D01*
G01*
G37*
G36*
G01*
X0169783Y0261946D02*
X0170571Y0261946D01*
G75*
G02*
X0170965Y0261553I0000000J-000394D01*
G01*
X0170965Y0256533D01*
G75*
G02*
X0170571Y0256139I-000394J0000000D01*
G01*
X0169783Y0256139D01*
G75*
G02*
X0169390Y0256533I0000000J0000394D01*
G01*
X0169390Y0261553D01*
G75*
G02*
X0169783Y0261946I0000394J0000000D01*
G01*
G37*
G36*
G01*
X0177654Y0302129D02*
X0181197Y0302129D01*
G75*
G02*
X0182181Y0301145I0000000J-000984D01*
G01*
X0182181Y0299078D01*
G75*
G02*
X0181197Y0298094I-000984J0000000D01*
G01*
X0177654Y0298094D01*
G75*
G02*
X0176669Y0299078I0000000J0000984D01*
G01*
X0176669Y0301145D01*
G75*
G02*
X0177654Y0302129I0000984J0000000D01*
G01*
G37*
G36*
G01*
X0177654Y0294944D02*
X0181197Y0294944D01*
G75*
G02*
X0182181Y0293960I0000000J-000984D01*
G01*
X0182181Y0291893D01*
G75*
G02*
X0181197Y0290909I-000984J0000000D01*
G01*
X0177654Y0290909D01*
G75*
G02*
X0176669Y0291893I0000000J0000984D01*
G01*
X0176669Y0293960D01*
G75*
G02*
X0177654Y0294944I0000984J0000000D01*
G01*
G37*
G36*
G01*
X0191378Y0255886D02*
X0189921Y0255886D01*
G75*
G02*
X0189390Y0256418I0000000J0000531D01*
G01*
X0189390Y0257481D01*
G75*
G02*
X0189921Y0258012I0000531J0000000D01*
G01*
X0191378Y0258012D01*
G75*
G02*
X0191909Y0257481I0000000J-000531D01*
G01*
X0191909Y0256418D01*
G75*
G02*
X0191378Y0255886I-000531J0000000D01*
G01*
G37*
G36*
G01*
X0191378Y0259902D02*
X0189921Y0259902D01*
G75*
G02*
X0189390Y0260433I0000000J0000531D01*
G01*
X0189390Y0261496D01*
G75*
G02*
X0189921Y0262028I0000531J0000000D01*
G01*
X0191378Y0262028D01*
G75*
G02*
X0191909Y0261496I0000000J-000531D01*
G01*
X0191909Y0260433D01*
G75*
G02*
X0191378Y0259902I-000531J0000000D01*
G01*
G37*
G36*
G01*
X0202303Y0296319D02*
X0200965Y0296319D01*
G75*
G02*
X0200413Y0296870I0000000J0000551D01*
G01*
X0200413Y0297973D01*
G75*
G02*
X0200965Y0298524I0000551J0000000D01*
G01*
X0202303Y0298524D01*
G75*
G02*
X0202854Y0297973I0000000J-000551D01*
G01*
X0202854Y0296870D01*
G75*
G02*
X0202303Y0296319I-000551J0000000D01*
G01*
G37*
G36*
G01*
X0202303Y0300099D02*
X0200965Y0300099D01*
G75*
G02*
X0200413Y0300650I0000000J0000551D01*
G01*
X0200413Y0301752D01*
G75*
G02*
X0200965Y0302303I0000551J0000000D01*
G01*
X0202303Y0302303D01*
G75*
G02*
X0202854Y0301752I0000000J-000551D01*
G01*
X0202854Y0300650D01*
G75*
G02*
X0202303Y0300099I-000551J0000000D01*
G01*
G37*
G36*
G01*
X0195118Y0248209D02*
X0193661Y0248209D01*
G75*
G02*
X0193130Y0248740I0000000J0000531D01*
G01*
X0193130Y0249803D01*
G75*
G02*
X0193661Y0250335I0000531J0000000D01*
G01*
X0195118Y0250335D01*
G75*
G02*
X0195650Y0249803I0000000J-000531D01*
G01*
X0195650Y0248740D01*
G75*
G02*
X0195118Y0248209I-000531J0000000D01*
G01*
G37*
G36*
G01*
X0195118Y0252225D02*
X0193661Y0252225D01*
G75*
G02*
X0193130Y0252756I0000000J0000531D01*
G01*
X0193130Y0253819D01*
G75*
G02*
X0193661Y0254351I0000531J0000000D01*
G01*
X0195118Y0254351D01*
G75*
G02*
X0195650Y0253819I0000000J-000531D01*
G01*
X0195650Y0252756D01*
G75*
G02*
X0195118Y0252225I-000531J0000000D01*
G01*
G37*
G36*
G01*
X0191378Y0264142D02*
X0189922Y0264142D01*
G75*
G02*
X0189390Y0264674I0000000J0000531D01*
G01*
X0189390Y0265737D01*
G75*
G02*
X0189922Y0266268I0000531J0000000D01*
G01*
X0191378Y0266268D01*
G75*
G02*
X0191910Y0265737I0000000J-000531D01*
G01*
X0191910Y0264674D01*
G75*
G02*
X0191378Y0264142I-000531J0000000D01*
G01*
G37*
G36*
G01*
X0191378Y0268158D02*
X0189922Y0268158D01*
G75*
G02*
X0189390Y0268690I0000000J0000531D01*
G01*
X0189390Y0269753D01*
G75*
G02*
X0189922Y0270284I0000531J0000000D01*
G01*
X0191378Y0270284D01*
G75*
G02*
X0191910Y0269753I0000000J-000531D01*
G01*
X0191910Y0268690D01*
G75*
G02*
X0191378Y0268158I-000531J0000000D01*
G01*
G37*
G36*
G01*
X0173622Y0290909D02*
X0170079Y0290909D01*
G75*
G02*
X0169094Y0291893I0000000J0000984D01*
G01*
X0169094Y0293960D01*
G75*
G02*
X0170079Y0294944I0000984J0000000D01*
G01*
X0173622Y0294944D01*
G75*
G02*
X0174606Y0293960I0000000J-000984D01*
G01*
X0174606Y0291893D01*
G75*
G02*
X0173622Y0290909I-000984J0000000D01*
G01*
G37*
G36*
G01*
X0173622Y0298094D02*
X0170079Y0298094D01*
G75*
G02*
X0169094Y0299078I0000000J0000984D01*
G01*
X0169094Y0301145D01*
G75*
G02*
X0170079Y0302129I0000984J0000000D01*
G01*
X0173622Y0302129D01*
G75*
G02*
X0174606Y0301145I0000000J-000984D01*
G01*
X0174606Y0299078D01*
G75*
G02*
X0173622Y0298094I-000984J0000000D01*
G01*
G37*
G36*
G01*
X0202520Y0264193D02*
X0201063Y0264193D01*
G75*
G02*
X0200531Y0264725I0000000J0000531D01*
G01*
X0200531Y0265788D01*
G75*
G02*
X0201063Y0266319I0000531J0000000D01*
G01*
X0202520Y0266319D01*
G75*
G02*
X0203051Y0265788I0000000J-000531D01*
G01*
X0203051Y0264725D01*
G75*
G02*
X0202520Y0264193I-000531J0000000D01*
G01*
G37*
G36*
G01*
X0202520Y0268209D02*
X0201063Y0268209D01*
G75*
G02*
X0200531Y0268740I0000000J0000531D01*
G01*
X0200531Y0269803D01*
G75*
G02*
X0201063Y0270335I0000531J0000000D01*
G01*
X0202520Y0270335D01*
G75*
G02*
X0203051Y0269803I0000000J-000531D01*
G01*
X0203051Y0268740D01*
G75*
G02*
X0202520Y0268209I-000531J0000000D01*
G01*
G37*
G36*
G01*
X0169016Y0254508D02*
X0170472Y0254508D01*
G75*
G02*
X0171004Y0253977I0000000J-000531D01*
G01*
X0171004Y0252914D01*
G75*
G02*
X0170472Y0252382I-000531J0000000D01*
G01*
X0169016Y0252382D01*
G75*
G02*
X0168484Y0252914I0000000J0000531D01*
G01*
X0168484Y0253977D01*
G75*
G02*
X0169016Y0254508I0000531J0000000D01*
G01*
G37*
G36*
G01*
X0169016Y0250492D02*
X0170472Y0250492D01*
G75*
G02*
X0171004Y0249961I0000000J-000531D01*
G01*
X0171004Y0248898D01*
G75*
G02*
X0170472Y0248366I-000531J0000000D01*
G01*
X0169016Y0248366D01*
G75*
G02*
X0168484Y0248898I0000000J0000531D01*
G01*
X0168484Y0249961D01*
G75*
G02*
X0169016Y0250492I0000531J0000000D01*
G01*
G37*
G36*
G01*
X0180965Y0254055D02*
X0182421Y0254055D01*
G75*
G02*
X0182953Y0253524I0000000J-000531D01*
G01*
X0182953Y0252461D01*
G75*
G02*
X0182421Y0251929I-000531J0000000D01*
G01*
X0180965Y0251929D01*
G75*
G02*
X0180433Y0252461I0000000J0000531D01*
G01*
X0180433Y0253524D01*
G75*
G02*
X0180965Y0254055I0000531J0000000D01*
G01*
G37*
G36*
G01*
X0180965Y0250040D02*
X0182421Y0250040D01*
G75*
G02*
X0182953Y0249508I0000000J-000531D01*
G01*
X0182953Y0248445D01*
G75*
G02*
X0182421Y0247914I-000531J0000000D01*
G01*
X0180965Y0247914D01*
G75*
G02*
X0180433Y0248445I0000000J0000531D01*
G01*
X0180433Y0249508D01*
G75*
G02*
X0180965Y0250040I0000531J0000000D01*
G01*
G37*
G36*
G01*
X0195118Y0255591D02*
X0193661Y0255591D01*
G75*
G02*
X0193130Y0256122I0000000J0000531D01*
G01*
X0193130Y0257185D01*
G75*
G02*
X0193661Y0257717I0000531J0000000D01*
G01*
X0195118Y0257717D01*
G75*
G02*
X0195650Y0257185I0000000J-000531D01*
G01*
X0195650Y0256122D01*
G75*
G02*
X0195118Y0255591I-000531J0000000D01*
G01*
G37*
G36*
G01*
X0195118Y0259607D02*
X0193661Y0259607D01*
G75*
G02*
X0193130Y0260138I0000000J0000531D01*
G01*
X0193130Y0261201D01*
G75*
G02*
X0193661Y0261733I0000531J0000000D01*
G01*
X0195118Y0261733D01*
G75*
G02*
X0195650Y0261201I0000000J-000531D01*
G01*
X0195650Y0260138D01*
G75*
G02*
X0195118Y0259607I-000531J0000000D01*
G01*
G37*
G36*
G01*
X0186201Y0247894D02*
X0184862Y0247894D01*
G75*
G02*
X0184311Y0248445I0000000J0000551D01*
G01*
X0184311Y0249548D01*
G75*
G02*
X0184862Y0250099I0000551J0000000D01*
G01*
X0186201Y0250099D01*
G75*
G02*
X0186752Y0249548I0000000J-000551D01*
G01*
X0186752Y0248445D01*
G75*
G02*
X0186201Y0247894I-000551J0000000D01*
G01*
G37*
G36*
G01*
X0186201Y0251674D02*
X0184862Y0251674D01*
G75*
G02*
X0184311Y0252225I0000000J0000551D01*
G01*
X0184311Y0253327D01*
G75*
G02*
X0184862Y0253878I0000551J0000000D01*
G01*
X0186201Y0253878D01*
G75*
G02*
X0186752Y0253327I0000000J-000551D01*
G01*
X0186752Y0252225D01*
G75*
G02*
X0186201Y0251674I-000551J0000000D01*
G01*
G37*
G36*
G01*
X0175986Y0287042D02*
X0175986Y0288380D01*
G75*
G02*
X0176537Y0288932I0000551J0000000D01*
G01*
X0177639Y0288932D01*
G75*
G02*
X0178191Y0288380I0000000J-000551D01*
G01*
X0178191Y0287042D01*
G75*
G02*
X0177639Y0286491I-000551J0000000D01*
G01*
X0176537Y0286491D01*
G75*
G02*
X0175986Y0287042I0000000J0000551D01*
G01*
G37*
G36*
G01*
X0179765Y0287042D02*
X0179765Y0288380D01*
G75*
G02*
X0180316Y0288932I0000551J0000000D01*
G01*
X0181419Y0288932D01*
G75*
G02*
X0181970Y0288380I0000000J-000551D01*
G01*
X0181970Y0287042D01*
G75*
G02*
X0181419Y0286491I-000551J0000000D01*
G01*
X0180316Y0286491D01*
G75*
G02*
X0179765Y0287042I0000000J0000551D01*
G01*
G37*
G36*
G01*
X0189921Y0254548D02*
X0191378Y0254548D01*
G75*
G02*
X0191909Y0254016I0000000J-000531D01*
G01*
X0191909Y0252953D01*
G75*
G02*
X0191378Y0252422I-000531J0000000D01*
G01*
X0189921Y0252422D01*
G75*
G02*
X0189390Y0252953I0000000J0000531D01*
G01*
X0189390Y0254016D01*
G75*
G02*
X0189921Y0254548I0000531J0000000D01*
G01*
G37*
G36*
G01*
X0189921Y0250532D02*
X0191378Y0250532D01*
G75*
G02*
X0191909Y0250000I0000000J-000531D01*
G01*
X0191909Y0248937D01*
G75*
G02*
X0191378Y0248406I-000531J0000000D01*
G01*
X0189921Y0248406D01*
G75*
G02*
X0189390Y0248937I0000000J0000531D01*
G01*
X0189390Y0250000D01*
G75*
G02*
X0189921Y0250532I0000531J0000000D01*
G01*
G37*
G36*
G01*
X0201280Y0271949D02*
X0200098Y0271949D01*
G75*
G02*
X0199508Y0272540I0000000J0000591D01*
G01*
X0199508Y0276575D01*
G75*
G02*
X0200098Y0277166I0000591J0000000D01*
G01*
X0201280Y0277166D01*
G75*
G02*
X0201870Y0276575I0000000J-000591D01*
G01*
X0201870Y0272540D01*
G75*
G02*
X0201280Y0271949I-000591J0000000D01*
G01*
G37*
G36*
G01*
X0197539Y0271949D02*
X0196358Y0271949D01*
G75*
G02*
X0195768Y0272540I0000000J0000591D01*
G01*
X0195768Y0276575D01*
G75*
G02*
X0196358Y0277166I0000591J0000000D01*
G01*
X0197539Y0277166D01*
G75*
G02*
X0198130Y0276575I0000000J-000591D01*
G01*
X0198130Y0272540D01*
G75*
G02*
X0197539Y0271949I-000591J0000000D01*
G01*
G37*
G36*
G01*
X0193799Y0271949D02*
X0192618Y0271949D01*
G75*
G02*
X0192028Y0272540I0000000J0000591D01*
G01*
X0192028Y0276575D01*
G75*
G02*
X0192618Y0277166I0000591J0000000D01*
G01*
X0193799Y0277166D01*
G75*
G02*
X0194390Y0276575I0000000J-000591D01*
G01*
X0194390Y0272540D01*
G75*
G02*
X0193799Y0271949I-000591J0000000D01*
G01*
G37*
G36*
G01*
X0193799Y0280906D02*
X0192618Y0280906D01*
G75*
G02*
X0192028Y0281496I0000000J0000591D01*
G01*
X0192028Y0285532D01*
G75*
G02*
X0192618Y0286122I0000591J0000000D01*
G01*
X0193799Y0286122D01*
G75*
G02*
X0194390Y0285532I0000000J-000591D01*
G01*
X0194390Y0281496D01*
G75*
G02*
X0193799Y0280906I-000591J0000000D01*
G01*
G37*
G36*
G01*
X0201280Y0280906D02*
X0200098Y0280906D01*
G75*
G02*
X0199508Y0281496I0000000J0000591D01*
G01*
X0199508Y0285532D01*
G75*
G02*
X0200098Y0286122I0000591J0000000D01*
G01*
X0201280Y0286122D01*
G75*
G02*
X0201870Y0285532I0000000J-000591D01*
G01*
X0201870Y0281496D01*
G75*
G02*
X0201280Y0280906I-000591J0000000D01*
G01*
G37*
G36*
G01*
X0197461Y0270256D02*
X0198799Y0270256D01*
G75*
G02*
X0199350Y0269705I0000000J-000551D01*
G01*
X0199350Y0268603D01*
G75*
G02*
X0198799Y0268051I-000551J0000000D01*
G01*
X0197461Y0268051D01*
G75*
G02*
X0196909Y0268603I0000000J0000551D01*
G01*
X0196909Y0269705D01*
G75*
G02*
X0197461Y0270256I0000551J0000000D01*
G01*
G37*
G36*
G01*
X0197461Y0266477D02*
X0198799Y0266477D01*
G75*
G02*
X0199350Y0265926I0000000J-000551D01*
G01*
X0199350Y0264823D01*
G75*
G02*
X0198799Y0264272I-000551J0000000D01*
G01*
X0197461Y0264272D01*
G75*
G02*
X0196909Y0264823I0000000J0000551D01*
G01*
X0196909Y0265926D01*
G75*
G02*
X0197461Y0266477I0000551J0000000D01*
G01*
G37*
X0122933Y0305020D02*
%LPD*%
G01*
D26*
X0150098Y0246752D03*
X0145374Y0246752D03*
X0154823Y0246752D03*
X0159547Y0246752D03*
X0134114Y0303544D03*
X0130177Y0303544D03*
X0391437Y0155906D02*
%LPD*%
G01*
D161*
X0379823Y0247087D03*
X0368012Y0239213D03*
X0379823Y0231339D03*
D174*
X0380610Y0160079D03*
X0384610Y0180079D03*
X0376610Y0180079D03*
D312*
X0341732Y0249567D03*
D313*
X0341732Y0239567D03*
X0341732Y0229567D03*
G36*
G01*
X0384078Y0235611D02*
X0382720Y0235611D01*
G75*
G02*
X0382139Y0236191I0000000J0000581D01*
G01*
X0382139Y0237353D01*
G75*
G02*
X0382720Y0237934I0000581J0000000D01*
G01*
X0384078Y0237934D01*
G75*
G02*
X0384659Y0237353I0000000J-000581D01*
G01*
X0384659Y0236191D01*
G75*
G02*
X0384078Y0235611I-000581J0000000D01*
G01*
G37*
G36*
G01*
X0384078Y0239430D02*
X0382720Y0239430D01*
G75*
G02*
X0382139Y0240010I0000000J0000581D01*
G01*
X0382139Y0241172D01*
G75*
G02*
X0382720Y0241752I0000581J0000000D01*
G01*
X0384078Y0241752D01*
G75*
G02*
X0384659Y0241172I0000000J-000581D01*
G01*
X0384659Y0240010D01*
G75*
G02*
X0384078Y0239430I-000581J0000000D01*
G01*
G37*
G36*
G01*
X0368789Y0250079D02*
X0367431Y0250079D01*
G75*
G02*
X0366850Y0250660I0000000J0000581D01*
G01*
X0366850Y0251821D01*
G75*
G02*
X0367431Y0252402I0000581J0000000D01*
G01*
X0368789Y0252402D01*
G75*
G02*
X0369370Y0251821I0000000J-000581D01*
G01*
X0369370Y0250660D01*
G75*
G02*
X0368789Y0250079I-000581J0000000D01*
G01*
G37*
G36*
G01*
X0368789Y0253898D02*
X0367431Y0253898D01*
G75*
G02*
X0366850Y0254479I0000000J0000581D01*
G01*
X0366850Y0255640D01*
G75*
G02*
X0367431Y0256221I0000581J0000000D01*
G01*
X0368789Y0256221D01*
G75*
G02*
X0369370Y0255640I0000000J-000581D01*
G01*
X0369370Y0254479D01*
G75*
G02*
X0368789Y0253898I-000581J0000000D01*
G01*
G37*
G36*
G01*
X0342593Y0200197D02*
X0344611Y0200197D01*
G75*
G02*
X0345472Y0199336I0000000J-000861D01*
G01*
X0345472Y0197614D01*
G75*
G02*
X0344611Y0196752I-000861J0000000D01*
G01*
X0342593Y0196752D01*
G75*
G02*
X0341732Y0197614I0000000J0000861D01*
G01*
X0341732Y0199336D01*
G75*
G02*
X0342593Y0200197I0000861J0000000D01*
G01*
G37*
G36*
G01*
X0342593Y0193997D02*
X0344611Y0193997D01*
G75*
G02*
X0345472Y0193135I0000000J-000861D01*
G01*
X0345472Y0191413D01*
G75*
G02*
X0344611Y0190552I-000861J0000000D01*
G01*
X0342593Y0190552D01*
G75*
G02*
X0341732Y0191413I0000000J0000861D01*
G01*
X0341732Y0193135D01*
G75*
G02*
X0342593Y0193997I0000861J0000000D01*
G01*
G37*
G36*
G01*
X0386919Y0241752D02*
X0388278Y0241752D01*
G75*
G02*
X0388858Y0241172I0000000J-000581D01*
G01*
X0388858Y0240010D01*
G75*
G02*
X0388278Y0239430I-000581J0000000D01*
G01*
X0386919Y0239430D01*
G75*
G02*
X0386339Y0240010I0000000J0000581D01*
G01*
X0386339Y0241172D01*
G75*
G02*
X0386919Y0241752I0000581J0000000D01*
G01*
G37*
G36*
G01*
X0386919Y0237934D02*
X0388278Y0237934D01*
G75*
G02*
X0388858Y0237353I0000000J-000581D01*
G01*
X0388858Y0236191D01*
G75*
G02*
X0388278Y0235611I-000581J0000000D01*
G01*
X0386919Y0235611D01*
G75*
G02*
X0386339Y0236191I0000000J0000581D01*
G01*
X0386339Y0237353D01*
G75*
G02*
X0386919Y0237934I0000581J0000000D01*
G01*
G37*
G36*
G01*
X0347923Y0182051D02*
X0346565Y0182051D01*
G75*
G02*
X0345984Y0182631I0000000J0000581D01*
G01*
X0345984Y0183793D01*
G75*
G02*
X0346565Y0184373I0000581J0000000D01*
G01*
X0347923Y0184373D01*
G75*
G02*
X0348504Y0183793I0000000J-000581D01*
G01*
X0348504Y0182631D01*
G75*
G02*
X0347923Y0182051I-000581J0000000D01*
G01*
G37*
G36*
G01*
X0347923Y0185869D02*
X0346565Y0185869D01*
G75*
G02*
X0345984Y0186450I0000000J0000581D01*
G01*
X0345984Y0187612D01*
G75*
G02*
X0346565Y0188192I0000581J0000000D01*
G01*
X0347923Y0188192D01*
G75*
G02*
X0348504Y0187612I0000000J-000581D01*
G01*
X0348504Y0186450D01*
G75*
G02*
X0347923Y0185869I-000581J0000000D01*
G01*
G37*
G36*
G01*
X0349793Y0190138D02*
X0348435Y0190138D01*
G75*
G02*
X0347854Y0190719I0000000J0000581D01*
G01*
X0347854Y0191880D01*
G75*
G02*
X0348435Y0192461I0000581J0000000D01*
G01*
X0349793Y0192461D01*
G75*
G02*
X0350374Y0191880I0000000J-000581D01*
G01*
X0350374Y0190719D01*
G75*
G02*
X0349793Y0190138I-000581J0000000D01*
G01*
G37*
G36*
G01*
X0349793Y0193957D02*
X0348435Y0193957D01*
G75*
G02*
X0347854Y0194538I0000000J0000581D01*
G01*
X0347854Y0195699D01*
G75*
G02*
X0348435Y0196280I0000581J0000000D01*
G01*
X0349793Y0196280D01*
G75*
G02*
X0350374Y0195699I0000000J-000581D01*
G01*
X0350374Y0194538D01*
G75*
G02*
X0349793Y0193957I-000581J0000000D01*
G01*
G37*
G36*
G01*
X0342461Y0161526D02*
X0342461Y0162884D01*
G75*
G02*
X0343041Y0163465I0000581J0000000D01*
G01*
X0344203Y0163465D01*
G75*
G02*
X0344783Y0162884I0000000J-000581D01*
G01*
X0344783Y0161526D01*
G75*
G02*
X0344203Y0160945I-000581J0000000D01*
G01*
X0343041Y0160945D01*
G75*
G02*
X0342461Y0161526I0000000J0000581D01*
G01*
G37*
G36*
G01*
X0346280Y0161526D02*
X0346280Y0162884D01*
G75*
G02*
X0346860Y0163465I0000581J0000000D01*
G01*
X0348022Y0163465D01*
G75*
G02*
X0348602Y0162884I0000000J-000581D01*
G01*
X0348602Y0161526D01*
G75*
G02*
X0348022Y0160945I-000581J0000000D01*
G01*
X0346860Y0160945D01*
G75*
G02*
X0346280Y0161526I0000000J0000581D01*
G01*
G37*
G36*
G01*
X0360049Y0211044D02*
X0361407Y0211044D01*
G75*
G02*
X0361988Y0210463I0000000J-000581D01*
G01*
X0361988Y0209302D01*
G75*
G02*
X0361407Y0208721I-000581J0000000D01*
G01*
X0360049Y0208721D01*
G75*
G02*
X0359468Y0209302I0000000J0000581D01*
G01*
X0359468Y0210463D01*
G75*
G02*
X0360049Y0211044I0000581J0000000D01*
G01*
G37*
G36*
G01*
X0360049Y0207225D02*
X0361407Y0207225D01*
G75*
G02*
X0361988Y0206644I0000000J-000581D01*
G01*
X0361988Y0205483D01*
G75*
G02*
X0361407Y0204902I-000581J0000000D01*
G01*
X0360049Y0204902D01*
G75*
G02*
X0359468Y0205483I0000000J0000581D01*
G01*
X0359468Y0206644D01*
G75*
G02*
X0360049Y0207225I0000581J0000000D01*
G01*
G37*
G36*
G01*
X0365344Y0204902D02*
X0363986Y0204902D01*
G75*
G02*
X0363406Y0205483I0000000J0000581D01*
G01*
X0363406Y0206644D01*
G75*
G02*
X0363986Y0207225I0000581J0000000D01*
G01*
X0365344Y0207225D01*
G75*
G02*
X0365925Y0206644I0000000J-000581D01*
G01*
X0365925Y0205483D01*
G75*
G02*
X0365344Y0204902I-000581J0000000D01*
G01*
G37*
G36*
G01*
X0365344Y0208721D02*
X0363986Y0208721D01*
G75*
G02*
X0363406Y0209302I0000000J0000581D01*
G01*
X0363406Y0210463D01*
G75*
G02*
X0363986Y0211044I0000581J0000000D01*
G01*
X0365344Y0211044D01*
G75*
G02*
X0365925Y0210463I0000000J-000581D01*
G01*
X0365925Y0209302D01*
G75*
G02*
X0365344Y0208721I-000581J0000000D01*
G01*
G37*
G36*
G01*
X0362904Y0252382D02*
X0364262Y0252382D01*
G75*
G02*
X0364843Y0251802I0000000J-000581D01*
G01*
X0364843Y0250640D01*
G75*
G02*
X0364262Y0250060I-000581J0000000D01*
G01*
X0362904Y0250060D01*
G75*
G02*
X0362323Y0250640I0000000J0000581D01*
G01*
X0362323Y0251802D01*
G75*
G02*
X0362904Y0252382I0000581J0000000D01*
G01*
G37*
G36*
G01*
X0362904Y0248563D02*
X0364262Y0248563D01*
G75*
G02*
X0364843Y0247983I0000000J-000581D01*
G01*
X0364843Y0246821D01*
G75*
G02*
X0364262Y0246241I-000581J0000000D01*
G01*
X0362904Y0246241D01*
G75*
G02*
X0362323Y0246821I0000000J0000581D01*
G01*
X0362323Y0247983D01*
G75*
G02*
X0362904Y0248563I0000581J0000000D01*
G01*
G37*
D315*
X0386319Y0198032D03*
X0383760Y0198032D03*
X0381201Y0198032D03*
X0378642Y0198032D03*
X0376083Y0198032D03*
X0373524Y0198032D03*
X0370965Y0198032D03*
X0370965Y0221260D03*
X0373524Y0221260D03*
X0376083Y0221260D03*
X0378642Y0221260D03*
X0381201Y0221260D03*
X0383760Y0221260D03*
X0386319Y0221260D03*
G36*
G01*
X0342825Y0188209D02*
X0344183Y0188209D01*
G75*
G02*
X0344764Y0187628I0000000J-000581D01*
G01*
X0344764Y0186467D01*
G75*
G02*
X0344183Y0185886I-000581J0000000D01*
G01*
X0342825Y0185886D01*
G75*
G02*
X0342244Y0186467I0000000J0000581D01*
G01*
X0342244Y0187628D01*
G75*
G02*
X0342825Y0188209I0000581J0000000D01*
G01*
G37*
G36*
G01*
X0342825Y0184390D02*
X0344183Y0184390D01*
G75*
G02*
X0344764Y0183810I0000000J-000581D01*
G01*
X0344764Y0182648D01*
G75*
G02*
X0344183Y0182067I-000581J0000000D01*
G01*
X0342825Y0182067D01*
G75*
G02*
X0342244Y0182648I0000000J0000581D01*
G01*
X0342244Y0183810D01*
G75*
G02*
X0342825Y0184390I0000581J0000000D01*
G01*
G37*
G36*
G01*
X0340443Y0182067D02*
X0339085Y0182067D01*
G75*
G02*
X0338504Y0182648I0000000J0000581D01*
G01*
X0338504Y0183810D01*
G75*
G02*
X0339085Y0184390I0000581J0000000D01*
G01*
X0340443Y0184390D01*
G75*
G02*
X0341024Y0183810I0000000J-000581D01*
G01*
X0341024Y0182648D01*
G75*
G02*
X0340443Y0182067I-000581J0000000D01*
G01*
G37*
G36*
G01*
X0340443Y0185886D02*
X0339085Y0185886D01*
G75*
G02*
X0338504Y0186467I0000000J0000581D01*
G01*
X0338504Y0187628D01*
G75*
G02*
X0339085Y0188209I0000581J0000000D01*
G01*
X0340443Y0188209D01*
G75*
G02*
X0341024Y0187628I0000000J-000581D01*
G01*
X0341024Y0186467D01*
G75*
G02*
X0340443Y0185886I-000581J0000000D01*
G01*
G37*
G36*
G01*
X0349892Y0242304D02*
X0348533Y0242304D01*
G75*
G02*
X0347953Y0242884I0000000J0000581D01*
G01*
X0347953Y0244046D01*
G75*
G02*
X0348533Y0244626I0000581J0000000D01*
G01*
X0349892Y0244626D01*
G75*
G02*
X0350472Y0244046I0000000J-000581D01*
G01*
X0350472Y0242884D01*
G75*
G02*
X0349892Y0242304I-000581J0000000D01*
G01*
G37*
G36*
G01*
X0349892Y0246123D02*
X0348533Y0246123D01*
G75*
G02*
X0347953Y0246703I0000000J0000581D01*
G01*
X0347953Y0247865D01*
G75*
G02*
X0348533Y0248445I0000581J0000000D01*
G01*
X0349892Y0248445D01*
G75*
G02*
X0350472Y0247865I0000000J-000581D01*
G01*
X0350472Y0246703D01*
G75*
G02*
X0349892Y0246123I-000581J0000000D01*
G01*
G37*
G36*
G01*
X0379190Y0235611D02*
X0377831Y0235611D01*
G75*
G02*
X0377251Y0236191I0000000J0000581D01*
G01*
X0377251Y0237353D01*
G75*
G02*
X0377831Y0237934I0000581J0000000D01*
G01*
X0379190Y0237934D01*
G75*
G02*
X0379770Y0237353I0000000J-000581D01*
G01*
X0379770Y0236191D01*
G75*
G02*
X0379190Y0235611I-000581J0000000D01*
G01*
G37*
G36*
G01*
X0379190Y0239430D02*
X0377831Y0239430D01*
G75*
G02*
X0377251Y0240010I0000000J0000581D01*
G01*
X0377251Y0241172D01*
G75*
G02*
X0377831Y0241752I0000581J0000000D01*
G01*
X0379190Y0241752D01*
G75*
G02*
X0379770Y0241172I0000000J-000581D01*
G01*
X0379770Y0240010D01*
G75*
G02*
X0379190Y0239430I-000581J0000000D01*
G01*
G37*
G36*
G01*
X0356112Y0207796D02*
X0357470Y0207796D01*
G75*
G02*
X0358051Y0207215I0000000J-000581D01*
G01*
X0358051Y0206054D01*
G75*
G02*
X0357470Y0205473I-000581J0000000D01*
G01*
X0356112Y0205473D01*
G75*
G02*
X0355531Y0206054I0000000J0000581D01*
G01*
X0355531Y0207215D01*
G75*
G02*
X0356112Y0207796I0000581J0000000D01*
G01*
G37*
G36*
G01*
X0356112Y0203977D02*
X0357470Y0203977D01*
G75*
G02*
X0358051Y0203396I0000000J-000581D01*
G01*
X0358051Y0202235D01*
G75*
G02*
X0357470Y0201654I-000581J0000000D01*
G01*
X0356112Y0201654D01*
G75*
G02*
X0355531Y0202235I0000000J0000581D01*
G01*
X0355531Y0203396D01*
G75*
G02*
X0356112Y0203977I0000581J0000000D01*
G01*
G37*
G36*
G01*
X0348533Y0256123D02*
X0349892Y0256123D01*
G75*
G02*
X0350472Y0255542I0000000J-000581D01*
G01*
X0350472Y0254380D01*
G75*
G02*
X0349892Y0253800I-000581J0000000D01*
G01*
X0348533Y0253800D01*
G75*
G02*
X0347953Y0254380I0000000J0000581D01*
G01*
X0347953Y0255542D01*
G75*
G02*
X0348533Y0256123I0000581J0000000D01*
G01*
G37*
G36*
G01*
X0348533Y0252304D02*
X0349892Y0252304D01*
G75*
G02*
X0350472Y0251723I0000000J-000581D01*
G01*
X0350472Y0250562D01*
G75*
G02*
X0349892Y0249981I-000581J0000000D01*
G01*
X0348533Y0249981D01*
G75*
G02*
X0347953Y0250562I0000000J0000581D01*
G01*
X0347953Y0251723D01*
G75*
G02*
X0348533Y0252304I0000581J0000000D01*
G01*
G37*
G36*
G01*
X0363986Y0203662D02*
X0365344Y0203662D01*
G75*
G02*
X0365925Y0203081I0000000J-000581D01*
G01*
X0365925Y0201920D01*
G75*
G02*
X0365344Y0201339I-000581J0000000D01*
G01*
X0363986Y0201339D01*
G75*
G02*
X0363406Y0201920I0000000J0000581D01*
G01*
X0363406Y0203081D01*
G75*
G02*
X0363986Y0203662I0000581J0000000D01*
G01*
G37*
G36*
G01*
X0363986Y0199843D02*
X0365344Y0199843D01*
G75*
G02*
X0365925Y0199262I0000000J-000581D01*
G01*
X0365925Y0198101D01*
G75*
G02*
X0365344Y0197520I-000581J0000000D01*
G01*
X0363986Y0197520D01*
G75*
G02*
X0363406Y0198101I0000000J0000581D01*
G01*
X0363406Y0199262D01*
G75*
G02*
X0363986Y0199843I0000581J0000000D01*
G01*
G37*
G36*
G01*
X0388602Y0192412D02*
X0388602Y0191054D01*
G75*
G02*
X0388022Y0190473I-000581J0000000D01*
G01*
X0386860Y0190473D01*
G75*
G02*
X0386280Y0191054I0000000J0000581D01*
G01*
X0386280Y0192412D01*
G75*
G02*
X0386860Y0192993I0000581J0000000D01*
G01*
X0388022Y0192993D01*
G75*
G02*
X0388602Y0192412I0000000J-000581D01*
G01*
G37*
G36*
G01*
X0384783Y0192412D02*
X0384783Y0191054D01*
G75*
G02*
X0384203Y0190473I-000581J0000000D01*
G01*
X0383041Y0190473D01*
G75*
G02*
X0382461Y0191054I0000000J0000581D01*
G01*
X0382461Y0192412D01*
G75*
G02*
X0383041Y0192993I0000581J0000000D01*
G01*
X0384203Y0192993D01*
G75*
G02*
X0384783Y0192412I0000000J-000581D01*
G01*
G37*
G36*
G01*
X0360049Y0218524D02*
X0361407Y0218524D01*
G75*
G02*
X0361988Y0217943I0000000J-000581D01*
G01*
X0361988Y0216782D01*
G75*
G02*
X0361407Y0216201I-000581J0000000D01*
G01*
X0360049Y0216201D01*
G75*
G02*
X0359468Y0216782I0000000J0000581D01*
G01*
X0359468Y0217943D01*
G75*
G02*
X0360049Y0218524I0000581J0000000D01*
G01*
G37*
G36*
G01*
X0360049Y0214705D02*
X0361407Y0214705D01*
G75*
G02*
X0361988Y0214125I0000000J-000581D01*
G01*
X0361988Y0212963D01*
G75*
G02*
X0361407Y0212382I-000581J0000000D01*
G01*
X0360049Y0212382D01*
G75*
G02*
X0359468Y0212963I0000000J0000581D01*
G01*
X0359468Y0214125D01*
G75*
G02*
X0360049Y0214705I0000581J0000000D01*
G01*
G37*
G36*
G01*
X0361407Y0219863D02*
X0360049Y0219863D01*
G75*
G02*
X0359468Y0220443I0000000J0000581D01*
G01*
X0359468Y0221605D01*
G75*
G02*
X0360049Y0222186I0000581J0000000D01*
G01*
X0361407Y0222186D01*
G75*
G02*
X0361988Y0221605I0000000J-000581D01*
G01*
X0361988Y0220443D01*
G75*
G02*
X0361407Y0219863I-000581J0000000D01*
G01*
G37*
G36*
G01*
X0361407Y0223682D02*
X0360049Y0223682D01*
G75*
G02*
X0359468Y0224262I0000000J0000581D01*
G01*
X0359468Y0225424D01*
G75*
G02*
X0360049Y0226004I0000581J0000000D01*
G01*
X0361407Y0226004D01*
G75*
G02*
X0361988Y0225424I0000000J-000581D01*
G01*
X0361988Y0224262D01*
G75*
G02*
X0361407Y0223682I-000581J0000000D01*
G01*
G37*
G36*
G01*
X0388602Y0188672D02*
X0388602Y0187313D01*
G75*
G02*
X0388022Y0186733I-000581J0000000D01*
G01*
X0386860Y0186733D01*
G75*
G02*
X0386280Y0187313I0000000J0000581D01*
G01*
X0386280Y0188672D01*
G75*
G02*
X0386860Y0189252I0000581J0000000D01*
G01*
X0388022Y0189252D01*
G75*
G02*
X0388602Y0188672I0000000J-000581D01*
G01*
G37*
G36*
G01*
X0384783Y0188672D02*
X0384783Y0187313D01*
G75*
G02*
X0384203Y0186733I-000581J0000000D01*
G01*
X0383041Y0186733D01*
G75*
G02*
X0382461Y0187313I0000000J0000581D01*
G01*
X0382461Y0188672D01*
G75*
G02*
X0383041Y0189252I0000581J0000000D01*
G01*
X0384203Y0189252D01*
G75*
G02*
X0384783Y0188672I0000000J-000581D01*
G01*
G37*
D316*
X0339764Y0177993D03*
X0343504Y0177993D03*
X0347244Y0177993D03*
X0347244Y0167678D03*
X0339764Y0167678D03*
G36*
G01*
X0357470Y0212481D02*
X0356112Y0212481D01*
G75*
G02*
X0355531Y0213062I0000000J0000581D01*
G01*
X0355531Y0214223D01*
G75*
G02*
X0356112Y0214804I0000581J0000000D01*
G01*
X0357470Y0214804D01*
G75*
G02*
X0358051Y0214223I0000000J-000581D01*
G01*
X0358051Y0213062D01*
G75*
G02*
X0357470Y0212481I-000581J0000000D01*
G01*
G37*
G36*
G01*
X0357470Y0216300D02*
X0356112Y0216300D01*
G75*
G02*
X0355531Y0216880I0000000J0000581D01*
G01*
X0355531Y0218042D01*
G75*
G02*
X0356112Y0218623I0000581J0000000D01*
G01*
X0357470Y0218623D01*
G75*
G02*
X0358051Y0218042I0000000J-000581D01*
G01*
X0358051Y0216880D01*
G75*
G02*
X0357470Y0216300I-000581J0000000D01*
G01*
G37*
G36*
G01*
X0353366Y0199892D02*
X0353366Y0198534D01*
G75*
G02*
X0352785Y0197953I-000581J0000000D01*
G01*
X0351624Y0197953D01*
G75*
G02*
X0351043Y0198534I0000000J0000581D01*
G01*
X0351043Y0199892D01*
G75*
G02*
X0351624Y0200473I0000581J0000000D01*
G01*
X0352785Y0200473D01*
G75*
G02*
X0353366Y0199892I0000000J-000581D01*
G01*
G37*
G36*
G01*
X0349547Y0199892D02*
X0349547Y0198534D01*
G75*
G02*
X0348967Y0197953I-000581J0000000D01*
G01*
X0347805Y0197953D01*
G75*
G02*
X0347224Y0198534I0000000J0000581D01*
G01*
X0347224Y0199892D01*
G75*
G02*
X0347805Y0200473I0000581J0000000D01*
G01*
X0348967Y0200473D01*
G75*
G02*
X0349547Y0199892I0000000J-000581D01*
G01*
G37*
G36*
G01*
X0373799Y0191054D02*
X0373799Y0192412D01*
G75*
G02*
X0374380Y0192993I0000581J0000000D01*
G01*
X0375541Y0192993D01*
G75*
G02*
X0376122Y0192412I0000000J-000581D01*
G01*
X0376122Y0191054D01*
G75*
G02*
X0375541Y0190473I-000581J0000000D01*
G01*
X0374380Y0190473D01*
G75*
G02*
X0373799Y0191054I0000000J0000581D01*
G01*
G37*
G36*
G01*
X0377618Y0191054D02*
X0377618Y0192412D01*
G75*
G02*
X0378199Y0192993I0000581J0000000D01*
G01*
X0379360Y0192993D01*
G75*
G02*
X0379941Y0192412I0000000J-000581D01*
G01*
X0379941Y0191054D01*
G75*
G02*
X0379360Y0190473I-000581J0000000D01*
G01*
X0378199Y0190473D01*
G75*
G02*
X0377618Y0191054I0000000J0000581D01*
G01*
G37*
G36*
G01*
X0372844Y0234174D02*
X0374203Y0234174D01*
G75*
G02*
X0374783Y0233593I0000000J-000581D01*
G01*
X0374783Y0232432D01*
G75*
G02*
X0374203Y0231851I-000581J0000000D01*
G01*
X0372844Y0231851D01*
G75*
G02*
X0372264Y0232432I0000000J0000581D01*
G01*
X0372264Y0233593D01*
G75*
G02*
X0372844Y0234174I0000581J0000000D01*
G01*
G37*
G36*
G01*
X0372844Y0230355D02*
X0374203Y0230355D01*
G75*
G02*
X0374783Y0229774I0000000J-000581D01*
G01*
X0374783Y0228613D01*
G75*
G02*
X0374203Y0228032I-000581J0000000D01*
G01*
X0372844Y0228032D01*
G75*
G02*
X0372264Y0228613I0000000J0000581D01*
G01*
X0372264Y0229774D01*
G75*
G02*
X0372844Y0230355I0000581J0000000D01*
G01*
G37*
G36*
G01*
X0372844Y0241752D02*
X0374203Y0241752D01*
G75*
G02*
X0374783Y0241172I0000000J-000581D01*
G01*
X0374783Y0240010D01*
G75*
G02*
X0374203Y0239430I-000581J0000000D01*
G01*
X0372844Y0239430D01*
G75*
G02*
X0372264Y0240010I0000000J0000581D01*
G01*
X0372264Y0241172D01*
G75*
G02*
X0372844Y0241752I0000581J0000000D01*
G01*
G37*
G36*
G01*
X0372844Y0237934D02*
X0374203Y0237934D01*
G75*
G02*
X0374783Y0237353I0000000J-000581D01*
G01*
X0374783Y0236191D01*
G75*
G02*
X0374203Y0235611I-000581J0000000D01*
G01*
X0372844Y0235611D01*
G75*
G02*
X0372264Y0236191I0000000J0000581D01*
G01*
X0372264Y0237353D01*
G75*
G02*
X0372844Y0237934I0000581J0000000D01*
G01*
G37*
G36*
G01*
X0373799Y0187313D02*
X0373799Y0188672D01*
G75*
G02*
X0374380Y0189252I0000581J0000000D01*
G01*
X0375541Y0189252D01*
G75*
G02*
X0376122Y0188672I0000000J-000581D01*
G01*
X0376122Y0187313D01*
G75*
G02*
X0375541Y0186733I-000581J0000000D01*
G01*
X0374380Y0186733D01*
G75*
G02*
X0373799Y0187313I0000000J0000581D01*
G01*
G37*
G36*
G01*
X0377618Y0187313D02*
X0377618Y0188672D01*
G75*
G02*
X0378199Y0189252I0000581J0000000D01*
G01*
X0379360Y0189252D01*
G75*
G02*
X0379941Y0188672I0000000J-000581D01*
G01*
X0379941Y0187313D01*
G75*
G02*
X0379360Y0186733I-000581J0000000D01*
G01*
X0378199Y0186733D01*
G75*
G02*
X0377618Y0187313I0000000J0000581D01*
G01*
G37*
G36*
G01*
X0363986Y0221674D02*
X0365344Y0221674D01*
G75*
G02*
X0365925Y0221093I0000000J-000581D01*
G01*
X0365925Y0219932D01*
G75*
G02*
X0365344Y0219351I-000581J0000000D01*
G01*
X0363986Y0219351D01*
G75*
G02*
X0363406Y0219932I0000000J0000581D01*
G01*
X0363406Y0221093D01*
G75*
G02*
X0363986Y0221674I0000581J0000000D01*
G01*
G37*
G36*
G01*
X0363986Y0217855D02*
X0365344Y0217855D01*
G75*
G02*
X0365925Y0217274I0000000J-000581D01*
G01*
X0365925Y0216113D01*
G75*
G02*
X0365344Y0215532I-000581J0000000D01*
G01*
X0363986Y0215532D01*
G75*
G02*
X0363406Y0216113I0000000J0000581D01*
G01*
X0363406Y0217274D01*
G75*
G02*
X0363986Y0217855I0000581J0000000D01*
G01*
G37*
G36*
G01*
X0373799Y0183573D02*
X0373799Y0184932D01*
G75*
G02*
X0374380Y0185512I0000581J0000000D01*
G01*
X0375541Y0185512D01*
G75*
G02*
X0376122Y0184932I0000000J-000581D01*
G01*
X0376122Y0183573D01*
G75*
G02*
X0375541Y0182993I-000581J0000000D01*
G01*
X0374380Y0182993D01*
G75*
G02*
X0373799Y0183573I0000000J0000581D01*
G01*
G37*
G36*
G01*
X0377618Y0183573D02*
X0377618Y0184932D01*
G75*
G02*
X0378199Y0185512I0000581J0000000D01*
G01*
X0379360Y0185512D01*
G75*
G02*
X0379941Y0184932I0000000J-000581D01*
G01*
X0379941Y0183573D01*
G75*
G02*
X0379360Y0182993I-000581J0000000D01*
G01*
X0378199Y0182993D01*
G75*
G02*
X0377618Y0183573I0000000J0000581D01*
G01*
G37*
G36*
G01*
X0382461Y0183573D02*
X0382461Y0184932D01*
G75*
G02*
X0383041Y0185512I0000581J0000000D01*
G01*
X0384203Y0185512D01*
G75*
G02*
X0384783Y0184932I0000000J-000581D01*
G01*
X0384783Y0183573D01*
G75*
G02*
X0384203Y0182993I-000581J0000000D01*
G01*
X0383041Y0182993D01*
G75*
G02*
X0382461Y0183573I0000000J0000581D01*
G01*
G37*
G36*
G01*
X0386280Y0183573D02*
X0386280Y0184932D01*
G75*
G02*
X0386860Y0185512I0000581J0000000D01*
G01*
X0388022Y0185512D01*
G75*
G02*
X0388602Y0184932I0000000J-000581D01*
G01*
X0388602Y0183573D01*
G75*
G02*
X0388022Y0182993I-000581J0000000D01*
G01*
X0386860Y0182993D01*
G75*
G02*
X0386280Y0183573I0000000J0000581D01*
G01*
G37*
G36*
G01*
X0376654Y0168760D02*
X0375315Y0168760D01*
G75*
G02*
X0374764Y0169311I0000000J0000551D01*
G01*
X0374764Y0170414D01*
G75*
G02*
X0375315Y0170965I0000551J0000000D01*
G01*
X0376654Y0170965D01*
G75*
G02*
X0377205Y0170414I0000000J-000551D01*
G01*
X0377205Y0169311D01*
G75*
G02*
X0376654Y0168760I-000551J0000000D01*
G01*
G37*
G36*
G01*
X0376654Y0172540D02*
X0375315Y0172540D01*
G75*
G02*
X0374764Y0173091I0000000J0000551D01*
G01*
X0374764Y0174193D01*
G75*
G02*
X0375315Y0174744I0000551J0000000D01*
G01*
X0376654Y0174744D01*
G75*
G02*
X0377205Y0174193I0000000J-000551D01*
G01*
X0377205Y0173091D01*
G75*
G02*
X0376654Y0172540I-000551J0000000D01*
G01*
G37*
G36*
G01*
X0350394Y0223701D02*
X0351850Y0223701D01*
G75*
G02*
X0352382Y0223170I0000000J-000531D01*
G01*
X0352382Y0222107D01*
G75*
G02*
X0351850Y0221575I-000531J0000000D01*
G01*
X0350394Y0221575D01*
G75*
G02*
X0349862Y0222107I0000000J0000531D01*
G01*
X0349862Y0223170D01*
G75*
G02*
X0350394Y0223701I0000531J0000000D01*
G01*
G37*
G36*
G01*
X0350394Y0219686D02*
X0351850Y0219686D01*
G75*
G02*
X0352382Y0219154I0000000J-000531D01*
G01*
X0352382Y0218091D01*
G75*
G02*
X0351850Y0217560I-000531J0000000D01*
G01*
X0350394Y0217560D01*
G75*
G02*
X0349862Y0218091I0000000J0000531D01*
G01*
X0349862Y0219154D01*
G75*
G02*
X0350394Y0219686I0000531J0000000D01*
G01*
G37*
G36*
G01*
X0364927Y0162973D02*
X0364927Y0161516D01*
G75*
G02*
X0364395Y0160985I-000531J0000000D01*
G01*
X0363332Y0160985D01*
G75*
G02*
X0362801Y0161516I0000000J0000531D01*
G01*
X0362801Y0162973D01*
G75*
G02*
X0363332Y0163504I0000531J0000000D01*
G01*
X0364395Y0163504D01*
G75*
G02*
X0364927Y0162973I0000000J-000531D01*
G01*
G37*
G36*
G01*
X0360911Y0162973D02*
X0360911Y0161516D01*
G75*
G02*
X0360379Y0160985I-000531J0000000D01*
G01*
X0359316Y0160985D01*
G75*
G02*
X0358785Y0161516I0000000J0000531D01*
G01*
X0358785Y0162973D01*
G75*
G02*
X0359316Y0163504I0000531J0000000D01*
G01*
X0360379Y0163504D01*
G75*
G02*
X0360911Y0162973I0000000J-000531D01*
G01*
G37*
G36*
G01*
X0388878Y0163583D02*
X0387697Y0163583D01*
G75*
G02*
X0387106Y0164174I0000000J0000591D01*
G01*
X0387106Y0168800D01*
G75*
G02*
X0387697Y0169390I0000591J0000000D01*
G01*
X0388878Y0169390D01*
G75*
G02*
X0389468Y0168800I0000000J-000591D01*
G01*
X0389468Y0164174D01*
G75*
G02*
X0388878Y0163583I-000591J0000000D01*
G01*
G37*
G36*
G01*
X0381398Y0163583D02*
X0380217Y0163583D01*
G75*
G02*
X0379626Y0164174I0000000J0000591D01*
G01*
X0379626Y0168800D01*
G75*
G02*
X0380217Y0169390I0000591J0000000D01*
G01*
X0381398Y0169390D01*
G75*
G02*
X0381988Y0168800I0000000J-000591D01*
G01*
X0381988Y0164174D01*
G75*
G02*
X0381398Y0163583I-000591J0000000D01*
G01*
G37*
G36*
G01*
X0385138Y0170965D02*
X0383957Y0170965D01*
G75*
G02*
X0383366Y0171556I0000000J0000591D01*
G01*
X0383366Y0176182D01*
G75*
G02*
X0383957Y0176772I0000591J0000000D01*
G01*
X0385138Y0176772D01*
G75*
G02*
X0385728Y0176182I0000000J-000591D01*
G01*
X0385728Y0171556D01*
G75*
G02*
X0385138Y0170965I-000591J0000000D01*
G01*
G37*
G36*
G01*
X0350946Y0161536D02*
X0350946Y0162875D01*
G75*
G02*
X0351498Y0163426I0000551J0000000D01*
G01*
X0352600Y0163426D01*
G75*
G02*
X0353151Y0162875I0000000J-000551D01*
G01*
X0353151Y0161536D01*
G75*
G02*
X0352600Y0160985I-000551J0000000D01*
G01*
X0351498Y0160985D01*
G75*
G02*
X0350946Y0161536I0000000J0000551D01*
G01*
G37*
G36*
G01*
X0354726Y0161536D02*
X0354726Y0162875D01*
G75*
G02*
X0355277Y0163426I0000551J0000000D01*
G01*
X0356379Y0163426D01*
G75*
G02*
X0356931Y0162875I0000000J-000551D01*
G01*
X0356931Y0161536D01*
G75*
G02*
X0356379Y0160985I-000551J0000000D01*
G01*
X0355277Y0160985D01*
G75*
G02*
X0354726Y0161536I0000000J0000551D01*
G01*
G37*
G36*
G01*
X0354017Y0192323D02*
X0355198Y0192323D01*
G75*
G02*
X0355789Y0191733I0000000J-000591D01*
G01*
X0355789Y0186024D01*
G75*
G02*
X0355198Y0185434I-000591J0000000D01*
G01*
X0354017Y0185434D01*
G75*
G02*
X0353427Y0186024I0000000J0000591D01*
G01*
X0353427Y0191733D01*
G75*
G02*
X0354017Y0192323I0000591J0000000D01*
G01*
G37*
G36*
G01*
X0359017Y0192323D02*
X0360198Y0192323D01*
G75*
G02*
X0360789Y0191733I0000000J-000591D01*
G01*
X0360789Y0186024D01*
G75*
G02*
X0360198Y0185434I-000591J0000000D01*
G01*
X0359017Y0185434D01*
G75*
G02*
X0358427Y0186024I0000000J0000591D01*
G01*
X0358427Y0191733D01*
G75*
G02*
X0359017Y0192323I0000591J0000000D01*
G01*
G37*
G36*
G01*
X0364017Y0192323D02*
X0365198Y0192323D01*
G75*
G02*
X0365789Y0191733I0000000J-000591D01*
G01*
X0365789Y0186024D01*
G75*
G02*
X0365198Y0185434I-000591J0000000D01*
G01*
X0364017Y0185434D01*
G75*
G02*
X0363427Y0186024I0000000J0000591D01*
G01*
X0363427Y0191733D01*
G75*
G02*
X0364017Y0192323I0000591J0000000D01*
G01*
G37*
G36*
G01*
X0369017Y0192323D02*
X0370198Y0192323D01*
G75*
G02*
X0370789Y0191733I0000000J-000591D01*
G01*
X0370789Y0186024D01*
G75*
G02*
X0370198Y0185434I-000591J0000000D01*
G01*
X0369017Y0185434D01*
G75*
G02*
X0368427Y0186024I0000000J0000591D01*
G01*
X0368427Y0191733D01*
G75*
G02*
X0369017Y0192323I0000591J0000000D01*
G01*
G37*
G36*
G01*
X0369017Y0172048D02*
X0370198Y0172048D01*
G75*
G02*
X0370789Y0171457I0000000J-000591D01*
G01*
X0370789Y0165749D01*
G75*
G02*
X0370198Y0165158I-000591J0000000D01*
G01*
X0369017Y0165158D01*
G75*
G02*
X0368427Y0165749I0000000J0000591D01*
G01*
X0368427Y0171457D01*
G75*
G02*
X0369017Y0172048I0000591J0000000D01*
G01*
G37*
G36*
G01*
X0364017Y0172048D02*
X0365198Y0172048D01*
G75*
G02*
X0365789Y0171457I0000000J-000591D01*
G01*
X0365789Y0165749D01*
G75*
G02*
X0365198Y0165158I-000591J0000000D01*
G01*
X0364017Y0165158D01*
G75*
G02*
X0363427Y0165749I0000000J0000591D01*
G01*
X0363427Y0171457D01*
G75*
G02*
X0364017Y0172048I0000591J0000000D01*
G01*
G37*
G36*
G01*
X0359017Y0172048D02*
X0360198Y0172048D01*
G75*
G02*
X0360789Y0171457I0000000J-000591D01*
G01*
X0360789Y0165749D01*
G75*
G02*
X0360198Y0165158I-000591J0000000D01*
G01*
X0359017Y0165158D01*
G75*
G02*
X0358427Y0165749I0000000J0000591D01*
G01*
X0358427Y0171457D01*
G75*
G02*
X0359017Y0172048I0000591J0000000D01*
G01*
G37*
G36*
G01*
X0354017Y0172048D02*
X0355198Y0172048D01*
G75*
G02*
X0355789Y0171457I0000000J-000591D01*
G01*
X0355789Y0165749D01*
G75*
G02*
X0355198Y0165158I-000591J0000000D01*
G01*
X0354017Y0165158D01*
G75*
G02*
X0353427Y0165749I0000000J0000591D01*
G01*
X0353427Y0171457D01*
G75*
G02*
X0354017Y0172048I0000591J0000000D01*
G01*
G37*
X0312992Y0189764D02*
G01*
G75*
D411*
X0261023Y0104725D02*
D03*
X0261023Y0130020D02*
D03*
X0261023Y0114764D02*
D03*
X0261023Y0119980D02*
D03*
X0268110Y0089469D02*
D03*
X0261023Y0089469D02*
D03*
X0261023Y0099508D02*
D03*
X0268110Y0099508D02*
D03*
X0268110Y0130020D02*
D03*
X0268110Y0119980D02*
D03*
X0268110Y0114764D02*
D03*
X0268110Y0104725D02*
D03*
D412*
X0261023Y0108170D02*
D03*
X0261023Y0123425D02*
D03*
X0261023Y0111319D02*
D03*
X0261023Y0126575D02*
D03*
X0261023Y0096063D02*
D03*
X0261023Y0092914D02*
D03*
X0268110Y0092914D02*
D03*
X0268110Y0096063D02*
D03*
X0268110Y0123425D02*
D03*
X0268110Y0126575D02*
D03*
X0268110Y0108170D02*
D03*
X0268110Y0111319D02*
D03*
D415*
X0259055Y0051575D02*
D03*
X0262992Y0051575D02*
D03*
X0264567Y0055118D02*
D03*
X0268504Y0055118D02*
D03*
X0256693Y0072441D02*
D03*
X0260630Y0072441D02*
D03*
X0228040Y0130143D02*
D03*
X0231977Y0130143D02*
D03*
X0236236Y0130143D02*
D03*
X0240173Y0130143D02*
D03*
X0279558Y0097676D02*
D03*
X0283495Y0097676D02*
D03*
X0279558Y0101399D02*
D03*
X0283495Y0101399D02*
D03*
X0281974Y0064567D02*
D03*
X0278037Y0064567D02*
D03*
X0193340Y0053634D02*
D03*
X0229088Y0053873D02*
D03*
X0214173Y0130143D02*
D03*
X0246457Y0075985D02*
D03*
X0246457Y0080315D02*
D03*
X0249887Y0084534D02*
D03*
X0261164Y0084479D02*
D03*
X0240748Y0114139D02*
D03*
X0249537Y0114139D02*
D03*
X0253474Y0122624D02*
D03*
X0188557Y0152490D02*
D03*
X0214173Y0134646D02*
D03*
X0255118Y0051575D02*
D03*
X0268504Y0084570D02*
D03*
X0290157Y0083172D02*
D03*
X0304222Y0083172D02*
D03*
X0290157Y0087402D02*
D03*
X0304222Y0087402D02*
D03*
X0264519Y0134310D02*
D03*
X0309055Y0136221D02*
D03*
X0242520Y0075985D02*
D03*
X0253474Y0114139D02*
D03*
X0244685Y0114139D02*
D03*
X0244685Y0118627D02*
D03*
X0240748Y0118627D02*
D03*
X0186614Y0138583D02*
D03*
X0190551Y0138583D02*
D03*
X0192494Y0152490D02*
D03*
X0277939Y0081666D02*
D03*
X0281876Y0081666D02*
D03*
X0308160Y0083172D02*
D03*
X0264567Y0084570D02*
D03*
X0249537Y0122624D02*
D03*
X0257227Y0084479D02*
D03*
X0253824Y0084534D02*
D03*
X0294094Y0087402D02*
D03*
X0268456Y0134310D02*
D03*
X0305118Y0136221D02*
D03*
X0233025Y0053873D02*
D03*
X0259055Y0051575D02*
D03*
X0285827Y0076599D02*
D03*
X0289764Y0076599D02*
D03*
X0294094Y0083172D02*
D03*
X0210236Y0134646D02*
D03*
X0210236Y0130143D02*
D03*
X0242520Y0080315D02*
D03*
X0197277Y0053634D02*
D03*
X0206593Y0053634D02*
D03*
X0202656Y0053634D02*
D03*
X0300285Y0087402D02*
D03*
X0309055Y0132284D02*
D03*
X0305118Y0132284D02*
D03*
X0309055Y0119882D02*
D03*
X0305118Y0119882D02*
D03*
X0309055Y0115748D02*
D03*
X0305118Y0115748D02*
D03*
X0309055Y0107480D02*
D03*
X0305118Y0107480D02*
D03*
X0309055Y0111614D02*
D03*
X0305118Y0111614D02*
D03*
X0309055Y0103347D02*
D03*
X0305118Y0103347D02*
D03*
X0309055Y0124016D02*
D03*
X0305118Y0124016D02*
D03*
X0309055Y0128150D02*
D03*
X0305118Y0128150D02*
D03*
D417*
X0254065Y0100788D02*
D03*
X0254065Y0096555D02*
D03*
X0208661Y0184646D02*
D03*
X0213386Y0184646D02*
D03*
X0218110Y0184646D02*
D03*
X0222834Y0184646D02*
D03*
X0292913Y0056299D02*
D03*
X0288779Y0056299D02*
D03*
X0197599Y0148520D02*
D03*
X0197599Y0144583D02*
D03*
X0308528Y0057481D02*
D03*
X0308528Y0061417D02*
D03*
X0254065Y0092618D02*
D03*
X0254065Y0104725D02*
D03*
X0201771Y0149016D02*
D03*
X0201771Y0145079D02*
D03*
X0226544Y0176792D02*
D03*
X0226544Y0172855D02*
D03*
X0222834Y0172855D02*
D03*
X0222834Y0176792D02*
D03*
X0222834Y0162205D02*
D03*
X0222834Y0166142D02*
D03*
X0222834Y0180709D02*
D03*
X0218110Y0180709D02*
D03*
X0208661Y0180709D02*
D03*
X0213386Y0180709D02*
D03*
X0307493Y0147515D02*
D03*
X0307493Y0143578D02*
D03*
X0257283Y0144488D02*
D03*
X0257283Y0148425D02*
D03*
X0257283Y0154725D02*
D03*
X0257283Y0158662D02*
D03*
X0285236Y0144488D02*
D03*
X0285236Y0148425D02*
D03*
X0261811Y0169882D02*
D03*
X0261811Y0165945D02*
D03*
X0291141Y0169882D02*
D03*
X0291141Y0165945D02*
D03*
X0303937Y0169882D02*
D03*
X0303937Y0165945D02*
D03*
X0287045Y0176792D02*
D03*
X0287045Y0180729D02*
D03*
X0308661Y0177166D02*
D03*
X0308661Y0173229D02*
D03*
X0308464Y0180315D02*
D03*
X0308464Y0184252D02*
D03*
X0308528Y0069007D02*
D03*
X0308528Y0065070D02*
D03*
X0292913Y0052362D02*
D03*
X0288779Y0052362D02*
D03*
X0285039Y0165945D02*
D03*
X0285039Y0169882D02*
D03*
X0280709Y0165945D02*
D03*
X0280709Y0169882D02*
D03*
X0272244Y0165945D02*
D03*
X0272244Y0169882D02*
D03*
X0268078Y0180729D02*
D03*
X0268078Y0176792D02*
D03*
X0229331Y0148425D02*
D03*
X0229331Y0144488D02*
D03*
X0299606Y0165945D02*
D03*
X0299606Y0169882D02*
D03*
X0249235Y0180729D02*
D03*
X0249235Y0176792D02*
D03*
X0253346Y0165945D02*
D03*
X0253346Y0169882D02*
D03*
X0266141Y0165945D02*
D03*
X0266141Y0169882D02*
D03*
X0230255Y0180729D02*
D03*
X0230255Y0176792D02*
D03*
X0234448Y0165945D02*
D03*
X0234448Y0169882D02*
D03*
X0242913Y0165945D02*
D03*
X0242913Y0169882D02*
D03*
X0247244Y0165945D02*
D03*
X0247244Y0169882D02*
D03*
X0229467Y0162205D02*
D03*
X0229467Y0166142D02*
D03*
D419*
X0273435Y0059508D02*
D03*
X0281175Y0068983D02*
D03*
X0299508Y0092353D02*
D03*
D422*
X0225787Y0060925D02*
D03*
X0232087Y0060925D02*
D03*
X0262401Y0059547D02*
D03*
X0268701Y0059547D02*
D03*
X0262401Y0064173D02*
D03*
X0268701Y0064173D02*
D03*
D419*
X0290256Y0096094D02*
D03*
X0281175Y0076463D02*
D03*
X0271923Y0072723D02*
D03*
X0273435Y0052028D02*
D03*
X0282687Y0055768D02*
D03*
X0299508Y0099834D02*
D03*
D229*
X0235079Y0135630D02*
D03*
X0220866Y0135630D02*
D03*
X0250866Y0135630D02*
D03*
D230*
X0197874Y0058071D02*
D03*
X0217874Y0062071D02*
D03*
X0217874Y0054071D02*
D03*
D37*
X0308661Y0052362D02*
D03*
D440*
X0264961Y0069370D02*
D03*
X0264961Y0075591D02*
D03*
D441*
X0235531Y0140158D02*
D03*
X0235531Y0147244D02*
D03*
X0245571Y0147244D02*
D03*
X0245571Y0140158D02*
D03*
X0263484Y0147244D02*
D03*
X0291437Y0147244D02*
D03*
X0273523Y0151181D02*
D03*
X0218405Y0176378D02*
D03*
X0218405Y0169292D02*
D03*
X0208366Y0169292D02*
D03*
X0208366Y0176378D02*
D03*
X0301476Y0158268D02*
D03*
X0301476Y0151181D02*
D03*
X0291437Y0151181D02*
D03*
X0291437Y0158268D02*
D03*
X0291437Y0140158D02*
D03*
X0301476Y0147244D02*
D03*
X0301476Y0140158D02*
D03*
X0273523Y0158268D02*
D03*
X0263484Y0151181D02*
D03*
X0263484Y0158268D02*
D03*
X0263484Y0140158D02*
D03*
X0273523Y0147244D02*
D03*
X0273523Y0140158D02*
D03*
X0272539Y0182087D02*
D03*
X0272539Y0175000D02*
D03*
X0282579Y0175000D02*
D03*
X0282579Y0182087D02*
D03*
X0291437Y0182087D02*
D03*
X0291437Y0175000D02*
D03*
X0301476Y0175000D02*
D03*
X0301476Y0182087D02*
D03*
X0253641Y0182087D02*
D03*
X0253641Y0175000D02*
D03*
X0263681Y0175000D02*
D03*
X0263681Y0182087D02*
D03*
X0234744Y0182087D02*
D03*
X0234744Y0175000D02*
D03*
X0244783Y0175000D02*
D03*
X0244783Y0182087D02*
D03*
X0235531Y0158268D02*
D03*
X0235531Y0151181D02*
D03*
X0245571Y0151181D02*
D03*
X0245571Y0158268D02*
D03*
X0207972Y0158268D02*
D03*
X0207972Y0151181D02*
D03*
X0218012Y0151181D02*
D03*
X0218012Y0158268D02*
D03*
X0218012Y0140158D02*
D03*
X0218012Y0147244D02*
D03*
X0207972Y0147244D02*
D03*
X0207972Y0140158D02*
D03*
D442*
X0242126Y0147244D02*
D03*
X0238976Y0147244D02*
D03*
X0238976Y0140158D02*
D03*
X0242126Y0140158D02*
D03*
X0266929Y0147244D02*
D03*
X0294882Y0147244D02*
D03*
X0270079Y0151181D02*
D03*
X0211811Y0169292D02*
D03*
X0214960Y0169292D02*
D03*
X0214960Y0176378D02*
D03*
X0211811Y0176378D02*
D03*
X0294882Y0151181D02*
D03*
X0298031Y0151181D02*
D03*
X0298031Y0158268D02*
D03*
X0294882Y0158268D02*
D03*
X0298031Y0147244D02*
D03*
X0294882Y0140158D02*
D03*
X0298031Y0140158D02*
D03*
X0266929Y0151181D02*
D03*
X0270079Y0158268D02*
D03*
X0266929Y0158268D02*
D03*
X0270078Y0147244D02*
D03*
X0266929Y0140158D02*
D03*
X0270078Y0140158D02*
D03*
X0275984Y0182087D02*
D03*
X0279134Y0182087D02*
D03*
X0279134Y0175000D02*
D03*
X0275984Y0175000D02*
D03*
X0294881Y0182087D02*
D03*
X0298031Y0182087D02*
D03*
X0298031Y0175000D02*
D03*
X0294881Y0175000D02*
D03*
X0257086Y0182087D02*
D03*
X0260236Y0182087D02*
D03*
X0260236Y0175000D02*
D03*
X0257086Y0175000D02*
D03*
X0238189Y0182087D02*
D03*
X0241338Y0182087D02*
D03*
X0241338Y0175000D02*
D03*
X0238189Y0175000D02*
D03*
X0238976Y0158268D02*
D03*
X0242126Y0158268D02*
D03*
X0242126Y0151181D02*
D03*
X0238976Y0151181D02*
D03*
X0211417Y0158268D02*
D03*
X0214567Y0158268D02*
D03*
X0214567Y0151181D02*
D03*
X0211417Y0151181D02*
D03*
X0214567Y0140158D02*
D03*
X0211417Y0140158D02*
D03*
X0211417Y0147244D02*
D03*
X0214567Y0147244D02*
D03*
D443*
X0203189Y0062894D02*
D03*
X0203189Y0057904D02*
D03*
X0209409Y0057904D02*
D03*
X0209409Y0062894D02*
D03*
D444*
X0190551Y0069784D02*
D03*
X0223228Y0069784D02*
D03*
X0190551Y0123917D02*
D03*
X0223228Y0123917D02*
D03*
D445*
X0200787Y0087815D02*
D03*
X0200787Y0079154D02*
D03*
X0200787Y0083484D02*
D03*
X0200787Y0092146D02*
D03*
X0200787Y0096477D02*
D03*
X0200787Y0100807D02*
D03*
X0200787Y0105138D02*
D03*
X0200787Y0109469D02*
D03*
D446*
X0182480Y0168425D02*
D03*
X0195684Y0168425D02*
D03*
X0189961Y0176457D02*
D03*
X0203164Y0176457D02*
D03*
X0186220Y0159173D02*
D03*
X0199424Y0159173D02*
D03*
X0199424Y0185709D02*
D03*
X0287598Y0070788D02*
D03*
X0291338Y0061536D02*
D03*
X0186220Y0185709D02*
D03*
D255*
X0188557Y0142652D02*
D03*
X0192494Y0142652D02*
D03*
X0188557Y0148656D02*
D03*
X0190525Y0148656D02*
D03*
X0190525Y0142652D02*
D03*
X0192494Y0148656D02*
D03*
D447*
X0279122Y0086004D02*
D03*
X0284240Y0086004D02*
D03*
X0281681Y0086004D02*
D03*
X0279122Y0093485D02*
D03*
X0284240Y0093485D02*
D03*
D257*
X0275905Y0105512D02*
D03*
X0298897Y0108071D02*
D03*
X0298897Y0105512D02*
D03*
X0275905Y0128543D02*
D03*
X0298897Y0131102D02*
D03*
X0298897Y0133662D02*
D03*
X0298897Y0128543D02*
D03*
X0298897Y0125984D02*
D03*
X0298897Y0123425D02*
D03*
X0298897Y0120866D02*
D03*
X0298897Y0118307D02*
D03*
X0298897Y0115748D02*
D03*
X0298897Y0113189D02*
D03*
X0298897Y0110630D02*
D03*
X0275905Y0133662D02*
D03*
X0275905Y0131102D02*
D03*
X0275905Y0125984D02*
D03*
X0275905Y0123425D02*
D03*
X0275905Y0120866D02*
D03*
X0275905Y0118307D02*
D03*
X0275905Y0115748D02*
D03*
X0275905Y0113189D02*
D03*
X0275905Y0110630D02*
D03*
X0275905Y0108071D02*
D03*
D448*
X0301968Y0067925D02*
D03*
X0301968Y0056507D02*
D03*
D449*
X0243878Y0065790D02*
D03*
X0256870Y0065790D02*
D03*
X0307955Y0076990D02*
D03*
X0294963Y0076990D02*
D03*
D260*
X0245103Y0091195D02*
D03*
X0245103Y0105762D02*
D03*
D261*
X0193527Y0146638D02*
D03*
X0193527Y0144670D02*
D03*
X0187523Y0144670D02*
D03*
X0187523Y0146638D02*
D03*
D450*
X0258514Y0078672D02*
D03*
X0252609Y0078672D02*
D03*
D446*
X0189961Y0168425D02*
D03*
X0203164Y0168425D02*
D03*
X0195684Y0176457D02*
D03*
X0295079Y0070788D02*
D03*
X0182480Y0176457D02*
D03*
D263*
X0255711Y0129331D02*
D03*
X0249018Y0129331D02*
D03*
D451*
X0239350Y0055794D02*
D03*
X0250767Y0055794D02*
D03*
D452*
X0308267Y0090158D02*
D03*
X0308267Y0096457D02*
D03*
X0120571Y0215256D02*
G01*
G75*
D130*
X0144980Y0184055D02*
D03*
X0131004Y0183760D02*
D03*
X0125984Y0184941D02*
D03*
X0128051Y0188386D02*
D03*
M02*
