G75*
G70*
%OFA0B0*%
%FSLAX25Y25*%
%IPPOS*%
%LPD*%
%AMOC8*
5,1,8,0,0,1.08239X$1,22.5*
%
%AMM118*
21,1,0.027170,0.052760,0.000000,-0.000000,180.000000*
21,1,0.017320,0.062600,0.000000,-0.000000,180.000000*
1,1,0.009840,-0.008660,0.026380*
1,1,0.009840,0.008660,0.026380*
1,1,0.009840,0.008660,-0.026380*
1,1,0.009840,-0.008660,-0.026380*
%
%AMM14*
21,1,0.092130,0.073230,0.000000,0.000000,270.000000*
21,1,0.069290,0.096060,0.000000,0.000000,270.000000*
1,1,0.022840,-0.036610,-0.034650*
1,1,0.022840,-0.036610,0.034650*
1,1,0.022840,0.036610,0.034650*
1,1,0.022840,0.036610,-0.034650*
%
%AMM15*
21,1,0.100000,0.111020,0.000000,0.000000,0.000000*
21,1,0.075590,0.135430,0.000000,0.000000,0.000000*
1,1,0.024410,0.037800,-0.055510*
1,1,0.024410,-0.037800,-0.055510*
1,1,0.024410,-0.037800,0.055510*
1,1,0.024410,0.037800,0.055510*
%
%AMM16*
21,1,0.080320,0.083460,0.000000,0.000000,0.000000*
21,1,0.059840,0.103940,0.000000,0.000000,0.000000*
1,1,0.020470,0.029920,-0.041730*
1,1,0.020470,-0.029920,-0.041730*
1,1,0.020470,-0.029920,0.041730*
1,1,0.020470,0.029920,0.041730*
%
%AMM17*
21,1,0.084250,0.053540,0.000000,0.000000,180.000000*
21,1,0.065350,0.072440,0.000000,0.000000,180.000000*
1,1,0.018900,-0.032680,0.026770*
1,1,0.018900,0.032680,0.026770*
1,1,0.018900,0.032680,-0.026770*
1,1,0.018900,-0.032680,-0.026770*
%
%AMM18*
21,1,0.040950,0.030320,0.000000,0.000000,90.000000*
21,1,0.028350,0.042910,0.000000,0.000000,90.000000*
1,1,0.012600,0.015160,0.014170*
1,1,0.012600,0.015160,-0.014170*
1,1,0.012600,-0.015160,-0.014170*
1,1,0.012600,-0.015160,0.014170*
%
%AMM19*
21,1,0.027170,0.052760,0.000000,0.000000,270.000000*
21,1,0.017320,0.062600,0.000000,0.000000,270.000000*
1,1,0.009840,-0.026380,-0.008660*
1,1,0.009840,-0.026380,0.008660*
1,1,0.009840,0.026380,0.008660*
1,1,0.009840,0.026380,-0.008660*
%
%AMM20*
21,1,0.041340,0.026770,0.000000,0.000000,0.000000*
21,1,0.029130,0.038980,0.000000,0.000000,0.000000*
1,1,0.012210,0.014570,-0.013390*
1,1,0.012210,-0.014570,-0.013390*
1,1,0.012210,-0.014570,0.013390*
1,1,0.012210,0.014570,0.013390*
%
%AMM201*
21,1,0.029530,0.026380,-0.000000,-0.000000,90.000000*
21,1,0.020470,0.035430,-0.000000,-0.000000,90.000000*
1,1,0.009060,0.013190,0.010240*
1,1,0.009060,0.013190,-0.010240*
1,1,0.009060,-0.013190,-0.010240*
1,1,0.009060,-0.013190,0.010240*
%
%AMM202*
21,1,0.021650,0.027950,-0.000000,-0.000000,90.000000*
21,1,0.014170,0.035430,-0.000000,-0.000000,90.000000*
1,1,0.007480,0.013980,0.007090*
1,1,0.007480,0.013980,-0.007090*
1,1,0.007480,-0.013980,-0.007090*
1,1,0.007480,-0.013980,0.007090*
%
%AMM203*
21,1,0.016540,0.028980,-0.000000,-0.000000,270.000000*
21,1,0.010080,0.035430,-0.000000,-0.000000,270.000000*
1,1,0.006460,-0.014490,-0.005040*
1,1,0.006460,-0.014490,0.005040*
1,1,0.006460,0.014490,0.005040*
1,1,0.006460,0.014490,-0.005040*
%
%AMM204*
21,1,0.027560,0.030710,-0.000000,-0.000000,0.000000*
21,1,0.018900,0.039370,-0.000000,-0.000000,0.000000*
1,1,0.008660,0.009450,-0.015350*
1,1,0.008660,-0.009450,-0.015350*
1,1,0.008660,-0.009450,0.015350*
1,1,0.008660,0.009450,0.015350*
%
%AMM205*
21,1,0.031500,0.018900,-0.000000,-0.000000,270.000000*
21,1,0.022840,0.027560,-0.000000,-0.000000,270.000000*
1,1,0.008660,-0.009450,-0.011420*
1,1,0.008660,-0.009450,0.011420*
1,1,0.008660,0.009450,0.011420*
1,1,0.008660,0.009450,-0.011420*
%
%AMM206*
21,1,0.035430,0.072440,-0.000000,-0.000000,270.000000*
21,1,0.025200,0.082680,-0.000000,-0.000000,270.000000*
1,1,0.010240,-0.036220,-0.012600*
1,1,0.010240,-0.036220,0.012600*
1,1,0.010240,0.036220,0.012600*
1,1,0.010240,0.036220,-0.012600*
%
%AMM207*
21,1,0.031500,0.018900,-0.000000,-0.000000,0.000000*
21,1,0.022840,0.027560,-0.000000,-0.000000,0.000000*
1,1,0.008660,0.011420,-0.009450*
1,1,0.008660,-0.011420,-0.009450*
1,1,0.008660,-0.011420,0.009450*
1,1,0.008660,0.011420,0.009450*
%
%AMM208*
21,1,0.027560,0.030710,-0.000000,-0.000000,90.000000*
21,1,0.018900,0.039370,-0.000000,-0.000000,90.000000*
1,1,0.008660,0.015350,0.009450*
1,1,0.008660,0.015350,-0.009450*
1,1,0.008660,-0.015350,-0.009450*
1,1,0.008660,-0.015350,0.009450*
%
%AMM209*
21,1,0.039370,0.030320,-0.000000,-0.000000,90.000000*
21,1,0.028350,0.041340,-0.000000,-0.000000,90.000000*
1,1,0.011020,0.015160,0.014170*
1,1,0.011020,0.015160,-0.014170*
1,1,0.011020,-0.015160,-0.014170*
1,1,0.011020,-0.015160,0.014170*
%
%AMM21*
21,1,0.076380,0.036220,0.000000,0.000000,90.000000*
21,1,0.061810,0.050790,0.000000,0.000000,90.000000*
1,1,0.014570,0.018110,0.030910*
1,1,0.014570,0.018110,-0.030910*
1,1,0.014570,-0.018110,-0.030910*
1,1,0.014570,-0.018110,0.030910*
%
%AMM210*
21,1,0.047240,0.075980,-0.000000,-0.000000,180.000000*
21,1,0.034650,0.088580,-0.000000,-0.000000,180.000000*
1,1,0.012600,-0.017320,0.037990*
1,1,0.012600,0.017320,0.037990*
1,1,0.012600,0.017320,-0.037990*
1,1,0.012600,-0.017320,-0.037990*
%
%AMM211*
21,1,0.043310,0.035430,-0.000000,-0.000000,180.000000*
21,1,0.031500,0.047240,-0.000000,-0.000000,180.000000*
1,1,0.011810,-0.015750,0.017720*
1,1,0.011810,0.015750,0.017720*
1,1,0.011810,0.015750,-0.017720*
1,1,0.011810,-0.015750,-0.017720*
%
%AMM212*
21,1,0.031500,0.030710,-0.000000,-0.000000,180.000000*
21,1,0.022050,0.040160,-0.000000,-0.000000,180.000000*
1,1,0.009450,-0.011020,0.015350*
1,1,0.009450,0.011020,0.015350*
1,1,0.009450,0.011020,-0.015350*
1,1,0.009450,-0.011020,-0.015350*
%
%AMM213*
21,1,0.035430,0.072440,-0.000000,-0.000000,180.000000*
21,1,0.025200,0.082680,-0.000000,-0.000000,180.000000*
1,1,0.010240,-0.012600,0.036220*
1,1,0.010240,0.012600,0.036220*
1,1,0.010240,0.012600,-0.036220*
1,1,0.010240,-0.012600,-0.036220*
%
%AMM214*
21,1,0.141730,0.067720,-0.000000,-0.000000,180.000000*
21,1,0.120870,0.088580,-0.000000,-0.000000,180.000000*
1,1,0.020870,-0.060430,0.033860*
1,1,0.020870,0.060430,0.033860*
1,1,0.020870,0.060430,-0.033860*
1,1,0.020870,-0.060430,-0.033860*
%
%AMM215*
21,1,0.047240,0.075990,-0.000000,-0.000000,180.000000*
21,1,0.034650,0.088580,-0.000000,-0.000000,180.000000*
1,1,0.012600,-0.017320,0.037990*
1,1,0.012600,0.017320,0.037990*
1,1,0.012600,0.017320,-0.037990*
1,1,0.012600,-0.017320,-0.037990*
%
%AMM216*
21,1,0.090550,0.073230,-0.000000,-0.000000,270.000000*
21,1,0.069290,0.094490,-0.000000,-0.000000,270.000000*
1,1,0.021260,-0.036610,-0.034650*
1,1,0.021260,-0.036610,0.034650*
1,1,0.021260,0.036610,0.034650*
1,1,0.021260,0.036610,-0.034650*
%
%AMM22*
21,1,0.038980,0.026770,0.000000,0.000000,0.000000*
21,1,0.026770,0.038980,0.000000,0.000000,0.000000*
1,1,0.012210,0.013390,-0.013390*
1,1,0.012210,-0.013390,-0.013390*
1,1,0.012210,-0.013390,0.013390*
1,1,0.012210,0.013390,0.013390*
%
%AMM23*
21,1,0.021260,0.016540,0.000000,0.000000,270.000000*
21,1,0.012600,0.025200,0.000000,0.000000,270.000000*
1,1,0.008660,-0.008270,-0.006300*
1,1,0.008660,-0.008270,0.006300*
1,1,0.008660,0.008270,0.006300*
1,1,0.008660,0.008270,-0.006300*
%
%AMM24*
21,1,0.029130,0.018900,0.000000,0.000000,90.000000*
21,1,0.018900,0.029130,0.000000,0.000000,90.000000*
1,1,0.010240,0.009450,0.009450*
1,1,0.010240,0.009450,-0.009450*
1,1,0.010240,-0.009450,-0.009450*
1,1,0.010240,-0.009450,0.009450*
%
%AMM25*
21,1,0.025200,0.019680,0.000000,0.000000,0.000000*
21,1,0.015750,0.029130,0.000000,0.000000,0.000000*
1,1,0.009450,0.007870,-0.009840*
1,1,0.009450,-0.007870,-0.009840*
1,1,0.009450,-0.007870,0.009840*
1,1,0.009450,0.007870,0.009840*
%
%AMM254*
21,1,0.040950,0.030320,0.000000,-0.000000,90.000000*
21,1,0.028350,0.042910,0.000000,-0.000000,90.000000*
1,1,0.012600,0.015160,0.014170*
1,1,0.012600,0.015160,-0.014170*
1,1,0.012600,-0.015160,-0.014170*
1,1,0.012600,-0.015160,0.014170*
%
%AMM255*
21,1,0.038980,0.026770,0.000000,-0.000000,270.000000*
21,1,0.026770,0.038980,0.000000,-0.000000,270.000000*
1,1,0.012210,-0.013390,-0.013390*
1,1,0.012210,-0.013390,0.013390*
1,1,0.012210,0.013390,0.013390*
1,1,0.012210,0.013390,-0.013390*
%
%AMM256*
21,1,0.033070,0.030710,0.000000,-0.000000,90.000000*
21,1,0.022050,0.041730,0.000000,-0.000000,90.000000*
1,1,0.011020,0.015350,0.011020*
1,1,0.011020,0.015350,-0.011020*
1,1,0.011020,-0.015350,-0.011020*
1,1,0.011020,-0.015350,0.011020*
%
%AMM26*
21,1,0.025200,0.019680,0.000000,0.000000,270.000000*
21,1,0.015750,0.029130,0.000000,0.000000,270.000000*
1,1,0.009450,-0.009840,-0.007870*
1,1,0.009450,-0.009840,0.007870*
1,1,0.009450,0.009840,0.007870*
1,1,0.009450,0.009840,-0.007870*
%
%ADD10C,0.06693*%
%ADD114M14*%
%ADD115M15*%
%ADD116M16*%
%ADD117M17*%
%ADD118M18*%
%ADD119M19*%
%ADD120M20*%
%ADD121M21*%
%ADD122M22*%
%ADD123M23*%
%ADD124M24*%
%ADD125M25*%
%ADD126M26*%
%ADD127C,0.02913*%
%ADD128C,0.06457*%
%ADD152R,0.02559X0.01575*%
%ADD153R,0.01575X0.02559*%
%ADD156R,0.03543X0.03150*%
%ADD158C,0.05118*%
%ADD160R,0.03150X0.03543*%
%ADD168C,0.03100*%
%ADD171C,0.03900*%
%ADD20C,0.07874*%
%ADD205O,0.05118X0.01260*%
%ADD206O,0.01260X0.05118*%
%ADD207O,0.04724X0.01575*%
%ADD208C,0.03494*%
%ADD21C,0.03150*%
%ADD211R,0.01772X0.01378*%
%ADD212R,0.01378X0.01772*%
%ADD217O,0.09055X0.02756*%
%ADD22C,0.25197*%
%ADD224C,0.03543*%
%ADD226C,0.04724*%
%ADD227C,0.04294*%
%ADD23C,0.06000*%
%ADD24O,0.07283X0.06693*%
%ADD25C,0.02362*%
%ADD271O,0.02520X0.01535*%
%ADD272O,0.01535X0.02520*%
%ADD297M118*%
%ADD306R,0.01181X0.05512*%
%ADD307R,0.08661X0.04724*%
%ADD308R,0.25197X0.22835*%
%ADD309R,0.07874X0.07500*%
%ADD31R,0.04331X0.04331*%
%ADD310O,0.07874X0.07500*%
%ADD32C,0.04331*%
%ADD33O,0.09449X0.04331*%
%ADD36C,0.05906*%
%ADD408M201*%
%ADD409M202*%
%ADD410M203*%
%ADD411M204*%
%ADD412M205*%
%ADD413M206*%
%ADD414M207*%
%ADD415M208*%
%ADD416M209*%
%ADD417M210*%
%ADD418M211*%
%ADD419M212*%
%ADD420M213*%
%ADD421M214*%
%ADD422M215*%
%ADD423M216*%
%ADD452O,0.02913X0.09213*%
%ADD462M254*%
%ADD463M255*%
%ADD464M256*%
%ADD49O,0.00984X0.01969*%
%ADD51O,0.01969X0.00984*%
%ADD52R,0.05118X0.03937*%
%ADD53R,0.07874X0.02559*%
%ADD54R,0.17717X0.31890*%
%ADD67R,0.01181X0.04528*%
%ADD68O,0.03937X0.08268*%
%ADD69O,0.03937X0.06299*%
%ADD70R,0.06693X0.06693*%
%ADD71O,0.06693X0.06693*%
%ADD72C,0.13000*%
%ADD73R,0.02717X0.05315*%
%ADD74C,0.12992*%
%ADD80C,0.00472*%
%ADD81C,0.09055*%
%ADD82C,0.02559*%
X0000000Y0000000D02*
%LPD*%
G01*
D80*
X0520984Y0028445D02*
X0469803Y0028445D01*
X0469803Y0056004D01*
X0520984Y0056004D01*
X0520984Y0028445D01*
G36*
X0520984Y0028445D02*
G01*
X0469803Y0028445D01*
X0469803Y0056004D01*
X0520984Y0056004D01*
X0520984Y0028445D01*
G37*
G36*
G01*
X0252766Y0327717D02*
X0247844Y0327717D01*
G75*
G02*
X0247451Y0328111I0000000J0000394D01*
G01*
X0247451Y0331260D01*
G75*
G02*
X0247844Y0331654I0000394J0000000D01*
G01*
X0252766Y0331654D01*
G75*
G02*
X0253159Y0331260I0000000J-000394D01*
G01*
X0253159Y0328111D01*
G75*
G02*
X0252766Y0327717I-000394J0000000D01*
G01*
G37*
G36*
G01*
X0252766Y0335197D02*
X0247844Y0335197D01*
G75*
G02*
X0247451Y0335591I0000000J0000394D01*
G01*
X0247451Y0338741D01*
G75*
G02*
X0247844Y0339134I0000394J0000000D01*
G01*
X0252766Y0339134D01*
G75*
G02*
X0253159Y0338741I0000000J-000394D01*
G01*
X0253159Y0335591D01*
G75*
G02*
X0252766Y0335197I-000394J0000000D01*
G01*
G37*
G36*
G01*
X0159212Y0040217D02*
X0161890Y0040217D01*
G75*
G02*
X0162224Y0039882I0000000J-000335D01*
G01*
X0162224Y0037205D01*
G75*
G02*
X0161890Y0036870I-000335J0000000D01*
G01*
X0159212Y0036870D01*
G75*
G02*
X0158878Y0037205I0000000J0000335D01*
G01*
X0158878Y0039882D01*
G75*
G02*
X0159212Y0040217I0000335J0000000D01*
G01*
G37*
G36*
G01*
X0159212Y0033996D02*
X0161890Y0033996D01*
G75*
G02*
X0162224Y0033662I0000000J-000335D01*
G01*
X0162224Y0030985D01*
G75*
G02*
X0161890Y0030650I-000335J0000000D01*
G01*
X0159212Y0030650D01*
G75*
G02*
X0158878Y0030985I0000000J0000335D01*
G01*
X0158878Y0033662D01*
G75*
G02*
X0159212Y0033996I0000335J0000000D01*
G01*
G37*
G36*
G01*
X0401014Y0346989D02*
X0401014Y0342067D01*
G75*
G02*
X0400620Y0341674I-000394J0000000D01*
G01*
X0397470Y0341674D01*
G75*
G02*
X0397077Y0342067I0000000J0000394D01*
G01*
X0397077Y0346989D01*
G75*
G02*
X0397470Y0347382I0000394J0000000D01*
G01*
X0400620Y0347382D01*
G75*
G02*
X0401014Y0346989I0000000J-000394D01*
G01*
G37*
G36*
G01*
X0393533Y0346989D02*
X0393533Y0342067D01*
G75*
G02*
X0393140Y0341674I-000394J0000000D01*
G01*
X0389990Y0341674D01*
G75*
G02*
X0389596Y0342067I0000000J0000394D01*
G01*
X0389596Y0346989D01*
G75*
G02*
X0389990Y0347382I0000394J0000000D01*
G01*
X0393140Y0347382D01*
G75*
G02*
X0393533Y0346989I0000000J-000394D01*
G01*
G37*
D10*
X0458189Y0075985D03*
X0294409Y0181103D03*
G36*
G01*
X0222205Y0026437D02*
X0224882Y0026437D01*
G75*
G02*
X0225216Y0026103I0000000J-000335D01*
G01*
X0225216Y0023426D01*
G75*
G02*
X0224882Y0023091I-000335J0000000D01*
G01*
X0222205Y0023091D01*
G75*
G02*
X0221870Y0023426I0000000J0000335D01*
G01*
X0221870Y0026103D01*
G75*
G02*
X0222205Y0026437I0000335J0000000D01*
G01*
G37*
G36*
G01*
X0222205Y0020217D02*
X0224882Y0020217D01*
G75*
G02*
X0225216Y0019882I0000000J-000335D01*
G01*
X0225216Y0017205D01*
G75*
G02*
X0224882Y0016870I-000335J0000000D01*
G01*
X0222205Y0016870D01*
G75*
G02*
X0221870Y0017205I0000000J0000335D01*
G01*
X0221870Y0019882D01*
G75*
G02*
X0222205Y0020217I0000335J0000000D01*
G01*
G37*
D74*
X0066919Y0369981D03*
D81*
X0063966Y0350296D03*
X0063966Y0234154D03*
D74*
X0066919Y0214469D03*
D20*
X0088573Y0339469D03*
X0088573Y0327658D03*
X0088573Y0315847D03*
X0088573Y0304036D03*
X0088573Y0292225D03*
X0088573Y0280414D03*
X0088573Y0268603D03*
X0088573Y0256792D03*
X0088573Y0244981D03*
X0074793Y0333563D03*
X0074793Y0321752D03*
X0074793Y0309941D03*
X0074793Y0298130D03*
X0074793Y0286319D03*
X0074793Y0274508D03*
X0074793Y0262697D03*
X0074793Y0250886D03*
X0059045Y0333563D03*
X0059045Y0321752D03*
X0059045Y0309941D03*
X0059045Y0298130D03*
X0059045Y0286319D03*
X0059045Y0274508D03*
X0059045Y0262697D03*
X0059045Y0250886D03*
X0045266Y0339469D03*
X0045266Y0327658D03*
X0045266Y0315847D03*
X0045266Y0304036D03*
X0045266Y0292225D03*
X0045266Y0280414D03*
X0045266Y0268603D03*
X0045266Y0256792D03*
X0045266Y0244981D03*
G36*
G01*
X0195138Y0063681D02*
X0197815Y0063681D01*
G75*
G02*
X0198149Y0063347I0000000J-000335D01*
G01*
X0198149Y0060670D01*
G75*
G02*
X0197815Y0060335I-000335J0000000D01*
G01*
X0195138Y0060335D01*
G75*
G02*
X0194803Y0060670I0000000J0000335D01*
G01*
X0194803Y0063347D01*
G75*
G02*
X0195138Y0063681I0000335J0000000D01*
G01*
G37*
G36*
G01*
X0195138Y0057461D02*
X0197815Y0057461D01*
G75*
G02*
X0198149Y0057126I0000000J-000335D01*
G01*
X0198149Y0054449D01*
G75*
G02*
X0197815Y0054115I-000335J0000000D01*
G01*
X0195138Y0054115D01*
G75*
G02*
X0194803Y0054449I0000000J0000335D01*
G01*
X0194803Y0057126D01*
G75*
G02*
X0195138Y0057461I0000335J0000000D01*
G01*
G37*
D10*
X0152441Y0045276D03*
D21*
X0004281Y0379922D03*
X0007049Y0386603D03*
X0007049Y0373240D03*
X0013730Y0389370D03*
D22*
X0013730Y0379922D03*
D21*
X0013730Y0370473D03*
X0020411Y0386603D03*
X0020411Y0373240D03*
X0023179Y0379922D03*
X0501102Y0379922D03*
X0503870Y0386603D03*
X0503870Y0373240D03*
X0510551Y0389370D03*
D22*
X0510551Y0379922D03*
D21*
X0510551Y0370473D03*
X0517232Y0386603D03*
X0517232Y0373240D03*
X0520000Y0379922D03*
D23*
X0203071Y0076575D03*
G36*
G01*
X0199527Y0071280D02*
X0199527Y0073996D01*
G75*
G02*
X0200433Y0074902I0000906J0000000D01*
G01*
X0205708Y0074902D01*
G75*
G02*
X0206614Y0073996I0000000J-000906D01*
G01*
X0206614Y0071280D01*
G75*
G02*
X0205708Y0070374I-000906J0000000D01*
G01*
X0200433Y0070374D01*
G75*
G02*
X0199527Y0071280I0000000J0000906D01*
G01*
G37*
G36*
G01*
X0199527Y0059863D02*
X0199527Y0062579D01*
G75*
G02*
X0200433Y0063485I0000906J0000000D01*
G01*
X0205708Y0063485D01*
G75*
G02*
X0206614Y0062579I0000000J-000906D01*
G01*
X0206614Y0059863D01*
G75*
G02*
X0205708Y0058957I-000906J0000000D01*
G01*
X0200433Y0058957D01*
G75*
G02*
X0199527Y0059863I0000000J0000906D01*
G01*
G37*
X0203071Y0057284D03*
G36*
G01*
X0256073Y0339016D02*
X0260994Y0339016D01*
G75*
G02*
X0261388Y0338622I0000000J-000394D01*
G01*
X0261388Y0335473D01*
G75*
G02*
X0260994Y0335079I-000394J0000000D01*
G01*
X0256073Y0335079D01*
G75*
G02*
X0255679Y0335473I0000000J0000394D01*
G01*
X0255679Y0338622D01*
G75*
G02*
X0256073Y0339016I0000394J0000000D01*
G01*
G37*
G36*
G01*
X0256073Y0331536D02*
X0260994Y0331536D01*
G75*
G02*
X0261388Y0331142I0000000J-000394D01*
G01*
X0261388Y0327992D01*
G75*
G02*
X0260994Y0327599I-000394J0000000D01*
G01*
X0256073Y0327599D01*
G75*
G02*
X0255679Y0327992I0000000J0000394D01*
G01*
X0255679Y0331142D01*
G75*
G02*
X0256073Y0331536I0000394J0000000D01*
G01*
G37*
G36*
G01*
X0234025Y0141511D02*
X0234025Y0143529D01*
G75*
G02*
X0234887Y0144390I0000861J0000000D01*
G01*
X0236609Y0144390D01*
G75*
G02*
X0237470Y0143529I0000000J-000861D01*
G01*
X0237470Y0141511D01*
G75*
G02*
X0236609Y0140650I-000861J0000000D01*
G01*
X0234887Y0140650D01*
G75*
G02*
X0234025Y0141511I0000000J0000861D01*
G01*
G37*
G36*
G01*
X0240226Y0141511D02*
X0240226Y0143529D01*
G75*
G02*
X0241087Y0144390I0000861J0000000D01*
G01*
X0242810Y0144390D01*
G75*
G02*
X0243671Y0143529I0000000J-000861D01*
G01*
X0243671Y0141511D01*
G75*
G02*
X0242810Y0140650I-000861J0000000D01*
G01*
X0241087Y0140650D01*
G75*
G02*
X0240226Y0141511I0000000J0000861D01*
G01*
G37*
G36*
G01*
X0135590Y0072894D02*
X0138268Y0072894D01*
G75*
G02*
X0138602Y0072559I0000000J-000335D01*
G01*
X0138602Y0069882D01*
G75*
G02*
X0138268Y0069548I-000335J0000000D01*
G01*
X0135590Y0069548D01*
G75*
G02*
X0135256Y0069882I0000000J0000335D01*
G01*
X0135256Y0072559D01*
G75*
G02*
X0135590Y0072894I0000335J0000000D01*
G01*
G37*
G36*
G01*
X0135590Y0066674D02*
X0138268Y0066674D01*
G75*
G02*
X0138602Y0066339I0000000J-000335D01*
G01*
X0138602Y0063662D01*
G75*
G02*
X0138268Y0063327I-000335J0000000D01*
G01*
X0135590Y0063327D01*
G75*
G02*
X0135256Y0063662I0000000J0000335D01*
G01*
X0135256Y0066339D01*
G75*
G02*
X0135590Y0066674I0000335J0000000D01*
G01*
G37*
G36*
G01*
X0460059Y0008465D02*
X0454744Y0008465D01*
G75*
G02*
X0453760Y0009449I0000000J0000984D01*
G01*
X0453760Y0014174D01*
G75*
G02*
X0454744Y0015158I0000984J0000000D01*
G01*
X0460059Y0015158D01*
G75*
G02*
X0461043Y0014174I0000000J-000984D01*
G01*
X0461043Y0009449D01*
G75*
G02*
X0460059Y0008465I-000984J0000000D01*
G01*
G37*
D24*
X0457401Y0021654D03*
X0457401Y0031496D03*
X0457401Y0041339D03*
X0457401Y0051181D03*
G36*
G01*
X0230098Y0203519D02*
X0230098Y0205537D01*
G75*
G02*
X0230959Y0206398I0000861J0000000D01*
G01*
X0232682Y0206398D01*
G75*
G02*
X0233543Y0205537I0000000J-000861D01*
G01*
X0233543Y0203519D01*
G75*
G02*
X0232682Y0202658I-000861J0000000D01*
G01*
X0230959Y0202658D01*
G75*
G02*
X0230098Y0203519I0000000J0000861D01*
G01*
G37*
G36*
G01*
X0236299Y0203519D02*
X0236299Y0205537D01*
G75*
G02*
X0237160Y0206398I0000861J0000000D01*
G01*
X0238883Y0206398D01*
G75*
G02*
X0239744Y0205537I0000000J-000861D01*
G01*
X0239744Y0203519D01*
G75*
G02*
X0238883Y0202658I-000861J0000000D01*
G01*
X0237160Y0202658D01*
G75*
G02*
X0236299Y0203519I0000000J0000861D01*
G01*
G37*
D10*
X0376693Y0029528D03*
D21*
X0004281Y0013780D03*
X0007049Y0020461D03*
X0007049Y0007099D03*
X0013730Y0023229D03*
D22*
X0013730Y0013780D03*
D21*
X0013730Y0004331D03*
X0020411Y0020461D03*
X0020411Y0007099D03*
X0023179Y0013780D03*
D25*
X0324232Y0246752D03*
X0319508Y0246752D03*
X0328956Y0246752D03*
X0333681Y0246752D03*
X0308248Y0303544D03*
X0304311Y0303544D03*
D10*
X0142441Y0045276D03*
G36*
G01*
X0233799Y0133873D02*
X0233799Y0135891D01*
G75*
G02*
X0234660Y0136752I0000861J0000000D01*
G01*
X0236383Y0136752D01*
G75*
G02*
X0237244Y0135891I0000000J-000861D01*
G01*
X0237244Y0133873D01*
G75*
G02*
X0236383Y0133012I-000861J0000000D01*
G01*
X0234660Y0133012D01*
G75*
G02*
X0233799Y0133873I0000000J0000861D01*
G01*
G37*
G36*
G01*
X0240000Y0133873D02*
X0240000Y0135891D01*
G75*
G02*
X0240861Y0136752I0000861J0000000D01*
G01*
X0242584Y0136752D01*
G75*
G02*
X0243445Y0135891I0000000J-000861D01*
G01*
X0243445Y0133873D01*
G75*
G02*
X0242584Y0133012I-000861J0000000D01*
G01*
X0240861Y0133012D01*
G75*
G02*
X0240000Y0133873I0000000J0000861D01*
G01*
G37*
D31*
X0363897Y0012205D03*
D32*
X0357008Y0015355D03*
X0363897Y0018504D03*
X0357008Y0021654D03*
X0363897Y0024804D03*
D33*
X0360453Y0004134D03*
X0360453Y0032874D03*
D23*
X0211732Y0076575D03*
G36*
G01*
X0208189Y0071280D02*
X0208189Y0073996D01*
G75*
G02*
X0209094Y0074902I0000906J0000000D01*
G01*
X0214370Y0074902D01*
G75*
G02*
X0215275Y0073996I0000000J-000906D01*
G01*
X0215275Y0071280D01*
G75*
G02*
X0214370Y0070374I-000906J0000000D01*
G01*
X0209094Y0070374D01*
G75*
G02*
X0208189Y0071280I0000000J0000906D01*
G01*
G37*
G36*
G01*
X0208189Y0059863D02*
X0208189Y0062579D01*
G75*
G02*
X0209094Y0063485I0000906J0000000D01*
G01*
X0214370Y0063485D01*
G75*
G02*
X0215275Y0062579I0000000J-000906D01*
G01*
X0215275Y0059863D01*
G75*
G02*
X0214370Y0058957I-000906J0000000D01*
G01*
X0209094Y0058957D01*
G75*
G02*
X0208189Y0059863I0000000J0000906D01*
G01*
G37*
X0211732Y0057284D03*
D25*
X0443917Y0287894D03*
X0440177Y0287894D03*
X0436437Y0287894D03*
X0440374Y0322146D03*
X0443917Y0322146D03*
G36*
G01*
X0161890Y0016870D02*
X0159212Y0016870D01*
G75*
G02*
X0158878Y0017205I0000000J0000335D01*
G01*
X0158878Y0019882D01*
G75*
G02*
X0159212Y0020217I0000335J0000000D01*
G01*
X0161890Y0020217D01*
G75*
G02*
X0162224Y0019882I0000000J-000335D01*
G01*
X0162224Y0017205D01*
G75*
G02*
X0161890Y0016870I-000335J0000000D01*
G01*
G37*
G36*
G01*
X0161890Y0023091D02*
X0159212Y0023091D01*
G75*
G02*
X0158878Y0023426I0000000J0000335D01*
G01*
X0158878Y0026103D01*
G75*
G02*
X0159212Y0026437I0000335J0000000D01*
G01*
X0161890Y0026437D01*
G75*
G02*
X0162224Y0026103I0000000J-000335D01*
G01*
X0162224Y0023426D01*
G75*
G02*
X0161890Y0023091I-000335J0000000D01*
G01*
G37*
D10*
X0221181Y0043307D03*
D74*
X0066919Y0174902D03*
D81*
X0063966Y0155217D03*
X0063966Y0039075D03*
D74*
X0066919Y0019390D03*
D20*
X0088573Y0144390D03*
X0088573Y0132579D03*
X0088573Y0120768D03*
X0088573Y0108957D03*
X0088573Y0097146D03*
X0088573Y0085335D03*
X0088573Y0073524D03*
X0088573Y0061713D03*
X0088573Y0049902D03*
X0074793Y0138485D03*
X0074793Y0126674D03*
X0074793Y0114863D03*
X0074793Y0103052D03*
X0074793Y0091241D03*
X0074793Y0079430D03*
X0074793Y0067618D03*
X0074793Y0055807D03*
X0059045Y0138485D03*
X0059045Y0126674D03*
X0059045Y0114863D03*
X0059045Y0103052D03*
X0059045Y0091241D03*
X0059045Y0079430D03*
X0059045Y0067618D03*
X0059045Y0055807D03*
X0045266Y0144390D03*
X0045266Y0132579D03*
X0045266Y0120768D03*
X0045266Y0108957D03*
X0045266Y0097146D03*
X0045266Y0085335D03*
X0045266Y0073524D03*
X0045266Y0061713D03*
X0045266Y0049902D03*
D36*
X0291555Y0081989D03*
X0291555Y0056792D03*
X0291555Y0049311D03*
X0291555Y0032382D03*
D25*
X0293327Y0022933D03*
X0293327Y0018996D03*
D36*
X0291555Y0007776D03*
X0230531Y0083760D03*
X0230531Y0076477D03*
X0230531Y0056989D03*
X0230531Y0009548D03*
G36*
G01*
X0233907Y0149031D02*
X0233907Y0151049D01*
G75*
G02*
X0234769Y0151910I0000861J0000000D01*
G01*
X0236491Y0151910D01*
G75*
G02*
X0237352Y0151049I0000000J-000861D01*
G01*
X0237352Y0149031D01*
G75*
G02*
X0236491Y0148170I-000861J0000000D01*
G01*
X0234769Y0148170D01*
G75*
G02*
X0233907Y0149031I0000000J0000861D01*
G01*
G37*
G36*
G01*
X0240108Y0149031D02*
X0240108Y0151049D01*
G75*
G02*
X0240969Y0151910I0000861J0000000D01*
G01*
X0242692Y0151910D01*
G75*
G02*
X0243553Y0151049I0000000J-000861D01*
G01*
X0243553Y0149031D01*
G75*
G02*
X0242692Y0148170I-000861J0000000D01*
G01*
X0240969Y0148170D01*
G75*
G02*
X0240108Y0149031I0000000J0000861D01*
G01*
G37*
D10*
X0284409Y0181103D03*
D49*
X0252283Y0171949D03*
D51*
X0252480Y0212697D03*
X0252480Y0210729D03*
D25*
X0256614Y0184941D03*
X0258681Y0188386D03*
X0261634Y0183760D03*
X0275610Y0184055D03*
G36*
G01*
X0194941Y0075237D02*
X0198012Y0075237D01*
G75*
G02*
X0198287Y0074961I0000000J-000276D01*
G01*
X0198287Y0072756D01*
G75*
G02*
X0198012Y0072481I-000276J0000000D01*
G01*
X0194941Y0072481D01*
G75*
G02*
X0194665Y0072756I0000000J0000276D01*
G01*
X0194665Y0074961D01*
G75*
G02*
X0194941Y0075237I0000276J0000000D01*
G01*
G37*
G36*
G01*
X0194941Y0068937D02*
X0198012Y0068937D01*
G75*
G02*
X0198287Y0068662I0000000J-000276D01*
G01*
X0198287Y0066457D01*
G75*
G02*
X0198012Y0066181I-000276J0000000D01*
G01*
X0194941Y0066181D01*
G75*
G02*
X0194665Y0066457I0000000J0000276D01*
G01*
X0194665Y0068662D01*
G75*
G02*
X0194941Y0068937I0000276J0000000D01*
G01*
G37*
G36*
G01*
X0229705Y0187850D02*
X0229705Y0189867D01*
G75*
G02*
X0230566Y0190729I0000861J0000000D01*
G01*
X0232288Y0190729D01*
G75*
G02*
X0233149Y0189867I0000000J-000861D01*
G01*
X0233149Y0187850D01*
G75*
G02*
X0232288Y0186989I-000861J0000000D01*
G01*
X0230566Y0186989D01*
G75*
G02*
X0229705Y0187850I0000000J0000861D01*
G01*
G37*
G36*
G01*
X0235905Y0187850D02*
X0235905Y0189867D01*
G75*
G02*
X0236767Y0190729I0000861J0000000D01*
G01*
X0238489Y0190729D01*
G75*
G02*
X0239350Y0189867I0000000J-000861D01*
G01*
X0239350Y0187850D01*
G75*
G02*
X0238489Y0186989I-000861J0000000D01*
G01*
X0236767Y0186989D01*
G75*
G02*
X0235905Y0187850I0000000J0000861D01*
G01*
G37*
D52*
X0520393Y0058268D03*
X0520393Y0064174D03*
X0520393Y0070079D03*
X0520393Y0075985D03*
X0520393Y0081890D03*
X0520393Y0087796D03*
X0520393Y0093701D03*
X0520393Y0099607D03*
X0520393Y0105512D03*
X0520393Y0111418D03*
X0520393Y0117323D03*
X0520393Y0123229D03*
X0520393Y0129134D03*
X0470393Y0129134D03*
X0470393Y0123229D03*
X0470393Y0117323D03*
X0470393Y0111418D03*
X0470393Y0105512D03*
X0470393Y0099607D03*
X0470393Y0093701D03*
X0470393Y0087796D03*
X0470393Y0081890D03*
X0470393Y0075985D03*
X0470393Y0070079D03*
X0470393Y0064174D03*
X0470393Y0058268D03*
G36*
G01*
X0381171Y0338563D02*
X0381171Y0333642D01*
G75*
G02*
X0380777Y0333248I-000394J0000000D01*
G01*
X0377628Y0333248D01*
G75*
G02*
X0377234Y0333642I0000000J0000394D01*
G01*
X0377234Y0338563D01*
G75*
G02*
X0377628Y0338957I0000394J0000000D01*
G01*
X0380777Y0338957D01*
G75*
G02*
X0381171Y0338563I0000000J-000394D01*
G01*
G37*
G36*
G01*
X0373691Y0338563D02*
X0373691Y0333642D01*
G75*
G02*
X0373297Y0333248I-000394J0000000D01*
G01*
X0370147Y0333248D01*
G75*
G02*
X0369754Y0333642I0000000J0000394D01*
G01*
X0369754Y0338563D01*
G75*
G02*
X0370147Y0338957I0000394J0000000D01*
G01*
X0373297Y0338957D01*
G75*
G02*
X0373691Y0338563I0000000J-000394D01*
G01*
G37*
D23*
X0220393Y0076575D03*
G36*
G01*
X0216850Y0071280D02*
X0216850Y0073996D01*
G75*
G02*
X0217756Y0074902I0000906J0000000D01*
G01*
X0223031Y0074902D01*
G75*
G02*
X0223937Y0073996I0000000J-000906D01*
G01*
X0223937Y0071280D01*
G75*
G02*
X0223031Y0070374I-000906J0000000D01*
G01*
X0217756Y0070374D01*
G75*
G02*
X0216850Y0071280I0000000J0000906D01*
G01*
G37*
G36*
G01*
X0216850Y0059863D02*
X0216850Y0062579D01*
G75*
G02*
X0217756Y0063485I0000906J0000000D01*
G01*
X0223031Y0063485D01*
G75*
G02*
X0223937Y0062579I0000000J-000906D01*
G01*
X0223937Y0059863D01*
G75*
G02*
X0223031Y0058957I-000906J0000000D01*
G01*
X0217756Y0058957D01*
G75*
G02*
X0216850Y0059863I0000000J0000906D01*
G01*
G37*
X0220393Y0057284D03*
D10*
X0376693Y0009843D03*
D23*
X0301790Y0025491D03*
G36*
G01*
X0299329Y0023700D02*
X0304250Y0023700D01*
G75*
G02*
X0304644Y0023306I0000000J-000394D01*
G01*
X0304644Y0020156D01*
G75*
G02*
X0304250Y0019763I-000394J0000000D01*
G01*
X0299329Y0019763D01*
G75*
G02*
X0298935Y0020156I0000000J0000394D01*
G01*
X0298935Y0023306D01*
G75*
G02*
X0299329Y0023700I0000394J0000000D01*
G01*
G37*
G36*
G01*
X0299329Y0016219D02*
X0304250Y0016219D01*
G75*
G02*
X0304644Y0015826I0000000J-000394D01*
G01*
X0304644Y0012676D01*
G75*
G02*
X0304250Y0012282I-000394J0000000D01*
G01*
X0299329Y0012282D01*
G75*
G02*
X0298935Y0012676I0000000J0000394D01*
G01*
X0298935Y0015826D01*
G75*
G02*
X0299329Y0016219I0000394J0000000D01*
G01*
G37*
X0301790Y0010491D03*
G36*
G01*
X0369714Y0341122D02*
X0369714Y0346044D01*
G75*
G02*
X0370108Y0346437I0000394J0000000D01*
G01*
X0373258Y0346437D01*
G75*
G02*
X0373651Y0346044I0000000J-000394D01*
G01*
X0373651Y0341122D01*
G75*
G02*
X0373258Y0340729I-000394J0000000D01*
G01*
X0370108Y0340729D01*
G75*
G02*
X0369714Y0341122I0000000J0000394D01*
G01*
G37*
G36*
G01*
X0377195Y0341122D02*
X0377195Y0346044D01*
G75*
G02*
X0377588Y0346437I0000394J0000000D01*
G01*
X0380738Y0346437D01*
G75*
G02*
X0381132Y0346044I0000000J-000394D01*
G01*
X0381132Y0341122D01*
G75*
G02*
X0380738Y0340729I-000394J0000000D01*
G01*
X0377588Y0340729D01*
G75*
G02*
X0377195Y0341122I0000000J0000394D01*
G01*
G37*
G36*
G01*
X0389439Y0333760D02*
X0389439Y0338681D01*
G75*
G02*
X0389833Y0339075I0000394J0000000D01*
G01*
X0392982Y0339075D01*
G75*
G02*
X0393376Y0338681I0000000J-000394D01*
G01*
X0393376Y0333760D01*
G75*
G02*
X0392982Y0333367I-000394J0000000D01*
G01*
X0389833Y0333367D01*
G75*
G02*
X0389439Y0333760I0000000J0000394D01*
G01*
G37*
G36*
G01*
X0396919Y0333760D02*
X0396919Y0338681D01*
G75*
G02*
X0397313Y0339075I0000394J0000000D01*
G01*
X0400463Y0339075D01*
G75*
G02*
X0400856Y0338681I0000000J-000394D01*
G01*
X0400856Y0333760D01*
G75*
G02*
X0400463Y0333367I-000394J0000000D01*
G01*
X0397313Y0333367D01*
G75*
G02*
X0396919Y0333760I0000000J0000394D01*
G01*
G37*
G36*
G01*
X0229931Y0195291D02*
X0229931Y0197308D01*
G75*
G02*
X0230792Y0198170I0000861J0000000D01*
G01*
X0232515Y0198170D01*
G75*
G02*
X0233376Y0197308I0000000J-000861D01*
G01*
X0233376Y0195291D01*
G75*
G02*
X0232515Y0194430I-000861J0000000D01*
G01*
X0230792Y0194430D01*
G75*
G02*
X0229931Y0195291I0000000J0000861D01*
G01*
G37*
G36*
G01*
X0236132Y0195291D02*
X0236132Y0197308D01*
G75*
G02*
X0236993Y0198170I0000861J0000000D01*
G01*
X0238715Y0198170D01*
G75*
G02*
X0239577Y0197308I0000000J-000861D01*
G01*
X0239577Y0195291D01*
G75*
G02*
X0238715Y0194430I-000861J0000000D01*
G01*
X0236993Y0194430D01*
G75*
G02*
X0236132Y0195291I0000000J0000861D01*
G01*
G37*
D53*
X0147165Y0078741D03*
X0147165Y0074804D03*
X0147165Y0070867D03*
X0147165Y0066930D03*
X0147165Y0062992D03*
X0147165Y0059055D03*
X0184960Y0059055D03*
X0184960Y0062992D03*
X0184960Y0066930D03*
X0184960Y0070867D03*
X0184960Y0074804D03*
X0184960Y0078741D03*
D54*
X0166063Y0068898D03*
D53*
X0173248Y0041496D03*
X0173248Y0037559D03*
X0173248Y0033622D03*
X0173248Y0029685D03*
X0173248Y0025748D03*
X0173248Y0021811D03*
X0211043Y0021811D03*
X0211043Y0025748D03*
X0211043Y0029685D03*
X0211043Y0033622D03*
X0211043Y0037559D03*
X0211043Y0041496D03*
D54*
X0192145Y0031654D03*
D10*
X0458189Y0094489D03*
D82*
X0316102Y0026004D03*
X0338858Y0026004D03*
D67*
X0314291Y0030197D03*
X0317441Y0030197D03*
X0322559Y0030197D03*
X0326496Y0030197D03*
X0328464Y0030197D03*
X0332401Y0030197D03*
X0337519Y0030197D03*
X0340669Y0030197D03*
X0339488Y0030197D03*
X0336338Y0030197D03*
X0334370Y0030197D03*
X0330433Y0030197D03*
X0324527Y0030197D03*
X0320590Y0030197D03*
X0318622Y0030197D03*
X0315472Y0030197D03*
D68*
X0310472Y0027973D03*
D69*
X0310472Y0011516D03*
D68*
X0344488Y0027973D03*
D69*
X0344488Y0011516D03*
D21*
X0501102Y0013780D03*
X0503870Y0020461D03*
X0503870Y0007099D03*
X0510551Y0023229D03*
D22*
X0510551Y0013780D03*
D21*
X0510551Y0004331D03*
X0517232Y0020461D03*
X0517232Y0007099D03*
X0520000Y0013780D03*
D25*
X0280728Y0246752D03*
X0276004Y0246752D03*
X0285453Y0246752D03*
X0290177Y0246752D03*
X0264744Y0303544D03*
X0260807Y0303544D03*
D23*
X0203661Y0088977D03*
G36*
G01*
X0208956Y0085433D02*
X0206240Y0085433D01*
G75*
G02*
X0205334Y0086339I0000000J0000906D01*
G01*
X0205334Y0091615D01*
G75*
G02*
X0206240Y0092520I0000906J0000000D01*
G01*
X0208956Y0092520D01*
G75*
G02*
X0209862Y0091615I0000000J-000906D01*
G01*
X0209862Y0086339D01*
G75*
G02*
X0208956Y0085433I-000906J0000000D01*
G01*
G37*
G36*
G01*
X0220374Y0085433D02*
X0217657Y0085433D01*
G75*
G02*
X0216752Y0086339I0000000J0000906D01*
G01*
X0216752Y0091615D01*
G75*
G02*
X0217657Y0092520I0000906J0000000D01*
G01*
X0220374Y0092520D01*
G75*
G02*
X0221279Y0091615I0000000J-000906D01*
G01*
X0221279Y0086339D01*
G75*
G02*
X0220374Y0085433I-000906J0000000D01*
G01*
G37*
X0222953Y0088977D03*
D70*
X0517047Y0149213D03*
D71*
X0507047Y0149213D03*
X0497047Y0149213D03*
X0487047Y0149213D03*
X0477047Y0149213D03*
X0467047Y0149213D03*
G36*
G01*
X0222008Y0037599D02*
X0225079Y0037599D01*
G75*
G02*
X0225354Y0037323I0000000J-000276D01*
G01*
X0225354Y0035118D01*
G75*
G02*
X0225079Y0034843I-000276J0000000D01*
G01*
X0222008Y0034843D01*
G75*
G02*
X0221732Y0035118I0000000J0000276D01*
G01*
X0221732Y0037323D01*
G75*
G02*
X0222008Y0037599I0000276J0000000D01*
G01*
G37*
G36*
G01*
X0222008Y0031300D02*
X0225079Y0031300D01*
G75*
G02*
X0225354Y0031024I0000000J-000276D01*
G01*
X0225354Y0028819D01*
G75*
G02*
X0225079Y0028544I-000276J0000000D01*
G01*
X0222008Y0028544D01*
G75*
G02*
X0221732Y0028819I0000000J0000276D01*
G01*
X0221732Y0031024D01*
G75*
G02*
X0222008Y0031300I0000276J0000000D01*
G01*
G37*
D72*
X0414894Y0296969D03*
X0414894Y0206969D03*
D73*
X0407493Y0271428D03*
X0407493Y0232678D03*
X0402493Y0232678D03*
X0397493Y0232678D03*
X0392493Y0232678D03*
D23*
X0364894Y0276969D03*
D73*
X0392493Y0271428D03*
X0397493Y0271428D03*
D23*
X0364894Y0266969D03*
D73*
X0402493Y0271428D03*
D23*
X0364894Y0256969D03*
X0364894Y0246969D03*
X0364894Y0236969D03*
X0364894Y0226969D03*
D10*
X0162441Y0045276D03*
G36*
G01*
X0138268Y0051122D02*
X0135590Y0051122D01*
G75*
G02*
X0135256Y0051457I0000000J0000335D01*
G01*
X0135256Y0054134D01*
G75*
G02*
X0135590Y0054469I0000335J0000000D01*
G01*
X0138268Y0054469D01*
G75*
G02*
X0138602Y0054134I0000000J-000335D01*
G01*
X0138602Y0051457D01*
G75*
G02*
X0138268Y0051122I-000335J0000000D01*
G01*
G37*
G36*
G01*
X0138268Y0057343D02*
X0135590Y0057343D01*
G75*
G02*
X0135256Y0057678I0000000J0000335D01*
G01*
X0135256Y0060355D01*
G75*
G02*
X0135590Y0060689I0000335J0000000D01*
G01*
X0138268Y0060689D01*
G75*
G02*
X0138602Y0060355I0000000J-000335D01*
G01*
X0138602Y0057678D01*
G75*
G02*
X0138268Y0057343I-000335J0000000D01*
G01*
G37*
D36*
X0492834Y0085040D03*
X0492834Y0114567D03*
X0227589Y0004862D02*
G01*
G75*
D114*
X0272668Y0029229D02*
D03*
X0272668Y0011512D02*
D03*
D115*
X0269341Y0053681D02*
D03*
X0241979Y0053681D02*
D03*
D116*
X0258101Y0030453D02*
D03*
X0241959Y0030453D02*
D03*
D117*
X0259872Y0012342D02*
D03*
X0244124Y0012342D02*
D03*
D118*
X0236933Y0074120D02*
D03*
X0246185Y0070380D02*
D03*
D118*
X0246185Y0077860D02*
D03*
D119*
X0269020Y0083799D02*
D03*
D119*
X0269020Y0080059D02*
D03*
X0269020Y0076319D02*
D03*
X0277484Y0076319D02*
D03*
X0277484Y0083799D02*
D03*
D120*
X0281336Y0069798D02*
D03*
X0268344Y0069798D02*
D03*
D121*
X0263050Y0070086D02*
D03*
X0251632Y0070086D02*
D03*
D122*
X0282235Y0037539D02*
D03*
X0276014Y0037539D02*
D03*
X0271644Y0037539D02*
D03*
X0265424Y0037539D02*
D03*
D123*
X0231558Y0014650D02*
D03*
X0231558Y0018784D02*
D03*
X0282113Y0056524D02*
D03*
X0282113Y0060658D02*
D03*
X0282113Y0051811D02*
D03*
X0282113Y0047677D02*
D03*
X0283005Y0032162D02*
D03*
X0283005Y0028028D02*
D03*
D124*
X0263902Y0076369D02*
D03*
X0263902Y0080306D02*
D03*
X0250227Y0077271D02*
D03*
X0258888Y0077271D02*
D03*
X0250227Y0083668D02*
D03*
X0258888Y0083668D02*
D03*
D125*
X0241854Y0083799D02*
D03*
X0245398Y0083799D02*
D03*
D126*
X0277855Y0060461D02*
D03*
X0277855Y0056917D02*
D03*
X0277855Y0051417D02*
D03*
X0277855Y0047874D02*
D03*
X0283005Y0019861D02*
D03*
X0283005Y0023405D02*
D03*
D127*
X0293337Y0022972D02*
D03*
X0293337Y0019035D02*
D03*
D128*
X0230542Y0076515D02*
D03*
X0230542Y0009586D02*
D03*
X0230542Y0057027D02*
D03*
X0291565Y0056830D02*
D03*
X0291565Y0082027D02*
D03*
X0291565Y0032421D02*
D03*
X0291565Y0049350D02*
D03*
X0291565Y0007815D02*
D03*
X0230542Y0083799D02*
D03*
X0433691Y0323366D02*
G01*
G75*
D297*
X0443915Y0308661D02*
D03*
X0436435Y0308661D02*
D03*
X0436435Y0317126D02*
D03*
X0440175Y0317126D02*
D03*
X0443915Y0293012D02*
D03*
X0436435Y0293012D02*
D03*
X0436435Y0301476D02*
D03*
X0440175Y0301476D02*
D03*
D297*
X0443915Y0317126D02*
D03*
X0443915Y0301476D02*
D03*
D127*
X0443927Y0287933D02*
D03*
X0440187Y0287933D02*
D03*
X0436447Y0287933D02*
D03*
X0440384Y0322185D02*
D03*
X0443927Y0322185D02*
D03*
X0297077Y0305059D02*
%LPD*%
G01*
D25*
X0324242Y0246791D03*
X0319518Y0246791D03*
X0328967Y0246791D03*
X0333691Y0246791D03*
X0308258Y0303583D03*
X0304321Y0303583D03*
G36*
G01*
X0314695Y0287618D02*
X0316152Y0287618D01*
G75*
G02*
X0316683Y0287087I0000000J-000531D01*
G01*
X0316683Y0286024D01*
G75*
G02*
X0316152Y0285492I-000531J0000000D01*
G01*
X0314695Y0285492D01*
G75*
G02*
X0314164Y0286024I0000000J0000531D01*
G01*
X0314164Y0287087D01*
G75*
G02*
X0314695Y0287618I0000531J0000000D01*
G01*
G37*
G36*
G01*
X0314695Y0291634D02*
X0316152Y0291634D01*
G75*
G02*
X0316683Y0291102I0000000J-000531D01*
G01*
X0316683Y0290039D01*
G75*
G02*
X0316152Y0289508I-000531J0000000D01*
G01*
X0314695Y0289508D01*
G75*
G02*
X0314164Y0290039I0000000J0000531D01*
G01*
X0314164Y0291102D01*
G75*
G02*
X0314695Y0291634I0000531J0000000D01*
G01*
G37*
G36*
G01*
X0299006Y0264370D02*
X0299006Y0265827D01*
G75*
G02*
X0299538Y0266358I0000531J0000000D01*
G01*
X0300601Y0266358D01*
G75*
G02*
X0301132Y0265827I0000000J-000531D01*
G01*
X0301132Y0264370D01*
G75*
G02*
X0300601Y0263839I-000531J0000000D01*
G01*
X0299538Y0263839D01*
G75*
G02*
X0299006Y0264370I0000000J0000531D01*
G01*
G37*
G36*
G01*
X0303022Y0264370D02*
X0303022Y0265827D01*
G75*
G02*
X0303553Y0266358I0000531J0000000D01*
G01*
X0304616Y0266358D01*
G75*
G02*
X0305148Y0265827I0000000J-000531D01*
G01*
X0305148Y0264370D01*
G75*
G02*
X0304616Y0263839I-000531J0000000D01*
G01*
X0303553Y0263839D01*
G75*
G02*
X0303022Y0264370I0000000J0000531D01*
G01*
G37*
G36*
G01*
X0331349Y0275342D02*
X0332530Y0275342D01*
G75*
G02*
X0333120Y0274752I0000000J-000591D01*
G01*
X0333120Y0268256D01*
G75*
G02*
X0332530Y0267665I-000591J0000000D01*
G01*
X0331349Y0267665D01*
G75*
G02*
X0330758Y0268256I0000000J0000591D01*
G01*
X0330758Y0274752D01*
G75*
G02*
X0331349Y0275342I0000591J0000000D01*
G01*
G37*
G36*
G01*
X0326349Y0275342D02*
X0327530Y0275342D01*
G75*
G02*
X0328120Y0274752I0000000J-000591D01*
G01*
X0328120Y0268256D01*
G75*
G02*
X0327530Y0267665I-000591J0000000D01*
G01*
X0326349Y0267665D01*
G75*
G02*
X0325758Y0268256I0000000J0000591D01*
G01*
X0325758Y0274752D01*
G75*
G02*
X0326349Y0275342I0000591J0000000D01*
G01*
G37*
G36*
G01*
X0321349Y0275342D02*
X0322530Y0275342D01*
G75*
G02*
X0323120Y0274752I0000000J-000591D01*
G01*
X0323120Y0268256D01*
G75*
G02*
X0322530Y0267665I-000591J0000000D01*
G01*
X0321349Y0267665D01*
G75*
G02*
X0320758Y0268256I0000000J0000591D01*
G01*
X0320758Y0274752D01*
G75*
G02*
X0321349Y0275342I0000591J0000000D01*
G01*
G37*
G36*
G01*
X0316349Y0275342D02*
X0317530Y0275342D01*
G75*
G02*
X0318120Y0274752I0000000J-000591D01*
G01*
X0318120Y0268256D01*
G75*
G02*
X0317530Y0267665I-000591J0000000D01*
G01*
X0316349Y0267665D01*
G75*
G02*
X0315758Y0268256I0000000J0000591D01*
G01*
X0315758Y0274752D01*
G75*
G02*
X0316349Y0275342I0000591J0000000D01*
G01*
G37*
G36*
G01*
X0316349Y0255854D02*
X0317530Y0255854D01*
G75*
G02*
X0318120Y0255264I0000000J-000591D01*
G01*
X0318120Y0248768D01*
G75*
G02*
X0317530Y0248177I-000591J0000000D01*
G01*
X0316349Y0248177D01*
G75*
G02*
X0315758Y0248768I0000000J0000591D01*
G01*
X0315758Y0255264D01*
G75*
G02*
X0316349Y0255854I0000591J0000000D01*
G01*
G37*
G36*
G01*
X0321349Y0255854D02*
X0322530Y0255854D01*
G75*
G02*
X0323120Y0255264I0000000J-000591D01*
G01*
X0323120Y0248768D01*
G75*
G02*
X0322530Y0248177I-000591J0000000D01*
G01*
X0321349Y0248177D01*
G75*
G02*
X0320758Y0248768I0000000J0000591D01*
G01*
X0320758Y0255264D01*
G75*
G02*
X0321349Y0255854I0000591J0000000D01*
G01*
G37*
G36*
G01*
X0326349Y0255854D02*
X0327530Y0255854D01*
G75*
G02*
X0328120Y0255264I0000000J-000591D01*
G01*
X0328120Y0248768D01*
G75*
G02*
X0327530Y0248177I-000591J0000000D01*
G01*
X0326349Y0248177D01*
G75*
G02*
X0325758Y0248768I0000000J0000591D01*
G01*
X0325758Y0255264D01*
G75*
G02*
X0326349Y0255854I0000591J0000000D01*
G01*
G37*
G36*
G01*
X0331349Y0255854D02*
X0332530Y0255854D01*
G75*
G02*
X0333120Y0255264I0000000J-000591D01*
G01*
X0333120Y0248768D01*
G75*
G02*
X0332530Y0248177I-000591J0000000D01*
G01*
X0331349Y0248177D01*
G75*
G02*
X0330758Y0248768I0000000J0000591D01*
G01*
X0330758Y0255264D01*
G75*
G02*
X0331349Y0255854I0000591J0000000D01*
G01*
G37*
D153*
X0332077Y0289862D03*
X0329518Y0289862D03*
X0326959Y0289862D03*
X0326959Y0282382D03*
X0329518Y0282382D03*
X0332077Y0282382D03*
G36*
G01*
X0312989Y0273701D02*
X0312989Y0272244D01*
G75*
G02*
X0312457Y0271713I-000531J0000000D01*
G01*
X0311394Y0271713D01*
G75*
G02*
X0310863Y0272244I0000000J0000531D01*
G01*
X0310863Y0273701D01*
G75*
G02*
X0311394Y0274232I0000531J0000000D01*
G01*
X0312457Y0274232D01*
G75*
G02*
X0312989Y0273701I0000000J-000531D01*
G01*
G37*
G36*
G01*
X0308973Y0273701D02*
X0308973Y0272244D01*
G75*
G02*
X0308442Y0271713I-000531J0000000D01*
G01*
X0307379Y0271713D01*
G75*
G02*
X0306847Y0272244I0000000J0000531D01*
G01*
X0306847Y0273701D01*
G75*
G02*
X0307379Y0274232I0000531J0000000D01*
G01*
X0308442Y0274232D01*
G75*
G02*
X0308973Y0273701I0000000J-000531D01*
G01*
G37*
G36*
G01*
X0306926Y0268366D02*
X0306926Y0269705D01*
G75*
G02*
X0307477Y0270256I0000551J0000000D01*
G01*
X0308579Y0270256D01*
G75*
G02*
X0309131Y0269705I0000000J-000551D01*
G01*
X0309131Y0268366D01*
G75*
G02*
X0308579Y0267815I-000551J0000000D01*
G01*
X0307477Y0267815D01*
G75*
G02*
X0306926Y0268366I0000000J0000551D01*
G01*
G37*
G36*
G01*
X0310705Y0268366D02*
X0310705Y0269705D01*
G75*
G02*
X0311257Y0270256I0000551J0000000D01*
G01*
X0312359Y0270256D01*
G75*
G02*
X0312910Y0269705I0000000J-000551D01*
G01*
X0312910Y0268366D01*
G75*
G02*
X0312359Y0267815I-000551J0000000D01*
G01*
X0311257Y0267815D01*
G75*
G02*
X0310705Y0268366I0000000J0000551D01*
G01*
G37*
G36*
G01*
X0299006Y0272244D02*
X0299006Y0273701D01*
G75*
G02*
X0299538Y0274232I0000531J0000000D01*
G01*
X0300601Y0274232D01*
G75*
G02*
X0301132Y0273701I0000000J-000531D01*
G01*
X0301132Y0272244D01*
G75*
G02*
X0300601Y0271713I-000531J0000000D01*
G01*
X0299538Y0271713D01*
G75*
G02*
X0299006Y0272244I0000000J0000531D01*
G01*
G37*
G36*
G01*
X0303022Y0272244D02*
X0303022Y0273701D01*
G75*
G02*
X0303553Y0274232I0000531J0000000D01*
G01*
X0304616Y0274232D01*
G75*
G02*
X0305148Y0273701I0000000J-000531D01*
G01*
X0305148Y0272244D01*
G75*
G02*
X0304616Y0271713I-000531J0000000D01*
G01*
X0303553Y0271713D01*
G75*
G02*
X0303022Y0272244I0000000J0000531D01*
G01*
G37*
G36*
G01*
X0305069Y0260650D02*
X0305069Y0259311D01*
G75*
G02*
X0304518Y0258760I-000551J0000000D01*
G01*
X0303416Y0258760D01*
G75*
G02*
X0302864Y0259311I0000000J0000551D01*
G01*
X0302864Y0260650D01*
G75*
G02*
X0303416Y0261201I0000551J0000000D01*
G01*
X0304518Y0261201D01*
G75*
G02*
X0305069Y0260650I0000000J-000551D01*
G01*
G37*
G36*
G01*
X0301290Y0260650D02*
X0301290Y0259311D01*
G75*
G02*
X0300738Y0258760I-000551J0000000D01*
G01*
X0299636Y0258760D01*
G75*
G02*
X0299085Y0259311I0000000J0000551D01*
G01*
X0299085Y0260650D01*
G75*
G02*
X0299636Y0261201I0000551J0000000D01*
G01*
X0300738Y0261201D01*
G75*
G02*
X0301290Y0260650I0000000J-000551D01*
G01*
G37*
G36*
G01*
X0308927Y0283779D02*
X0308927Y0282441D01*
G75*
G02*
X0308376Y0281890I-000551J0000000D01*
G01*
X0307274Y0281890D01*
G75*
G02*
X0306723Y0282441I0000000J0000551D01*
G01*
X0306723Y0283779D01*
G75*
G02*
X0307274Y0284331I0000551J0000000D01*
G01*
X0308376Y0284331D01*
G75*
G02*
X0308927Y0283779I0000000J-000551D01*
G01*
G37*
G36*
G01*
X0305148Y0283779D02*
X0305148Y0282441D01*
G75*
G02*
X0304597Y0281890I-000551J0000000D01*
G01*
X0303494Y0281890D01*
G75*
G02*
X0302943Y0282441I0000000J0000551D01*
G01*
X0302943Y0283779D01*
G75*
G02*
X0303494Y0284331I0000551J0000000D01*
G01*
X0304597Y0284331D01*
G75*
G02*
X0305148Y0283779I0000000J-000551D01*
G01*
G37*
G36*
G01*
X0312175Y0278012D02*
X0310719Y0278012D01*
G75*
G02*
X0310187Y0278543I0000000J0000531D01*
G01*
X0310187Y0279606D01*
G75*
G02*
X0310719Y0280138I0000531J0000000D01*
G01*
X0312175Y0280138D01*
G75*
G02*
X0312707Y0279606I0000000J-000531D01*
G01*
X0312707Y0278543D01*
G75*
G02*
X0312175Y0278012I-000531J0000000D01*
G01*
G37*
G36*
G01*
X0312175Y0282028D02*
X0310719Y0282028D01*
G75*
G02*
X0310187Y0282559I0000000J0000531D01*
G01*
X0310187Y0283622D01*
G75*
G02*
X0310719Y0284153I0000531J0000000D01*
G01*
X0312175Y0284153D01*
G75*
G02*
X0312707Y0283622I0000000J-000531D01*
G01*
X0312707Y0282559D01*
G75*
G02*
X0312175Y0282028I-000531J0000000D01*
G01*
G37*
G36*
G01*
X0312904Y0247185D02*
X0311565Y0247185D01*
G75*
G02*
X0311014Y0247736I0000000J0000551D01*
G01*
X0311014Y0248839D01*
G75*
G02*
X0311565Y0249390I0000551J0000000D01*
G01*
X0312904Y0249390D01*
G75*
G02*
X0313455Y0248839I0000000J-000551D01*
G01*
X0313455Y0247736D01*
G75*
G02*
X0312904Y0247185I-000551J0000000D01*
G01*
G37*
G36*
G01*
X0312904Y0250965D02*
X0311565Y0250965D01*
G75*
G02*
X0311014Y0251516I0000000J0000551D01*
G01*
X0311014Y0252618D01*
G75*
G02*
X0311565Y0253169I0000551J0000000D01*
G01*
X0312904Y0253169D01*
G75*
G02*
X0313455Y0252618I0000000J-000551D01*
G01*
X0313455Y0251516D01*
G75*
G02*
X0312904Y0250965I-000551J0000000D01*
G01*
G37*
G36*
G01*
X0318667Y0296240D02*
X0320684Y0296240D01*
G75*
G02*
X0321546Y0295379I0000000J-000861D01*
G01*
X0321546Y0293656D01*
G75*
G02*
X0320684Y0292795I-000861J0000000D01*
G01*
X0318667Y0292795D01*
G75*
G02*
X0317805Y0293656I0000000J0000861D01*
G01*
X0317805Y0295379D01*
G75*
G02*
X0318667Y0296240I0000861J0000000D01*
G01*
G37*
G36*
G01*
X0318667Y0302441D02*
X0320684Y0302441D01*
G75*
G02*
X0321546Y0301580I0000000J-000861D01*
G01*
X0321546Y0299857D01*
G75*
G02*
X0320684Y0298996I-000861J0000000D01*
G01*
X0318667Y0298996D01*
G75*
G02*
X0317805Y0299857I0000000J0000861D01*
G01*
X0317805Y0301580D01*
G75*
G02*
X0318667Y0302441I0000861J0000000D01*
G01*
G37*
G36*
G01*
X0323888Y0277461D02*
X0323888Y0278799D01*
G75*
G02*
X0324439Y0279350I0000551J0000000D01*
G01*
X0325542Y0279350D01*
G75*
G02*
X0326093Y0278799I0000000J-000551D01*
G01*
X0326093Y0277461D01*
G75*
G02*
X0325542Y0276909I-000551J0000000D01*
G01*
X0324439Y0276909D01*
G75*
G02*
X0323888Y0277461I0000000J0000551D01*
G01*
G37*
G36*
G01*
X0327668Y0277461D02*
X0327668Y0278799D01*
G75*
G02*
X0328219Y0279350I0000551J0000000D01*
G01*
X0329321Y0279350D01*
G75*
G02*
X0329872Y0278799I0000000J-000551D01*
G01*
X0329872Y0277461D01*
G75*
G02*
X0329321Y0276909I-000551J0000000D01*
G01*
X0328219Y0276909D01*
G75*
G02*
X0327668Y0277461I0000000J0000551D01*
G01*
G37*
G36*
G01*
X0326742Y0295098D02*
X0325286Y0295098D01*
G75*
G02*
X0324754Y0295630I0000000J0000531D01*
G01*
X0324754Y0296693D01*
G75*
G02*
X0325286Y0297224I0000531J0000000D01*
G01*
X0326742Y0297224D01*
G75*
G02*
X0327274Y0296693I0000000J-000531D01*
G01*
X0327274Y0295630D01*
G75*
G02*
X0326742Y0295098I-000531J0000000D01*
G01*
G37*
G36*
G01*
X0326742Y0299114D02*
X0325286Y0299114D01*
G75*
G02*
X0324754Y0299646I0000000J0000531D01*
G01*
X0324754Y0300709D01*
G75*
G02*
X0325286Y0301240I0000531J0000000D01*
G01*
X0326742Y0301240D01*
G75*
G02*
X0327274Y0300709I0000000J-000531D01*
G01*
X0327274Y0299646D01*
G75*
G02*
X0326742Y0299114I-000531J0000000D01*
G01*
G37*
G36*
G01*
X0314656Y0284153D02*
X0316112Y0284153D01*
G75*
G02*
X0316644Y0283622I0000000J-000531D01*
G01*
X0316644Y0282559D01*
G75*
G02*
X0316112Y0282028I-000531J0000000D01*
G01*
X0314656Y0282028D01*
G75*
G02*
X0314124Y0282559I0000000J0000531D01*
G01*
X0314124Y0283622D01*
G75*
G02*
X0314656Y0284153I0000531J0000000D01*
G01*
G37*
G36*
G01*
X0314656Y0280138D02*
X0316112Y0280138D01*
G75*
G02*
X0316644Y0279606I0000000J-000531D01*
G01*
X0316644Y0278543D01*
G75*
G02*
X0316112Y0278012I-000531J0000000D01*
G01*
X0314656Y0278012D01*
G75*
G02*
X0314124Y0278543I0000000J0000531D01*
G01*
X0314124Y0279606D01*
G75*
G02*
X0314656Y0280138I0000531J0000000D01*
G01*
G37*
G36*
G01*
X0308865Y0279016D02*
X0308865Y0277559D01*
G75*
G02*
X0308334Y0277028I-000531J0000000D01*
G01*
X0307271Y0277028D01*
G75*
G02*
X0306739Y0277559I0000000J0000531D01*
G01*
X0306739Y0279016D01*
G75*
G02*
X0307271Y0279547I0000531J0000000D01*
G01*
X0308334Y0279547D01*
G75*
G02*
X0308865Y0279016I0000000J-000531D01*
G01*
G37*
G36*
G01*
X0304849Y0279016D02*
X0304849Y0277559D01*
G75*
G02*
X0304318Y0277028I-000531J0000000D01*
G01*
X0303255Y0277028D01*
G75*
G02*
X0302724Y0277559I0000000J0000531D01*
G01*
X0302724Y0279016D01*
G75*
G02*
X0303255Y0279547I0000531J0000000D01*
G01*
X0304318Y0279547D01*
G75*
G02*
X0304849Y0279016I0000000J-000531D01*
G01*
G37*
G36*
G01*
X0315463Y0296358D02*
X0314124Y0296358D01*
G75*
G02*
X0313573Y0296909I0000000J0000551D01*
G01*
X0313573Y0298012D01*
G75*
G02*
X0314124Y0298563I0000551J0000000D01*
G01*
X0315463Y0298563D01*
G75*
G02*
X0316014Y0298012I0000000J-000551D01*
G01*
X0316014Y0296909D01*
G75*
G02*
X0315463Y0296358I-000551J0000000D01*
G01*
G37*
G36*
G01*
X0315463Y0300138D02*
X0314124Y0300138D01*
G75*
G02*
X0313573Y0300689I0000000J0000551D01*
G01*
X0313573Y0301791D01*
G75*
G02*
X0314124Y0302342I0000551J0000000D01*
G01*
X0315463Y0302342D01*
G75*
G02*
X0316014Y0301791I0000000J-000551D01*
G01*
X0316014Y0300689D01*
G75*
G02*
X0315463Y0300138I-000551J0000000D01*
G01*
G37*
G36*
G01*
X0306926Y0259311D02*
X0306926Y0260650D01*
G75*
G02*
X0307477Y0261201I0000551J0000000D01*
G01*
X0308579Y0261201D01*
G75*
G02*
X0309131Y0260650I0000000J-000551D01*
G01*
X0309131Y0259311D01*
G75*
G02*
X0308579Y0258760I-000551J0000000D01*
G01*
X0307477Y0258760D01*
G75*
G02*
X0306926Y0259311I0000000J0000551D01*
G01*
G37*
G36*
G01*
X0310705Y0259311D02*
X0310705Y0260650D01*
G75*
G02*
X0311257Y0261201I0000551J0000000D01*
G01*
X0312359Y0261201D01*
G75*
G02*
X0312910Y0260650I0000000J-000551D01*
G01*
X0312910Y0259311D01*
G75*
G02*
X0312359Y0258760I-000551J0000000D01*
G01*
X0311257Y0258760D01*
G75*
G02*
X0310705Y0259311I0000000J0000551D01*
G01*
G37*
G36*
G01*
X0299400Y0284331D02*
X0300857Y0284331D01*
G75*
G02*
X0301388Y0283799I0000000J-000531D01*
G01*
X0301388Y0282736D01*
G75*
G02*
X0300857Y0282205I-000531J0000000D01*
G01*
X0299400Y0282205D01*
G75*
G02*
X0298868Y0282736I0000000J0000531D01*
G01*
X0298868Y0283799D01*
G75*
G02*
X0299400Y0284331I0000531J0000000D01*
G01*
G37*
G36*
G01*
X0299400Y0280315D02*
X0300857Y0280315D01*
G75*
G02*
X0301388Y0279783I0000000J-000531D01*
G01*
X0301388Y0278720D01*
G75*
G02*
X0300857Y0278189I-000531J0000000D01*
G01*
X0299400Y0278189D01*
G75*
G02*
X0298868Y0278720I0000000J0000531D01*
G01*
X0298868Y0279783D01*
G75*
G02*
X0299400Y0280315I0000531J0000000D01*
G01*
G37*
D152*
X0300620Y0255072D03*
X0300620Y0252513D03*
X0300620Y0249954D03*
X0308101Y0249954D03*
X0308101Y0252513D03*
X0308101Y0255072D03*
G36*
G01*
X0309406Y0301021D02*
X0310587Y0301021D01*
G75*
G02*
X0311178Y0300430I0000000J-000591D01*
G01*
X0311178Y0296395D01*
G75*
G02*
X0310587Y0295804I-000591J0000000D01*
G01*
X0309406Y0295804D01*
G75*
G02*
X0308816Y0296395I0000000J0000591D01*
G01*
X0308816Y0300430D01*
G75*
G02*
X0309406Y0301021I0000591J0000000D01*
G01*
G37*
G36*
G01*
X0305666Y0301021D02*
X0306847Y0301021D01*
G75*
G02*
X0307438Y0300430I0000000J-000591D01*
G01*
X0307438Y0296395D01*
G75*
G02*
X0306847Y0295804I-000591J0000000D01*
G01*
X0305666Y0295804D01*
G75*
G02*
X0305075Y0296395I0000000J0000591D01*
G01*
X0305075Y0300430D01*
G75*
G02*
X0305666Y0301021I0000591J0000000D01*
G01*
G37*
G36*
G01*
X0301926Y0301021D02*
X0303107Y0301021D01*
G75*
G02*
X0303697Y0300430I0000000J-000591D01*
G01*
X0303697Y0296395D01*
G75*
G02*
X0303107Y0295804I-000591J0000000D01*
G01*
X0301926Y0295804D01*
G75*
G02*
X0301335Y0296395I0000000J0000591D01*
G01*
X0301335Y0300430D01*
G75*
G02*
X0301926Y0301021I0000591J0000000D01*
G01*
G37*
G36*
G01*
X0301926Y0292064D02*
X0303107Y0292064D01*
G75*
G02*
X0303697Y0291474I0000000J-000591D01*
G01*
X0303697Y0287438D01*
G75*
G02*
X0303107Y0286848I-000591J0000000D01*
G01*
X0301926Y0286848D01*
G75*
G02*
X0301335Y0287438I0000000J0000591D01*
G01*
X0301335Y0291474D01*
G75*
G02*
X0301926Y0292064I0000591J0000000D01*
G01*
G37*
G36*
G01*
X0305666Y0292064D02*
X0306847Y0292064D01*
G75*
G02*
X0307438Y0291474I0000000J-000591D01*
G01*
X0307438Y0287438D01*
G75*
G02*
X0306847Y0286848I-000591J0000000D01*
G01*
X0305666Y0286848D01*
G75*
G02*
X0305075Y0287438I0000000J0000591D01*
G01*
X0305075Y0291474D01*
G75*
G02*
X0305666Y0292064I0000591J0000000D01*
G01*
G37*
G36*
G01*
X0309406Y0292064D02*
X0310587Y0292064D01*
G75*
G02*
X0311178Y0291474I0000000J-000591D01*
G01*
X0311178Y0287438D01*
G75*
G02*
X0310587Y0286848I-000591J0000000D01*
G01*
X0309406Y0286848D01*
G75*
G02*
X0308816Y0287438I0000000J0000591D01*
G01*
X0308816Y0291474D01*
G75*
G02*
X0309406Y0292064I0000591J0000000D01*
G01*
G37*
G36*
G01*
X0321290Y0289902D02*
X0322628Y0289902D01*
G75*
G02*
X0323179Y0289350I0000000J-000551D01*
G01*
X0323179Y0288248D01*
G75*
G02*
X0322628Y0287697I-000551J0000000D01*
G01*
X0321290Y0287697D01*
G75*
G02*
X0320738Y0288248I0000000J0000551D01*
G01*
X0320738Y0289350D01*
G75*
G02*
X0321290Y0289902I0000551J0000000D01*
G01*
G37*
G36*
G01*
X0321290Y0286122D02*
X0322628Y0286122D01*
G75*
G02*
X0323179Y0285571I0000000J-000551D01*
G01*
X0323179Y0284468D01*
G75*
G02*
X0322628Y0283917I-000551J0000000D01*
G01*
X0321290Y0283917D01*
G75*
G02*
X0320738Y0284468I0000000J0000551D01*
G01*
X0320738Y0285571D01*
G75*
G02*
X0321290Y0286122I0000551J0000000D01*
G01*
G37*
G36*
G01*
X0299085Y0268366D02*
X0299085Y0269705D01*
G75*
G02*
X0299636Y0270256I0000551J0000000D01*
G01*
X0300738Y0270256D01*
G75*
G02*
X0301290Y0269705I0000000J-000551D01*
G01*
X0301290Y0268366D01*
G75*
G02*
X0300738Y0267815I-000551J0000000D01*
G01*
X0299636Y0267815D01*
G75*
G02*
X0299085Y0268366I0000000J0000551D01*
G01*
G37*
G36*
G01*
X0302864Y0268366D02*
X0302864Y0269705D01*
G75*
G02*
X0303416Y0270256I0000551J0000000D01*
G01*
X0304518Y0270256D01*
G75*
G02*
X0305069Y0269705I0000000J-000551D01*
G01*
X0305069Y0268366D01*
G75*
G02*
X0304518Y0267815I-000551J0000000D01*
G01*
X0303416Y0267815D01*
G75*
G02*
X0302864Y0268366I0000000J0000551D01*
G01*
G37*
G36*
G01*
X0306847Y0264370D02*
X0306847Y0265827D01*
G75*
G02*
X0307379Y0266358I0000531J0000000D01*
G01*
X0308442Y0266358D01*
G75*
G02*
X0308973Y0265827I0000000J-000531D01*
G01*
X0308973Y0264370D01*
G75*
G02*
X0308442Y0263839I-000531J0000000D01*
G01*
X0307379Y0263839D01*
G75*
G02*
X0306847Y0264370I0000000J0000531D01*
G01*
G37*
G36*
G01*
X0310863Y0264370D02*
X0310863Y0265827D01*
G75*
G02*
X0311394Y0266358I0000531J0000000D01*
G01*
X0312457Y0266358D01*
G75*
G02*
X0312989Y0265827I0000000J-000531D01*
G01*
X0312989Y0264370D01*
G75*
G02*
X0312457Y0263839I-000531J0000000D01*
G01*
X0311394Y0263839D01*
G75*
G02*
X0310863Y0264370I0000000J0000531D01*
G01*
G37*
X0253573Y0305059D02*
%LPD*%
G01*
D25*
X0280738Y0246791D03*
X0276014Y0246791D03*
X0285463Y0246791D03*
X0290187Y0246791D03*
X0264754Y0303583D03*
X0260817Y0303583D03*
D306*
X0266565Y0271201D03*
X0264597Y0271201D03*
X0262628Y0271201D03*
X0260660Y0271201D03*
X0258691Y0271201D03*
X0258691Y0253878D03*
X0260660Y0253878D03*
X0262628Y0253878D03*
X0264597Y0253878D03*
X0266565Y0253878D03*
G36*
G01*
X0279754Y0263681D02*
X0279754Y0260610D01*
G75*
G02*
X0279479Y0260335I-000276J0000000D01*
G01*
X0277274Y0260335D01*
G75*
G02*
X0276998Y0260610I0000000J0000276D01*
G01*
X0276998Y0263681D01*
G75*
G02*
X0277274Y0263957I0000276J0000000D01*
G01*
X0279479Y0263957D01*
G75*
G02*
X0279754Y0263681I0000000J-000276D01*
G01*
G37*
G36*
G01*
X0273455Y0263681D02*
X0273455Y0260610D01*
G75*
G02*
X0273179Y0260335I-000276J0000000D01*
G01*
X0270975Y0260335D01*
G75*
G02*
X0270699Y0260610I0000000J0000276D01*
G01*
X0270699Y0263681D01*
G75*
G02*
X0270975Y0263957I0000276J0000000D01*
G01*
X0273179Y0263957D01*
G75*
G02*
X0273455Y0263681I0000000J-000276D01*
G01*
G37*
G36*
G01*
X0286408Y0249350D02*
X0283337Y0249350D01*
G75*
G02*
X0283061Y0249626I0000000J0000276D01*
G01*
X0283061Y0251831D01*
G75*
G02*
X0283337Y0252106I0000276J0000000D01*
G01*
X0286408Y0252106D01*
G75*
G02*
X0286683Y0251831I0000000J-000276D01*
G01*
X0286683Y0249626D01*
G75*
G02*
X0286408Y0249350I-000276J0000000D01*
G01*
G37*
G36*
G01*
X0286408Y0255650D02*
X0283337Y0255650D01*
G75*
G02*
X0283061Y0255925I0000000J0000276D01*
G01*
X0283061Y0258130D01*
G75*
G02*
X0283337Y0258405I0000276J0000000D01*
G01*
X0286408Y0258405D01*
G75*
G02*
X0286683Y0258130I0000000J-000276D01*
G01*
X0286683Y0255925D01*
G75*
G02*
X0286408Y0255650I-000276J0000000D01*
G01*
G37*
G36*
G01*
X0279754Y0269587D02*
X0279754Y0266516D01*
G75*
G02*
X0279479Y0266240I-000276J0000000D01*
G01*
X0277274Y0266240D01*
G75*
G02*
X0276998Y0266516I0000000J0000276D01*
G01*
X0276998Y0269587D01*
G75*
G02*
X0277274Y0269862I0000276J0000000D01*
G01*
X0279479Y0269862D01*
G75*
G02*
X0279754Y0269587I0000000J-000276D01*
G01*
G37*
G36*
G01*
X0273455Y0269587D02*
X0273455Y0266516D01*
G75*
G02*
X0273179Y0266240I-000276J0000000D01*
G01*
X0270975Y0266240D01*
G75*
G02*
X0270699Y0266516I0000000J0000276D01*
G01*
X0270699Y0269587D01*
G75*
G02*
X0270975Y0269862I0000276J0000000D01*
G01*
X0273179Y0269862D01*
G75*
G02*
X0273455Y0269587I0000000J-000276D01*
G01*
G37*
G36*
G01*
X0283494Y0280236D02*
X0283494Y0277520D01*
G75*
G02*
X0282589Y0276614I-000906J0000000D01*
G01*
X0277313Y0276614D01*
G75*
G02*
X0276408Y0277520I0000000J0000906D01*
G01*
X0276408Y0280236D01*
G75*
G02*
X0277313Y0281142I0000906J0000000D01*
G01*
X0282589Y0281142D01*
G75*
G02*
X0283494Y0280236I0000000J-000906D01*
G01*
G37*
G36*
G01*
X0283494Y0291654D02*
X0283494Y0288937D01*
G75*
G02*
X0282589Y0288031I-000906J0000000D01*
G01*
X0277313Y0288031D01*
G75*
G02*
X0276408Y0288937I0000000J0000906D01*
G01*
X0276408Y0291654D01*
G75*
G02*
X0277313Y0292559I0000906J0000000D01*
G01*
X0282589Y0292559D01*
G75*
G02*
X0283494Y0291654I0000000J-000906D01*
G01*
G37*
G36*
G01*
X0273652Y0280236D02*
X0273652Y0277520D01*
G75*
G02*
X0272746Y0276614I-000906J0000000D01*
G01*
X0267471Y0276614D01*
G75*
G02*
X0266565Y0277520I0000000J0000906D01*
G01*
X0266565Y0280236D01*
G75*
G02*
X0267471Y0281142I0000906J0000000D01*
G01*
X0272746Y0281142D01*
G75*
G02*
X0273652Y0280236I0000000J-000906D01*
G01*
G37*
G36*
G01*
X0273652Y0291654D02*
X0273652Y0288937D01*
G75*
G02*
X0272746Y0288031I-000906J0000000D01*
G01*
X0267471Y0288031D01*
G75*
G02*
X0266565Y0288937I0000000J0000906D01*
G01*
X0266565Y0291654D01*
G75*
G02*
X0267471Y0292559I0000906J0000000D01*
G01*
X0272746Y0292559D01*
G75*
G02*
X0273652Y0291654I0000000J-000906D01*
G01*
G37*
G36*
G01*
X0279971Y0302303D02*
X0282687Y0302303D01*
G75*
G02*
X0283593Y0301398I0000000J-000906D01*
G01*
X0283593Y0296122D01*
G75*
G02*
X0282687Y0295216I-000906J0000000D01*
G01*
X0279971Y0295216D01*
G75*
G02*
X0279065Y0296122I0000000J0000906D01*
G01*
X0279065Y0301398D01*
G75*
G02*
X0279971Y0302303I0000906J0000000D01*
G01*
G37*
G36*
G01*
X0268553Y0302303D02*
X0271270Y0302303D01*
G75*
G02*
X0272175Y0301398I0000000J-000906D01*
G01*
X0272175Y0296122D01*
G75*
G02*
X0271270Y0295216I-000906J0000000D01*
G01*
X0268553Y0295216D01*
G75*
G02*
X0267648Y0296122I0000000J0000906D01*
G01*
X0267648Y0301398D01*
G75*
G02*
X0268553Y0302303I0000906J0000000D01*
G01*
G37*
G36*
G01*
X0264203Y0286929D02*
X0264203Y0284213D01*
G75*
G02*
X0263297Y0283307I-000906J0000000D01*
G01*
X0258022Y0283307D01*
G75*
G02*
X0257116Y0284213I0000000J0000906D01*
G01*
X0257116Y0286929D01*
G75*
G02*
X0258022Y0287835I0000906J0000000D01*
G01*
X0263297Y0287835D01*
G75*
G02*
X0264203Y0286929I0000000J-000906D01*
G01*
G37*
G36*
G01*
X0264203Y0298346D02*
X0264203Y0295630D01*
G75*
G02*
X0263297Y0294724I-000906J0000000D01*
G01*
X0258022Y0294724D01*
G75*
G02*
X0257116Y0295630I0000000J0000906D01*
G01*
X0257116Y0298346D01*
G75*
G02*
X0258022Y0299252I0000906J0000000D01*
G01*
X0263297Y0299252D01*
G75*
G02*
X0264203Y0298346I0000000J-000906D01*
G01*
G37*
G36*
G01*
X0286078Y0261260D02*
X0284060Y0261260D01*
G75*
G02*
X0283199Y0262121I0000000J0000861D01*
G01*
X0283199Y0263843D01*
G75*
G02*
X0284060Y0264705I0000861J0000000D01*
G01*
X0286078Y0264705D01*
G75*
G02*
X0286939Y0263843I0000000J-000861D01*
G01*
X0286939Y0262121D01*
G75*
G02*
X0286078Y0261260I-000861J0000000D01*
G01*
G37*
G36*
G01*
X0286078Y0267461D02*
X0284060Y0267461D01*
G75*
G02*
X0283199Y0268322I0000000J0000861D01*
G01*
X0283199Y0270044D01*
G75*
G02*
X0284060Y0270905I0000861J0000000D01*
G01*
X0286078Y0270905D01*
G75*
G02*
X0286939Y0270044I0000000J-000861D01*
G01*
X0286939Y0268322D01*
G75*
G02*
X0286078Y0267461I-000861J0000000D01*
G01*
G37*
G36*
G01*
X0279116Y0255315D02*
X0276439Y0255315D01*
G75*
G02*
X0276104Y0255650I0000000J0000335D01*
G01*
X0276104Y0258327D01*
G75*
G02*
X0276439Y0258661I0000335J0000000D01*
G01*
X0279116Y0258661D01*
G75*
G02*
X0279451Y0258327I0000000J-000335D01*
G01*
X0279451Y0255650D01*
G75*
G02*
X0279116Y0255315I-000335J0000000D01*
G01*
G37*
G36*
G01*
X0279116Y0249094D02*
X0276439Y0249094D01*
G75*
G02*
X0276104Y0249429I0000000J0000335D01*
G01*
X0276104Y0252106D01*
G75*
G02*
X0276439Y0252441I0000335J0000000D01*
G01*
X0279116Y0252441D01*
G75*
G02*
X0279451Y0252106I0000000J-000335D01*
G01*
X0279451Y0249429D01*
G75*
G02*
X0279116Y0249094I-000335J0000000D01*
G01*
G37*
G36*
G01*
X0273809Y0249094D02*
X0271132Y0249094D01*
G75*
G02*
X0270797Y0249429I0000000J0000335D01*
G01*
X0270797Y0252106D01*
G75*
G02*
X0271132Y0252441I0000335J0000000D01*
G01*
X0273809Y0252441D01*
G75*
G02*
X0274144Y0252106I0000000J-000335D01*
G01*
X0274144Y0249429D01*
G75*
G02*
X0273809Y0249094I-000335J0000000D01*
G01*
G37*
G36*
G01*
X0273809Y0255315D02*
X0271132Y0255315D01*
G75*
G02*
X0270797Y0255650I0000000J0000335D01*
G01*
X0270797Y0258327D01*
G75*
G02*
X0271132Y0258661I0000335J0000000D01*
G01*
X0273809Y0258661D01*
G75*
G02*
X0274144Y0258327I0000000J-000335D01*
G01*
X0274144Y0255650D01*
G75*
G02*
X0273809Y0255315I-000335J0000000D01*
G01*
G37*
G36*
G01*
X0280010Y0274508D02*
X0280010Y0271831D01*
G75*
G02*
X0279675Y0271496I-000335J0000000D01*
G01*
X0276998Y0271496D01*
G75*
G02*
X0276664Y0271831I0000000J0000335D01*
G01*
X0276664Y0274508D01*
G75*
G02*
X0276998Y0274842I0000335J0000000D01*
G01*
X0279675Y0274842D01*
G75*
G02*
X0280010Y0274508I0000000J-000335D01*
G01*
G37*
G36*
G01*
X0273790Y0274508D02*
X0273790Y0271831D01*
G75*
G02*
X0273455Y0271496I-000335J0000000D01*
G01*
X0270778Y0271496D01*
G75*
G02*
X0270443Y0271831I0000000J0000335D01*
G01*
X0270443Y0274508D01*
G75*
G02*
X0270778Y0274842I0000335J0000000D01*
G01*
X0273455Y0274842D01*
G75*
G02*
X0273790Y0274508I0000000J-000335D01*
G01*
G37*
X0522077Y0155945D02*
%LPD*%
G01*
G36*
G01*
X0486368Y0223553D02*
X0486368Y0222195D01*
G75*
G02*
X0485788Y0221614I-000581J0000000D01*
G01*
X0484626Y0221614D01*
G75*
G02*
X0484046Y0222195I0000000J0000581D01*
G01*
X0484046Y0223553D01*
G75*
G02*
X0484626Y0224134I0000581J0000000D01*
G01*
X0485788Y0224134D01*
G75*
G02*
X0486368Y0223553I0000000J-000581D01*
G01*
G37*
G36*
G01*
X0482549Y0223553D02*
X0482549Y0222195D01*
G75*
G02*
X0481969Y0221614I-000581J0000000D01*
G01*
X0480807Y0221614D01*
G75*
G02*
X0480227Y0222195I0000000J0000581D01*
G01*
X0480227Y0223553D01*
G75*
G02*
X0480807Y0224134I0000581J0000000D01*
G01*
X0481969Y0224134D01*
G75*
G02*
X0482549Y0223553I0000000J-000581D01*
G01*
G37*
G36*
G01*
X0501792Y0164980D02*
X0500433Y0164980D01*
G75*
G02*
X0499853Y0165561I0000000J0000581D01*
G01*
X0499853Y0166723D01*
G75*
G02*
X0500433Y0167303I0000581J0000000D01*
G01*
X0501792Y0167303D01*
G75*
G02*
X0502372Y0166723I0000000J-000581D01*
G01*
X0502372Y0165561D01*
G75*
G02*
X0501792Y0164980I-000581J0000000D01*
G01*
G37*
G36*
G01*
X0501792Y0168799D02*
X0500433Y0168799D01*
G75*
G02*
X0499853Y0169380I0000000J0000581D01*
G01*
X0499853Y0170541D01*
G75*
G02*
X0500433Y0171122I0000581J0000000D01*
G01*
X0501792Y0171122D01*
G75*
G02*
X0502372Y0170541I0000000J-000581D01*
G01*
X0502372Y0169380D01*
G75*
G02*
X0501792Y0168799I-000581J0000000D01*
G01*
G37*
G36*
G01*
X0486595Y0175507D02*
X0486595Y0177525D01*
G75*
G02*
X0487456Y0178386I0000861J0000000D01*
G01*
X0489178Y0178386D01*
G75*
G02*
X0490040Y0177525I0000000J-000861D01*
G01*
X0490040Y0175507D01*
G75*
G02*
X0489178Y0174646I-000861J0000000D01*
G01*
X0487456Y0174646D01*
G75*
G02*
X0486595Y0175507I0000000J0000861D01*
G01*
G37*
G36*
G01*
X0492796Y0175507D02*
X0492796Y0177525D01*
G75*
G02*
X0493657Y0178386I0000861J0000000D01*
G01*
X0495379Y0178386D01*
G75*
G02*
X0496240Y0177525I0000000J-000861D01*
G01*
X0496240Y0175507D01*
G75*
G02*
X0495379Y0174646I-000861J0000000D01*
G01*
X0493657Y0174646D01*
G75*
G02*
X0492796Y0175507I0000000J0000861D01*
G01*
G37*
G36*
G01*
X0511624Y0221998D02*
X0511624Y0223356D01*
G75*
G02*
X0512205Y0223937I0000581J0000000D01*
G01*
X0513366Y0223937D01*
G75*
G02*
X0513947Y0223356I0000000J-000581D01*
G01*
X0513947Y0221998D01*
G75*
G02*
X0513366Y0221417I-000581J0000000D01*
G01*
X0512205Y0221417D01*
G75*
G02*
X0511624Y0221998I0000000J0000581D01*
G01*
G37*
G36*
G01*
X0515443Y0221998D02*
X0515443Y0223356D01*
G75*
G02*
X0516024Y0223937I0000581J0000000D01*
G01*
X0517185Y0223937D01*
G75*
G02*
X0517766Y0223356I0000000J-000581D01*
G01*
X0517766Y0221998D01*
G75*
G02*
X0517185Y0221417I-000581J0000000D01*
G01*
X0516024Y0221417D01*
G75*
G02*
X0515443Y0221998I0000000J0000581D01*
G01*
G37*
D160*
X0495797Y0170807D03*
X0488317Y0170807D03*
X0492057Y0162933D03*
G36*
G01*
X0511624Y0217815D02*
X0511624Y0219173D01*
G75*
G02*
X0512205Y0219754I0000581J0000000D01*
G01*
X0513366Y0219754D01*
G75*
G02*
X0513947Y0219173I0000000J-000581D01*
G01*
X0513947Y0217815D01*
G75*
G02*
X0513366Y0217234I-000581J0000000D01*
G01*
X0512205Y0217234D01*
G75*
G02*
X0511624Y0217815I0000000J0000581D01*
G01*
G37*
G36*
G01*
X0515443Y0217815D02*
X0515443Y0219173D01*
G75*
G02*
X0516024Y0219754I0000581J0000000D01*
G01*
X0517185Y0219754D01*
G75*
G02*
X0517766Y0219173I0000000J-000581D01*
G01*
X0517766Y0217815D01*
G75*
G02*
X0517185Y0217234I-000581J0000000D01*
G01*
X0516024Y0217234D01*
G75*
G02*
X0515443Y0217815I0000000J0000581D01*
G01*
G37*
G36*
G01*
X0487707Y0222195D02*
X0487707Y0223553D01*
G75*
G02*
X0488288Y0224134I0000581J0000000D01*
G01*
X0489449Y0224134D01*
G75*
G02*
X0490030Y0223553I0000000J-000581D01*
G01*
X0490030Y0222195D01*
G75*
G02*
X0489449Y0221614I-000581J0000000D01*
G01*
X0488288Y0221614D01*
G75*
G02*
X0487707Y0222195I0000000J0000581D01*
G01*
G37*
G36*
G01*
X0491526Y0222195D02*
X0491526Y0223553D01*
G75*
G02*
X0492107Y0224134I0000581J0000000D01*
G01*
X0493268Y0224134D01*
G75*
G02*
X0493849Y0223553I0000000J-000581D01*
G01*
X0493849Y0222195D01*
G75*
G02*
X0493268Y0221614I-000581J0000000D01*
G01*
X0492107Y0221614D01*
G75*
G02*
X0491526Y0222195I0000000J0000581D01*
G01*
G37*
G36*
G01*
X0475443Y0218435D02*
X0475443Y0217077D01*
G75*
G02*
X0474862Y0216496I-000581J0000000D01*
G01*
X0473701Y0216496D01*
G75*
G02*
X0473120Y0217077I0000000J0000581D01*
G01*
X0473120Y0218435D01*
G75*
G02*
X0473701Y0219016I0000581J0000000D01*
G01*
X0474862Y0219016D01*
G75*
G02*
X0475443Y0218435I0000000J-000581D01*
G01*
G37*
G36*
G01*
X0471624Y0218435D02*
X0471624Y0217077D01*
G75*
G02*
X0471044Y0216496I-000581J0000000D01*
G01*
X0469882Y0216496D01*
G75*
G02*
X0469301Y0217077I0000000J0000581D01*
G01*
X0469301Y0218435D01*
G75*
G02*
X0469882Y0219016I0000581J0000000D01*
G01*
X0471044Y0219016D01*
G75*
G02*
X0471624Y0218435I0000000J-000581D01*
G01*
G37*
G36*
G01*
X0502215Y0223553D02*
X0502215Y0222195D01*
G75*
G02*
X0501634Y0221614I-000581J0000000D01*
G01*
X0500473Y0221614D01*
G75*
G02*
X0499892Y0222195I0000000J0000581D01*
G01*
X0499892Y0223553D01*
G75*
G02*
X0500473Y0224134I0000581J0000000D01*
G01*
X0501634Y0224134D01*
G75*
G02*
X0502215Y0223553I0000000J-000581D01*
G01*
G37*
G36*
G01*
X0498396Y0223553D02*
X0498396Y0222195D01*
G75*
G02*
X0497815Y0221614I-000581J0000000D01*
G01*
X0496654Y0221614D01*
G75*
G02*
X0496073Y0222195I0000000J0000581D01*
G01*
X0496073Y0223553D01*
G75*
G02*
X0496654Y0224134I0000581J0000000D01*
G01*
X0497815Y0224134D01*
G75*
G02*
X0498396Y0223553I0000000J-000581D01*
G01*
G37*
G36*
G01*
X0475443Y0183789D02*
X0475443Y0182431D01*
G75*
G02*
X0474862Y0181851I-000581J0000000D01*
G01*
X0473701Y0181851D01*
G75*
G02*
X0473120Y0182431I0000000J0000581D01*
G01*
X0473120Y0183789D01*
G75*
G02*
X0473701Y0184370I0000581J0000000D01*
G01*
X0474862Y0184370D01*
G75*
G02*
X0475443Y0183789I0000000J-000581D01*
G01*
G37*
G36*
G01*
X0471624Y0183789D02*
X0471624Y0182431D01*
G75*
G02*
X0471044Y0181851I-000581J0000000D01*
G01*
X0469882Y0181851D01*
G75*
G02*
X0469301Y0182431I0000000J0000581D01*
G01*
X0469301Y0183789D01*
G75*
G02*
X0469882Y0184370I0000581J0000000D01*
G01*
X0471044Y0184370D01*
G75*
G02*
X0471624Y0183789I0000000J-000581D01*
G01*
G37*
D307*
X0482116Y0248228D03*
D158*
X0510463Y0247126D03*
X0498652Y0239252D03*
X0510463Y0231378D03*
D308*
X0506920Y0239252D03*
D307*
X0482116Y0230276D03*
G36*
G01*
X0501890Y0172756D02*
X0500532Y0172756D01*
G75*
G02*
X0499951Y0173337I0000000J0000581D01*
G01*
X0499951Y0174498D01*
G75*
G02*
X0500532Y0175079I0000581J0000000D01*
G01*
X0501890Y0175079D01*
G75*
G02*
X0502471Y0174498I0000000J-000581D01*
G01*
X0502471Y0173337D01*
G75*
G02*
X0501890Y0172756I-000581J0000000D01*
G01*
G37*
G36*
G01*
X0501890Y0176575D02*
X0500532Y0176575D01*
G75*
G02*
X0499951Y0177156I0000000J0000581D01*
G01*
X0499951Y0178317D01*
G75*
G02*
X0500532Y0178898I0000581J0000000D01*
G01*
X0501890Y0178898D01*
G75*
G02*
X0502471Y0178317I0000000J-000581D01*
G01*
X0502471Y0177156D01*
G75*
G02*
X0501890Y0176575I-000581J0000000D01*
G01*
G37*
G36*
G01*
X0515556Y0211260D02*
X0517574Y0211260D01*
G75*
G02*
X0518435Y0210399I0000000J-000861D01*
G01*
X0518435Y0208676D01*
G75*
G02*
X0517574Y0207815I-000861J0000000D01*
G01*
X0515556Y0207815D01*
G75*
G02*
X0514695Y0208676I0000000J0000861D01*
G01*
X0514695Y0210399D01*
G75*
G02*
X0515556Y0211260I0000861J0000000D01*
G01*
G37*
G36*
G01*
X0515556Y0205059D02*
X0517574Y0205059D01*
G75*
G02*
X0518435Y0204198I0000000J-000861D01*
G01*
X0518435Y0202476D01*
G75*
G02*
X0517574Y0201614I-000861J0000000D01*
G01*
X0515556Y0201614D01*
G75*
G02*
X0514695Y0202476I0000000J0000861D01*
G01*
X0514695Y0204198D01*
G75*
G02*
X0515556Y0205059I0000861J0000000D01*
G01*
G37*
G36*
G01*
X0511624Y0213632D02*
X0511624Y0214990D01*
G75*
G02*
X0512205Y0215571I0000581J0000000D01*
G01*
X0513366Y0215571D01*
G75*
G02*
X0513947Y0214990I0000000J-000581D01*
G01*
X0513947Y0213632D01*
G75*
G02*
X0513366Y0213051I-000581J0000000D01*
G01*
X0512205Y0213051D01*
G75*
G02*
X0511624Y0213632I0000000J0000581D01*
G01*
G37*
G36*
G01*
X0515443Y0213632D02*
X0515443Y0214990D01*
G75*
G02*
X0516024Y0215571I0000581J0000000D01*
G01*
X0517185Y0215571D01*
G75*
G02*
X0517766Y0214990I0000000J-000581D01*
G01*
X0517766Y0213632D01*
G75*
G02*
X0517185Y0213051I-000581J0000000D01*
G01*
X0516024Y0213051D01*
G75*
G02*
X0515443Y0213632I0000000J0000581D01*
G01*
G37*
G36*
G01*
X0516171Y0257741D02*
X0516171Y0255724D01*
G75*
G02*
X0515310Y0254862I-000861J0000000D01*
G01*
X0513588Y0254862D01*
G75*
G02*
X0512727Y0255724I0000000J0000861D01*
G01*
X0512727Y0257741D01*
G75*
G02*
X0513588Y0258602I0000861J0000000D01*
G01*
X0515310Y0258602D01*
G75*
G02*
X0516171Y0257741I0000000J-000861D01*
G01*
G37*
G36*
G01*
X0509971Y0257741D02*
X0509971Y0255724D01*
G75*
G02*
X0509109Y0254862I-000861J0000000D01*
G01*
X0507387Y0254862D01*
G75*
G02*
X0506526Y0255724I0000000J0000861D01*
G01*
X0506526Y0257741D01*
G75*
G02*
X0507387Y0258602I0000861J0000000D01*
G01*
X0509109Y0258602D01*
G75*
G02*
X0509971Y0257741I0000000J-000861D01*
G01*
G37*
G36*
G01*
X0517574Y0189902D02*
X0515556Y0189902D01*
G75*
G02*
X0514695Y0190763I0000000J0000861D01*
G01*
X0514695Y0192485D01*
G75*
G02*
X0515556Y0193347I0000861J0000000D01*
G01*
X0517574Y0193347D01*
G75*
G02*
X0518435Y0192485I0000000J-000861D01*
G01*
X0518435Y0190763D01*
G75*
G02*
X0517574Y0189902I-000861J0000000D01*
G01*
G37*
G36*
G01*
X0517574Y0196102D02*
X0515556Y0196102D01*
G75*
G02*
X0514695Y0196964I0000000J0000861D01*
G01*
X0514695Y0198686D01*
G75*
G02*
X0515556Y0199547I0000861J0000000D01*
G01*
X0517574Y0199547D01*
G75*
G02*
X0518435Y0198686I0000000J-000861D01*
G01*
X0518435Y0196964D01*
G75*
G02*
X0517574Y0196102I-000861J0000000D01*
G01*
G37*
G36*
G01*
X0513396Y0185581D02*
X0513396Y0186939D01*
G75*
G02*
X0513977Y0187520I0000581J0000000D01*
G01*
X0515138Y0187520D01*
G75*
G02*
X0515719Y0186939I0000000J-000581D01*
G01*
X0515719Y0185581D01*
G75*
G02*
X0515138Y0185000I-000581J0000000D01*
G01*
X0513977Y0185000D01*
G75*
G02*
X0513396Y0185581I0000000J0000581D01*
G01*
G37*
G36*
G01*
X0517215Y0185581D02*
X0517215Y0186939D01*
G75*
G02*
X0517796Y0187520I0000581J0000000D01*
G01*
X0518957Y0187520D01*
G75*
G02*
X0519538Y0186939I0000000J-000581D01*
G01*
X0519538Y0185581D01*
G75*
G02*
X0518957Y0185000I-000581J0000000D01*
G01*
X0517796Y0185000D01*
G75*
G02*
X0517215Y0185581I0000000J0000581D01*
G01*
G37*
G36*
G01*
X0500719Y0220020D02*
X0501703Y0220020D01*
G75*
G02*
X0502195Y0219528I0000000J-000492D01*
G01*
X0502195Y0214606D01*
G75*
G02*
X0501703Y0214114I-000492J0000000D01*
G01*
X0500719Y0214114D01*
G75*
G02*
X0500227Y0214606I0000000J0000492D01*
G01*
X0500227Y0219528D01*
G75*
G02*
X0500719Y0220020I0000492J0000000D01*
G01*
G37*
G36*
G01*
X0497569Y0220020D02*
X0498553Y0220020D01*
G75*
G02*
X0499046Y0219528I0000000J-000492D01*
G01*
X0499046Y0214606D01*
G75*
G02*
X0498553Y0214114I-000492J0000000D01*
G01*
X0497569Y0214114D01*
G75*
G02*
X0497077Y0214606I0000000J0000492D01*
G01*
X0497077Y0219528D01*
G75*
G02*
X0497569Y0220020I0000492J0000000D01*
G01*
G37*
G36*
G01*
X0494420Y0220020D02*
X0495404Y0220020D01*
G75*
G02*
X0495896Y0219528I0000000J-000492D01*
G01*
X0495896Y0214606D01*
G75*
G02*
X0495404Y0214114I-000492J0000000D01*
G01*
X0494420Y0214114D01*
G75*
G02*
X0493927Y0214606I0000000J0000492D01*
G01*
X0493927Y0219528D01*
G75*
G02*
X0494420Y0220020I0000492J0000000D01*
G01*
G37*
G36*
G01*
X0491270Y0220020D02*
X0492254Y0220020D01*
G75*
G02*
X0492746Y0219528I0000000J-000492D01*
G01*
X0492746Y0214606D01*
G75*
G02*
X0492254Y0214114I-000492J0000000D01*
G01*
X0491270Y0214114D01*
G75*
G02*
X0490778Y0214606I0000000J0000492D01*
G01*
X0490778Y0219528D01*
G75*
G02*
X0491270Y0220020I0000492J0000000D01*
G01*
G37*
G36*
G01*
X0488120Y0220020D02*
X0489105Y0220020D01*
G75*
G02*
X0489597Y0219528I0000000J-000492D01*
G01*
X0489597Y0214606D01*
G75*
G02*
X0489105Y0214114I-000492J0000000D01*
G01*
X0488120Y0214114D01*
G75*
G02*
X0487628Y0214606I0000000J0000492D01*
G01*
X0487628Y0219528D01*
G75*
G02*
X0488120Y0220020I0000492J0000000D01*
G01*
G37*
G36*
G01*
X0484971Y0220020D02*
X0485955Y0220020D01*
G75*
G02*
X0486447Y0219528I0000000J-000492D01*
G01*
X0486447Y0214606D01*
G75*
G02*
X0485955Y0214114I-000492J0000000D01*
G01*
X0484971Y0214114D01*
G75*
G02*
X0484479Y0214606I0000000J0000492D01*
G01*
X0484479Y0219528D01*
G75*
G02*
X0484971Y0220020I0000492J0000000D01*
G01*
G37*
G36*
G01*
X0481821Y0220020D02*
X0482805Y0220020D01*
G75*
G02*
X0483297Y0219528I0000000J-000492D01*
G01*
X0483297Y0214606D01*
G75*
G02*
X0482805Y0214114I-000492J0000000D01*
G01*
X0481821Y0214114D01*
G75*
G02*
X0481329Y0214606I0000000J0000492D01*
G01*
X0481329Y0219528D01*
G75*
G02*
X0481821Y0220020I0000492J0000000D01*
G01*
G37*
G36*
G01*
X0478671Y0220020D02*
X0479656Y0220020D01*
G75*
G02*
X0480148Y0219528I0000000J-000492D01*
G01*
X0480148Y0214606D01*
G75*
G02*
X0479656Y0214114I-000492J0000000D01*
G01*
X0478671Y0214114D01*
G75*
G02*
X0478179Y0214606I0000000J0000492D01*
G01*
X0478179Y0219528D01*
G75*
G02*
X0478671Y0220020I0000492J0000000D01*
G01*
G37*
G36*
G01*
X0471290Y0212638D02*
X0476211Y0212638D01*
G75*
G02*
X0476703Y0212146I0000000J-000492D01*
G01*
X0476703Y0211162D01*
G75*
G02*
X0476211Y0210669I-000492J0000000D01*
G01*
X0471290Y0210669D01*
G75*
G02*
X0470797Y0211162I0000000J0000492D01*
G01*
X0470797Y0212146D01*
G75*
G02*
X0471290Y0212638I0000492J0000000D01*
G01*
G37*
G36*
G01*
X0471290Y0209488D02*
X0476211Y0209488D01*
G75*
G02*
X0476703Y0208996I0000000J-000492D01*
G01*
X0476703Y0208012D01*
G75*
G02*
X0476211Y0207520I-000492J0000000D01*
G01*
X0471290Y0207520D01*
G75*
G02*
X0470797Y0208012I0000000J0000492D01*
G01*
X0470797Y0208996D01*
G75*
G02*
X0471290Y0209488I0000492J0000000D01*
G01*
G37*
G36*
G01*
X0471290Y0206339D02*
X0476211Y0206339D01*
G75*
G02*
X0476703Y0205847I0000000J-000492D01*
G01*
X0476703Y0204862D01*
G75*
G02*
X0476211Y0204370I-000492J0000000D01*
G01*
X0471290Y0204370D01*
G75*
G02*
X0470797Y0204862I0000000J0000492D01*
G01*
X0470797Y0205847D01*
G75*
G02*
X0471290Y0206339I0000492J0000000D01*
G01*
G37*
G36*
G01*
X0471290Y0203189D02*
X0476211Y0203189D01*
G75*
G02*
X0476703Y0202697I0000000J-000492D01*
G01*
X0476703Y0201713D01*
G75*
G02*
X0476211Y0201221I-000492J0000000D01*
G01*
X0471290Y0201221D01*
G75*
G02*
X0470797Y0201713I0000000J0000492D01*
G01*
X0470797Y0202697D01*
G75*
G02*
X0471290Y0203189I0000492J0000000D01*
G01*
G37*
G36*
G01*
X0471290Y0200039D02*
X0476211Y0200039D01*
G75*
G02*
X0476703Y0199547I0000000J-000492D01*
G01*
X0476703Y0198563D01*
G75*
G02*
X0476211Y0198071I-000492J0000000D01*
G01*
X0471290Y0198071D01*
G75*
G02*
X0470797Y0198563I0000000J0000492D01*
G01*
X0470797Y0199547D01*
G75*
G02*
X0471290Y0200039I0000492J0000000D01*
G01*
G37*
G36*
G01*
X0471290Y0196890D02*
X0476211Y0196890D01*
G75*
G02*
X0476703Y0196398I0000000J-000492D01*
G01*
X0476703Y0195414D01*
G75*
G02*
X0476211Y0194921I-000492J0000000D01*
G01*
X0471290Y0194921D01*
G75*
G02*
X0470797Y0195414I0000000J0000492D01*
G01*
X0470797Y0196398D01*
G75*
G02*
X0471290Y0196890I0000492J0000000D01*
G01*
G37*
G36*
G01*
X0471290Y0193740D02*
X0476211Y0193740D01*
G75*
G02*
X0476703Y0193248I0000000J-000492D01*
G01*
X0476703Y0192264D01*
G75*
G02*
X0476211Y0191772I-000492J0000000D01*
G01*
X0471290Y0191772D01*
G75*
G02*
X0470797Y0192264I0000000J0000492D01*
G01*
X0470797Y0193248D01*
G75*
G02*
X0471290Y0193740I0000492J0000000D01*
G01*
G37*
G36*
G01*
X0471290Y0190591D02*
X0476211Y0190591D01*
G75*
G02*
X0476703Y0190099I0000000J-000492D01*
G01*
X0476703Y0189114D01*
G75*
G02*
X0476211Y0188622I-000492J0000000D01*
G01*
X0471290Y0188622D01*
G75*
G02*
X0470797Y0189114I0000000J0000492D01*
G01*
X0470797Y0190099D01*
G75*
G02*
X0471290Y0190591I0000492J0000000D01*
G01*
G37*
G36*
G01*
X0478671Y0187146D02*
X0479656Y0187146D01*
G75*
G02*
X0480148Y0186654I0000000J-000492D01*
G01*
X0480148Y0181732D01*
G75*
G02*
X0479656Y0181240I-000492J0000000D01*
G01*
X0478671Y0181240D01*
G75*
G02*
X0478179Y0181732I0000000J0000492D01*
G01*
X0478179Y0186654D01*
G75*
G02*
X0478671Y0187146I0000492J0000000D01*
G01*
G37*
G36*
G01*
X0481821Y0187146D02*
X0482805Y0187146D01*
G75*
G02*
X0483297Y0186654I0000000J-000492D01*
G01*
X0483297Y0181732D01*
G75*
G02*
X0482805Y0181240I-000492J0000000D01*
G01*
X0481821Y0181240D01*
G75*
G02*
X0481329Y0181732I0000000J0000492D01*
G01*
X0481329Y0186654D01*
G75*
G02*
X0481821Y0187146I0000492J0000000D01*
G01*
G37*
G36*
G01*
X0484971Y0187146D02*
X0485955Y0187146D01*
G75*
G02*
X0486447Y0186654I0000000J-000492D01*
G01*
X0486447Y0181732D01*
G75*
G02*
X0485955Y0181240I-000492J0000000D01*
G01*
X0484971Y0181240D01*
G75*
G02*
X0484479Y0181732I0000000J0000492D01*
G01*
X0484479Y0186654D01*
G75*
G02*
X0484971Y0187146I0000492J0000000D01*
G01*
G37*
G36*
G01*
X0488120Y0187146D02*
X0489105Y0187146D01*
G75*
G02*
X0489597Y0186654I0000000J-000492D01*
G01*
X0489597Y0181732D01*
G75*
G02*
X0489105Y0181240I-000492J0000000D01*
G01*
X0488120Y0181240D01*
G75*
G02*
X0487628Y0181732I0000000J0000492D01*
G01*
X0487628Y0186654D01*
G75*
G02*
X0488120Y0187146I0000492J0000000D01*
G01*
G37*
G36*
G01*
X0491270Y0187146D02*
X0492254Y0187146D01*
G75*
G02*
X0492746Y0186654I0000000J-000492D01*
G01*
X0492746Y0181732D01*
G75*
G02*
X0492254Y0181240I-000492J0000000D01*
G01*
X0491270Y0181240D01*
G75*
G02*
X0490778Y0181732I0000000J0000492D01*
G01*
X0490778Y0186654D01*
G75*
G02*
X0491270Y0187146I0000492J0000000D01*
G01*
G37*
G36*
G01*
X0494420Y0187146D02*
X0495404Y0187146D01*
G75*
G02*
X0495896Y0186654I0000000J-000492D01*
G01*
X0495896Y0181732D01*
G75*
G02*
X0495404Y0181240I-000492J0000000D01*
G01*
X0494420Y0181240D01*
G75*
G02*
X0493927Y0181732I0000000J0000492D01*
G01*
X0493927Y0186654D01*
G75*
G02*
X0494420Y0187146I0000492J0000000D01*
G01*
G37*
G36*
G01*
X0497569Y0187146D02*
X0498553Y0187146D01*
G75*
G02*
X0499046Y0186654I0000000J-000492D01*
G01*
X0499046Y0181732D01*
G75*
G02*
X0498553Y0181240I-000492J0000000D01*
G01*
X0497569Y0181240D01*
G75*
G02*
X0497077Y0181732I0000000J0000492D01*
G01*
X0497077Y0186654D01*
G75*
G02*
X0497569Y0187146I0000492J0000000D01*
G01*
G37*
G36*
G01*
X0500719Y0187146D02*
X0501703Y0187146D01*
G75*
G02*
X0502195Y0186654I0000000J-000492D01*
G01*
X0502195Y0181732D01*
G75*
G02*
X0501703Y0181240I-000492J0000000D01*
G01*
X0500719Y0181240D01*
G75*
G02*
X0500227Y0181732I0000000J0000492D01*
G01*
X0500227Y0186654D01*
G75*
G02*
X0500719Y0187146I0000492J0000000D01*
G01*
G37*
G36*
G01*
X0504164Y0190591D02*
X0509085Y0190591D01*
G75*
G02*
X0509577Y0190099I0000000J-000492D01*
G01*
X0509577Y0189114D01*
G75*
G02*
X0509085Y0188622I-000492J0000000D01*
G01*
X0504164Y0188622D01*
G75*
G02*
X0503671Y0189114I0000000J0000492D01*
G01*
X0503671Y0190099D01*
G75*
G02*
X0504164Y0190591I0000492J0000000D01*
G01*
G37*
G36*
G01*
X0504164Y0193740D02*
X0509085Y0193740D01*
G75*
G02*
X0509577Y0193248I0000000J-000492D01*
G01*
X0509577Y0192264D01*
G75*
G02*
X0509085Y0191772I-000492J0000000D01*
G01*
X0504164Y0191772D01*
G75*
G02*
X0503671Y0192264I0000000J0000492D01*
G01*
X0503671Y0193248D01*
G75*
G02*
X0504164Y0193740I0000492J0000000D01*
G01*
G37*
G36*
G01*
X0504164Y0196890D02*
X0509085Y0196890D01*
G75*
G02*
X0509577Y0196398I0000000J-000492D01*
G01*
X0509577Y0195414D01*
G75*
G02*
X0509085Y0194921I-000492J0000000D01*
G01*
X0504164Y0194921D01*
G75*
G02*
X0503671Y0195414I0000000J0000492D01*
G01*
X0503671Y0196398D01*
G75*
G02*
X0504164Y0196890I0000492J0000000D01*
G01*
G37*
G36*
G01*
X0504164Y0200039D02*
X0509085Y0200039D01*
G75*
G02*
X0509577Y0199547I0000000J-000492D01*
G01*
X0509577Y0198563D01*
G75*
G02*
X0509085Y0198071I-000492J0000000D01*
G01*
X0504164Y0198071D01*
G75*
G02*
X0503671Y0198563I0000000J0000492D01*
G01*
X0503671Y0199547D01*
G75*
G02*
X0504164Y0200039I0000492J0000000D01*
G01*
G37*
G36*
G01*
X0504164Y0203189D02*
X0509085Y0203189D01*
G75*
G02*
X0509577Y0202697I0000000J-000492D01*
G01*
X0509577Y0201713D01*
G75*
G02*
X0509085Y0201221I-000492J0000000D01*
G01*
X0504164Y0201221D01*
G75*
G02*
X0503671Y0201713I0000000J0000492D01*
G01*
X0503671Y0202697D01*
G75*
G02*
X0504164Y0203189I0000492J0000000D01*
G01*
G37*
G36*
G01*
X0504164Y0206339D02*
X0509085Y0206339D01*
G75*
G02*
X0509577Y0205847I0000000J-000492D01*
G01*
X0509577Y0204862D01*
G75*
G02*
X0509085Y0204370I-000492J0000000D01*
G01*
X0504164Y0204370D01*
G75*
G02*
X0503671Y0204862I0000000J0000492D01*
G01*
X0503671Y0205847D01*
G75*
G02*
X0504164Y0206339I0000492J0000000D01*
G01*
G37*
G36*
G01*
X0504164Y0209488D02*
X0509085Y0209488D01*
G75*
G02*
X0509577Y0208996I0000000J-000492D01*
G01*
X0509577Y0208012D01*
G75*
G02*
X0509085Y0207520I-000492J0000000D01*
G01*
X0504164Y0207520D01*
G75*
G02*
X0503671Y0208012I0000000J0000492D01*
G01*
X0503671Y0208996D01*
G75*
G02*
X0504164Y0209488I0000492J0000000D01*
G01*
G37*
G36*
G01*
X0504164Y0212638D02*
X0509085Y0212638D01*
G75*
G02*
X0509577Y0212146I0000000J-000492D01*
G01*
X0509577Y0211162D01*
G75*
G02*
X0509085Y0210669I-000492J0000000D01*
G01*
X0504164Y0210669D01*
G75*
G02*
X0503671Y0211162I0000000J0000492D01*
G01*
X0503671Y0212146D01*
G75*
G02*
X0504164Y0212638I0000492J0000000D01*
G01*
G37*
G36*
G01*
X0482618Y0178012D02*
X0483977Y0178012D01*
G75*
G02*
X0484557Y0177431I0000000J-000581D01*
G01*
X0484557Y0176270D01*
G75*
G02*
X0483977Y0175689I-000581J0000000D01*
G01*
X0482618Y0175689D01*
G75*
G02*
X0482038Y0176270I0000000J0000581D01*
G01*
X0482038Y0177431D01*
G75*
G02*
X0482618Y0178012I0000581J0000000D01*
G01*
G37*
G36*
G01*
X0482618Y0174193D02*
X0483977Y0174193D01*
G75*
G02*
X0484557Y0173612I0000000J-000581D01*
G01*
X0484557Y0172451D01*
G75*
G02*
X0483977Y0171870I-000581J0000000D01*
G01*
X0482618Y0171870D01*
G75*
G02*
X0482038Y0172451I0000000J0000581D01*
G01*
X0482038Y0173612D01*
G75*
G02*
X0482618Y0174193I0000581J0000000D01*
G01*
G37*
G36*
G01*
X0506014Y0185089D02*
X0506014Y0186447D01*
G75*
G02*
X0506595Y0187028I0000581J0000000D01*
G01*
X0507756Y0187028D01*
G75*
G02*
X0508337Y0186447I0000000J-000581D01*
G01*
X0508337Y0185089D01*
G75*
G02*
X0507756Y0184508I-000581J0000000D01*
G01*
X0506595Y0184508D01*
G75*
G02*
X0506014Y0185089I0000000J0000581D01*
G01*
G37*
G36*
G01*
X0509833Y0185089D02*
X0509833Y0186447D01*
G75*
G02*
X0510414Y0187028I0000581J0000000D01*
G01*
X0511575Y0187028D01*
G75*
G02*
X0512156Y0186447I0000000J-000581D01*
G01*
X0512156Y0185089D01*
G75*
G02*
X0511575Y0184508I-000581J0000000D01*
G01*
X0510414Y0184508D01*
G75*
G02*
X0509833Y0185089I0000000J0000581D01*
G01*
G37*
G36*
G01*
X0483977Y0161445D02*
X0482618Y0161445D01*
G75*
G02*
X0482038Y0162026I0000000J0000581D01*
G01*
X0482038Y0163187D01*
G75*
G02*
X0482618Y0163768I0000581J0000000D01*
G01*
X0483977Y0163768D01*
G75*
G02*
X0484557Y0163187I0000000J-000581D01*
G01*
X0484557Y0162026D01*
G75*
G02*
X0483977Y0161445I-000581J0000000D01*
G01*
G37*
G36*
G01*
X0483977Y0165264D02*
X0482618Y0165264D01*
G75*
G02*
X0482038Y0165845I0000000J0000581D01*
G01*
X0482038Y0167006D01*
G75*
G02*
X0482618Y0167587I0000581J0000000D01*
G01*
X0483977Y0167587D01*
G75*
G02*
X0484557Y0167006I0000000J-000581D01*
G01*
X0484557Y0165845D01*
G75*
G02*
X0483977Y0165264I-000581J0000000D01*
G01*
G37*
D156*
X0478376Y0162933D03*
X0478376Y0170414D03*
X0470502Y0166673D03*
G36*
G01*
X0504144Y0221998D02*
X0504144Y0223356D01*
G75*
G02*
X0504725Y0223937I0000581J0000000D01*
G01*
X0505886Y0223937D01*
G75*
G02*
X0506467Y0223356I0000000J-000581D01*
G01*
X0506467Y0221998D01*
G75*
G02*
X0505886Y0221417I-000581J0000000D01*
G01*
X0504725Y0221417D01*
G75*
G02*
X0504144Y0221998I0000000J0000581D01*
G01*
G37*
G36*
G01*
X0507963Y0221998D02*
X0507963Y0223356D01*
G75*
G02*
X0508544Y0223937I0000581J0000000D01*
G01*
X0509705Y0223937D01*
G75*
G02*
X0510286Y0223356I0000000J-000581D01*
G01*
X0510286Y0221998D01*
G75*
G02*
X0509705Y0221417I-000581J0000000D01*
G01*
X0508544Y0221417D01*
G75*
G02*
X0507963Y0221998I0000000J0000581D01*
G01*
G37*
G36*
G01*
X0469105Y0175871D02*
X0469105Y0177889D01*
G75*
G02*
X0469966Y0178750I0000861J0000000D01*
G01*
X0471688Y0178750D01*
G75*
G02*
X0472549Y0177889I0000000J-000861D01*
G01*
X0472549Y0175871D01*
G75*
G02*
X0471688Y0175010I-000861J0000000D01*
G01*
X0469966Y0175010D01*
G75*
G02*
X0469105Y0175871I0000000J0000861D01*
G01*
G37*
G36*
G01*
X0475305Y0175871D02*
X0475305Y0177889D01*
G75*
G02*
X0476167Y0178750I0000861J0000000D01*
G01*
X0477889Y0178750D01*
G75*
G02*
X0478750Y0177889I0000000J-000861D01*
G01*
X0478750Y0175871D01*
G75*
G02*
X0477889Y0175010I-000861J0000000D01*
G01*
X0476167Y0175010D01*
G75*
G02*
X0475305Y0175871I0000000J0000861D01*
G01*
G37*
D171*
X0511250Y0160118D03*
X0515250Y0180118D03*
X0507250Y0180118D03*
D168*
X0513750Y0165118D03*
X0508750Y0165118D03*
X0513750Y0170118D03*
X0508750Y0170118D03*
X0513750Y0175118D03*
X0508750Y0175118D03*
D309*
X0472372Y0249606D03*
D310*
X0472372Y0239606D03*
X0472372Y0229606D03*
X0443632Y0189803D02*
G01*
G75*
D408*
X0320010Y0171713D02*
D03*
X0312923Y0171713D02*
D03*
X0312923Y0181752D02*
D03*
X0320010Y0181752D02*
D03*
X0431821Y0122972D02*
D03*
X0438908Y0122972D02*
D03*
X0438908Y0133012D02*
D03*
X0431821Y0133012D02*
D03*
X0431821Y0116870D02*
D03*
X0438908Y0116870D02*
D03*
X0438908Y0106830D02*
D03*
X0431821Y0106830D02*
D03*
D409*
X0320010Y0175157D02*
D03*
X0320010Y0178307D02*
D03*
X0312923Y0178307D02*
D03*
X0312923Y0175157D02*
D03*
X0438908Y0129567D02*
D03*
X0438908Y0126417D02*
D03*
X0431821Y0126417D02*
D03*
X0431821Y0129567D02*
D03*
X0431821Y0113425D02*
D03*
X0431821Y0110275D02*
D03*
X0438908Y0110275D02*
D03*
X0438908Y0113425D02*
D03*
D410*
X0324222Y0174709D02*
D03*
X0324222Y0172150D02*
D03*
X0324222Y0169590D02*
D03*
X0331702Y0174709D02*
D03*
X0331702Y0169590D02*
D03*
X0331702Y0172150D02*
D03*
X0331702Y0179334D02*
D03*
X0331702Y0184453D02*
D03*
X0324222Y0179334D02*
D03*
X0324222Y0181894D02*
D03*
X0324222Y0184453D02*
D03*
X0331702Y0181894D02*
D03*
D205*
X0391430Y0075433D02*
D03*
X0391430Y0077401D02*
D03*
X0391430Y0079370D02*
D03*
X0391430Y0081338D02*
D03*
X0391430Y0083307D02*
D03*
X0391430Y0085275D02*
D03*
X0391430Y0087244D02*
D03*
X0391430Y0089212D02*
D03*
X0391430Y0091181D02*
D03*
X0391430Y0095118D02*
D03*
X0391430Y0097087D02*
D03*
X0391430Y0099055D02*
D03*
X0391430Y0101024D02*
D03*
X0391430Y0102992D02*
D03*
X0391430Y0104961D02*
D03*
X0391430Y0106929D02*
D03*
X0391430Y0108898D02*
D03*
X0391430Y0110866D02*
D03*
X0391430Y0112835D02*
D03*
X0391430Y0114803D02*
D03*
X0391430Y0116771D02*
D03*
X0391430Y0118740D02*
D03*
X0391430Y0120708D02*
D03*
X0391430Y0122677D02*
D03*
X0330406Y0122677D02*
D03*
X0330406Y0120708D02*
D03*
X0330406Y0118740D02*
D03*
X0330406Y0116771D02*
D03*
X0330406Y0114803D02*
D03*
X0330406Y0112835D02*
D03*
X0330406Y0110866D02*
D03*
X0330406Y0108898D02*
D03*
X0330406Y0106929D02*
D03*
X0330406Y0104961D02*
D03*
X0330406Y0102992D02*
D03*
X0330406Y0101024D02*
D03*
X0330406Y0099055D02*
D03*
X0330406Y0097087D02*
D03*
X0330406Y0095118D02*
D03*
X0330406Y0093150D02*
D03*
X0330406Y0091181D02*
D03*
X0330406Y0089212D02*
D03*
X0330406Y0087244D02*
D03*
X0330406Y0085275D02*
D03*
X0330406Y0083307D02*
D03*
X0330406Y0081338D02*
D03*
X0330406Y0079370D02*
D03*
X0330406Y0075433D02*
D03*
X0391430Y0093150D02*
D03*
X0330406Y0077401D02*
D03*
D206*
X0384540Y0129567D02*
D03*
X0380603Y0129567D02*
D03*
X0378634Y0129567D02*
D03*
X0376666Y0129567D02*
D03*
X0374697Y0129567D02*
D03*
X0372729Y0129567D02*
D03*
X0370760Y0129567D02*
D03*
X0368792Y0129567D02*
D03*
X0366823Y0129567D02*
D03*
X0364855Y0129567D02*
D03*
X0362886Y0129567D02*
D03*
X0360918Y0129567D02*
D03*
X0358949Y0129567D02*
D03*
X0356981Y0129567D02*
D03*
X0355012Y0129567D02*
D03*
X0353044Y0129567D02*
D03*
X0351075Y0129567D02*
D03*
X0349107Y0129567D02*
D03*
X0347138Y0129567D02*
D03*
X0345170Y0129567D02*
D03*
X0343201Y0129567D02*
D03*
X0341233Y0129567D02*
D03*
X0339264Y0129567D02*
D03*
X0337296Y0129567D02*
D03*
X0337296Y0068543D02*
D03*
X0339264Y0068543D02*
D03*
X0341233Y0068543D02*
D03*
X0343201Y0068543D02*
D03*
X0345170Y0068543D02*
D03*
X0347138Y0068543D02*
D03*
X0349107Y0068543D02*
D03*
X0351075Y0068543D02*
D03*
X0353044Y0068543D02*
D03*
X0355012Y0068543D02*
D03*
X0356981Y0068543D02*
D03*
X0358949Y0068543D02*
D03*
X0360918Y0068543D02*
D03*
X0362886Y0068543D02*
D03*
X0364855Y0068543D02*
D03*
X0366823Y0068543D02*
D03*
X0368792Y0068543D02*
D03*
X0370760Y0068543D02*
D03*
X0372729Y0068543D02*
D03*
X0374697Y0068543D02*
D03*
X0376666Y0068543D02*
D03*
X0378634Y0068543D02*
D03*
X0380603Y0068543D02*
D03*
X0382571Y0068543D02*
D03*
X0384540Y0068543D02*
D03*
X0382571Y0129567D02*
D03*
D207*
X0387923Y0146496D02*
D03*
X0359971Y0146496D02*
D03*
X0415876Y0146496D02*
D03*
X0410364Y0151614D02*
D03*
X0382411Y0141378D02*
D03*
X0382411Y0143937D02*
D03*
X0382411Y0146496D02*
D03*
X0382411Y0149055D02*
D03*
X0382411Y0151614D02*
D03*
X0382411Y0154173D02*
D03*
X0382411Y0156732D02*
D03*
X0359971Y0141378D02*
D03*
X0359971Y0143937D02*
D03*
X0359971Y0149055D02*
D03*
X0359971Y0151614D02*
D03*
X0359971Y0154173D02*
D03*
X0359971Y0156732D02*
D03*
X0438317Y0141378D02*
D03*
X0438317Y0143937D02*
D03*
X0438317Y0146496D02*
D03*
X0438317Y0149055D02*
D03*
X0438317Y0151614D02*
D03*
X0438317Y0154173D02*
D03*
X0438317Y0156732D02*
D03*
X0415876Y0141378D02*
D03*
X0415876Y0143937D02*
D03*
X0415876Y0149055D02*
D03*
X0415876Y0151614D02*
D03*
X0415876Y0154173D02*
D03*
X0415876Y0156732D02*
D03*
X0410364Y0141378D02*
D03*
X0410364Y0143937D02*
D03*
X0410364Y0146496D02*
D03*
X0410364Y0149055D02*
D03*
X0410364Y0154173D02*
D03*
X0410364Y0156732D02*
D03*
X0387923Y0141378D02*
D03*
X0387923Y0143937D02*
D03*
X0387923Y0149055D02*
D03*
X0387923Y0151614D02*
D03*
X0387923Y0154173D02*
D03*
X0387923Y0156732D02*
D03*
X0332018Y0156732D02*
D03*
X0332018Y0154173D02*
D03*
X0332018Y0151614D02*
D03*
X0332018Y0149055D02*
D03*
X0332018Y0146496D02*
D03*
X0332018Y0143937D02*
D03*
X0332018Y0141378D02*
D03*
X0354459Y0156732D02*
D03*
X0354459Y0154173D02*
D03*
X0354459Y0151614D02*
D03*
X0354459Y0149055D02*
D03*
X0354459Y0146496D02*
D03*
X0354459Y0143937D02*
D03*
X0354459Y0141378D02*
D03*
D208*
X0333514Y0055610D02*
D03*
X0333514Y0060610D02*
D03*
X0338514Y0055610D02*
D03*
X0338514Y0060610D02*
D03*
X0343514Y0055610D02*
D03*
X0343514Y0060610D02*
D03*
D411*
X0319223Y0054370D02*
D03*
X0315482Y0054370D02*
D03*
X0322963Y0054370D02*
D03*
X0322963Y0063819D02*
D03*
X0319223Y0063819D02*
D03*
X0315482Y0063819D02*
D03*
D412*
X0317773Y0075630D02*
D03*
X0317773Y0070905D02*
D03*
X0319242Y0085177D02*
D03*
X0405782Y0058392D02*
D03*
X0392470Y0134258D02*
D03*
X0321709Y0075630D02*
D03*
X0315304Y0085177D02*
D03*
X0320604Y0122161D02*
D03*
X0316667Y0122161D02*
D03*
X0320604Y0131216D02*
D03*
X0316667Y0131216D02*
D03*
X0321709Y0070905D02*
D03*
X0401845Y0058392D02*
D03*
X0408922Y0075107D02*
D03*
X0404985Y0075107D02*
D03*
X0388533Y0134258D02*
D03*
X0388514Y0129962D02*
D03*
X0392451Y0129962D02*
D03*
D211*
X0315316Y0093812D02*
D03*
X0315316Y0095780D02*
D03*
X0321615Y0091843D02*
D03*
X0321615Y0093812D02*
D03*
X0321615Y0089875D02*
D03*
X0321615Y0095780D02*
D03*
X0315316Y0089875D02*
D03*
X0315316Y0091843D02*
D03*
D212*
X0317481Y0095977D02*
D03*
X0319450Y0095977D02*
D03*
X0319450Y0089678D02*
D03*
X0317481Y0089678D02*
D03*
D413*
X0320221Y0100827D02*
D03*
X0320221Y0117362D02*
D03*
D414*
X0348750Y0173268D02*
D03*
X0339301Y0173268D02*
D03*
X0344026Y0173268D02*
D03*
X0353474Y0173268D02*
D03*
X0339301Y0184685D02*
D03*
X0348750Y0184685D02*
D03*
X0344026Y0184685D02*
D03*
X0353474Y0184685D02*
D03*
X0359684Y0166288D02*
D03*
X0359684Y0162351D02*
D03*
X0353474Y0180748D02*
D03*
D03*
X0353474Y0176811D02*
D03*
X0348750Y0180748D02*
D03*
X0348750Y0176811D02*
D03*
X0353474Y0169331D02*
D03*
X0344026Y0180748D02*
D03*
X0344026Y0176811D02*
D03*
X0348750Y0169331D02*
D03*
X0344026Y0169331D02*
D03*
X0339301Y0180748D02*
D03*
X0339301Y0176811D02*
D03*
X0339301Y0180748D02*
D03*
X0339301Y0169331D02*
D03*
X0348750Y0180748D02*
D03*
X0344026Y0180748D02*
D03*
X0439498Y0178386D02*
D03*
X0439498Y0182323D02*
D03*
X0414892Y0180748D02*
D03*
X0414892Y0184685D02*
D03*
X0400719Y0180748D02*
D03*
X0400719Y0184685D02*
D03*
X0381821Y0176811D02*
D03*
X0381821Y0180748D02*
D03*
X0381821Y0184685D02*
D03*
X0381821Y0180748D02*
D03*
X0367648Y0176811D02*
D03*
X0367648Y0180748D02*
D03*
X0439498Y0161653D02*
D03*
X0439498Y0165590D02*
D03*
X0433789Y0180748D02*
D03*
X0433789Y0176811D02*
D03*
X0429065Y0180748D02*
D03*
X0429065Y0176811D02*
D03*
X0424341Y0180748D02*
D03*
X0424341Y0176811D02*
D03*
X0419616Y0180748D02*
D03*
X0419616Y0176811D02*
D03*
X0433789Y0180748D02*
D03*
X0433789Y0184685D02*
D03*
X0429065Y0180748D02*
D03*
X0429065Y0184685D02*
D03*
X0424341Y0180748D02*
D03*
X0424341Y0184685D02*
D03*
X0419616Y0180748D02*
D03*
X0419616Y0184685D02*
D03*
X0414892Y0180748D02*
D03*
X0414892Y0176811D02*
D03*
X0410167Y0180748D02*
D03*
X0410167Y0176811D02*
D03*
X0405443Y0180748D02*
D03*
X0405443Y0176811D02*
D03*
X0400719Y0180748D02*
D03*
X0400719Y0176811D02*
D03*
X0410167Y0180748D02*
D03*
X0410167Y0184685D02*
D03*
X0405443Y0180748D02*
D03*
X0405443Y0184685D02*
D03*
X0395994Y0176811D02*
D03*
X0395994Y0180748D02*
D03*
X0391270Y0176811D02*
D03*
X0391270Y0180748D02*
D03*
X0386545Y0176811D02*
D03*
X0386545Y0180748D02*
D03*
X0395994Y0184685D02*
D03*
X0395994Y0180748D02*
D03*
X0391270Y0184685D02*
D03*
X0391270Y0180748D02*
D03*
X0386545Y0184685D02*
D03*
X0386545Y0180748D02*
D03*
X0377096Y0176811D02*
D03*
X0377096Y0180748D02*
D03*
X0372372Y0176811D02*
D03*
X0372372Y0180748D02*
D03*
X0362923Y0176811D02*
D03*
X0362923Y0180748D02*
D03*
X0377096Y0184685D02*
D03*
X0377096Y0180748D02*
D03*
X0372372Y0184685D02*
D03*
X0372372Y0180748D02*
D03*
X0367648Y0184685D02*
D03*
X0367648Y0180748D02*
D03*
X0362923Y0184685D02*
D03*
X0362923Y0180748D02*
D03*
X0439498Y0170709D02*
D03*
X0439498Y0174646D02*
D03*
D415*
X0374734Y0167756D02*
D03*
X0393632Y0167756D02*
D03*
X0412530Y0167756D02*
D03*
X0431427Y0167756D02*
D03*
X0403081Y0164016D02*
D03*
X0403081Y0167756D02*
D03*
X0403081Y0171496D02*
D03*
X0412530Y0171496D02*
D03*
X0412530Y0164016D02*
D03*
X0421978Y0164016D02*
D03*
X0421978Y0167756D02*
D03*
X0421978Y0171496D02*
D03*
X0431427Y0171496D02*
D03*
X0431427Y0164016D02*
D03*
X0384183Y0164016D02*
D03*
X0384183Y0167756D02*
D03*
X0384183Y0171496D02*
D03*
X0393632Y0171496D02*
D03*
X0393632Y0164016D02*
D03*
X0365285Y0164016D02*
D03*
X0365285Y0167756D02*
D03*
X0365285Y0171496D02*
D03*
X0374734Y0171496D02*
D03*
X0374734Y0164016D02*
D03*
D416*
X0408719Y0070721D02*
D03*
X0390797Y0060472D02*
D03*
D217*
X0418041Y0095844D02*
D03*
X0436939Y0100844D02*
D03*
X0436939Y0085844D02*
D03*
X0436939Y0090844D02*
D03*
X0436939Y0095844D02*
D03*
X0418041Y0085844D02*
D03*
X0418041Y0090844D02*
D03*
X0418041Y0100844D02*
D03*
D417*
X0436349Y0078203D02*
D03*
X0418238Y0078203D02*
D03*
D418*
X0401887Y0109729D02*
D03*
X0418096Y0110277D02*
D03*
X0401410Y0117889D02*
D03*
X0401410Y0125500D02*
D03*
X0418096Y0117889D02*
D03*
X0418096Y0125500D02*
D03*
X0401410Y0133112D02*
D03*
X0418096Y0133112D02*
D03*
X0408580Y0109729D02*
D03*
X0408103Y0117889D02*
D03*
X0408103Y0125500D02*
D03*
X0408103Y0133112D02*
D03*
X0424789Y0117889D02*
D03*
X0424789Y0110277D02*
D03*
X0408580Y0101752D02*
D03*
X0401887Y0101752D02*
D03*
X0401887Y0094665D02*
D03*
X0408580Y0094665D02*
D03*
X0408580Y0087579D02*
D03*
X0401887Y0087579D02*
D03*
X0401887Y0080492D02*
D03*
X0408580Y0080492D02*
D03*
X0424789Y0125500D02*
D03*
X0424789Y0133112D02*
D03*
X0401887Y0052992D02*
D03*
X0408580Y0052992D02*
D03*
D419*
X0315213Y0080405D02*
D03*
X0321513Y0080405D02*
D03*
X0322573Y0126846D02*
D03*
X0316273Y0126846D02*
D03*
D420*
X0355838Y0057463D02*
D03*
X0372373Y0057463D02*
D03*
D416*
X0390797Y0052992D02*
D03*
X0381545Y0056732D02*
D03*
X0408719Y0063241D02*
D03*
X0399467Y0066981D02*
D03*
D421*
X0427293Y0053793D02*
D03*
D422*
X0427293Y0078203D02*
D03*
D224*
X0358002Y0180748D02*
D03*
X0438908Y0186653D02*
D03*
D423*
X0320811Y0163006D02*
D03*
X0320811Y0145290D02*
D03*
D226*
X0365719Y0135669D02*
D03*
X0351506Y0135669D02*
D03*
X0381506Y0135669D02*
D03*
D227*
X0328514Y0058110D02*
D03*
X0348514Y0062110D02*
D03*
X0348514Y0054110D02*
D03*
D36*
X0439301Y0052401D02*
D03*
X0251211Y0215295D02*
G01*
G75*
D272*
X0252294Y0171988D02*
D03*
D271*
X0252491Y0212736D02*
D03*
X0252491Y0210767D02*
D03*
D462*
X0264223Y0203878D02*
D03*
X0254971Y0207618D02*
D03*
D462*
X0264223Y0211358D02*
D03*
D452*
X0275837Y0196319D02*
D03*
X0270837Y0196319D02*
D03*
X0265837Y0196319D02*
D03*
X0260837Y0196319D02*
D03*
X0275837Y0177421D02*
D03*
X0270837Y0177421D02*
D03*
X0265837Y0177421D02*
D03*
X0260837Y0177421D02*
D03*
D463*
X0255542Y0180610D02*
D03*
X0255542Y0174390D02*
D03*
X0255542Y0188956D02*
D03*
X0255542Y0195177D02*
D03*
D464*
X0269124Y0210768D02*
D03*
X0269124Y0204468D02*
D03*
D127*
X0253081Y0200138D02*
D03*
X0275620Y0184094D02*
D03*
X0261644Y0183799D02*
D03*
X0256624Y0184980D02*
D03*
X0258691Y0188425D02*
D03*
M02*
