G75*
G70*
%OFA0B0*%
%FSLAX25Y25*%
%IPPOS*%
%LPD*%
%AMOC8*
5,1,8,0,0,1.08239X$1,22.5*
%
%AMM11*
21,1,0.023620,0.018900,0.000000,0.000000,90.000000*
21,1,0.018900,0.023620,0.000000,0.000000,90.000000*
1,1,0.004720,0.009450,0.009450*
1,1,0.004720,0.009450,-0.009450*
1,1,0.004720,-0.009450,-0.009450*
1,1,0.004720,-0.009450,0.009450*
%
%AMM12*
21,1,0.019680,0.019680,0.000000,0.000000,0.000000*
21,1,0.015750,0.023620,0.000000,0.000000,0.000000*
1,1,0.003940,0.007870,-0.009840*
1,1,0.003940,-0.007870,-0.009840*
1,1,0.003940,-0.007870,0.009840*
1,1,0.003940,0.007870,0.009840*
%
%AMM13*
21,1,0.019680,0.019680,0.000000,0.000000,270.000000*
21,1,0.015750,0.023620,0.000000,0.000000,270.000000*
1,1,0.003940,-0.009840,-0.007870*
1,1,0.003940,-0.009840,0.007870*
1,1,0.003940,0.009840,0.007870*
1,1,0.003940,0.009840,-0.007870*
%
%AMM150*
21,1,0.025590,0.026380,-0.000000,-0.000000,90.000000*
21,1,0.020470,0.031500,-0.000000,-0.000000,90.000000*
1,1,0.005120,0.013190,0.010240*
1,1,0.005120,0.013190,-0.010240*
1,1,0.005120,-0.013190,-0.010240*
1,1,0.005120,-0.013190,0.010240*
%
%AMM151*
21,1,0.017720,0.027950,-0.000000,-0.000000,90.000000*
21,1,0.014170,0.031500,-0.000000,-0.000000,90.000000*
1,1,0.003540,0.013980,0.007090*
1,1,0.003540,0.013980,-0.007090*
1,1,0.003540,-0.013980,-0.007090*
1,1,0.003540,-0.013980,0.007090*
%
%AMM154*
21,1,0.027560,0.018900,-0.000000,-0.000000,270.000000*
21,1,0.022840,0.023620,-0.000000,-0.000000,270.000000*
1,1,0.004720,-0.009450,-0.011420*
1,1,0.004720,-0.009450,0.011420*
1,1,0.004720,0.009450,0.011420*
1,1,0.004720,0.009450,-0.011420*
%
%AMM156*
21,1,0.027560,0.018900,-0.000000,-0.000000,0.000000*
21,1,0.022840,0.023620,-0.000000,-0.000000,0.000000*
1,1,0.004720,0.011420,-0.009450*
1,1,0.004720,-0.011420,-0.009450*
1,1,0.004720,-0.011420,0.009450*
1,1,0.004720,0.011420,0.009450*
%
%AMM158*
21,1,0.035430,0.030320,-0.000000,-0.000000,90.000000*
21,1,0.028350,0.037400,-0.000000,-0.000000,90.000000*
1,1,0.007090,0.015160,0.014170*
1,1,0.007090,0.015160,-0.014170*
1,1,0.007090,-0.015160,-0.014170*
1,1,0.007090,-0.015160,0.014170*
%
%AMM161*
21,1,0.027560,0.030710,-0.000000,-0.000000,180.000000*
21,1,0.022050,0.036220,-0.000000,-0.000000,180.000000*
1,1,0.005510,-0.011020,0.015350*
1,1,0.005510,0.011020,0.015350*
1,1,0.005510,0.011020,-0.015350*
1,1,0.005510,-0.011020,-0.015350*
%
%AMM182*
21,1,0.033470,0.026770,-0.000000,-0.000000,270.000000*
21,1,0.026770,0.033470,-0.000000,-0.000000,270.000000*
1,1,0.006690,-0.013390,-0.013390*
1,1,0.006690,-0.013390,0.013390*
1,1,0.006690,0.013390,0.013390*
1,1,0.006690,0.013390,-0.013390*
%
%AMM183*
21,1,0.025590,0.026380,-0.000000,-0.000000,180.000000*
21,1,0.020470,0.031500,-0.000000,-0.000000,180.000000*
1,1,0.005120,-0.010240,0.013190*
1,1,0.005120,0.010240,0.013190*
1,1,0.005120,0.010240,-0.013190*
1,1,0.005120,-0.010240,-0.013190*
%
%AMM184*
21,1,0.017720,0.027950,-0.000000,-0.000000,180.000000*
21,1,0.014170,0.031500,-0.000000,-0.000000,180.000000*
1,1,0.003540,-0.007090,0.013980*
1,1,0.003540,0.007090,0.013980*
1,1,0.003540,0.007090,-0.013980*
1,1,0.003540,-0.007090,-0.013980*
%
%AMM185*
21,1,0.033470,0.026770,-0.000000,-0.000000,180.000000*
21,1,0.026770,0.033470,-0.000000,-0.000000,180.000000*
1,1,0.006690,-0.013390,0.013390*
1,1,0.006690,0.013390,0.013390*
1,1,0.006690,0.013390,-0.013390*
1,1,0.006690,-0.013390,-0.013390*
%
%AMM186*
21,1,0.078740,0.045670,-0.000000,-0.000000,0.000000*
21,1,0.067320,0.057090,-0.000000,-0.000000,0.000000*
1,1,0.011420,0.033660,-0.022840*
1,1,0.011420,-0.033660,-0.022840*
1,1,0.011420,-0.033660,0.022840*
1,1,0.011420,0.033660,0.022840*
%
%AMM187*
21,1,0.059060,0.020470,-0.000000,-0.000000,0.000000*
21,1,0.053940,0.025590,-0.000000,-0.000000,0.000000*
1,1,0.005120,0.026970,-0.010240*
1,1,0.005120,-0.026970,-0.010240*
1,1,0.005120,-0.026970,0.010240*
1,1,0.005120,0.026970,0.010240*
%
%AMM188*
21,1,0.035430,0.030320,-0.000000,-0.000000,0.000000*
21,1,0.028350,0.037400,-0.000000,-0.000000,0.000000*
1,1,0.007090,0.014170,-0.015160*
1,1,0.007090,-0.014170,-0.015160*
1,1,0.007090,-0.014170,0.015160*
1,1,0.007090,0.014170,0.015160*
%
%AMM189*
21,1,0.012600,0.028980,-0.000000,-0.000000,0.000000*
21,1,0.010080,0.031500,-0.000000,-0.000000,0.000000*
1,1,0.002520,0.005040,-0.014490*
1,1,0.002520,-0.005040,-0.014490*
1,1,0.002520,-0.005040,0.014490*
1,1,0.002520,0.005040,0.014490*
%
%AMM190*
21,1,0.070870,0.036220,-0.000000,-0.000000,180.000000*
21,1,0.061810,0.045280,-0.000000,-0.000000,180.000000*
1,1,0.009060,-0.030910,0.018110*
1,1,0.009060,0.030910,0.018110*
1,1,0.009060,0.030910,-0.018110*
1,1,0.009060,-0.030910,-0.018110*
%
%AMM191*
21,1,0.035830,0.026770,-0.000000,-0.000000,180.000000*
21,1,0.029130,0.033470,-0.000000,-0.000000,180.000000*
1,1,0.006690,-0.014570,0.013390*
1,1,0.006690,0.014570,0.013390*
1,1,0.006690,0.014570,-0.013390*
1,1,0.006690,-0.014570,-0.013390*
%
%AMM192*
21,1,0.027560,0.049610,-0.000000,-0.000000,180.000000*
21,1,0.022050,0.055120,-0.000000,-0.000000,180.000000*
1,1,0.005510,-0.011020,0.024800*
1,1,0.005510,0.011020,0.024800*
1,1,0.005510,0.011020,-0.024800*
1,1,0.005510,-0.011020,-0.024800*
%
%AMM193*
21,1,0.070870,0.036220,-0.000000,-0.000000,270.000000*
21,1,0.061810,0.045280,-0.000000,-0.000000,270.000000*
1,1,0.009060,-0.018110,-0.030910*
1,1,0.009060,-0.018110,0.030910*
1,1,0.009060,0.018110,0.030910*
1,1,0.009060,0.018110,-0.030910*
%
%AMM194*
21,1,0.027560,0.030710,-0.000000,-0.000000,270.000000*
21,1,0.022050,0.036220,-0.000000,-0.000000,270.000000*
1,1,0.005510,-0.015350,-0.011020*
1,1,0.005510,-0.015350,0.011020*
1,1,0.005510,0.015350,0.011020*
1,1,0.005510,0.015350,-0.011020*
%
%AMM27*
21,1,0.023620,0.018900,0.000000,0.000000,0.000000*
21,1,0.018900,0.023620,0.000000,0.000000,0.000000*
1,1,0.004720,0.009450,-0.009450*
1,1,0.004720,-0.009450,-0.009450*
1,1,0.004720,-0.009450,0.009450*
1,1,0.004720,0.009450,0.009450*
%
%AMM28*
21,1,0.106300,0.050390,0.000000,0.000000,90.000000*
21,1,0.093700,0.062990,0.000000,0.000000,90.000000*
1,1,0.012600,0.025200,0.046850*
1,1,0.012600,0.025200,-0.046850*
1,1,0.012600,-0.025200,-0.046850*
1,1,0.012600,-0.025200,0.046850*
%
%AMM29*
21,1,0.033470,0.026770,0.000000,0.000000,270.000000*
21,1,0.026770,0.033470,0.000000,0.000000,270.000000*
1,1,0.006690,-0.013390,-0.013390*
1,1,0.006690,-0.013390,0.013390*
1,1,0.006690,0.013390,0.013390*
1,1,0.006690,0.013390,-0.013390*
%
%AMM30*
21,1,0.122050,0.075590,0.000000,0.000000,180.000000*
21,1,0.103150,0.094490,0.000000,0.000000,180.000000*
1,1,0.018900,-0.051580,0.037800*
1,1,0.018900,0.051580,0.037800*
1,1,0.018900,0.051580,-0.037800*
1,1,0.018900,-0.051580,-0.037800*
%
%AMM31*
21,1,0.118110,0.083460,0.000000,0.000000,0.000000*
21,1,0.097240,0.104330,0.000000,0.000000,0.000000*
1,1,0.020870,0.048620,-0.041730*
1,1,0.020870,-0.048620,-0.041730*
1,1,0.020870,-0.048620,0.041730*
1,1,0.020870,0.048620,0.041730*
%
%AMM7*
21,1,0.035830,0.026770,0.000000,0.000000,0.000000*
21,1,0.029130,0.033470,0.000000,0.000000,0.000000*
1,1,0.006690,0.014570,-0.013390*
1,1,0.006690,-0.014570,-0.013390*
1,1,0.006690,-0.014570,0.013390*
1,1,0.006690,0.014570,0.013390*
%
%AMM8*
21,1,0.070870,0.036220,0.000000,0.000000,90.000000*
21,1,0.061810,0.045280,0.000000,0.000000,90.000000*
1,1,0.009060,0.018110,0.030910*
1,1,0.009060,0.018110,-0.030910*
1,1,0.009060,-0.018110,-0.030910*
1,1,0.009060,-0.018110,0.030910*
%
%ADD117M27*%
%ADD118M28*%
%ADD119M29*%
%ADD120O,0.01968X0.08661*%
%ADD121M30*%
%ADD122M31*%
%ADD217R,0.01378X0.01476*%
%ADD220O,0.04961X0.00984*%
%ADD222R,0.09449X0.06693*%
%ADD223R,0.01476X0.01378*%
%ADD225R,0.03937X0.04331*%
%ADD252R,0.01772X0.05709*%
%ADD253R,0.02559X0.04803*%
%ADD332M150*%
%ADD333M151*%
%ADD336M154*%
%ADD338M156*%
%ADD340M158*%
%ADD343M161*%
%ADD364M182*%
%ADD365M183*%
%ADD366M184*%
%ADD367M185*%
%ADD368M186*%
%ADD369M187*%
%ADD370M188*%
%ADD371M189*%
%ADD372M190*%
%ADD373M191*%
%ADD374M192*%
%ADD375M193*%
%ADD376M194*%
%ADD44R,0.00787X0.14567*%
%ADD45R,0.00787X0.01575*%
%ADD46R,0.00787X0.06299*%
%ADD47R,0.00787X0.38189*%
%ADD48R,0.00787X0.09055*%
%ADD49R,0.05512X0.00787*%
%ADD50R,0.25197X0.00787*%
%ADD51R,0.06693X0.00787*%
%ADD52R,0.12992X0.00787*%
%ADD53R,0.00787X0.27559*%
%ADD54R,0.00787X0.12992*%
%ADD55R,0.00787X0.24803*%
%ADD81R,0.09055X0.17323*%
%ADD82R,0.09055X0.15748*%
%ADD93M7*%
%ADD94M8*%
%ADD97M11*%
%ADD98M12*%
%ADD99M13*%
X0000000Y0000000D02*
%LPD*%
G01*
G36*
G01*
X0200502Y0266830D02*
X0200502Y0265649D01*
G75*
G02*
X0199911Y0265059I-000591J0000000D01*
G01*
X0193415Y0265059D01*
G75*
G02*
X0192825Y0265649I0000000J0000591D01*
G01*
X0192825Y0266830D01*
G75*
G02*
X0193415Y0267421I0000591J0000000D01*
G01*
X0199911Y0267421D01*
G75*
G02*
X0200502Y0266830I0000000J-000591D01*
G01*
G37*
G36*
G01*
X0200502Y0261830D02*
X0200502Y0260649D01*
G75*
G02*
X0199911Y0260059I-000591J0000000D01*
G01*
X0193415Y0260059D01*
G75*
G02*
X0192825Y0260649I0000000J0000591D01*
G01*
X0192825Y0261830D01*
G75*
G02*
X0193415Y0262421I0000591J0000000D01*
G01*
X0199911Y0262421D01*
G75*
G02*
X0200502Y0261830I0000000J-000591D01*
G01*
G37*
G36*
G01*
X0200502Y0256830D02*
X0200502Y0255649D01*
G75*
G02*
X0199911Y0255059I-000591J0000000D01*
G01*
X0193415Y0255059D01*
G75*
G02*
X0192825Y0255649I0000000J0000591D01*
G01*
X0192825Y0256830D01*
G75*
G02*
X0193415Y0257421I0000591J0000000D01*
G01*
X0199911Y0257421D01*
G75*
G02*
X0200502Y0256830I0000000J-000591D01*
G01*
G37*
G36*
G01*
X0200502Y0251830D02*
X0200502Y0250649D01*
G75*
G02*
X0199911Y0250059I-000591J0000000D01*
G01*
X0193415Y0250059D01*
G75*
G02*
X0192825Y0250649I0000000J0000591D01*
G01*
X0192825Y0251830D01*
G75*
G02*
X0193415Y0252421I0000591J0000000D01*
G01*
X0199911Y0252421D01*
G75*
G02*
X0200502Y0251830I0000000J-000591D01*
G01*
G37*
G36*
G01*
X0181014Y0251830D02*
X0181014Y0250649D01*
G75*
G02*
X0180423Y0250059I-000591J0000000D01*
G01*
X0173927Y0250059D01*
G75*
G02*
X0173337Y0250649I0000000J0000591D01*
G01*
X0173337Y0251830D01*
G75*
G02*
X0173927Y0252421I0000591J0000000D01*
G01*
X0180423Y0252421D01*
G75*
G02*
X0181014Y0251830I0000000J-000591D01*
G01*
G37*
G36*
G01*
X0181014Y0256830D02*
X0181014Y0255649D01*
G75*
G02*
X0180423Y0255059I-000591J0000000D01*
G01*
X0173927Y0255059D01*
G75*
G02*
X0173337Y0255649I0000000J0000591D01*
G01*
X0173337Y0256830D01*
G75*
G02*
X0173927Y0257421I0000591J0000000D01*
G01*
X0180423Y0257421D01*
G75*
G02*
X0181014Y0256830I0000000J-000591D01*
G01*
G37*
G36*
G01*
X0181014Y0261830D02*
X0181014Y0260649D01*
G75*
G02*
X0180423Y0260059I-000591J0000000D01*
G01*
X0173927Y0260059D01*
G75*
G02*
X0173337Y0260649I0000000J0000591D01*
G01*
X0173337Y0261830D01*
G75*
G02*
X0173927Y0262421I0000591J0000000D01*
G01*
X0180423Y0262421D01*
G75*
G02*
X0181014Y0261830I0000000J-000591D01*
G01*
G37*
G36*
G01*
X0181014Y0266830D02*
X0181014Y0265649D01*
G75*
G02*
X0180423Y0265059I-000591J0000000D01*
G01*
X0173927Y0265059D01*
G75*
G02*
X0173337Y0265649I0000000J0000591D01*
G01*
X0173337Y0266830D01*
G75*
G02*
X0173927Y0267421I0000591J0000000D01*
G01*
X0180423Y0267421D01*
G75*
G02*
X0181014Y0266830I0000000J-000591D01*
G01*
G37*
G36*
G01*
X0382953Y0261043D02*
X0385630Y0261043D01*
G75*
G02*
X0385965Y0260708I0000000J-000335D01*
G01*
X0385965Y0258031D01*
G75*
G02*
X0385630Y0257697I-000335J0000000D01*
G01*
X0382953Y0257697D01*
G75*
G02*
X0382618Y0258031I0000000J0000335D01*
G01*
X0382618Y0260708D01*
G75*
G02*
X0382953Y0261043I0000335J0000000D01*
G01*
G37*
G36*
G01*
X0382953Y0254823D02*
X0385630Y0254823D01*
G75*
G02*
X0385965Y0254488I0000000J-000335D01*
G01*
X0385965Y0251811D01*
G75*
G02*
X0385630Y0251476I-000335J0000000D01*
G01*
X0382953Y0251476D01*
G75*
G02*
X0382618Y0251811I0000000J0000335D01*
G01*
X0382618Y0254488D01*
G75*
G02*
X0382953Y0254823I0000335J0000000D01*
G01*
G37*
G36*
G01*
X0150443Y0122362D02*
X0150443Y0126378D01*
G75*
G02*
X0150797Y0126732I0000354J0000000D01*
G01*
X0153632Y0126732D01*
G75*
G02*
X0153986Y0126378I0000000J-000354D01*
G01*
X0153986Y0122362D01*
G75*
G02*
X0153632Y0122008I-000354J0000000D01*
G01*
X0150797Y0122008D01*
G75*
G02*
X0150443Y0122362I0000000J0000354D01*
G01*
G37*
G36*
G01*
X0163435Y0122362D02*
X0163435Y0126378D01*
G75*
G02*
X0163789Y0126732I0000354J0000000D01*
G01*
X0166624Y0126732D01*
G75*
G02*
X0166978Y0126378I0000000J-000354D01*
G01*
X0166978Y0122362D01*
G75*
G02*
X0166624Y0122008I-000354J0000000D01*
G01*
X0163789Y0122008D01*
G75*
G02*
X0163435Y0122362I0000000J0000354D01*
G01*
G37*
D81*
X0503189Y0068858D03*
D82*
X0503189Y0131850D03*
G36*
G01*
X0173534Y0196988D02*
X0173534Y0195807D01*
G75*
G02*
X0172943Y0195216I-000591J0000000D01*
G01*
X0166447Y0195216D01*
G75*
G02*
X0165856Y0195807I0000000J0000591D01*
G01*
X0165856Y0196988D01*
G75*
G02*
X0166447Y0197578I0000591J0000000D01*
G01*
X0172943Y0197578D01*
G75*
G02*
X0173534Y0196988I0000000J-000591D01*
G01*
G37*
G36*
G01*
X0173534Y0191988D02*
X0173534Y0190807D01*
G75*
G02*
X0172943Y0190216I-000591J0000000D01*
G01*
X0166447Y0190216D01*
G75*
G02*
X0165856Y0190807I0000000J0000591D01*
G01*
X0165856Y0191988D01*
G75*
G02*
X0166447Y0192578I0000591J0000000D01*
G01*
X0172943Y0192578D01*
G75*
G02*
X0173534Y0191988I0000000J-000591D01*
G01*
G37*
G36*
G01*
X0173534Y0186988D02*
X0173534Y0185807D01*
G75*
G02*
X0172943Y0185216I-000591J0000000D01*
G01*
X0166447Y0185216D01*
G75*
G02*
X0165856Y0185807I0000000J0000591D01*
G01*
X0165856Y0186988D01*
G75*
G02*
X0166447Y0187578I0000591J0000000D01*
G01*
X0172943Y0187578D01*
G75*
G02*
X0173534Y0186988I0000000J-000591D01*
G01*
G37*
G36*
G01*
X0173534Y0181988D02*
X0173534Y0180807D01*
G75*
G02*
X0172943Y0180216I-000591J0000000D01*
G01*
X0166447Y0180216D01*
G75*
G02*
X0165856Y0180807I0000000J0000591D01*
G01*
X0165856Y0181988D01*
G75*
G02*
X0166447Y0182578I0000591J0000000D01*
G01*
X0172943Y0182578D01*
G75*
G02*
X0173534Y0181988I0000000J-000591D01*
G01*
G37*
G36*
G01*
X0154045Y0181988D02*
X0154045Y0180807D01*
G75*
G02*
X0153455Y0180216I-000591J0000000D01*
G01*
X0146959Y0180216D01*
G75*
G02*
X0146368Y0180807I0000000J0000591D01*
G01*
X0146368Y0181988D01*
G75*
G02*
X0146959Y0182578I0000591J0000000D01*
G01*
X0153455Y0182578D01*
G75*
G02*
X0154045Y0181988I0000000J-000591D01*
G01*
G37*
G36*
G01*
X0154045Y0186988D02*
X0154045Y0185807D01*
G75*
G02*
X0153455Y0185216I-000591J0000000D01*
G01*
X0146959Y0185216D01*
G75*
G02*
X0146368Y0185807I0000000J0000591D01*
G01*
X0146368Y0186988D01*
G75*
G02*
X0146959Y0187578I0000591J0000000D01*
G01*
X0153455Y0187578D01*
G75*
G02*
X0154045Y0186988I0000000J-000591D01*
G01*
G37*
G36*
G01*
X0154045Y0191988D02*
X0154045Y0190807D01*
G75*
G02*
X0153455Y0190216I-000591J0000000D01*
G01*
X0146959Y0190216D01*
G75*
G02*
X0146368Y0190807I0000000J0000591D01*
G01*
X0146368Y0191988D01*
G75*
G02*
X0146959Y0192578I0000591J0000000D01*
G01*
X0153455Y0192578D01*
G75*
G02*
X0154045Y0191988I0000000J-000591D01*
G01*
G37*
G36*
G01*
X0154045Y0196988D02*
X0154045Y0195807D01*
G75*
G02*
X0153455Y0195216I-000591J0000000D01*
G01*
X0146959Y0195216D01*
G75*
G02*
X0146368Y0195807I0000000J0000591D01*
G01*
X0146368Y0196988D01*
G75*
G02*
X0146959Y0197578I0000591J0000000D01*
G01*
X0153455Y0197578D01*
G75*
G02*
X0154045Y0196988I0000000J-000591D01*
G01*
G37*
G36*
G01*
X0184518Y0197480D02*
X0184518Y0194409D01*
G75*
G02*
X0184242Y0194134I-000276J0000000D01*
G01*
X0182037Y0194134D01*
G75*
G02*
X0181762Y0194409I0000000J0000276D01*
G01*
X0181762Y0197480D01*
G75*
G02*
X0182037Y0197756I0000276J0000000D01*
G01*
X0184242Y0197756D01*
G75*
G02*
X0184518Y0197480I0000000J-000276D01*
G01*
G37*
G36*
G01*
X0178219Y0197480D02*
X0178219Y0194409D01*
G75*
G02*
X0177943Y0194134I-000276J0000000D01*
G01*
X0175738Y0194134D01*
G75*
G02*
X0175463Y0194409I0000000J0000276D01*
G01*
X0175463Y0197480D01*
G75*
G02*
X0175738Y0197756I0000276J0000000D01*
G01*
X0177943Y0197756D01*
G75*
G02*
X0178219Y0197480I0000000J-000276D01*
G01*
G37*
G36*
G01*
X0042510Y0113031D02*
X0039439Y0113031D01*
G75*
G02*
X0039163Y0113307I0000000J0000276D01*
G01*
X0039163Y0115512D01*
G75*
G02*
X0039439Y0115787I0000276J0000000D01*
G01*
X0042510Y0115787D01*
G75*
G02*
X0042785Y0115512I0000000J-000276D01*
G01*
X0042785Y0113307D01*
G75*
G02*
X0042510Y0113031I-000276J0000000D01*
G01*
G37*
G36*
G01*
X0042510Y0119330D02*
X0039439Y0119330D01*
G75*
G02*
X0039163Y0119606I0000000J0000276D01*
G01*
X0039163Y0121811D01*
G75*
G02*
X0039439Y0122086I0000276J0000000D01*
G01*
X0042510Y0122086D01*
G75*
G02*
X0042785Y0121811I0000000J-000276D01*
G01*
X0042785Y0119606D01*
G75*
G02*
X0042510Y0119330I-000276J0000000D01*
G01*
G37*
G36*
G01*
X0212667Y0267480D02*
X0212667Y0264409D01*
G75*
G02*
X0212392Y0264134I-000276J0000000D01*
G01*
X0210187Y0264134D01*
G75*
G02*
X0209911Y0264409I0000000J0000276D01*
G01*
X0209911Y0267480D01*
G75*
G02*
X0210187Y0267756I0000276J0000000D01*
G01*
X0212392Y0267756D01*
G75*
G02*
X0212667Y0267480I0000000J-000276D01*
G01*
G37*
G36*
G01*
X0206368Y0267480D02*
X0206368Y0264409D01*
G75*
G02*
X0206093Y0264134I-000276J0000000D01*
G01*
X0203888Y0264134D01*
G75*
G02*
X0203612Y0264409I0000000J0000276D01*
G01*
X0203612Y0267480D01*
G75*
G02*
X0203888Y0267756I0000276J0000000D01*
G01*
X0206093Y0267756D01*
G75*
G02*
X0206368Y0267480I0000000J-000276D01*
G01*
G37*
G36*
G01*
X0165030Y0261673D02*
X0161014Y0261673D01*
G75*
G02*
X0160660Y0262027I0000000J0000354D01*
G01*
X0160660Y0264862D01*
G75*
G02*
X0161014Y0265216I0000354J0000000D01*
G01*
X0165030Y0265216D01*
G75*
G02*
X0165384Y0264862I0000000J-000354D01*
G01*
X0165384Y0262027D01*
G75*
G02*
X0165030Y0261673I-000354J0000000D01*
G01*
G37*
G36*
G01*
X0165030Y0274665D02*
X0161014Y0274665D01*
G75*
G02*
X0160660Y0275019I0000000J0000354D01*
G01*
X0160660Y0277854D01*
G75*
G02*
X0161014Y0278208I0000354J0000000D01*
G01*
X0165030Y0278208D01*
G75*
G02*
X0165384Y0277854I0000000J-000354D01*
G01*
X0165384Y0275019D01*
G75*
G02*
X0165030Y0274665I-000354J0000000D01*
G01*
G37*
G36*
G01*
X0484055Y0061771D02*
X0482165Y0061771D01*
G75*
G02*
X0481929Y0062008I0000000J0000236D01*
G01*
X0481929Y0063897D01*
G75*
G02*
X0482165Y0064134I0000236J0000000D01*
G01*
X0484055Y0064134D01*
G75*
G02*
X0484291Y0063897I0000000J-000236D01*
G01*
X0484291Y0062008D01*
G75*
G02*
X0484055Y0061771I-000236J0000000D01*
G01*
G37*
G36*
G01*
X0492717Y0061771D02*
X0490827Y0061771D01*
G75*
G02*
X0490591Y0062008I0000000J0000236D01*
G01*
X0490591Y0063897D01*
G75*
G02*
X0490827Y0064134I0000236J0000000D01*
G01*
X0492717Y0064134D01*
G75*
G02*
X0492953Y0063897I0000000J-000236D01*
G01*
X0492953Y0062008D01*
G75*
G02*
X0492717Y0061771I-000236J0000000D01*
G01*
G37*
G36*
G01*
X0335433Y0012670D02*
X0332362Y0012670D01*
G75*
G02*
X0332087Y0012946I0000000J0000276D01*
G01*
X0332087Y0015151D01*
G75*
G02*
X0332362Y0015426I0000276J0000000D01*
G01*
X0335433Y0015426D01*
G75*
G02*
X0335709Y0015151I0000000J-000276D01*
G01*
X0335709Y0012946D01*
G75*
G02*
X0335433Y0012670I-000276J0000000D01*
G01*
G37*
G36*
G01*
X0335433Y0018969D02*
X0332362Y0018969D01*
G75*
G02*
X0332087Y0019245I0000000J0000276D01*
G01*
X0332087Y0021450D01*
G75*
G02*
X0332362Y0021725I0000276J0000000D01*
G01*
X0335433Y0021725D01*
G75*
G02*
X0335709Y0021450I0000000J-000276D01*
G01*
X0335709Y0019245D01*
G75*
G02*
X0335433Y0018969I-000276J0000000D01*
G01*
G37*
G36*
G01*
X0162402Y0349173D02*
X0159331Y0349173D01*
G75*
G02*
X0159055Y0349449I0000000J0000276D01*
G01*
X0159055Y0351653D01*
G75*
G02*
X0159331Y0351929I0000276J0000000D01*
G01*
X0162402Y0351929D01*
G75*
G02*
X0162677Y0351653I0000000J-000276D01*
G01*
X0162677Y0349449D01*
G75*
G02*
X0162402Y0349173I-000276J0000000D01*
G01*
G37*
G36*
G01*
X0162402Y0355472D02*
X0159331Y0355472D01*
G75*
G02*
X0159055Y0355748I0000000J0000276D01*
G01*
X0159055Y0357952D01*
G75*
G02*
X0159331Y0358228I0000276J0000000D01*
G01*
X0162402Y0358228D01*
G75*
G02*
X0162677Y0357952I0000000J-000276D01*
G01*
X0162677Y0355748D01*
G75*
G02*
X0162402Y0355472I-000276J0000000D01*
G01*
G37*
G36*
G01*
X0173534Y0161555D02*
X0173534Y0160374D01*
G75*
G02*
X0172943Y0159783I-000591J0000000D01*
G01*
X0166447Y0159783D01*
G75*
G02*
X0165856Y0160374I0000000J0000591D01*
G01*
X0165856Y0161555D01*
G75*
G02*
X0166447Y0162145I0000591J0000000D01*
G01*
X0172943Y0162145D01*
G75*
G02*
X0173534Y0161555I0000000J-000591D01*
G01*
G37*
G36*
G01*
X0173534Y0156555D02*
X0173534Y0155374D01*
G75*
G02*
X0172943Y0154783I-000591J0000000D01*
G01*
X0166447Y0154783D01*
G75*
G02*
X0165856Y0155374I0000000J0000591D01*
G01*
X0165856Y0156555D01*
G75*
G02*
X0166447Y0157145I0000591J0000000D01*
G01*
X0172943Y0157145D01*
G75*
G02*
X0173534Y0156555I0000000J-000591D01*
G01*
G37*
G36*
G01*
X0173534Y0151555D02*
X0173534Y0150374D01*
G75*
G02*
X0172943Y0149783I-000591J0000000D01*
G01*
X0166447Y0149783D01*
G75*
G02*
X0165856Y0150374I0000000J0000591D01*
G01*
X0165856Y0151555D01*
G75*
G02*
X0166447Y0152145I0000591J0000000D01*
G01*
X0172943Y0152145D01*
G75*
G02*
X0173534Y0151555I0000000J-000591D01*
G01*
G37*
G36*
G01*
X0173534Y0146555D02*
X0173534Y0145374D01*
G75*
G02*
X0172943Y0144783I-000591J0000000D01*
G01*
X0166447Y0144783D01*
G75*
G02*
X0165856Y0145374I0000000J0000591D01*
G01*
X0165856Y0146555D01*
G75*
G02*
X0166447Y0147145I0000591J0000000D01*
G01*
X0172943Y0147145D01*
G75*
G02*
X0173534Y0146555I0000000J-000591D01*
G01*
G37*
G36*
G01*
X0154045Y0146555D02*
X0154045Y0145374D01*
G75*
G02*
X0153455Y0144783I-000591J0000000D01*
G01*
X0146959Y0144783D01*
G75*
G02*
X0146368Y0145374I0000000J0000591D01*
G01*
X0146368Y0146555D01*
G75*
G02*
X0146959Y0147145I0000591J0000000D01*
G01*
X0153455Y0147145D01*
G75*
G02*
X0154045Y0146555I0000000J-000591D01*
G01*
G37*
G36*
G01*
X0154045Y0151555D02*
X0154045Y0150374D01*
G75*
G02*
X0153455Y0149783I-000591J0000000D01*
G01*
X0146959Y0149783D01*
G75*
G02*
X0146368Y0150374I0000000J0000591D01*
G01*
X0146368Y0151555D01*
G75*
G02*
X0146959Y0152145I0000591J0000000D01*
G01*
X0153455Y0152145D01*
G75*
G02*
X0154045Y0151555I0000000J-000591D01*
G01*
G37*
G36*
G01*
X0154045Y0156555D02*
X0154045Y0155374D01*
G75*
G02*
X0153455Y0154783I-000591J0000000D01*
G01*
X0146959Y0154783D01*
G75*
G02*
X0146368Y0155374I0000000J0000591D01*
G01*
X0146368Y0156555D01*
G75*
G02*
X0146959Y0157145I0000591J0000000D01*
G01*
X0153455Y0157145D01*
G75*
G02*
X0154045Y0156555I0000000J-000591D01*
G01*
G37*
G36*
G01*
X0154045Y0161555D02*
X0154045Y0160374D01*
G75*
G02*
X0153455Y0159783I-000591J0000000D01*
G01*
X0146959Y0159783D01*
G75*
G02*
X0146368Y0160374I0000000J0000591D01*
G01*
X0146368Y0161555D01*
G75*
G02*
X0146959Y0162145I0000591J0000000D01*
G01*
X0153455Y0162145D01*
G75*
G02*
X0154045Y0161555I0000000J-000591D01*
G01*
G37*
G36*
G01*
X0155030Y0138701D02*
X0155030Y0141771D01*
G75*
G02*
X0155305Y0142047I0000276J0000000D01*
G01*
X0157510Y0142047D01*
G75*
G02*
X0157785Y0141771I0000000J-000276D01*
G01*
X0157785Y0138701D01*
G75*
G02*
X0157510Y0138425I-000276J0000000D01*
G01*
X0155305Y0138425D01*
G75*
G02*
X0155030Y0138701I0000000J0000276D01*
G01*
G37*
G36*
G01*
X0161329Y0138701D02*
X0161329Y0141771D01*
G75*
G02*
X0161604Y0142047I0000276J0000000D01*
G01*
X0163809Y0142047D01*
G75*
G02*
X0164085Y0141771I0000000J-000276D01*
G01*
X0164085Y0138701D01*
G75*
G02*
X0163809Y0138425I-000276J0000000D01*
G01*
X0161604Y0138425D01*
G75*
G02*
X0161329Y0138701I0000000J0000276D01*
G01*
G37*
G36*
G01*
X0345276Y0012670D02*
X0342205Y0012670D01*
G75*
G02*
X0341929Y0012946I0000000J0000276D01*
G01*
X0341929Y0015151D01*
G75*
G02*
X0342205Y0015426I0000276J0000000D01*
G01*
X0345276Y0015426D01*
G75*
G02*
X0345551Y0015151I0000000J-000276D01*
G01*
X0345551Y0012946D01*
G75*
G02*
X0345276Y0012670I-000276J0000000D01*
G01*
G37*
G36*
G01*
X0345276Y0018969D02*
X0342205Y0018969D01*
G75*
G02*
X0341929Y0019245I0000000J0000276D01*
G01*
X0341929Y0021450D01*
G75*
G02*
X0342205Y0021725I0000276J0000000D01*
G01*
X0345276Y0021725D01*
G75*
G02*
X0345551Y0021450I0000000J-000276D01*
G01*
X0345551Y0019245D01*
G75*
G02*
X0345276Y0018969I-000276J0000000D01*
G01*
G37*
G36*
G01*
X0205512Y0066299D02*
X0202441Y0066299D01*
G75*
G02*
X0202165Y0066575I0000000J0000276D01*
G01*
X0202165Y0068779D01*
G75*
G02*
X0202441Y0069055I0000276J0000000D01*
G01*
X0205512Y0069055D01*
G75*
G02*
X0205787Y0068779I0000000J-000276D01*
G01*
X0205787Y0066575D01*
G75*
G02*
X0205512Y0066299I-000276J0000000D01*
G01*
G37*
G36*
G01*
X0205512Y0072598D02*
X0202441Y0072598D01*
G75*
G02*
X0202165Y0072874I0000000J0000276D01*
G01*
X0202165Y0075078D01*
G75*
G02*
X0202441Y0075354I0000276J0000000D01*
G01*
X0205512Y0075354D01*
G75*
G02*
X0205787Y0075078I0000000J-000276D01*
G01*
X0205787Y0072874D01*
G75*
G02*
X0205512Y0072598I-000276J0000000D01*
G01*
G37*
G36*
G01*
X0152362Y0349173D02*
X0149291Y0349173D01*
G75*
G02*
X0149016Y0349449I0000000J0000276D01*
G01*
X0149016Y0351653D01*
G75*
G02*
X0149291Y0351929I0000276J0000000D01*
G01*
X0152362Y0351929D01*
G75*
G02*
X0152638Y0351653I0000000J-000276D01*
G01*
X0152638Y0349449D01*
G75*
G02*
X0152362Y0349173I-000276J0000000D01*
G01*
G37*
G36*
G01*
X0152362Y0355472D02*
X0149291Y0355472D01*
G75*
G02*
X0149016Y0355748I0000000J0000276D01*
G01*
X0149016Y0357952D01*
G75*
G02*
X0149291Y0358228I0000276J0000000D01*
G01*
X0152362Y0358228D01*
G75*
G02*
X0152638Y0357952I0000000J-000276D01*
G01*
X0152638Y0355748D01*
G75*
G02*
X0152362Y0355472I-000276J0000000D01*
G01*
G37*
G36*
G01*
X0181722Y0242401D02*
X0181722Y0245472D01*
G75*
G02*
X0181998Y0245748I0000276J0000000D01*
G01*
X0184203Y0245748D01*
G75*
G02*
X0184478Y0245472I0000000J-000276D01*
G01*
X0184478Y0242401D01*
G75*
G02*
X0184203Y0242126I-000276J0000000D01*
G01*
X0181998Y0242126D01*
G75*
G02*
X0181722Y0242401I0000000J0000276D01*
G01*
G37*
G36*
G01*
X0188022Y0242401D02*
X0188022Y0245472D01*
G75*
G02*
X0188297Y0245748I0000276J0000000D01*
G01*
X0190502Y0245748D01*
G75*
G02*
X0190778Y0245472I0000000J-000276D01*
G01*
X0190778Y0242401D01*
G75*
G02*
X0190502Y0242126I-000276J0000000D01*
G01*
X0188297Y0242126D01*
G75*
G02*
X0188022Y0242401I0000000J0000276D01*
G01*
G37*
G36*
G01*
X0160935Y0251417D02*
X0164951Y0251417D01*
G75*
G02*
X0165305Y0251063I0000000J-000354D01*
G01*
X0165305Y0248228D01*
G75*
G02*
X0164951Y0247874I-000354J0000000D01*
G01*
X0160935Y0247874D01*
G75*
G02*
X0160581Y0248228I0000000J0000354D01*
G01*
X0160581Y0251063D01*
G75*
G02*
X0160935Y0251417I0000354J0000000D01*
G01*
G37*
G36*
G01*
X0160935Y0238425D02*
X0164951Y0238425D01*
G75*
G02*
X0165305Y0238071I0000000J-000354D01*
G01*
X0165305Y0235236D01*
G75*
G02*
X0164951Y0234882I-000354J0000000D01*
G01*
X0160935Y0234882D01*
G75*
G02*
X0160581Y0235236I0000000J0000354D01*
G01*
X0160581Y0238071D01*
G75*
G02*
X0160935Y0238425I0000354J0000000D01*
G01*
G37*
G36*
G01*
X0154321Y0172283D02*
X0154321Y0175354D01*
G75*
G02*
X0154597Y0175630I0000276J0000000D01*
G01*
X0156801Y0175630D01*
G75*
G02*
X0157077Y0175354I0000000J-000276D01*
G01*
X0157077Y0172283D01*
G75*
G02*
X0156801Y0172008I-000276J0000000D01*
G01*
X0154597Y0172008D01*
G75*
G02*
X0154321Y0172283I0000000J0000276D01*
G01*
G37*
G36*
G01*
X0160620Y0172283D02*
X0160620Y0175354D01*
G75*
G02*
X0160896Y0175630I0000276J0000000D01*
G01*
X0163100Y0175630D01*
G75*
G02*
X0163376Y0175354I0000000J-000276D01*
G01*
X0163376Y0172283D01*
G75*
G02*
X0163100Y0172008I-000276J0000000D01*
G01*
X0160896Y0172008D01*
G75*
G02*
X0160620Y0172283I0000000J0000276D01*
G01*
G37*
G36*
G01*
X0150354Y0345334D02*
X0151535Y0345334D01*
G75*
G02*
X0152126Y0344744I0000000J-000591D01*
G01*
X0152126Y0338248D01*
G75*
G02*
X0151535Y0337657I-000591J0000000D01*
G01*
X0150354Y0337657D01*
G75*
G02*
X0149764Y0338248I0000000J0000591D01*
G01*
X0149764Y0344744D01*
G75*
G02*
X0150354Y0345334I0000591J0000000D01*
G01*
G37*
G36*
G01*
X0155354Y0345334D02*
X0156535Y0345334D01*
G75*
G02*
X0157126Y0344744I0000000J-000591D01*
G01*
X0157126Y0338248D01*
G75*
G02*
X0156535Y0337657I-000591J0000000D01*
G01*
X0155354Y0337657D01*
G75*
G02*
X0154764Y0338248I0000000J0000591D01*
G01*
X0154764Y0344744D01*
G75*
G02*
X0155354Y0345334I0000591J0000000D01*
G01*
G37*
G36*
G01*
X0160354Y0345334D02*
X0161535Y0345334D01*
G75*
G02*
X0162126Y0344744I0000000J-000591D01*
G01*
X0162126Y0338248D01*
G75*
G02*
X0161535Y0337657I-000591J0000000D01*
G01*
X0160354Y0337657D01*
G75*
G02*
X0159764Y0338248I0000000J0000591D01*
G01*
X0159764Y0344744D01*
G75*
G02*
X0160354Y0345334I0000591J0000000D01*
G01*
G37*
G36*
G01*
X0165354Y0345334D02*
X0166535Y0345334D01*
G75*
G02*
X0167126Y0344744I0000000J-000591D01*
G01*
X0167126Y0338248D01*
G75*
G02*
X0166535Y0337657I-000591J0000000D01*
G01*
X0165354Y0337657D01*
G75*
G02*
X0164764Y0338248I0000000J0000591D01*
G01*
X0164764Y0344744D01*
G75*
G02*
X0165354Y0345334I0000591J0000000D01*
G01*
G37*
G36*
G01*
X0165354Y0325846D02*
X0166535Y0325846D01*
G75*
G02*
X0167126Y0325256I0000000J-000591D01*
G01*
X0167126Y0318760D01*
G75*
G02*
X0166535Y0318169I-000591J0000000D01*
G01*
X0165354Y0318169D01*
G75*
G02*
X0164764Y0318760I0000000J0000591D01*
G01*
X0164764Y0325256D01*
G75*
G02*
X0165354Y0325846I0000591J0000000D01*
G01*
G37*
G36*
G01*
X0160354Y0325846D02*
X0161535Y0325846D01*
G75*
G02*
X0162126Y0325256I0000000J-000591D01*
G01*
X0162126Y0318760D01*
G75*
G02*
X0161535Y0318169I-000591J0000000D01*
G01*
X0160354Y0318169D01*
G75*
G02*
X0159764Y0318760I0000000J0000591D01*
G01*
X0159764Y0325256D01*
G75*
G02*
X0160354Y0325846I0000591J0000000D01*
G01*
G37*
G36*
G01*
X0155354Y0325846D02*
X0156535Y0325846D01*
G75*
G02*
X0157126Y0325256I0000000J-000591D01*
G01*
X0157126Y0318760D01*
G75*
G02*
X0156535Y0318169I-000591J0000000D01*
G01*
X0155354Y0318169D01*
G75*
G02*
X0154764Y0318760I0000000J0000591D01*
G01*
X0154764Y0325256D01*
G75*
G02*
X0155354Y0325846I0000591J0000000D01*
G01*
G37*
G36*
G01*
X0150354Y0325846D02*
X0151535Y0325846D01*
G75*
G02*
X0152126Y0325256I0000000J-000591D01*
G01*
X0152126Y0318760D01*
G75*
G02*
X0151535Y0318169I-000591J0000000D01*
G01*
X0150354Y0318169D01*
G75*
G02*
X0149764Y0318760I0000000J0000591D01*
G01*
X0149764Y0325256D01*
G75*
G02*
X0150354Y0325846I0000591J0000000D01*
G01*
G37*
G36*
G01*
X0185187Y0162401D02*
X0185187Y0159330D01*
G75*
G02*
X0184911Y0159055I-000276J0000000D01*
G01*
X0182707Y0159055D01*
G75*
G02*
X0182431Y0159330I0000000J0000276D01*
G01*
X0182431Y0162401D01*
G75*
G02*
X0182707Y0162677I0000276J0000000D01*
G01*
X0184911Y0162677D01*
G75*
G02*
X0185187Y0162401I0000000J-000276D01*
G01*
G37*
G36*
G01*
X0178888Y0162401D02*
X0178888Y0159330D01*
G75*
G02*
X0178612Y0159055I-000276J0000000D01*
G01*
X0176408Y0159055D01*
G75*
G02*
X0176132Y0159330I0000000J0000276D01*
G01*
X0176132Y0162401D01*
G75*
G02*
X0176408Y0162677I0000276J0000000D01*
G01*
X0178612Y0162677D01*
G75*
G02*
X0178888Y0162401I0000000J-000276D01*
G01*
G37*
G36*
G01*
X0150364Y0112480D02*
X0150364Y0116496D01*
G75*
G02*
X0150719Y0116850I0000354J0000000D01*
G01*
X0153553Y0116850D01*
G75*
G02*
X0153908Y0116496I0000000J-000354D01*
G01*
X0153908Y0112480D01*
G75*
G02*
X0153553Y0112126I-000354J0000000D01*
G01*
X0150719Y0112126D01*
G75*
G02*
X0150364Y0112480I0000000J0000354D01*
G01*
G37*
G36*
G01*
X0163356Y0112480D02*
X0163356Y0116496D01*
G75*
G02*
X0163711Y0116850I0000354J0000000D01*
G01*
X0166545Y0116850D01*
G75*
G02*
X0166900Y0116496I0000000J-000354D01*
G01*
X0166900Y0112480D01*
G75*
G02*
X0166545Y0112126I-000354J0000000D01*
G01*
X0163711Y0112126D01*
G75*
G02*
X0163356Y0112480I0000000J0000354D01*
G01*
G37*
G36*
G01*
X0363465Y0247795D02*
X0366535Y0247795D01*
G75*
G02*
X0366811Y0247519I0000000J-000276D01*
G01*
X0366811Y0245315D01*
G75*
G02*
X0366535Y0245039I-000276J0000000D01*
G01*
X0363465Y0245039D01*
G75*
G02*
X0363189Y0245315I0000000J0000276D01*
G01*
X0363189Y0247519D01*
G75*
G02*
X0363465Y0247795I0000276J0000000D01*
G01*
G37*
G36*
G01*
X0363465Y0241496D02*
X0366535Y0241496D01*
G75*
G02*
X0366811Y0241220I0000000J-000276D01*
G01*
X0366811Y0239015D01*
G75*
G02*
X0366535Y0238740I-000276J0000000D01*
G01*
X0363465Y0238740D01*
G75*
G02*
X0363189Y0239015I0000000J0000276D01*
G01*
X0363189Y0241220D01*
G75*
G02*
X0363465Y0241496I0000276J0000000D01*
G01*
G37*
G36*
G01*
X0205512Y0078110D02*
X0202441Y0078110D01*
G75*
G02*
X0202165Y0078386I0000000J0000276D01*
G01*
X0202165Y0080590D01*
G75*
G02*
X0202441Y0080866I0000276J0000000D01*
G01*
X0205512Y0080866D01*
G75*
G02*
X0205787Y0080590I0000000J-000276D01*
G01*
X0205787Y0078386D01*
G75*
G02*
X0205512Y0078110I-000276J0000000D01*
G01*
G37*
G36*
G01*
X0205512Y0084409D02*
X0202441Y0084409D01*
G75*
G02*
X0202165Y0084685I0000000J0000276D01*
G01*
X0202165Y0086890D01*
G75*
G02*
X0202441Y0087165I0000276J0000000D01*
G01*
X0205512Y0087165D01*
G75*
G02*
X0205787Y0086890I0000000J-000276D01*
G01*
X0205787Y0084685D01*
G75*
G02*
X0205512Y0084409I-000276J0000000D01*
G01*
G37*
X0237933Y0004862D02*
G01*
G75*
D93*
X0267848Y0081240D02*
D03*
X0254856Y0081240D02*
D03*
D94*
X0287708Y0081634D02*
D03*
X0276291Y0081634D02*
D03*
X0287708Y0073602D02*
D03*
X0276291Y0073602D02*
D03*
D97*
X0250335Y0059586D02*
D03*
X0250335Y0063523D02*
D03*
X0246988Y0074153D02*
D03*
X0255650Y0074153D02*
D03*
X0246201Y0068905D02*
D03*
X0254862Y0068905D02*
D03*
D98*
X0258088Y0016279D02*
D03*
X0254544Y0016279D02*
D03*
X0267479Y0053012D02*
D03*
X0271023Y0053012D02*
D03*
X0259482Y0068117D02*
D03*
X0263025Y0068117D02*
D03*
X0266706Y0016279D02*
D03*
X0263163Y0016279D02*
D03*
X0246201Y0020216D02*
D03*
X0249744Y0020216D02*
D03*
D99*
X0271686Y0069692D02*
D03*
X0271686Y0073236D02*
D03*
X0250919Y0082094D02*
D03*
X0250919Y0078550D02*
D03*
X0299683Y0023777D02*
D03*
X0299683Y0027321D02*
D03*
D117*
X0295807Y0082815D02*
D03*
X0295807Y0074153D02*
D03*
X0257891Y0020216D02*
D03*
X0253954Y0020216D02*
D03*
X0262572Y0020216D02*
D03*
X0266509Y0020216D02*
D03*
X0259285Y0074153D02*
D03*
X0263222Y0074153D02*
D03*
X0282218Y0052539D02*
D03*
X0286155Y0052539D02*
D03*
X0289994Y0015098D02*
D03*
X0286056Y0015098D02*
D03*
D118*
X0287146Y0061161D02*
D03*
X0276122Y0061161D02*
D03*
D119*
X0254468Y0056838D02*
D03*
X0254468Y0063058D02*
D03*
X0268562Y0056838D02*
D03*
X0268562Y0063058D02*
D03*
X0263871Y0056838D02*
D03*
X0263871Y0063058D02*
D03*
X0259179Y0056838D02*
D03*
X0259179Y0063058D02*
D03*
X0267381Y0069082D02*
D03*
X0267381Y0075303D02*
D03*
D120*
X0263005Y0026976D02*
D03*
X0258005Y0026976D02*
D03*
X0253005Y0026976D02*
D03*
X0248005Y0026976D02*
D03*
X0263005Y0049613D02*
D03*
X0258005Y0049613D02*
D03*
X0253005Y0049613D02*
D03*
X0248005Y0049613D02*
D03*
X0286072Y0021693D02*
D03*
X0281072Y0021693D02*
D03*
X0276072Y0021693D02*
D03*
X0271072Y0021693D02*
D03*
X0286072Y0045118D02*
D03*
X0281072Y0045118D02*
D03*
X0276072Y0045118D02*
D03*
X0271072Y0045118D02*
D03*
D121*
X0255505Y0038294D02*
D03*
D122*
X0278572Y0033405D02*
D03*
X0307421Y0305059D02*
%LPD*%
G01*
G36*
G01*
X0338015Y0288130D02*
X0336834Y0288130D01*
G75*
G02*
X0336243Y0288720I0000000J0000591D01*
G01*
X0336243Y0292756D01*
G75*
G02*
X0336834Y0293346I0000591J0000000D01*
G01*
X0338015Y0293346D01*
G75*
G02*
X0338605Y0292756I0000000J-000591D01*
G01*
X0338605Y0288720D01*
G75*
G02*
X0338015Y0288130I-000591J0000000D01*
G01*
G37*
G36*
G01*
X0334274Y0288130D02*
X0333093Y0288130D01*
G75*
G02*
X0332503Y0288720I0000000J0000591D01*
G01*
X0332503Y0292756D01*
G75*
G02*
X0333093Y0293346I0000591J0000000D01*
G01*
X0334274Y0293346D01*
G75*
G02*
X0334865Y0292756I0000000J-000591D01*
G01*
X0334865Y0288720D01*
G75*
G02*
X0334274Y0288130I-000591J0000000D01*
G01*
G37*
G36*
G01*
X0330534Y0288130D02*
X0329353Y0288130D01*
G75*
G02*
X0328763Y0288720I0000000J0000591D01*
G01*
X0328763Y0292756D01*
G75*
G02*
X0329353Y0293346I0000591J0000000D01*
G01*
X0330534Y0293346D01*
G75*
G02*
X0331125Y0292756I0000000J-000591D01*
G01*
X0331125Y0288720D01*
G75*
G02*
X0330534Y0288130I-000591J0000000D01*
G01*
G37*
G36*
G01*
X0330534Y0297087D02*
X0329353Y0297087D01*
G75*
G02*
X0328763Y0297677I0000000J0000591D01*
G01*
X0328763Y0301713D01*
G75*
G02*
X0329353Y0302303I0000591J0000000D01*
G01*
X0330534Y0302303D01*
G75*
G02*
X0331125Y0301713I0000000J-000591D01*
G01*
X0331125Y0297677D01*
G75*
G02*
X0330534Y0297087I-000591J0000000D01*
G01*
G37*
G36*
G01*
X0338015Y0297087D02*
X0336834Y0297087D01*
G75*
G02*
X0336243Y0297677I0000000J0000591D01*
G01*
X0336243Y0301713D01*
G75*
G02*
X0336834Y0302303I0000591J0000000D01*
G01*
X0338015Y0302303D01*
G75*
G02*
X0338605Y0301713I0000000J-000591D01*
G01*
X0338605Y0297677D01*
G75*
G02*
X0338015Y0297087I-000591J0000000D01*
G01*
G37*
G36*
G01*
X0315728Y0288405D02*
X0315728Y0287067D01*
G75*
G02*
X0315177Y0286516I-000551J0000000D01*
G01*
X0314075Y0286516D01*
G75*
G02*
X0313523Y0287067I0000000J0000551D01*
G01*
X0313523Y0288405D01*
G75*
G02*
X0314075Y0288957I0000551J0000000D01*
G01*
X0315177Y0288957D01*
G75*
G02*
X0315728Y0288405I0000000J-000551D01*
G01*
G37*
G36*
G01*
X0311949Y0288405D02*
X0311949Y0287067D01*
G75*
G02*
X0311397Y0286516I-000551J0000000D01*
G01*
X0310295Y0286516D01*
G75*
G02*
X0309744Y0287067I0000000J0000551D01*
G01*
X0309744Y0288405D01*
G75*
G02*
X0310295Y0288957I0000551J0000000D01*
G01*
X0311397Y0288957D01*
G75*
G02*
X0311949Y0288405I0000000J-000551D01*
G01*
G37*
G36*
G01*
X0338445Y0261890D02*
X0339783Y0261890D01*
G75*
G02*
X0340334Y0261339I0000000J-000551D01*
G01*
X0340334Y0260236D01*
G75*
G02*
X0339783Y0259685I-000551J0000000D01*
G01*
X0338445Y0259685D01*
G75*
G02*
X0337893Y0260236I0000000J0000551D01*
G01*
X0337893Y0261339D01*
G75*
G02*
X0338445Y0261890I0000551J0000000D01*
G01*
G37*
G36*
G01*
X0338445Y0258110D02*
X0339783Y0258110D01*
G75*
G02*
X0340334Y0257559I0000000J-000551D01*
G01*
X0340334Y0256457D01*
G75*
G02*
X0339783Y0255905I-000551J0000000D01*
G01*
X0338445Y0255905D01*
G75*
G02*
X0337893Y0256457I0000000J0000551D01*
G01*
X0337893Y0257559D01*
G75*
G02*
X0338445Y0258110I0000551J0000000D01*
G01*
G37*
G36*
G01*
X0343445Y0248543D02*
X0342106Y0248543D01*
G75*
G02*
X0341555Y0249094I0000000J0000551D01*
G01*
X0341555Y0250197D01*
G75*
G02*
X0342106Y0250748I0000551J0000000D01*
G01*
X0343445Y0250748D01*
G75*
G02*
X0343996Y0250197I0000000J-000551D01*
G01*
X0343996Y0249094D01*
G75*
G02*
X0343445Y0248543I-000551J0000000D01*
G01*
G37*
G36*
G01*
X0343445Y0252323D02*
X0342106Y0252323D01*
G75*
G02*
X0341555Y0252874I0000000J0000551D01*
G01*
X0341555Y0253976D01*
G75*
G02*
X0342106Y0254528I0000551J0000000D01*
G01*
X0343445Y0254528D01*
G75*
G02*
X0343996Y0253976I0000000J-000551D01*
G01*
X0343996Y0252874D01*
G75*
G02*
X0343445Y0252323I-000551J0000000D01*
G01*
G37*
G36*
G01*
X0334704Y0270295D02*
X0336043Y0270295D01*
G75*
G02*
X0336594Y0269744I0000000J-000551D01*
G01*
X0336594Y0268642D01*
G75*
G02*
X0336043Y0268090I-000551J0000000D01*
G01*
X0334704Y0268090D01*
G75*
G02*
X0334153Y0268642I0000000J0000551D01*
G01*
X0334153Y0269744D01*
G75*
G02*
X0334704Y0270295I0000551J0000000D01*
G01*
G37*
G36*
G01*
X0334704Y0266516D02*
X0336043Y0266516D01*
G75*
G02*
X0336594Y0265965I0000000J-000551D01*
G01*
X0336594Y0264862D01*
G75*
G02*
X0336043Y0264311I-000551J0000000D01*
G01*
X0334704Y0264311D01*
G75*
G02*
X0334153Y0264862I0000000J0000551D01*
G01*
X0334153Y0265965D01*
G75*
G02*
X0334704Y0266516I0000551J0000000D01*
G01*
G37*
G36*
G01*
X0339783Y0248740D02*
X0338445Y0248740D01*
G75*
G02*
X0337893Y0249291I0000000J0000551D01*
G01*
X0337893Y0250394D01*
G75*
G02*
X0338445Y0250945I0000551J0000000D01*
G01*
X0339783Y0250945D01*
G75*
G02*
X0340334Y0250394I0000000J-000551D01*
G01*
X0340334Y0249291D01*
G75*
G02*
X0339783Y0248740I-000551J0000000D01*
G01*
G37*
G36*
G01*
X0339783Y0252520D02*
X0338445Y0252520D01*
G75*
G02*
X0337893Y0253071I0000000J0000551D01*
G01*
X0337893Y0254173D01*
G75*
G02*
X0338445Y0254724I0000551J0000000D01*
G01*
X0339783Y0254724D01*
G75*
G02*
X0340334Y0254173I0000000J-000551D01*
G01*
X0340334Y0253071D01*
G75*
G02*
X0339783Y0252520I-000551J0000000D01*
G01*
G37*
G36*
G01*
X0318267Y0254016D02*
X0319606Y0254016D01*
G75*
G02*
X0320157Y0253465I0000000J-000551D01*
G01*
X0320157Y0252362D01*
G75*
G02*
X0319606Y0251811I-000551J0000000D01*
G01*
X0318267Y0251811D01*
G75*
G02*
X0317716Y0252362I0000000J0000551D01*
G01*
X0317716Y0253465D01*
G75*
G02*
X0318267Y0254016I0000551J0000000D01*
G01*
G37*
G36*
G01*
X0318267Y0250236D02*
X0319606Y0250236D01*
G75*
G02*
X0320157Y0249685I0000000J-000551D01*
G01*
X0320157Y0248583D01*
G75*
G02*
X0319606Y0248031I-000551J0000000D01*
G01*
X0318267Y0248031D01*
G75*
G02*
X0317716Y0248583I0000000J0000551D01*
G01*
X0317716Y0249685D01*
G75*
G02*
X0318267Y0250236I0000551J0000000D01*
G01*
G37*
G36*
G01*
X0310767Y0284525D02*
X0311555Y0284525D01*
G75*
G02*
X0311949Y0284131I0000000J-000394D01*
G01*
X0311949Y0279111D01*
G75*
G02*
X0311555Y0278718I-000394J0000000D01*
G01*
X0310767Y0278718D01*
G75*
G02*
X0310374Y0279111I0000000J0000394D01*
G01*
X0310374Y0284131D01*
G75*
G02*
X0310767Y0284525I0000394J0000000D01*
G01*
G37*
G36*
G01*
X0313327Y0284525D02*
X0314114Y0284525D01*
G75*
G02*
X0314508Y0284131I0000000J-000394D01*
G01*
X0314508Y0279111D01*
G75*
G02*
X0314114Y0278718I-000394J0000000D01*
G01*
X0313327Y0278718D01*
G75*
G02*
X0312933Y0279111I0000000J0000394D01*
G01*
X0312933Y0284131D01*
G75*
G02*
X0313327Y0284525I0000394J0000000D01*
G01*
G37*
G36*
G01*
X0315886Y0284525D02*
X0316673Y0284525D01*
G75*
G02*
X0317067Y0284131I0000000J-000394D01*
G01*
X0317067Y0279111D01*
G75*
G02*
X0316673Y0278718I-000394J0000000D01*
G01*
X0315886Y0278718D01*
G75*
G02*
X0315492Y0279111I0000000J0000394D01*
G01*
X0315492Y0284131D01*
G75*
G02*
X0315886Y0284525I0000394J0000000D01*
G01*
G37*
G36*
G01*
X0318445Y0284525D02*
X0319232Y0284525D01*
G75*
G02*
X0319626Y0284131I0000000J-000394D01*
G01*
X0319626Y0279111D01*
G75*
G02*
X0319232Y0278718I-000394J0000000D01*
G01*
X0318445Y0278718D01*
G75*
G02*
X0318051Y0279111I0000000J0000394D01*
G01*
X0318051Y0284131D01*
G75*
G02*
X0318445Y0284525I0000394J0000000D01*
G01*
G37*
G36*
G01*
X0321004Y0284525D02*
X0321791Y0284525D01*
G75*
G02*
X0322185Y0284131I0000000J-000394D01*
G01*
X0322185Y0279111D01*
G75*
G02*
X0321791Y0278718I-000394J0000000D01*
G01*
X0321004Y0278718D01*
G75*
G02*
X0320610Y0279111I0000000J0000394D01*
G01*
X0320610Y0284131D01*
G75*
G02*
X0321004Y0284525I0000394J0000000D01*
G01*
G37*
G36*
G01*
X0323563Y0284525D02*
X0324350Y0284525D01*
G75*
G02*
X0324744Y0284131I0000000J-000394D01*
G01*
X0324744Y0279111D01*
G75*
G02*
X0324350Y0278718I-000394J0000000D01*
G01*
X0323563Y0278718D01*
G75*
G02*
X0323169Y0279111I0000000J0000394D01*
G01*
X0323169Y0284131D01*
G75*
G02*
X0323563Y0284525I0000394J0000000D01*
G01*
G37*
G36*
G01*
X0326122Y0284525D02*
X0326909Y0284525D01*
G75*
G02*
X0327303Y0284131I0000000J-000394D01*
G01*
X0327303Y0279111D01*
G75*
G02*
X0326909Y0278718I-000394J0000000D01*
G01*
X0326122Y0278718D01*
G75*
G02*
X0325728Y0279111I0000000J0000394D01*
G01*
X0325728Y0284131D01*
G75*
G02*
X0326122Y0284525I0000394J0000000D01*
G01*
G37*
G36*
G01*
X0326122Y0261985D02*
X0326909Y0261985D01*
G75*
G02*
X0327303Y0261592I0000000J-000394D01*
G01*
X0327303Y0256572D01*
G75*
G02*
X0326909Y0256178I-000394J0000000D01*
G01*
X0326122Y0256178D01*
G75*
G02*
X0325728Y0256572I0000000J0000394D01*
G01*
X0325728Y0261592D01*
G75*
G02*
X0326122Y0261985I0000394J0000000D01*
G01*
G37*
G36*
G01*
X0323563Y0261985D02*
X0324350Y0261985D01*
G75*
G02*
X0324744Y0261592I0000000J-000394D01*
G01*
X0324744Y0256572D01*
G75*
G02*
X0324350Y0256178I-000394J0000000D01*
G01*
X0323563Y0256178D01*
G75*
G02*
X0323169Y0256572I0000000J0000394D01*
G01*
X0323169Y0261592D01*
G75*
G02*
X0323563Y0261985I0000394J0000000D01*
G01*
G37*
G36*
G01*
X0321004Y0261985D02*
X0321791Y0261985D01*
G75*
G02*
X0322185Y0261592I0000000J-000394D01*
G01*
X0322185Y0256572D01*
G75*
G02*
X0321791Y0256178I-000394J0000000D01*
G01*
X0321004Y0256178D01*
G75*
G02*
X0320610Y0256572I0000000J0000394D01*
G01*
X0320610Y0261592D01*
G75*
G02*
X0321004Y0261985I0000394J0000000D01*
G01*
G37*
G36*
G01*
X0318445Y0261985D02*
X0319232Y0261985D01*
G75*
G02*
X0319626Y0261592I0000000J-000394D01*
G01*
X0319626Y0256572D01*
G75*
G02*
X0319232Y0256178I-000394J0000000D01*
G01*
X0318445Y0256178D01*
G75*
G02*
X0318051Y0256572I0000000J0000394D01*
G01*
X0318051Y0261592D01*
G75*
G02*
X0318445Y0261985I0000394J0000000D01*
G01*
G37*
G36*
G01*
X0315886Y0261985D02*
X0316673Y0261985D01*
G75*
G02*
X0317067Y0261592I0000000J-000394D01*
G01*
X0317067Y0256572D01*
G75*
G02*
X0316673Y0256178I-000394J0000000D01*
G01*
X0315886Y0256178D01*
G75*
G02*
X0315492Y0256572I0000000J0000394D01*
G01*
X0315492Y0261592D01*
G75*
G02*
X0315886Y0261985I0000394J0000000D01*
G01*
G37*
G36*
G01*
X0313327Y0261985D02*
X0314114Y0261985D01*
G75*
G02*
X0314508Y0261592I0000000J-000394D01*
G01*
X0314508Y0256572D01*
G75*
G02*
X0314114Y0256178I-000394J0000000D01*
G01*
X0313327Y0256178D01*
G75*
G02*
X0312933Y0256572I0000000J0000394D01*
G01*
X0312933Y0261592D01*
G75*
G02*
X0313327Y0261985I0000394J0000000D01*
G01*
G37*
G36*
G01*
X0310767Y0261985D02*
X0311555Y0261985D01*
G75*
G02*
X0311949Y0261592I0000000J-000394D01*
G01*
X0311949Y0256572D01*
G75*
G02*
X0311555Y0256178I-000394J0000000D01*
G01*
X0310767Y0256178D01*
G75*
G02*
X0310374Y0256572I0000000J0000394D01*
G01*
X0310374Y0261592D01*
G75*
G02*
X0310767Y0261985I0000394J0000000D01*
G01*
G37*
G36*
G01*
X0318638Y0302168D02*
X0322181Y0302168D01*
G75*
G02*
X0323165Y0301184I0000000J-000984D01*
G01*
X0323165Y0299117D01*
G75*
G02*
X0322181Y0298133I-000984J0000000D01*
G01*
X0318638Y0298133D01*
G75*
G02*
X0317653Y0299117I0000000J0000984D01*
G01*
X0317653Y0301184D01*
G75*
G02*
X0318638Y0302168I0000984J0000000D01*
G01*
G37*
G36*
G01*
X0318638Y0294983D02*
X0322181Y0294983D01*
G75*
G02*
X0323165Y0293999I0000000J-000984D01*
G01*
X0323165Y0291932D01*
G75*
G02*
X0322181Y0290948I-000984J0000000D01*
G01*
X0318638Y0290948D01*
G75*
G02*
X0317653Y0291932I0000000J0000984D01*
G01*
X0317653Y0293999D01*
G75*
G02*
X0318638Y0294983I0000984J0000000D01*
G01*
G37*
G36*
G01*
X0332362Y0255925D02*
X0330905Y0255925D01*
G75*
G02*
X0330374Y0256457I0000000J0000531D01*
G01*
X0330374Y0257520D01*
G75*
G02*
X0330905Y0258051I0000531J0000000D01*
G01*
X0332362Y0258051D01*
G75*
G02*
X0332893Y0257520I0000000J-000531D01*
G01*
X0332893Y0256457D01*
G75*
G02*
X0332362Y0255925I-000531J0000000D01*
G01*
G37*
G36*
G01*
X0332362Y0259941D02*
X0330905Y0259941D01*
G75*
G02*
X0330374Y0260472I0000000J0000531D01*
G01*
X0330374Y0261535D01*
G75*
G02*
X0330905Y0262067I0000531J0000000D01*
G01*
X0332362Y0262067D01*
G75*
G02*
X0332893Y0261535I0000000J-000531D01*
G01*
X0332893Y0260472D01*
G75*
G02*
X0332362Y0259941I-000531J0000000D01*
G01*
G37*
G36*
G01*
X0343287Y0296358D02*
X0341949Y0296358D01*
G75*
G02*
X0341397Y0296909I0000000J0000551D01*
G01*
X0341397Y0298012D01*
G75*
G02*
X0341949Y0298563I0000551J0000000D01*
G01*
X0343287Y0298563D01*
G75*
G02*
X0343838Y0298012I0000000J-000551D01*
G01*
X0343838Y0296909D01*
G75*
G02*
X0343287Y0296358I-000551J0000000D01*
G01*
G37*
G36*
G01*
X0343287Y0300138D02*
X0341949Y0300138D01*
G75*
G02*
X0341397Y0300689I0000000J0000551D01*
G01*
X0341397Y0301791D01*
G75*
G02*
X0341949Y0302342I0000551J0000000D01*
G01*
X0343287Y0302342D01*
G75*
G02*
X0343838Y0301791I0000000J-000551D01*
G01*
X0343838Y0300689D01*
G75*
G02*
X0343287Y0300138I-000551J0000000D01*
G01*
G37*
G36*
G01*
X0336102Y0248248D02*
X0334645Y0248248D01*
G75*
G02*
X0334114Y0248779I0000000J0000531D01*
G01*
X0334114Y0249842D01*
G75*
G02*
X0334645Y0250374I0000531J0000000D01*
G01*
X0336102Y0250374D01*
G75*
G02*
X0336634Y0249842I0000000J-000531D01*
G01*
X0336634Y0248779D01*
G75*
G02*
X0336102Y0248248I-000531J0000000D01*
G01*
G37*
G36*
G01*
X0336102Y0252264D02*
X0334645Y0252264D01*
G75*
G02*
X0334114Y0252795I0000000J0000531D01*
G01*
X0334114Y0253858D01*
G75*
G02*
X0334645Y0254390I0000531J0000000D01*
G01*
X0336102Y0254390D01*
G75*
G02*
X0336634Y0253858I0000000J-000531D01*
G01*
X0336634Y0252795D01*
G75*
G02*
X0336102Y0252264I-000531J0000000D01*
G01*
G37*
G36*
G01*
X0332362Y0264181D02*
X0330906Y0264181D01*
G75*
G02*
X0330374Y0264713I0000000J0000531D01*
G01*
X0330374Y0265776D01*
G75*
G02*
X0330906Y0266307I0000531J0000000D01*
G01*
X0332362Y0266307D01*
G75*
G02*
X0332894Y0265776I0000000J-000531D01*
G01*
X0332894Y0264713D01*
G75*
G02*
X0332362Y0264181I-000531J0000000D01*
G01*
G37*
G36*
G01*
X0332362Y0268197D02*
X0330906Y0268197D01*
G75*
G02*
X0330374Y0268729I0000000J0000531D01*
G01*
X0330374Y0269792D01*
G75*
G02*
X0330906Y0270323I0000531J0000000D01*
G01*
X0332362Y0270323D01*
G75*
G02*
X0332894Y0269792I0000000J-000531D01*
G01*
X0332894Y0268729D01*
G75*
G02*
X0332362Y0268197I-000531J0000000D01*
G01*
G37*
G36*
G01*
X0314606Y0290948D02*
X0311063Y0290948D01*
G75*
G02*
X0310078Y0291932I0000000J0000984D01*
G01*
X0310078Y0293999D01*
G75*
G02*
X0311063Y0294983I0000984J0000000D01*
G01*
X0314606Y0294983D01*
G75*
G02*
X0315590Y0293999I0000000J-000984D01*
G01*
X0315590Y0291932D01*
G75*
G02*
X0314606Y0290948I-000984J0000000D01*
G01*
G37*
G36*
G01*
X0314606Y0298133D02*
X0311063Y0298133D01*
G75*
G02*
X0310078Y0299117I0000000J0000984D01*
G01*
X0310078Y0301184D01*
G75*
G02*
X0311063Y0302168I0000984J0000000D01*
G01*
X0314606Y0302168D01*
G75*
G02*
X0315590Y0301184I0000000J-000984D01*
G01*
X0315590Y0299117D01*
G75*
G02*
X0314606Y0298133I-000984J0000000D01*
G01*
G37*
G36*
G01*
X0343504Y0264232D02*
X0342047Y0264232D01*
G75*
G02*
X0341515Y0264764I0000000J0000531D01*
G01*
X0341515Y0265827D01*
G75*
G02*
X0342047Y0266358I0000531J0000000D01*
G01*
X0343504Y0266358D01*
G75*
G02*
X0344035Y0265827I0000000J-000531D01*
G01*
X0344035Y0264764D01*
G75*
G02*
X0343504Y0264232I-000531J0000000D01*
G01*
G37*
G36*
G01*
X0343504Y0268248D02*
X0342047Y0268248D01*
G75*
G02*
X0341515Y0268779I0000000J0000531D01*
G01*
X0341515Y0269842D01*
G75*
G02*
X0342047Y0270374I0000531J0000000D01*
G01*
X0343504Y0270374D01*
G75*
G02*
X0344035Y0269842I0000000J-000531D01*
G01*
X0344035Y0268779D01*
G75*
G02*
X0343504Y0268248I-000531J0000000D01*
G01*
G37*
G36*
G01*
X0310000Y0254547D02*
X0311456Y0254547D01*
G75*
G02*
X0311988Y0254016I0000000J-000531D01*
G01*
X0311988Y0252953D01*
G75*
G02*
X0311456Y0252421I-000531J0000000D01*
G01*
X0310000Y0252421D01*
G75*
G02*
X0309468Y0252953I0000000J0000531D01*
G01*
X0309468Y0254016D01*
G75*
G02*
X0310000Y0254547I0000531J0000000D01*
G01*
G37*
G36*
G01*
X0310000Y0250531D02*
X0311456Y0250531D01*
G75*
G02*
X0311988Y0250000I0000000J-000531D01*
G01*
X0311988Y0248937D01*
G75*
G02*
X0311456Y0248405I-000531J0000000D01*
G01*
X0310000Y0248405D01*
G75*
G02*
X0309468Y0248937I0000000J0000531D01*
G01*
X0309468Y0250000D01*
G75*
G02*
X0310000Y0250531I0000531J0000000D01*
G01*
G37*
G36*
G01*
X0321949Y0254094D02*
X0323405Y0254094D01*
G75*
G02*
X0323937Y0253563I0000000J-000531D01*
G01*
X0323937Y0252500D01*
G75*
G02*
X0323405Y0251968I-000531J0000000D01*
G01*
X0321949Y0251968D01*
G75*
G02*
X0321417Y0252500I0000000J0000531D01*
G01*
X0321417Y0253563D01*
G75*
G02*
X0321949Y0254094I0000531J0000000D01*
G01*
G37*
G36*
G01*
X0321949Y0250079D02*
X0323405Y0250079D01*
G75*
G02*
X0323937Y0249547I0000000J-000531D01*
G01*
X0323937Y0248484D01*
G75*
G02*
X0323405Y0247953I-000531J0000000D01*
G01*
X0321949Y0247953D01*
G75*
G02*
X0321417Y0248484I0000000J0000531D01*
G01*
X0321417Y0249547D01*
G75*
G02*
X0321949Y0250079I0000531J0000000D01*
G01*
G37*
G36*
G01*
X0336102Y0255630D02*
X0334645Y0255630D01*
G75*
G02*
X0334114Y0256161I0000000J0000531D01*
G01*
X0334114Y0257224D01*
G75*
G02*
X0334645Y0257756I0000531J0000000D01*
G01*
X0336102Y0257756D01*
G75*
G02*
X0336634Y0257224I0000000J-000531D01*
G01*
X0336634Y0256161D01*
G75*
G02*
X0336102Y0255630I-000531J0000000D01*
G01*
G37*
G36*
G01*
X0336102Y0259646D02*
X0334645Y0259646D01*
G75*
G02*
X0334114Y0260177I0000000J0000531D01*
G01*
X0334114Y0261240D01*
G75*
G02*
X0334645Y0261772I0000531J0000000D01*
G01*
X0336102Y0261772D01*
G75*
G02*
X0336634Y0261240I0000000J-000531D01*
G01*
X0336634Y0260177D01*
G75*
G02*
X0336102Y0259646I-000531J0000000D01*
G01*
G37*
G36*
G01*
X0327185Y0247933D02*
X0325846Y0247933D01*
G75*
G02*
X0325295Y0248484I0000000J0000551D01*
G01*
X0325295Y0249587D01*
G75*
G02*
X0325846Y0250138I0000551J0000000D01*
G01*
X0327185Y0250138D01*
G75*
G02*
X0327736Y0249587I0000000J-000551D01*
G01*
X0327736Y0248484D01*
G75*
G02*
X0327185Y0247933I-000551J0000000D01*
G01*
G37*
G36*
G01*
X0327185Y0251713D02*
X0325846Y0251713D01*
G75*
G02*
X0325295Y0252264I0000000J0000551D01*
G01*
X0325295Y0253366D01*
G75*
G02*
X0325846Y0253917I0000551J0000000D01*
G01*
X0327185Y0253917D01*
G75*
G02*
X0327736Y0253366I0000000J-000551D01*
G01*
X0327736Y0252264D01*
G75*
G02*
X0327185Y0251713I-000551J0000000D01*
G01*
G37*
G36*
G01*
X0316970Y0287081D02*
X0316970Y0288419D01*
G75*
G02*
X0317521Y0288971I0000551J0000000D01*
G01*
X0318623Y0288971D01*
G75*
G02*
X0319175Y0288419I0000000J-000551D01*
G01*
X0319175Y0287081D01*
G75*
G02*
X0318623Y0286530I-000551J0000000D01*
G01*
X0317521Y0286530D01*
G75*
G02*
X0316970Y0287081I0000000J0000551D01*
G01*
G37*
G36*
G01*
X0320749Y0287081D02*
X0320749Y0288419D01*
G75*
G02*
X0321300Y0288971I0000551J0000000D01*
G01*
X0322403Y0288971D01*
G75*
G02*
X0322954Y0288419I0000000J-000551D01*
G01*
X0322954Y0287081D01*
G75*
G02*
X0322403Y0286530I-000551J0000000D01*
G01*
X0321300Y0286530D01*
G75*
G02*
X0320749Y0287081I0000000J0000551D01*
G01*
G37*
G36*
G01*
X0330905Y0254587D02*
X0332362Y0254587D01*
G75*
G02*
X0332893Y0254055I0000000J-000531D01*
G01*
X0332893Y0252992D01*
G75*
G02*
X0332362Y0252461I-000531J0000000D01*
G01*
X0330905Y0252461D01*
G75*
G02*
X0330374Y0252992I0000000J0000531D01*
G01*
X0330374Y0254055D01*
G75*
G02*
X0330905Y0254587I0000531J0000000D01*
G01*
G37*
G36*
G01*
X0330905Y0250571D02*
X0332362Y0250571D01*
G75*
G02*
X0332893Y0250039I0000000J-000531D01*
G01*
X0332893Y0248976D01*
G75*
G02*
X0332362Y0248445I-000531J0000000D01*
G01*
X0330905Y0248445D01*
G75*
G02*
X0330374Y0248976I0000000J0000531D01*
G01*
X0330374Y0250039D01*
G75*
G02*
X0330905Y0250571I0000531J0000000D01*
G01*
G37*
G36*
G01*
X0342264Y0271988D02*
X0341082Y0271988D01*
G75*
G02*
X0340492Y0272579I0000000J0000591D01*
G01*
X0340492Y0276614D01*
G75*
G02*
X0341082Y0277205I0000591J0000000D01*
G01*
X0342264Y0277205D01*
G75*
G02*
X0342854Y0276614I0000000J-000591D01*
G01*
X0342854Y0272579D01*
G75*
G02*
X0342264Y0271988I-000591J0000000D01*
G01*
G37*
G36*
G01*
X0338523Y0271988D02*
X0337342Y0271988D01*
G75*
G02*
X0336752Y0272579I0000000J0000591D01*
G01*
X0336752Y0276614D01*
G75*
G02*
X0337342Y0277205I0000591J0000000D01*
G01*
X0338523Y0277205D01*
G75*
G02*
X0339114Y0276614I0000000J-000591D01*
G01*
X0339114Y0272579D01*
G75*
G02*
X0338523Y0271988I-000591J0000000D01*
G01*
G37*
G36*
G01*
X0334783Y0271988D02*
X0333602Y0271988D01*
G75*
G02*
X0333012Y0272579I0000000J0000591D01*
G01*
X0333012Y0276614D01*
G75*
G02*
X0333602Y0277205I0000591J0000000D01*
G01*
X0334783Y0277205D01*
G75*
G02*
X0335374Y0276614I0000000J-000591D01*
G01*
X0335374Y0272579D01*
G75*
G02*
X0334783Y0271988I-000591J0000000D01*
G01*
G37*
G36*
G01*
X0334783Y0280945D02*
X0333602Y0280945D01*
G75*
G02*
X0333012Y0281535I0000000J0000591D01*
G01*
X0333012Y0285571D01*
G75*
G02*
X0333602Y0286161I0000591J0000000D01*
G01*
X0334783Y0286161D01*
G75*
G02*
X0335374Y0285571I0000000J-000591D01*
G01*
X0335374Y0281535D01*
G75*
G02*
X0334783Y0280945I-000591J0000000D01*
G01*
G37*
G36*
G01*
X0342264Y0280945D02*
X0341082Y0280945D01*
G75*
G02*
X0340492Y0281535I0000000J0000591D01*
G01*
X0340492Y0285571D01*
G75*
G02*
X0341082Y0286161I0000591J0000000D01*
G01*
X0342264Y0286161D01*
G75*
G02*
X0342854Y0285571I0000000J-000591D01*
G01*
X0342854Y0281535D01*
G75*
G02*
X0342264Y0280945I-000591J0000000D01*
G01*
G37*
G36*
G01*
X0338445Y0270295D02*
X0339783Y0270295D01*
G75*
G02*
X0340334Y0269744I0000000J-000551D01*
G01*
X0340334Y0268642D01*
G75*
G02*
X0339783Y0268090I-000551J0000000D01*
G01*
X0338445Y0268090D01*
G75*
G02*
X0337893Y0268642I0000000J0000551D01*
G01*
X0337893Y0269744D01*
G75*
G02*
X0338445Y0270295I0000551J0000000D01*
G01*
G37*
G36*
G01*
X0338445Y0266516D02*
X0339783Y0266516D01*
G75*
G02*
X0340334Y0265965I0000000J-000551D01*
G01*
X0340334Y0264862D01*
G75*
G02*
X0339783Y0264311I-000551J0000000D01*
G01*
X0338445Y0264311D01*
G75*
G02*
X0337893Y0264862I0000000J0000551D01*
G01*
X0337893Y0265965D01*
G75*
G02*
X0338445Y0266516I0000551J0000000D01*
G01*
G37*
X0263917Y0305059D02*
%LPD*%
G01*
X0532421Y0155945D02*
%LPD*%
G01*
G36*
G01*
X0525062Y0235650D02*
X0523704Y0235650D01*
G75*
G02*
X0523123Y0236230I0000000J0000581D01*
G01*
X0523123Y0237392D01*
G75*
G02*
X0523704Y0237973I0000581J0000000D01*
G01*
X0525062Y0237973D01*
G75*
G02*
X0525643Y0237392I0000000J-000581D01*
G01*
X0525643Y0236230D01*
G75*
G02*
X0525062Y0235650I-000581J0000000D01*
G01*
G37*
G36*
G01*
X0525062Y0239469D02*
X0523704Y0239469D01*
G75*
G02*
X0523123Y0240049I0000000J0000581D01*
G01*
X0523123Y0241211D01*
G75*
G02*
X0523704Y0241791I0000581J0000000D01*
G01*
X0525062Y0241791D01*
G75*
G02*
X0525643Y0241211I0000000J-000581D01*
G01*
X0525643Y0240049D01*
G75*
G02*
X0525062Y0239469I-000581J0000000D01*
G01*
G37*
G36*
G01*
X0509773Y0250118D02*
X0508415Y0250118D01*
G75*
G02*
X0507834Y0250699I0000000J0000581D01*
G01*
X0507834Y0251860D01*
G75*
G02*
X0508415Y0252441I0000581J0000000D01*
G01*
X0509773Y0252441D01*
G75*
G02*
X0510354Y0251860I0000000J-000581D01*
G01*
X0510354Y0250699D01*
G75*
G02*
X0509773Y0250118I-000581J0000000D01*
G01*
G37*
G36*
G01*
X0509773Y0253937D02*
X0508415Y0253937D01*
G75*
G02*
X0507834Y0254518I0000000J0000581D01*
G01*
X0507834Y0255679D01*
G75*
G02*
X0508415Y0256260I0000581J0000000D01*
G01*
X0509773Y0256260D01*
G75*
G02*
X0510354Y0255679I0000000J-000581D01*
G01*
X0510354Y0254518D01*
G75*
G02*
X0509773Y0253937I-000581J0000000D01*
G01*
G37*
G36*
G01*
X0483577Y0200236D02*
X0485595Y0200236D01*
G75*
G02*
X0486456Y0199375I0000000J-000861D01*
G01*
X0486456Y0197653D01*
G75*
G02*
X0485595Y0196791I-000861J0000000D01*
G01*
X0483577Y0196791D01*
G75*
G02*
X0482716Y0197653I0000000J0000861D01*
G01*
X0482716Y0199375D01*
G75*
G02*
X0483577Y0200236I0000861J0000000D01*
G01*
G37*
G36*
G01*
X0483577Y0194036D02*
X0485595Y0194036D01*
G75*
G02*
X0486456Y0193174I0000000J-000861D01*
G01*
X0486456Y0191452D01*
G75*
G02*
X0485595Y0190591I-000861J0000000D01*
G01*
X0483577Y0190591D01*
G75*
G02*
X0482716Y0191452I0000000J0000861D01*
G01*
X0482716Y0193174D01*
G75*
G02*
X0483577Y0194036I0000861J0000000D01*
G01*
G37*
G36*
G01*
X0527903Y0241791D02*
X0529262Y0241791D01*
G75*
G02*
X0529842Y0241211I0000000J-000581D01*
G01*
X0529842Y0240049D01*
G75*
G02*
X0529262Y0239469I-000581J0000000D01*
G01*
X0527903Y0239469D01*
G75*
G02*
X0527323Y0240049I0000000J0000581D01*
G01*
X0527323Y0241211D01*
G75*
G02*
X0527903Y0241791I0000581J0000000D01*
G01*
G37*
G36*
G01*
X0527903Y0237973D02*
X0529262Y0237973D01*
G75*
G02*
X0529842Y0237392I0000000J-000581D01*
G01*
X0529842Y0236230D01*
G75*
G02*
X0529262Y0235650I-000581J0000000D01*
G01*
X0527903Y0235650D01*
G75*
G02*
X0527323Y0236230I0000000J0000581D01*
G01*
X0527323Y0237392D01*
G75*
G02*
X0527903Y0237973I0000581J0000000D01*
G01*
G37*
G36*
G01*
X0488907Y0182090D02*
X0487549Y0182090D01*
G75*
G02*
X0486968Y0182670I0000000J0000581D01*
G01*
X0486968Y0183832D01*
G75*
G02*
X0487549Y0184412I0000581J0000000D01*
G01*
X0488907Y0184412D01*
G75*
G02*
X0489488Y0183832I0000000J-000581D01*
G01*
X0489488Y0182670D01*
G75*
G02*
X0488907Y0182090I-000581J0000000D01*
G01*
G37*
G36*
G01*
X0488907Y0185908D02*
X0487549Y0185908D01*
G75*
G02*
X0486968Y0186489I0000000J0000581D01*
G01*
X0486968Y0187651D01*
G75*
G02*
X0487549Y0188231I0000581J0000000D01*
G01*
X0488907Y0188231D01*
G75*
G02*
X0489488Y0187651I0000000J-000581D01*
G01*
X0489488Y0186489D01*
G75*
G02*
X0488907Y0185908I-000581J0000000D01*
G01*
G37*
G36*
G01*
X0490777Y0190177D02*
X0489419Y0190177D01*
G75*
G02*
X0488838Y0190758I0000000J0000581D01*
G01*
X0488838Y0191919D01*
G75*
G02*
X0489419Y0192500I0000581J0000000D01*
G01*
X0490777Y0192500D01*
G75*
G02*
X0491358Y0191919I0000000J-000581D01*
G01*
X0491358Y0190758D01*
G75*
G02*
X0490777Y0190177I-000581J0000000D01*
G01*
G37*
G36*
G01*
X0490777Y0193996D02*
X0489419Y0193996D01*
G75*
G02*
X0488838Y0194577I0000000J0000581D01*
G01*
X0488838Y0195738D01*
G75*
G02*
X0489419Y0196319I0000581J0000000D01*
G01*
X0490777Y0196319D01*
G75*
G02*
X0491358Y0195738I0000000J-000581D01*
G01*
X0491358Y0194577D01*
G75*
G02*
X0490777Y0193996I-000581J0000000D01*
G01*
G37*
G36*
G01*
X0483445Y0161565D02*
X0483445Y0162923D01*
G75*
G02*
X0484025Y0163504I0000581J0000000D01*
G01*
X0485187Y0163504D01*
G75*
G02*
X0485767Y0162923I0000000J-000581D01*
G01*
X0485767Y0161565D01*
G75*
G02*
X0485187Y0160984I-000581J0000000D01*
G01*
X0484025Y0160984D01*
G75*
G02*
X0483445Y0161565I0000000J0000581D01*
G01*
G37*
G36*
G01*
X0487264Y0161565D02*
X0487264Y0162923D01*
G75*
G02*
X0487844Y0163504I0000581J0000000D01*
G01*
X0489006Y0163504D01*
G75*
G02*
X0489586Y0162923I0000000J-000581D01*
G01*
X0489586Y0161565D01*
G75*
G02*
X0489006Y0160984I-000581J0000000D01*
G01*
X0487844Y0160984D01*
G75*
G02*
X0487264Y0161565I0000000J0000581D01*
G01*
G37*
G36*
G01*
X0501033Y0211083D02*
X0502391Y0211083D01*
G75*
G02*
X0502972Y0210502I0000000J-000581D01*
G01*
X0502972Y0209341D01*
G75*
G02*
X0502391Y0208760I-000581J0000000D01*
G01*
X0501033Y0208760D01*
G75*
G02*
X0500452Y0209341I0000000J0000581D01*
G01*
X0500452Y0210502D01*
G75*
G02*
X0501033Y0211083I0000581J0000000D01*
G01*
G37*
G36*
G01*
X0501033Y0207264D02*
X0502391Y0207264D01*
G75*
G02*
X0502972Y0206683I0000000J-000581D01*
G01*
X0502972Y0205522D01*
G75*
G02*
X0502391Y0204941I-000581J0000000D01*
G01*
X0501033Y0204941D01*
G75*
G02*
X0500452Y0205522I0000000J0000581D01*
G01*
X0500452Y0206683D01*
G75*
G02*
X0501033Y0207264I0000581J0000000D01*
G01*
G37*
G36*
G01*
X0506328Y0204941D02*
X0504970Y0204941D01*
G75*
G02*
X0504390Y0205522I0000000J0000581D01*
G01*
X0504390Y0206683D01*
G75*
G02*
X0504970Y0207264I0000581J0000000D01*
G01*
X0506328Y0207264D01*
G75*
G02*
X0506909Y0206683I0000000J-000581D01*
G01*
X0506909Y0205522D01*
G75*
G02*
X0506328Y0204941I-000581J0000000D01*
G01*
G37*
G36*
G01*
X0506328Y0208760D02*
X0504970Y0208760D01*
G75*
G02*
X0504390Y0209341I0000000J0000581D01*
G01*
X0504390Y0210502D01*
G75*
G02*
X0504970Y0211083I0000581J0000000D01*
G01*
X0506328Y0211083D01*
G75*
G02*
X0506909Y0210502I0000000J-000581D01*
G01*
X0506909Y0209341D01*
G75*
G02*
X0506328Y0208760I-000581J0000000D01*
G01*
G37*
G36*
G01*
X0503888Y0252421D02*
X0505246Y0252421D01*
G75*
G02*
X0505827Y0251841I0000000J-000581D01*
G01*
X0505827Y0250679D01*
G75*
G02*
X0505246Y0250099I-000581J0000000D01*
G01*
X0503888Y0250099D01*
G75*
G02*
X0503307Y0250679I0000000J0000581D01*
G01*
X0503307Y0251841D01*
G75*
G02*
X0503888Y0252421I0000581J0000000D01*
G01*
G37*
G36*
G01*
X0503888Y0248602D02*
X0505246Y0248602D01*
G75*
G02*
X0505827Y0248022I0000000J-000581D01*
G01*
X0505827Y0246860D01*
G75*
G02*
X0505246Y0246280I-000581J0000000D01*
G01*
X0503888Y0246280D01*
G75*
G02*
X0503307Y0246860I0000000J0000581D01*
G01*
X0503307Y0248022D01*
G75*
G02*
X0503888Y0248602I0000581J0000000D01*
G01*
G37*
D252*
X0527303Y0198071D03*
X0524744Y0198071D03*
X0522185Y0198071D03*
X0519626Y0198071D03*
X0517067Y0198071D03*
X0514508Y0198071D03*
X0511949Y0198071D03*
X0511949Y0221299D03*
X0514508Y0221299D03*
X0517067Y0221299D03*
X0519626Y0221299D03*
X0522185Y0221299D03*
X0524744Y0221299D03*
X0527303Y0221299D03*
G36*
G01*
X0483809Y0188248D02*
X0485167Y0188248D01*
G75*
G02*
X0485748Y0187667I0000000J-000581D01*
G01*
X0485748Y0186506D01*
G75*
G02*
X0485167Y0185925I-000581J0000000D01*
G01*
X0483809Y0185925D01*
G75*
G02*
X0483228Y0186506I0000000J0000581D01*
G01*
X0483228Y0187667D01*
G75*
G02*
X0483809Y0188248I0000581J0000000D01*
G01*
G37*
G36*
G01*
X0483809Y0184429D02*
X0485167Y0184429D01*
G75*
G02*
X0485748Y0183849I0000000J-000581D01*
G01*
X0485748Y0182687D01*
G75*
G02*
X0485167Y0182106I-000581J0000000D01*
G01*
X0483809Y0182106D01*
G75*
G02*
X0483228Y0182687I0000000J0000581D01*
G01*
X0483228Y0183849D01*
G75*
G02*
X0483809Y0184429I0000581J0000000D01*
G01*
G37*
G36*
G01*
X0481427Y0182106D02*
X0480069Y0182106D01*
G75*
G02*
X0479488Y0182687I0000000J0000581D01*
G01*
X0479488Y0183849D01*
G75*
G02*
X0480069Y0184429I0000581J0000000D01*
G01*
X0481427Y0184429D01*
G75*
G02*
X0482008Y0183849I0000000J-000581D01*
G01*
X0482008Y0182687D01*
G75*
G02*
X0481427Y0182106I-000581J0000000D01*
G01*
G37*
G36*
G01*
X0481427Y0185925D02*
X0480069Y0185925D01*
G75*
G02*
X0479488Y0186506I0000000J0000581D01*
G01*
X0479488Y0187667D01*
G75*
G02*
X0480069Y0188248I0000581J0000000D01*
G01*
X0481427Y0188248D01*
G75*
G02*
X0482008Y0187667I0000000J-000581D01*
G01*
X0482008Y0186506D01*
G75*
G02*
X0481427Y0185925I-000581J0000000D01*
G01*
G37*
G36*
G01*
X0490876Y0242343D02*
X0489517Y0242343D01*
G75*
G02*
X0488937Y0242923I0000000J0000581D01*
G01*
X0488937Y0244085D01*
G75*
G02*
X0489517Y0244665I0000581J0000000D01*
G01*
X0490876Y0244665D01*
G75*
G02*
X0491456Y0244085I0000000J-000581D01*
G01*
X0491456Y0242923D01*
G75*
G02*
X0490876Y0242343I-000581J0000000D01*
G01*
G37*
G36*
G01*
X0490876Y0246162D02*
X0489517Y0246162D01*
G75*
G02*
X0488937Y0246742I0000000J0000581D01*
G01*
X0488937Y0247904D01*
G75*
G02*
X0489517Y0248484I0000581J0000000D01*
G01*
X0490876Y0248484D01*
G75*
G02*
X0491456Y0247904I0000000J-000581D01*
G01*
X0491456Y0246742D01*
G75*
G02*
X0490876Y0246162I-000581J0000000D01*
G01*
G37*
G36*
G01*
X0520174Y0235650D02*
X0518815Y0235650D01*
G75*
G02*
X0518235Y0236230I0000000J0000581D01*
G01*
X0518235Y0237392D01*
G75*
G02*
X0518815Y0237973I0000581J0000000D01*
G01*
X0520174Y0237973D01*
G75*
G02*
X0520754Y0237392I0000000J-000581D01*
G01*
X0520754Y0236230D01*
G75*
G02*
X0520174Y0235650I-000581J0000000D01*
G01*
G37*
G36*
G01*
X0520174Y0239469D02*
X0518815Y0239469D01*
G75*
G02*
X0518235Y0240049I0000000J0000581D01*
G01*
X0518235Y0241211D01*
G75*
G02*
X0518815Y0241791I0000581J0000000D01*
G01*
X0520174Y0241791D01*
G75*
G02*
X0520754Y0241211I0000000J-000581D01*
G01*
X0520754Y0240049D01*
G75*
G02*
X0520174Y0239469I-000581J0000000D01*
G01*
G37*
G36*
G01*
X0497096Y0207835D02*
X0498454Y0207835D01*
G75*
G02*
X0499035Y0207254I0000000J-000581D01*
G01*
X0499035Y0206093D01*
G75*
G02*
X0498454Y0205512I-000581J0000000D01*
G01*
X0497096Y0205512D01*
G75*
G02*
X0496515Y0206093I0000000J0000581D01*
G01*
X0496515Y0207254D01*
G75*
G02*
X0497096Y0207835I0000581J0000000D01*
G01*
G37*
G36*
G01*
X0497096Y0204016D02*
X0498454Y0204016D01*
G75*
G02*
X0499035Y0203435I0000000J-000581D01*
G01*
X0499035Y0202274D01*
G75*
G02*
X0498454Y0201693I-000581J0000000D01*
G01*
X0497096Y0201693D01*
G75*
G02*
X0496515Y0202274I0000000J0000581D01*
G01*
X0496515Y0203435D01*
G75*
G02*
X0497096Y0204016I0000581J0000000D01*
G01*
G37*
G36*
G01*
X0489517Y0256162D02*
X0490876Y0256162D01*
G75*
G02*
X0491456Y0255581I0000000J-000581D01*
G01*
X0491456Y0254419D01*
G75*
G02*
X0490876Y0253839I-000581J0000000D01*
G01*
X0489517Y0253839D01*
G75*
G02*
X0488937Y0254419I0000000J0000581D01*
G01*
X0488937Y0255581D01*
G75*
G02*
X0489517Y0256162I0000581J0000000D01*
G01*
G37*
G36*
G01*
X0489517Y0252343D02*
X0490876Y0252343D01*
G75*
G02*
X0491456Y0251762I0000000J-000581D01*
G01*
X0491456Y0250601D01*
G75*
G02*
X0490876Y0250020I-000581J0000000D01*
G01*
X0489517Y0250020D01*
G75*
G02*
X0488937Y0250601I0000000J0000581D01*
G01*
X0488937Y0251762D01*
G75*
G02*
X0489517Y0252343I0000581J0000000D01*
G01*
G37*
G36*
G01*
X0504970Y0203701D02*
X0506328Y0203701D01*
G75*
G02*
X0506909Y0203120I0000000J-000581D01*
G01*
X0506909Y0201959D01*
G75*
G02*
X0506328Y0201378I-000581J0000000D01*
G01*
X0504970Y0201378D01*
G75*
G02*
X0504390Y0201959I0000000J0000581D01*
G01*
X0504390Y0203120D01*
G75*
G02*
X0504970Y0203701I0000581J0000000D01*
G01*
G37*
G36*
G01*
X0504970Y0199882D02*
X0506328Y0199882D01*
G75*
G02*
X0506909Y0199301I0000000J-000581D01*
G01*
X0506909Y0198140D01*
G75*
G02*
X0506328Y0197559I-000581J0000000D01*
G01*
X0504970Y0197559D01*
G75*
G02*
X0504390Y0198140I0000000J0000581D01*
G01*
X0504390Y0199301D01*
G75*
G02*
X0504970Y0199882I0000581J0000000D01*
G01*
G37*
G36*
G01*
X0529586Y0192451D02*
X0529586Y0191093D01*
G75*
G02*
X0529006Y0190512I-000581J0000000D01*
G01*
X0527844Y0190512D01*
G75*
G02*
X0527264Y0191093I0000000J0000581D01*
G01*
X0527264Y0192451D01*
G75*
G02*
X0527844Y0193032I0000581J0000000D01*
G01*
X0529006Y0193032D01*
G75*
G02*
X0529586Y0192451I0000000J-000581D01*
G01*
G37*
G36*
G01*
X0525767Y0192451D02*
X0525767Y0191093D01*
G75*
G02*
X0525187Y0190512I-000581J0000000D01*
G01*
X0524025Y0190512D01*
G75*
G02*
X0523445Y0191093I0000000J0000581D01*
G01*
X0523445Y0192451D01*
G75*
G02*
X0524025Y0193032I0000581J0000000D01*
G01*
X0525187Y0193032D01*
G75*
G02*
X0525767Y0192451I0000000J-000581D01*
G01*
G37*
G36*
G01*
X0501033Y0218563D02*
X0502391Y0218563D01*
G75*
G02*
X0502972Y0217982I0000000J-000581D01*
G01*
X0502972Y0216821D01*
G75*
G02*
X0502391Y0216240I-000581J0000000D01*
G01*
X0501033Y0216240D01*
G75*
G02*
X0500452Y0216821I0000000J0000581D01*
G01*
X0500452Y0217982D01*
G75*
G02*
X0501033Y0218563I0000581J0000000D01*
G01*
G37*
G36*
G01*
X0501033Y0214744D02*
X0502391Y0214744D01*
G75*
G02*
X0502972Y0214164I0000000J-000581D01*
G01*
X0502972Y0213002D01*
G75*
G02*
X0502391Y0212421I-000581J0000000D01*
G01*
X0501033Y0212421D01*
G75*
G02*
X0500452Y0213002I0000000J0000581D01*
G01*
X0500452Y0214164D01*
G75*
G02*
X0501033Y0214744I0000581J0000000D01*
G01*
G37*
G36*
G01*
X0502391Y0219902D02*
X0501033Y0219902D01*
G75*
G02*
X0500452Y0220482I0000000J0000581D01*
G01*
X0500452Y0221644D01*
G75*
G02*
X0501033Y0222225I0000581J0000000D01*
G01*
X0502391Y0222225D01*
G75*
G02*
X0502972Y0221644I0000000J-000581D01*
G01*
X0502972Y0220482D01*
G75*
G02*
X0502391Y0219902I-000581J0000000D01*
G01*
G37*
G36*
G01*
X0502391Y0223721D02*
X0501033Y0223721D01*
G75*
G02*
X0500452Y0224301I0000000J0000581D01*
G01*
X0500452Y0225463D01*
G75*
G02*
X0501033Y0226043I0000581J0000000D01*
G01*
X0502391Y0226043D01*
G75*
G02*
X0502972Y0225463I0000000J-000581D01*
G01*
X0502972Y0224301D01*
G75*
G02*
X0502391Y0223721I-000581J0000000D01*
G01*
G37*
G36*
G01*
X0529586Y0188711D02*
X0529586Y0187352D01*
G75*
G02*
X0529006Y0186772I-000581J0000000D01*
G01*
X0527844Y0186772D01*
G75*
G02*
X0527264Y0187352I0000000J0000581D01*
G01*
X0527264Y0188711D01*
G75*
G02*
X0527844Y0189291I0000581J0000000D01*
G01*
X0529006Y0189291D01*
G75*
G02*
X0529586Y0188711I0000000J-000581D01*
G01*
G37*
G36*
G01*
X0525767Y0188711D02*
X0525767Y0187352D01*
G75*
G02*
X0525187Y0186772I-000581J0000000D01*
G01*
X0524025Y0186772D01*
G75*
G02*
X0523445Y0187352I0000000J0000581D01*
G01*
X0523445Y0188711D01*
G75*
G02*
X0524025Y0189291I0000581J0000000D01*
G01*
X0525187Y0189291D01*
G75*
G02*
X0525767Y0188711I0000000J-000581D01*
G01*
G37*
D253*
X0480748Y0178032D03*
X0484488Y0178032D03*
X0488228Y0178032D03*
X0488228Y0167717D03*
X0480748Y0167717D03*
G36*
G01*
X0498454Y0212520D02*
X0497096Y0212520D01*
G75*
G02*
X0496515Y0213101I0000000J0000581D01*
G01*
X0496515Y0214262D01*
G75*
G02*
X0497096Y0214843I0000581J0000000D01*
G01*
X0498454Y0214843D01*
G75*
G02*
X0499035Y0214262I0000000J-000581D01*
G01*
X0499035Y0213101D01*
G75*
G02*
X0498454Y0212520I-000581J0000000D01*
G01*
G37*
G36*
G01*
X0498454Y0216339D02*
X0497096Y0216339D01*
G75*
G02*
X0496515Y0216919I0000000J0000581D01*
G01*
X0496515Y0218081D01*
G75*
G02*
X0497096Y0218662I0000581J0000000D01*
G01*
X0498454Y0218662D01*
G75*
G02*
X0499035Y0218081I0000000J-000581D01*
G01*
X0499035Y0216919D01*
G75*
G02*
X0498454Y0216339I-000581J0000000D01*
G01*
G37*
G36*
G01*
X0494350Y0199931D02*
X0494350Y0198573D01*
G75*
G02*
X0493769Y0197992I-000581J0000000D01*
G01*
X0492608Y0197992D01*
G75*
G02*
X0492027Y0198573I0000000J0000581D01*
G01*
X0492027Y0199931D01*
G75*
G02*
X0492608Y0200512I0000581J0000000D01*
G01*
X0493769Y0200512D01*
G75*
G02*
X0494350Y0199931I0000000J-000581D01*
G01*
G37*
G36*
G01*
X0490531Y0199931D02*
X0490531Y0198573D01*
G75*
G02*
X0489951Y0197992I-000581J0000000D01*
G01*
X0488789Y0197992D01*
G75*
G02*
X0488208Y0198573I0000000J0000581D01*
G01*
X0488208Y0199931D01*
G75*
G02*
X0488789Y0200512I0000581J0000000D01*
G01*
X0489951Y0200512D01*
G75*
G02*
X0490531Y0199931I0000000J-000581D01*
G01*
G37*
G36*
G01*
X0514783Y0191093D02*
X0514783Y0192451D01*
G75*
G02*
X0515364Y0193032I0000581J0000000D01*
G01*
X0516525Y0193032D01*
G75*
G02*
X0517106Y0192451I0000000J-000581D01*
G01*
X0517106Y0191093D01*
G75*
G02*
X0516525Y0190512I-000581J0000000D01*
G01*
X0515364Y0190512D01*
G75*
G02*
X0514783Y0191093I0000000J0000581D01*
G01*
G37*
G36*
G01*
X0518602Y0191093D02*
X0518602Y0192451D01*
G75*
G02*
X0519183Y0193032I0000581J0000000D01*
G01*
X0520344Y0193032D01*
G75*
G02*
X0520925Y0192451I0000000J-000581D01*
G01*
X0520925Y0191093D01*
G75*
G02*
X0520344Y0190512I-000581J0000000D01*
G01*
X0519183Y0190512D01*
G75*
G02*
X0518602Y0191093I0000000J0000581D01*
G01*
G37*
G36*
G01*
X0513828Y0234213D02*
X0515187Y0234213D01*
G75*
G02*
X0515767Y0233632I0000000J-000581D01*
G01*
X0515767Y0232471D01*
G75*
G02*
X0515187Y0231890I-000581J0000000D01*
G01*
X0513828Y0231890D01*
G75*
G02*
X0513248Y0232471I0000000J0000581D01*
G01*
X0513248Y0233632D01*
G75*
G02*
X0513828Y0234213I0000581J0000000D01*
G01*
G37*
G36*
G01*
X0513828Y0230394D02*
X0515187Y0230394D01*
G75*
G02*
X0515767Y0229813I0000000J-000581D01*
G01*
X0515767Y0228652D01*
G75*
G02*
X0515187Y0228071I-000581J0000000D01*
G01*
X0513828Y0228071D01*
G75*
G02*
X0513248Y0228652I0000000J0000581D01*
G01*
X0513248Y0229813D01*
G75*
G02*
X0513828Y0230394I0000581J0000000D01*
G01*
G37*
G36*
G01*
X0513828Y0241791D02*
X0515187Y0241791D01*
G75*
G02*
X0515767Y0241211I0000000J-000581D01*
G01*
X0515767Y0240049D01*
G75*
G02*
X0515187Y0239469I-000581J0000000D01*
G01*
X0513828Y0239469D01*
G75*
G02*
X0513248Y0240049I0000000J0000581D01*
G01*
X0513248Y0241211D01*
G75*
G02*
X0513828Y0241791I0000581J0000000D01*
G01*
G37*
G36*
G01*
X0513828Y0237973D02*
X0515187Y0237973D01*
G75*
G02*
X0515767Y0237392I0000000J-000581D01*
G01*
X0515767Y0236230D01*
G75*
G02*
X0515187Y0235650I-000581J0000000D01*
G01*
X0513828Y0235650D01*
G75*
G02*
X0513248Y0236230I0000000J0000581D01*
G01*
X0513248Y0237392D01*
G75*
G02*
X0513828Y0237973I0000581J0000000D01*
G01*
G37*
G36*
G01*
X0514783Y0187352D02*
X0514783Y0188711D01*
G75*
G02*
X0515364Y0189291I0000581J0000000D01*
G01*
X0516525Y0189291D01*
G75*
G02*
X0517106Y0188711I0000000J-000581D01*
G01*
X0517106Y0187352D01*
G75*
G02*
X0516525Y0186772I-000581J0000000D01*
G01*
X0515364Y0186772D01*
G75*
G02*
X0514783Y0187352I0000000J0000581D01*
G01*
G37*
G36*
G01*
X0518602Y0187352D02*
X0518602Y0188711D01*
G75*
G02*
X0519183Y0189291I0000581J0000000D01*
G01*
X0520344Y0189291D01*
G75*
G02*
X0520925Y0188711I0000000J-000581D01*
G01*
X0520925Y0187352D01*
G75*
G02*
X0520344Y0186772I-000581J0000000D01*
G01*
X0519183Y0186772D01*
G75*
G02*
X0518602Y0187352I0000000J0000581D01*
G01*
G37*
G36*
G01*
X0504970Y0221713D02*
X0506328Y0221713D01*
G75*
G02*
X0506909Y0221132I0000000J-000581D01*
G01*
X0506909Y0219971D01*
G75*
G02*
X0506328Y0219390I-000581J0000000D01*
G01*
X0504970Y0219390D01*
G75*
G02*
X0504390Y0219971I0000000J0000581D01*
G01*
X0504390Y0221132D01*
G75*
G02*
X0504970Y0221713I0000581J0000000D01*
G01*
G37*
G36*
G01*
X0504970Y0217894D02*
X0506328Y0217894D01*
G75*
G02*
X0506909Y0217313I0000000J-000581D01*
G01*
X0506909Y0216152D01*
G75*
G02*
X0506328Y0215571I-000581J0000000D01*
G01*
X0504970Y0215571D01*
G75*
G02*
X0504390Y0216152I0000000J0000581D01*
G01*
X0504390Y0217313D01*
G75*
G02*
X0504970Y0217894I0000581J0000000D01*
G01*
G37*
G36*
G01*
X0514783Y0183612D02*
X0514783Y0184971D01*
G75*
G02*
X0515364Y0185551I0000581J0000000D01*
G01*
X0516525Y0185551D01*
G75*
G02*
X0517106Y0184971I0000000J-000581D01*
G01*
X0517106Y0183612D01*
G75*
G02*
X0516525Y0183032I-000581J0000000D01*
G01*
X0515364Y0183032D01*
G75*
G02*
X0514783Y0183612I0000000J0000581D01*
G01*
G37*
G36*
G01*
X0518602Y0183612D02*
X0518602Y0184971D01*
G75*
G02*
X0519183Y0185551I0000581J0000000D01*
G01*
X0520344Y0185551D01*
G75*
G02*
X0520925Y0184971I0000000J-000581D01*
G01*
X0520925Y0183612D01*
G75*
G02*
X0520344Y0183032I-000581J0000000D01*
G01*
X0519183Y0183032D01*
G75*
G02*
X0518602Y0183612I0000000J0000581D01*
G01*
G37*
G36*
G01*
X0523445Y0183612D02*
X0523445Y0184971D01*
G75*
G02*
X0524025Y0185551I0000581J0000000D01*
G01*
X0525187Y0185551D01*
G75*
G02*
X0525767Y0184971I0000000J-000581D01*
G01*
X0525767Y0183612D01*
G75*
G02*
X0525187Y0183032I-000581J0000000D01*
G01*
X0524025Y0183032D01*
G75*
G02*
X0523445Y0183612I0000000J0000581D01*
G01*
G37*
G36*
G01*
X0527264Y0183612D02*
X0527264Y0184971D01*
G75*
G02*
X0527844Y0185551I0000581J0000000D01*
G01*
X0529006Y0185551D01*
G75*
G02*
X0529586Y0184971I0000000J-000581D01*
G01*
X0529586Y0183612D01*
G75*
G02*
X0529006Y0183032I-000581J0000000D01*
G01*
X0527844Y0183032D01*
G75*
G02*
X0527264Y0183612I0000000J0000581D01*
G01*
G37*
G36*
G01*
X0517638Y0168799D02*
X0516299Y0168799D01*
G75*
G02*
X0515748Y0169350I0000000J0000551D01*
G01*
X0515748Y0170453D01*
G75*
G02*
X0516299Y0171004I0000551J0000000D01*
G01*
X0517638Y0171004D01*
G75*
G02*
X0518189Y0170453I0000000J-000551D01*
G01*
X0518189Y0169350D01*
G75*
G02*
X0517638Y0168799I-000551J0000000D01*
G01*
G37*
G36*
G01*
X0517638Y0172579D02*
X0516299Y0172579D01*
G75*
G02*
X0515748Y0173130I0000000J0000551D01*
G01*
X0515748Y0174232D01*
G75*
G02*
X0516299Y0174783I0000551J0000000D01*
G01*
X0517638Y0174783D01*
G75*
G02*
X0518189Y0174232I0000000J-000551D01*
G01*
X0518189Y0173130D01*
G75*
G02*
X0517638Y0172579I-000551J0000000D01*
G01*
G37*
G36*
G01*
X0491378Y0223740D02*
X0492834Y0223740D01*
G75*
G02*
X0493366Y0223209I0000000J-000531D01*
G01*
X0493366Y0222146D01*
G75*
G02*
X0492834Y0221614I-000531J0000000D01*
G01*
X0491378Y0221614D01*
G75*
G02*
X0490846Y0222146I0000000J0000531D01*
G01*
X0490846Y0223209D01*
G75*
G02*
X0491378Y0223740I0000531J0000000D01*
G01*
G37*
G36*
G01*
X0491378Y0219725D02*
X0492834Y0219725D01*
G75*
G02*
X0493366Y0219193I0000000J-000531D01*
G01*
X0493366Y0218130D01*
G75*
G02*
X0492834Y0217599I-000531J0000000D01*
G01*
X0491378Y0217599D01*
G75*
G02*
X0490846Y0218130I0000000J0000531D01*
G01*
X0490846Y0219193D01*
G75*
G02*
X0491378Y0219725I0000531J0000000D01*
G01*
G37*
G36*
G01*
X0505911Y0163012D02*
X0505911Y0161555D01*
G75*
G02*
X0505379Y0161024I-000531J0000000D01*
G01*
X0504316Y0161024D01*
G75*
G02*
X0503785Y0161555I0000000J0000531D01*
G01*
X0503785Y0163012D01*
G75*
G02*
X0504316Y0163543I0000531J0000000D01*
G01*
X0505379Y0163543D01*
G75*
G02*
X0505911Y0163012I0000000J-000531D01*
G01*
G37*
G36*
G01*
X0501895Y0163012D02*
X0501895Y0161555D01*
G75*
G02*
X0501363Y0161024I-000531J0000000D01*
G01*
X0500300Y0161024D01*
G75*
G02*
X0499769Y0161555I0000000J0000531D01*
G01*
X0499769Y0163012D01*
G75*
G02*
X0500300Y0163543I0000531J0000000D01*
G01*
X0501363Y0163543D01*
G75*
G02*
X0501895Y0163012I0000000J-000531D01*
G01*
G37*
G36*
G01*
X0529862Y0163622D02*
X0528681Y0163622D01*
G75*
G02*
X0528090Y0164213I0000000J0000591D01*
G01*
X0528090Y0168839D01*
G75*
G02*
X0528681Y0169429I0000591J0000000D01*
G01*
X0529862Y0169429D01*
G75*
G02*
X0530452Y0168839I0000000J-000591D01*
G01*
X0530452Y0164213D01*
G75*
G02*
X0529862Y0163622I-000591J0000000D01*
G01*
G37*
G36*
G01*
X0522382Y0163622D02*
X0521201Y0163622D01*
G75*
G02*
X0520610Y0164213I0000000J0000591D01*
G01*
X0520610Y0168839D01*
G75*
G02*
X0521201Y0169429I0000591J0000000D01*
G01*
X0522382Y0169429D01*
G75*
G02*
X0522972Y0168839I0000000J-000591D01*
G01*
X0522972Y0164213D01*
G75*
G02*
X0522382Y0163622I-000591J0000000D01*
G01*
G37*
G36*
G01*
X0526122Y0171004D02*
X0524941Y0171004D01*
G75*
G02*
X0524350Y0171595I0000000J0000591D01*
G01*
X0524350Y0176221D01*
G75*
G02*
X0524941Y0176811I0000591J0000000D01*
G01*
X0526122Y0176811D01*
G75*
G02*
X0526712Y0176221I0000000J-000591D01*
G01*
X0526712Y0171595D01*
G75*
G02*
X0526122Y0171004I-000591J0000000D01*
G01*
G37*
G36*
G01*
X0491930Y0161575D02*
X0491930Y0162914D01*
G75*
G02*
X0492482Y0163465I0000551J0000000D01*
G01*
X0493584Y0163465D01*
G75*
G02*
X0494135Y0162914I0000000J-000551D01*
G01*
X0494135Y0161575D01*
G75*
G02*
X0493584Y0161024I-000551J0000000D01*
G01*
X0492482Y0161024D01*
G75*
G02*
X0491930Y0161575I0000000J0000551D01*
G01*
G37*
G36*
G01*
X0495710Y0161575D02*
X0495710Y0162914D01*
G75*
G02*
X0496261Y0163465I0000551J0000000D01*
G01*
X0497363Y0163465D01*
G75*
G02*
X0497915Y0162914I0000000J-000551D01*
G01*
X0497915Y0161575D01*
G75*
G02*
X0497363Y0161024I-000551J0000000D01*
G01*
X0496261Y0161024D01*
G75*
G02*
X0495710Y0161575I0000000J0000551D01*
G01*
G37*
G36*
G01*
X0495001Y0192362D02*
X0496182Y0192362D01*
G75*
G02*
X0496773Y0191772I0000000J-000591D01*
G01*
X0496773Y0186063D01*
G75*
G02*
X0496182Y0185473I-000591J0000000D01*
G01*
X0495001Y0185473D01*
G75*
G02*
X0494411Y0186063I0000000J0000591D01*
G01*
X0494411Y0191772D01*
G75*
G02*
X0495001Y0192362I0000591J0000000D01*
G01*
G37*
G36*
G01*
X0500001Y0192362D02*
X0501182Y0192362D01*
G75*
G02*
X0501773Y0191772I0000000J-000591D01*
G01*
X0501773Y0186063D01*
G75*
G02*
X0501182Y0185473I-000591J0000000D01*
G01*
X0500001Y0185473D01*
G75*
G02*
X0499411Y0186063I0000000J0000591D01*
G01*
X0499411Y0191772D01*
G75*
G02*
X0500001Y0192362I0000591J0000000D01*
G01*
G37*
G36*
G01*
X0505001Y0192362D02*
X0506182Y0192362D01*
G75*
G02*
X0506773Y0191772I0000000J-000591D01*
G01*
X0506773Y0186063D01*
G75*
G02*
X0506182Y0185473I-000591J0000000D01*
G01*
X0505001Y0185473D01*
G75*
G02*
X0504411Y0186063I0000000J0000591D01*
G01*
X0504411Y0191772D01*
G75*
G02*
X0505001Y0192362I0000591J0000000D01*
G01*
G37*
G36*
G01*
X0510001Y0192362D02*
X0511182Y0192362D01*
G75*
G02*
X0511773Y0191772I0000000J-000591D01*
G01*
X0511773Y0186063D01*
G75*
G02*
X0511182Y0185473I-000591J0000000D01*
G01*
X0510001Y0185473D01*
G75*
G02*
X0509411Y0186063I0000000J0000591D01*
G01*
X0509411Y0191772D01*
G75*
G02*
X0510001Y0192362I0000591J0000000D01*
G01*
G37*
G36*
G01*
X0510001Y0172087D02*
X0511182Y0172087D01*
G75*
G02*
X0511773Y0171496I0000000J-000591D01*
G01*
X0511773Y0165788D01*
G75*
G02*
X0511182Y0165197I-000591J0000000D01*
G01*
X0510001Y0165197D01*
G75*
G02*
X0509411Y0165788I0000000J0000591D01*
G01*
X0509411Y0171496D01*
G75*
G02*
X0510001Y0172087I0000591J0000000D01*
G01*
G37*
G36*
G01*
X0505001Y0172087D02*
X0506182Y0172087D01*
G75*
G02*
X0506773Y0171496I0000000J-000591D01*
G01*
X0506773Y0165788D01*
G75*
G02*
X0506182Y0165197I-000591J0000000D01*
G01*
X0505001Y0165197D01*
G75*
G02*
X0504411Y0165788I0000000J0000591D01*
G01*
X0504411Y0171496D01*
G75*
G02*
X0505001Y0172087I0000591J0000000D01*
G01*
G37*
G36*
G01*
X0500001Y0172087D02*
X0501182Y0172087D01*
G75*
G02*
X0501773Y0171496I0000000J-000591D01*
G01*
X0501773Y0165788D01*
G75*
G02*
X0501182Y0165197I-000591J0000000D01*
G01*
X0500001Y0165197D01*
G75*
G02*
X0499411Y0165788I0000000J0000591D01*
G01*
X0499411Y0171496D01*
G75*
G02*
X0500001Y0172087I0000591J0000000D01*
G01*
G37*
G36*
G01*
X0495001Y0172087D02*
X0496182Y0172087D01*
G75*
G02*
X0496773Y0171496I0000000J-000591D01*
G01*
X0496773Y0165788D01*
G75*
G02*
X0496182Y0165197I-000591J0000000D01*
G01*
X0495001Y0165197D01*
G75*
G02*
X0494411Y0165788I0000000J0000591D01*
G01*
X0494411Y0171496D01*
G75*
G02*
X0495001Y0172087I0000591J0000000D01*
G01*
G37*
X0453976Y0189803D02*
G01*
G75*
D52*
X0400629Y0048464D02*
D03*
D51*
X0414409Y0048464D02*
D03*
D54*
X0320511Y0154567D02*
D03*
D49*
X0362244Y0048464D02*
D03*
X0446496Y0189409D02*
D03*
D50*
X0332716Y0189409D02*
D03*
X0438228Y0048464D02*
D03*
D47*
X0453582Y0153779D02*
D03*
D48*
X0453582Y0185275D02*
D03*
D46*
X0453582Y0100039D02*
D03*
D55*
X0320511Y0177401D02*
D03*
D53*
X0320511Y0061850D02*
D03*
D44*
X0453582Y0082520D02*
D03*
X0453582Y0058504D02*
D03*
D45*
X0453582Y0070512D02*
D03*
X0320511Y0096102D02*
D03*
D332*
X0402007Y0104764D02*
D03*
X0402007Y0130059D02*
D03*
X0402007Y0114803D02*
D03*
X0402007Y0120019D02*
D03*
X0409094Y0089508D02*
D03*
X0402007Y0089508D02*
D03*
X0402007Y0099547D02*
D03*
X0409094Y0099547D02*
D03*
X0409094Y0130059D02*
D03*
X0409094Y0120019D02*
D03*
X0409094Y0114803D02*
D03*
X0409094Y0104764D02*
D03*
D333*
X0402007Y0108209D02*
D03*
X0402007Y0123464D02*
D03*
X0402007Y0111358D02*
D03*
X0402007Y0126614D02*
D03*
X0402007Y0096102D02*
D03*
X0402007Y0092953D02*
D03*
X0409094Y0092953D02*
D03*
X0409094Y0096102D02*
D03*
X0409094Y0123464D02*
D03*
X0409094Y0126614D02*
D03*
X0409094Y0108209D02*
D03*
X0409094Y0111358D02*
D03*
D336*
X0400039Y0051614D02*
D03*
X0403976Y0051614D02*
D03*
X0405551Y0055157D02*
D03*
X0409488Y0055157D02*
D03*
X0397677Y0072480D02*
D03*
X0401614Y0072480D02*
D03*
X0369024Y0130182D02*
D03*
X0372961Y0130182D02*
D03*
X0377220Y0130182D02*
D03*
X0381157Y0130182D02*
D03*
X0420542Y0097715D02*
D03*
X0424479Y0097715D02*
D03*
X0420542Y0101438D02*
D03*
X0424479Y0101438D02*
D03*
X0422958Y0064606D02*
D03*
X0419021Y0064606D02*
D03*
X0334324Y0053673D02*
D03*
X0370072Y0053912D02*
D03*
X0355157Y0130182D02*
D03*
X0387441Y0076024D02*
D03*
X0387441Y0080354D02*
D03*
X0390871Y0084573D02*
D03*
X0402148Y0084518D02*
D03*
X0381732Y0114178D02*
D03*
X0390521Y0114178D02*
D03*
X0394458Y0122663D02*
D03*
X0329541Y0152529D02*
D03*
X0355157Y0134685D02*
D03*
X0396102Y0051614D02*
D03*
X0409488Y0084609D02*
D03*
X0431141Y0083211D02*
D03*
X0445206Y0083211D02*
D03*
X0431141Y0087441D02*
D03*
X0445206Y0087441D02*
D03*
X0405503Y0134349D02*
D03*
X0450039Y0136260D02*
D03*
X0383504Y0076024D02*
D03*
X0394458Y0114178D02*
D03*
X0385669Y0114178D02*
D03*
X0385669Y0118666D02*
D03*
X0381732Y0118666D02*
D03*
X0327598Y0138622D02*
D03*
X0331535Y0138622D02*
D03*
X0333478Y0152529D02*
D03*
X0418923Y0081705D02*
D03*
X0422860Y0081705D02*
D03*
X0449144Y0083211D02*
D03*
X0405551Y0084609D02*
D03*
X0390521Y0122663D02*
D03*
X0398211Y0084518D02*
D03*
X0394808Y0084573D02*
D03*
X0435078Y0087441D02*
D03*
X0409440Y0134349D02*
D03*
X0446102Y0136260D02*
D03*
X0374009Y0053912D02*
D03*
X0400039Y0051614D02*
D03*
X0426811Y0076638D02*
D03*
X0430748Y0076638D02*
D03*
X0435078Y0083211D02*
D03*
X0351220Y0134685D02*
D03*
X0351220Y0130182D02*
D03*
X0383504Y0080354D02*
D03*
X0338261Y0053673D02*
D03*
X0347577Y0053673D02*
D03*
X0343640Y0053673D02*
D03*
X0441269Y0087441D02*
D03*
X0450039Y0132323D02*
D03*
X0446102Y0132323D02*
D03*
X0450039Y0119921D02*
D03*
X0446102Y0119921D02*
D03*
X0450039Y0115787D02*
D03*
X0446102Y0115787D02*
D03*
X0450039Y0107519D02*
D03*
X0446102Y0107519D02*
D03*
X0450039Y0111653D02*
D03*
X0446102Y0111653D02*
D03*
X0450039Y0103386D02*
D03*
X0446102Y0103386D02*
D03*
X0450039Y0124055D02*
D03*
X0446102Y0124055D02*
D03*
X0450039Y0128189D02*
D03*
X0446102Y0128189D02*
D03*
D338*
X0395049Y0100827D02*
D03*
X0395049Y0096594D02*
D03*
X0349645Y0184685D02*
D03*
X0354370Y0184685D02*
D03*
X0359094Y0184685D02*
D03*
X0363818Y0184685D02*
D03*
X0433897Y0056338D02*
D03*
X0429763Y0056338D02*
D03*
X0338583Y0148559D02*
D03*
X0338583Y0144622D02*
D03*
X0449512Y0057520D02*
D03*
X0449512Y0061456D02*
D03*
X0395049Y0092657D02*
D03*
X0395049Y0104764D02*
D03*
X0342755Y0149055D02*
D03*
X0342755Y0145118D02*
D03*
X0367528Y0176831D02*
D03*
X0367528Y0172894D02*
D03*
X0363818Y0172894D02*
D03*
X0363818Y0176831D02*
D03*
X0363818Y0162244D02*
D03*
X0363818Y0166181D02*
D03*
X0363818Y0180748D02*
D03*
X0359094Y0180748D02*
D03*
X0349645Y0180748D02*
D03*
X0354370Y0180748D02*
D03*
X0448477Y0147554D02*
D03*
X0448477Y0143617D02*
D03*
X0398267Y0144527D02*
D03*
X0398267Y0148464D02*
D03*
X0398267Y0154764D02*
D03*
X0398267Y0158701D02*
D03*
X0426220Y0144527D02*
D03*
X0426220Y0148464D02*
D03*
X0402795Y0169921D02*
D03*
X0402795Y0165984D02*
D03*
X0432125Y0169921D02*
D03*
X0432125Y0165984D02*
D03*
X0444921Y0169921D02*
D03*
X0444921Y0165984D02*
D03*
X0428029Y0176831D02*
D03*
X0428029Y0180768D02*
D03*
X0449645Y0177205D02*
D03*
X0449645Y0173268D02*
D03*
X0449448Y0180354D02*
D03*
X0449448Y0184291D02*
D03*
X0449512Y0069046D02*
D03*
X0449512Y0065109D02*
D03*
X0433897Y0052401D02*
D03*
X0429763Y0052401D02*
D03*
X0426023Y0165984D02*
D03*
X0426023Y0169921D02*
D03*
X0421693Y0165984D02*
D03*
X0421693Y0169921D02*
D03*
X0413228Y0165984D02*
D03*
X0413228Y0169921D02*
D03*
X0409062Y0180768D02*
D03*
X0409062Y0176831D02*
D03*
X0370315Y0148464D02*
D03*
X0370315Y0144527D02*
D03*
X0440590Y0165984D02*
D03*
X0440590Y0169921D02*
D03*
X0390219Y0180768D02*
D03*
X0390219Y0176831D02*
D03*
X0394330Y0165984D02*
D03*
X0394330Y0169921D02*
D03*
X0407125Y0165984D02*
D03*
X0407125Y0169921D02*
D03*
X0371239Y0180768D02*
D03*
X0371239Y0176831D02*
D03*
X0375432Y0165984D02*
D03*
X0375432Y0169921D02*
D03*
X0383897Y0165984D02*
D03*
X0383897Y0169921D02*
D03*
X0388228Y0165984D02*
D03*
X0388228Y0169921D02*
D03*
X0370451Y0162244D02*
D03*
X0370451Y0166181D02*
D03*
D340*
X0414419Y0059547D02*
D03*
X0422159Y0069022D02*
D03*
X0440492Y0092392D02*
D03*
D343*
X0366771Y0060964D02*
D03*
X0373071Y0060964D02*
D03*
X0403385Y0059586D02*
D03*
X0409685Y0059586D02*
D03*
X0403385Y0064212D02*
D03*
X0409685Y0064212D02*
D03*
D340*
X0431240Y0096133D02*
D03*
X0422159Y0076502D02*
D03*
X0412907Y0072762D02*
D03*
X0414419Y0052067D02*
D03*
X0423671Y0055807D02*
D03*
X0440492Y0099873D02*
D03*
D364*
X0405945Y0069409D02*
D03*
X0405945Y0075630D02*
D03*
D365*
X0376515Y0140197D02*
D03*
X0376515Y0147283D02*
D03*
X0386555Y0147283D02*
D03*
X0386555Y0140197D02*
D03*
X0404468Y0147283D02*
D03*
X0432421Y0147283D02*
D03*
X0414507Y0151220D02*
D03*
X0359389Y0176417D02*
D03*
X0359389Y0169331D02*
D03*
X0349350Y0169331D02*
D03*
X0349350Y0176417D02*
D03*
X0442460Y0158307D02*
D03*
X0442460Y0151220D02*
D03*
X0432421Y0151220D02*
D03*
X0432421Y0158307D02*
D03*
X0432421Y0140197D02*
D03*
X0442460Y0147283D02*
D03*
X0442460Y0140197D02*
D03*
X0414507Y0158307D02*
D03*
X0404468Y0151220D02*
D03*
X0404468Y0158307D02*
D03*
X0404468Y0140197D02*
D03*
X0414507Y0147283D02*
D03*
X0414507Y0140197D02*
D03*
X0413523Y0182126D02*
D03*
X0413523Y0175039D02*
D03*
X0423563Y0175039D02*
D03*
X0423563Y0182126D02*
D03*
X0432421Y0182126D02*
D03*
X0432421Y0175039D02*
D03*
X0442460Y0175039D02*
D03*
X0442460Y0182126D02*
D03*
X0394625Y0182126D02*
D03*
X0394625Y0175039D02*
D03*
X0404665Y0175039D02*
D03*
X0404665Y0182126D02*
D03*
X0375728Y0182126D02*
D03*
X0375728Y0175039D02*
D03*
X0385767Y0175039D02*
D03*
X0385767Y0182126D02*
D03*
X0376515Y0158307D02*
D03*
X0376515Y0151220D02*
D03*
X0386555Y0151220D02*
D03*
X0386555Y0158307D02*
D03*
X0348956Y0158307D02*
D03*
X0348956Y0151220D02*
D03*
X0358996Y0151220D02*
D03*
X0358996Y0158307D02*
D03*
X0358996Y0140197D02*
D03*
X0358996Y0147283D02*
D03*
X0348956Y0147283D02*
D03*
X0348956Y0140197D02*
D03*
D366*
X0383110Y0147283D02*
D03*
X0379960Y0147283D02*
D03*
X0379960Y0140197D02*
D03*
X0383110Y0140197D02*
D03*
X0407913Y0147283D02*
D03*
X0435866Y0147283D02*
D03*
X0411063Y0151220D02*
D03*
X0352795Y0169331D02*
D03*
X0355944Y0169331D02*
D03*
X0355944Y0176417D02*
D03*
X0352795Y0176417D02*
D03*
X0435866Y0151220D02*
D03*
X0439015Y0151220D02*
D03*
X0439015Y0158307D02*
D03*
X0435866Y0158307D02*
D03*
X0439015Y0147283D02*
D03*
X0435866Y0140197D02*
D03*
X0439015Y0140197D02*
D03*
X0407913Y0151220D02*
D03*
X0411063Y0158307D02*
D03*
X0407913Y0158307D02*
D03*
X0411062Y0147283D02*
D03*
X0407913Y0140197D02*
D03*
X0411062Y0140197D02*
D03*
X0416968Y0182126D02*
D03*
X0420118Y0182126D02*
D03*
X0420118Y0175039D02*
D03*
X0416968Y0175039D02*
D03*
X0435865Y0182126D02*
D03*
X0439015Y0182126D02*
D03*
X0439015Y0175039D02*
D03*
X0435865Y0175039D02*
D03*
X0398070Y0182126D02*
D03*
X0401220Y0182126D02*
D03*
X0401220Y0175039D02*
D03*
X0398070Y0175039D02*
D03*
X0379173Y0182126D02*
D03*
X0382322Y0182126D02*
D03*
X0382322Y0175039D02*
D03*
X0379173Y0175039D02*
D03*
X0379960Y0158307D02*
D03*
X0383110Y0158307D02*
D03*
X0383110Y0151220D02*
D03*
X0379960Y0151220D02*
D03*
X0352401Y0158307D02*
D03*
X0355551Y0158307D02*
D03*
X0355551Y0151220D02*
D03*
X0352401Y0151220D02*
D03*
X0355551Y0140197D02*
D03*
X0352401Y0140197D02*
D03*
X0352401Y0147283D02*
D03*
X0355551Y0147283D02*
D03*
D367*
X0344173Y0062933D02*
D03*
X0344173Y0057943D02*
D03*
X0350393Y0057943D02*
D03*
X0350393Y0062933D02*
D03*
D368*
X0331535Y0069823D02*
D03*
X0364212Y0069823D02*
D03*
X0331535Y0123956D02*
D03*
X0364212Y0123956D02*
D03*
D369*
X0341771Y0087854D02*
D03*
X0341771Y0079193D02*
D03*
X0341771Y0083523D02*
D03*
X0341771Y0092185D02*
D03*
X0341771Y0096516D02*
D03*
X0341771Y0100846D02*
D03*
X0341771Y0105177D02*
D03*
X0341771Y0109508D02*
D03*
D370*
X0323464Y0168464D02*
D03*
X0336668Y0168464D02*
D03*
X0330945Y0176496D02*
D03*
X0344148Y0176496D02*
D03*
X0327204Y0159212D02*
D03*
X0340408Y0159212D02*
D03*
X0340408Y0185748D02*
D03*
X0428582Y0070827D02*
D03*
X0432322Y0061575D02*
D03*
X0327204Y0185748D02*
D03*
D217*
X0329541Y0142691D02*
D03*
X0333478Y0142691D02*
D03*
X0329541Y0148695D02*
D03*
X0331509Y0148695D02*
D03*
X0331509Y0142691D02*
D03*
X0333478Y0148695D02*
D03*
D371*
X0420106Y0086043D02*
D03*
X0425224Y0086043D02*
D03*
X0422665Y0086043D02*
D03*
X0420106Y0093524D02*
D03*
X0425224Y0093524D02*
D03*
D220*
X0416889Y0105551D02*
D03*
X0439881Y0108110D02*
D03*
X0439881Y0105551D02*
D03*
X0416889Y0128582D02*
D03*
X0439881Y0131141D02*
D03*
X0439881Y0133701D02*
D03*
X0439881Y0128582D02*
D03*
X0439881Y0126023D02*
D03*
X0439881Y0123464D02*
D03*
X0439881Y0120905D02*
D03*
X0439881Y0118346D02*
D03*
X0439881Y0115787D02*
D03*
X0439881Y0113228D02*
D03*
X0439881Y0110669D02*
D03*
X0416889Y0133701D02*
D03*
X0416889Y0131141D02*
D03*
X0416889Y0126023D02*
D03*
X0416889Y0123464D02*
D03*
X0416889Y0120905D02*
D03*
X0416889Y0118346D02*
D03*
X0416889Y0115787D02*
D03*
X0416889Y0113228D02*
D03*
X0416889Y0110669D02*
D03*
X0416889Y0108110D02*
D03*
D372*
X0442952Y0067964D02*
D03*
X0442952Y0056546D02*
D03*
D373*
X0384862Y0065829D02*
D03*
X0397854Y0065829D02*
D03*
X0448939Y0077029D02*
D03*
X0435947Y0077029D02*
D03*
D222*
X0386087Y0091234D02*
D03*
X0386087Y0105801D02*
D03*
D223*
X0334511Y0146677D02*
D03*
X0334511Y0144709D02*
D03*
X0328507Y0144709D02*
D03*
X0328507Y0146677D02*
D03*
D374*
X0399498Y0078711D02*
D03*
X0393593Y0078711D02*
D03*
D370*
X0330945Y0168464D02*
D03*
X0344148Y0168464D02*
D03*
X0336668Y0176496D02*
D03*
X0436063Y0070827D02*
D03*
X0323464Y0176496D02*
D03*
D225*
X0396695Y0129370D02*
D03*
X0390002Y0129370D02*
D03*
D375*
X0380334Y0055833D02*
D03*
X0391751Y0055833D02*
D03*
D376*
X0449251Y0090197D02*
D03*
X0449251Y0096496D02*
D03*
M02*
