G04 #@! TF.GenerationSoftware,KiCad,Pcbnew,8.0.9-8.0.9-0~ubuntu24.04.1*
G04 #@! TF.CreationDate,2025-11-03T08:42:52+00:00*
G04 #@! TF.ProjectId,uaefi,75616566-692e-46b6-9963-61645f706362,E*
G04 #@! TF.SameCoordinates,Original*
G04 #@! TF.FileFunction,Legend,Bot*
G04 #@! TF.FilePolarity,Positive*
%FSLAX46Y46*%
G04 Gerber Fmt 4.6, Leading zero omitted, Abs format (unit mm)*
G04 Created by KiCad (PCBNEW 8.0.9-8.0.9-0~ubuntu24.04.1) date 2025-11-03 08:42:52*
%MOMM*%
%LPD*%
G01*
G04 APERTURE LIST*
%ADD10C,0.150000*%
%ADD11C,0.127000*%
%ADD12C,0.170000*%
%ADD13C,0.200000*%
%ADD14C,0.120000*%
%ADD15C,0.500000*%
%ADD16C,0.099060*%
%ADD17C,0.150012*%
%ADD18C,0.203200*%
G04 APERTURE END LIST*
D10*
X119012380Y76055181D02*
X119012380Y77055181D01*
X118536190Y76721848D02*
X118536190Y75721848D01*
X118536190Y76674229D02*
X118440952Y76721848D01*
X118440952Y76721848D02*
X118250476Y76721848D01*
X118250476Y76721848D02*
X118155238Y76674229D01*
X118155238Y76674229D02*
X118107619Y76626610D01*
X118107619Y76626610D02*
X118060000Y76531372D01*
X118060000Y76531372D02*
X118060000Y76245658D01*
X118060000Y76245658D02*
X118107619Y76150420D01*
X118107619Y76150420D02*
X118155238Y76102800D01*
X118155238Y76102800D02*
X118250476Y76055181D01*
X118250476Y76055181D02*
X118440952Y76055181D01*
X118440952Y76055181D02*
X118536190Y76102800D01*
X119748094Y21105181D02*
X119748094Y22105181D01*
X119748094Y22105181D02*
X119367142Y22105181D01*
X119367142Y22105181D02*
X119271904Y22057562D01*
X119271904Y22057562D02*
X119224285Y22009943D01*
X119224285Y22009943D02*
X119176666Y21914705D01*
X119176666Y21914705D02*
X119176666Y21771848D01*
X119176666Y21771848D02*
X119224285Y21676610D01*
X119224285Y21676610D02*
X119271904Y21628991D01*
X119271904Y21628991D02*
X119367142Y21581372D01*
X119367142Y21581372D02*
X119748094Y21581372D01*
X118605237Y21676610D02*
X118700475Y21724229D01*
X118700475Y21724229D02*
X118748094Y21771848D01*
X118748094Y21771848D02*
X118795713Y21867086D01*
X118795713Y21867086D02*
X118795713Y21914705D01*
X118795713Y21914705D02*
X118748094Y22009943D01*
X118748094Y22009943D02*
X118700475Y22057562D01*
X118700475Y22057562D02*
X118605237Y22105181D01*
X118605237Y22105181D02*
X118414761Y22105181D01*
X118414761Y22105181D02*
X118319523Y22057562D01*
X118319523Y22057562D02*
X118271904Y22009943D01*
X118271904Y22009943D02*
X118224285Y21914705D01*
X118224285Y21914705D02*
X118224285Y21867086D01*
X118224285Y21867086D02*
X118271904Y21771848D01*
X118271904Y21771848D02*
X118319523Y21724229D01*
X118319523Y21724229D02*
X118414761Y21676610D01*
X118414761Y21676610D02*
X118605237Y21676610D01*
X118605237Y21676610D02*
X118700475Y21628991D01*
X118700475Y21628991D02*
X118748094Y21581372D01*
X118748094Y21581372D02*
X118795713Y21486134D01*
X118795713Y21486134D02*
X118795713Y21295658D01*
X118795713Y21295658D02*
X118748094Y21200420D01*
X118748094Y21200420D02*
X118700475Y21152800D01*
X118700475Y21152800D02*
X118605237Y21105181D01*
X118605237Y21105181D02*
X118414761Y21105181D01*
X118414761Y21105181D02*
X118319523Y21152800D01*
X118319523Y21152800D02*
X118271904Y21200420D01*
X118271904Y21200420D02*
X118224285Y21295658D01*
X118224285Y21295658D02*
X118224285Y21486134D01*
X118224285Y21486134D02*
X118271904Y21581372D01*
X118271904Y21581372D02*
X118319523Y21628991D01*
X118319523Y21628991D02*
X118414761Y21676610D01*
X78148094Y47805181D02*
X78148094Y48805181D01*
X78148094Y48805181D02*
X77767142Y48805181D01*
X77767142Y48805181D02*
X77671904Y48757562D01*
X77671904Y48757562D02*
X77624285Y48709943D01*
X77624285Y48709943D02*
X77576666Y48614705D01*
X77576666Y48614705D02*
X77576666Y48471848D01*
X77576666Y48471848D02*
X77624285Y48376610D01*
X77624285Y48376610D02*
X77671904Y48328991D01*
X77671904Y48328991D02*
X77767142Y48281372D01*
X77767142Y48281372D02*
X78148094Y48281372D01*
X76671904Y48805181D02*
X77148094Y48805181D01*
X77148094Y48805181D02*
X77195713Y48328991D01*
X77195713Y48328991D02*
X77148094Y48376610D01*
X77148094Y48376610D02*
X77052856Y48424229D01*
X77052856Y48424229D02*
X76814761Y48424229D01*
X76814761Y48424229D02*
X76719523Y48376610D01*
X76719523Y48376610D02*
X76671904Y48328991D01*
X76671904Y48328991D02*
X76624285Y48233753D01*
X76624285Y48233753D02*
X76624285Y47995658D01*
X76624285Y47995658D02*
X76671904Y47900420D01*
X76671904Y47900420D02*
X76719523Y47852800D01*
X76719523Y47852800D02*
X76814761Y47805181D01*
X76814761Y47805181D02*
X77052856Y47805181D01*
X77052856Y47805181D02*
X77148094Y47852800D01*
X77148094Y47852800D02*
X77195713Y47900420D01*
X16172693Y87544524D02*
X16172693Y86973096D01*
X16172693Y87258810D02*
X17172693Y87258810D01*
X17172693Y87258810D02*
X17029836Y87163572D01*
X17029836Y87163572D02*
X16934598Y87068334D01*
X16934598Y87068334D02*
X16886979Y86973096D01*
X16744122Y88115953D02*
X16791741Y88020715D01*
X16791741Y88020715D02*
X16839360Y87973096D01*
X16839360Y87973096D02*
X16934598Y87925477D01*
X16934598Y87925477D02*
X16982217Y87925477D01*
X16982217Y87925477D02*
X17077455Y87973096D01*
X17077455Y87973096D02*
X17125074Y88020715D01*
X17125074Y88020715D02*
X17172693Y88115953D01*
X17172693Y88115953D02*
X17172693Y88306429D01*
X17172693Y88306429D02*
X17125074Y88401667D01*
X17125074Y88401667D02*
X17077455Y88449286D01*
X17077455Y88449286D02*
X16982217Y88496905D01*
X16982217Y88496905D02*
X16934598Y88496905D01*
X16934598Y88496905D02*
X16839360Y88449286D01*
X16839360Y88449286D02*
X16791741Y88401667D01*
X16791741Y88401667D02*
X16744122Y88306429D01*
X16744122Y88306429D02*
X16744122Y88115953D01*
X16744122Y88115953D02*
X16696503Y88020715D01*
X16696503Y88020715D02*
X16648884Y87973096D01*
X16648884Y87973096D02*
X16553646Y87925477D01*
X16553646Y87925477D02*
X16363170Y87925477D01*
X16363170Y87925477D02*
X16267932Y87973096D01*
X16267932Y87973096D02*
X16220313Y88020715D01*
X16220313Y88020715D02*
X16172693Y88115953D01*
X16172693Y88115953D02*
X16172693Y88306429D01*
X16172693Y88306429D02*
X16220313Y88401667D01*
X16220313Y88401667D02*
X16267932Y88449286D01*
X16267932Y88449286D02*
X16363170Y88496905D01*
X16363170Y88496905D02*
X16553646Y88496905D01*
X16553646Y88496905D02*
X16648884Y88449286D01*
X16648884Y88449286D02*
X16696503Y88401667D01*
X16696503Y88401667D02*
X16744122Y88306429D01*
X22172693Y61044524D02*
X22172693Y60473096D01*
X22172693Y60758810D02*
X23172693Y60758810D01*
X23172693Y60758810D02*
X23029836Y60663572D01*
X23029836Y60663572D02*
X22934598Y60568334D01*
X22934598Y60568334D02*
X22886979Y60473096D01*
X23172693Y61377858D02*
X23172693Y62044524D01*
X23172693Y62044524D02*
X22172693Y61615953D01*
X17077455Y59973096D02*
X17125074Y60020715D01*
X17125074Y60020715D02*
X17172693Y60115953D01*
X17172693Y60115953D02*
X17172693Y60354048D01*
X17172693Y60354048D02*
X17125074Y60449286D01*
X17125074Y60449286D02*
X17077455Y60496905D01*
X17077455Y60496905D02*
X16982217Y60544524D01*
X16982217Y60544524D02*
X16886979Y60544524D01*
X16886979Y60544524D02*
X16744122Y60496905D01*
X16744122Y60496905D02*
X16172693Y59925477D01*
X16172693Y59925477D02*
X16172693Y60544524D01*
X17172693Y61449286D02*
X17172693Y60973096D01*
X17172693Y60973096D02*
X16696503Y60925477D01*
X16696503Y60925477D02*
X16744122Y60973096D01*
X16744122Y60973096D02*
X16791741Y61068334D01*
X16791741Y61068334D02*
X16791741Y61306429D01*
X16791741Y61306429D02*
X16744122Y61401667D01*
X16744122Y61401667D02*
X16696503Y61449286D01*
X16696503Y61449286D02*
X16601265Y61496905D01*
X16601265Y61496905D02*
X16363170Y61496905D01*
X16363170Y61496905D02*
X16267932Y61449286D01*
X16267932Y61449286D02*
X16220313Y61401667D01*
X16220313Y61401667D02*
X16172693Y61306429D01*
X16172693Y61306429D02*
X16172693Y61068334D01*
X16172693Y61068334D02*
X16220313Y60973096D01*
X16220313Y60973096D02*
X16267932Y60925477D01*
X21172693Y87544524D02*
X21172693Y86973096D01*
X21172693Y87258810D02*
X22172693Y87258810D01*
X22172693Y87258810D02*
X22029836Y87163572D01*
X22029836Y87163572D02*
X21934598Y87068334D01*
X21934598Y87068334D02*
X21886979Y86973096D01*
X22172693Y88163572D02*
X22172693Y88258810D01*
X22172693Y88258810D02*
X22125074Y88354048D01*
X22125074Y88354048D02*
X22077455Y88401667D01*
X22077455Y88401667D02*
X21982217Y88449286D01*
X21982217Y88449286D02*
X21791741Y88496905D01*
X21791741Y88496905D02*
X21553646Y88496905D01*
X21553646Y88496905D02*
X21363170Y88449286D01*
X21363170Y88449286D02*
X21267932Y88401667D01*
X21267932Y88401667D02*
X21220313Y88354048D01*
X21220313Y88354048D02*
X21172693Y88258810D01*
X21172693Y88258810D02*
X21172693Y88163572D01*
X21172693Y88163572D02*
X21220313Y88068334D01*
X21220313Y88068334D02*
X21267932Y88020715D01*
X21267932Y88020715D02*
X21363170Y87973096D01*
X21363170Y87973096D02*
X21553646Y87925477D01*
X21553646Y87925477D02*
X21791741Y87925477D01*
X21791741Y87925477D02*
X21982217Y87973096D01*
X21982217Y87973096D02*
X22077455Y88020715D01*
X22077455Y88020715D02*
X22125074Y88068334D01*
X22125074Y88068334D02*
X22172693Y88163572D01*
X24672693Y58544525D02*
X24672693Y58735001D01*
X24672693Y58735001D02*
X24720313Y58830239D01*
X24720313Y58830239D02*
X24767932Y58877858D01*
X24767932Y58877858D02*
X24910789Y58973096D01*
X24910789Y58973096D02*
X25101265Y59020715D01*
X25101265Y59020715D02*
X25482217Y59020715D01*
X25482217Y59020715D02*
X25577455Y58973096D01*
X25577455Y58973096D02*
X25625074Y58925477D01*
X25625074Y58925477D02*
X25672693Y58830239D01*
X25672693Y58830239D02*
X25672693Y58639763D01*
X25672693Y58639763D02*
X25625074Y58544525D01*
X25625074Y58544525D02*
X25577455Y58496906D01*
X25577455Y58496906D02*
X25482217Y58449287D01*
X25482217Y58449287D02*
X25244122Y58449287D01*
X25244122Y58449287D02*
X25148884Y58496906D01*
X25148884Y58496906D02*
X25101265Y58544525D01*
X25101265Y58544525D02*
X25053646Y58639763D01*
X25053646Y58639763D02*
X25053646Y58830239D01*
X25053646Y58830239D02*
X25101265Y58925477D01*
X25101265Y58925477D02*
X25148884Y58973096D01*
X25148884Y58973096D02*
X25244122Y59020715D01*
X14577455Y88473096D02*
X14625074Y88520715D01*
X14625074Y88520715D02*
X14672693Y88615953D01*
X14672693Y88615953D02*
X14672693Y88854048D01*
X14672693Y88854048D02*
X14625074Y88949286D01*
X14625074Y88949286D02*
X14577455Y88996905D01*
X14577455Y88996905D02*
X14482217Y89044524D01*
X14482217Y89044524D02*
X14386979Y89044524D01*
X14386979Y89044524D02*
X14244122Y88996905D01*
X14244122Y88996905D02*
X13672693Y88425477D01*
X13672693Y88425477D02*
X13672693Y89044524D01*
X14672693Y89901667D02*
X14672693Y89711191D01*
X14672693Y89711191D02*
X14625074Y89615953D01*
X14625074Y89615953D02*
X14577455Y89568334D01*
X14577455Y89568334D02*
X14434598Y89473096D01*
X14434598Y89473096D02*
X14244122Y89425477D01*
X14244122Y89425477D02*
X13863170Y89425477D01*
X13863170Y89425477D02*
X13767932Y89473096D01*
X13767932Y89473096D02*
X13720313Y89520715D01*
X13720313Y89520715D02*
X13672693Y89615953D01*
X13672693Y89615953D02*
X13672693Y89806429D01*
X13672693Y89806429D02*
X13720313Y89901667D01*
X13720313Y89901667D02*
X13767932Y89949286D01*
X13767932Y89949286D02*
X13863170Y89996905D01*
X13863170Y89996905D02*
X14101265Y89996905D01*
X14101265Y89996905D02*
X14196503Y89949286D01*
X14196503Y89949286D02*
X14244122Y89901667D01*
X14244122Y89901667D02*
X14291741Y89806429D01*
X14291741Y89806429D02*
X14291741Y89615953D01*
X14291741Y89615953D02*
X14244122Y89520715D01*
X14244122Y89520715D02*
X14196503Y89473096D01*
X14196503Y89473096D02*
X14101265Y89425477D01*
X14672693Y58425477D02*
X14672693Y59044524D01*
X14672693Y59044524D02*
X14291741Y58711191D01*
X14291741Y58711191D02*
X14291741Y58854048D01*
X14291741Y58854048D02*
X14244122Y58949286D01*
X14244122Y58949286D02*
X14196503Y58996905D01*
X14196503Y58996905D02*
X14101265Y59044524D01*
X14101265Y59044524D02*
X13863170Y59044524D01*
X13863170Y59044524D02*
X13767932Y58996905D01*
X13767932Y58996905D02*
X13720313Y58949286D01*
X13720313Y58949286D02*
X13672693Y58854048D01*
X13672693Y58854048D02*
X13672693Y58568334D01*
X13672693Y58568334D02*
X13720313Y58473096D01*
X13720313Y58473096D02*
X13767932Y58425477D01*
X14339360Y59901667D02*
X13672693Y59901667D01*
X14720313Y59663572D02*
X14006027Y59425477D01*
X14006027Y59425477D02*
X14006027Y60044524D01*
X24640693Y89720715D02*
X24640693Y89149287D01*
X24640693Y89435001D02*
X25640693Y89435001D01*
X25640693Y89435001D02*
X25497836Y89339763D01*
X25497836Y89339763D02*
X25402598Y89244525D01*
X25402598Y89244525D02*
X25354979Y89149287D01*
X42564285Y8955181D02*
X42564285Y9955181D01*
X42564285Y9955181D02*
X42183333Y9955181D01*
X42183333Y9955181D02*
X42088095Y9907562D01*
X42088095Y9907562D02*
X42040476Y9859943D01*
X42040476Y9859943D02*
X41992857Y9764705D01*
X41992857Y9764705D02*
X41992857Y9621848D01*
X41992857Y9621848D02*
X42040476Y9526610D01*
X42040476Y9526610D02*
X42088095Y9478991D01*
X42088095Y9478991D02*
X42183333Y9431372D01*
X42183333Y9431372D02*
X42564285Y9431372D01*
X41040476Y8955181D02*
X41611904Y8955181D01*
X41326190Y8955181D02*
X41326190Y9955181D01*
X41326190Y9955181D02*
X41421428Y9812324D01*
X41421428Y9812324D02*
X41516666Y9717086D01*
X41516666Y9717086D02*
X41611904Y9669467D01*
X40135714Y9955181D02*
X40611904Y9955181D01*
X40611904Y9955181D02*
X40659523Y9478991D01*
X40659523Y9478991D02*
X40611904Y9526610D01*
X40611904Y9526610D02*
X40516666Y9574229D01*
X40516666Y9574229D02*
X40278571Y9574229D01*
X40278571Y9574229D02*
X40183333Y9526610D01*
X40183333Y9526610D02*
X40135714Y9478991D01*
X40135714Y9478991D02*
X40088095Y9383753D01*
X40088095Y9383753D02*
X40088095Y9145658D01*
X40088095Y9145658D02*
X40135714Y9050420D01*
X40135714Y9050420D02*
X40183333Y9002800D01*
X40183333Y9002800D02*
X40278571Y8955181D01*
X40278571Y8955181D02*
X40516666Y8955181D01*
X40516666Y8955181D02*
X40611904Y9002800D01*
X40611904Y9002800D02*
X40659523Y9050420D01*
D11*
X54463999Y21063232D02*
X54717999Y21063232D01*
X54717999Y20664089D02*
X54717999Y21426089D01*
X54717999Y21426089D02*
X54355142Y21426089D01*
X53738285Y21172089D02*
X53738285Y20664089D01*
X53919713Y21462374D02*
X54101142Y20918089D01*
X54101142Y20918089D02*
X53629427Y20918089D01*
D10*
X99048094Y9305181D02*
X99048094Y10305181D01*
X99048094Y10305181D02*
X98667142Y10305181D01*
X98667142Y10305181D02*
X98571904Y10257562D01*
X98571904Y10257562D02*
X98524285Y10209943D01*
X98524285Y10209943D02*
X98476666Y10114705D01*
X98476666Y10114705D02*
X98476666Y9971848D01*
X98476666Y9971848D02*
X98524285Y9876610D01*
X98524285Y9876610D02*
X98571904Y9828991D01*
X98571904Y9828991D02*
X98667142Y9781372D01*
X98667142Y9781372D02*
X99048094Y9781372D01*
X97619523Y9971848D02*
X97619523Y9305181D01*
X97857618Y10352800D02*
X98095713Y9638515D01*
X98095713Y9638515D02*
X97476666Y9638515D01*
X39551004Y8902346D02*
X39551004Y9902346D01*
X39551004Y9902346D02*
X39170052Y9902346D01*
X39170052Y9902346D02*
X39074814Y9854727D01*
X39074814Y9854727D02*
X39027195Y9807108D01*
X39027195Y9807108D02*
X38979576Y9711870D01*
X38979576Y9711870D02*
X38979576Y9569013D01*
X38979576Y9569013D02*
X39027195Y9473775D01*
X39027195Y9473775D02*
X39074814Y9426156D01*
X39074814Y9426156D02*
X39170052Y9378537D01*
X39170052Y9378537D02*
X39551004Y9378537D01*
X38027195Y8902346D02*
X38598623Y8902346D01*
X38312909Y8902346D02*
X38312909Y9902346D01*
X38312909Y9902346D02*
X38408147Y9759489D01*
X38408147Y9759489D02*
X38503385Y9664251D01*
X38503385Y9664251D02*
X38598623Y9616632D01*
X37693861Y9902346D02*
X37027195Y9902346D01*
X37027195Y9902346D02*
X37455766Y8902346D01*
D11*
X56663999Y21063232D02*
X56917999Y21063232D01*
X56917999Y20664089D02*
X56917999Y21426089D01*
X56917999Y21426089D02*
X56555142Y21426089D01*
X56337427Y21426089D02*
X55865713Y21426089D01*
X55865713Y21426089D02*
X56119713Y21135803D01*
X56119713Y21135803D02*
X56010856Y21135803D01*
X56010856Y21135803D02*
X55938285Y21099517D01*
X55938285Y21099517D02*
X55901999Y21063232D01*
X55901999Y21063232D02*
X55865713Y20990660D01*
X55865713Y20990660D02*
X55865713Y20809232D01*
X55865713Y20809232D02*
X55901999Y20736660D01*
X55901999Y20736660D02*
X55938285Y20700374D01*
X55938285Y20700374D02*
X56010856Y20664089D01*
X56010856Y20664089D02*
X56228570Y20664089D01*
X56228570Y20664089D02*
X56301142Y20700374D01*
X56301142Y20700374D02*
X56337427Y20736660D01*
D10*
X57085538Y11951133D02*
X57085538Y12951133D01*
X57085538Y12951133D02*
X56704586Y12951133D01*
X56704586Y12951133D02*
X56609348Y12903514D01*
X56609348Y12903514D02*
X56561729Y12855895D01*
X56561729Y12855895D02*
X56514110Y12760657D01*
X56514110Y12760657D02*
X56514110Y12617800D01*
X56514110Y12617800D02*
X56561729Y12522562D01*
X56561729Y12522562D02*
X56609348Y12474943D01*
X56609348Y12474943D02*
X56704586Y12427324D01*
X56704586Y12427324D02*
X57085538Y12427324D01*
X55561729Y11951133D02*
X56133157Y11951133D01*
X55847443Y11951133D02*
X55847443Y12951133D01*
X55847443Y12951133D02*
X55942681Y12808276D01*
X55942681Y12808276D02*
X56037919Y12713038D01*
X56037919Y12713038D02*
X56133157Y12665419D01*
X54990300Y12522562D02*
X55085538Y12570181D01*
X55085538Y12570181D02*
X55133157Y12617800D01*
X55133157Y12617800D02*
X55180776Y12713038D01*
X55180776Y12713038D02*
X55180776Y12760657D01*
X55180776Y12760657D02*
X55133157Y12855895D01*
X55133157Y12855895D02*
X55085538Y12903514D01*
X55085538Y12903514D02*
X54990300Y12951133D01*
X54990300Y12951133D02*
X54799824Y12951133D01*
X54799824Y12951133D02*
X54704586Y12903514D01*
X54704586Y12903514D02*
X54656967Y12855895D01*
X54656967Y12855895D02*
X54609348Y12760657D01*
X54609348Y12760657D02*
X54609348Y12713038D01*
X54609348Y12713038D02*
X54656967Y12617800D01*
X54656967Y12617800D02*
X54704586Y12570181D01*
X54704586Y12570181D02*
X54799824Y12522562D01*
X54799824Y12522562D02*
X54990300Y12522562D01*
X54990300Y12522562D02*
X55085538Y12474943D01*
X55085538Y12474943D02*
X55133157Y12427324D01*
X55133157Y12427324D02*
X55180776Y12332086D01*
X55180776Y12332086D02*
X55180776Y12141610D01*
X55180776Y12141610D02*
X55133157Y12046372D01*
X55133157Y12046372D02*
X55085538Y11998752D01*
X55085538Y11998752D02*
X54990300Y11951133D01*
X54990300Y11951133D02*
X54799824Y11951133D01*
X54799824Y11951133D02*
X54704586Y11998752D01*
X54704586Y11998752D02*
X54656967Y12046372D01*
X54656967Y12046372D02*
X54609348Y12141610D01*
X54609348Y12141610D02*
X54609348Y12332086D01*
X54609348Y12332086D02*
X54656967Y12427324D01*
X54656967Y12427324D02*
X54704586Y12474943D01*
X54704586Y12474943D02*
X54799824Y12522562D01*
X14672693Y9875477D02*
X14672693Y10494524D01*
X14672693Y10494524D02*
X14291741Y10161191D01*
X14291741Y10161191D02*
X14291741Y10304048D01*
X14291741Y10304048D02*
X14244122Y10399286D01*
X14244122Y10399286D02*
X14196503Y10446905D01*
X14196503Y10446905D02*
X14101265Y10494524D01*
X14101265Y10494524D02*
X13863170Y10494524D01*
X13863170Y10494524D02*
X13767932Y10446905D01*
X13767932Y10446905D02*
X13720313Y10399286D01*
X13720313Y10399286D02*
X13672693Y10304048D01*
X13672693Y10304048D02*
X13672693Y10018334D01*
X13672693Y10018334D02*
X13720313Y9923096D01*
X13720313Y9923096D02*
X13767932Y9875477D01*
X14339360Y11351667D02*
X13672693Y11351667D01*
X14720313Y11113572D02*
X14006027Y10875477D01*
X14006027Y10875477D02*
X14006027Y11494524D01*
X24672693Y9994525D02*
X24672693Y10185001D01*
X24672693Y10185001D02*
X24720313Y10280239D01*
X24720313Y10280239D02*
X24767932Y10327858D01*
X24767932Y10327858D02*
X24910789Y10423096D01*
X24910789Y10423096D02*
X25101265Y10470715D01*
X25101265Y10470715D02*
X25482217Y10470715D01*
X25482217Y10470715D02*
X25577455Y10423096D01*
X25577455Y10423096D02*
X25625074Y10375477D01*
X25625074Y10375477D02*
X25672693Y10280239D01*
X25672693Y10280239D02*
X25672693Y10089763D01*
X25672693Y10089763D02*
X25625074Y9994525D01*
X25625074Y9994525D02*
X25577455Y9946906D01*
X25577455Y9946906D02*
X25482217Y9899287D01*
X25482217Y9899287D02*
X25244122Y9899287D01*
X25244122Y9899287D02*
X25148884Y9946906D01*
X25148884Y9946906D02*
X25101265Y9994525D01*
X25101265Y9994525D02*
X25053646Y10089763D01*
X25053646Y10089763D02*
X25053646Y10280239D01*
X25053646Y10280239D02*
X25101265Y10375477D01*
X25101265Y10375477D02*
X25148884Y10423096D01*
X25148884Y10423096D02*
X25244122Y10470715D01*
X16172693Y38994524D02*
X16172693Y38423096D01*
X16172693Y38708810D02*
X17172693Y38708810D01*
X17172693Y38708810D02*
X17029836Y38613572D01*
X17029836Y38613572D02*
X16934598Y38518334D01*
X16934598Y38518334D02*
X16886979Y38423096D01*
X16744122Y39565953D02*
X16791741Y39470715D01*
X16791741Y39470715D02*
X16839360Y39423096D01*
X16839360Y39423096D02*
X16934598Y39375477D01*
X16934598Y39375477D02*
X16982217Y39375477D01*
X16982217Y39375477D02*
X17077455Y39423096D01*
X17077455Y39423096D02*
X17125074Y39470715D01*
X17125074Y39470715D02*
X17172693Y39565953D01*
X17172693Y39565953D02*
X17172693Y39756429D01*
X17172693Y39756429D02*
X17125074Y39851667D01*
X17125074Y39851667D02*
X17077455Y39899286D01*
X17077455Y39899286D02*
X16982217Y39946905D01*
X16982217Y39946905D02*
X16934598Y39946905D01*
X16934598Y39946905D02*
X16839360Y39899286D01*
X16839360Y39899286D02*
X16791741Y39851667D01*
X16791741Y39851667D02*
X16744122Y39756429D01*
X16744122Y39756429D02*
X16744122Y39565953D01*
X16744122Y39565953D02*
X16696503Y39470715D01*
X16696503Y39470715D02*
X16648884Y39423096D01*
X16648884Y39423096D02*
X16553646Y39375477D01*
X16553646Y39375477D02*
X16363170Y39375477D01*
X16363170Y39375477D02*
X16267932Y39423096D01*
X16267932Y39423096D02*
X16220313Y39470715D01*
X16220313Y39470715D02*
X16172693Y39565953D01*
X16172693Y39565953D02*
X16172693Y39756429D01*
X16172693Y39756429D02*
X16220313Y39851667D01*
X16220313Y39851667D02*
X16267932Y39899286D01*
X16267932Y39899286D02*
X16363170Y39946905D01*
X16363170Y39946905D02*
X16553646Y39946905D01*
X16553646Y39946905D02*
X16648884Y39899286D01*
X16648884Y39899286D02*
X16696503Y39851667D01*
X16696503Y39851667D02*
X16744122Y39756429D01*
X24640693Y41170715D02*
X24640693Y40599287D01*
X24640693Y40885001D02*
X25640693Y40885001D01*
X25640693Y40885001D02*
X25497836Y40789763D01*
X25497836Y40789763D02*
X25402598Y40694525D01*
X25402598Y40694525D02*
X25354979Y40599287D01*
X22172693Y12494524D02*
X22172693Y11923096D01*
X22172693Y12208810D02*
X23172693Y12208810D01*
X23172693Y12208810D02*
X23029836Y12113572D01*
X23029836Y12113572D02*
X22934598Y12018334D01*
X22934598Y12018334D02*
X22886979Y11923096D01*
X23172693Y12827858D02*
X23172693Y13494524D01*
X23172693Y13494524D02*
X22172693Y13065953D01*
X17077455Y11423096D02*
X17125074Y11470715D01*
X17125074Y11470715D02*
X17172693Y11565953D01*
X17172693Y11565953D02*
X17172693Y11804048D01*
X17172693Y11804048D02*
X17125074Y11899286D01*
X17125074Y11899286D02*
X17077455Y11946905D01*
X17077455Y11946905D02*
X16982217Y11994524D01*
X16982217Y11994524D02*
X16886979Y11994524D01*
X16886979Y11994524D02*
X16744122Y11946905D01*
X16744122Y11946905D02*
X16172693Y11375477D01*
X16172693Y11375477D02*
X16172693Y11994524D01*
X17172693Y12899286D02*
X17172693Y12423096D01*
X17172693Y12423096D02*
X16696503Y12375477D01*
X16696503Y12375477D02*
X16744122Y12423096D01*
X16744122Y12423096D02*
X16791741Y12518334D01*
X16791741Y12518334D02*
X16791741Y12756429D01*
X16791741Y12756429D02*
X16744122Y12851667D01*
X16744122Y12851667D02*
X16696503Y12899286D01*
X16696503Y12899286D02*
X16601265Y12946905D01*
X16601265Y12946905D02*
X16363170Y12946905D01*
X16363170Y12946905D02*
X16267932Y12899286D01*
X16267932Y12899286D02*
X16220313Y12851667D01*
X16220313Y12851667D02*
X16172693Y12756429D01*
X16172693Y12756429D02*
X16172693Y12518334D01*
X16172693Y12518334D02*
X16220313Y12423096D01*
X16220313Y12423096D02*
X16267932Y12375477D01*
X14577455Y39923096D02*
X14625074Y39970715D01*
X14625074Y39970715D02*
X14672693Y40065953D01*
X14672693Y40065953D02*
X14672693Y40304048D01*
X14672693Y40304048D02*
X14625074Y40399286D01*
X14625074Y40399286D02*
X14577455Y40446905D01*
X14577455Y40446905D02*
X14482217Y40494524D01*
X14482217Y40494524D02*
X14386979Y40494524D01*
X14386979Y40494524D02*
X14244122Y40446905D01*
X14244122Y40446905D02*
X13672693Y39875477D01*
X13672693Y39875477D02*
X13672693Y40494524D01*
X14672693Y41351667D02*
X14672693Y41161191D01*
X14672693Y41161191D02*
X14625074Y41065953D01*
X14625074Y41065953D02*
X14577455Y41018334D01*
X14577455Y41018334D02*
X14434598Y40923096D01*
X14434598Y40923096D02*
X14244122Y40875477D01*
X14244122Y40875477D02*
X13863170Y40875477D01*
X13863170Y40875477D02*
X13767932Y40923096D01*
X13767932Y40923096D02*
X13720313Y40970715D01*
X13720313Y40970715D02*
X13672693Y41065953D01*
X13672693Y41065953D02*
X13672693Y41256429D01*
X13672693Y41256429D02*
X13720313Y41351667D01*
X13720313Y41351667D02*
X13767932Y41399286D01*
X13767932Y41399286D02*
X13863170Y41446905D01*
X13863170Y41446905D02*
X14101265Y41446905D01*
X14101265Y41446905D02*
X14196503Y41399286D01*
X14196503Y41399286D02*
X14244122Y41351667D01*
X14244122Y41351667D02*
X14291741Y41256429D01*
X14291741Y41256429D02*
X14291741Y41065953D01*
X14291741Y41065953D02*
X14244122Y40970715D01*
X14244122Y40970715D02*
X14196503Y40923096D01*
X14196503Y40923096D02*
X14101265Y40875477D01*
X21172693Y38994524D02*
X21172693Y38423096D01*
X21172693Y38708810D02*
X22172693Y38708810D01*
X22172693Y38708810D02*
X22029836Y38613572D01*
X22029836Y38613572D02*
X21934598Y38518334D01*
X21934598Y38518334D02*
X21886979Y38423096D01*
X22172693Y39613572D02*
X22172693Y39708810D01*
X22172693Y39708810D02*
X22125074Y39804048D01*
X22125074Y39804048D02*
X22077455Y39851667D01*
X22077455Y39851667D02*
X21982217Y39899286D01*
X21982217Y39899286D02*
X21791741Y39946905D01*
X21791741Y39946905D02*
X21553646Y39946905D01*
X21553646Y39946905D02*
X21363170Y39899286D01*
X21363170Y39899286D02*
X21267932Y39851667D01*
X21267932Y39851667D02*
X21220313Y39804048D01*
X21220313Y39804048D02*
X21172693Y39708810D01*
X21172693Y39708810D02*
X21172693Y39613572D01*
X21172693Y39613572D02*
X21220313Y39518334D01*
X21220313Y39518334D02*
X21267932Y39470715D01*
X21267932Y39470715D02*
X21363170Y39423096D01*
X21363170Y39423096D02*
X21553646Y39375477D01*
X21553646Y39375477D02*
X21791741Y39375477D01*
X21791741Y39375477D02*
X21982217Y39423096D01*
X21982217Y39423096D02*
X22077455Y39470715D01*
X22077455Y39470715D02*
X22125074Y39518334D01*
X22125074Y39518334D02*
X22172693Y39613572D01*
X75608094Y47805181D02*
X75608094Y48805181D01*
X75608094Y48805181D02*
X75227142Y48805181D01*
X75227142Y48805181D02*
X75131904Y48757562D01*
X75131904Y48757562D02*
X75084285Y48709943D01*
X75084285Y48709943D02*
X75036666Y48614705D01*
X75036666Y48614705D02*
X75036666Y48471848D01*
X75036666Y48471848D02*
X75084285Y48376610D01*
X75084285Y48376610D02*
X75131904Y48328991D01*
X75131904Y48328991D02*
X75227142Y48281372D01*
X75227142Y48281372D02*
X75608094Y48281372D01*
X74179523Y48805181D02*
X74369999Y48805181D01*
X74369999Y48805181D02*
X74465237Y48757562D01*
X74465237Y48757562D02*
X74512856Y48709943D01*
X74512856Y48709943D02*
X74608094Y48567086D01*
X74608094Y48567086D02*
X74655713Y48376610D01*
X74655713Y48376610D02*
X74655713Y47995658D01*
X74655713Y47995658D02*
X74608094Y47900420D01*
X74608094Y47900420D02*
X74560475Y47852800D01*
X74560475Y47852800D02*
X74465237Y47805181D01*
X74465237Y47805181D02*
X74274761Y47805181D01*
X74274761Y47805181D02*
X74179523Y47852800D01*
X74179523Y47852800D02*
X74131904Y47900420D01*
X74131904Y47900420D02*
X74084285Y47995658D01*
X74084285Y47995658D02*
X74084285Y48233753D01*
X74084285Y48233753D02*
X74131904Y48328991D01*
X74131904Y48328991D02*
X74179523Y48376610D01*
X74179523Y48376610D02*
X74274761Y48424229D01*
X74274761Y48424229D02*
X74465237Y48424229D01*
X74465237Y48424229D02*
X74560475Y48376610D01*
X74560475Y48376610D02*
X74608094Y48328991D01*
X74608094Y48328991D02*
X74655713Y48233753D01*
D11*
X58863999Y21063232D02*
X59117999Y21063232D01*
X59117999Y20664089D02*
X59117999Y21426089D01*
X59117999Y21426089D02*
X58755142Y21426089D01*
X58065713Y20664089D02*
X58501142Y20664089D01*
X58283427Y20664089D02*
X58283427Y21426089D01*
X58283427Y21426089D02*
X58355999Y21317232D01*
X58355999Y21317232D02*
X58428570Y21244660D01*
X58428570Y21244660D02*
X58501142Y21208374D01*
D10*
X99048094Y4305181D02*
X99048094Y5305181D01*
X99048094Y5305181D02*
X98667142Y5305181D01*
X98667142Y5305181D02*
X98571904Y5257562D01*
X98571904Y5257562D02*
X98524285Y5209943D01*
X98524285Y5209943D02*
X98476666Y5114705D01*
X98476666Y5114705D02*
X98476666Y4971848D01*
X98476666Y4971848D02*
X98524285Y4876610D01*
X98524285Y4876610D02*
X98571904Y4828991D01*
X98571904Y4828991D02*
X98667142Y4781372D01*
X98667142Y4781372D02*
X99048094Y4781372D01*
X98143332Y5305181D02*
X97524285Y5305181D01*
X97524285Y5305181D02*
X97857618Y4924229D01*
X97857618Y4924229D02*
X97714761Y4924229D01*
X97714761Y4924229D02*
X97619523Y4876610D01*
X97619523Y4876610D02*
X97571904Y4828991D01*
X97571904Y4828991D02*
X97524285Y4733753D01*
X97524285Y4733753D02*
X97524285Y4495658D01*
X97524285Y4495658D02*
X97571904Y4400420D01*
X97571904Y4400420D02*
X97619523Y4352800D01*
X97619523Y4352800D02*
X97714761Y4305181D01*
X97714761Y4305181D02*
X98000475Y4305181D01*
X98000475Y4305181D02*
X98095713Y4352800D01*
X98095713Y4352800D02*
X98143332Y4400420D01*
D11*
X79411608Y7733698D02*
X79665608Y8096555D01*
X79847037Y7733698D02*
X79847037Y8495698D01*
X79847037Y8495698D02*
X79556751Y8495698D01*
X79556751Y8495698D02*
X79484180Y8459412D01*
X79484180Y8459412D02*
X79447894Y8423126D01*
X79447894Y8423126D02*
X79411608Y8350555D01*
X79411608Y8350555D02*
X79411608Y8241698D01*
X79411608Y8241698D02*
X79447894Y8169126D01*
X79447894Y8169126D02*
X79484180Y8132841D01*
X79484180Y8132841D02*
X79556751Y8096555D01*
X79556751Y8096555D02*
X79847037Y8096555D01*
X78758466Y8241698D02*
X78758466Y7733698D01*
X78939894Y8531983D02*
X79121323Y7987698D01*
X79121323Y7987698D02*
X78649608Y7987698D01*
D10*
X119748094Y25805181D02*
X119748094Y26805181D01*
X119748094Y26805181D02*
X119367142Y26805181D01*
X119367142Y26805181D02*
X119271904Y26757562D01*
X119271904Y26757562D02*
X119224285Y26709943D01*
X119224285Y26709943D02*
X119176666Y26614705D01*
X119176666Y26614705D02*
X119176666Y26471848D01*
X119176666Y26471848D02*
X119224285Y26376610D01*
X119224285Y26376610D02*
X119271904Y26328991D01*
X119271904Y26328991D02*
X119367142Y26281372D01*
X119367142Y26281372D02*
X119748094Y26281372D01*
X118843332Y26805181D02*
X118176666Y26805181D01*
X118176666Y26805181D02*
X118605237Y25805181D01*
D11*
X52756768Y22864000D02*
X52756768Y23118000D01*
X53155911Y23118000D02*
X52393911Y23118000D01*
X52393911Y23118000D02*
X52393911Y22755143D01*
X52466483Y22501143D02*
X52430197Y22464857D01*
X52430197Y22464857D02*
X52393911Y22392285D01*
X52393911Y22392285D02*
X52393911Y22210857D01*
X52393911Y22210857D02*
X52430197Y22138285D01*
X52430197Y22138285D02*
X52466483Y22102000D01*
X52466483Y22102000D02*
X52539054Y22065714D01*
X52539054Y22065714D02*
X52611626Y22065714D01*
X52611626Y22065714D02*
X52720483Y22102000D01*
X52720483Y22102000D02*
X53155911Y22537428D01*
X53155911Y22537428D02*
X53155911Y22065714D01*
D10*
X48024285Y11955181D02*
X48024285Y12955181D01*
X48024285Y12955181D02*
X47643333Y12955181D01*
X47643333Y12955181D02*
X47548095Y12907562D01*
X47548095Y12907562D02*
X47500476Y12859943D01*
X47500476Y12859943D02*
X47452857Y12764705D01*
X47452857Y12764705D02*
X47452857Y12621848D01*
X47452857Y12621848D02*
X47500476Y12526610D01*
X47500476Y12526610D02*
X47548095Y12478991D01*
X47548095Y12478991D02*
X47643333Y12431372D01*
X47643333Y12431372D02*
X48024285Y12431372D01*
X46500476Y11955181D02*
X47071904Y11955181D01*
X46786190Y11955181D02*
X46786190Y12955181D01*
X46786190Y12955181D02*
X46881428Y12812324D01*
X46881428Y12812324D02*
X46976666Y12717086D01*
X46976666Y12717086D02*
X47071904Y12669467D01*
X45643333Y12955181D02*
X45833809Y12955181D01*
X45833809Y12955181D02*
X45929047Y12907562D01*
X45929047Y12907562D02*
X45976666Y12859943D01*
X45976666Y12859943D02*
X46071904Y12717086D01*
X46071904Y12717086D02*
X46119523Y12526610D01*
X46119523Y12526610D02*
X46119523Y12145658D01*
X46119523Y12145658D02*
X46071904Y12050420D01*
X46071904Y12050420D02*
X46024285Y12002800D01*
X46024285Y12002800D02*
X45929047Y11955181D01*
X45929047Y11955181D02*
X45738571Y11955181D01*
X45738571Y11955181D02*
X45643333Y12002800D01*
X45643333Y12002800D02*
X45595714Y12050420D01*
X45595714Y12050420D02*
X45548095Y12145658D01*
X45548095Y12145658D02*
X45548095Y12383753D01*
X45548095Y12383753D02*
X45595714Y12478991D01*
X45595714Y12478991D02*
X45643333Y12526610D01*
X45643333Y12526610D02*
X45738571Y12574229D01*
X45738571Y12574229D02*
X45929047Y12574229D01*
X45929047Y12574229D02*
X46024285Y12526610D01*
X46024285Y12526610D02*
X46071904Y12478991D01*
X46071904Y12478991D02*
X46119523Y12383753D01*
X89048094Y78855181D02*
X89048094Y79855181D01*
X89048094Y79855181D02*
X88809999Y79855181D01*
X88809999Y79855181D02*
X88667142Y79807562D01*
X88667142Y79807562D02*
X88571904Y79712324D01*
X88571904Y79712324D02*
X88524285Y79617086D01*
X88524285Y79617086D02*
X88476666Y79426610D01*
X88476666Y79426610D02*
X88476666Y79283753D01*
X88476666Y79283753D02*
X88524285Y79093277D01*
X88524285Y79093277D02*
X88571904Y78998039D01*
X88571904Y78998039D02*
X88667142Y78902800D01*
X88667142Y78902800D02*
X88809999Y78855181D01*
X88809999Y78855181D02*
X89048094Y78855181D01*
X87905237Y79426610D02*
X88000475Y79474229D01*
X88000475Y79474229D02*
X88048094Y79521848D01*
X88048094Y79521848D02*
X88095713Y79617086D01*
X88095713Y79617086D02*
X88095713Y79664705D01*
X88095713Y79664705D02*
X88048094Y79759943D01*
X88048094Y79759943D02*
X88000475Y79807562D01*
X88000475Y79807562D02*
X87905237Y79855181D01*
X87905237Y79855181D02*
X87714761Y79855181D01*
X87714761Y79855181D02*
X87619523Y79807562D01*
X87619523Y79807562D02*
X87571904Y79759943D01*
X87571904Y79759943D02*
X87524285Y79664705D01*
X87524285Y79664705D02*
X87524285Y79617086D01*
X87524285Y79617086D02*
X87571904Y79521848D01*
X87571904Y79521848D02*
X87619523Y79474229D01*
X87619523Y79474229D02*
X87714761Y79426610D01*
X87714761Y79426610D02*
X87905237Y79426610D01*
X87905237Y79426610D02*
X88000475Y79378991D01*
X88000475Y79378991D02*
X88048094Y79331372D01*
X88048094Y79331372D02*
X88095713Y79236134D01*
X88095713Y79236134D02*
X88095713Y79045658D01*
X88095713Y79045658D02*
X88048094Y78950420D01*
X88048094Y78950420D02*
X88000475Y78902800D01*
X88000475Y78902800D02*
X87905237Y78855181D01*
X87905237Y78855181D02*
X87714761Y78855181D01*
X87714761Y78855181D02*
X87619523Y78902800D01*
X87619523Y78902800D02*
X87571904Y78950420D01*
X87571904Y78950420D02*
X87524285Y79045658D01*
X87524285Y79045658D02*
X87524285Y79236134D01*
X87524285Y79236134D02*
X87571904Y79331372D01*
X87571904Y79331372D02*
X87619523Y79378991D01*
X87619523Y79378991D02*
X87714761Y79426610D01*
X48239417Y69685181D02*
X48239417Y68875658D01*
X48239417Y68875658D02*
X48191798Y68780420D01*
X48191798Y68780420D02*
X48144179Y68732800D01*
X48144179Y68732800D02*
X48048941Y68685181D01*
X48048941Y68685181D02*
X47858465Y68685181D01*
X47858465Y68685181D02*
X47763227Y68732800D01*
X47763227Y68732800D02*
X47715608Y68780420D01*
X47715608Y68780420D02*
X47667989Y68875658D01*
X47667989Y68875658D02*
X47667989Y69685181D01*
X47287036Y69685181D02*
X46620370Y69685181D01*
X46620370Y69685181D02*
X47048941Y68685181D01*
D12*
X97922712Y68284348D02*
X97961760Y68323396D01*
X97961760Y68323396D02*
X98000807Y68440539D01*
X98000807Y68440539D02*
X98000807Y68518634D01*
X98000807Y68518634D02*
X97961760Y68635777D01*
X97961760Y68635777D02*
X97883664Y68713872D01*
X97883664Y68713872D02*
X97805569Y68752920D01*
X97805569Y68752920D02*
X97649378Y68791968D01*
X97649378Y68791968D02*
X97532235Y68791968D01*
X97532235Y68791968D02*
X97376045Y68752920D01*
X97376045Y68752920D02*
X97297949Y68713872D01*
X97297949Y68713872D02*
X97219854Y68635777D01*
X97219854Y68635777D02*
X97180806Y68518634D01*
X97180806Y68518634D02*
X97180806Y68440539D01*
X97180806Y68440539D02*
X97219854Y68323396D01*
X97219854Y68323396D02*
X97258902Y68284348D01*
X97258902Y67971967D02*
X97219854Y67932919D01*
X97219854Y67932919D02*
X97180806Y67854824D01*
X97180806Y67854824D02*
X97180806Y67659585D01*
X97180806Y67659585D02*
X97219854Y67581490D01*
X97219854Y67581490D02*
X97258902Y67542442D01*
X97258902Y67542442D02*
X97336997Y67503395D01*
X97336997Y67503395D02*
X97415092Y67503395D01*
X97415092Y67503395D02*
X97532235Y67542442D01*
X97532235Y67542442D02*
X98000807Y68011014D01*
X98000807Y68011014D02*
X98000807Y67503395D01*
X97180806Y67230061D02*
X97180806Y66683394D01*
X97180806Y66683394D02*
X98000807Y67034823D01*
X40805237Y33099492D02*
X40805237Y33919492D01*
X40805237Y33919492D02*
X40609999Y33919492D01*
X40609999Y33919492D02*
X40492856Y33880444D01*
X40492856Y33880444D02*
X40414761Y33802349D01*
X40414761Y33802349D02*
X40375714Y33724254D01*
X40375714Y33724254D02*
X40336666Y33568063D01*
X40336666Y33568063D02*
X40336666Y33450920D01*
X40336666Y33450920D02*
X40375714Y33294730D01*
X40375714Y33294730D02*
X40414761Y33216635D01*
X40414761Y33216635D02*
X40492856Y33138539D01*
X40492856Y33138539D02*
X40609999Y33099492D01*
X40609999Y33099492D02*
X40805237Y33099492D01*
X39633809Y33646159D02*
X39633809Y33099492D01*
X39829047Y33958539D02*
X40024285Y33372825D01*
X40024285Y33372825D02*
X39516666Y33372825D01*
D10*
X133362714Y16999049D02*
X133219857Y16951430D01*
X133219857Y16951430D02*
X133172238Y16903811D01*
X133172238Y16903811D02*
X133124619Y16808573D01*
X133124619Y16808573D02*
X133124619Y16665716D01*
X133124619Y16665716D02*
X133172238Y16570478D01*
X133172238Y16570478D02*
X133219857Y16522858D01*
X133219857Y16522858D02*
X133315095Y16475239D01*
X133315095Y16475239D02*
X133696047Y16475239D01*
X133696047Y16475239D02*
X133696047Y17475239D01*
X133696047Y17475239D02*
X133362714Y17475239D01*
X133362714Y17475239D02*
X133267476Y17427620D01*
X133267476Y17427620D02*
X133219857Y17380001D01*
X133219857Y17380001D02*
X133172238Y17284763D01*
X133172238Y17284763D02*
X133172238Y17189525D01*
X133172238Y17189525D02*
X133219857Y17094287D01*
X133219857Y17094287D02*
X133267476Y17046668D01*
X133267476Y17046668D02*
X133362714Y16999049D01*
X133362714Y16999049D02*
X133696047Y16999049D01*
X132838904Y17475239D02*
X132267476Y17475239D01*
X132553190Y16475239D02*
X132553190Y17475239D01*
X131410333Y16475239D02*
X131981761Y16475239D01*
X131696047Y16475239D02*
X131696047Y17475239D01*
X131696047Y17475239D02*
X131791285Y17332382D01*
X131791285Y17332382D02*
X131886523Y17237144D01*
X131886523Y17237144D02*
X131981761Y17189525D01*
D13*
X125626041Y33803305D02*
X125687945Y33741400D01*
X125687945Y33741400D02*
X125873660Y33679496D01*
X125873660Y33679496D02*
X125997469Y33679496D01*
X125997469Y33679496D02*
X126183183Y33741400D01*
X126183183Y33741400D02*
X126306993Y33865210D01*
X126306993Y33865210D02*
X126368898Y33989020D01*
X126368898Y33989020D02*
X126430802Y34236639D01*
X126430802Y34236639D02*
X126430802Y34422353D01*
X126430802Y34422353D02*
X126368898Y34669972D01*
X126368898Y34669972D02*
X126306993Y34793781D01*
X126306993Y34793781D02*
X126183183Y34917591D01*
X126183183Y34917591D02*
X125997469Y34979496D01*
X125997469Y34979496D02*
X125873660Y34979496D01*
X125873660Y34979496D02*
X125687945Y34917591D01*
X125687945Y34917591D02*
X125626041Y34855686D01*
X124326041Y33679496D02*
X124759374Y34298543D01*
X125068898Y33679496D02*
X125068898Y34979496D01*
X125068898Y34979496D02*
X124573660Y34979496D01*
X124573660Y34979496D02*
X124449850Y34917591D01*
X124449850Y34917591D02*
X124387945Y34855686D01*
X124387945Y34855686D02*
X124326041Y34731877D01*
X124326041Y34731877D02*
X124326041Y34546162D01*
X124326041Y34546162D02*
X124387945Y34422353D01*
X124387945Y34422353D02*
X124449850Y34360448D01*
X124449850Y34360448D02*
X124573660Y34298543D01*
X124573660Y34298543D02*
X125068898Y34298543D01*
X123087945Y33679496D02*
X123830802Y33679496D01*
X123459374Y33679496D02*
X123459374Y34979496D01*
X123459374Y34979496D02*
X123583183Y34793781D01*
X123583183Y34793781D02*
X123706993Y34669972D01*
X123706993Y34669972D02*
X123830802Y34608067D01*
X122592707Y34855686D02*
X122530803Y34917591D01*
X122530803Y34917591D02*
X122406993Y34979496D01*
X122406993Y34979496D02*
X122097469Y34979496D01*
X122097469Y34979496D02*
X121973660Y34917591D01*
X121973660Y34917591D02*
X121911755Y34855686D01*
X121911755Y34855686D02*
X121849850Y34731877D01*
X121849850Y34731877D02*
X121849850Y34608067D01*
X121849850Y34608067D02*
X121911755Y34422353D01*
X121911755Y34422353D02*
X122654612Y33679496D01*
X122654612Y33679496D02*
X121849850Y33679496D01*
X121354612Y34855686D02*
X121292708Y34917591D01*
X121292708Y34917591D02*
X121168898Y34979496D01*
X121168898Y34979496D02*
X120859374Y34979496D01*
X120859374Y34979496D02*
X120735565Y34917591D01*
X120735565Y34917591D02*
X120673660Y34855686D01*
X120673660Y34855686D02*
X120611755Y34731877D01*
X120611755Y34731877D02*
X120611755Y34608067D01*
X120611755Y34608067D02*
X120673660Y34422353D01*
X120673660Y34422353D02*
X121416517Y33679496D01*
X121416517Y33679496D02*
X120611755Y33679496D01*
X119806994Y34979496D02*
X119683184Y34979496D01*
X119683184Y34979496D02*
X119559375Y34917591D01*
X119559375Y34917591D02*
X119497470Y34855686D01*
X119497470Y34855686D02*
X119435565Y34731877D01*
X119435565Y34731877D02*
X119373660Y34484258D01*
X119373660Y34484258D02*
X119373660Y34174734D01*
X119373660Y34174734D02*
X119435565Y33927115D01*
X119435565Y33927115D02*
X119497470Y33803305D01*
X119497470Y33803305D02*
X119559375Y33741400D01*
X119559375Y33741400D02*
X119683184Y33679496D01*
X119683184Y33679496D02*
X119806994Y33679496D01*
X119806994Y33679496D02*
X119930803Y33741400D01*
X119930803Y33741400D02*
X119992708Y33803305D01*
X119992708Y33803305D02*
X120054613Y33927115D01*
X120054613Y33927115D02*
X120116517Y34174734D01*
X120116517Y34174734D02*
X120116517Y34484258D01*
X120116517Y34484258D02*
X120054613Y34731877D01*
X120054613Y34731877D02*
X119992708Y34855686D01*
X119992708Y34855686D02*
X119930803Y34917591D01*
X119930803Y34917591D02*
X119806994Y34979496D01*
D10*
X47268094Y47155181D02*
X47268094Y46345658D01*
X47268094Y46345658D02*
X47220475Y46250420D01*
X47220475Y46250420D02*
X47172856Y46202800D01*
X47172856Y46202800D02*
X47077618Y46155181D01*
X47077618Y46155181D02*
X46887142Y46155181D01*
X46887142Y46155181D02*
X46791904Y46202800D01*
X46791904Y46202800D02*
X46744285Y46250420D01*
X46744285Y46250420D02*
X46696666Y46345658D01*
X46696666Y46345658D02*
X46696666Y47155181D01*
X45696666Y46155181D02*
X46268094Y46155181D01*
X45982380Y46155181D02*
X45982380Y47155181D01*
X45982380Y47155181D02*
X46077618Y47012324D01*
X46077618Y47012324D02*
X46172856Y46917086D01*
X46172856Y46917086D02*
X46268094Y46869467D01*
X45077618Y47155181D02*
X44982380Y47155181D01*
X44982380Y47155181D02*
X44887142Y47107562D01*
X44887142Y47107562D02*
X44839523Y47059943D01*
X44839523Y47059943D02*
X44791904Y46964705D01*
X44791904Y46964705D02*
X44744285Y46774229D01*
X44744285Y46774229D02*
X44744285Y46536134D01*
X44744285Y46536134D02*
X44791904Y46345658D01*
X44791904Y46345658D02*
X44839523Y46250420D01*
X44839523Y46250420D02*
X44887142Y46202800D01*
X44887142Y46202800D02*
X44982380Y46155181D01*
X44982380Y46155181D02*
X45077618Y46155181D01*
X45077618Y46155181D02*
X45172856Y46202800D01*
X45172856Y46202800D02*
X45220475Y46250420D01*
X45220475Y46250420D02*
X45268094Y46345658D01*
X45268094Y46345658D02*
X45315713Y46536134D01*
X45315713Y46536134D02*
X45315713Y46774229D01*
X45315713Y46774229D02*
X45268094Y46964705D01*
X45268094Y46964705D02*
X45220475Y47059943D01*
X45220475Y47059943D02*
X45172856Y47107562D01*
X45172856Y47107562D02*
X45077618Y47155181D01*
D12*
X45243164Y48830809D02*
X44969831Y48440333D01*
X44774593Y48830809D02*
X44774593Y48010809D01*
X44774593Y48010809D02*
X45086974Y48010809D01*
X45086974Y48010809D02*
X45165069Y48049857D01*
X45165069Y48049857D02*
X45204116Y48088904D01*
X45204116Y48088904D02*
X45243164Y48167000D01*
X45243164Y48167000D02*
X45243164Y48284142D01*
X45243164Y48284142D02*
X45204116Y48362238D01*
X45204116Y48362238D02*
X45165069Y48401285D01*
X45165069Y48401285D02*
X45086974Y48440333D01*
X45086974Y48440333D02*
X44774593Y48440333D01*
X45516497Y48010809D02*
X46024116Y48010809D01*
X46024116Y48010809D02*
X45750783Y48323190D01*
X45750783Y48323190D02*
X45867926Y48323190D01*
X45867926Y48323190D02*
X45946021Y48362238D01*
X45946021Y48362238D02*
X45985069Y48401285D01*
X45985069Y48401285D02*
X46024116Y48479381D01*
X46024116Y48479381D02*
X46024116Y48674619D01*
X46024116Y48674619D02*
X45985069Y48752714D01*
X45985069Y48752714D02*
X45946021Y48791761D01*
X45946021Y48791761D02*
X45867926Y48830809D01*
X45867926Y48830809D02*
X45633640Y48830809D01*
X45633640Y48830809D02*
X45555545Y48791761D01*
X45555545Y48791761D02*
X45516497Y48752714D01*
X46805068Y48830809D02*
X46336497Y48830809D01*
X46570783Y48830809D02*
X46570783Y48010809D01*
X46570783Y48010809D02*
X46492687Y48127952D01*
X46492687Y48127952D02*
X46414592Y48206047D01*
X46414592Y48206047D02*
X46336497Y48245095D01*
X95034347Y80997288D02*
X95073395Y80958240D01*
X95073395Y80958240D02*
X95190538Y80919193D01*
X95190538Y80919193D02*
X95268633Y80919193D01*
X95268633Y80919193D02*
X95385776Y80958240D01*
X95385776Y80958240D02*
X95463872Y81036336D01*
X95463872Y81036336D02*
X95502919Y81114431D01*
X95502919Y81114431D02*
X95541967Y81270622D01*
X95541967Y81270622D02*
X95541967Y81387765D01*
X95541967Y81387765D02*
X95502919Y81543955D01*
X95502919Y81543955D02*
X95463872Y81622051D01*
X95463872Y81622051D02*
X95385776Y81700146D01*
X95385776Y81700146D02*
X95268633Y81739194D01*
X95268633Y81739194D02*
X95190538Y81739194D01*
X95190538Y81739194D02*
X95073395Y81700146D01*
X95073395Y81700146D02*
X95034347Y81661098D01*
X94761014Y81739194D02*
X94253394Y81739194D01*
X94253394Y81739194D02*
X94526728Y81426812D01*
X94526728Y81426812D02*
X94409585Y81426812D01*
X94409585Y81426812D02*
X94331489Y81387765D01*
X94331489Y81387765D02*
X94292442Y81348717D01*
X94292442Y81348717D02*
X94253394Y81270622D01*
X94253394Y81270622D02*
X94253394Y81075383D01*
X94253394Y81075383D02*
X94292442Y80997288D01*
X94292442Y80997288D02*
X94331489Y80958240D01*
X94331489Y80958240D02*
X94409585Y80919193D01*
X94409585Y80919193D02*
X94643871Y80919193D01*
X94643871Y80919193D02*
X94721966Y80958240D01*
X94721966Y80958240D02*
X94761014Y80997288D01*
X93745775Y81739194D02*
X93667679Y81739194D01*
X93667679Y81739194D02*
X93589584Y81700146D01*
X93589584Y81700146D02*
X93550536Y81661098D01*
X93550536Y81661098D02*
X93511489Y81583003D01*
X93511489Y81583003D02*
X93472441Y81426812D01*
X93472441Y81426812D02*
X93472441Y81231574D01*
X93472441Y81231574D02*
X93511489Y81075383D01*
X93511489Y81075383D02*
X93550536Y80997288D01*
X93550536Y80997288D02*
X93589584Y80958240D01*
X93589584Y80958240D02*
X93667679Y80919193D01*
X93667679Y80919193D02*
X93745775Y80919193D01*
X93745775Y80919193D02*
X93823870Y80958240D01*
X93823870Y80958240D02*
X93862918Y80997288D01*
X93862918Y80997288D02*
X93901965Y81075383D01*
X93901965Y81075383D02*
X93941013Y81231574D01*
X93941013Y81231574D02*
X93941013Y81426812D01*
X93941013Y81426812D02*
X93901965Y81583003D01*
X93901965Y81583003D02*
X93862918Y81661098D01*
X93862918Y81661098D02*
X93823870Y81700146D01*
X93823870Y81700146D02*
X93745775Y81739194D01*
X131822712Y34534348D02*
X131861760Y34573396D01*
X131861760Y34573396D02*
X131900807Y34690539D01*
X131900807Y34690539D02*
X131900807Y34768634D01*
X131900807Y34768634D02*
X131861760Y34885777D01*
X131861760Y34885777D02*
X131783664Y34963872D01*
X131783664Y34963872D02*
X131705569Y35002920D01*
X131705569Y35002920D02*
X131549378Y35041968D01*
X131549378Y35041968D02*
X131432235Y35041968D01*
X131432235Y35041968D02*
X131276045Y35002920D01*
X131276045Y35002920D02*
X131197949Y34963872D01*
X131197949Y34963872D02*
X131119854Y34885777D01*
X131119854Y34885777D02*
X131080806Y34768634D01*
X131080806Y34768634D02*
X131080806Y34690539D01*
X131080806Y34690539D02*
X131119854Y34573396D01*
X131119854Y34573396D02*
X131158902Y34534348D01*
X131080806Y34261014D02*
X131080806Y33753395D01*
X131080806Y33753395D02*
X131393188Y34026728D01*
X131393188Y34026728D02*
X131393188Y33909585D01*
X131393188Y33909585D02*
X131432235Y33831490D01*
X131432235Y33831490D02*
X131471283Y33792442D01*
X131471283Y33792442D02*
X131549378Y33753395D01*
X131549378Y33753395D02*
X131744617Y33753395D01*
X131744617Y33753395D02*
X131822712Y33792442D01*
X131822712Y33792442D02*
X131861760Y33831490D01*
X131861760Y33831490D02*
X131900807Y33909585D01*
X131900807Y33909585D02*
X131900807Y34143871D01*
X131900807Y34143871D02*
X131861760Y34221967D01*
X131861760Y34221967D02*
X131822712Y34261014D01*
X131080806Y33480061D02*
X131080806Y32972442D01*
X131080806Y32972442D02*
X131393188Y33245775D01*
X131393188Y33245775D02*
X131393188Y33128632D01*
X131393188Y33128632D02*
X131432235Y33050537D01*
X131432235Y33050537D02*
X131471283Y33011489D01*
X131471283Y33011489D02*
X131549378Y32972442D01*
X131549378Y32972442D02*
X131744617Y32972442D01*
X131744617Y32972442D02*
X131822712Y33011489D01*
X131822712Y33011489D02*
X131861760Y33050537D01*
X131861760Y33050537D02*
X131900807Y33128632D01*
X131900807Y33128632D02*
X131900807Y33362918D01*
X131900807Y33362918D02*
X131861760Y33441014D01*
X131861760Y33441014D02*
X131822712Y33480061D01*
X94434347Y76797288D02*
X94473395Y76758240D01*
X94473395Y76758240D02*
X94590538Y76719193D01*
X94590538Y76719193D02*
X94668633Y76719193D01*
X94668633Y76719193D02*
X94785776Y76758240D01*
X94785776Y76758240D02*
X94863872Y76836336D01*
X94863872Y76836336D02*
X94902919Y76914431D01*
X94902919Y76914431D02*
X94941967Y77070622D01*
X94941967Y77070622D02*
X94941967Y77187765D01*
X94941967Y77187765D02*
X94902919Y77343955D01*
X94902919Y77343955D02*
X94863872Y77422051D01*
X94863872Y77422051D02*
X94785776Y77500146D01*
X94785776Y77500146D02*
X94668633Y77539194D01*
X94668633Y77539194D02*
X94590538Y77539194D01*
X94590538Y77539194D02*
X94473395Y77500146D01*
X94473395Y77500146D02*
X94434347Y77461098D01*
X94121966Y77461098D02*
X94082918Y77500146D01*
X94082918Y77500146D02*
X94004823Y77539194D01*
X94004823Y77539194D02*
X93809585Y77539194D01*
X93809585Y77539194D02*
X93731489Y77500146D01*
X93731489Y77500146D02*
X93692442Y77461098D01*
X93692442Y77461098D02*
X93653394Y77383003D01*
X93653394Y77383003D02*
X93653394Y77304908D01*
X93653394Y77304908D02*
X93692442Y77187765D01*
X93692442Y77187765D02*
X94161014Y76719193D01*
X94161014Y76719193D02*
X93653394Y76719193D01*
X93262918Y76719193D02*
X93106727Y76719193D01*
X93106727Y76719193D02*
X93028632Y76758240D01*
X93028632Y76758240D02*
X92989584Y76797288D01*
X92989584Y76797288D02*
X92911489Y76914431D01*
X92911489Y76914431D02*
X92872441Y77070622D01*
X92872441Y77070622D02*
X92872441Y77383003D01*
X92872441Y77383003D02*
X92911489Y77461098D01*
X92911489Y77461098D02*
X92950536Y77500146D01*
X92950536Y77500146D02*
X93028632Y77539194D01*
X93028632Y77539194D02*
X93184822Y77539194D01*
X93184822Y77539194D02*
X93262918Y77500146D01*
X93262918Y77500146D02*
X93301965Y77461098D01*
X93301965Y77461098D02*
X93341013Y77383003D01*
X93341013Y77383003D02*
X93341013Y77187765D01*
X93341013Y77187765D02*
X93301965Y77109669D01*
X93301965Y77109669D02*
X93262918Y77070622D01*
X93262918Y77070622D02*
X93184822Y77031574D01*
X93184822Y77031574D02*
X93028632Y77031574D01*
X93028632Y77031574D02*
X92950536Y77070622D01*
X92950536Y77070622D02*
X92911489Y77109669D01*
X92911489Y77109669D02*
X92872441Y77187765D01*
X43204348Y51969192D02*
X43477681Y52359668D01*
X43672919Y51969192D02*
X43672919Y52789192D01*
X43672919Y52789192D02*
X43360538Y52789192D01*
X43360538Y52789192D02*
X43282443Y52750144D01*
X43282443Y52750144D02*
X43243396Y52711097D01*
X43243396Y52711097D02*
X43204348Y52633001D01*
X43204348Y52633001D02*
X43204348Y52515859D01*
X43204348Y52515859D02*
X43243396Y52437763D01*
X43243396Y52437763D02*
X43282443Y52398716D01*
X43282443Y52398716D02*
X43360538Y52359668D01*
X43360538Y52359668D02*
X43672919Y52359668D01*
X42931015Y52789192D02*
X42423396Y52789192D01*
X42423396Y52789192D02*
X42696729Y52476811D01*
X42696729Y52476811D02*
X42579586Y52476811D01*
X42579586Y52476811D02*
X42501491Y52437763D01*
X42501491Y52437763D02*
X42462443Y52398716D01*
X42462443Y52398716D02*
X42423396Y52320620D01*
X42423396Y52320620D02*
X42423396Y52125382D01*
X42423396Y52125382D02*
X42462443Y52047287D01*
X42462443Y52047287D02*
X42501491Y52008239D01*
X42501491Y52008239D02*
X42579586Y51969192D01*
X42579586Y51969192D02*
X42813872Y51969192D01*
X42813872Y51969192D02*
X42891967Y52008239D01*
X42891967Y52008239D02*
X42931015Y52047287D01*
X41720539Y52515859D02*
X41720539Y51969192D01*
X41915777Y52828239D02*
X42111015Y52242525D01*
X42111015Y52242525D02*
X41603396Y52242525D01*
X9283321Y29506846D02*
X8892845Y29780179D01*
X9283321Y29975417D02*
X8463321Y29975417D01*
X8463321Y29975417D02*
X8463321Y29663036D01*
X8463321Y29663036D02*
X8502369Y29584941D01*
X8502369Y29584941D02*
X8541416Y29545894D01*
X8541416Y29545894D02*
X8619512Y29506846D01*
X8619512Y29506846D02*
X8736654Y29506846D01*
X8736654Y29506846D02*
X8814750Y29545894D01*
X8814750Y29545894D02*
X8853797Y29584941D01*
X8853797Y29584941D02*
X8892845Y29663036D01*
X8892845Y29663036D02*
X8892845Y29975417D01*
X9283321Y28725894D02*
X9283321Y29194465D01*
X9283321Y28960179D02*
X8463321Y28960179D01*
X8463321Y28960179D02*
X8580464Y29038275D01*
X8580464Y29038275D02*
X8658559Y29116370D01*
X8658559Y29116370D02*
X8697607Y29194465D01*
D10*
X89871904Y76755181D02*
X89871904Y75945658D01*
X89871904Y75945658D02*
X89824285Y75850420D01*
X89824285Y75850420D02*
X89776666Y75802800D01*
X89776666Y75802800D02*
X89681428Y75755181D01*
X89681428Y75755181D02*
X89490952Y75755181D01*
X89490952Y75755181D02*
X89395714Y75802800D01*
X89395714Y75802800D02*
X89348095Y75850420D01*
X89348095Y75850420D02*
X89300476Y75945658D01*
X89300476Y75945658D02*
X89300476Y76755181D01*
X88395714Y76421848D02*
X88395714Y75755181D01*
X88633809Y76802800D02*
X88871904Y76088515D01*
X88871904Y76088515D02*
X88252857Y76088515D01*
X48268094Y56105181D02*
X48268094Y55295658D01*
X48268094Y55295658D02*
X48220475Y55200420D01*
X48220475Y55200420D02*
X48172856Y55152800D01*
X48172856Y55152800D02*
X48077618Y55105181D01*
X48077618Y55105181D02*
X47887142Y55105181D01*
X47887142Y55105181D02*
X47791904Y55152800D01*
X47791904Y55152800D02*
X47744285Y55200420D01*
X47744285Y55200420D02*
X47696666Y55295658D01*
X47696666Y55295658D02*
X47696666Y56105181D01*
X46696666Y55105181D02*
X47268094Y55105181D01*
X46982380Y55105181D02*
X46982380Y56105181D01*
X46982380Y56105181D02*
X47077618Y55962324D01*
X47077618Y55962324D02*
X47172856Y55867086D01*
X47172856Y55867086D02*
X47268094Y55819467D01*
X45744285Y55105181D02*
X46315713Y55105181D01*
X46029999Y55105181D02*
X46029999Y56105181D01*
X46029999Y56105181D02*
X46125237Y55962324D01*
X46125237Y55962324D02*
X46220475Y55867086D01*
X46220475Y55867086D02*
X46315713Y55819467D01*
D12*
X96022712Y76634348D02*
X96061760Y76673396D01*
X96061760Y76673396D02*
X96100807Y76790539D01*
X96100807Y76790539D02*
X96100807Y76868634D01*
X96100807Y76868634D02*
X96061760Y76985777D01*
X96061760Y76985777D02*
X95983664Y77063872D01*
X95983664Y77063872D02*
X95905569Y77102920D01*
X95905569Y77102920D02*
X95749378Y77141968D01*
X95749378Y77141968D02*
X95632235Y77141968D01*
X95632235Y77141968D02*
X95476045Y77102920D01*
X95476045Y77102920D02*
X95397949Y77063872D01*
X95397949Y77063872D02*
X95319854Y76985777D01*
X95319854Y76985777D02*
X95280806Y76868634D01*
X95280806Y76868634D02*
X95280806Y76790539D01*
X95280806Y76790539D02*
X95319854Y76673396D01*
X95319854Y76673396D02*
X95358902Y76634348D01*
X95280806Y76361014D02*
X95280806Y75853395D01*
X95280806Y75853395D02*
X95593188Y76126728D01*
X95593188Y76126728D02*
X95593188Y76009585D01*
X95593188Y76009585D02*
X95632235Y75931490D01*
X95632235Y75931490D02*
X95671283Y75892442D01*
X95671283Y75892442D02*
X95749378Y75853395D01*
X95749378Y75853395D02*
X95944617Y75853395D01*
X95944617Y75853395D02*
X96022712Y75892442D01*
X96022712Y75892442D02*
X96061760Y75931490D01*
X96061760Y75931490D02*
X96100807Y76009585D01*
X96100807Y76009585D02*
X96100807Y76243871D01*
X96100807Y76243871D02*
X96061760Y76321967D01*
X96061760Y76321967D02*
X96022712Y76361014D01*
X96100807Y75072442D02*
X96100807Y75541014D01*
X96100807Y75306728D02*
X95280806Y75306728D01*
X95280806Y75306728D02*
X95397949Y75384823D01*
X95397949Y75384823D02*
X95476045Y75462918D01*
X95476045Y75462918D02*
X95515092Y75541014D01*
X52343164Y69160809D02*
X52069831Y68770333D01*
X51874593Y69160809D02*
X51874593Y68340809D01*
X51874593Y68340809D02*
X52186974Y68340809D01*
X52186974Y68340809D02*
X52265069Y68379857D01*
X52265069Y68379857D02*
X52304116Y68418904D01*
X52304116Y68418904D02*
X52343164Y68497000D01*
X52343164Y68497000D02*
X52343164Y68614142D01*
X52343164Y68614142D02*
X52304116Y68692238D01*
X52304116Y68692238D02*
X52265069Y68731285D01*
X52265069Y68731285D02*
X52186974Y68770333D01*
X52186974Y68770333D02*
X51874593Y68770333D01*
X53124116Y69160809D02*
X52655545Y69160809D01*
X52889831Y69160809D02*
X52889831Y68340809D01*
X52889831Y68340809D02*
X52811735Y68457952D01*
X52811735Y68457952D02*
X52733640Y68536047D01*
X52733640Y68536047D02*
X52655545Y68575095D01*
X53631735Y68340809D02*
X53709830Y68340809D01*
X53709830Y68340809D02*
X53787926Y68379857D01*
X53787926Y68379857D02*
X53826973Y68418904D01*
X53826973Y68418904D02*
X53866021Y68497000D01*
X53866021Y68497000D02*
X53905068Y68653190D01*
X53905068Y68653190D02*
X53905068Y68848428D01*
X53905068Y68848428D02*
X53866021Y69004619D01*
X53866021Y69004619D02*
X53826973Y69082714D01*
X53826973Y69082714D02*
X53787926Y69121761D01*
X53787926Y69121761D02*
X53709830Y69160809D01*
X53709830Y69160809D02*
X53631735Y69160809D01*
X53631735Y69160809D02*
X53553640Y69121761D01*
X53553640Y69121761D02*
X53514592Y69082714D01*
X53514592Y69082714D02*
X53475545Y69004619D01*
X53475545Y69004619D02*
X53436497Y68848428D01*
X53436497Y68848428D02*
X53436497Y68653190D01*
X53436497Y68653190D02*
X53475545Y68497000D01*
X53475545Y68497000D02*
X53514592Y68418904D01*
X53514592Y68418904D02*
X53553640Y68379857D01*
X53553640Y68379857D02*
X53631735Y68340809D01*
X43710508Y70605238D02*
X42890508Y70605238D01*
X42890508Y70605238D02*
X42890508Y70410000D01*
X42890508Y70410000D02*
X42929556Y70292857D01*
X42929556Y70292857D02*
X43007651Y70214762D01*
X43007651Y70214762D02*
X43085746Y70175715D01*
X43085746Y70175715D02*
X43241937Y70136667D01*
X43241937Y70136667D02*
X43359080Y70136667D01*
X43359080Y70136667D02*
X43515270Y70175715D01*
X43515270Y70175715D02*
X43593365Y70214762D01*
X43593365Y70214762D02*
X43671461Y70292857D01*
X43671461Y70292857D02*
X43710508Y70410000D01*
X43710508Y70410000D02*
X43710508Y70605238D01*
X42968603Y69824286D02*
X42929556Y69785238D01*
X42929556Y69785238D02*
X42890508Y69707143D01*
X42890508Y69707143D02*
X42890508Y69511905D01*
X42890508Y69511905D02*
X42929556Y69433810D01*
X42929556Y69433810D02*
X42968603Y69394762D01*
X42968603Y69394762D02*
X43046699Y69355715D01*
X43046699Y69355715D02*
X43124794Y69355715D01*
X43124794Y69355715D02*
X43241937Y69394762D01*
X43241937Y69394762D02*
X43710508Y69863334D01*
X43710508Y69863334D02*
X43710508Y69355715D01*
X121007681Y15616745D02*
X121007681Y16416745D01*
X121007681Y16416745D02*
X120817205Y16416745D01*
X120817205Y16416745D02*
X120702919Y16378650D01*
X120702919Y16378650D02*
X120626729Y16302460D01*
X120626729Y16302460D02*
X120588634Y16226269D01*
X120588634Y16226269D02*
X120550538Y16073888D01*
X120550538Y16073888D02*
X120550538Y15959602D01*
X120550538Y15959602D02*
X120588634Y15807221D01*
X120588634Y15807221D02*
X120626729Y15731031D01*
X120626729Y15731031D02*
X120702919Y15654840D01*
X120702919Y15654840D02*
X120817205Y15616745D01*
X120817205Y15616745D02*
X121007681Y15616745D01*
X119788634Y15616745D02*
X120245777Y15616745D01*
X120017205Y15616745D02*
X120017205Y16416745D01*
X120017205Y16416745D02*
X120093396Y16302460D01*
X120093396Y16302460D02*
X120169586Y16226269D01*
X120169586Y16226269D02*
X120245777Y16188174D01*
X49061861Y57399192D02*
X49335194Y57789668D01*
X49530432Y57399192D02*
X49530432Y58219192D01*
X49530432Y58219192D02*
X49218051Y58219192D01*
X49218051Y58219192D02*
X49139956Y58180144D01*
X49139956Y58180144D02*
X49100909Y58141097D01*
X49100909Y58141097D02*
X49061861Y58063001D01*
X49061861Y58063001D02*
X49061861Y57945859D01*
X49061861Y57945859D02*
X49100909Y57867763D01*
X49100909Y57867763D02*
X49139956Y57828716D01*
X49139956Y57828716D02*
X49218051Y57789668D01*
X49218051Y57789668D02*
X49530432Y57789668D01*
X48788528Y58219192D02*
X48280909Y58219192D01*
X48280909Y58219192D02*
X48554242Y57906811D01*
X48554242Y57906811D02*
X48437099Y57906811D01*
X48437099Y57906811D02*
X48359004Y57867763D01*
X48359004Y57867763D02*
X48319956Y57828716D01*
X48319956Y57828716D02*
X48280909Y57750620D01*
X48280909Y57750620D02*
X48280909Y57555382D01*
X48280909Y57555382D02*
X48319956Y57477287D01*
X48319956Y57477287D02*
X48359004Y57438239D01*
X48359004Y57438239D02*
X48437099Y57399192D01*
X48437099Y57399192D02*
X48671385Y57399192D01*
X48671385Y57399192D02*
X48749480Y57438239D01*
X48749480Y57438239D02*
X48788528Y57477287D01*
X48007576Y58219192D02*
X47499957Y58219192D01*
X47499957Y58219192D02*
X47773290Y57906811D01*
X47773290Y57906811D02*
X47656147Y57906811D01*
X47656147Y57906811D02*
X47578052Y57867763D01*
X47578052Y57867763D02*
X47539004Y57828716D01*
X47539004Y57828716D02*
X47499957Y57750620D01*
X47499957Y57750620D02*
X47499957Y57555382D01*
X47499957Y57555382D02*
X47539004Y57477287D01*
X47539004Y57477287D02*
X47578052Y57438239D01*
X47578052Y57438239D02*
X47656147Y57399192D01*
X47656147Y57399192D02*
X47890433Y57399192D01*
X47890433Y57399192D02*
X47968528Y57438239D01*
X47968528Y57438239D02*
X48007576Y57477287D01*
X85100808Y2134349D02*
X84710332Y2407682D01*
X85100808Y2602920D02*
X84280808Y2602920D01*
X84280808Y2602920D02*
X84280808Y2290539D01*
X84280808Y2290539D02*
X84319856Y2212444D01*
X84319856Y2212444D02*
X84358903Y2173397D01*
X84358903Y2173397D02*
X84436999Y2134349D01*
X84436999Y2134349D02*
X84554141Y2134349D01*
X84554141Y2134349D02*
X84632237Y2173397D01*
X84632237Y2173397D02*
X84671284Y2212444D01*
X84671284Y2212444D02*
X84710332Y2290539D01*
X84710332Y2290539D02*
X84710332Y2602920D01*
X84280808Y1861016D02*
X84280808Y1314349D01*
X84280808Y1314349D02*
X85100808Y1665778D01*
X97522712Y76634348D02*
X97561760Y76673396D01*
X97561760Y76673396D02*
X97600807Y76790539D01*
X97600807Y76790539D02*
X97600807Y76868634D01*
X97600807Y76868634D02*
X97561760Y76985777D01*
X97561760Y76985777D02*
X97483664Y77063872D01*
X97483664Y77063872D02*
X97405569Y77102920D01*
X97405569Y77102920D02*
X97249378Y77141968D01*
X97249378Y77141968D02*
X97132235Y77141968D01*
X97132235Y77141968D02*
X96976045Y77102920D01*
X96976045Y77102920D02*
X96897949Y77063872D01*
X96897949Y77063872D02*
X96819854Y76985777D01*
X96819854Y76985777D02*
X96780806Y76868634D01*
X96780806Y76868634D02*
X96780806Y76790539D01*
X96780806Y76790539D02*
X96819854Y76673396D01*
X96819854Y76673396D02*
X96858902Y76634348D01*
X96780806Y76361014D02*
X96780806Y75853395D01*
X96780806Y75853395D02*
X97093188Y76126728D01*
X97093188Y76126728D02*
X97093188Y76009585D01*
X97093188Y76009585D02*
X97132235Y75931490D01*
X97132235Y75931490D02*
X97171283Y75892442D01*
X97171283Y75892442D02*
X97249378Y75853395D01*
X97249378Y75853395D02*
X97444617Y75853395D01*
X97444617Y75853395D02*
X97522712Y75892442D01*
X97522712Y75892442D02*
X97561760Y75931490D01*
X97561760Y75931490D02*
X97600807Y76009585D01*
X97600807Y76009585D02*
X97600807Y76243871D01*
X97600807Y76243871D02*
X97561760Y76321967D01*
X97561760Y76321967D02*
X97522712Y76361014D01*
X96858902Y75541014D02*
X96819854Y75501966D01*
X96819854Y75501966D02*
X96780806Y75423871D01*
X96780806Y75423871D02*
X96780806Y75228632D01*
X96780806Y75228632D02*
X96819854Y75150537D01*
X96819854Y75150537D02*
X96858902Y75111489D01*
X96858902Y75111489D02*
X96936997Y75072442D01*
X96936997Y75072442D02*
X97015092Y75072442D01*
X97015092Y75072442D02*
X97132235Y75111489D01*
X97132235Y75111489D02*
X97600807Y75580061D01*
X97600807Y75580061D02*
X97600807Y75072442D01*
X42450808Y90384349D02*
X42060332Y90657682D01*
X42450808Y90852920D02*
X41630808Y90852920D01*
X41630808Y90852920D02*
X41630808Y90540539D01*
X41630808Y90540539D02*
X41669856Y90462444D01*
X41669856Y90462444D02*
X41708903Y90423397D01*
X41708903Y90423397D02*
X41786999Y90384349D01*
X41786999Y90384349D02*
X41904141Y90384349D01*
X41904141Y90384349D02*
X41982237Y90423397D01*
X41982237Y90423397D02*
X42021284Y90462444D01*
X42021284Y90462444D02*
X42060332Y90540539D01*
X42060332Y90540539D02*
X42060332Y90852920D01*
X42450808Y89603397D02*
X42450808Y90071968D01*
X42450808Y89837682D02*
X41630808Y89837682D01*
X41630808Y89837682D02*
X41747951Y89915778D01*
X41747951Y89915778D02*
X41826046Y89993873D01*
X41826046Y89993873D02*
X41865094Y90071968D01*
X41630808Y88900540D02*
X41630808Y89056730D01*
X41630808Y89056730D02*
X41669856Y89134826D01*
X41669856Y89134826D02*
X41708903Y89173873D01*
X41708903Y89173873D02*
X41826046Y89251968D01*
X41826046Y89251968D02*
X41982237Y89291016D01*
X41982237Y89291016D02*
X42294618Y89291016D01*
X42294618Y89291016D02*
X42372713Y89251968D01*
X42372713Y89251968D02*
X42411761Y89212921D01*
X42411761Y89212921D02*
X42450808Y89134826D01*
X42450808Y89134826D02*
X42450808Y88978635D01*
X42450808Y88978635D02*
X42411761Y88900540D01*
X42411761Y88900540D02*
X42372713Y88861492D01*
X42372713Y88861492D02*
X42294618Y88822445D01*
X42294618Y88822445D02*
X42099380Y88822445D01*
X42099380Y88822445D02*
X42021284Y88861492D01*
X42021284Y88861492D02*
X41982237Y88900540D01*
X41982237Y88900540D02*
X41943189Y88978635D01*
X41943189Y88978635D02*
X41943189Y89134826D01*
X41943189Y89134826D02*
X41982237Y89212921D01*
X41982237Y89212921D02*
X42021284Y89251968D01*
X42021284Y89251968D02*
X42099380Y89291016D01*
D10*
X46471904Y37535181D02*
X46471904Y36725658D01*
X46471904Y36725658D02*
X46424285Y36630420D01*
X46424285Y36630420D02*
X46376666Y36582800D01*
X46376666Y36582800D02*
X46281428Y36535181D01*
X46281428Y36535181D02*
X46090952Y36535181D01*
X46090952Y36535181D02*
X45995714Y36582800D01*
X45995714Y36582800D02*
X45948095Y36630420D01*
X45948095Y36630420D02*
X45900476Y36725658D01*
X45900476Y36725658D02*
X45900476Y37535181D01*
X45376666Y36535181D02*
X45186190Y36535181D01*
X45186190Y36535181D02*
X45090952Y36582800D01*
X45090952Y36582800D02*
X45043333Y36630420D01*
X45043333Y36630420D02*
X44948095Y36773277D01*
X44948095Y36773277D02*
X44900476Y36963753D01*
X44900476Y36963753D02*
X44900476Y37344705D01*
X44900476Y37344705D02*
X44948095Y37439943D01*
X44948095Y37439943D02*
X44995714Y37487562D01*
X44995714Y37487562D02*
X45090952Y37535181D01*
X45090952Y37535181D02*
X45281428Y37535181D01*
X45281428Y37535181D02*
X45376666Y37487562D01*
X45376666Y37487562D02*
X45424285Y37439943D01*
X45424285Y37439943D02*
X45471904Y37344705D01*
X45471904Y37344705D02*
X45471904Y37106610D01*
X45471904Y37106610D02*
X45424285Y37011372D01*
X45424285Y37011372D02*
X45376666Y36963753D01*
X45376666Y36963753D02*
X45281428Y36916134D01*
X45281428Y36916134D02*
X45090952Y36916134D01*
X45090952Y36916134D02*
X44995714Y36963753D01*
X44995714Y36963753D02*
X44948095Y37011372D01*
X44948095Y37011372D02*
X44900476Y37106610D01*
D12*
X38244348Y35199192D02*
X38517681Y35589668D01*
X38712919Y35199192D02*
X38712919Y36019192D01*
X38712919Y36019192D02*
X38400538Y36019192D01*
X38400538Y36019192D02*
X38322443Y35980144D01*
X38322443Y35980144D02*
X38283396Y35941097D01*
X38283396Y35941097D02*
X38244348Y35863001D01*
X38244348Y35863001D02*
X38244348Y35745859D01*
X38244348Y35745859D02*
X38283396Y35667763D01*
X38283396Y35667763D02*
X38322443Y35628716D01*
X38322443Y35628716D02*
X38400538Y35589668D01*
X38400538Y35589668D02*
X38712919Y35589668D01*
X37971015Y36019192D02*
X37463396Y36019192D01*
X37463396Y36019192D02*
X37736729Y35706811D01*
X37736729Y35706811D02*
X37619586Y35706811D01*
X37619586Y35706811D02*
X37541491Y35667763D01*
X37541491Y35667763D02*
X37502443Y35628716D01*
X37502443Y35628716D02*
X37463396Y35550620D01*
X37463396Y35550620D02*
X37463396Y35355382D01*
X37463396Y35355382D02*
X37502443Y35277287D01*
X37502443Y35277287D02*
X37541491Y35238239D01*
X37541491Y35238239D02*
X37619586Y35199192D01*
X37619586Y35199192D02*
X37853872Y35199192D01*
X37853872Y35199192D02*
X37931967Y35238239D01*
X37931967Y35238239D02*
X37971015Y35277287D01*
X36955777Y36019192D02*
X36877682Y36019192D01*
X36877682Y36019192D02*
X36799586Y35980144D01*
X36799586Y35980144D02*
X36760539Y35941097D01*
X36760539Y35941097D02*
X36721491Y35863001D01*
X36721491Y35863001D02*
X36682444Y35706811D01*
X36682444Y35706811D02*
X36682444Y35511573D01*
X36682444Y35511573D02*
X36721491Y35355382D01*
X36721491Y35355382D02*
X36760539Y35277287D01*
X36760539Y35277287D02*
X36799586Y35238239D01*
X36799586Y35238239D02*
X36877682Y35199192D01*
X36877682Y35199192D02*
X36955777Y35199192D01*
X36955777Y35199192D02*
X37033872Y35238239D01*
X37033872Y35238239D02*
X37072920Y35277287D01*
X37072920Y35277287D02*
X37111967Y35355382D01*
X37111967Y35355382D02*
X37151015Y35511573D01*
X37151015Y35511573D02*
X37151015Y35706811D01*
X37151015Y35706811D02*
X37111967Y35863001D01*
X37111967Y35863001D02*
X37072920Y35941097D01*
X37072920Y35941097D02*
X37033872Y35980144D01*
X37033872Y35980144D02*
X36955777Y36019192D01*
D10*
X90764819Y87676667D02*
X90764819Y88152857D01*
X90764819Y88152857D02*
X89764819Y88152857D01*
X89860057Y87390952D02*
X89812438Y87343333D01*
X89812438Y87343333D02*
X89764819Y87248095D01*
X89764819Y87248095D02*
X89764819Y87010000D01*
X89764819Y87010000D02*
X89812438Y86914762D01*
X89812438Y86914762D02*
X89860057Y86867143D01*
X89860057Y86867143D02*
X89955295Y86819524D01*
X89955295Y86819524D02*
X90050533Y86819524D01*
X90050533Y86819524D02*
X90193390Y86867143D01*
X90193390Y86867143D02*
X90764819Y87438571D01*
X90764819Y87438571D02*
X90764819Y86819524D01*
D12*
X87700808Y2234349D02*
X87310332Y2507682D01*
X87700808Y2702920D02*
X86880808Y2702920D01*
X86880808Y2702920D02*
X86880808Y2390539D01*
X86880808Y2390539D02*
X86919856Y2312444D01*
X86919856Y2312444D02*
X86958903Y2273397D01*
X86958903Y2273397D02*
X87036999Y2234349D01*
X87036999Y2234349D02*
X87154141Y2234349D01*
X87154141Y2234349D02*
X87232237Y2273397D01*
X87232237Y2273397D02*
X87271284Y2312444D01*
X87271284Y2312444D02*
X87310332Y2390539D01*
X87310332Y2390539D02*
X87310332Y2702920D01*
X87232237Y1765778D02*
X87193189Y1843873D01*
X87193189Y1843873D02*
X87154141Y1882920D01*
X87154141Y1882920D02*
X87076046Y1921968D01*
X87076046Y1921968D02*
X87036999Y1921968D01*
X87036999Y1921968D02*
X86958903Y1882920D01*
X86958903Y1882920D02*
X86919856Y1843873D01*
X86919856Y1843873D02*
X86880808Y1765778D01*
X86880808Y1765778D02*
X86880808Y1609587D01*
X86880808Y1609587D02*
X86919856Y1531492D01*
X86919856Y1531492D02*
X86958903Y1492444D01*
X86958903Y1492444D02*
X87036999Y1453397D01*
X87036999Y1453397D02*
X87076046Y1453397D01*
X87076046Y1453397D02*
X87154141Y1492444D01*
X87154141Y1492444D02*
X87193189Y1531492D01*
X87193189Y1531492D02*
X87232237Y1609587D01*
X87232237Y1609587D02*
X87232237Y1765778D01*
X87232237Y1765778D02*
X87271284Y1843873D01*
X87271284Y1843873D02*
X87310332Y1882920D01*
X87310332Y1882920D02*
X87388427Y1921968D01*
X87388427Y1921968D02*
X87544618Y1921968D01*
X87544618Y1921968D02*
X87622713Y1882920D01*
X87622713Y1882920D02*
X87661761Y1843873D01*
X87661761Y1843873D02*
X87700808Y1765778D01*
X87700808Y1765778D02*
X87700808Y1609587D01*
X87700808Y1609587D02*
X87661761Y1531492D01*
X87661761Y1531492D02*
X87622713Y1492444D01*
X87622713Y1492444D02*
X87544618Y1453397D01*
X87544618Y1453397D02*
X87388427Y1453397D01*
X87388427Y1453397D02*
X87310332Y1492444D01*
X87310332Y1492444D02*
X87271284Y1531492D01*
X87271284Y1531492D02*
X87232237Y1609587D01*
X51000808Y18134349D02*
X50610332Y18407682D01*
X51000808Y18602920D02*
X50180808Y18602920D01*
X50180808Y18602920D02*
X50180808Y18290539D01*
X50180808Y18290539D02*
X50219856Y18212444D01*
X50219856Y18212444D02*
X50258903Y18173397D01*
X50258903Y18173397D02*
X50336999Y18134349D01*
X50336999Y18134349D02*
X50454141Y18134349D01*
X50454141Y18134349D02*
X50532237Y18173397D01*
X50532237Y18173397D02*
X50571284Y18212444D01*
X50571284Y18212444D02*
X50610332Y18290539D01*
X50610332Y18290539D02*
X50610332Y18602920D01*
X50180808Y17861016D02*
X50180808Y17353397D01*
X50180808Y17353397D02*
X50493189Y17626730D01*
X50493189Y17626730D02*
X50493189Y17509587D01*
X50493189Y17509587D02*
X50532237Y17431492D01*
X50532237Y17431492D02*
X50571284Y17392444D01*
X50571284Y17392444D02*
X50649380Y17353397D01*
X50649380Y17353397D02*
X50844618Y17353397D01*
X50844618Y17353397D02*
X50922713Y17392444D01*
X50922713Y17392444D02*
X50961761Y17431492D01*
X50961761Y17431492D02*
X51000808Y17509587D01*
X51000808Y17509587D02*
X51000808Y17743873D01*
X51000808Y17743873D02*
X50961761Y17821968D01*
X50961761Y17821968D02*
X50922713Y17861016D01*
X40000808Y90384349D02*
X39610332Y90657682D01*
X40000808Y90852920D02*
X39180808Y90852920D01*
X39180808Y90852920D02*
X39180808Y90540539D01*
X39180808Y90540539D02*
X39219856Y90462444D01*
X39219856Y90462444D02*
X39258903Y90423397D01*
X39258903Y90423397D02*
X39336999Y90384349D01*
X39336999Y90384349D02*
X39454141Y90384349D01*
X39454141Y90384349D02*
X39532237Y90423397D01*
X39532237Y90423397D02*
X39571284Y90462444D01*
X39571284Y90462444D02*
X39610332Y90540539D01*
X39610332Y90540539D02*
X39610332Y90852920D01*
X40000808Y89603397D02*
X40000808Y90071968D01*
X40000808Y89837682D02*
X39180808Y89837682D01*
X39180808Y89837682D02*
X39297951Y89915778D01*
X39297951Y89915778D02*
X39376046Y89993873D01*
X39376046Y89993873D02*
X39415094Y90071968D01*
X39180808Y88861492D02*
X39180808Y89251968D01*
X39180808Y89251968D02*
X39571284Y89291016D01*
X39571284Y89291016D02*
X39532237Y89251968D01*
X39532237Y89251968D02*
X39493189Y89173873D01*
X39493189Y89173873D02*
X39493189Y88978635D01*
X39493189Y88978635D02*
X39532237Y88900540D01*
X39532237Y88900540D02*
X39571284Y88861492D01*
X39571284Y88861492D02*
X39649380Y88822445D01*
X39649380Y88822445D02*
X39844618Y88822445D01*
X39844618Y88822445D02*
X39922713Y88861492D01*
X39922713Y88861492D02*
X39961761Y88900540D01*
X39961761Y88900540D02*
X40000808Y88978635D01*
X40000808Y88978635D02*
X40000808Y89173873D01*
X40000808Y89173873D02*
X39961761Y89251968D01*
X39961761Y89251968D02*
X39922713Y89291016D01*
X51686704Y24425652D02*
X52077180Y24152319D01*
X51686704Y23957081D02*
X52506704Y23957081D01*
X52506704Y23957081D02*
X52506704Y24269462D01*
X52506704Y24269462D02*
X52467656Y24347557D01*
X52467656Y24347557D02*
X52428609Y24386604D01*
X52428609Y24386604D02*
X52350513Y24425652D01*
X52350513Y24425652D02*
X52233371Y24425652D01*
X52233371Y24425652D02*
X52155275Y24386604D01*
X52155275Y24386604D02*
X52116228Y24347557D01*
X52116228Y24347557D02*
X52077180Y24269462D01*
X52077180Y24269462D02*
X52077180Y23957081D01*
X51686704Y25206604D02*
X51686704Y24738033D01*
X51686704Y24972319D02*
X52506704Y24972319D01*
X52506704Y24972319D02*
X52389561Y24894223D01*
X52389561Y24894223D02*
X52311466Y24816128D01*
X52311466Y24816128D02*
X52272418Y24738033D01*
X52506704Y25479937D02*
X52506704Y25987556D01*
X52506704Y25987556D02*
X52194323Y25714223D01*
X52194323Y25714223D02*
X52194323Y25831366D01*
X52194323Y25831366D02*
X52155275Y25909461D01*
X52155275Y25909461D02*
X52116228Y25948509D01*
X52116228Y25948509D02*
X52038132Y25987556D01*
X52038132Y25987556D02*
X51842894Y25987556D01*
X51842894Y25987556D02*
X51764799Y25948509D01*
X51764799Y25948509D02*
X51725752Y25909461D01*
X51725752Y25909461D02*
X51686704Y25831366D01*
X51686704Y25831366D02*
X51686704Y25597080D01*
X51686704Y25597080D02*
X51725752Y25518985D01*
X51725752Y25518985D02*
X51764799Y25479937D01*
X47764348Y60289192D02*
X48037681Y60679668D01*
X48232919Y60289192D02*
X48232919Y61109192D01*
X48232919Y61109192D02*
X47920538Y61109192D01*
X47920538Y61109192D02*
X47842443Y61070144D01*
X47842443Y61070144D02*
X47803396Y61031097D01*
X47803396Y61031097D02*
X47764348Y60953001D01*
X47764348Y60953001D02*
X47764348Y60835859D01*
X47764348Y60835859D02*
X47803396Y60757763D01*
X47803396Y60757763D02*
X47842443Y60718716D01*
X47842443Y60718716D02*
X47920538Y60679668D01*
X47920538Y60679668D02*
X48232919Y60679668D01*
X46983396Y60289192D02*
X47451967Y60289192D01*
X47217681Y60289192D02*
X47217681Y61109192D01*
X47217681Y61109192D02*
X47295777Y60992049D01*
X47295777Y60992049D02*
X47373872Y60913954D01*
X47373872Y60913954D02*
X47451967Y60874906D01*
X46202444Y60289192D02*
X46671015Y60289192D01*
X46436729Y60289192D02*
X46436729Y61109192D01*
X46436729Y61109192D02*
X46514825Y60992049D01*
X46514825Y60992049D02*
X46592920Y60913954D01*
X46592920Y60913954D02*
X46671015Y60874906D01*
X43720508Y62605238D02*
X42900508Y62605238D01*
X42900508Y62605238D02*
X42900508Y62410000D01*
X42900508Y62410000D02*
X42939556Y62292857D01*
X42939556Y62292857D02*
X43017651Y62214762D01*
X43017651Y62214762D02*
X43095746Y62175715D01*
X43095746Y62175715D02*
X43251937Y62136667D01*
X43251937Y62136667D02*
X43369080Y62136667D01*
X43369080Y62136667D02*
X43525270Y62175715D01*
X43525270Y62175715D02*
X43603365Y62214762D01*
X43603365Y62214762D02*
X43681461Y62292857D01*
X43681461Y62292857D02*
X43720508Y62410000D01*
X43720508Y62410000D02*
X43720508Y62605238D01*
X42900508Y61863334D02*
X42900508Y61355715D01*
X42900508Y61355715D02*
X43212889Y61629048D01*
X43212889Y61629048D02*
X43212889Y61511905D01*
X43212889Y61511905D02*
X43251937Y61433810D01*
X43251937Y61433810D02*
X43290984Y61394762D01*
X43290984Y61394762D02*
X43369080Y61355715D01*
X43369080Y61355715D02*
X43564318Y61355715D01*
X43564318Y61355715D02*
X43642413Y61394762D01*
X43642413Y61394762D02*
X43681461Y61433810D01*
X43681461Y61433810D02*
X43720508Y61511905D01*
X43720508Y61511905D02*
X43720508Y61746191D01*
X43720508Y61746191D02*
X43681461Y61824286D01*
X43681461Y61824286D02*
X43642413Y61863334D01*
X42323164Y44610809D02*
X42049831Y44220333D01*
X41854593Y44610809D02*
X41854593Y43790809D01*
X41854593Y43790809D02*
X42166974Y43790809D01*
X42166974Y43790809D02*
X42245069Y43829857D01*
X42245069Y43829857D02*
X42284116Y43868904D01*
X42284116Y43868904D02*
X42323164Y43947000D01*
X42323164Y43947000D02*
X42323164Y44064142D01*
X42323164Y44064142D02*
X42284116Y44142238D01*
X42284116Y44142238D02*
X42245069Y44181285D01*
X42245069Y44181285D02*
X42166974Y44220333D01*
X42166974Y44220333D02*
X41854593Y44220333D01*
X42596497Y43790809D02*
X43104116Y43790809D01*
X43104116Y43790809D02*
X42830783Y44103190D01*
X42830783Y44103190D02*
X42947926Y44103190D01*
X42947926Y44103190D02*
X43026021Y44142238D01*
X43026021Y44142238D02*
X43065069Y44181285D01*
X43065069Y44181285D02*
X43104116Y44259381D01*
X43104116Y44259381D02*
X43104116Y44454619D01*
X43104116Y44454619D02*
X43065069Y44532714D01*
X43065069Y44532714D02*
X43026021Y44571761D01*
X43026021Y44571761D02*
X42947926Y44610809D01*
X42947926Y44610809D02*
X42713640Y44610809D01*
X42713640Y44610809D02*
X42635545Y44571761D01*
X42635545Y44571761D02*
X42596497Y44532714D01*
X43416497Y43868904D02*
X43455545Y43829857D01*
X43455545Y43829857D02*
X43533640Y43790809D01*
X43533640Y43790809D02*
X43728878Y43790809D01*
X43728878Y43790809D02*
X43806973Y43829857D01*
X43806973Y43829857D02*
X43846021Y43868904D01*
X43846021Y43868904D02*
X43885068Y43947000D01*
X43885068Y43947000D02*
X43885068Y44025095D01*
X43885068Y44025095D02*
X43846021Y44142238D01*
X43846021Y44142238D02*
X43377449Y44610809D01*
X43377449Y44610809D02*
X43885068Y44610809D01*
X88634347Y81097288D02*
X88673395Y81058240D01*
X88673395Y81058240D02*
X88790538Y81019193D01*
X88790538Y81019193D02*
X88868633Y81019193D01*
X88868633Y81019193D02*
X88985776Y81058240D01*
X88985776Y81058240D02*
X89063872Y81136336D01*
X89063872Y81136336D02*
X89102919Y81214431D01*
X89102919Y81214431D02*
X89141967Y81370622D01*
X89141967Y81370622D02*
X89141967Y81487765D01*
X89141967Y81487765D02*
X89102919Y81643955D01*
X89102919Y81643955D02*
X89063872Y81722051D01*
X89063872Y81722051D02*
X88985776Y81800146D01*
X88985776Y81800146D02*
X88868633Y81839194D01*
X88868633Y81839194D02*
X88790538Y81839194D01*
X88790538Y81839194D02*
X88673395Y81800146D01*
X88673395Y81800146D02*
X88634347Y81761098D01*
X88321966Y81761098D02*
X88282918Y81800146D01*
X88282918Y81800146D02*
X88204823Y81839194D01*
X88204823Y81839194D02*
X88009585Y81839194D01*
X88009585Y81839194D02*
X87931489Y81800146D01*
X87931489Y81800146D02*
X87892442Y81761098D01*
X87892442Y81761098D02*
X87853394Y81683003D01*
X87853394Y81683003D02*
X87853394Y81604908D01*
X87853394Y81604908D02*
X87892442Y81487765D01*
X87892442Y81487765D02*
X88361014Y81019193D01*
X88361014Y81019193D02*
X87853394Y81019193D01*
X87384822Y81487765D02*
X87462918Y81526812D01*
X87462918Y81526812D02*
X87501965Y81565860D01*
X87501965Y81565860D02*
X87541013Y81643955D01*
X87541013Y81643955D02*
X87541013Y81683003D01*
X87541013Y81683003D02*
X87501965Y81761098D01*
X87501965Y81761098D02*
X87462918Y81800146D01*
X87462918Y81800146D02*
X87384822Y81839194D01*
X87384822Y81839194D02*
X87228632Y81839194D01*
X87228632Y81839194D02*
X87150536Y81800146D01*
X87150536Y81800146D02*
X87111489Y81761098D01*
X87111489Y81761098D02*
X87072441Y81683003D01*
X87072441Y81683003D02*
X87072441Y81643955D01*
X87072441Y81643955D02*
X87111489Y81565860D01*
X87111489Y81565860D02*
X87150536Y81526812D01*
X87150536Y81526812D02*
X87228632Y81487765D01*
X87228632Y81487765D02*
X87384822Y81487765D01*
X87384822Y81487765D02*
X87462918Y81448717D01*
X87462918Y81448717D02*
X87501965Y81409669D01*
X87501965Y81409669D02*
X87541013Y81331574D01*
X87541013Y81331574D02*
X87541013Y81175383D01*
X87541013Y81175383D02*
X87501965Y81097288D01*
X87501965Y81097288D02*
X87462918Y81058240D01*
X87462918Y81058240D02*
X87384822Y81019193D01*
X87384822Y81019193D02*
X87228632Y81019193D01*
X87228632Y81019193D02*
X87150536Y81058240D01*
X87150536Y81058240D02*
X87111489Y81097288D01*
X87111489Y81097288D02*
X87072441Y81175383D01*
X87072441Y81175383D02*
X87072441Y81331574D01*
X87072441Y81331574D02*
X87111489Y81409669D01*
X87111489Y81409669D02*
X87150536Y81448717D01*
X87150536Y81448717D02*
X87228632Y81487765D01*
D10*
X36299819Y85046905D02*
X37109342Y85046905D01*
X37109342Y85046905D02*
X37204580Y84999286D01*
X37204580Y84999286D02*
X37252200Y84951667D01*
X37252200Y84951667D02*
X37299819Y84856429D01*
X37299819Y84856429D02*
X37299819Y84665953D01*
X37299819Y84665953D02*
X37252200Y84570715D01*
X37252200Y84570715D02*
X37204580Y84523096D01*
X37204580Y84523096D02*
X37109342Y84475477D01*
X37109342Y84475477D02*
X36299819Y84475477D01*
X36299819Y83570715D02*
X36299819Y83761191D01*
X36299819Y83761191D02*
X36347438Y83856429D01*
X36347438Y83856429D02*
X36395057Y83904048D01*
X36395057Y83904048D02*
X36537914Y83999286D01*
X36537914Y83999286D02*
X36728390Y84046905D01*
X36728390Y84046905D02*
X37109342Y84046905D01*
X37109342Y84046905D02*
X37204580Y83999286D01*
X37204580Y83999286D02*
X37252200Y83951667D01*
X37252200Y83951667D02*
X37299819Y83856429D01*
X37299819Y83856429D02*
X37299819Y83665953D01*
X37299819Y83665953D02*
X37252200Y83570715D01*
X37252200Y83570715D02*
X37204580Y83523096D01*
X37204580Y83523096D02*
X37109342Y83475477D01*
X37109342Y83475477D02*
X36871247Y83475477D01*
X36871247Y83475477D02*
X36776009Y83523096D01*
X36776009Y83523096D02*
X36728390Y83570715D01*
X36728390Y83570715D02*
X36680771Y83665953D01*
X36680771Y83665953D02*
X36680771Y83856429D01*
X36680771Y83856429D02*
X36728390Y83951667D01*
X36728390Y83951667D02*
X36776009Y83999286D01*
X36776009Y83999286D02*
X36871247Y84046905D01*
D12*
X45803164Y42910809D02*
X45529831Y42520333D01*
X45334593Y42910809D02*
X45334593Y42090809D01*
X45334593Y42090809D02*
X45646974Y42090809D01*
X45646974Y42090809D02*
X45725069Y42129857D01*
X45725069Y42129857D02*
X45764116Y42168904D01*
X45764116Y42168904D02*
X45803164Y42247000D01*
X45803164Y42247000D02*
X45803164Y42364142D01*
X45803164Y42364142D02*
X45764116Y42442238D01*
X45764116Y42442238D02*
X45725069Y42481285D01*
X45725069Y42481285D02*
X45646974Y42520333D01*
X45646974Y42520333D02*
X45334593Y42520333D01*
X46115545Y42168904D02*
X46154593Y42129857D01*
X46154593Y42129857D02*
X46232688Y42090809D01*
X46232688Y42090809D02*
X46427926Y42090809D01*
X46427926Y42090809D02*
X46506021Y42129857D01*
X46506021Y42129857D02*
X46545069Y42168904D01*
X46545069Y42168904D02*
X46584116Y42247000D01*
X46584116Y42247000D02*
X46584116Y42325095D01*
X46584116Y42325095D02*
X46545069Y42442238D01*
X46545069Y42442238D02*
X46076497Y42910809D01*
X46076497Y42910809D02*
X46584116Y42910809D01*
X46974592Y42910809D02*
X47130783Y42910809D01*
X47130783Y42910809D02*
X47208878Y42871761D01*
X47208878Y42871761D02*
X47247926Y42832714D01*
X47247926Y42832714D02*
X47326021Y42715571D01*
X47326021Y42715571D02*
X47365068Y42559381D01*
X47365068Y42559381D02*
X47365068Y42247000D01*
X47365068Y42247000D02*
X47326021Y42168904D01*
X47326021Y42168904D02*
X47286973Y42129857D01*
X47286973Y42129857D02*
X47208878Y42090809D01*
X47208878Y42090809D02*
X47052687Y42090809D01*
X47052687Y42090809D02*
X46974592Y42129857D01*
X46974592Y42129857D02*
X46935545Y42168904D01*
X46935545Y42168904D02*
X46896497Y42247000D01*
X46896497Y42247000D02*
X46896497Y42442238D01*
X46896497Y42442238D02*
X46935545Y42520333D01*
X46935545Y42520333D02*
X46974592Y42559381D01*
X46974592Y42559381D02*
X47052687Y42598428D01*
X47052687Y42598428D02*
X47208878Y42598428D01*
X47208878Y42598428D02*
X47286973Y42559381D01*
X47286973Y42559381D02*
X47326021Y42520333D01*
X47326021Y42520333D02*
X47365068Y42442238D01*
D10*
X92764819Y87676667D02*
X92764819Y88152857D01*
X92764819Y88152857D02*
X91764819Y88152857D01*
X92764819Y86819524D02*
X92764819Y87390952D01*
X92764819Y87105238D02*
X91764819Y87105238D01*
X91764819Y87105238D02*
X91907676Y87200476D01*
X91907676Y87200476D02*
X92002914Y87295714D01*
X92002914Y87295714D02*
X92050533Y87390952D01*
D12*
X40665237Y26789492D02*
X40665237Y27609492D01*
X40665237Y27609492D02*
X40469999Y27609492D01*
X40469999Y27609492D02*
X40352856Y27570444D01*
X40352856Y27570444D02*
X40274761Y27492349D01*
X40274761Y27492349D02*
X40235714Y27414254D01*
X40235714Y27414254D02*
X40196666Y27258063D01*
X40196666Y27258063D02*
X40196666Y27140920D01*
X40196666Y27140920D02*
X40235714Y26984730D01*
X40235714Y26984730D02*
X40274761Y26906635D01*
X40274761Y26906635D02*
X40352856Y26828539D01*
X40352856Y26828539D02*
X40469999Y26789492D01*
X40469999Y26789492D02*
X40665237Y26789492D01*
X39454761Y27609492D02*
X39845237Y27609492D01*
X39845237Y27609492D02*
X39884285Y27219016D01*
X39884285Y27219016D02*
X39845237Y27258063D01*
X39845237Y27258063D02*
X39767142Y27297111D01*
X39767142Y27297111D02*
X39571904Y27297111D01*
X39571904Y27297111D02*
X39493809Y27258063D01*
X39493809Y27258063D02*
X39454761Y27219016D01*
X39454761Y27219016D02*
X39415714Y27140920D01*
X39415714Y27140920D02*
X39415714Y26945682D01*
X39415714Y26945682D02*
X39454761Y26867587D01*
X39454761Y26867587D02*
X39493809Y26828539D01*
X39493809Y26828539D02*
X39571904Y26789492D01*
X39571904Y26789492D02*
X39767142Y26789492D01*
X39767142Y26789492D02*
X39845237Y26828539D01*
X39845237Y26828539D02*
X39884285Y26867587D01*
X52518321Y33924349D02*
X52127845Y34197682D01*
X52518321Y34392920D02*
X51698321Y34392920D01*
X51698321Y34392920D02*
X51698321Y34080539D01*
X51698321Y34080539D02*
X51737369Y34002444D01*
X51737369Y34002444D02*
X51776416Y33963397D01*
X51776416Y33963397D02*
X51854512Y33924349D01*
X51854512Y33924349D02*
X51971654Y33924349D01*
X51971654Y33924349D02*
X52049750Y33963397D01*
X52049750Y33963397D02*
X52088797Y34002444D01*
X52088797Y34002444D02*
X52127845Y34080539D01*
X52127845Y34080539D02*
X52127845Y34392920D01*
X52518321Y33143397D02*
X52518321Y33611968D01*
X52518321Y33377682D02*
X51698321Y33377682D01*
X51698321Y33377682D02*
X51815464Y33455778D01*
X51815464Y33455778D02*
X51893559Y33533873D01*
X51893559Y33533873D02*
X51932607Y33611968D01*
X51776416Y32831016D02*
X51737369Y32791968D01*
X51737369Y32791968D02*
X51698321Y32713873D01*
X51698321Y32713873D02*
X51698321Y32518635D01*
X51698321Y32518635D02*
X51737369Y32440540D01*
X51737369Y32440540D02*
X51776416Y32401492D01*
X51776416Y32401492D02*
X51854512Y32362445D01*
X51854512Y32362445D02*
X51932607Y32362445D01*
X51932607Y32362445D02*
X52049750Y32401492D01*
X52049750Y32401492D02*
X52518321Y32870064D01*
X52518321Y32870064D02*
X52518321Y32362445D01*
X91900808Y61934349D02*
X91510332Y62207682D01*
X91900808Y62402920D02*
X91080808Y62402920D01*
X91080808Y62402920D02*
X91080808Y62090539D01*
X91080808Y62090539D02*
X91119856Y62012444D01*
X91119856Y62012444D02*
X91158903Y61973397D01*
X91158903Y61973397D02*
X91236999Y61934349D01*
X91236999Y61934349D02*
X91354141Y61934349D01*
X91354141Y61934349D02*
X91432237Y61973397D01*
X91432237Y61973397D02*
X91471284Y62012444D01*
X91471284Y62012444D02*
X91510332Y62090539D01*
X91510332Y62090539D02*
X91510332Y62402920D01*
X91080808Y61192444D02*
X91080808Y61582920D01*
X91080808Y61582920D02*
X91471284Y61621968D01*
X91471284Y61621968D02*
X91432237Y61582920D01*
X91432237Y61582920D02*
X91393189Y61504825D01*
X91393189Y61504825D02*
X91393189Y61309587D01*
X91393189Y61309587D02*
X91432237Y61231492D01*
X91432237Y61231492D02*
X91471284Y61192444D01*
X91471284Y61192444D02*
X91549380Y61153397D01*
X91549380Y61153397D02*
X91744618Y61153397D01*
X91744618Y61153397D02*
X91822713Y61192444D01*
X91822713Y61192444D02*
X91861761Y61231492D01*
X91861761Y61231492D02*
X91900808Y61309587D01*
X91900808Y61309587D02*
X91900808Y61504825D01*
X91900808Y61504825D02*
X91861761Y61582920D01*
X91861761Y61582920D02*
X91822713Y61621968D01*
X112500808Y70734349D02*
X112110332Y71007682D01*
X112500808Y71202920D02*
X111680808Y71202920D01*
X111680808Y71202920D02*
X111680808Y70890539D01*
X111680808Y70890539D02*
X111719856Y70812444D01*
X111719856Y70812444D02*
X111758903Y70773397D01*
X111758903Y70773397D02*
X111836999Y70734349D01*
X111836999Y70734349D02*
X111954141Y70734349D01*
X111954141Y70734349D02*
X112032237Y70773397D01*
X112032237Y70773397D02*
X112071284Y70812444D01*
X112071284Y70812444D02*
X112110332Y70890539D01*
X112110332Y70890539D02*
X112110332Y71202920D01*
X111680808Y70031492D02*
X111680808Y70187682D01*
X111680808Y70187682D02*
X111719856Y70265778D01*
X111719856Y70265778D02*
X111758903Y70304825D01*
X111758903Y70304825D02*
X111876046Y70382920D01*
X111876046Y70382920D02*
X112032237Y70421968D01*
X112032237Y70421968D02*
X112344618Y70421968D01*
X112344618Y70421968D02*
X112422713Y70382920D01*
X112422713Y70382920D02*
X112461761Y70343873D01*
X112461761Y70343873D02*
X112500808Y70265778D01*
X112500808Y70265778D02*
X112500808Y70109587D01*
X112500808Y70109587D02*
X112461761Y70031492D01*
X112461761Y70031492D02*
X112422713Y69992444D01*
X112422713Y69992444D02*
X112344618Y69953397D01*
X112344618Y69953397D02*
X112149380Y69953397D01*
X112149380Y69953397D02*
X112071284Y69992444D01*
X112071284Y69992444D02*
X112032237Y70031492D01*
X112032237Y70031492D02*
X111993189Y70109587D01*
X111993189Y70109587D02*
X111993189Y70265778D01*
X111993189Y70265778D02*
X112032237Y70343873D01*
X112032237Y70343873D02*
X112071284Y70382920D01*
X112071284Y70382920D02*
X112149380Y70421968D01*
X51000808Y21134349D02*
X50610332Y21407682D01*
X51000808Y21602920D02*
X50180808Y21602920D01*
X50180808Y21602920D02*
X50180808Y21290539D01*
X50180808Y21290539D02*
X50219856Y21212444D01*
X50219856Y21212444D02*
X50258903Y21173397D01*
X50258903Y21173397D02*
X50336999Y21134349D01*
X50336999Y21134349D02*
X50454141Y21134349D01*
X50454141Y21134349D02*
X50532237Y21173397D01*
X50532237Y21173397D02*
X50571284Y21212444D01*
X50571284Y21212444D02*
X50610332Y21290539D01*
X50610332Y21290539D02*
X50610332Y21602920D01*
X50258903Y20821968D02*
X50219856Y20782920D01*
X50219856Y20782920D02*
X50180808Y20704825D01*
X50180808Y20704825D02*
X50180808Y20509587D01*
X50180808Y20509587D02*
X50219856Y20431492D01*
X50219856Y20431492D02*
X50258903Y20392444D01*
X50258903Y20392444D02*
X50336999Y20353397D01*
X50336999Y20353397D02*
X50415094Y20353397D01*
X50415094Y20353397D02*
X50532237Y20392444D01*
X50532237Y20392444D02*
X51000808Y20861016D01*
X51000808Y20861016D02*
X51000808Y20353397D01*
D10*
X48389417Y33945181D02*
X48389417Y33135658D01*
X48389417Y33135658D02*
X48341798Y33040420D01*
X48341798Y33040420D02*
X48294179Y32992800D01*
X48294179Y32992800D02*
X48198941Y32945181D01*
X48198941Y32945181D02*
X48008465Y32945181D01*
X48008465Y32945181D02*
X47913227Y32992800D01*
X47913227Y32992800D02*
X47865608Y33040420D01*
X47865608Y33040420D02*
X47817989Y33135658D01*
X47817989Y33135658D02*
X47817989Y33945181D01*
X47198941Y33516610D02*
X47294179Y33564229D01*
X47294179Y33564229D02*
X47341798Y33611848D01*
X47341798Y33611848D02*
X47389417Y33707086D01*
X47389417Y33707086D02*
X47389417Y33754705D01*
X47389417Y33754705D02*
X47341798Y33849943D01*
X47341798Y33849943D02*
X47294179Y33897562D01*
X47294179Y33897562D02*
X47198941Y33945181D01*
X47198941Y33945181D02*
X47008465Y33945181D01*
X47008465Y33945181D02*
X46913227Y33897562D01*
X46913227Y33897562D02*
X46865608Y33849943D01*
X46865608Y33849943D02*
X46817989Y33754705D01*
X46817989Y33754705D02*
X46817989Y33707086D01*
X46817989Y33707086D02*
X46865608Y33611848D01*
X46865608Y33611848D02*
X46913227Y33564229D01*
X46913227Y33564229D02*
X47008465Y33516610D01*
X47008465Y33516610D02*
X47198941Y33516610D01*
X47198941Y33516610D02*
X47294179Y33468991D01*
X47294179Y33468991D02*
X47341798Y33421372D01*
X47341798Y33421372D02*
X47389417Y33326134D01*
X47389417Y33326134D02*
X47389417Y33135658D01*
X47389417Y33135658D02*
X47341798Y33040420D01*
X47341798Y33040420D02*
X47294179Y32992800D01*
X47294179Y32992800D02*
X47198941Y32945181D01*
X47198941Y32945181D02*
X47008465Y32945181D01*
X47008465Y32945181D02*
X46913227Y32992800D01*
X46913227Y32992800D02*
X46865608Y33040420D01*
X46865608Y33040420D02*
X46817989Y33135658D01*
X46817989Y33135658D02*
X46817989Y33326134D01*
X46817989Y33326134D02*
X46865608Y33421372D01*
X46865608Y33421372D02*
X46913227Y33468991D01*
X46913227Y33468991D02*
X47008465Y33516610D01*
D14*
G04 #@! TO.C,P8*
X117680000Y17980000D02*
X117680000Y20640000D01*
X117974462Y20640000D02*
X117680000Y20640000D01*
X117985627Y17980000D02*
X117680000Y17980000D01*
X120034373Y20640000D02*
X120340000Y20640000D01*
X120045538Y17980000D02*
X120340000Y17980000D01*
X120340000Y20640000D02*
X120340000Y17980000D01*
G04 #@! TO.C,M5*
D13*
X121235000Y67210000D02*
X135135000Y67210000D01*
X135135000Y39710000D01*
X121235000Y39710000D01*
X121235000Y67210000D01*
D14*
G04 #@! TO.C,P5*
X76080000Y44680000D02*
X76080000Y47340000D01*
X76374462Y47340000D02*
X76080000Y47340000D01*
X76385627Y44680000D02*
X76080000Y44680000D01*
X78434373Y47340000D02*
X78740000Y47340000D01*
X78445538Y44680000D02*
X78740000Y44680000D01*
X78740000Y47340000D02*
X78740000Y44680000D01*
D15*
G04 #@! TO.C,J25*
X5927513Y93485000D02*
X5927513Y54985000D01*
X5927513Y54985000D02*
X33327513Y54985000D01*
X16127513Y97485000D02*
X16127513Y93485000D01*
X16127513Y50985000D02*
X16127513Y54985000D01*
X16127513Y50985000D02*
X23127513Y50985000D01*
X23127513Y97485000D02*
X16127513Y97485000D01*
X23127513Y97485000D02*
X23127513Y93485000D01*
X23127513Y50985000D02*
X23127513Y54985000D01*
X33327513Y93485000D02*
X5927513Y93485000D01*
X33327513Y54985000D02*
X33327513Y93485000D01*
D14*
G04 #@! TO.C,P15*
X40020000Y10180000D02*
X40020000Y12840000D01*
X40314462Y12840000D02*
X40020000Y12840000D01*
X40325627Y10180000D02*
X40020000Y10180000D01*
X42374373Y12840000D02*
X42680000Y12840000D01*
X42385538Y10180000D02*
X42680000Y10180000D01*
X42680000Y12840000D02*
X42680000Y10180000D01*
G04 #@! TO.C,F4*
X53210000Y14610000D02*
X53210000Y19460000D01*
X55210000Y14610000D02*
X55210000Y19460000D01*
X53210000Y19460000D02*
G75*
G02*
X55210000Y19460000I1000000J0D01*
G01*
X55210000Y14560000D02*
G75*
G02*
X53210000Y14560000I-1000000J0D01*
G01*
G04 #@! TO.C,P4*
X96980000Y6180000D02*
X96980000Y8840000D01*
X97274462Y8840000D02*
X96980000Y8840000D01*
X97285627Y6180000D02*
X96980000Y6180000D01*
X99334373Y8840000D02*
X99640000Y8840000D01*
X99345538Y6180000D02*
X99640000Y6180000D01*
X99640000Y8840000D02*
X99640000Y6180000D01*
D13*
G04 #@! TO.C,M3*
X78185000Y77385000D02*
X78185000Y62385000D01*
X78185000Y77385000D02*
X79485000Y77385000D01*
X78185000Y62385000D02*
X83285000Y62385000D01*
X87785000Y77385000D02*
X81385000Y77385000D01*
X87785000Y62985000D02*
X87785000Y77385000D01*
D14*
G04 #@! TO.C,P17*
X37480000Y10180000D02*
X37480000Y12840000D01*
X37774462Y12840000D02*
X37480000Y12840000D01*
X37785627Y10180000D02*
X37480000Y10180000D01*
X39834373Y12840000D02*
X40140000Y12840000D01*
X39845538Y10180000D02*
X40140000Y10180000D01*
X40140000Y12840000D02*
X40140000Y10180000D01*
G04 #@! TO.C,F3*
X55410000Y14610000D02*
X55410000Y19460000D01*
X57410000Y14610000D02*
X57410000Y19460000D01*
X55410000Y19460000D02*
G75*
G02*
X57410000Y19460000I1000000J0D01*
G01*
X57410000Y14560000D02*
G75*
G02*
X55410000Y14560000I-1000000J0D01*
G01*
D13*
G04 #@! TO.C,M2*
X112884999Y82035000D02*
X112884999Y72935000D01*
X112884999Y82035000D02*
X113885001Y82035000D01*
X115985002Y82035000D02*
X115985002Y72935000D01*
D14*
G04 #@! TO.C,P18*
X57480000Y9680000D02*
X57480000Y12340000D01*
X57774462Y12340000D02*
X57480000Y12340000D01*
X57785627Y9680000D02*
X57480000Y9680000D01*
X59834373Y12340000D02*
X60140000Y12340000D01*
X59845538Y9680000D02*
X60140000Y9680000D01*
X60140000Y12340000D02*
X60140000Y9680000D01*
D15*
G04 #@! TO.C,J23*
X5927513Y44935000D02*
X5927513Y6435000D01*
X5927513Y6435000D02*
X33327513Y6435000D01*
X16127513Y48935000D02*
X16127513Y44935000D01*
X16127513Y2435000D02*
X16127513Y6435000D01*
X16127513Y2435000D02*
X23127513Y2435000D01*
X23127513Y48935000D02*
X16127513Y48935000D01*
X23127513Y48935000D02*
X23127513Y44935000D01*
X23127513Y2435000D02*
X23127513Y6435000D01*
X33327513Y44935000D02*
X5927513Y44935000D01*
X33327513Y6435000D02*
X33327513Y44935000D01*
D13*
G04 #@! TO.C,M1*
X60534999Y15334999D02*
X60534999Y18535002D01*
X60534999Y3234999D02*
X60534999Y13635001D01*
X60534999Y1334999D02*
X60534999Y1634999D01*
X60534999Y1334999D02*
X75934999Y1334999D01*
X62034999Y21934997D02*
X77334998Y21934999D01*
X77334996Y15235001D02*
X77334996Y20035001D01*
X77334996Y9034999D02*
X77334996Y11734999D01*
X77334996Y6335001D02*
X77334996Y7435004D01*
X77334996Y2784999D02*
X77335001Y4334999D01*
X77334998Y21635001D02*
X77334998Y21934999D01*
D14*
G04 #@! TO.C,P6*
X73540000Y44680000D02*
X73540000Y47340000D01*
X73834462Y47340000D02*
X73540000Y47340000D01*
X73845627Y44680000D02*
X73540000Y44680000D01*
X75894373Y47340000D02*
X76200000Y47340000D01*
X75905538Y44680000D02*
X76200000Y44680000D01*
X76200000Y47340000D02*
X76200000Y44680000D01*
D13*
G04 #@! TO.C,M7*
X66528797Y43410001D02*
X73421674Y43410001D01*
X66535000Y54253795D02*
X66535000Y43410001D01*
X66585000Y54309997D02*
X66535000Y54253795D01*
X66585000Y54309997D02*
X67409999Y54309997D01*
X67685005Y54585001D02*
X67409999Y54309997D01*
X67685005Y54585001D02*
X73382827Y54585001D01*
X73382827Y54585001D02*
X73421674Y43410001D01*
D14*
G04 #@! TO.C,F1*
X57610000Y14610000D02*
X57610000Y19460000D01*
X59610000Y14610000D02*
X59610000Y19460000D01*
X57610000Y19460000D02*
G75*
G02*
X59610000Y19460000I1000000J0D01*
G01*
X59610000Y14560000D02*
G75*
G02*
X57610000Y14560000I-1000000J0D01*
G01*
G04 #@! TO.C,P3*
X96980000Y1180000D02*
X96980000Y3840000D01*
X97274462Y3840000D02*
X96980000Y3840000D01*
X97285627Y1180000D02*
X96980000Y1180000D01*
X99334373Y3840000D02*
X99640000Y3840000D01*
X99345538Y1180000D02*
X99640000Y1180000D01*
X99640000Y3840000D02*
X99640000Y1180000D01*
D16*
G04 #@! TO.C,R4*
X78484609Y6103609D02*
X78484609Y5087609D01*
X78484609Y4071609D02*
X78484609Y3055609D01*
X80084609Y5087609D02*
X80084609Y6103609D01*
X80084609Y3055609D02*
X80084609Y4071609D01*
D14*
X78482971Y6158609D02*
G75*
G02*
X80084609Y6154609I801638J326000D01*
G01*
X80084609Y3004609D02*
G75*
G02*
X78481114Y2996007I-800000J-330000D01*
G01*
G04 #@! TO.C,P7*
X117680000Y22680000D02*
X117680000Y25340000D01*
X117974462Y25340000D02*
X117680000Y25340000D01*
X117985627Y22680000D02*
X117680000Y22680000D01*
X120034373Y25340000D02*
X120340000Y25340000D01*
X120045538Y22680000D02*
X120340000Y22680000D01*
X120340000Y25340000D02*
X120340000Y22680000D01*
D13*
G04 #@! TO.C,M6*
X81410000Y48110000D02*
X81410000Y12310010D01*
X115210010Y48110000D02*
X81410000Y48110000D01*
X115210010Y48110000D02*
X115210010Y12310010D01*
X115210010Y12310010D02*
X81410000Y12310010D01*
G04 #@! TO.C,M4*
X67135000Y77385000D02*
X67135000Y62385000D01*
X67135000Y77385000D02*
X68435000Y77385000D01*
X67135000Y62385000D02*
X72235000Y62385000D01*
X76735000Y77385000D02*
X70335000Y77385000D01*
X76735000Y62985000D02*
X76735000Y77385000D01*
D14*
G04 #@! TO.C,F2*
X59210000Y23610000D02*
X54360000Y23610000D01*
X59210000Y21610000D02*
X54360000Y21610000D01*
X54360000Y21610000D02*
G75*
G02*
X54360000Y23610000I0J1000000D01*
G01*
X59260000Y23610000D02*
G75*
G02*
X59260000Y21610000I0J-1000000D01*
G01*
G04 #@! TO.C,P16*
X42560000Y10180000D02*
X42560000Y12840000D01*
X42854462Y12840000D02*
X42560000Y12840000D01*
X42865627Y10180000D02*
X42560000Y10180000D01*
X44914373Y12840000D02*
X45220000Y12840000D01*
X44925538Y10180000D02*
X45220000Y10180000D01*
X45220000Y12840000D02*
X45220000Y10180000D01*
G04 #@! TO.C,D8*
X89750000Y79592023D02*
X89750000Y81267023D01*
X89750000Y79592023D02*
X89750000Y78942023D01*
X92870000Y79592023D02*
X92870000Y80242023D01*
X92870000Y79592023D02*
X92870000Y78942023D01*
G04 #@! TO.C,U7*
X45527513Y68300000D02*
X47477513Y68300000D01*
X45527513Y63180000D02*
X47477513Y63180000D01*
X49427513Y63180000D02*
X47477513Y63180000D01*
X50927513Y68300000D02*
X47477513Y68300000D01*
D13*
G04 #@! TO.C,C10*
X48435000Y14970000D02*
X47435000Y14970000D01*
G04 #@! TO.C,C27*
X97260014Y65110000D02*
X98009999Y65110000D01*
D14*
G04 #@! TO.C,D4*
X38062513Y32610000D02*
X41962513Y32610000D01*
X38062513Y30610000D02*
X38062513Y32610000D01*
X38062513Y30610000D02*
X41962513Y30610000D01*
D12*
X39762513Y31610000D02*
X39962513Y31610000D01*
X39962513Y31960000D02*
X39962513Y31260000D01*
X39962513Y31610000D02*
X40662513Y31960000D01*
X39962513Y31610000D02*
X40662513Y31260000D01*
X40662513Y31960000D02*
X40662513Y31260000D01*
X40662513Y31610000D02*
X40962513Y31610000D01*
D17*
G04 #@! TO.C,BT1*
X120698000Y21446032D02*
X120698000Y18290006D01*
X121898302Y21446032D02*
X120698000Y21446032D01*
X125578889Y18290006D02*
X120698000Y18290006D01*
X130350000Y29853458D02*
X130350000Y28329458D01*
X130350000Y22614458D02*
X130350000Y20582458D01*
X131366000Y21598458D02*
X129334000Y21598458D01*
X134922000Y21446032D02*
X133980600Y21446032D01*
X134922000Y21446032D02*
X134922000Y18290006D01*
X134922000Y18290006D02*
X130041110Y18290006D01*
X125512548Y18694629D02*
G75*
G02*
X125686081Y32381548I2297434J6815431D01*
G01*
X129964049Y32427673D02*
G75*
G02*
X129985107Y18599025I-2154015J-6917620D01*
G01*
D14*
G04 #@! TO.C,U10*
X40627513Y50560000D02*
X38677513Y50560000D01*
X40627513Y50560000D02*
X44077513Y50560000D01*
X40627513Y45440000D02*
X38677513Y45440000D01*
X40627513Y45440000D02*
X42577513Y45440000D01*
D18*
G04 #@! TO.C,R31*
X45917513Y50164995D02*
X45517513Y50164985D01*
X45918569Y49419160D02*
X45518570Y49419149D01*
D13*
G04 #@! TO.C,C30*
X93000001Y82959986D02*
X93000001Y82210001D01*
G04 #@! TO.C,C7*
X42435000Y14970000D02*
X41435000Y14970000D01*
G04 #@! TO.C,C33*
X132460014Y34010000D02*
X133209999Y34010000D01*
G04 #@! TO.C,C29*
X91310000Y76742037D02*
X91310000Y77492022D01*
D18*
G04 #@! TO.C,R34*
X39656457Y52940840D02*
X40056456Y52940851D01*
X39657513Y52195005D02*
X40057513Y52195015D01*
G04 #@! TO.C,R1*
X10036662Y30078943D02*
X10036673Y29678944D01*
X10782498Y30080000D02*
X10782508Y29680000D01*
D13*
G04 #@! TO.C,C17*
X51910000Y9510000D02*
X52910000Y9510000D01*
G04 #@! TO.C,C3*
X43435000Y18970000D02*
X44435000Y18970000D01*
G04 #@! TO.C,C23*
X54910000Y5510000D02*
X53910000Y5510000D01*
D14*
G04 #@! TO.C,U4*
X88750000Y71810000D02*
X88750000Y75260000D01*
X88750000Y71810000D02*
X88750000Y69860000D01*
X93870000Y71810000D02*
X93870000Y73760000D01*
X93870000Y71810000D02*
X93870000Y69860000D01*
D13*
G04 #@! TO.C,C1*
X39435000Y18970000D02*
X40435000Y18970000D01*
D14*
G04 #@! TO.C,U11*
X40627513Y58560000D02*
X38677513Y58560000D01*
X40627513Y58560000D02*
X44077513Y58560000D01*
X40627513Y53440000D02*
X38677513Y53440000D01*
X40627513Y53440000D02*
X42577513Y53440000D01*
D13*
G04 #@! TO.C,C31*
X95759986Y73510000D02*
X95010001Y73510000D01*
G04 #@! TO.C,C14*
X45910000Y9510000D02*
X46910000Y9510000D01*
G04 #@! TO.C,C19*
X46910000Y5510000D02*
X45910000Y5510000D01*
G04 #@! TO.C,C4*
X45435000Y18970000D02*
X46435000Y18970000D01*
D18*
G04 #@! TO.C,R10*
X52667513Y67944985D02*
X53067513Y67944995D01*
X52668570Y67199149D02*
X53068569Y67199160D01*
D14*
G04 #@! TO.C,D2*
X40407513Y66335000D02*
X40407513Y70235000D01*
D12*
X41057513Y68935000D02*
X41757513Y68935000D01*
X41057513Y68235000D02*
X41757513Y68235000D01*
X41407513Y68935000D02*
X41407513Y69235000D01*
X41407513Y68235000D02*
X41057513Y68935000D01*
X41407513Y68235000D02*
X41757513Y68935000D01*
X41407513Y68035000D02*
X41407513Y68235000D01*
D14*
X42407513Y66335000D02*
X40407513Y66335000D01*
X42407513Y66335000D02*
X42407513Y70235000D01*
D10*
G04 #@! TO.C,D1*
X122082003Y16584995D02*
X122082003Y16163995D01*
X122082003Y16584995D02*
X125010000Y16584995D01*
X122082003Y16264000D02*
X122210000Y16264000D01*
X122082003Y15856005D02*
X122082003Y15410000D01*
X122082003Y15756000D02*
X122209003Y15756000D01*
X122082003Y15410000D02*
X125010001Y15410000D01*
X122210000Y16560000D02*
X122209003Y16163995D01*
X122210000Y15856005D02*
X122210000Y15410000D01*
D12*
X123210000Y16010000D02*
X123410000Y16010000D01*
X123410000Y16360000D02*
X123410000Y15660000D01*
X123410000Y16010000D02*
X124110000Y16360000D01*
X123410000Y16010000D02*
X124110000Y15660000D01*
X124110000Y16360000D02*
X124110000Y15660000D01*
X124110000Y16010000D02*
X124410000Y16010000D01*
D18*
G04 #@! TO.C,R33*
X46077513Y58214995D02*
X45677513Y58214985D01*
X46078569Y57469160D02*
X45678570Y57469149D01*
D13*
G04 #@! TO.C,C21*
X50910000Y5510000D02*
X49910000Y5510000D01*
D18*
G04 #@! TO.C,R7*
X84439160Y4187262D02*
X84439149Y4587261D01*
X85184995Y4188318D02*
X85184985Y4588318D01*
D13*
G04 #@! TO.C,C32*
X97559986Y73510000D02*
X96810001Y73510000D01*
D18*
G04 #@! TO.C,R16*
X40489160Y89658944D02*
X40489149Y90058943D01*
X41234995Y89660000D02*
X41234985Y90060000D01*
D14*
G04 #@! TO.C,U9*
X40627513Y41560000D02*
X38677513Y41560000D01*
X40627513Y41560000D02*
X44077513Y41560000D01*
X40627513Y36440000D02*
X38677513Y36440000D01*
X40627513Y36440000D02*
X42577513Y36440000D01*
D18*
G04 #@! TO.C,R30*
X40326457Y36010840D02*
X40726456Y36010851D01*
X40327513Y35265005D02*
X40727513Y35265015D01*
D14*
G04 #@! TO.C,L2*
X89800000Y85172779D02*
X89800000Y84847221D01*
X90820000Y85172779D02*
X90820000Y84847221D01*
D13*
G04 #@! TO.C,C16*
X49910000Y9510000D02*
X50910000Y9510000D01*
G04 #@! TO.C,C22*
X52910000Y5510000D02*
X51910000Y5510000D01*
D18*
G04 #@! TO.C,R8*
X86939160Y4187262D02*
X86939149Y4587261D01*
X87684995Y4188318D02*
X87684985Y4588318D01*
G04 #@! TO.C,R3*
X51439160Y17808944D02*
X51439149Y18208943D01*
X52184995Y17810000D02*
X52184985Y18210000D01*
G04 #@! TO.C,R15*
X37939160Y89658944D02*
X37939149Y90058943D01*
X38684995Y89660000D02*
X38684985Y90060000D01*
G04 #@! TO.C,R13*
X51756673Y27298944D02*
X51756662Y27698943D01*
X52502508Y27300000D02*
X52502498Y27700000D01*
G04 #@! TO.C,R11*
X47506456Y62350851D02*
X47106457Y62350840D01*
X47507513Y61605015D02*
X47107513Y61605005D01*
D14*
G04 #@! TO.C,D3*
X40387513Y60130000D02*
X40387513Y64030000D01*
D12*
X41037513Y62130000D02*
X41737513Y62130000D01*
X41037513Y61430000D02*
X41387513Y62130000D01*
X41037513Y61430000D02*
X41737513Y61430000D01*
X41387513Y62130000D02*
X41387513Y62330000D01*
X41387513Y61130000D02*
X41387513Y61430000D01*
X41737513Y61430000D02*
X41387513Y62130000D01*
D14*
X42387513Y64030000D02*
X40387513Y64030000D01*
X42387513Y60130000D02*
X42387513Y64030000D01*
D13*
G04 #@! TO.C,C5*
X47435000Y18970000D02*
X48435000Y18970000D01*
D18*
G04 #@! TO.C,R32*
X40146457Y44540840D02*
X40546456Y44540851D01*
X40147513Y43795005D02*
X40547513Y43795015D01*
D13*
G04 #@! TO.C,C28*
X89610000Y82260014D02*
X89610000Y83009999D01*
D14*
G04 #@! TO.C,U6*
X37685000Y84285000D02*
X37685000Y87735000D01*
X37685000Y84285000D02*
X37685000Y82335000D01*
X42805000Y84285000D02*
X42805000Y86235000D01*
X42805000Y84285000D02*
X42805000Y82335000D01*
D18*
G04 #@! TO.C,R29*
X46087513Y41254995D02*
X45687513Y41254985D01*
X46088569Y40509160D02*
X45688570Y40509149D01*
D14*
G04 #@! TO.C,L1*
X91800000Y85172779D02*
X91800000Y84847221D01*
X92820000Y85172779D02*
X92820000Y84847221D01*
D13*
G04 #@! TO.C,C15*
X47910000Y9510000D02*
X48910000Y9510000D01*
G04 #@! TO.C,C8*
X44435000Y14970000D02*
X43435000Y14970000D01*
G04 #@! TO.C,C9*
X46435000Y14970000D02*
X45435000Y14970000D01*
G04 #@! TO.C,C6*
X40435000Y14970000D02*
X39435000Y14970000D01*
D14*
G04 #@! TO.C,D5*
X38042513Y30100000D02*
X38042513Y28100000D01*
D12*
X39942513Y29100000D02*
X39742513Y29100000D01*
X39942513Y28750000D02*
X39942513Y29450000D01*
X40642513Y29450000D02*
X39942513Y29100000D01*
X40642513Y28750000D02*
X39942513Y29100000D01*
X40642513Y28750000D02*
X40642513Y29450000D01*
X40942513Y29100000D02*
X40642513Y29100000D01*
D14*
X41942513Y30100000D02*
X38042513Y30100000D01*
X41942513Y28100000D02*
X38042513Y28100000D01*
D13*
G04 #@! TO.C,C2*
X41435000Y18970000D02*
X42435000Y18970000D01*
G04 #@! TO.C,C18*
X53910000Y9510000D02*
X54910000Y9510000D01*
D18*
G04 #@! TO.C,R12*
X51756673Y30798944D02*
X51756662Y31198943D01*
X52502508Y30800000D02*
X52502498Y31200000D01*
D13*
G04 #@! TO.C,C20*
X48910000Y5510000D02*
X47910000Y5510000D01*
D18*
G04 #@! TO.C,R5*
X92335005Y62010000D02*
X92335015Y61610000D01*
X93080840Y62011056D02*
X93080851Y61611057D01*
G04 #@! TO.C,R6*
X113035005Y71010000D02*
X113035015Y70610000D01*
X113780840Y71011056D02*
X113780851Y70611057D01*
G04 #@! TO.C,R2*
X51439160Y20808944D02*
X51439149Y21208943D01*
X52184995Y20810000D02*
X52184985Y21210000D01*
D14*
G04 #@! TO.C,U8*
X47627513Y32560000D02*
X45677513Y32560000D01*
X47627513Y32560000D02*
X51077513Y32560000D01*
X47627513Y27440000D02*
X45677513Y27440000D01*
X47627513Y27440000D02*
X49577513Y27440000D01*
G04 #@! TD*
M02*
