G04 #@! TF.GenerationSoftware,KiCad,Pcbnew,8.0.9-8.0.9-0~ubuntu24.04.1*
G04 #@! TF.CreationDate,2026-01-25T12:37:22+00:00*
G04 #@! TF.ProjectId,uaefi,75616566-692e-46b6-9963-61645f706362,E*
G04 #@! TF.SameCoordinates,Original*
G04 #@! TF.FileFunction,Paste,Bot*
G04 #@! TF.FilePolarity,Positive*
%FSLAX46Y46*%
G04 Gerber Fmt 4.6, Leading zero omitted, Abs format (unit mm)*
G04 Created by KiCad (PCBNEW 8.0.9-8.0.9-0~ubuntu24.04.1) date 2026-01-25 12:37:22*
%MOMM*%
%LPD*%
G01*
G04 APERTURE LIST*
%ADD10R,2.299995X4.399991*%
%ADD11R,2.299995X3.999992*%
G04 APERTURE END LIST*
G04 #@! TO.C,D8*
G36*
G01*
X90210000Y81267023D02*
X90510000Y81267023D01*
G75*
G02*
X90660000Y81117023I0J-150000D01*
G01*
X90660000Y79942023D01*
G75*
G02*
X90510000Y79792023I-150000J0D01*
G01*
X90210000Y79792023D01*
G75*
G02*
X90060000Y79942023I0J150000D01*
G01*
X90060000Y81117023D01*
G75*
G02*
X90210000Y81267023I150000J0D01*
G01*
G37*
G36*
G01*
X92110000Y81267023D02*
X92410000Y81267023D01*
G75*
G02*
X92560000Y81117023I0J-150000D01*
G01*
X92560000Y79942023D01*
G75*
G02*
X92410000Y79792023I-150000J0D01*
G01*
X92110000Y79792023D01*
G75*
G02*
X91960000Y79942023I0J150000D01*
G01*
X91960000Y81117023D01*
G75*
G02*
X92110000Y81267023I150000J0D01*
G01*
G37*
G36*
G01*
X91160000Y79392023D02*
X91460000Y79392023D01*
G75*
G02*
X91610000Y79242023I0J-150000D01*
G01*
X91610000Y78067023D01*
G75*
G02*
X91460000Y77917023I-150000J0D01*
G01*
X91160000Y77917023D01*
G75*
G02*
X91010000Y78067023I0J150000D01*
G01*
X91010000Y79242023D01*
G75*
G02*
X91160000Y79392023I150000J0D01*
G01*
G37*
G04 #@! TD*
G04 #@! TO.C,U7*
G36*
G01*
X50927513Y67795000D02*
X50927513Y67495000D01*
G75*
G02*
X50777513Y67345000I-150000J0D01*
G01*
X49127513Y67345000D01*
G75*
G02*
X48977513Y67495000I0J150000D01*
G01*
X48977513Y67795000D01*
G75*
G02*
X49127513Y67945000I150000J0D01*
G01*
X50777513Y67945000D01*
G75*
G02*
X50927513Y67795000I0J-150000D01*
G01*
G37*
G36*
G01*
X50927513Y66525000D02*
X50927513Y66225000D01*
G75*
G02*
X50777513Y66075000I-150000J0D01*
G01*
X49127513Y66075000D01*
G75*
G02*
X48977513Y66225000I0J150000D01*
G01*
X48977513Y66525000D01*
G75*
G02*
X49127513Y66675000I150000J0D01*
G01*
X50777513Y66675000D01*
G75*
G02*
X50927513Y66525000I0J-150000D01*
G01*
G37*
G36*
G01*
X50927513Y65255000D02*
X50927513Y64955000D01*
G75*
G02*
X50777513Y64805000I-150000J0D01*
G01*
X49127513Y64805000D01*
G75*
G02*
X48977513Y64955000I0J150000D01*
G01*
X48977513Y65255000D01*
G75*
G02*
X49127513Y65405000I150000J0D01*
G01*
X50777513Y65405000D01*
G75*
G02*
X50927513Y65255000I0J-150000D01*
G01*
G37*
G36*
G01*
X50927513Y63985000D02*
X50927513Y63685000D01*
G75*
G02*
X50777513Y63535000I-150000J0D01*
G01*
X49127513Y63535000D01*
G75*
G02*
X48977513Y63685000I0J150000D01*
G01*
X48977513Y63985000D01*
G75*
G02*
X49127513Y64135000I150000J0D01*
G01*
X50777513Y64135000D01*
G75*
G02*
X50927513Y63985000I0J-150000D01*
G01*
G37*
G36*
G01*
X45977513Y63985000D02*
X45977513Y63685000D01*
G75*
G02*
X45827513Y63535000I-150000J0D01*
G01*
X44177513Y63535000D01*
G75*
G02*
X44027513Y63685000I0J150000D01*
G01*
X44027513Y63985000D01*
G75*
G02*
X44177513Y64135000I150000J0D01*
G01*
X45827513Y64135000D01*
G75*
G02*
X45977513Y63985000I0J-150000D01*
G01*
G37*
G36*
G01*
X45977513Y65255000D02*
X45977513Y64955000D01*
G75*
G02*
X45827513Y64805000I-150000J0D01*
G01*
X44177513Y64805000D01*
G75*
G02*
X44027513Y64955000I0J150000D01*
G01*
X44027513Y65255000D01*
G75*
G02*
X44177513Y65405000I150000J0D01*
G01*
X45827513Y65405000D01*
G75*
G02*
X45977513Y65255000I0J-150000D01*
G01*
G37*
G36*
G01*
X45977513Y66525000D02*
X45977513Y66225000D01*
G75*
G02*
X45827513Y66075000I-150000J0D01*
G01*
X44177513Y66075000D01*
G75*
G02*
X44027513Y66225000I0J150000D01*
G01*
X44027513Y66525000D01*
G75*
G02*
X44177513Y66675000I150000J0D01*
G01*
X45827513Y66675000D01*
G75*
G02*
X45977513Y66525000I0J-150000D01*
G01*
G37*
G36*
G01*
X45977513Y67795000D02*
X45977513Y67495000D01*
G75*
G02*
X45827513Y67345000I-150000J0D01*
G01*
X44177513Y67345000D01*
G75*
G02*
X44027513Y67495000I0J150000D01*
G01*
X44027513Y67795000D01*
G75*
G02*
X44177513Y67945000I150000J0D01*
G01*
X45827513Y67945000D01*
G75*
G02*
X45977513Y67795000I0J-150000D01*
G01*
G37*
G04 #@! TD*
G04 #@! TO.C,C10*
G36*
G01*
X48460000Y13470000D02*
X47410000Y13470000D01*
G75*
G02*
X47310000Y13570000I0J100000D01*
G01*
X47310000Y14370000D01*
G75*
G02*
X47410000Y14470000I100000J0D01*
G01*
X48460000Y14470000D01*
G75*
G02*
X48560000Y14370000I0J-100000D01*
G01*
X48560000Y13570000D01*
G75*
G02*
X48460000Y13470000I-100000J0D01*
G01*
G37*
G36*
G01*
X48460000Y15470000D02*
X47410000Y15470000D01*
G75*
G02*
X47310000Y15570000I0J100000D01*
G01*
X47310000Y16370000D01*
G75*
G02*
X47410000Y16470000I100000J0D01*
G01*
X48460000Y16470000D01*
G75*
G02*
X48560000Y16370000I0J-100000D01*
G01*
X48560000Y15570000D01*
G75*
G02*
X48460000Y15470000I-100000J0D01*
G01*
G37*
G04 #@! TD*
G04 #@! TO.C,C27*
G36*
G01*
X97270000Y66325001D02*
X97950000Y66325001D01*
G75*
G02*
X98035000Y66240001I0J-85000D01*
G01*
X98035000Y65560001D01*
G75*
G02*
X97950000Y65475001I-85000J0D01*
G01*
X97270000Y65475001D01*
G75*
G02*
X97185000Y65560001I0J85000D01*
G01*
X97185000Y66240001D01*
G75*
G02*
X97270000Y66325001I85000J0D01*
G01*
G37*
G36*
G01*
X97270000Y64744999D02*
X97950000Y64744999D01*
G75*
G02*
X98035000Y64659999I0J-85000D01*
G01*
X98035000Y63979999D01*
G75*
G02*
X97950000Y63894999I-85000J0D01*
G01*
X97270000Y63894999D01*
G75*
G02*
X97185000Y63979999I0J85000D01*
G01*
X97185000Y64659999D01*
G75*
G02*
X97270000Y64744999I85000J0D01*
G01*
G37*
G04 #@! TD*
G04 #@! TO.C,D4*
G36*
G01*
X38212513Y31100000D02*
X38212513Y32120000D01*
G75*
G02*
X38302513Y32210000I90000J0D01*
G01*
X39022513Y32210000D01*
G75*
G02*
X39112513Y32120000I0J-90000D01*
G01*
X39112513Y31100000D01*
G75*
G02*
X39022513Y31010000I-90000J0D01*
G01*
X38302513Y31010000D01*
G75*
G02*
X38212513Y31100000I0J90000D01*
G01*
G37*
G36*
G01*
X41512513Y31100000D02*
X41512513Y32120000D01*
G75*
G02*
X41602513Y32210000I90000J0D01*
G01*
X42322513Y32210000D01*
G75*
G02*
X42412513Y32120000I0J-90000D01*
G01*
X42412513Y31100000D01*
G75*
G02*
X42322513Y31010000I-90000J0D01*
G01*
X41602513Y31010000D01*
G75*
G02*
X41512513Y31100000I0J90000D01*
G01*
G37*
G04 #@! TD*
D10*
G04 #@! TO.C,BT1*
X127810000Y17510048D03*
D11*
X127810000Y33510067D03*
G04 #@! TD*
G04 #@! TO.C,U10*
G36*
G01*
X44077513Y50055000D02*
X44077513Y49755000D01*
G75*
G02*
X43927513Y49605000I-150000J0D01*
G01*
X42277513Y49605000D01*
G75*
G02*
X42127513Y49755000I0J150000D01*
G01*
X42127513Y50055000D01*
G75*
G02*
X42277513Y50205000I150000J0D01*
G01*
X43927513Y50205000D01*
G75*
G02*
X44077513Y50055000I0J-150000D01*
G01*
G37*
G36*
G01*
X44077513Y48785000D02*
X44077513Y48485000D01*
G75*
G02*
X43927513Y48335000I-150000J0D01*
G01*
X42277513Y48335000D01*
G75*
G02*
X42127513Y48485000I0J150000D01*
G01*
X42127513Y48785000D01*
G75*
G02*
X42277513Y48935000I150000J0D01*
G01*
X43927513Y48935000D01*
G75*
G02*
X44077513Y48785000I0J-150000D01*
G01*
G37*
G36*
G01*
X44077513Y47515000D02*
X44077513Y47215000D01*
G75*
G02*
X43927513Y47065000I-150000J0D01*
G01*
X42277513Y47065000D01*
G75*
G02*
X42127513Y47215000I0J150000D01*
G01*
X42127513Y47515000D01*
G75*
G02*
X42277513Y47665000I150000J0D01*
G01*
X43927513Y47665000D01*
G75*
G02*
X44077513Y47515000I0J-150000D01*
G01*
G37*
G36*
G01*
X44077513Y46245000D02*
X44077513Y45945000D01*
G75*
G02*
X43927513Y45795000I-150000J0D01*
G01*
X42277513Y45795000D01*
G75*
G02*
X42127513Y45945000I0J150000D01*
G01*
X42127513Y46245000D01*
G75*
G02*
X42277513Y46395000I150000J0D01*
G01*
X43927513Y46395000D01*
G75*
G02*
X44077513Y46245000I0J-150000D01*
G01*
G37*
G36*
G01*
X39127513Y46245000D02*
X39127513Y45945000D01*
G75*
G02*
X38977513Y45795000I-150000J0D01*
G01*
X37327513Y45795000D01*
G75*
G02*
X37177513Y45945000I0J150000D01*
G01*
X37177513Y46245000D01*
G75*
G02*
X37327513Y46395000I150000J0D01*
G01*
X38977513Y46395000D01*
G75*
G02*
X39127513Y46245000I0J-150000D01*
G01*
G37*
G36*
G01*
X39127513Y47515000D02*
X39127513Y47215000D01*
G75*
G02*
X38977513Y47065000I-150000J0D01*
G01*
X37327513Y47065000D01*
G75*
G02*
X37177513Y47215000I0J150000D01*
G01*
X37177513Y47515000D01*
G75*
G02*
X37327513Y47665000I150000J0D01*
G01*
X38977513Y47665000D01*
G75*
G02*
X39127513Y47515000I0J-150000D01*
G01*
G37*
G36*
G01*
X39127513Y48785000D02*
X39127513Y48485000D01*
G75*
G02*
X38977513Y48335000I-150000J0D01*
G01*
X37327513Y48335000D01*
G75*
G02*
X37177513Y48485000I0J150000D01*
G01*
X37177513Y48785000D01*
G75*
G02*
X37327513Y48935000I150000J0D01*
G01*
X38977513Y48935000D01*
G75*
G02*
X39127513Y48785000I0J-150000D01*
G01*
G37*
G36*
G01*
X39127513Y50055000D02*
X39127513Y49755000D01*
G75*
G02*
X38977513Y49605000I-150000J0D01*
G01*
X37327513Y49605000D01*
G75*
G02*
X37177513Y49755000I0J150000D01*
G01*
X37177513Y50055000D01*
G75*
G02*
X37327513Y50205000I150000J0D01*
G01*
X38977513Y50205000D01*
G75*
G02*
X39127513Y50055000I0J-150000D01*
G01*
G37*
G04 #@! TD*
G04 #@! TO.C,R31*
G36*
G01*
X46867513Y50180000D02*
X46867513Y49400000D01*
G75*
G02*
X46797513Y49330000I-70000J0D01*
G01*
X46237513Y49330000D01*
G75*
G02*
X46167513Y49400000I0J70000D01*
G01*
X46167513Y50180000D01*
G75*
G02*
X46237513Y50250000I70000J0D01*
G01*
X46797513Y50250000D01*
G75*
G02*
X46867513Y50180000I0J-70000D01*
G01*
G37*
G36*
G01*
X45267513Y50180000D02*
X45267513Y49400000D01*
G75*
G02*
X45197513Y49330000I-70000J0D01*
G01*
X44637513Y49330000D01*
G75*
G02*
X44567513Y49400000I0J70000D01*
G01*
X44567513Y50180000D01*
G75*
G02*
X44637513Y50250000I70000J0D01*
G01*
X45197513Y50250000D01*
G75*
G02*
X45267513Y50180000I0J-70000D01*
G01*
G37*
G04 #@! TD*
G04 #@! TO.C,C30*
G36*
G01*
X94215002Y82950000D02*
X94215002Y82270000D01*
G75*
G02*
X94130002Y82185000I-85000J0D01*
G01*
X93450002Y82185000D01*
G75*
G02*
X93365002Y82270000I0J85000D01*
G01*
X93365002Y82950000D01*
G75*
G02*
X93450002Y83035000I85000J0D01*
G01*
X94130002Y83035000D01*
G75*
G02*
X94215002Y82950000I0J-85000D01*
G01*
G37*
G36*
G01*
X92635000Y82950000D02*
X92635000Y82270000D01*
G75*
G02*
X92550000Y82185000I-85000J0D01*
G01*
X91870000Y82185000D01*
G75*
G02*
X91785000Y82270000I0J85000D01*
G01*
X91785000Y82950000D01*
G75*
G02*
X91870000Y83035000I85000J0D01*
G01*
X92550000Y83035000D01*
G75*
G02*
X92635000Y82950000I0J-85000D01*
G01*
G37*
G04 #@! TD*
G04 #@! TO.C,C7*
G36*
G01*
X42460000Y13470000D02*
X41410000Y13470000D01*
G75*
G02*
X41310000Y13570000I0J100000D01*
G01*
X41310000Y14370000D01*
G75*
G02*
X41410000Y14470000I100000J0D01*
G01*
X42460000Y14470000D01*
G75*
G02*
X42560000Y14370000I0J-100000D01*
G01*
X42560000Y13570000D01*
G75*
G02*
X42460000Y13470000I-100000J0D01*
G01*
G37*
G36*
G01*
X42460000Y15470000D02*
X41410000Y15470000D01*
G75*
G02*
X41310000Y15570000I0J100000D01*
G01*
X41310000Y16370000D01*
G75*
G02*
X41410000Y16470000I100000J0D01*
G01*
X42460000Y16470000D01*
G75*
G02*
X42560000Y16370000I0J-100000D01*
G01*
X42560000Y15570000D01*
G75*
G02*
X42460000Y15470000I-100000J0D01*
G01*
G37*
G04 #@! TD*
G04 #@! TO.C,C33*
G36*
G01*
X132470000Y35225001D02*
X133150000Y35225001D01*
G75*
G02*
X133235000Y35140001I0J-85000D01*
G01*
X133235000Y34460001D01*
G75*
G02*
X133150000Y34375001I-85000J0D01*
G01*
X132470000Y34375001D01*
G75*
G02*
X132385000Y34460001I0J85000D01*
G01*
X132385000Y35140001D01*
G75*
G02*
X132470000Y35225001I85000J0D01*
G01*
G37*
G36*
G01*
X132470000Y33644999D02*
X133150000Y33644999D01*
G75*
G02*
X133235000Y33559999I0J-85000D01*
G01*
X133235000Y32879999D01*
G75*
G02*
X133150000Y32794999I-85000J0D01*
G01*
X132470000Y32794999D01*
G75*
G02*
X132385000Y32879999I0J85000D01*
G01*
X132385000Y33559999D01*
G75*
G02*
X132470000Y33644999I85000J0D01*
G01*
G37*
G04 #@! TD*
G04 #@! TO.C,C29*
G36*
G01*
X90094999Y76752023D02*
X90094999Y77432023D01*
G75*
G02*
X90179999Y77517023I85000J0D01*
G01*
X90859999Y77517023D01*
G75*
G02*
X90944999Y77432023I0J-85000D01*
G01*
X90944999Y76752023D01*
G75*
G02*
X90859999Y76667023I-85000J0D01*
G01*
X90179999Y76667023D01*
G75*
G02*
X90094999Y76752023I0J85000D01*
G01*
G37*
G36*
G01*
X91675001Y76752023D02*
X91675001Y77432023D01*
G75*
G02*
X91760001Y77517023I85000J0D01*
G01*
X92440001Y77517023D01*
G75*
G02*
X92525001Y77432023I0J-85000D01*
G01*
X92525001Y76752023D01*
G75*
G02*
X92440001Y76667023I-85000J0D01*
G01*
X91760001Y76667023D01*
G75*
G02*
X91675001Y76752023I0J85000D01*
G01*
G37*
G04 #@! TD*
G04 #@! TO.C,R34*
G36*
G01*
X38707513Y52180000D02*
X38707513Y52960000D01*
G75*
G02*
X38777513Y53030000I70000J0D01*
G01*
X39337513Y53030000D01*
G75*
G02*
X39407513Y52960000I0J-70000D01*
G01*
X39407513Y52180000D01*
G75*
G02*
X39337513Y52110000I-70000J0D01*
G01*
X38777513Y52110000D01*
G75*
G02*
X38707513Y52180000I0J70000D01*
G01*
G37*
G36*
G01*
X40307513Y52180000D02*
X40307513Y52960000D01*
G75*
G02*
X40377513Y53030000I70000J0D01*
G01*
X40937513Y53030000D01*
G75*
G02*
X41007513Y52960000I0J-70000D01*
G01*
X41007513Y52180000D01*
G75*
G02*
X40937513Y52110000I-70000J0D01*
G01*
X40377513Y52110000D01*
G75*
G02*
X40307513Y52180000I0J70000D01*
G01*
G37*
G04 #@! TD*
G04 #@! TO.C,R1*
G36*
G01*
X10797513Y28730000D02*
X10017513Y28730000D01*
G75*
G02*
X9947513Y28800000I0J70000D01*
G01*
X9947513Y29360000D01*
G75*
G02*
X10017513Y29430000I70000J0D01*
G01*
X10797513Y29430000D01*
G75*
G02*
X10867513Y29360000I0J-70000D01*
G01*
X10867513Y28800000D01*
G75*
G02*
X10797513Y28730000I-70000J0D01*
G01*
G37*
G36*
G01*
X10797513Y30330000D02*
X10017513Y30330000D01*
G75*
G02*
X9947513Y30400000I0J70000D01*
G01*
X9947513Y30960000D01*
G75*
G02*
X10017513Y31030000I70000J0D01*
G01*
X10797513Y31030000D01*
G75*
G02*
X10867513Y30960000I0J-70000D01*
G01*
X10867513Y30400000D01*
G75*
G02*
X10797513Y30330000I-70000J0D01*
G01*
G37*
G04 #@! TD*
G04 #@! TO.C,C17*
G36*
G01*
X51885000Y11010000D02*
X52935000Y11010000D01*
G75*
G02*
X53035000Y10910000I0J-100000D01*
G01*
X53035000Y10110000D01*
G75*
G02*
X52935000Y10010000I-100000J0D01*
G01*
X51885000Y10010000D01*
G75*
G02*
X51785000Y10110000I0J100000D01*
G01*
X51785000Y10910000D01*
G75*
G02*
X51885000Y11010000I100000J0D01*
G01*
G37*
G36*
G01*
X51885000Y9010000D02*
X52935000Y9010000D01*
G75*
G02*
X53035000Y8910000I0J-100000D01*
G01*
X53035000Y8110000D01*
G75*
G02*
X52935000Y8010000I-100000J0D01*
G01*
X51885000Y8010000D01*
G75*
G02*
X51785000Y8110000I0J100000D01*
G01*
X51785000Y8910000D01*
G75*
G02*
X51885000Y9010000I100000J0D01*
G01*
G37*
G04 #@! TD*
G04 #@! TO.C,C3*
G36*
G01*
X43410000Y20470000D02*
X44460000Y20470000D01*
G75*
G02*
X44560000Y20370000I0J-100000D01*
G01*
X44560000Y19570000D01*
G75*
G02*
X44460000Y19470000I-100000J0D01*
G01*
X43410000Y19470000D01*
G75*
G02*
X43310000Y19570000I0J100000D01*
G01*
X43310000Y20370000D01*
G75*
G02*
X43410000Y20470000I100000J0D01*
G01*
G37*
G36*
G01*
X43410000Y18470000D02*
X44460000Y18470000D01*
G75*
G02*
X44560000Y18370000I0J-100000D01*
G01*
X44560000Y17570000D01*
G75*
G02*
X44460000Y17470000I-100000J0D01*
G01*
X43410000Y17470000D01*
G75*
G02*
X43310000Y17570000I0J100000D01*
G01*
X43310000Y18370000D01*
G75*
G02*
X43410000Y18470000I100000J0D01*
G01*
G37*
G04 #@! TD*
G04 #@! TO.C,C23*
G36*
G01*
X54935000Y4010000D02*
X53885000Y4010000D01*
G75*
G02*
X53785000Y4110000I0J100000D01*
G01*
X53785000Y4910000D01*
G75*
G02*
X53885000Y5010000I100000J0D01*
G01*
X54935000Y5010000D01*
G75*
G02*
X55035000Y4910000I0J-100000D01*
G01*
X55035000Y4110000D01*
G75*
G02*
X54935000Y4010000I-100000J0D01*
G01*
G37*
G36*
G01*
X54935000Y6010000D02*
X53885000Y6010000D01*
G75*
G02*
X53785000Y6110000I0J100000D01*
G01*
X53785000Y6910000D01*
G75*
G02*
X53885000Y7010000I100000J0D01*
G01*
X54935000Y7010000D01*
G75*
G02*
X55035000Y6910000I0J-100000D01*
G01*
X55035000Y6110000D01*
G75*
G02*
X54935000Y6010000I-100000J0D01*
G01*
G37*
G04 #@! TD*
G04 #@! TO.C,U4*
G36*
G01*
X89255000Y75260000D02*
X89555000Y75260000D01*
G75*
G02*
X89705000Y75110000I0J-150000D01*
G01*
X89705000Y73460000D01*
G75*
G02*
X89555000Y73310000I-150000J0D01*
G01*
X89255000Y73310000D01*
G75*
G02*
X89105000Y73460000I0J150000D01*
G01*
X89105000Y75110000D01*
G75*
G02*
X89255000Y75260000I150000J0D01*
G01*
G37*
G36*
G01*
X90525000Y75260000D02*
X90825000Y75260000D01*
G75*
G02*
X90975000Y75110000I0J-150000D01*
G01*
X90975000Y73460000D01*
G75*
G02*
X90825000Y73310000I-150000J0D01*
G01*
X90525000Y73310000D01*
G75*
G02*
X90375000Y73460000I0J150000D01*
G01*
X90375000Y75110000D01*
G75*
G02*
X90525000Y75260000I150000J0D01*
G01*
G37*
G36*
G01*
X91795000Y75260000D02*
X92095000Y75260000D01*
G75*
G02*
X92245000Y75110000I0J-150000D01*
G01*
X92245000Y73460000D01*
G75*
G02*
X92095000Y73310000I-150000J0D01*
G01*
X91795000Y73310000D01*
G75*
G02*
X91645000Y73460000I0J150000D01*
G01*
X91645000Y75110000D01*
G75*
G02*
X91795000Y75260000I150000J0D01*
G01*
G37*
G36*
G01*
X93065000Y75260000D02*
X93365000Y75260000D01*
G75*
G02*
X93515000Y75110000I0J-150000D01*
G01*
X93515000Y73460000D01*
G75*
G02*
X93365000Y73310000I-150000J0D01*
G01*
X93065000Y73310000D01*
G75*
G02*
X92915000Y73460000I0J150000D01*
G01*
X92915000Y75110000D01*
G75*
G02*
X93065000Y75260000I150000J0D01*
G01*
G37*
G36*
G01*
X93065000Y70310000D02*
X93365000Y70310000D01*
G75*
G02*
X93515000Y70160000I0J-150000D01*
G01*
X93515000Y68510000D01*
G75*
G02*
X93365000Y68360000I-150000J0D01*
G01*
X93065000Y68360000D01*
G75*
G02*
X92915000Y68510000I0J150000D01*
G01*
X92915000Y70160000D01*
G75*
G02*
X93065000Y70310000I150000J0D01*
G01*
G37*
G36*
G01*
X91795000Y70310000D02*
X92095000Y70310000D01*
G75*
G02*
X92245000Y70160000I0J-150000D01*
G01*
X92245000Y68510000D01*
G75*
G02*
X92095000Y68360000I-150000J0D01*
G01*
X91795000Y68360000D01*
G75*
G02*
X91645000Y68510000I0J150000D01*
G01*
X91645000Y70160000D01*
G75*
G02*
X91795000Y70310000I150000J0D01*
G01*
G37*
G36*
G01*
X90525000Y70310000D02*
X90825000Y70310000D01*
G75*
G02*
X90975000Y70160000I0J-150000D01*
G01*
X90975000Y68510000D01*
G75*
G02*
X90825000Y68360000I-150000J0D01*
G01*
X90525000Y68360000D01*
G75*
G02*
X90375000Y68510000I0J150000D01*
G01*
X90375000Y70160000D01*
G75*
G02*
X90525000Y70310000I150000J0D01*
G01*
G37*
G36*
G01*
X89255000Y70310000D02*
X89555000Y70310000D01*
G75*
G02*
X89705000Y70160000I0J-150000D01*
G01*
X89705000Y68510000D01*
G75*
G02*
X89555000Y68360000I-150000J0D01*
G01*
X89255000Y68360000D01*
G75*
G02*
X89105000Y68510000I0J150000D01*
G01*
X89105000Y70160000D01*
G75*
G02*
X89255000Y70310000I150000J0D01*
G01*
G37*
G04 #@! TD*
G04 #@! TO.C,C1*
G36*
G01*
X39410000Y20470000D02*
X40460000Y20470000D01*
G75*
G02*
X40560000Y20370000I0J-100000D01*
G01*
X40560000Y19570000D01*
G75*
G02*
X40460000Y19470000I-100000J0D01*
G01*
X39410000Y19470000D01*
G75*
G02*
X39310000Y19570000I0J100000D01*
G01*
X39310000Y20370000D01*
G75*
G02*
X39410000Y20470000I100000J0D01*
G01*
G37*
G36*
G01*
X39410000Y18470000D02*
X40460000Y18470000D01*
G75*
G02*
X40560000Y18370000I0J-100000D01*
G01*
X40560000Y17570000D01*
G75*
G02*
X40460000Y17470000I-100000J0D01*
G01*
X39410000Y17470000D01*
G75*
G02*
X39310000Y17570000I0J100000D01*
G01*
X39310000Y18370000D01*
G75*
G02*
X39410000Y18470000I100000J0D01*
G01*
G37*
G04 #@! TD*
G04 #@! TO.C,U11*
G36*
G01*
X44077513Y58055000D02*
X44077513Y57755000D01*
G75*
G02*
X43927513Y57605000I-150000J0D01*
G01*
X42277513Y57605000D01*
G75*
G02*
X42127513Y57755000I0J150000D01*
G01*
X42127513Y58055000D01*
G75*
G02*
X42277513Y58205000I150000J0D01*
G01*
X43927513Y58205000D01*
G75*
G02*
X44077513Y58055000I0J-150000D01*
G01*
G37*
G36*
G01*
X44077513Y56785000D02*
X44077513Y56485000D01*
G75*
G02*
X43927513Y56335000I-150000J0D01*
G01*
X42277513Y56335000D01*
G75*
G02*
X42127513Y56485000I0J150000D01*
G01*
X42127513Y56785000D01*
G75*
G02*
X42277513Y56935000I150000J0D01*
G01*
X43927513Y56935000D01*
G75*
G02*
X44077513Y56785000I0J-150000D01*
G01*
G37*
G36*
G01*
X44077513Y55515000D02*
X44077513Y55215000D01*
G75*
G02*
X43927513Y55065000I-150000J0D01*
G01*
X42277513Y55065000D01*
G75*
G02*
X42127513Y55215000I0J150000D01*
G01*
X42127513Y55515000D01*
G75*
G02*
X42277513Y55665000I150000J0D01*
G01*
X43927513Y55665000D01*
G75*
G02*
X44077513Y55515000I0J-150000D01*
G01*
G37*
G36*
G01*
X44077513Y54245000D02*
X44077513Y53945000D01*
G75*
G02*
X43927513Y53795000I-150000J0D01*
G01*
X42277513Y53795000D01*
G75*
G02*
X42127513Y53945000I0J150000D01*
G01*
X42127513Y54245000D01*
G75*
G02*
X42277513Y54395000I150000J0D01*
G01*
X43927513Y54395000D01*
G75*
G02*
X44077513Y54245000I0J-150000D01*
G01*
G37*
G36*
G01*
X39127513Y54245000D02*
X39127513Y53945000D01*
G75*
G02*
X38977513Y53795000I-150000J0D01*
G01*
X37327513Y53795000D01*
G75*
G02*
X37177513Y53945000I0J150000D01*
G01*
X37177513Y54245000D01*
G75*
G02*
X37327513Y54395000I150000J0D01*
G01*
X38977513Y54395000D01*
G75*
G02*
X39127513Y54245000I0J-150000D01*
G01*
G37*
G36*
G01*
X39127513Y55515000D02*
X39127513Y55215000D01*
G75*
G02*
X38977513Y55065000I-150000J0D01*
G01*
X37327513Y55065000D01*
G75*
G02*
X37177513Y55215000I0J150000D01*
G01*
X37177513Y55515000D01*
G75*
G02*
X37327513Y55665000I150000J0D01*
G01*
X38977513Y55665000D01*
G75*
G02*
X39127513Y55515000I0J-150000D01*
G01*
G37*
G36*
G01*
X39127513Y56785000D02*
X39127513Y56485000D01*
G75*
G02*
X38977513Y56335000I-150000J0D01*
G01*
X37327513Y56335000D01*
G75*
G02*
X37177513Y56485000I0J150000D01*
G01*
X37177513Y56785000D01*
G75*
G02*
X37327513Y56935000I150000J0D01*
G01*
X38977513Y56935000D01*
G75*
G02*
X39127513Y56785000I0J-150000D01*
G01*
G37*
G36*
G01*
X39127513Y58055000D02*
X39127513Y57755000D01*
G75*
G02*
X38977513Y57605000I-150000J0D01*
G01*
X37327513Y57605000D01*
G75*
G02*
X37177513Y57755000I0J150000D01*
G01*
X37177513Y58055000D01*
G75*
G02*
X37327513Y58205000I150000J0D01*
G01*
X38977513Y58205000D01*
G75*
G02*
X39127513Y58055000I0J-150000D01*
G01*
G37*
G04 #@! TD*
G04 #@! TO.C,C31*
G36*
G01*
X95750000Y72294999D02*
X95070000Y72294999D01*
G75*
G02*
X94985000Y72379999I0J85000D01*
G01*
X94985000Y73059999D01*
G75*
G02*
X95070000Y73144999I85000J0D01*
G01*
X95750000Y73144999D01*
G75*
G02*
X95835000Y73059999I0J-85000D01*
G01*
X95835000Y72379999D01*
G75*
G02*
X95750000Y72294999I-85000J0D01*
G01*
G37*
G36*
G01*
X95750000Y73875001D02*
X95070000Y73875001D01*
G75*
G02*
X94985000Y73960001I0J85000D01*
G01*
X94985000Y74640001D01*
G75*
G02*
X95070000Y74725001I85000J0D01*
G01*
X95750000Y74725001D01*
G75*
G02*
X95835000Y74640001I0J-85000D01*
G01*
X95835000Y73960001D01*
G75*
G02*
X95750000Y73875001I-85000J0D01*
G01*
G37*
G04 #@! TD*
G04 #@! TO.C,C14*
G36*
G01*
X45885000Y11010000D02*
X46935000Y11010000D01*
G75*
G02*
X47035000Y10910000I0J-100000D01*
G01*
X47035000Y10110000D01*
G75*
G02*
X46935000Y10010000I-100000J0D01*
G01*
X45885000Y10010000D01*
G75*
G02*
X45785000Y10110000I0J100000D01*
G01*
X45785000Y10910000D01*
G75*
G02*
X45885000Y11010000I100000J0D01*
G01*
G37*
G36*
G01*
X45885000Y9010000D02*
X46935000Y9010000D01*
G75*
G02*
X47035000Y8910000I0J-100000D01*
G01*
X47035000Y8110000D01*
G75*
G02*
X46935000Y8010000I-100000J0D01*
G01*
X45885000Y8010000D01*
G75*
G02*
X45785000Y8110000I0J100000D01*
G01*
X45785000Y8910000D01*
G75*
G02*
X45885000Y9010000I100000J0D01*
G01*
G37*
G04 #@! TD*
G04 #@! TO.C,C19*
G36*
G01*
X46935000Y4010000D02*
X45885000Y4010000D01*
G75*
G02*
X45785000Y4110000I0J100000D01*
G01*
X45785000Y4910000D01*
G75*
G02*
X45885000Y5010000I100000J0D01*
G01*
X46935000Y5010000D01*
G75*
G02*
X47035000Y4910000I0J-100000D01*
G01*
X47035000Y4110000D01*
G75*
G02*
X46935000Y4010000I-100000J0D01*
G01*
G37*
G36*
G01*
X46935000Y6010000D02*
X45885000Y6010000D01*
G75*
G02*
X45785000Y6110000I0J100000D01*
G01*
X45785000Y6910000D01*
G75*
G02*
X45885000Y7010000I100000J0D01*
G01*
X46935000Y7010000D01*
G75*
G02*
X47035000Y6910000I0J-100000D01*
G01*
X47035000Y6110000D01*
G75*
G02*
X46935000Y6010000I-100000J0D01*
G01*
G37*
G04 #@! TD*
G04 #@! TO.C,C4*
G36*
G01*
X45410000Y20470000D02*
X46460000Y20470000D01*
G75*
G02*
X46560000Y20370000I0J-100000D01*
G01*
X46560000Y19570000D01*
G75*
G02*
X46460000Y19470000I-100000J0D01*
G01*
X45410000Y19470000D01*
G75*
G02*
X45310000Y19570000I0J100000D01*
G01*
X45310000Y20370000D01*
G75*
G02*
X45410000Y20470000I100000J0D01*
G01*
G37*
G36*
G01*
X45410000Y18470000D02*
X46460000Y18470000D01*
G75*
G02*
X46560000Y18370000I0J-100000D01*
G01*
X46560000Y17570000D01*
G75*
G02*
X46460000Y17470000I-100000J0D01*
G01*
X45410000Y17470000D01*
G75*
G02*
X45310000Y17570000I0J100000D01*
G01*
X45310000Y18370000D01*
G75*
G02*
X45410000Y18470000I100000J0D01*
G01*
G37*
G04 #@! TD*
G04 #@! TO.C,R10*
G36*
G01*
X54017513Y67960000D02*
X54017513Y67180000D01*
G75*
G02*
X53947513Y67110000I-70000J0D01*
G01*
X53387513Y67110000D01*
G75*
G02*
X53317513Y67180000I0J70000D01*
G01*
X53317513Y67960000D01*
G75*
G02*
X53387513Y68030000I70000J0D01*
G01*
X53947513Y68030000D01*
G75*
G02*
X54017513Y67960000I0J-70000D01*
G01*
G37*
G36*
G01*
X52417513Y67960000D02*
X52417513Y67180000D01*
G75*
G02*
X52347513Y67110000I-70000J0D01*
G01*
X51787513Y67110000D01*
G75*
G02*
X51717513Y67180000I0J70000D01*
G01*
X51717513Y67960000D01*
G75*
G02*
X51787513Y68030000I70000J0D01*
G01*
X52347513Y68030000D01*
G75*
G02*
X52417513Y67960000I0J-70000D01*
G01*
G37*
G04 #@! TD*
G04 #@! TO.C,D2*
G36*
G01*
X41917513Y66485000D02*
X40897513Y66485000D01*
G75*
G02*
X40807513Y66575000I0J90000D01*
G01*
X40807513Y67295000D01*
G75*
G02*
X40897513Y67385000I90000J0D01*
G01*
X41917513Y67385000D01*
G75*
G02*
X42007513Y67295000I0J-90000D01*
G01*
X42007513Y66575000D01*
G75*
G02*
X41917513Y66485000I-90000J0D01*
G01*
G37*
G36*
G01*
X41917513Y69785000D02*
X40897513Y69785000D01*
G75*
G02*
X40807513Y69875000I0J90000D01*
G01*
X40807513Y70595000D01*
G75*
G02*
X40897513Y70685000I90000J0D01*
G01*
X41917513Y70685000D01*
G75*
G02*
X42007513Y70595000I0J-90000D01*
G01*
X42007513Y69875000D01*
G75*
G02*
X41917513Y69785000I-90000J0D01*
G01*
G37*
G04 #@! TD*
G04 #@! TO.C,D1*
G36*
G01*
X122950000Y15710000D02*
X122470000Y15710000D01*
G75*
G02*
X122410000Y15770000I0J60000D01*
G01*
X122410000Y16250000D01*
G75*
G02*
X122470000Y16310000I60000J0D01*
G01*
X122950000Y16310000D01*
G75*
G02*
X123010000Y16250000I0J-60000D01*
G01*
X123010000Y15770000D01*
G75*
G02*
X122950000Y15710000I-60000J0D01*
G01*
G37*
G36*
G01*
X125150000Y15710000D02*
X124670000Y15710000D01*
G75*
G02*
X124610000Y15770000I0J60000D01*
G01*
X124610000Y16250000D01*
G75*
G02*
X124670000Y16310000I60000J0D01*
G01*
X125150000Y16310000D01*
G75*
G02*
X125210000Y16250000I0J-60000D01*
G01*
X125210000Y15770000D01*
G75*
G02*
X125150000Y15710000I-60000J0D01*
G01*
G37*
G04 #@! TD*
G04 #@! TO.C,R33*
G36*
G01*
X47027513Y58230000D02*
X47027513Y57450000D01*
G75*
G02*
X46957513Y57380000I-70000J0D01*
G01*
X46397513Y57380000D01*
G75*
G02*
X46327513Y57450000I0J70000D01*
G01*
X46327513Y58230000D01*
G75*
G02*
X46397513Y58300000I70000J0D01*
G01*
X46957513Y58300000D01*
G75*
G02*
X47027513Y58230000I0J-70000D01*
G01*
G37*
G36*
G01*
X45427513Y58230000D02*
X45427513Y57450000D01*
G75*
G02*
X45357513Y57380000I-70000J0D01*
G01*
X44797513Y57380000D01*
G75*
G02*
X44727513Y57450000I0J70000D01*
G01*
X44727513Y58230000D01*
G75*
G02*
X44797513Y58300000I70000J0D01*
G01*
X45357513Y58300000D01*
G75*
G02*
X45427513Y58230000I0J-70000D01*
G01*
G37*
G04 #@! TD*
G04 #@! TO.C,C21*
G36*
G01*
X50935000Y4010000D02*
X49885000Y4010000D01*
G75*
G02*
X49785000Y4110000I0J100000D01*
G01*
X49785000Y4910000D01*
G75*
G02*
X49885000Y5010000I100000J0D01*
G01*
X50935000Y5010000D01*
G75*
G02*
X51035000Y4910000I0J-100000D01*
G01*
X51035000Y4110000D01*
G75*
G02*
X50935000Y4010000I-100000J0D01*
G01*
G37*
G36*
G01*
X50935000Y6010000D02*
X49885000Y6010000D01*
G75*
G02*
X49785000Y6110000I0J100000D01*
G01*
X49785000Y6910000D01*
G75*
G02*
X49885000Y7010000I100000J0D01*
G01*
X50935000Y7010000D01*
G75*
G02*
X51035000Y6910000I0J-100000D01*
G01*
X51035000Y6110000D01*
G75*
G02*
X50935000Y6010000I-100000J0D01*
G01*
G37*
G04 #@! TD*
G04 #@! TO.C,R7*
G36*
G01*
X85200000Y3238318D02*
X84420000Y3238318D01*
G75*
G02*
X84350000Y3308318I0J70000D01*
G01*
X84350000Y3868318D01*
G75*
G02*
X84420000Y3938318I70000J0D01*
G01*
X85200000Y3938318D01*
G75*
G02*
X85270000Y3868318I0J-70000D01*
G01*
X85270000Y3308318D01*
G75*
G02*
X85200000Y3238318I-70000J0D01*
G01*
G37*
G36*
G01*
X85200000Y4838318D02*
X84420000Y4838318D01*
G75*
G02*
X84350000Y4908318I0J70000D01*
G01*
X84350000Y5468318D01*
G75*
G02*
X84420000Y5538318I70000J0D01*
G01*
X85200000Y5538318D01*
G75*
G02*
X85270000Y5468318I0J-70000D01*
G01*
X85270000Y4908318D01*
G75*
G02*
X85200000Y4838318I-70000J0D01*
G01*
G37*
G04 #@! TD*
G04 #@! TO.C,C32*
G36*
G01*
X97550000Y72294999D02*
X96870000Y72294999D01*
G75*
G02*
X96785000Y72379999I0J85000D01*
G01*
X96785000Y73059999D01*
G75*
G02*
X96870000Y73144999I85000J0D01*
G01*
X97550000Y73144999D01*
G75*
G02*
X97635000Y73059999I0J-85000D01*
G01*
X97635000Y72379999D01*
G75*
G02*
X97550000Y72294999I-85000J0D01*
G01*
G37*
G36*
G01*
X97550000Y73875001D02*
X96870000Y73875001D01*
G75*
G02*
X96785000Y73960001I0J85000D01*
G01*
X96785000Y74640001D01*
G75*
G02*
X96870000Y74725001I85000J0D01*
G01*
X97550000Y74725001D01*
G75*
G02*
X97635000Y74640001I0J-85000D01*
G01*
X97635000Y73960001D01*
G75*
G02*
X97550000Y73875001I-85000J0D01*
G01*
G37*
G04 #@! TD*
G04 #@! TO.C,R16*
G36*
G01*
X41250000Y88710000D02*
X40470000Y88710000D01*
G75*
G02*
X40400000Y88780000I0J70000D01*
G01*
X40400000Y89340000D01*
G75*
G02*
X40470000Y89410000I70000J0D01*
G01*
X41250000Y89410000D01*
G75*
G02*
X41320000Y89340000I0J-70000D01*
G01*
X41320000Y88780000D01*
G75*
G02*
X41250000Y88710000I-70000J0D01*
G01*
G37*
G36*
G01*
X41250000Y90310000D02*
X40470000Y90310000D01*
G75*
G02*
X40400000Y90380000I0J70000D01*
G01*
X40400000Y90940000D01*
G75*
G02*
X40470000Y91010000I70000J0D01*
G01*
X41250000Y91010000D01*
G75*
G02*
X41320000Y90940000I0J-70000D01*
G01*
X41320000Y90380000D01*
G75*
G02*
X41250000Y90310000I-70000J0D01*
G01*
G37*
G04 #@! TD*
G04 #@! TO.C,U9*
G36*
G01*
X44077513Y41055000D02*
X44077513Y40755000D01*
G75*
G02*
X43927513Y40605000I-150000J0D01*
G01*
X42277513Y40605000D01*
G75*
G02*
X42127513Y40755000I0J150000D01*
G01*
X42127513Y41055000D01*
G75*
G02*
X42277513Y41205000I150000J0D01*
G01*
X43927513Y41205000D01*
G75*
G02*
X44077513Y41055000I0J-150000D01*
G01*
G37*
G36*
G01*
X44077513Y39785000D02*
X44077513Y39485000D01*
G75*
G02*
X43927513Y39335000I-150000J0D01*
G01*
X42277513Y39335000D01*
G75*
G02*
X42127513Y39485000I0J150000D01*
G01*
X42127513Y39785000D01*
G75*
G02*
X42277513Y39935000I150000J0D01*
G01*
X43927513Y39935000D01*
G75*
G02*
X44077513Y39785000I0J-150000D01*
G01*
G37*
G36*
G01*
X44077513Y38515000D02*
X44077513Y38215000D01*
G75*
G02*
X43927513Y38065000I-150000J0D01*
G01*
X42277513Y38065000D01*
G75*
G02*
X42127513Y38215000I0J150000D01*
G01*
X42127513Y38515000D01*
G75*
G02*
X42277513Y38665000I150000J0D01*
G01*
X43927513Y38665000D01*
G75*
G02*
X44077513Y38515000I0J-150000D01*
G01*
G37*
G36*
G01*
X44077513Y37245000D02*
X44077513Y36945000D01*
G75*
G02*
X43927513Y36795000I-150000J0D01*
G01*
X42277513Y36795000D01*
G75*
G02*
X42127513Y36945000I0J150000D01*
G01*
X42127513Y37245000D01*
G75*
G02*
X42277513Y37395000I150000J0D01*
G01*
X43927513Y37395000D01*
G75*
G02*
X44077513Y37245000I0J-150000D01*
G01*
G37*
G36*
G01*
X39127513Y37245000D02*
X39127513Y36945000D01*
G75*
G02*
X38977513Y36795000I-150000J0D01*
G01*
X37327513Y36795000D01*
G75*
G02*
X37177513Y36945000I0J150000D01*
G01*
X37177513Y37245000D01*
G75*
G02*
X37327513Y37395000I150000J0D01*
G01*
X38977513Y37395000D01*
G75*
G02*
X39127513Y37245000I0J-150000D01*
G01*
G37*
G36*
G01*
X39127513Y38515000D02*
X39127513Y38215000D01*
G75*
G02*
X38977513Y38065000I-150000J0D01*
G01*
X37327513Y38065000D01*
G75*
G02*
X37177513Y38215000I0J150000D01*
G01*
X37177513Y38515000D01*
G75*
G02*
X37327513Y38665000I150000J0D01*
G01*
X38977513Y38665000D01*
G75*
G02*
X39127513Y38515000I0J-150000D01*
G01*
G37*
G36*
G01*
X39127513Y39785000D02*
X39127513Y39485000D01*
G75*
G02*
X38977513Y39335000I-150000J0D01*
G01*
X37327513Y39335000D01*
G75*
G02*
X37177513Y39485000I0J150000D01*
G01*
X37177513Y39785000D01*
G75*
G02*
X37327513Y39935000I150000J0D01*
G01*
X38977513Y39935000D01*
G75*
G02*
X39127513Y39785000I0J-150000D01*
G01*
G37*
G36*
G01*
X39127513Y41055000D02*
X39127513Y40755000D01*
G75*
G02*
X38977513Y40605000I-150000J0D01*
G01*
X37327513Y40605000D01*
G75*
G02*
X37177513Y40755000I0J150000D01*
G01*
X37177513Y41055000D01*
G75*
G02*
X37327513Y41205000I150000J0D01*
G01*
X38977513Y41205000D01*
G75*
G02*
X39127513Y41055000I0J-150000D01*
G01*
G37*
G04 #@! TD*
G04 #@! TO.C,R30*
G36*
G01*
X39377513Y35250000D02*
X39377513Y36030000D01*
G75*
G02*
X39447513Y36100000I70000J0D01*
G01*
X40007513Y36100000D01*
G75*
G02*
X40077513Y36030000I0J-70000D01*
G01*
X40077513Y35250000D01*
G75*
G02*
X40007513Y35180000I-70000J0D01*
G01*
X39447513Y35180000D01*
G75*
G02*
X39377513Y35250000I0J70000D01*
G01*
G37*
G36*
G01*
X40977513Y35250000D02*
X40977513Y36030000D01*
G75*
G02*
X41047513Y36100000I70000J0D01*
G01*
X41607513Y36100000D01*
G75*
G02*
X41677513Y36030000I0J-70000D01*
G01*
X41677513Y35250000D01*
G75*
G02*
X41607513Y35180000I-70000J0D01*
G01*
X41047513Y35180000D01*
G75*
G02*
X40977513Y35250000I0J70000D01*
G01*
G37*
G04 #@! TD*
G04 #@! TO.C,L2*
G36*
G01*
X90053750Y86235000D02*
X90566250Y86235000D01*
G75*
G02*
X90785000Y86016250I0J-218750D01*
G01*
X90785000Y85578750D01*
G75*
G02*
X90566250Y85360000I-218750J0D01*
G01*
X90053750Y85360000D01*
G75*
G02*
X89835000Y85578750I0J218750D01*
G01*
X89835000Y86016250D01*
G75*
G02*
X90053750Y86235000I218750J0D01*
G01*
G37*
G36*
G01*
X90053750Y84660000D02*
X90566250Y84660000D01*
G75*
G02*
X90785000Y84441250I0J-218750D01*
G01*
X90785000Y84003750D01*
G75*
G02*
X90566250Y83785000I-218750J0D01*
G01*
X90053750Y83785000D01*
G75*
G02*
X89835000Y84003750I0J218750D01*
G01*
X89835000Y84441250D01*
G75*
G02*
X90053750Y84660000I218750J0D01*
G01*
G37*
G04 #@! TD*
G04 #@! TO.C,C16*
G36*
G01*
X49885000Y11010000D02*
X50935000Y11010000D01*
G75*
G02*
X51035000Y10910000I0J-100000D01*
G01*
X51035000Y10110000D01*
G75*
G02*
X50935000Y10010000I-100000J0D01*
G01*
X49885000Y10010000D01*
G75*
G02*
X49785000Y10110000I0J100000D01*
G01*
X49785000Y10910000D01*
G75*
G02*
X49885000Y11010000I100000J0D01*
G01*
G37*
G36*
G01*
X49885000Y9010000D02*
X50935000Y9010000D01*
G75*
G02*
X51035000Y8910000I0J-100000D01*
G01*
X51035000Y8110000D01*
G75*
G02*
X50935000Y8010000I-100000J0D01*
G01*
X49885000Y8010000D01*
G75*
G02*
X49785000Y8110000I0J100000D01*
G01*
X49785000Y8910000D01*
G75*
G02*
X49885000Y9010000I100000J0D01*
G01*
G37*
G04 #@! TD*
G04 #@! TO.C,C22*
G36*
G01*
X52935000Y4010000D02*
X51885000Y4010000D01*
G75*
G02*
X51785000Y4110000I0J100000D01*
G01*
X51785000Y4910000D01*
G75*
G02*
X51885000Y5010000I100000J0D01*
G01*
X52935000Y5010000D01*
G75*
G02*
X53035000Y4910000I0J-100000D01*
G01*
X53035000Y4110000D01*
G75*
G02*
X52935000Y4010000I-100000J0D01*
G01*
G37*
G36*
G01*
X52935000Y6010000D02*
X51885000Y6010000D01*
G75*
G02*
X51785000Y6110000I0J100000D01*
G01*
X51785000Y6910000D01*
G75*
G02*
X51885000Y7010000I100000J0D01*
G01*
X52935000Y7010000D01*
G75*
G02*
X53035000Y6910000I0J-100000D01*
G01*
X53035000Y6110000D01*
G75*
G02*
X52935000Y6010000I-100000J0D01*
G01*
G37*
G04 #@! TD*
G04 #@! TO.C,R8*
G36*
G01*
X87700000Y3238318D02*
X86920000Y3238318D01*
G75*
G02*
X86850000Y3308318I0J70000D01*
G01*
X86850000Y3868318D01*
G75*
G02*
X86920000Y3938318I70000J0D01*
G01*
X87700000Y3938318D01*
G75*
G02*
X87770000Y3868318I0J-70000D01*
G01*
X87770000Y3308318D01*
G75*
G02*
X87700000Y3238318I-70000J0D01*
G01*
G37*
G36*
G01*
X87700000Y4838318D02*
X86920000Y4838318D01*
G75*
G02*
X86850000Y4908318I0J70000D01*
G01*
X86850000Y5468318D01*
G75*
G02*
X86920000Y5538318I70000J0D01*
G01*
X87700000Y5538318D01*
G75*
G02*
X87770000Y5468318I0J-70000D01*
G01*
X87770000Y4908318D01*
G75*
G02*
X87700000Y4838318I-70000J0D01*
G01*
G37*
G04 #@! TD*
G04 #@! TO.C,R3*
G36*
G01*
X52200000Y16860000D02*
X51420000Y16860000D01*
G75*
G02*
X51350000Y16930000I0J70000D01*
G01*
X51350000Y17490000D01*
G75*
G02*
X51420000Y17560000I70000J0D01*
G01*
X52200000Y17560000D01*
G75*
G02*
X52270000Y17490000I0J-70000D01*
G01*
X52270000Y16930000D01*
G75*
G02*
X52200000Y16860000I-70000J0D01*
G01*
G37*
G36*
G01*
X52200000Y18460000D02*
X51420000Y18460000D01*
G75*
G02*
X51350000Y18530000I0J70000D01*
G01*
X51350000Y19090000D01*
G75*
G02*
X51420000Y19160000I70000J0D01*
G01*
X52200000Y19160000D01*
G75*
G02*
X52270000Y19090000I0J-70000D01*
G01*
X52270000Y18530000D01*
G75*
G02*
X52200000Y18460000I-70000J0D01*
G01*
G37*
G04 #@! TD*
G04 #@! TO.C,R15*
G36*
G01*
X38700000Y88710000D02*
X37920000Y88710000D01*
G75*
G02*
X37850000Y88780000I0J70000D01*
G01*
X37850000Y89340000D01*
G75*
G02*
X37920000Y89410000I70000J0D01*
G01*
X38700000Y89410000D01*
G75*
G02*
X38770000Y89340000I0J-70000D01*
G01*
X38770000Y88780000D01*
G75*
G02*
X38700000Y88710000I-70000J0D01*
G01*
G37*
G36*
G01*
X38700000Y90310000D02*
X37920000Y90310000D01*
G75*
G02*
X37850000Y90380000I0J70000D01*
G01*
X37850000Y90940000D01*
G75*
G02*
X37920000Y91010000I70000J0D01*
G01*
X38700000Y91010000D01*
G75*
G02*
X38770000Y90940000I0J-70000D01*
G01*
X38770000Y90380000D01*
G75*
G02*
X38700000Y90310000I-70000J0D01*
G01*
G37*
G04 #@! TD*
G04 #@! TO.C,R13*
G36*
G01*
X52517513Y26350000D02*
X51737513Y26350000D01*
G75*
G02*
X51667513Y26420000I0J70000D01*
G01*
X51667513Y26980000D01*
G75*
G02*
X51737513Y27050000I70000J0D01*
G01*
X52517513Y27050000D01*
G75*
G02*
X52587513Y26980000I0J-70000D01*
G01*
X52587513Y26420000D01*
G75*
G02*
X52517513Y26350000I-70000J0D01*
G01*
G37*
G36*
G01*
X52517513Y27950000D02*
X51737513Y27950000D01*
G75*
G02*
X51667513Y28020000I0J70000D01*
G01*
X51667513Y28580000D01*
G75*
G02*
X51737513Y28650000I70000J0D01*
G01*
X52517513Y28650000D01*
G75*
G02*
X52587513Y28580000I0J-70000D01*
G01*
X52587513Y28020000D01*
G75*
G02*
X52517513Y27950000I-70000J0D01*
G01*
G37*
G04 #@! TD*
G04 #@! TO.C,R11*
G36*
G01*
X46157513Y61590000D02*
X46157513Y62370000D01*
G75*
G02*
X46227513Y62440000I70000J0D01*
G01*
X46787513Y62440000D01*
G75*
G02*
X46857513Y62370000I0J-70000D01*
G01*
X46857513Y61590000D01*
G75*
G02*
X46787513Y61520000I-70000J0D01*
G01*
X46227513Y61520000D01*
G75*
G02*
X46157513Y61590000I0J70000D01*
G01*
G37*
G36*
G01*
X47757513Y61590000D02*
X47757513Y62370000D01*
G75*
G02*
X47827513Y62440000I70000J0D01*
G01*
X48387513Y62440000D01*
G75*
G02*
X48457513Y62370000I0J-70000D01*
G01*
X48457513Y61590000D01*
G75*
G02*
X48387513Y61520000I-70000J0D01*
G01*
X47827513Y61520000D01*
G75*
G02*
X47757513Y61590000I0J70000D01*
G01*
G37*
G04 #@! TD*
G04 #@! TO.C,D3*
G36*
G01*
X40877513Y63880000D02*
X41897513Y63880000D01*
G75*
G02*
X41987513Y63790000I0J-90000D01*
G01*
X41987513Y63070000D01*
G75*
G02*
X41897513Y62980000I-90000J0D01*
G01*
X40877513Y62980000D01*
G75*
G02*
X40787513Y63070000I0J90000D01*
G01*
X40787513Y63790000D01*
G75*
G02*
X40877513Y63880000I90000J0D01*
G01*
G37*
G36*
G01*
X40877513Y60580000D02*
X41897513Y60580000D01*
G75*
G02*
X41987513Y60490000I0J-90000D01*
G01*
X41987513Y59770000D01*
G75*
G02*
X41897513Y59680000I-90000J0D01*
G01*
X40877513Y59680000D01*
G75*
G02*
X40787513Y59770000I0J90000D01*
G01*
X40787513Y60490000D01*
G75*
G02*
X40877513Y60580000I90000J0D01*
G01*
G37*
G04 #@! TD*
G04 #@! TO.C,C5*
G36*
G01*
X47410000Y20470000D02*
X48460000Y20470000D01*
G75*
G02*
X48560000Y20370000I0J-100000D01*
G01*
X48560000Y19570000D01*
G75*
G02*
X48460000Y19470000I-100000J0D01*
G01*
X47410000Y19470000D01*
G75*
G02*
X47310000Y19570000I0J100000D01*
G01*
X47310000Y20370000D01*
G75*
G02*
X47410000Y20470000I100000J0D01*
G01*
G37*
G36*
G01*
X47410000Y18470000D02*
X48460000Y18470000D01*
G75*
G02*
X48560000Y18370000I0J-100000D01*
G01*
X48560000Y17570000D01*
G75*
G02*
X48460000Y17470000I-100000J0D01*
G01*
X47410000Y17470000D01*
G75*
G02*
X47310000Y17570000I0J100000D01*
G01*
X47310000Y18370000D01*
G75*
G02*
X47410000Y18470000I100000J0D01*
G01*
G37*
G04 #@! TD*
G04 #@! TO.C,R32*
G36*
G01*
X39197513Y43780000D02*
X39197513Y44560000D01*
G75*
G02*
X39267513Y44630000I70000J0D01*
G01*
X39827513Y44630000D01*
G75*
G02*
X39897513Y44560000I0J-70000D01*
G01*
X39897513Y43780000D01*
G75*
G02*
X39827513Y43710000I-70000J0D01*
G01*
X39267513Y43710000D01*
G75*
G02*
X39197513Y43780000I0J70000D01*
G01*
G37*
G36*
G01*
X40797513Y43780000D02*
X40797513Y44560000D01*
G75*
G02*
X40867513Y44630000I70000J0D01*
G01*
X41427513Y44630000D01*
G75*
G02*
X41497513Y44560000I0J-70000D01*
G01*
X41497513Y43780000D01*
G75*
G02*
X41427513Y43710000I-70000J0D01*
G01*
X40867513Y43710000D01*
G75*
G02*
X40797513Y43780000I0J70000D01*
G01*
G37*
G04 #@! TD*
G04 #@! TO.C,C28*
G36*
G01*
X88394999Y82270000D02*
X88394999Y82950000D01*
G75*
G02*
X88479999Y83035000I85000J0D01*
G01*
X89159999Y83035000D01*
G75*
G02*
X89244999Y82950000I0J-85000D01*
G01*
X89244999Y82270000D01*
G75*
G02*
X89159999Y82185000I-85000J0D01*
G01*
X88479999Y82185000D01*
G75*
G02*
X88394999Y82270000I0J85000D01*
G01*
G37*
G36*
G01*
X89975001Y82270000D02*
X89975001Y82950000D01*
G75*
G02*
X90060001Y83035000I85000J0D01*
G01*
X90740001Y83035000D01*
G75*
G02*
X90825001Y82950000I0J-85000D01*
G01*
X90825001Y82270000D01*
G75*
G02*
X90740001Y82185000I-85000J0D01*
G01*
X90060001Y82185000D01*
G75*
G02*
X89975001Y82270000I0J85000D01*
G01*
G37*
G04 #@! TD*
G04 #@! TO.C,U6*
G36*
G01*
X38190000Y87735000D02*
X38490000Y87735000D01*
G75*
G02*
X38640000Y87585000I0J-150000D01*
G01*
X38640000Y85935000D01*
G75*
G02*
X38490000Y85785000I-150000J0D01*
G01*
X38190000Y85785000D01*
G75*
G02*
X38040000Y85935000I0J150000D01*
G01*
X38040000Y87585000D01*
G75*
G02*
X38190000Y87735000I150000J0D01*
G01*
G37*
G36*
G01*
X39460000Y87735000D02*
X39760000Y87735000D01*
G75*
G02*
X39910000Y87585000I0J-150000D01*
G01*
X39910000Y85935000D01*
G75*
G02*
X39760000Y85785000I-150000J0D01*
G01*
X39460000Y85785000D01*
G75*
G02*
X39310000Y85935000I0J150000D01*
G01*
X39310000Y87585000D01*
G75*
G02*
X39460000Y87735000I150000J0D01*
G01*
G37*
G36*
G01*
X40730000Y87735000D02*
X41030000Y87735000D01*
G75*
G02*
X41180000Y87585000I0J-150000D01*
G01*
X41180000Y85935000D01*
G75*
G02*
X41030000Y85785000I-150000J0D01*
G01*
X40730000Y85785000D01*
G75*
G02*
X40580000Y85935000I0J150000D01*
G01*
X40580000Y87585000D01*
G75*
G02*
X40730000Y87735000I150000J0D01*
G01*
G37*
G36*
G01*
X42000000Y87735000D02*
X42300000Y87735000D01*
G75*
G02*
X42450000Y87585000I0J-150000D01*
G01*
X42450000Y85935000D01*
G75*
G02*
X42300000Y85785000I-150000J0D01*
G01*
X42000000Y85785000D01*
G75*
G02*
X41850000Y85935000I0J150000D01*
G01*
X41850000Y87585000D01*
G75*
G02*
X42000000Y87735000I150000J0D01*
G01*
G37*
G36*
G01*
X42000000Y82785000D02*
X42300000Y82785000D01*
G75*
G02*
X42450000Y82635000I0J-150000D01*
G01*
X42450000Y80985000D01*
G75*
G02*
X42300000Y80835000I-150000J0D01*
G01*
X42000000Y80835000D01*
G75*
G02*
X41850000Y80985000I0J150000D01*
G01*
X41850000Y82635000D01*
G75*
G02*
X42000000Y82785000I150000J0D01*
G01*
G37*
G36*
G01*
X40730000Y82785000D02*
X41030000Y82785000D01*
G75*
G02*
X41180000Y82635000I0J-150000D01*
G01*
X41180000Y80985000D01*
G75*
G02*
X41030000Y80835000I-150000J0D01*
G01*
X40730000Y80835000D01*
G75*
G02*
X40580000Y80985000I0J150000D01*
G01*
X40580000Y82635000D01*
G75*
G02*
X40730000Y82785000I150000J0D01*
G01*
G37*
G36*
G01*
X39460000Y82785000D02*
X39760000Y82785000D01*
G75*
G02*
X39910000Y82635000I0J-150000D01*
G01*
X39910000Y80985000D01*
G75*
G02*
X39760000Y80835000I-150000J0D01*
G01*
X39460000Y80835000D01*
G75*
G02*
X39310000Y80985000I0J150000D01*
G01*
X39310000Y82635000D01*
G75*
G02*
X39460000Y82785000I150000J0D01*
G01*
G37*
G36*
G01*
X38190000Y82785000D02*
X38490000Y82785000D01*
G75*
G02*
X38640000Y82635000I0J-150000D01*
G01*
X38640000Y80985000D01*
G75*
G02*
X38490000Y80835000I-150000J0D01*
G01*
X38190000Y80835000D01*
G75*
G02*
X38040000Y80985000I0J150000D01*
G01*
X38040000Y82635000D01*
G75*
G02*
X38190000Y82785000I150000J0D01*
G01*
G37*
G04 #@! TD*
G04 #@! TO.C,R29*
G36*
G01*
X47037513Y41270000D02*
X47037513Y40490000D01*
G75*
G02*
X46967513Y40420000I-70000J0D01*
G01*
X46407513Y40420000D01*
G75*
G02*
X46337513Y40490000I0J70000D01*
G01*
X46337513Y41270000D01*
G75*
G02*
X46407513Y41340000I70000J0D01*
G01*
X46967513Y41340000D01*
G75*
G02*
X47037513Y41270000I0J-70000D01*
G01*
G37*
G36*
G01*
X45437513Y41270000D02*
X45437513Y40490000D01*
G75*
G02*
X45367513Y40420000I-70000J0D01*
G01*
X44807513Y40420000D01*
G75*
G02*
X44737513Y40490000I0J70000D01*
G01*
X44737513Y41270000D01*
G75*
G02*
X44807513Y41340000I70000J0D01*
G01*
X45367513Y41340000D01*
G75*
G02*
X45437513Y41270000I0J-70000D01*
G01*
G37*
G04 #@! TD*
G04 #@! TO.C,L1*
G36*
G01*
X92053750Y86235000D02*
X92566250Y86235000D01*
G75*
G02*
X92785000Y86016250I0J-218750D01*
G01*
X92785000Y85578750D01*
G75*
G02*
X92566250Y85360000I-218750J0D01*
G01*
X92053750Y85360000D01*
G75*
G02*
X91835000Y85578750I0J218750D01*
G01*
X91835000Y86016250D01*
G75*
G02*
X92053750Y86235000I218750J0D01*
G01*
G37*
G36*
G01*
X92053750Y84660000D02*
X92566250Y84660000D01*
G75*
G02*
X92785000Y84441250I0J-218750D01*
G01*
X92785000Y84003750D01*
G75*
G02*
X92566250Y83785000I-218750J0D01*
G01*
X92053750Y83785000D01*
G75*
G02*
X91835000Y84003750I0J218750D01*
G01*
X91835000Y84441250D01*
G75*
G02*
X92053750Y84660000I218750J0D01*
G01*
G37*
G04 #@! TD*
G04 #@! TO.C,C15*
G36*
G01*
X47885000Y11010000D02*
X48935000Y11010000D01*
G75*
G02*
X49035000Y10910000I0J-100000D01*
G01*
X49035000Y10110000D01*
G75*
G02*
X48935000Y10010000I-100000J0D01*
G01*
X47885000Y10010000D01*
G75*
G02*
X47785000Y10110000I0J100000D01*
G01*
X47785000Y10910000D01*
G75*
G02*
X47885000Y11010000I100000J0D01*
G01*
G37*
G36*
G01*
X47885000Y9010000D02*
X48935000Y9010000D01*
G75*
G02*
X49035000Y8910000I0J-100000D01*
G01*
X49035000Y8110000D01*
G75*
G02*
X48935000Y8010000I-100000J0D01*
G01*
X47885000Y8010000D01*
G75*
G02*
X47785000Y8110000I0J100000D01*
G01*
X47785000Y8910000D01*
G75*
G02*
X47885000Y9010000I100000J0D01*
G01*
G37*
G04 #@! TD*
G04 #@! TO.C,C8*
G36*
G01*
X44460000Y13470000D02*
X43410000Y13470000D01*
G75*
G02*
X43310000Y13570000I0J100000D01*
G01*
X43310000Y14370000D01*
G75*
G02*
X43410000Y14470000I100000J0D01*
G01*
X44460000Y14470000D01*
G75*
G02*
X44560000Y14370000I0J-100000D01*
G01*
X44560000Y13570000D01*
G75*
G02*
X44460000Y13470000I-100000J0D01*
G01*
G37*
G36*
G01*
X44460000Y15470000D02*
X43410000Y15470000D01*
G75*
G02*
X43310000Y15570000I0J100000D01*
G01*
X43310000Y16370000D01*
G75*
G02*
X43410000Y16470000I100000J0D01*
G01*
X44460000Y16470000D01*
G75*
G02*
X44560000Y16370000I0J-100000D01*
G01*
X44560000Y15570000D01*
G75*
G02*
X44460000Y15470000I-100000J0D01*
G01*
G37*
G04 #@! TD*
G04 #@! TO.C,C9*
G36*
G01*
X46460000Y13470000D02*
X45410000Y13470000D01*
G75*
G02*
X45310000Y13570000I0J100000D01*
G01*
X45310000Y14370000D01*
G75*
G02*
X45410000Y14470000I100000J0D01*
G01*
X46460000Y14470000D01*
G75*
G02*
X46560000Y14370000I0J-100000D01*
G01*
X46560000Y13570000D01*
G75*
G02*
X46460000Y13470000I-100000J0D01*
G01*
G37*
G36*
G01*
X46460000Y15470000D02*
X45410000Y15470000D01*
G75*
G02*
X45310000Y15570000I0J100000D01*
G01*
X45310000Y16370000D01*
G75*
G02*
X45410000Y16470000I100000J0D01*
G01*
X46460000Y16470000D01*
G75*
G02*
X46560000Y16370000I0J-100000D01*
G01*
X46560000Y15570000D01*
G75*
G02*
X46460000Y15470000I-100000J0D01*
G01*
G37*
G04 #@! TD*
G04 #@! TO.C,C6*
G36*
G01*
X40460000Y13470000D02*
X39410000Y13470000D01*
G75*
G02*
X39310000Y13570000I0J100000D01*
G01*
X39310000Y14370000D01*
G75*
G02*
X39410000Y14470000I100000J0D01*
G01*
X40460000Y14470000D01*
G75*
G02*
X40560000Y14370000I0J-100000D01*
G01*
X40560000Y13570000D01*
G75*
G02*
X40460000Y13470000I-100000J0D01*
G01*
G37*
G36*
G01*
X40460000Y15470000D02*
X39410000Y15470000D01*
G75*
G02*
X39310000Y15570000I0J100000D01*
G01*
X39310000Y16370000D01*
G75*
G02*
X39410000Y16470000I100000J0D01*
G01*
X40460000Y16470000D01*
G75*
G02*
X40560000Y16370000I0J-100000D01*
G01*
X40560000Y15570000D01*
G75*
G02*
X40460000Y15470000I-100000J0D01*
G01*
G37*
G04 #@! TD*
G04 #@! TO.C,D5*
G36*
G01*
X38192513Y28590000D02*
X38192513Y29610000D01*
G75*
G02*
X38282513Y29700000I90000J0D01*
G01*
X39002513Y29700000D01*
G75*
G02*
X39092513Y29610000I0J-90000D01*
G01*
X39092513Y28590000D01*
G75*
G02*
X39002513Y28500000I-90000J0D01*
G01*
X38282513Y28500000D01*
G75*
G02*
X38192513Y28590000I0J90000D01*
G01*
G37*
G36*
G01*
X41492513Y28590000D02*
X41492513Y29610000D01*
G75*
G02*
X41582513Y29700000I90000J0D01*
G01*
X42302513Y29700000D01*
G75*
G02*
X42392513Y29610000I0J-90000D01*
G01*
X42392513Y28590000D01*
G75*
G02*
X42302513Y28500000I-90000J0D01*
G01*
X41582513Y28500000D01*
G75*
G02*
X41492513Y28590000I0J90000D01*
G01*
G37*
G04 #@! TD*
G04 #@! TO.C,C2*
G36*
G01*
X41410000Y20470000D02*
X42460000Y20470000D01*
G75*
G02*
X42560000Y20370000I0J-100000D01*
G01*
X42560000Y19570000D01*
G75*
G02*
X42460000Y19470000I-100000J0D01*
G01*
X41410000Y19470000D01*
G75*
G02*
X41310000Y19570000I0J100000D01*
G01*
X41310000Y20370000D01*
G75*
G02*
X41410000Y20470000I100000J0D01*
G01*
G37*
G36*
G01*
X41410000Y18470000D02*
X42460000Y18470000D01*
G75*
G02*
X42560000Y18370000I0J-100000D01*
G01*
X42560000Y17570000D01*
G75*
G02*
X42460000Y17470000I-100000J0D01*
G01*
X41410000Y17470000D01*
G75*
G02*
X41310000Y17570000I0J100000D01*
G01*
X41310000Y18370000D01*
G75*
G02*
X41410000Y18470000I100000J0D01*
G01*
G37*
G04 #@! TD*
G04 #@! TO.C,C18*
G36*
G01*
X53885000Y11010000D02*
X54935000Y11010000D01*
G75*
G02*
X55035000Y10910000I0J-100000D01*
G01*
X55035000Y10110000D01*
G75*
G02*
X54935000Y10010000I-100000J0D01*
G01*
X53885000Y10010000D01*
G75*
G02*
X53785000Y10110000I0J100000D01*
G01*
X53785000Y10910000D01*
G75*
G02*
X53885000Y11010000I100000J0D01*
G01*
G37*
G36*
G01*
X53885000Y9010000D02*
X54935000Y9010000D01*
G75*
G02*
X55035000Y8910000I0J-100000D01*
G01*
X55035000Y8110000D01*
G75*
G02*
X54935000Y8010000I-100000J0D01*
G01*
X53885000Y8010000D01*
G75*
G02*
X53785000Y8110000I0J100000D01*
G01*
X53785000Y8910000D01*
G75*
G02*
X53885000Y9010000I100000J0D01*
G01*
G37*
G04 #@! TD*
G04 #@! TO.C,R12*
G36*
G01*
X52517513Y29850000D02*
X51737513Y29850000D01*
G75*
G02*
X51667513Y29920000I0J70000D01*
G01*
X51667513Y30480000D01*
G75*
G02*
X51737513Y30550000I70000J0D01*
G01*
X52517513Y30550000D01*
G75*
G02*
X52587513Y30480000I0J-70000D01*
G01*
X52587513Y29920000D01*
G75*
G02*
X52517513Y29850000I-70000J0D01*
G01*
G37*
G36*
G01*
X52517513Y31450000D02*
X51737513Y31450000D01*
G75*
G02*
X51667513Y31520000I0J70000D01*
G01*
X51667513Y32080000D01*
G75*
G02*
X51737513Y32150000I70000J0D01*
G01*
X52517513Y32150000D01*
G75*
G02*
X52587513Y32080000I0J-70000D01*
G01*
X52587513Y31520000D01*
G75*
G02*
X52517513Y31450000I-70000J0D01*
G01*
G37*
G04 #@! TD*
G04 #@! TO.C,C20*
G36*
G01*
X48935000Y4010000D02*
X47885000Y4010000D01*
G75*
G02*
X47785000Y4110000I0J100000D01*
G01*
X47785000Y4910000D01*
G75*
G02*
X47885000Y5010000I100000J0D01*
G01*
X48935000Y5010000D01*
G75*
G02*
X49035000Y4910000I0J-100000D01*
G01*
X49035000Y4110000D01*
G75*
G02*
X48935000Y4010000I-100000J0D01*
G01*
G37*
G36*
G01*
X48935000Y6010000D02*
X47885000Y6010000D01*
G75*
G02*
X47785000Y6110000I0J100000D01*
G01*
X47785000Y6910000D01*
G75*
G02*
X47885000Y7010000I100000J0D01*
G01*
X48935000Y7010000D01*
G75*
G02*
X49035000Y6910000I0J-100000D01*
G01*
X49035000Y6110000D01*
G75*
G02*
X48935000Y6010000I-100000J0D01*
G01*
G37*
G04 #@! TD*
G04 #@! TO.C,R5*
G36*
G01*
X92320000Y62960000D02*
X93100000Y62960000D01*
G75*
G02*
X93170000Y62890000I0J-70000D01*
G01*
X93170000Y62330000D01*
G75*
G02*
X93100000Y62260000I-70000J0D01*
G01*
X92320000Y62260000D01*
G75*
G02*
X92250000Y62330000I0J70000D01*
G01*
X92250000Y62890000D01*
G75*
G02*
X92320000Y62960000I70000J0D01*
G01*
G37*
G36*
G01*
X92320000Y61360000D02*
X93100000Y61360000D01*
G75*
G02*
X93170000Y61290000I0J-70000D01*
G01*
X93170000Y60730000D01*
G75*
G02*
X93100000Y60660000I-70000J0D01*
G01*
X92320000Y60660000D01*
G75*
G02*
X92250000Y60730000I0J70000D01*
G01*
X92250000Y61290000D01*
G75*
G02*
X92320000Y61360000I70000J0D01*
G01*
G37*
G04 #@! TD*
G04 #@! TO.C,R6*
G36*
G01*
X113020000Y71960000D02*
X113800000Y71960000D01*
G75*
G02*
X113870000Y71890000I0J-70000D01*
G01*
X113870000Y71330000D01*
G75*
G02*
X113800000Y71260000I-70000J0D01*
G01*
X113020000Y71260000D01*
G75*
G02*
X112950000Y71330000I0J70000D01*
G01*
X112950000Y71890000D01*
G75*
G02*
X113020000Y71960000I70000J0D01*
G01*
G37*
G36*
G01*
X113020000Y70360000D02*
X113800000Y70360000D01*
G75*
G02*
X113870000Y70290000I0J-70000D01*
G01*
X113870000Y69730000D01*
G75*
G02*
X113800000Y69660000I-70000J0D01*
G01*
X113020000Y69660000D01*
G75*
G02*
X112950000Y69730000I0J70000D01*
G01*
X112950000Y70290000D01*
G75*
G02*
X113020000Y70360000I70000J0D01*
G01*
G37*
G04 #@! TD*
G04 #@! TO.C,R2*
G36*
G01*
X52200000Y19860000D02*
X51420000Y19860000D01*
G75*
G02*
X51350000Y19930000I0J70000D01*
G01*
X51350000Y20490000D01*
G75*
G02*
X51420000Y20560000I70000J0D01*
G01*
X52200000Y20560000D01*
G75*
G02*
X52270000Y20490000I0J-70000D01*
G01*
X52270000Y19930000D01*
G75*
G02*
X52200000Y19860000I-70000J0D01*
G01*
G37*
G36*
G01*
X52200000Y21460000D02*
X51420000Y21460000D01*
G75*
G02*
X51350000Y21530000I0J70000D01*
G01*
X51350000Y22090000D01*
G75*
G02*
X51420000Y22160000I70000J0D01*
G01*
X52200000Y22160000D01*
G75*
G02*
X52270000Y22090000I0J-70000D01*
G01*
X52270000Y21530000D01*
G75*
G02*
X52200000Y21460000I-70000J0D01*
G01*
G37*
G04 #@! TD*
G04 #@! TO.C,U8*
G36*
G01*
X51077513Y32055000D02*
X51077513Y31755000D01*
G75*
G02*
X50927513Y31605000I-150000J0D01*
G01*
X49277513Y31605000D01*
G75*
G02*
X49127513Y31755000I0J150000D01*
G01*
X49127513Y32055000D01*
G75*
G02*
X49277513Y32205000I150000J0D01*
G01*
X50927513Y32205000D01*
G75*
G02*
X51077513Y32055000I0J-150000D01*
G01*
G37*
G36*
G01*
X51077513Y30785000D02*
X51077513Y30485000D01*
G75*
G02*
X50927513Y30335000I-150000J0D01*
G01*
X49277513Y30335000D01*
G75*
G02*
X49127513Y30485000I0J150000D01*
G01*
X49127513Y30785000D01*
G75*
G02*
X49277513Y30935000I150000J0D01*
G01*
X50927513Y30935000D01*
G75*
G02*
X51077513Y30785000I0J-150000D01*
G01*
G37*
G36*
G01*
X51077513Y29515000D02*
X51077513Y29215000D01*
G75*
G02*
X50927513Y29065000I-150000J0D01*
G01*
X49277513Y29065000D01*
G75*
G02*
X49127513Y29215000I0J150000D01*
G01*
X49127513Y29515000D01*
G75*
G02*
X49277513Y29665000I150000J0D01*
G01*
X50927513Y29665000D01*
G75*
G02*
X51077513Y29515000I0J-150000D01*
G01*
G37*
G36*
G01*
X51077513Y28245000D02*
X51077513Y27945000D01*
G75*
G02*
X50927513Y27795000I-150000J0D01*
G01*
X49277513Y27795000D01*
G75*
G02*
X49127513Y27945000I0J150000D01*
G01*
X49127513Y28245000D01*
G75*
G02*
X49277513Y28395000I150000J0D01*
G01*
X50927513Y28395000D01*
G75*
G02*
X51077513Y28245000I0J-150000D01*
G01*
G37*
G36*
G01*
X46127513Y28245000D02*
X46127513Y27945000D01*
G75*
G02*
X45977513Y27795000I-150000J0D01*
G01*
X44327513Y27795000D01*
G75*
G02*
X44177513Y27945000I0J150000D01*
G01*
X44177513Y28245000D01*
G75*
G02*
X44327513Y28395000I150000J0D01*
G01*
X45977513Y28395000D01*
G75*
G02*
X46127513Y28245000I0J-150000D01*
G01*
G37*
G36*
G01*
X46127513Y29515000D02*
X46127513Y29215000D01*
G75*
G02*
X45977513Y29065000I-150000J0D01*
G01*
X44327513Y29065000D01*
G75*
G02*
X44177513Y29215000I0J150000D01*
G01*
X44177513Y29515000D01*
G75*
G02*
X44327513Y29665000I150000J0D01*
G01*
X45977513Y29665000D01*
G75*
G02*
X46127513Y29515000I0J-150000D01*
G01*
G37*
G36*
G01*
X46127513Y30785000D02*
X46127513Y30485000D01*
G75*
G02*
X45977513Y30335000I-150000J0D01*
G01*
X44327513Y30335000D01*
G75*
G02*
X44177513Y30485000I0J150000D01*
G01*
X44177513Y30785000D01*
G75*
G02*
X44327513Y30935000I150000J0D01*
G01*
X45977513Y30935000D01*
G75*
G02*
X46127513Y30785000I0J-150000D01*
G01*
G37*
G36*
G01*
X46127513Y32055000D02*
X46127513Y31755000D01*
G75*
G02*
X45977513Y31605000I-150000J0D01*
G01*
X44327513Y31605000D01*
G75*
G02*
X44177513Y31755000I0J150000D01*
G01*
X44177513Y32055000D01*
G75*
G02*
X44327513Y32205000I150000J0D01*
G01*
X45977513Y32205000D01*
G75*
G02*
X46127513Y32055000I0J-150000D01*
G01*
G37*
G04 #@! TD*
M02*
