G04 #@! TF.GenerationSoftware,KiCad,Pcbnew,8.0.9-8.0.9-0~ubuntu24.04.1*
G04 #@! TF.CreationDate,2025-12-08T20:36:30+00:00*
G04 #@! TF.ProjectId,uaefi,75616566-692e-46b6-9963-61645f706362,E*
G04 #@! TF.SameCoordinates,Original*
G04 #@! TF.FileFunction,Soldermask,Top*
G04 #@! TF.FilePolarity,Negative*
%FSLAX46Y46*%
G04 Gerber Fmt 4.6, Leading zero omitted, Abs format (unit mm)*
G04 Created by KiCad (PCBNEW 8.0.9-8.0.9-0~ubuntu24.04.1) date 2025-12-08 20:36:30*
%MOMM*%
%LPD*%
G01*
G04 APERTURE LIST*
%ADD10C,0.120000*%
%ADD11C,1.700000*%
%ADD12C,3.300000*%
%ADD13C,2.300000*%
%ADD14C,2.000000*%
%ADD15C,0.800000*%
%ADD16C,6.400000*%
%ADD17O,1.850000X1.700000*%
%ADD18C,0.600000*%
%ADD19R,1.100000X1.100000*%
%ADD20C,1.100000*%
%ADD21O,2.400000X1.100000*%
%ADD22C,1.500000*%
%ADD23R,1.300000X1.000000*%
%ADD24C,1.524000*%
%ADD25C,0.650000*%
%ADD26R,0.300000X1.150000*%
%ADD27O,1.000000X2.100000*%
%ADD28O,1.000000X1.600000*%
%ADD29R,1.700000X1.700000*%
%ADD30O,1.700000X1.700000*%
%ADD31C,3.302000*%
%ADD32R,0.690000X1.350000*%
G04 APERTURE END LIST*
D10*
G04 #@! TO.C,U5*
X134960000Y7235000D02*
X121960000Y7235000D01*
X121960000Y14235000D01*
X134960000Y14235000D01*
X134960000Y7235000D01*
G36*
X134960000Y7235000D02*
G01*
X121960000Y7235000D01*
X121960000Y14235000D01*
X134960000Y14235000D01*
X134960000Y7235000D01*
G37*
G04 #@! TD*
G04 #@! TO.C,R40*
G36*
G01*
X66832513Y83249999D02*
X65582513Y83249999D01*
G75*
G02*
X65482513Y83349999I0J100000D01*
G01*
X65482513Y84149999D01*
G75*
G02*
X65582513Y84249999I100000J0D01*
G01*
X66832513Y84249999D01*
G75*
G02*
X66932513Y84149999I0J-100000D01*
G01*
X66932513Y83349999D01*
G75*
G02*
X66832513Y83249999I-100000J0D01*
G01*
G37*
G36*
G01*
X66832513Y85150021D02*
X65582513Y85150021D01*
G75*
G02*
X65482513Y85250021I0J100000D01*
G01*
X65482513Y86050021D01*
G75*
G02*
X65582513Y86150021I100000J0D01*
G01*
X66832513Y86150021D01*
G75*
G02*
X66932513Y86050021I0J-100000D01*
G01*
X66932513Y85250021D01*
G75*
G02*
X66832513Y85150021I-100000J0D01*
G01*
G37*
G04 #@! TD*
G04 #@! TO.C,R39*
G36*
G01*
X104487514Y88145000D02*
X104487514Y86895000D01*
G75*
G02*
X104387514Y86795000I-100000J0D01*
G01*
X103587514Y86795000D01*
G75*
G02*
X103487514Y86895000I0J100000D01*
G01*
X103487514Y88145000D01*
G75*
G02*
X103587514Y88245000I100000J0D01*
G01*
X104387514Y88245000D01*
G75*
G02*
X104487514Y88145000I0J-100000D01*
G01*
G37*
G36*
G01*
X102587492Y88145000D02*
X102587492Y86895000D01*
G75*
G02*
X102487492Y86795000I-100000J0D01*
G01*
X101687492Y86795000D01*
G75*
G02*
X101587492Y86895000I0J100000D01*
G01*
X101587492Y88145000D01*
G75*
G02*
X101687492Y88245000I100000J0D01*
G01*
X102487492Y88245000D01*
G75*
G02*
X102587492Y88145000I0J-100000D01*
G01*
G37*
G04 #@! TD*
D11*
G04 #@! TO.C,P8*
X119010000Y19310000D03*
G04 #@! TD*
G04 #@! TO.C,P5*
X77410000Y46010000D03*
G04 #@! TD*
D12*
G04 #@! TO.C,J25*
X19627513Y93985000D03*
D13*
X18877513Y88985000D03*
X18877513Y59485000D03*
D12*
X19627513Y54485000D03*
D14*
X25127513Y86235000D03*
X25127513Y83235000D03*
X25127513Y80235000D03*
X25127513Y77235000D03*
X25127513Y74235000D03*
X25127513Y71235000D03*
X25127513Y68235000D03*
X25127513Y65235000D03*
X25127513Y62235000D03*
X21627513Y84735000D03*
X21627513Y81735000D03*
X21627513Y78735000D03*
X21627513Y75735000D03*
X21627513Y72735000D03*
X21627513Y69735000D03*
X21627513Y66735000D03*
X21627513Y63735000D03*
X17627513Y84735000D03*
X17627513Y81735000D03*
X17627513Y78735000D03*
X17627513Y75735000D03*
X17627513Y72735000D03*
X17627513Y69735000D03*
X17627513Y66735000D03*
X17627513Y63735000D03*
X14127513Y86235000D03*
X14127513Y83235000D03*
X14127513Y80235000D03*
X14127513Y77235000D03*
X14127513Y74235000D03*
X14127513Y71235000D03*
X14127513Y68235000D03*
X14127513Y65235000D03*
X14127513Y62235000D03*
G04 #@! TD*
D15*
G04 #@! TO.C,H1*
X1137056Y96510000D03*
X1840000Y98207056D03*
X1840000Y94812944D03*
X3537056Y98910000D03*
D16*
X3537056Y96510000D03*
D15*
X3537056Y94110000D03*
X5234112Y98207056D03*
X5234112Y94812944D03*
X5937056Y96510000D03*
G04 #@! TD*
G04 #@! TO.C,H4*
X129910000Y96510000D03*
X130612944Y98207056D03*
X130612944Y94812944D03*
X132310000Y98910000D03*
D16*
X132310000Y96510000D03*
D15*
X132310000Y94110000D03*
X134007056Y98207056D03*
X134007056Y94812944D03*
X134710000Y96510000D03*
G04 #@! TD*
G04 #@! TO.C,R37*
G36*
G01*
X67672513Y86120001D02*
X68922513Y86120001D01*
G75*
G02*
X69022513Y86020001I0J-100000D01*
G01*
X69022513Y85220001D01*
G75*
G02*
X68922513Y85120001I-100000J0D01*
G01*
X67672513Y85120001D01*
G75*
G02*
X67572513Y85220001I0J100000D01*
G01*
X67572513Y86020001D01*
G75*
G02*
X67672513Y86120001I100000J0D01*
G01*
G37*
G36*
G01*
X67672513Y84219979D02*
X68922513Y84219979D01*
G75*
G02*
X69022513Y84119979I0J-100000D01*
G01*
X69022513Y83319979D01*
G75*
G02*
X68922513Y83219979I-100000J0D01*
G01*
X67672513Y83219979D01*
G75*
G02*
X67572513Y83319979I0J100000D01*
G01*
X67572513Y84119979D01*
G75*
G02*
X67672513Y84219979I100000J0D01*
G01*
G37*
G04 #@! TD*
G04 #@! TO.C,F9*
G36*
G01*
X62072513Y35953750D02*
X62072513Y36466250D01*
G75*
G02*
X62291263Y36685000I218750J0D01*
G01*
X62728763Y36685000D01*
G75*
G02*
X62947513Y36466250I0J-218750D01*
G01*
X62947513Y35953750D01*
G75*
G02*
X62728763Y35735000I-218750J0D01*
G01*
X62291263Y35735000D01*
G75*
G02*
X62072513Y35953750I0J218750D01*
G01*
G37*
G36*
G01*
X63647513Y35953750D02*
X63647513Y36466250D01*
G75*
G02*
X63866263Y36685000I218750J0D01*
G01*
X64303763Y36685000D01*
G75*
G02*
X64522513Y36466250I0J-218750D01*
G01*
X64522513Y35953750D01*
G75*
G02*
X64303763Y35735000I-218750J0D01*
G01*
X63866263Y35735000D01*
G75*
G02*
X63647513Y35953750I0J218750D01*
G01*
G37*
G04 #@! TD*
G04 #@! TO.C,J7*
G36*
G01*
X119485000Y2160000D02*
X118135000Y2160000D01*
G75*
G02*
X117885000Y2410000I0J250000D01*
G01*
X117885000Y3610000D01*
G75*
G02*
X118135000Y3860000I250000J0D01*
G01*
X119485000Y3860000D01*
G75*
G02*
X119735000Y3610000I0J-250000D01*
G01*
X119735000Y2410000D01*
G75*
G02*
X119485000Y2160000I-250000J0D01*
G01*
G37*
D17*
X118810000Y5510000D03*
X118810000Y8010000D03*
X118810000Y10510000D03*
X118810000Y13010000D03*
G04 #@! TD*
G04 #@! TO.C,F6*
G36*
G01*
X61075013Y51703750D02*
X61075013Y52216250D01*
G75*
G02*
X61293763Y52435000I218750J0D01*
G01*
X61731263Y52435000D01*
G75*
G02*
X61950013Y52216250I0J-218750D01*
G01*
X61950013Y51703750D01*
G75*
G02*
X61731263Y51485000I-218750J0D01*
G01*
X61293763Y51485000D01*
G75*
G02*
X61075013Y51703750I0J218750D01*
G01*
G37*
G36*
G01*
X62650013Y51703750D02*
X62650013Y52216250D01*
G75*
G02*
X62868763Y52435000I218750J0D01*
G01*
X63306263Y52435000D01*
G75*
G02*
X63525013Y52216250I0J-218750D01*
G01*
X63525013Y51703750D01*
G75*
G02*
X63306263Y51485000I-218750J0D01*
G01*
X62868763Y51485000D01*
G75*
G02*
X62650013Y51703750I0J218750D01*
G01*
G37*
G04 #@! TD*
D11*
G04 #@! TO.C,P4*
X98310000Y7510000D03*
G04 #@! TD*
D15*
G04 #@! TO.C,H2*
X1137056Y3480000D03*
X1840000Y5177056D03*
X1840000Y1782944D03*
X3537056Y5880000D03*
D16*
X3537056Y3480000D03*
D15*
X3537056Y1080000D03*
X5234112Y5177056D03*
X5234112Y1782944D03*
X5937056Y3480000D03*
G04 #@! TD*
D18*
G04 #@! TO.C,M3*
X84985000Y62685000D03*
X83785000Y62685000D03*
X86185000Y62685000D03*
X87385000Y62685000D03*
X80925000Y77110000D03*
X79925000Y77110000D03*
G04 #@! TD*
G04 #@! TO.C,F10*
G36*
G01*
X62015013Y34013750D02*
X62015013Y34526250D01*
G75*
G02*
X62233763Y34745000I218750J0D01*
G01*
X62671263Y34745000D01*
G75*
G02*
X62890013Y34526250I0J-218750D01*
G01*
X62890013Y34013750D01*
G75*
G02*
X62671263Y33795000I-218750J0D01*
G01*
X62233763Y33795000D01*
G75*
G02*
X62015013Y34013750I0J218750D01*
G01*
G37*
G36*
G01*
X63590013Y34013750D02*
X63590013Y34526250D01*
G75*
G02*
X63808763Y34745000I218750J0D01*
G01*
X64246263Y34745000D01*
G75*
G02*
X64465013Y34526250I0J-218750D01*
G01*
X64465013Y34013750D01*
G75*
G02*
X64246263Y33795000I-218750J0D01*
G01*
X63808763Y33795000D01*
G75*
G02*
X63590013Y34013750I0J218750D01*
G01*
G37*
G04 #@! TD*
D19*
G04 #@! TO.C,J8*
X95060000Y3110000D03*
D20*
X93310000Y3910000D03*
X95060000Y4710000D03*
X93310000Y5510000D03*
X95060000Y6310000D03*
D21*
X94185000Y1060000D03*
X94185000Y8360000D03*
G04 #@! TD*
D12*
G04 #@! TO.C,J23*
X19627513Y45435000D03*
D13*
X18877513Y40435000D03*
X18877513Y10935000D03*
D12*
X19627513Y5935000D03*
D14*
X25127513Y37685000D03*
X25127513Y34685000D03*
X25127513Y31685000D03*
X25127513Y28685000D03*
X25127513Y25685000D03*
X25127513Y22685000D03*
X25127513Y19685000D03*
X25127513Y16685000D03*
X25127513Y13685000D03*
X21627513Y36185000D03*
X21627513Y33185000D03*
X21627513Y30185000D03*
X21627513Y27185000D03*
X21627513Y24185000D03*
X21627513Y21185000D03*
X21627513Y18185000D03*
X21627513Y15185000D03*
X17627513Y36185000D03*
X17627513Y33185000D03*
X17627513Y30185000D03*
X17627513Y27185000D03*
X17627513Y24185000D03*
X17627513Y21185000D03*
X17627513Y18185000D03*
X17627513Y15185000D03*
X14127513Y37685000D03*
X14127513Y34685000D03*
X14127513Y31685000D03*
X14127513Y28685000D03*
X14127513Y25685000D03*
X14127513Y22685000D03*
X14127513Y19685000D03*
X14127513Y16685000D03*
X14127513Y13685000D03*
G04 #@! TD*
D22*
G04 #@! TO.C,M1*
X76684995Y20834999D03*
X76684995Y14435002D03*
X76684995Y12534999D03*
X76684995Y8234999D03*
D18*
X77134994Y5835002D03*
X77134994Y4835001D03*
D22*
X76684995Y1984999D03*
X61184998Y21285001D03*
X61184998Y19435002D03*
X61184998Y14484999D03*
X61184998Y2435001D03*
G04 #@! TD*
G04 #@! TO.C,F8*
G36*
G01*
X62042513Y37863750D02*
X62042513Y38376250D01*
G75*
G02*
X62261263Y38595000I218750J0D01*
G01*
X62698763Y38595000D01*
G75*
G02*
X62917513Y38376250I0J-218750D01*
G01*
X62917513Y37863750D01*
G75*
G02*
X62698763Y37645000I-218750J0D01*
G01*
X62261263Y37645000D01*
G75*
G02*
X62042513Y37863750I0J218750D01*
G01*
G37*
G36*
G01*
X63617513Y37863750D02*
X63617513Y38376250D01*
G75*
G02*
X63836263Y38595000I218750J0D01*
G01*
X64273763Y38595000D01*
G75*
G02*
X64492513Y38376250I0J-218750D01*
G01*
X64492513Y37863750D01*
G75*
G02*
X64273763Y37645000I-218750J0D01*
G01*
X63836263Y37645000D01*
G75*
G02*
X63617513Y37863750I0J218750D01*
G01*
G37*
G04 #@! TD*
D11*
G04 #@! TO.C,P6*
X74870000Y46010000D03*
G04 #@! TD*
G04 #@! TO.C,F7*
G36*
G01*
X60975013Y47723750D02*
X60975013Y48236250D01*
G75*
G02*
X61193763Y48455000I218750J0D01*
G01*
X61631263Y48455000D01*
G75*
G02*
X61850013Y48236250I0J-218750D01*
G01*
X61850013Y47723750D01*
G75*
G02*
X61631263Y47505000I-218750J0D01*
G01*
X61193763Y47505000D01*
G75*
G02*
X60975013Y47723750I0J218750D01*
G01*
G37*
G36*
G01*
X62550013Y47723750D02*
X62550013Y48236250D01*
G75*
G02*
X62768763Y48455000I218750J0D01*
G01*
X63206263Y48455000D01*
G75*
G02*
X63425013Y48236250I0J-218750D01*
G01*
X63425013Y47723750D01*
G75*
G02*
X63206263Y47505000I-218750J0D01*
G01*
X62768763Y47505000D01*
G75*
G02*
X62550013Y47723750I0J218750D01*
G01*
G37*
G04 #@! TD*
D23*
G04 #@! TO.C,U5*
X134810000Y14810000D03*
X134810000Y16310000D03*
X134810000Y17810000D03*
X134810000Y19310000D03*
X134810000Y20810000D03*
X134810000Y22310000D03*
X134810000Y23810000D03*
X134810000Y25310000D03*
X134810000Y26810000D03*
X134810000Y28310000D03*
X134810000Y29810000D03*
X134810000Y31310000D03*
X134810000Y32810000D03*
X122110000Y32810000D03*
X122110000Y31310000D03*
X122110000Y29810000D03*
X122110000Y28310000D03*
X122110000Y26810000D03*
X122110000Y25310000D03*
X122110000Y23810000D03*
X122110000Y22310000D03*
X122110000Y20810000D03*
X122110000Y19310000D03*
X122110000Y17810000D03*
X122110000Y16310000D03*
X122110000Y14810000D03*
G04 #@! TD*
G04 #@! TO.C,R35*
G36*
G01*
X99447514Y86005000D02*
X99447514Y84755000D01*
G75*
G02*
X99347514Y84655000I-100000J0D01*
G01*
X98547514Y84655000D01*
G75*
G02*
X98447514Y84755000I0J100000D01*
G01*
X98447514Y86005000D01*
G75*
G02*
X98547514Y86105000I100000J0D01*
G01*
X99347514Y86105000D01*
G75*
G02*
X99447514Y86005000I0J-100000D01*
G01*
G37*
G36*
G01*
X97547492Y86005000D02*
X97547492Y84755000D01*
G75*
G02*
X97447492Y84655000I-100000J0D01*
G01*
X96647492Y84655000D01*
G75*
G02*
X96547492Y84755000I0J100000D01*
G01*
X96547492Y86005000D01*
G75*
G02*
X96647492Y86105000I100000J0D01*
G01*
X97447492Y86105000D01*
G75*
G02*
X97547492Y86005000I0J-100000D01*
G01*
G37*
G04 #@! TD*
D24*
G04 #@! TO.C,F1*
X58610000Y19460000D03*
G36*
G01*
X57710000Y18115010D02*
X57710000Y18805010D01*
G75*
G02*
X57940000Y19035010I230000J0D01*
G01*
X59280000Y19035010D01*
G75*
G02*
X59510000Y18805010I0J-230000D01*
G01*
X59510000Y18115010D01*
G75*
G02*
X59280000Y17885010I-230000J0D01*
G01*
X57940000Y17885010D01*
G75*
G02*
X57710000Y18115010I0J230000D01*
G01*
G37*
G36*
G01*
X57710000Y15214990D02*
X57710000Y15904990D01*
G75*
G02*
X57940000Y16134990I230000J0D01*
G01*
X59280000Y16134990D01*
G75*
G02*
X59510000Y15904990I0J-230000D01*
G01*
X59510000Y15214990D01*
G75*
G02*
X59280000Y14984990I-230000J0D01*
G01*
X57940000Y14984990D01*
G75*
G02*
X57710000Y15214990I0J230000D01*
G01*
G37*
X58610000Y14560000D03*
G04 #@! TD*
D11*
G04 #@! TO.C,P3*
X98310000Y2510000D03*
G04 #@! TD*
D24*
G04 #@! TO.C,R4*
X79284609Y6484609D03*
G36*
G01*
X78659609Y6029610D02*
X79909609Y6029610D01*
G75*
G02*
X80009609Y5929610I0J-100000D01*
G01*
X80009609Y5129610D01*
G75*
G02*
X79909609Y5029610I-100000J0D01*
G01*
X78659609Y5029610D01*
G75*
G02*
X78559609Y5129610I0J100000D01*
G01*
X78559609Y5929610D01*
G75*
G02*
X78659609Y6029610I100000J0D01*
G01*
G37*
G36*
G01*
X78659609Y4129588D02*
X79909609Y4129588D01*
G75*
G02*
X80009609Y4029588I0J-100000D01*
G01*
X80009609Y3229588D01*
G75*
G02*
X79909609Y3129588I-100000J0D01*
G01*
X78659609Y3129588D01*
G75*
G02*
X78559609Y3229588I0J100000D01*
G01*
X78559609Y4029588D01*
G75*
G02*
X78659609Y4129588I100000J0D01*
G01*
G37*
X79284609Y2674609D03*
G04 #@! TD*
G04 #@! TO.C,R38*
G36*
G01*
X96537491Y86655000D02*
X96537491Y87905000D01*
G75*
G02*
X96637491Y88005000I100000J0D01*
G01*
X97437491Y88005000D01*
G75*
G02*
X97537491Y87905000I0J-100000D01*
G01*
X97537491Y86655000D01*
G75*
G02*
X97437491Y86555000I-100000J0D01*
G01*
X96637491Y86555000D01*
G75*
G02*
X96537491Y86655000I0J100000D01*
G01*
G37*
G36*
G01*
X98437513Y86655000D02*
X98437513Y87905000D01*
G75*
G02*
X98537513Y88005000I100000J0D01*
G01*
X99337513Y88005000D01*
G75*
G02*
X99437513Y87905000I0J-100000D01*
G01*
X99437513Y86655000D01*
G75*
G02*
X99337513Y86555000I-100000J0D01*
G01*
X98537513Y86555000D01*
G75*
G02*
X98437513Y86655000I0J100000D01*
G01*
G37*
G04 #@! TD*
G04 #@! TO.C,R36*
G36*
G01*
X101547512Y84785000D02*
X101547512Y86035000D01*
G75*
G02*
X101647512Y86135000I100000J0D01*
G01*
X102447512Y86135000D01*
G75*
G02*
X102547512Y86035000I0J-100000D01*
G01*
X102547512Y84785000D01*
G75*
G02*
X102447512Y84685000I-100000J0D01*
G01*
X101647512Y84685000D01*
G75*
G02*
X101547512Y84785000I0J100000D01*
G01*
G37*
G36*
G01*
X103447534Y84785000D02*
X103447534Y86035000D01*
G75*
G02*
X103547534Y86135000I100000J0D01*
G01*
X104347534Y86135000D01*
G75*
G02*
X104447534Y86035000I0J-100000D01*
G01*
X104447534Y84785000D01*
G75*
G02*
X104347534Y84685000I-100000J0D01*
G01*
X103547534Y84685000D01*
G75*
G02*
X103447534Y84785000I0J100000D01*
G01*
G37*
G04 #@! TD*
G04 #@! TO.C,F5*
G36*
G01*
X61032513Y49613750D02*
X61032513Y50126250D01*
G75*
G02*
X61251263Y50345000I218750J0D01*
G01*
X61688763Y50345000D01*
G75*
G02*
X61907513Y50126250I0J-218750D01*
G01*
X61907513Y49613750D01*
G75*
G02*
X61688763Y49395000I-218750J0D01*
G01*
X61251263Y49395000D01*
G75*
G02*
X61032513Y49613750I0J218750D01*
G01*
G37*
G36*
G01*
X62607513Y49613750D02*
X62607513Y50126250D01*
G75*
G02*
X62826263Y50345000I218750J0D01*
G01*
X63263763Y50345000D01*
G75*
G02*
X63482513Y50126250I0J-218750D01*
G01*
X63482513Y49613750D01*
G75*
G02*
X63263763Y49395000I-218750J0D01*
G01*
X62826263Y49395000D01*
G75*
G02*
X62607513Y49613750I0J218750D01*
G01*
G37*
G04 #@! TD*
D11*
G04 #@! TO.C,P7*
X119010000Y24010000D03*
G04 #@! TD*
D25*
G04 #@! TO.C,J9*
X82920000Y6615000D03*
X88700000Y6615000D03*
D26*
X82460000Y7680000D03*
X83260000Y7680000D03*
X84560000Y7680000D03*
X85560000Y7680000D03*
X86060000Y7680000D03*
X87060000Y7680000D03*
X88360000Y7680000D03*
X89160000Y7680000D03*
X88860000Y7680000D03*
X88060000Y7680000D03*
X87560000Y7680000D03*
X86560000Y7680000D03*
X85060000Y7680000D03*
X84060000Y7680000D03*
X83560000Y7680000D03*
X82760000Y7680000D03*
D27*
X81490000Y7115000D03*
D28*
X81490000Y2935000D03*
D27*
X90130000Y7115000D03*
D28*
X90130000Y2935000D03*
G04 #@! TD*
D15*
G04 #@! TO.C,H3*
X129910000Y3510000D03*
X130612944Y5207056D03*
X130612944Y1812944D03*
X132310000Y5910000D03*
D16*
X132310000Y3510000D03*
D15*
X132310000Y1110000D03*
X134007056Y5207056D03*
X134007056Y1812944D03*
X134710000Y3510000D03*
G04 #@! TD*
D18*
G04 #@! TO.C,M4*
X73935000Y62685000D03*
X72735000Y62685000D03*
X75135000Y62685000D03*
X76335000Y62685000D03*
X69875000Y77110000D03*
X68875000Y77110000D03*
G04 #@! TD*
D24*
G04 #@! TO.C,F2*
X54360000Y22610000D03*
G36*
G01*
X55704990Y21710000D02*
X55014990Y21710000D01*
G75*
G02*
X54784990Y21940000I0J230000D01*
G01*
X54784990Y23280000D01*
G75*
G02*
X55014990Y23510000I230000J0D01*
G01*
X55704990Y23510000D01*
G75*
G02*
X55934990Y23280000I0J-230000D01*
G01*
X55934990Y21940000D01*
G75*
G02*
X55704990Y21710000I-230000J0D01*
G01*
G37*
G36*
G01*
X58605010Y21710000D02*
X57915010Y21710000D01*
G75*
G02*
X57685010Y21940000I0J230000D01*
G01*
X57685010Y23280000D01*
G75*
G02*
X57915010Y23510000I230000J0D01*
G01*
X58605010Y23510000D01*
G75*
G02*
X58835010Y23280000I0J-230000D01*
G01*
X58835010Y21940000D01*
G75*
G02*
X58605010Y21710000I-230000J0D01*
G01*
G37*
X59260000Y22610000D03*
G04 #@! TD*
D29*
G04 #@! TO.C,J6*
X133960000Y37910000D03*
D30*
X131420000Y37910000D03*
X128880000Y37910000D03*
X126340000Y37910000D03*
X123800000Y37910000D03*
X121260000Y37910000D03*
G04 #@! TD*
D31*
G04 #@! TO.C,U3*
X108013250Y75440000D03*
X108013250Y52580000D03*
D32*
X106133250Y68952500D03*
X106133250Y59110000D03*
X104863250Y59110000D03*
X103593250Y59110000D03*
X102323250Y59110000D03*
D24*
X95313250Y70360000D03*
D32*
X102323250Y68952500D03*
X103593250Y68952500D03*
D24*
X95313250Y67820000D03*
D32*
X104863250Y68952500D03*
D24*
X95313250Y65280000D03*
X95313250Y62740000D03*
X95313250Y60200000D03*
X95313250Y57660000D03*
G04 #@! TD*
D22*
G04 #@! TO.C,BT1*
X127810000Y21610142D03*
X127810000Y29110000D03*
G04 #@! TD*
M02*
