G04 #@! TF.GenerationSoftware,KiCad,Pcbnew,8.0.9-8.0.9-0~ubuntu24.04.1*
G04 #@! TF.CreationDate,2026-01-21T13:17:12+00:00*
G04 #@! TF.ProjectId,uaefi,75616566-692e-46b6-9963-61645f706362,E*
G04 #@! TF.SameCoordinates,Original*
G04 #@! TF.FileFunction,Paste,Top*
G04 #@! TF.FilePolarity,Positive*
%FSLAX46Y46*%
G04 Gerber Fmt 4.6, Leading zero omitted, Abs format (unit mm)*
G04 Created by KiCad (PCBNEW 8.0.9-8.0.9-0~ubuntu24.04.1) date 2026-01-21 13:17:12*
%MOMM*%
%LPD*%
G01*
G04 APERTURE LIST*
%ADD10O,0.000001X0.000001*%
%ADD11R,1.300000X1.000000*%
%ADD12R,1.950000X1.160000*%
%ADD13R,2.000000X0.650000*%
%ADD14R,0.300000X1.150000*%
%ADD15R,0.690000X1.350000*%
G04 APERTURE END LIST*
G04 #@! TO.C,R40*
G36*
G01*
X66832513Y83249999D02*
X65582513Y83249999D01*
G75*
G02*
X65482513Y83349999I0J100000D01*
G01*
X65482513Y84149999D01*
G75*
G02*
X65582513Y84249999I100000J0D01*
G01*
X66832513Y84249999D01*
G75*
G02*
X66932513Y84149999I0J-100000D01*
G01*
X66932513Y83349999D01*
G75*
G02*
X66832513Y83249999I-100000J0D01*
G01*
G37*
G36*
G01*
X66832513Y85150021D02*
X65582513Y85150021D01*
G75*
G02*
X65482513Y85250021I0J100000D01*
G01*
X65482513Y86050021D01*
G75*
G02*
X65582513Y86150021I100000J0D01*
G01*
X66832513Y86150021D01*
G75*
G02*
X66932513Y86050021I0J-100000D01*
G01*
X66932513Y85250021D01*
G75*
G02*
X66832513Y85150021I-100000J0D01*
G01*
G37*
G04 #@! TD*
G04 #@! TO.C,C24*
G36*
G01*
X43070000Y10225001D02*
X43750000Y10225001D01*
G75*
G02*
X43835000Y10140001I0J-85000D01*
G01*
X43835000Y9460001D01*
G75*
G02*
X43750000Y9375001I-85000J0D01*
G01*
X43070000Y9375001D01*
G75*
G02*
X42985000Y9460001I0J85000D01*
G01*
X42985000Y10140001D01*
G75*
G02*
X43070000Y10225001I85000J0D01*
G01*
G37*
G36*
G01*
X43070000Y8644999D02*
X43750000Y8644999D01*
G75*
G02*
X43835000Y8559999I0J-85000D01*
G01*
X43835000Y7879999D01*
G75*
G02*
X43750000Y7794999I-85000J0D01*
G01*
X43070000Y7794999D01*
G75*
G02*
X42985000Y7879999I0J85000D01*
G01*
X42985000Y8559999D01*
G75*
G02*
X43070000Y8644999I85000J0D01*
G01*
G37*
G04 #@! TD*
G04 #@! TO.C,R39*
G36*
G01*
X104487514Y88145000D02*
X104487514Y86895000D01*
G75*
G02*
X104387514Y86795000I-100000J0D01*
G01*
X103587514Y86795000D01*
G75*
G02*
X103487514Y86895000I0J100000D01*
G01*
X103487514Y88145000D01*
G75*
G02*
X103587514Y88245000I100000J0D01*
G01*
X104387514Y88245000D01*
G75*
G02*
X104487514Y88145000I0J-100000D01*
G01*
G37*
G36*
G01*
X102587492Y88145000D02*
X102587492Y86895000D01*
G75*
G02*
X102487492Y86795000I-100000J0D01*
G01*
X101687492Y86795000D01*
G75*
G02*
X101587492Y86895000I0J100000D01*
G01*
X101587492Y88145000D01*
G75*
G02*
X101687492Y88245000I100000J0D01*
G01*
X102487492Y88245000D01*
G75*
G02*
X102587492Y88145000I0J-100000D01*
G01*
G37*
G04 #@! TD*
G04 #@! TO.C,C26*
G36*
G01*
X59070000Y6725001D02*
X59750000Y6725001D01*
G75*
G02*
X59835000Y6640001I0J-85000D01*
G01*
X59835000Y5960001D01*
G75*
G02*
X59750000Y5875001I-85000J0D01*
G01*
X59070000Y5875001D01*
G75*
G02*
X58985000Y5960001I0J85000D01*
G01*
X58985000Y6640001D01*
G75*
G02*
X59070000Y6725001I85000J0D01*
G01*
G37*
G36*
G01*
X59070000Y5144999D02*
X59750000Y5144999D01*
G75*
G02*
X59835000Y5059999I0J-85000D01*
G01*
X59835000Y4379999D01*
G75*
G02*
X59750000Y4294999I-85000J0D01*
G01*
X59070000Y4294999D01*
G75*
G02*
X58985000Y4379999I0J85000D01*
G01*
X58985000Y5059999D01*
G75*
G02*
X59070000Y5144999I85000J0D01*
G01*
G37*
G04 #@! TD*
G04 #@! TO.C,C13*
G36*
G01*
X52195000Y16185001D02*
X52875000Y16185001D01*
G75*
G02*
X52960000Y16100001I0J-85000D01*
G01*
X52960000Y15420001D01*
G75*
G02*
X52875000Y15335001I-85000J0D01*
G01*
X52195000Y15335001D01*
G75*
G02*
X52110000Y15420001I0J85000D01*
G01*
X52110000Y16100001D01*
G75*
G02*
X52195000Y16185001I85000J0D01*
G01*
G37*
G36*
G01*
X52195000Y14604999D02*
X52875000Y14604999D01*
G75*
G02*
X52960000Y14519999I0J-85000D01*
G01*
X52960000Y13839999D01*
G75*
G02*
X52875000Y13754999I-85000J0D01*
G01*
X52195000Y13754999D01*
G75*
G02*
X52110000Y13839999I0J85000D01*
G01*
X52110000Y14519999D01*
G75*
G02*
X52195000Y14604999I85000J0D01*
G01*
G37*
G04 #@! TD*
G04 #@! TO.C,F4*
G36*
G01*
X53310000Y18115010D02*
X53310000Y18805010D01*
G75*
G02*
X53540000Y19035010I230000J0D01*
G01*
X54880000Y19035010D01*
G75*
G02*
X55110000Y18805010I0J-230000D01*
G01*
X55110000Y18115010D01*
G75*
G02*
X54880000Y17885010I-230000J0D01*
G01*
X53540000Y17885010D01*
G75*
G02*
X53310000Y18115010I0J230000D01*
G01*
G37*
G36*
G01*
X53310000Y15214990D02*
X53310000Y15904990D01*
G75*
G02*
X53540000Y16134990I230000J0D01*
G01*
X54880000Y16134990D01*
G75*
G02*
X55110000Y15904990I0J-230000D01*
G01*
X55110000Y15214990D01*
G75*
G02*
X54880000Y14984990I-230000J0D01*
G01*
X53540000Y14984990D01*
G75*
G02*
X53310000Y15214990I0J230000D01*
G01*
G37*
G04 #@! TD*
G04 #@! TO.C,R37*
G36*
G01*
X67672513Y86120001D02*
X68922513Y86120001D01*
G75*
G02*
X69022513Y86020001I0J-100000D01*
G01*
X69022513Y85220001D01*
G75*
G02*
X68922513Y85120001I-100000J0D01*
G01*
X67672513Y85120001D01*
G75*
G02*
X67572513Y85220001I0J100000D01*
G01*
X67572513Y86020001D01*
G75*
G02*
X67672513Y86120001I100000J0D01*
G01*
G37*
G36*
G01*
X67672513Y84219979D02*
X68922513Y84219979D01*
G75*
G02*
X69022513Y84119979I0J-100000D01*
G01*
X69022513Y83319979D01*
G75*
G02*
X68922513Y83219979I-100000J0D01*
G01*
X67672513Y83219979D01*
G75*
G02*
X67572513Y83319979I0J100000D01*
G01*
X67572513Y84119979D01*
G75*
G02*
X67672513Y84219979I100000J0D01*
G01*
G37*
G04 #@! TD*
G04 #@! TO.C,F9*
G36*
G01*
X62072513Y35953750D02*
X62072513Y36466250D01*
G75*
G02*
X62291263Y36685000I218750J0D01*
G01*
X62728763Y36685000D01*
G75*
G02*
X62947513Y36466250I0J-218750D01*
G01*
X62947513Y35953750D01*
G75*
G02*
X62728763Y35735000I-218750J0D01*
G01*
X62291263Y35735000D01*
G75*
G02*
X62072513Y35953750I0J218750D01*
G01*
G37*
G36*
G01*
X63647513Y35953750D02*
X63647513Y36466250D01*
G75*
G02*
X63866263Y36685000I218750J0D01*
G01*
X64303763Y36685000D01*
G75*
G02*
X64522513Y36466250I0J-218750D01*
G01*
X64522513Y35953750D01*
G75*
G02*
X64303763Y35735000I-218750J0D01*
G01*
X63866263Y35735000D01*
G75*
G02*
X63647513Y35953750I0J218750D01*
G01*
G37*
G04 #@! TD*
G04 #@! TO.C,C11*
G36*
G01*
X37070000Y18525001D02*
X37750000Y18525001D01*
G75*
G02*
X37835000Y18440001I0J-85000D01*
G01*
X37835000Y17760001D01*
G75*
G02*
X37750000Y17675001I-85000J0D01*
G01*
X37070000Y17675001D01*
G75*
G02*
X36985000Y17760001I0J85000D01*
G01*
X36985000Y18440001D01*
G75*
G02*
X37070000Y18525001I85000J0D01*
G01*
G37*
G36*
G01*
X37070000Y16944999D02*
X37750000Y16944999D01*
G75*
G02*
X37835000Y16859999I0J-85000D01*
G01*
X37835000Y16179999D01*
G75*
G02*
X37750000Y16094999I-85000J0D01*
G01*
X37070000Y16094999D01*
G75*
G02*
X36985000Y16179999I0J85000D01*
G01*
X36985000Y16859999D01*
G75*
G02*
X37070000Y16944999I85000J0D01*
G01*
G37*
G04 #@! TD*
G04 #@! TO.C,F6*
G36*
G01*
X61075013Y51703750D02*
X61075013Y52216250D01*
G75*
G02*
X61293763Y52435000I218750J0D01*
G01*
X61731263Y52435000D01*
G75*
G02*
X61950013Y52216250I0J-218750D01*
G01*
X61950013Y51703750D01*
G75*
G02*
X61731263Y51485000I-218750J0D01*
G01*
X61293763Y51485000D01*
G75*
G02*
X61075013Y51703750I0J218750D01*
G01*
G37*
G36*
G01*
X62650013Y51703750D02*
X62650013Y52216250D01*
G75*
G02*
X62868763Y52435000I218750J0D01*
G01*
X63306263Y52435000D01*
G75*
G02*
X63525013Y52216250I0J-218750D01*
G01*
X63525013Y51703750D01*
G75*
G02*
X63306263Y51485000I-218750J0D01*
G01*
X62868763Y51485000D01*
G75*
G02*
X62650013Y51703750I0J218750D01*
G01*
G37*
G04 #@! TD*
G04 #@! TO.C,F10*
G36*
G01*
X62015013Y34013750D02*
X62015013Y34526250D01*
G75*
G02*
X62233763Y34745000I218750J0D01*
G01*
X62671263Y34745000D01*
G75*
G02*
X62890013Y34526250I0J-218750D01*
G01*
X62890013Y34013750D01*
G75*
G02*
X62671263Y33795000I-218750J0D01*
G01*
X62233763Y33795000D01*
G75*
G02*
X62015013Y34013750I0J218750D01*
G01*
G37*
G36*
G01*
X63590013Y34013750D02*
X63590013Y34526250D01*
G75*
G02*
X63808763Y34745000I218750J0D01*
G01*
X64246263Y34745000D01*
G75*
G02*
X64465013Y34526250I0J-218750D01*
G01*
X64465013Y34013750D01*
G75*
G02*
X64246263Y33795000I-218750J0D01*
G01*
X63808763Y33795000D01*
G75*
G02*
X63590013Y34013750I0J218750D01*
G01*
G37*
G04 #@! TD*
G04 #@! TO.C,F3*
G36*
G01*
X55510000Y18115010D02*
X55510000Y18805010D01*
G75*
G02*
X55740000Y19035010I230000J0D01*
G01*
X57080000Y19035010D01*
G75*
G02*
X57310000Y18805010I0J-230000D01*
G01*
X57310000Y18115010D01*
G75*
G02*
X57080000Y17885010I-230000J0D01*
G01*
X55740000Y17885010D01*
G75*
G02*
X55510000Y18115010I0J230000D01*
G01*
G37*
G36*
G01*
X55510000Y15214990D02*
X55510000Y15904990D01*
G75*
G02*
X55740000Y16134990I230000J0D01*
G01*
X57080000Y16134990D01*
G75*
G02*
X57310000Y15904990I0J-230000D01*
G01*
X57310000Y15214990D01*
G75*
G02*
X57080000Y14984990I-230000J0D01*
G01*
X55740000Y14984990D01*
G75*
G02*
X55510000Y15214990I0J230000D01*
G01*
G37*
G04 #@! TD*
G04 #@! TO.C,C25*
G36*
G01*
X43750000Y4294999D02*
X43070000Y4294999D01*
G75*
G02*
X42985000Y4379999I0J85000D01*
G01*
X42985000Y5059999D01*
G75*
G02*
X43070000Y5144999I85000J0D01*
G01*
X43750000Y5144999D01*
G75*
G02*
X43835000Y5059999I0J-85000D01*
G01*
X43835000Y4379999D01*
G75*
G02*
X43750000Y4294999I-85000J0D01*
G01*
G37*
G36*
G01*
X43750000Y5875001D02*
X43070000Y5875001D01*
G75*
G02*
X42985000Y5960001I0J85000D01*
G01*
X42985000Y6640001D01*
G75*
G02*
X43070000Y6725001I85000J0D01*
G01*
X43750000Y6725001D01*
G75*
G02*
X43835000Y6640001I0J-85000D01*
G01*
X43835000Y5960001D01*
G75*
G02*
X43750000Y5875001I-85000J0D01*
G01*
G37*
G04 #@! TD*
G04 #@! TO.C,F8*
G36*
G01*
X62042513Y37863750D02*
X62042513Y38376250D01*
G75*
G02*
X62261263Y38595000I218750J0D01*
G01*
X62698763Y38595000D01*
G75*
G02*
X62917513Y38376250I0J-218750D01*
G01*
X62917513Y37863750D01*
G75*
G02*
X62698763Y37645000I-218750J0D01*
G01*
X62261263Y37645000D01*
G75*
G02*
X62042513Y37863750I0J218750D01*
G01*
G37*
G36*
G01*
X63617513Y37863750D02*
X63617513Y38376250D01*
G75*
G02*
X63836263Y38595000I218750J0D01*
G01*
X64273763Y38595000D01*
G75*
G02*
X64492513Y38376250I0J-218750D01*
G01*
X64492513Y37863750D01*
G75*
G02*
X64273763Y37645000I-218750J0D01*
G01*
X63836263Y37645000D01*
G75*
G02*
X63617513Y37863750I0J218750D01*
G01*
G37*
G04 #@! TD*
D10*
G04 #@! TO.C,M7*
X66710003Y48309999D03*
G04 #@! TD*
G04 #@! TO.C,R9*
G36*
G01*
X52145000Y19120000D02*
X52925000Y19120000D01*
G75*
G02*
X52995000Y19050000I0J-70000D01*
G01*
X52995000Y18490000D01*
G75*
G02*
X52925000Y18420000I-70000J0D01*
G01*
X52145000Y18420000D01*
G75*
G02*
X52075000Y18490000I0J70000D01*
G01*
X52075000Y19050000D01*
G75*
G02*
X52145000Y19120000I70000J0D01*
G01*
G37*
G36*
G01*
X52145000Y17520000D02*
X52925000Y17520000D01*
G75*
G02*
X52995000Y17450000I0J-70000D01*
G01*
X52995000Y16890000D01*
G75*
G02*
X52925000Y16820000I-70000J0D01*
G01*
X52145000Y16820000D01*
G75*
G02*
X52075000Y16890000I0J70000D01*
G01*
X52075000Y17450000D01*
G75*
G02*
X52145000Y17520000I70000J0D01*
G01*
G37*
G04 #@! TD*
G04 #@! TO.C,F7*
G36*
G01*
X60975013Y47723750D02*
X60975013Y48236250D01*
G75*
G02*
X61193763Y48455000I218750J0D01*
G01*
X61631263Y48455000D01*
G75*
G02*
X61850013Y48236250I0J-218750D01*
G01*
X61850013Y47723750D01*
G75*
G02*
X61631263Y47505000I-218750J0D01*
G01*
X61193763Y47505000D01*
G75*
G02*
X60975013Y47723750I0J218750D01*
G01*
G37*
G36*
G01*
X62550013Y47723750D02*
X62550013Y48236250D01*
G75*
G02*
X62768763Y48455000I218750J0D01*
G01*
X63206263Y48455000D01*
G75*
G02*
X63425013Y48236250I0J-218750D01*
G01*
X63425013Y47723750D01*
G75*
G02*
X63206263Y47505000I-218750J0D01*
G01*
X62768763Y47505000D01*
G75*
G02*
X62550013Y47723750I0J218750D01*
G01*
G37*
G04 #@! TD*
D11*
G04 #@! TO.C,U5*
X134810000Y14810000D03*
X134810000Y16310000D03*
X134810000Y17810000D03*
X134810000Y19310000D03*
X134810000Y20810000D03*
X134810000Y22310000D03*
X134810000Y23810000D03*
X134810000Y25310000D03*
X134810000Y26810000D03*
X134810000Y28310000D03*
X134810000Y29810000D03*
X134810000Y31310000D03*
X134810000Y32810000D03*
X122110000Y32810000D03*
X122110000Y31310000D03*
X122110000Y29810000D03*
X122110000Y28310000D03*
X122110000Y26810000D03*
X122110000Y25310000D03*
X122110000Y23810000D03*
X122110000Y22310000D03*
X122110000Y20810000D03*
X122110000Y19310000D03*
X122110000Y17810000D03*
X122110000Y16310000D03*
X122110000Y14810000D03*
G04 #@! TD*
G04 #@! TO.C,R35*
G36*
G01*
X99447514Y86005000D02*
X99447514Y84755000D01*
G75*
G02*
X99347514Y84655000I-100000J0D01*
G01*
X98547514Y84655000D01*
G75*
G02*
X98447514Y84755000I0J100000D01*
G01*
X98447514Y86005000D01*
G75*
G02*
X98547514Y86105000I100000J0D01*
G01*
X99347514Y86105000D01*
G75*
G02*
X99447514Y86005000I0J-100000D01*
G01*
G37*
G36*
G01*
X97547492Y86005000D02*
X97547492Y84755000D01*
G75*
G02*
X97447492Y84655000I-100000J0D01*
G01*
X96647492Y84655000D01*
G75*
G02*
X96547492Y84755000I0J100000D01*
G01*
X96547492Y86005000D01*
G75*
G02*
X96647492Y86105000I100000J0D01*
G01*
X97447492Y86105000D01*
G75*
G02*
X97547492Y86005000I0J-100000D01*
G01*
G37*
G04 #@! TD*
G04 #@! TO.C,F1*
G36*
G01*
X57710000Y18115010D02*
X57710000Y18805010D01*
G75*
G02*
X57940000Y19035010I230000J0D01*
G01*
X59280000Y19035010D01*
G75*
G02*
X59510000Y18805010I0J-230000D01*
G01*
X59510000Y18115010D01*
G75*
G02*
X59280000Y17885010I-230000J0D01*
G01*
X57940000Y17885010D01*
G75*
G02*
X57710000Y18115010I0J230000D01*
G01*
G37*
G36*
G01*
X57710000Y15214990D02*
X57710000Y15904990D01*
G75*
G02*
X57940000Y16134990I230000J0D01*
G01*
X59280000Y16134990D01*
G75*
G02*
X59510000Y15904990I0J-230000D01*
G01*
X59510000Y15214990D01*
G75*
G02*
X59280000Y14984990I-230000J0D01*
G01*
X57940000Y14984990D01*
G75*
G02*
X57710000Y15214990I0J230000D01*
G01*
G37*
G04 #@! TD*
G04 #@! TO.C,R4*
G36*
G01*
X78659609Y6029610D02*
X79909609Y6029610D01*
G75*
G02*
X80009609Y5929610I0J-100000D01*
G01*
X80009609Y5129610D01*
G75*
G02*
X79909609Y5029610I-100000J0D01*
G01*
X78659609Y5029610D01*
G75*
G02*
X78559609Y5129610I0J100000D01*
G01*
X78559609Y5929610D01*
G75*
G02*
X78659609Y6029610I100000J0D01*
G01*
G37*
G36*
G01*
X78659609Y4129588D02*
X79909609Y4129588D01*
G75*
G02*
X80009609Y4029588I0J-100000D01*
G01*
X80009609Y3229588D01*
G75*
G02*
X79909609Y3129588I-100000J0D01*
G01*
X78659609Y3129588D01*
G75*
G02*
X78559609Y3229588I0J100000D01*
G01*
X78559609Y4029588D01*
G75*
G02*
X78659609Y4129588I100000J0D01*
G01*
G37*
G04 #@! TD*
G04 #@! TO.C,R38*
G36*
G01*
X96537491Y86655000D02*
X96537491Y87905000D01*
G75*
G02*
X96637491Y88005000I100000J0D01*
G01*
X97437491Y88005000D01*
G75*
G02*
X97537491Y87905000I0J-100000D01*
G01*
X97537491Y86655000D01*
G75*
G02*
X97437491Y86555000I-100000J0D01*
G01*
X96637491Y86555000D01*
G75*
G02*
X96537491Y86655000I0J100000D01*
G01*
G37*
G36*
G01*
X98437513Y86655000D02*
X98437513Y87905000D01*
G75*
G02*
X98537513Y88005000I100000J0D01*
G01*
X99337513Y88005000D01*
G75*
G02*
X99437513Y87905000I0J-100000D01*
G01*
X99437513Y86655000D01*
G75*
G02*
X99337513Y86555000I-100000J0D01*
G01*
X98537513Y86555000D01*
G75*
G02*
X98437513Y86655000I0J100000D01*
G01*
G37*
G04 #@! TD*
G04 #@! TO.C,R36*
G36*
G01*
X101547512Y84785000D02*
X101547512Y86035000D01*
G75*
G02*
X101647512Y86135000I100000J0D01*
G01*
X102447512Y86135000D01*
G75*
G02*
X102547512Y86035000I0J-100000D01*
G01*
X102547512Y84785000D01*
G75*
G02*
X102447512Y84685000I-100000J0D01*
G01*
X101647512Y84685000D01*
G75*
G02*
X101547512Y84785000I0J100000D01*
G01*
G37*
G36*
G01*
X103447534Y84785000D02*
X103447534Y86035000D01*
G75*
G02*
X103547534Y86135000I100000J0D01*
G01*
X104347534Y86135000D01*
G75*
G02*
X104447534Y86035000I0J-100000D01*
G01*
X104447534Y84785000D01*
G75*
G02*
X104347534Y84685000I-100000J0D01*
G01*
X103547534Y84685000D01*
G75*
G02*
X103447534Y84785000I0J100000D01*
G01*
G37*
G04 #@! TD*
G04 #@! TO.C,F5*
G36*
G01*
X61032513Y49613750D02*
X61032513Y50126250D01*
G75*
G02*
X61251263Y50345000I218750J0D01*
G01*
X61688763Y50345000D01*
G75*
G02*
X61907513Y50126250I0J-218750D01*
G01*
X61907513Y49613750D01*
G75*
G02*
X61688763Y49395000I-218750J0D01*
G01*
X61251263Y49395000D01*
G75*
G02*
X61032513Y49613750I0J218750D01*
G01*
G37*
G36*
G01*
X62607513Y49613750D02*
X62607513Y50126250D01*
G75*
G02*
X62826263Y50345000I218750J0D01*
G01*
X63263763Y50345000D01*
G75*
G02*
X63482513Y50126250I0J-218750D01*
G01*
X63482513Y49613750D01*
G75*
G02*
X63263763Y49395000I-218750J0D01*
G01*
X62826263Y49395000D01*
G75*
G02*
X62607513Y49613750I0J218750D01*
G01*
G37*
G04 #@! TD*
D12*
G04 #@! TO.C,U1*
X43685000Y20430000D03*
X43685000Y18970000D03*
X43685000Y17510000D03*
X43685000Y16050000D03*
X43685000Y14590000D03*
X45935000Y20430000D03*
X45935000Y18970000D03*
X45935000Y17510000D03*
X45935000Y16050000D03*
X45935000Y14590000D03*
D13*
X40010000Y20010000D03*
X40010000Y19010000D03*
X40010000Y18010000D03*
X40010000Y17010000D03*
X40010000Y16010000D03*
X40010000Y15010000D03*
X49610000Y15010000D03*
X49610000Y16010000D03*
X49610000Y17010000D03*
X49610000Y18010000D03*
X49610000Y19010000D03*
X49610000Y20010000D03*
G04 #@! TD*
D12*
G04 #@! TO.C,U2*
X50310000Y10970000D03*
X50310000Y9510000D03*
X50310000Y8050000D03*
X50310000Y6590000D03*
X50310000Y5130000D03*
X52560000Y10970000D03*
X52560000Y9510000D03*
X52560000Y8050000D03*
X52560000Y6590000D03*
X52560000Y5130000D03*
D13*
X46635000Y10550000D03*
X46635000Y9550000D03*
X46635000Y8550000D03*
X46635000Y7550000D03*
X46635000Y6550000D03*
X46635000Y5550000D03*
X56235000Y5550000D03*
X56235000Y6550000D03*
X56235000Y7550000D03*
X56235000Y8550000D03*
X56235000Y9550000D03*
X56235000Y10550000D03*
G04 #@! TD*
D14*
G04 #@! TO.C,J9*
X82460000Y7680000D03*
X83260000Y7680000D03*
X84560000Y7680000D03*
X85560000Y7680000D03*
X86060000Y7680000D03*
X87060000Y7680000D03*
X88360000Y7680000D03*
X89160000Y7680000D03*
X88860000Y7680000D03*
X88060000Y7680000D03*
X87560000Y7680000D03*
X86560000Y7680000D03*
X85060000Y7680000D03*
X84060000Y7680000D03*
X83560000Y7680000D03*
X82760000Y7680000D03*
G04 #@! TD*
G04 #@! TO.C,F2*
G36*
G01*
X55704990Y21710000D02*
X55014990Y21710000D01*
G75*
G02*
X54784990Y21940000I0J230000D01*
G01*
X54784990Y23280000D01*
G75*
G02*
X55014990Y23510000I230000J0D01*
G01*
X55704990Y23510000D01*
G75*
G02*
X55934990Y23280000I0J-230000D01*
G01*
X55934990Y21940000D01*
G75*
G02*
X55704990Y21710000I-230000J0D01*
G01*
G37*
G36*
G01*
X58605010Y21710000D02*
X57915010Y21710000D01*
G75*
G02*
X57685010Y21940000I0J230000D01*
G01*
X57685010Y23280000D01*
G75*
G02*
X57915010Y23510000I230000J0D01*
G01*
X58605010Y23510000D01*
G75*
G02*
X58835010Y23280000I0J-230000D01*
G01*
X58835010Y21940000D01*
G75*
G02*
X58605010Y21710000I-230000J0D01*
G01*
G37*
G04 #@! TD*
G04 #@! TO.C,R14*
G36*
G01*
X59020000Y9560000D02*
X59800000Y9560000D01*
G75*
G02*
X59870000Y9490000I0J-70000D01*
G01*
X59870000Y8930000D01*
G75*
G02*
X59800000Y8860000I-70000J0D01*
G01*
X59020000Y8860000D01*
G75*
G02*
X58950000Y8930000I0J70000D01*
G01*
X58950000Y9490000D01*
G75*
G02*
X59020000Y9560000I70000J0D01*
G01*
G37*
G36*
G01*
X59020000Y7960000D02*
X59800000Y7960000D01*
G75*
G02*
X59870000Y7890000I0J-70000D01*
G01*
X59870000Y7330000D01*
G75*
G02*
X59800000Y7260000I-70000J0D01*
G01*
X59020000Y7260000D01*
G75*
G02*
X58950000Y7330000I0J70000D01*
G01*
X58950000Y7890000D01*
G75*
G02*
X59020000Y7960000I70000J0D01*
G01*
G37*
G04 #@! TD*
D15*
G04 #@! TO.C,U3*
X106133250Y68952500D03*
X106133250Y59110000D03*
X104863250Y59110000D03*
X103593250Y59110000D03*
X102323250Y59110000D03*
X102323250Y68952500D03*
X103593250Y68952500D03*
X104863250Y68952500D03*
G04 #@! TD*
G04 #@! TO.C,C12*
G36*
G01*
X37750000Y12994999D02*
X37070000Y12994999D01*
G75*
G02*
X36985000Y13079999I0J85000D01*
G01*
X36985000Y13759999D01*
G75*
G02*
X37070000Y13844999I85000J0D01*
G01*
X37750000Y13844999D01*
G75*
G02*
X37835000Y13759999I0J-85000D01*
G01*
X37835000Y13079999D01*
G75*
G02*
X37750000Y12994999I-85000J0D01*
G01*
G37*
G36*
G01*
X37750000Y14575001D02*
X37070000Y14575001D01*
G75*
G02*
X36985000Y14660001I0J85000D01*
G01*
X36985000Y15340001D01*
G75*
G02*
X37070000Y15425001I85000J0D01*
G01*
X37750000Y15425001D01*
G75*
G02*
X37835000Y15340001I0J-85000D01*
G01*
X37835000Y14660001D01*
G75*
G02*
X37750000Y14575001I-85000J0D01*
G01*
G37*
G04 #@! TD*
M02*
