M48
; DRILL file {KiCad 8.0.9-8.0.9-0~ubuntu24.04.1} date 2025-11-12T12:48:00+0000
; FORMAT={2:4/ absolute / inch / suppress leading zeros}
; #@! TF.CreationDate,2025-11-12T12:48:00+00:00
; #@! TF.GenerationSoftware,Kicad,Pcbnew,8.0.9-8.0.9-0~ubuntu24.04.1
; #@! TF.FileFunction,MixedPlating,1,4
FMAT,2
INCH,TZ
; #@! TA.AperFunction,Plated,PTH,ComponentDrill
T1C0.0118
; #@! TA.AperFunction,Plated,PTH,ViaDrill
T2C0.0157
; #@! TA.AperFunction,Plated,PTH,ComponentDrill
T3C0.0197
; #@! TA.AperFunction,Plated,PTH,ComponentDrill
T4C0.0236
; #@! TA.AperFunction,Plated,PTH,ComponentDrill
T5C0.0276
; #@! TA.AperFunction,Plated,PTH,ViaDrill
T6C0.0315
; #@! TA.AperFunction,Plated,PTH,ComponentDrill
T7C0.0320
; #@! TA.AperFunction,Plated,PTH,ComponentDrill
T8C0.0335
; #@! TA.AperFunction,Plated,PTH,ComponentDrill
T9C0.0394
; #@! TA.AperFunction,Plated,PTH,ComponentDrill
T10C0.0512
; #@! TA.AperFunction,Plated,PTH,ComponentDrill
T11C0.1200
; #@! TA.AperFunction,Plated,PTH,ComponentDrill
T12C0.1260
; #@! TA.AperFunction,NonPlated,NPTH,ComponentDrill
T13C0.0256
; #@! TA.AperFunction,NonPlated,NPTH,ComponentDrill
T14C0.0591
; #@! TA.AperFunction,NonPlated,NPTH,ComponentDrill
T15C0.0906
; #@! TA.AperFunction,NonPlated,NPTH,ComponentDrill
T16C0.1299
%
G90
G05
T1
X27116Y30358
X27510Y30358
X28636Y24679
X29108Y24679
X29581Y24679
X30053Y24679
X30368Y2297
X30368Y1904
X31467Y30358
X31860Y30358
X32130Y14610
X32130Y14295
X32130Y13980
X32130Y13665
X32130Y13350
X32130Y13035
X32130Y12720
X32130Y12406
X32130Y12091
X32130Y11776
X32130Y11461
X32130Y11146
X32130Y10831
X32130Y10516
X32130Y9886
X32130Y9335
X32130Y9020
X32130Y8705
X32130Y8390
X32130Y8075
X32130Y7760
X32130Y16303
X32130Y10201
X32287Y4925
X32602Y4925
X32917Y4925
X32986Y24679
X33232Y4925
X33459Y24679
X33547Y4925
X33862Y4925
X33931Y24679
X34177Y4925
X34404Y24679
X34492Y4925
X34728Y18862
X34807Y4925
X35122Y4925
X35201Y18862
X35437Y4925
X35673Y18862
X35752Y4925
X36146Y18862
X36618Y18862
X36697Y4925
X37012Y4925
X37091Y18862
X37327Y4925
X37563Y18862
X37642Y4925
X37957Y4925
X38035Y18862
X38272Y4925
X38508Y18862
X38587Y4925
X38902Y4925
X38980Y18862
X39217Y4925
X39453Y18862
X39925Y18862
X40398Y18862
X40870Y18862
X40909Y4925
X41343Y18862
X41815Y18862
X41972Y4925
X42287Y18862
X42366Y4925
X42760Y18862
X43232Y18862
X43705Y18862
X44177Y18862
X45122Y18862
X45280Y17878
X45280Y17484
X45280Y13272
X45280Y12878
X45280Y12484
X45280Y12091
X45280Y11697
X45280Y11303
X45280Y10909
X45280Y10516
X45280Y9492
X45280Y9177
X45280Y7327
X45280Y6776
X45280Y4925
X48400Y15814
X48793Y15814
X49187Y15814
X50085Y15814
X50485Y15814
X51411Y26283
X51805Y26283
X52199Y26283
X52593Y26283
T2
X17508Y32872
X17701Y32484
X18882Y13831
X18882Y12618
X20004Y8311
X23665Y6697
X25219Y33965
X25471Y19642
X25475Y18898
X25487Y20433
X25723Y15004
X27609Y33988
X30043Y21224
X30201Y19059
X30634Y6815
X30641Y22673
X30732Y4177
X31402Y7602
X31461Y18114
X31559Y5173
X31638Y3926
X32848Y4175
X33350Y2445
X34167Y22720
X34256Y4571
X34256Y594
X34529Y2597
X38504Y3803
X39649Y33933
X39657Y34465
X40909Y358
X41303Y25319
X42012Y24059
X42786Y33557
X43547Y25870
X44217Y2406
X45398Y25319
X45555Y18429
X45555Y17012
X45988Y33194
X46570Y33185
X47130Y25870
X47209Y15490
X47253Y17566
X47445Y32470
X47494Y18154
X47917Y32445
X49243Y34280
X49936Y34178
X51251Y28091
X51805Y28479
X52199Y29131
X52771Y27563
T3
X448Y37996
X448Y1370
X724Y38664
X724Y37328
X724Y2038
X724Y702
X1393Y38941
X1393Y37051
X1393Y2315
X1393Y425
X2061Y38664
X2061Y37328
X2061Y2038
X2061Y702
X2337Y37996
X2337Y1370
X51146Y37996
X51146Y1382
X51422Y38664
X51422Y37328
X51422Y2050
X51422Y714
X52091Y38941
X52091Y37051
X52091Y2327
X52091Y437
X52759Y38664
X52759Y37328
X52759Y2050
X52759Y714
X53035Y37996
X53035Y1382
T5
X36736Y2169
X36736Y1539
X37425Y2484
X37425Y1854
X37425Y1224
T6
X14444Y11921
X16294Y25701
T7
X21402Y8902
X23075Y7661
X23075Y5732
X23331Y8902
X31214Y2553
X31214Y1053
X37525Y27701
X37525Y26701
X37525Y25701
X37525Y24701
X37525Y23701
X37525Y22701
T8
X46776Y5122
X46776Y4138
X46776Y3154
X46776Y2169
X46776Y1185
T9
X24089Y8380
X24089Y7652
X24089Y5703
X24089Y959
X29476Y18114
X30191Y8203
X30191Y5683
X30191Y4935
X30191Y3242
X30191Y781
X30476Y18114
X38705Y2957
X38705Y988
X47740Y14925
X48740Y14925
X49740Y14925
X50740Y14925
X51740Y14925
X52740Y14925
T10
X5562Y33951
X5562Y32770
X5562Y31589
X5562Y30407
X5562Y29226
X5562Y28045
X5562Y26864
X5562Y25683
X5562Y24502
X5562Y14837
X5562Y13656
X5562Y12474
X5562Y11293
X5562Y10112
X5562Y8931
X5562Y7750
X5562Y6569
X5562Y5388
X6940Y33360
X6940Y32179
X6940Y30998
X6940Y29817
X6940Y28636
X6940Y27455
X6940Y26274
X6940Y25093
X6940Y14246
X6940Y13065
X6940Y11884
X6940Y10703
X6940Y9522
X6940Y8341
X6940Y7159
X6940Y5978
X8515Y33360
X8515Y32179
X8515Y30998
X8515Y29817
X8515Y28636
X8515Y27455
X8515Y26274
X8515Y25093
X8515Y14246
X8515Y13065
X8515Y11884
X8515Y10703
X8515Y9522
X8515Y8341
X8515Y7159
X8515Y5978
X9893Y33951
X9893Y32770
X9893Y31589
X9893Y30407
X9893Y29226
X9893Y28045
X9893Y26864
X9893Y25683
X9893Y24502
X9893Y14837
X9893Y13656
X9893Y12474
X9893Y11293
X9893Y10112
X9893Y8931
X9893Y7750
X9893Y6569
X9893Y5388
T11
X42525Y29701
X42525Y20701
T12
X1393Y37996
X1393Y1370
X52091Y37996
X52091Y1382
T13
X32646Y2604
X34921Y2604
T14
X50319Y11461
X50319Y8508
T15
X7432Y35033
X7432Y23419
X7432Y15919
X7432Y4305
T16
X7727Y37002
X7727Y21451
X7727Y17888
X7727Y2337
T4
X32083Y3018G85X32083Y2585
G05
X32083Y1274G85X32083Y1037
G05
X35484Y3018G85X35484Y2585
G05
X35484Y1274G85X35484Y1037
G05
T5
X36825Y3291G85X37337Y3291
G05
X36825Y417G85X37337Y417
G05
M30
