M48
; DRILL file {KiCad 8.0.9-8.0.9-0~ubuntu24.04.1} date 2025-10-23T20:59:25+0000
; FORMAT={2:4/ absolute / inch / suppress leading zeros}
; #@! TF.CreationDate,2025-10-23T20:59:25+00:00
; #@! TF.GenerationSoftware,Kicad,Pcbnew,8.0.9-8.0.9-0~ubuntu24.04.1
; #@! TF.FileFunction,MixedPlating,1,4
FMAT,2
INCH,TZ
; #@! TA.AperFunction,Plated,PTH,ComponentDrill
T1C0.0118
; #@! TA.AperFunction,Plated,PTH,ComponentDrill
T2C0.0118
; #@! TA.AperFunction,Plated,PTH,ViaDrill
T3C0.0157
; #@! TA.AperFunction,Plated,PTH,ComponentDrill
T4C0.0197
; #@! TA.AperFunction,Plated,PTH,ComponentDrill
T5C0.0236
; #@! TA.AperFunction,Plated,PTH,ComponentDrill
T6C0.0276
; #@! TA.AperFunction,Plated,PTH,ViaDrill
T7C0.0315
; #@! TA.AperFunction,Plated,PTH,ComponentDrill
T8C0.0320
; #@! TA.AperFunction,Plated,PTH,ComponentDrill
T9C0.0335
; #@! TA.AperFunction,Plated,PTH,ComponentDrill
T10C0.0394
; #@! TA.AperFunction,Plated,PTH,ComponentDrill
T11C0.0512
; #@! TA.AperFunction,Plated,PTH,ViaDrill
T12C0.1181
; #@! TA.AperFunction,Plated,PTH,ComponentDrill
T13C0.1200
; #@! TA.AperFunction,Plated,PTH,ComponentDrill
T14C0.1260
; #@! TA.AperFunction,NonPlated,NPTH,ComponentDrill
T15C0.0256
; #@! TA.AperFunction,NonPlated,NPTH,ComponentDrill
T16C0.0591
; #@! TA.AperFunction,NonPlated,NPTH,ComponentDrill
T17C0.0906
; #@! TA.AperFunction,NonPlated,NPTH,ComponentDrill
T18C0.1299
%
G90
G05
T1
X25662Y18498
X25869Y18843
X26164Y18380
X27562Y18409
T2
X26082Y30358
X26475Y30358
X27601Y24679
X28074Y24679
X28546Y24679
X29019Y24679
X29334Y2297
X29334Y1904
X30432Y30358
X30826Y30358
X31095Y14610
X31095Y14295
X31095Y13980
X31095Y13665
X31095Y13350
X31095Y13035
X31095Y12720
X31095Y12406
X31095Y12091
X31095Y11776
X31095Y11461
X31095Y11146
X31095Y10831
X31095Y10516
X31095Y9886
X31095Y9335
X31095Y9020
X31095Y8705
X31095Y8390
X31095Y8075
X31095Y7760
X31095Y16303
X31095Y10201
X31253Y4925
X31568Y4925
X31883Y4925
X31952Y24679
X32198Y4925
X32424Y24679
X32513Y4925
X32828Y4925
X32897Y24679
X33143Y4925
X33369Y24679
X33458Y4925
X33694Y18862
X33773Y4925
X34088Y4925
X34166Y18862
X34403Y4925
X34639Y18862
X34718Y4925
X35111Y18862
X35584Y18862
X35662Y4925
X35977Y4925
X36056Y18862
X36292Y4925
X36529Y18862
X36607Y4925
X36922Y4925
X37001Y18862
X37237Y4925
X37473Y18862
X37552Y4925
X37867Y4925
X37946Y18862
X38182Y4925
X38418Y18862
X38891Y18862
X39363Y18862
X39836Y18862
X39875Y4925
X40308Y18862
X40781Y18862
X40938Y4925
X41253Y18862
X41332Y4925
X41725Y18862
X42198Y18862
X42670Y18862
X43143Y18862
X43645Y28793
X44019Y28793
X44038Y32219
X44088Y18862
X44245Y17878
X44245Y17484
X44245Y13272
X44245Y12878
X44245Y12484
X44245Y12091
X44245Y11697
X44245Y11303
X44245Y10909
X44245Y10516
X44245Y9492
X44245Y9177
X44245Y7327
X44245Y6776
X44245Y4925
X44393Y32219
X44393Y28793
X47365Y15814
X47759Y15814
X48153Y15814
X49050Y15814
X49450Y15814
X50377Y26283
X50771Y26283
X51164Y26283
X51558Y26283
T3
X10465Y1614
X11083Y18413
X11409Y19984
X12445Y3531
X13441Y17161
X13497Y32130
X13694Y36146
X14000Y3382
X14052Y7854
X14127Y6697
X14129Y7473
X14166Y5516
X14324Y32976
X14492Y29000
X14718Y8390
X15347Y8311
X15377Y6681
X15544Y32839
X15584Y3862
X15741Y31598
X15820Y4965
X15854Y30488
X15899Y8272
X16011Y5878
X16473Y32872
X16568Y3823
X16607Y2996
X16607Y2051
X16647Y8272
X16647Y5870
X16666Y32484
X16836Y5128
X16961Y17831
X17244Y4604
X17387Y8315
X17395Y5870
X17473Y1303
X17670Y30201
X17847Y13831
X17847Y11744
X17906Y4650
X17985Y2957
X18143Y8469
X18418Y2169
X18418Y1303
X18437Y37343
X18497Y4571
X18517Y8232
X18536Y5398
X18744Y38744
X18773Y9414
X18819Y24071
X18899Y26941
X18969Y8311
X19206Y4610
X19206Y2169
X19206Y1303
X19225Y6362
X19639Y9610
X19730Y28945
X19954Y1303
X19993Y2169
X20072Y31894
X20111Y34689
X20190Y6697
X20504Y19659
X20544Y4689
X20859Y19059
X21017Y1697
X21253Y27051
X21332Y30004
X21454Y391
X21548Y31520
X21765Y2602
X21804Y2192
X21883Y3035
X21981Y27602
X22040Y5083
X22080Y32169
X22119Y240
X22473Y1343
X22513Y594
X22631Y6697
X22729Y30024
X22785Y9068
X22828Y31382
X22985Y38744
X23281Y19961
X23300Y25535
X23300Y22760
X23300Y17760
X23300Y17209
X23497Y26165
X23768Y22291
X23773Y17748
X23930Y23232
X23945Y12854
X24122Y17992
X24185Y33965
X24437Y19642
X24441Y18898
X24453Y20433
X24599Y22760
X24639Y25535
X24689Y15004
X24776Y13524
X24780Y14260
X24954Y26343
X24993Y29571
X25013Y28075
X25426Y16776
X25606Y31693
X25925Y21752
X25997Y11717
X26095Y24295
X26213Y12992
X26335Y16755
X26575Y33988
X26824Y9984
X26909Y13469
X27080Y21776
X27395Y30870
X27478Y14263
X27611Y12602
X28043Y18886
X28221Y13508
X28268Y9870
X28300Y12720
X28576Y30831
X28587Y16476
X28655Y9531
X28694Y13311
X29009Y21224
X29048Y31933
X29166Y19059
X29343Y34984
X29429Y9039
X29433Y17295
X29442Y29531
X29442Y27209
X29481Y12406
X29481Y24728
X29481Y15831
X29481Y13980
X29481Y9453
X29599Y6815
X29606Y22673
X29615Y21657
X29639Y1461
X29653Y2687
X29678Y3783
X29698Y4177
X29875Y30870
X30267Y38622
X30288Y3724
X30367Y7602
X30426Y18114
X30525Y5173
X30603Y4300
X30603Y3926
X30702Y15122
X30702Y240
X30741Y17720
X30781Y6185
X30804Y9673
X31036Y3825
X31371Y2130
X31686Y30870
X31765Y1343
X31814Y4175
X32080Y20280
X32080Y280
X32316Y2445
X32513Y32130
X32539Y35831
X33103Y20319
X33132Y22210
X33221Y30831
X33221Y4571
X33221Y594
X33495Y2597
X33694Y32130
X33694Y29256
X33773Y1343
X33812Y25516
X33930Y398
X34599Y38665
X34678Y28154
X34701Y26694
X34914Y31579
X34954Y2406
X34993Y4650
X35032Y280
X35125Y27911
X35343Y3469
X36056Y32130
X36067Y35921
X36095Y21382
X36174Y28902
X36725Y3154
X36883Y29252
X37001Y21224
X37277Y31461
X37277Y24610
X37470Y3803
X37631Y28626
X37631Y22996
X37867Y25949
X38103Y4453
X38340Y32091
X38614Y33933
X38622Y34465
X38891Y4610
X39481Y29807
X39750Y27642
X39757Y25988
X39875Y358
X40229Y38744
X40269Y25319
X40387Y4571
X40969Y4225
X40977Y24059
X41489Y22248
X41725Y27524
X41752Y33557
X41791Y34413
X41922Y31972
X42513Y25870
X43182Y2406
X43340Y22406
X43418Y4571
X43579Y20083
X43615Y27209
X43615Y19157
X43615Y24059
X43773Y21618
X44088Y398
X44166Y23823
X44363Y25319
X44521Y18429
X44521Y17012
X44560Y13823
X44560Y10004
X44599Y8744
X44599Y7799
X44599Y3350
X44639Y7051
X44639Y6343
X44678Y20516
X44822Y30364
X44954Y33194
X45535Y33185
X45819Y32470
X45899Y8587
X45960Y34666
X45977Y358
X46095Y25870
X46174Y15490
X46219Y17566
X46253Y10752
X46371Y26303
X46371Y12839
X46410Y32470
X46410Y17012
X46460Y18154
X46489Y38862
X46489Y21657
X46765Y26697
X46883Y32445
X46962Y437
X47670Y26736
X47926Y15457
X48143Y11579
X48209Y34280
X48221Y26736
X48497Y8193
X48615Y13232
X48733Y26736
X48902Y34178
X49481Y398
X50111Y26815
X50111Y13193
X50899Y9492
X51135Y15358
X51214Y14098
X51312Y6421
X51450Y12642
X51568Y5831
X51725Y29413
X51781Y34141
X52001Y36224
X52040Y13390
X52198Y26776
X52198Y15437
T4
X429Y37996
X429Y1382
X706Y38664
X706Y37328
X706Y2050
X706Y714
X1374Y38941
X1374Y37051
X1374Y2327
X1374Y437
X2042Y38664
X2042Y37328
X2042Y2050
X2042Y714
X2319Y37996
X2319Y1382
X50111Y37996
X50111Y1382
X50388Y38664
X50388Y37328
X50388Y2050
X50388Y714
X51056Y38941
X51056Y37051
X51056Y2327
X51056Y437
X51724Y38664
X51724Y37328
X51724Y2050
X51724Y714
X52001Y37996
X52001Y1382
T6
X35702Y2169
X35702Y1539
X36391Y2484
X36391Y1854
X36391Y1224
T7
X13409Y11921
X15260Y25701
T8
X20308Y7661
X20308Y5732
X20367Y8902
X21174Y7661
X21174Y5732
X22040Y7661
X22040Y5732
X22296Y8902
X30180Y2553
X30180Y1053
X36490Y27701
X36490Y26701
X36490Y25701
X36490Y24701
X36490Y23701
X36490Y22701
T9
X45741Y5122
X45741Y4138
X45741Y3154
X45741Y2169
X45741Y1185
T10
X14245Y4531
X15245Y4531
X16245Y4531
X22119Y4335
X23054Y8380
X23054Y7652
X23054Y5703
X23054Y959
X28442Y18114
X29156Y8203
X29156Y5683
X29156Y4935
X29156Y3242
X29156Y781
X29442Y18114
X37670Y2957
X37670Y988
X45820Y9453
X45820Y7602
X46706Y14925
X47706Y14925
X48706Y14925
X49706Y14925
X50706Y14925
X51706Y14925
T11
X4528Y33951
X4528Y32770
X4528Y31589
X4528Y30407
X4528Y29226
X4528Y28045
X4528Y26864
X4528Y25683
X4528Y24502
X4528Y14443
X4528Y13262
X4528Y12081
X4528Y10900
X4528Y9719
X4528Y8537
X4528Y7356
X4528Y6175
X4528Y4994
X5906Y33360
X5906Y32179
X5906Y30998
X5906Y29817
X5906Y28636
X5906Y27455
X5906Y26274
X5906Y25093
X5906Y13852
X5906Y12671
X5906Y11490
X5906Y10309
X5906Y9128
X5906Y7947
X5906Y6766
X5906Y5585
X7480Y33360
X7480Y32179
X7480Y30998
X7480Y29817
X7480Y28636
X7480Y27455
X7480Y26274
X7480Y25093
X7480Y13852
X7480Y12671
X7480Y11490
X7480Y10309
X7480Y9128
X7480Y7947
X7480Y6766
X7480Y5585
X8858Y33951
X8858Y32770
X8858Y31589
X8858Y30407
X8858Y29226
X8858Y28045
X8858Y26864
X8858Y25683
X8858Y24502
X8858Y14443
X8858Y13262
X8858Y12081
X8858Y10900
X8858Y9719
X8858Y8537
X8858Y7356
X8858Y6175
X8858Y4994
T12
X38308Y22366
X38458Y28272
T13
X41490Y29701
X41490Y20701
T14
X1374Y37996
X1374Y1382
X51056Y37996
X51056Y1382
T15
X31611Y2604
X33887Y2604
T16
X49284Y11461
X49284Y8508
T17
X6398Y35033
X6398Y23419
X6398Y15526
X6398Y3911
T18
X6693Y37002
X6693Y21451
X6693Y17494
X6693Y1943
T5
X31048Y3018G85X31048Y2585
G05
X31048Y1274G85X31048Y1037
G05
X34450Y3018G85X34450Y2585
G05
X34450Y1274G85X34450Y1037
G05
T6
X35790Y3291G85X36302Y3291
G05
X35790Y417G85X36302Y417
G05
M30
