G04 #@! TF.GenerationSoftware,KiCad,Pcbnew,8.0.9-8.0.9-0~ubuntu24.04.1*
G04 #@! TF.CreationDate,2025-11-12T12:47:59+00:00*
G04 #@! TF.ProjectId,uaefi,75616566-692e-46b6-9963-61645f706362,E*
G04 #@! TF.SameCoordinates,Original*
G04 #@! TF.FileFunction,Soldermask,Bot*
G04 #@! TF.FilePolarity,Negative*
%FSLAX46Y46*%
G04 Gerber Fmt 4.6, Leading zero omitted, Abs format (unit mm)*
G04 Created by KiCad (PCBNEW 8.0.9-8.0.9-0~ubuntu24.04.1) date 2025-11-12 12:47:59*
%MOMM*%
%LPD*%
G01*
G04 APERTURE LIST*
%ADD10C,1.700000*%
%ADD11C,3.300000*%
%ADD12C,2.300000*%
%ADD13C,2.000000*%
%ADD14C,0.800000*%
%ADD15C,6.400000*%
%ADD16O,1.850000X1.700000*%
%ADD17C,0.600000*%
%ADD18R,1.100000X1.100000*%
%ADD19C,1.100000*%
%ADD20O,2.400000X1.100000*%
%ADD21C,1.500000*%
%ADD22C,1.524000*%
%ADD23C,0.650000*%
%ADD24O,1.000000X2.100000*%
%ADD25O,1.000000X1.600000*%
%ADD26R,1.700000X1.700000*%
%ADD27O,1.700000X1.700000*%
%ADD28C,3.302000*%
%ADD29R,2.299995X4.399991*%
%ADD30R,2.299995X3.999992*%
G04 APERTURE END LIST*
D10*
G04 #@! TO.C,P5*
X77410000Y46010000D03*
G04 #@! TD*
D11*
G04 #@! TO.C,J25*
X19627513Y93985000D03*
D12*
X18877513Y88985000D03*
X18877513Y59485000D03*
D11*
X19627513Y54485000D03*
D13*
X25127513Y86235000D03*
X25127513Y83235000D03*
X25127513Y80235000D03*
X25127513Y77235000D03*
X25127513Y74235000D03*
X25127513Y71235000D03*
X25127513Y68235000D03*
X25127513Y65235000D03*
X25127513Y62235000D03*
X21627513Y84735000D03*
X21627513Y81735000D03*
X21627513Y78735000D03*
X21627513Y75735000D03*
X21627513Y72735000D03*
X21627513Y69735000D03*
X21627513Y66735000D03*
X21627513Y63735000D03*
X17627513Y84735000D03*
X17627513Y81735000D03*
X17627513Y78735000D03*
X17627513Y75735000D03*
X17627513Y72735000D03*
X17627513Y69735000D03*
X17627513Y66735000D03*
X17627513Y63735000D03*
X14127513Y86235000D03*
X14127513Y83235000D03*
X14127513Y80235000D03*
X14127513Y77235000D03*
X14127513Y74235000D03*
X14127513Y71235000D03*
X14127513Y68235000D03*
X14127513Y65235000D03*
X14127513Y62235000D03*
G04 #@! TD*
D14*
G04 #@! TO.C,H1*
X1137056Y96510000D03*
X1840000Y98207056D03*
X1840000Y94812944D03*
X3537056Y98910000D03*
D15*
X3537056Y96510000D03*
D14*
X3537056Y94110000D03*
X5234112Y98207056D03*
X5234112Y94812944D03*
X5937056Y96510000D03*
G04 #@! TD*
G04 #@! TO.C,H4*
X129910000Y96510000D03*
X130612944Y98207056D03*
X130612944Y94812944D03*
X132310000Y98910000D03*
D15*
X132310000Y96510000D03*
D14*
X132310000Y94110000D03*
X134007056Y98207056D03*
X134007056Y94812944D03*
X134710000Y96510000D03*
G04 #@! TD*
G04 #@! TO.C,J7*
G36*
G01*
X119485000Y2160000D02*
X118135000Y2160000D01*
G75*
G02*
X117885000Y2410000I0J250000D01*
G01*
X117885000Y3610000D01*
G75*
G02*
X118135000Y3860000I250000J0D01*
G01*
X119485000Y3860000D01*
G75*
G02*
X119735000Y3610000I0J-250000D01*
G01*
X119735000Y2410000D01*
G75*
G02*
X119485000Y2160000I-250000J0D01*
G01*
G37*
D16*
X118810000Y5510000D03*
X118810000Y8010000D03*
X118810000Y10510000D03*
X118810000Y13010000D03*
G04 #@! TD*
D10*
G04 #@! TO.C,P4*
X98310000Y7510000D03*
G04 #@! TD*
D14*
G04 #@! TO.C,H2*
X1137056Y3480000D03*
X1840000Y5177056D03*
X1840000Y1782944D03*
X3537056Y5880000D03*
D15*
X3537056Y3480000D03*
D14*
X3537056Y1080000D03*
X5234112Y5177056D03*
X5234112Y1782944D03*
X5937056Y3480000D03*
G04 #@! TD*
D17*
G04 #@! TO.C,M3*
X84985000Y62685000D03*
X83785000Y62685000D03*
X86185000Y62685000D03*
X87385000Y62685000D03*
X80925000Y77110000D03*
X79925000Y77110000D03*
G04 #@! TD*
D18*
G04 #@! TO.C,J8*
X95060000Y3110000D03*
D19*
X93310000Y3910000D03*
X95060000Y4710000D03*
X93310000Y5510000D03*
X95060000Y6310000D03*
D20*
X94185000Y1060000D03*
X94185000Y8360000D03*
G04 #@! TD*
D11*
G04 #@! TO.C,J23*
X19627513Y45435000D03*
D12*
X18877513Y40435000D03*
X18877513Y10935000D03*
D11*
X19627513Y5935000D03*
D13*
X25127513Y37685000D03*
X25127513Y34685000D03*
X25127513Y31685000D03*
X25127513Y28685000D03*
X25127513Y25685000D03*
X25127513Y22685000D03*
X25127513Y19685000D03*
X25127513Y16685000D03*
X25127513Y13685000D03*
X21627513Y36185000D03*
X21627513Y33185000D03*
X21627513Y30185000D03*
X21627513Y27185000D03*
X21627513Y24185000D03*
X21627513Y21185000D03*
X21627513Y18185000D03*
X21627513Y15185000D03*
X17627513Y36185000D03*
X17627513Y33185000D03*
X17627513Y30185000D03*
X17627513Y27185000D03*
X17627513Y24185000D03*
X17627513Y21185000D03*
X17627513Y18185000D03*
X17627513Y15185000D03*
X14127513Y37685000D03*
X14127513Y34685000D03*
X14127513Y31685000D03*
X14127513Y28685000D03*
X14127513Y25685000D03*
X14127513Y22685000D03*
X14127513Y19685000D03*
X14127513Y16685000D03*
X14127513Y13685000D03*
G04 #@! TD*
D21*
G04 #@! TO.C,M1*
X76684995Y20834999D03*
X76684995Y14435002D03*
X76684995Y12534999D03*
X76684995Y8234999D03*
D17*
X77134994Y5835002D03*
X77134994Y4835001D03*
D21*
X76684995Y1984999D03*
X61184998Y21285001D03*
X61184998Y19435002D03*
X61184998Y14484999D03*
X61184998Y2435001D03*
G04 #@! TD*
D10*
G04 #@! TO.C,P6*
X74870000Y46010000D03*
G04 #@! TD*
D22*
G04 #@! TO.C,F1*
X58610000Y19460000D03*
X58610000Y14560000D03*
G04 #@! TD*
D10*
G04 #@! TO.C,P3*
X98310000Y2510000D03*
G04 #@! TD*
D22*
G04 #@! TO.C,R4*
X79284609Y6484609D03*
X79284609Y2674609D03*
G04 #@! TD*
D23*
G04 #@! TO.C,J9*
X82920000Y6615000D03*
X88700000Y6615000D03*
D24*
X81490000Y7115000D03*
D25*
X81490000Y2935000D03*
D24*
X90130000Y7115000D03*
D25*
X90130000Y2935000D03*
G04 #@! TD*
D14*
G04 #@! TO.C,H3*
X129910000Y3510000D03*
X130612944Y5207056D03*
X130612944Y1812944D03*
X132310000Y5910000D03*
D15*
X132310000Y3510000D03*
D14*
X132310000Y1110000D03*
X134007056Y5207056D03*
X134007056Y1812944D03*
X134710000Y3510000D03*
G04 #@! TD*
D17*
G04 #@! TO.C,M4*
X73935000Y62685000D03*
X72735000Y62685000D03*
X75135000Y62685000D03*
X76335000Y62685000D03*
X69875000Y77110000D03*
X68875000Y77110000D03*
G04 #@! TD*
D22*
G04 #@! TO.C,F2*
X54360000Y22610000D03*
X59260000Y22610000D03*
G04 #@! TD*
D26*
G04 #@! TO.C,J6*
X133960000Y37910000D03*
D27*
X131420000Y37910000D03*
X128880000Y37910000D03*
X126340000Y37910000D03*
X123800000Y37910000D03*
X121260000Y37910000D03*
G04 #@! TD*
D28*
G04 #@! TO.C,U3*
X108013250Y75440000D03*
X108013250Y52580000D03*
D22*
X95313250Y70360000D03*
X95313250Y67820000D03*
X95313250Y65280000D03*
X95313250Y62740000D03*
X95313250Y60200000D03*
X95313250Y57660000D03*
G04 #@! TD*
G04 #@! TO.C,U7*
G36*
G01*
X50927513Y67795000D02*
X50927513Y67495000D01*
G75*
G02*
X50777513Y67345000I-150000J0D01*
G01*
X49127513Y67345000D01*
G75*
G02*
X48977513Y67495000I0J150000D01*
G01*
X48977513Y67795000D01*
G75*
G02*
X49127513Y67945000I150000J0D01*
G01*
X50777513Y67945000D01*
G75*
G02*
X50927513Y67795000I0J-150000D01*
G01*
G37*
G36*
G01*
X50927513Y66525000D02*
X50927513Y66225000D01*
G75*
G02*
X50777513Y66075000I-150000J0D01*
G01*
X49127513Y66075000D01*
G75*
G02*
X48977513Y66225000I0J150000D01*
G01*
X48977513Y66525000D01*
G75*
G02*
X49127513Y66675000I150000J0D01*
G01*
X50777513Y66675000D01*
G75*
G02*
X50927513Y66525000I0J-150000D01*
G01*
G37*
G36*
G01*
X50927513Y65255000D02*
X50927513Y64955000D01*
G75*
G02*
X50777513Y64805000I-150000J0D01*
G01*
X49127513Y64805000D01*
G75*
G02*
X48977513Y64955000I0J150000D01*
G01*
X48977513Y65255000D01*
G75*
G02*
X49127513Y65405000I150000J0D01*
G01*
X50777513Y65405000D01*
G75*
G02*
X50927513Y65255000I0J-150000D01*
G01*
G37*
G36*
G01*
X50927513Y63985000D02*
X50927513Y63685000D01*
G75*
G02*
X50777513Y63535000I-150000J0D01*
G01*
X49127513Y63535000D01*
G75*
G02*
X48977513Y63685000I0J150000D01*
G01*
X48977513Y63985000D01*
G75*
G02*
X49127513Y64135000I150000J0D01*
G01*
X50777513Y64135000D01*
G75*
G02*
X50927513Y63985000I0J-150000D01*
G01*
G37*
G36*
G01*
X45977513Y63985000D02*
X45977513Y63685000D01*
G75*
G02*
X45827513Y63535000I-150000J0D01*
G01*
X44177513Y63535000D01*
G75*
G02*
X44027513Y63685000I0J150000D01*
G01*
X44027513Y63985000D01*
G75*
G02*
X44177513Y64135000I150000J0D01*
G01*
X45827513Y64135000D01*
G75*
G02*
X45977513Y63985000I0J-150000D01*
G01*
G37*
G36*
G01*
X45977513Y65255000D02*
X45977513Y64955000D01*
G75*
G02*
X45827513Y64805000I-150000J0D01*
G01*
X44177513Y64805000D01*
G75*
G02*
X44027513Y64955000I0J150000D01*
G01*
X44027513Y65255000D01*
G75*
G02*
X44177513Y65405000I150000J0D01*
G01*
X45827513Y65405000D01*
G75*
G02*
X45977513Y65255000I0J-150000D01*
G01*
G37*
G36*
G01*
X45977513Y66525000D02*
X45977513Y66225000D01*
G75*
G02*
X45827513Y66075000I-150000J0D01*
G01*
X44177513Y66075000D01*
G75*
G02*
X44027513Y66225000I0J150000D01*
G01*
X44027513Y66525000D01*
G75*
G02*
X44177513Y66675000I150000J0D01*
G01*
X45827513Y66675000D01*
G75*
G02*
X45977513Y66525000I0J-150000D01*
G01*
G37*
G36*
G01*
X45977513Y67795000D02*
X45977513Y67495000D01*
G75*
G02*
X45827513Y67345000I-150000J0D01*
G01*
X44177513Y67345000D01*
G75*
G02*
X44027513Y67495000I0J150000D01*
G01*
X44027513Y67795000D01*
G75*
G02*
X44177513Y67945000I150000J0D01*
G01*
X45827513Y67945000D01*
G75*
G02*
X45977513Y67795000I0J-150000D01*
G01*
G37*
G04 #@! TD*
G04 #@! TO.C,C27*
G36*
G01*
X97270000Y66325001D02*
X97950000Y66325001D01*
G75*
G02*
X98035000Y66240001I0J-85000D01*
G01*
X98035000Y65560001D01*
G75*
G02*
X97950000Y65475001I-85000J0D01*
G01*
X97270000Y65475001D01*
G75*
G02*
X97185000Y65560001I0J85000D01*
G01*
X97185000Y66240001D01*
G75*
G02*
X97270000Y66325001I85000J0D01*
G01*
G37*
G36*
G01*
X97270000Y64744999D02*
X97950000Y64744999D01*
G75*
G02*
X98035000Y64659999I0J-85000D01*
G01*
X98035000Y63979999D01*
G75*
G02*
X97950000Y63894999I-85000J0D01*
G01*
X97270000Y63894999D01*
G75*
G02*
X97185000Y63979999I0J85000D01*
G01*
X97185000Y64659999D01*
G75*
G02*
X97270000Y64744999I85000J0D01*
G01*
G37*
G04 #@! TD*
G04 #@! TO.C,D4*
G36*
G01*
X38212513Y31100000D02*
X38212513Y32120000D01*
G75*
G02*
X38302513Y32210000I90000J0D01*
G01*
X39022513Y32210000D01*
G75*
G02*
X39112513Y32120000I0J-90000D01*
G01*
X39112513Y31100000D01*
G75*
G02*
X39022513Y31010000I-90000J0D01*
G01*
X38302513Y31010000D01*
G75*
G02*
X38212513Y31100000I0J90000D01*
G01*
G37*
G36*
G01*
X41512513Y31100000D02*
X41512513Y32120000D01*
G75*
G02*
X41602513Y32210000I90000J0D01*
G01*
X42322513Y32210000D01*
G75*
G02*
X42412513Y32120000I0J-90000D01*
G01*
X42412513Y31100000D01*
G75*
G02*
X42322513Y31010000I-90000J0D01*
G01*
X41602513Y31010000D01*
G75*
G02*
X41512513Y31100000I0J90000D01*
G01*
G37*
G04 #@! TD*
D21*
G04 #@! TO.C,BT1*
X127810000Y21610142D03*
X127810000Y29110000D03*
D29*
X127810000Y17510048D03*
D30*
X127810000Y33510067D03*
G04 #@! TD*
G04 #@! TO.C,U10*
G36*
G01*
X44077513Y50055000D02*
X44077513Y49755000D01*
G75*
G02*
X43927513Y49605000I-150000J0D01*
G01*
X42277513Y49605000D01*
G75*
G02*
X42127513Y49755000I0J150000D01*
G01*
X42127513Y50055000D01*
G75*
G02*
X42277513Y50205000I150000J0D01*
G01*
X43927513Y50205000D01*
G75*
G02*
X44077513Y50055000I0J-150000D01*
G01*
G37*
G36*
G01*
X44077513Y48785000D02*
X44077513Y48485000D01*
G75*
G02*
X43927513Y48335000I-150000J0D01*
G01*
X42277513Y48335000D01*
G75*
G02*
X42127513Y48485000I0J150000D01*
G01*
X42127513Y48785000D01*
G75*
G02*
X42277513Y48935000I150000J0D01*
G01*
X43927513Y48935000D01*
G75*
G02*
X44077513Y48785000I0J-150000D01*
G01*
G37*
G36*
G01*
X44077513Y47515000D02*
X44077513Y47215000D01*
G75*
G02*
X43927513Y47065000I-150000J0D01*
G01*
X42277513Y47065000D01*
G75*
G02*
X42127513Y47215000I0J150000D01*
G01*
X42127513Y47515000D01*
G75*
G02*
X42277513Y47665000I150000J0D01*
G01*
X43927513Y47665000D01*
G75*
G02*
X44077513Y47515000I0J-150000D01*
G01*
G37*
G36*
G01*
X44077513Y46245000D02*
X44077513Y45945000D01*
G75*
G02*
X43927513Y45795000I-150000J0D01*
G01*
X42277513Y45795000D01*
G75*
G02*
X42127513Y45945000I0J150000D01*
G01*
X42127513Y46245000D01*
G75*
G02*
X42277513Y46395000I150000J0D01*
G01*
X43927513Y46395000D01*
G75*
G02*
X44077513Y46245000I0J-150000D01*
G01*
G37*
G36*
G01*
X39127513Y46245000D02*
X39127513Y45945000D01*
G75*
G02*
X38977513Y45795000I-150000J0D01*
G01*
X37327513Y45795000D01*
G75*
G02*
X37177513Y45945000I0J150000D01*
G01*
X37177513Y46245000D01*
G75*
G02*
X37327513Y46395000I150000J0D01*
G01*
X38977513Y46395000D01*
G75*
G02*
X39127513Y46245000I0J-150000D01*
G01*
G37*
G36*
G01*
X39127513Y47515000D02*
X39127513Y47215000D01*
G75*
G02*
X38977513Y47065000I-150000J0D01*
G01*
X37327513Y47065000D01*
G75*
G02*
X37177513Y47215000I0J150000D01*
G01*
X37177513Y47515000D01*
G75*
G02*
X37327513Y47665000I150000J0D01*
G01*
X38977513Y47665000D01*
G75*
G02*
X39127513Y47515000I0J-150000D01*
G01*
G37*
G36*
G01*
X39127513Y48785000D02*
X39127513Y48485000D01*
G75*
G02*
X38977513Y48335000I-150000J0D01*
G01*
X37327513Y48335000D01*
G75*
G02*
X37177513Y48485000I0J150000D01*
G01*
X37177513Y48785000D01*
G75*
G02*
X37327513Y48935000I150000J0D01*
G01*
X38977513Y48935000D01*
G75*
G02*
X39127513Y48785000I0J-150000D01*
G01*
G37*
G36*
G01*
X39127513Y50055000D02*
X39127513Y49755000D01*
G75*
G02*
X38977513Y49605000I-150000J0D01*
G01*
X37327513Y49605000D01*
G75*
G02*
X37177513Y49755000I0J150000D01*
G01*
X37177513Y50055000D01*
G75*
G02*
X37327513Y50205000I150000J0D01*
G01*
X38977513Y50205000D01*
G75*
G02*
X39127513Y50055000I0J-150000D01*
G01*
G37*
G04 #@! TD*
G04 #@! TO.C,R31*
G36*
G01*
X46867513Y50180000D02*
X46867513Y49400000D01*
G75*
G02*
X46797513Y49330000I-70000J0D01*
G01*
X46237513Y49330000D01*
G75*
G02*
X46167513Y49400000I0J70000D01*
G01*
X46167513Y50180000D01*
G75*
G02*
X46237513Y50250000I70000J0D01*
G01*
X46797513Y50250000D01*
G75*
G02*
X46867513Y50180000I0J-70000D01*
G01*
G37*
G36*
G01*
X45267513Y50180000D02*
X45267513Y49400000D01*
G75*
G02*
X45197513Y49330000I-70000J0D01*
G01*
X44637513Y49330000D01*
G75*
G02*
X44567513Y49400000I0J70000D01*
G01*
X44567513Y50180000D01*
G75*
G02*
X44637513Y50250000I70000J0D01*
G01*
X45197513Y50250000D01*
G75*
G02*
X45267513Y50180000I0J-70000D01*
G01*
G37*
G04 #@! TD*
G04 #@! TO.C,R1*
G36*
G01*
X10797513Y28730000D02*
X10017513Y28730000D01*
G75*
G02*
X9947513Y28800000I0J70000D01*
G01*
X9947513Y29360000D01*
G75*
G02*
X10017513Y29430000I70000J0D01*
G01*
X10797513Y29430000D01*
G75*
G02*
X10867513Y29360000I0J-70000D01*
G01*
X10867513Y28800000D01*
G75*
G02*
X10797513Y28730000I-70000J0D01*
G01*
G37*
G36*
G01*
X10797513Y30330000D02*
X10017513Y30330000D01*
G75*
G02*
X9947513Y30400000I0J70000D01*
G01*
X9947513Y30960000D01*
G75*
G02*
X10017513Y31030000I70000J0D01*
G01*
X10797513Y31030000D01*
G75*
G02*
X10867513Y30960000I0J-70000D01*
G01*
X10867513Y30400000D01*
G75*
G02*
X10797513Y30330000I-70000J0D01*
G01*
G37*
G04 #@! TD*
G04 #@! TO.C,R10*
G36*
G01*
X54017513Y67960000D02*
X54017513Y67180000D01*
G75*
G02*
X53947513Y67110000I-70000J0D01*
G01*
X53387513Y67110000D01*
G75*
G02*
X53317513Y67180000I0J70000D01*
G01*
X53317513Y67960000D01*
G75*
G02*
X53387513Y68030000I70000J0D01*
G01*
X53947513Y68030000D01*
G75*
G02*
X54017513Y67960000I0J-70000D01*
G01*
G37*
G36*
G01*
X52417513Y67960000D02*
X52417513Y67180000D01*
G75*
G02*
X52347513Y67110000I-70000J0D01*
G01*
X51787513Y67110000D01*
G75*
G02*
X51717513Y67180000I0J70000D01*
G01*
X51717513Y67960000D01*
G75*
G02*
X51787513Y68030000I70000J0D01*
G01*
X52347513Y68030000D01*
G75*
G02*
X52417513Y67960000I0J-70000D01*
G01*
G37*
G04 #@! TD*
G04 #@! TO.C,D2*
G36*
G01*
X41917513Y66485000D02*
X40897513Y66485000D01*
G75*
G02*
X40807513Y66575000I0J90000D01*
G01*
X40807513Y67295000D01*
G75*
G02*
X40897513Y67385000I90000J0D01*
G01*
X41917513Y67385000D01*
G75*
G02*
X42007513Y67295000I0J-90000D01*
G01*
X42007513Y66575000D01*
G75*
G02*
X41917513Y66485000I-90000J0D01*
G01*
G37*
G36*
G01*
X41917513Y69785000D02*
X40897513Y69785000D01*
G75*
G02*
X40807513Y69875000I0J90000D01*
G01*
X40807513Y70595000D01*
G75*
G02*
X40897513Y70685000I90000J0D01*
G01*
X41917513Y70685000D01*
G75*
G02*
X42007513Y70595000I0J-90000D01*
G01*
X42007513Y69875000D01*
G75*
G02*
X41917513Y69785000I-90000J0D01*
G01*
G37*
G04 #@! TD*
G04 #@! TO.C,D1*
G36*
G01*
X122950000Y15710000D02*
X122470000Y15710000D01*
G75*
G02*
X122410000Y15770000I0J60000D01*
G01*
X122410000Y16250000D01*
G75*
G02*
X122470000Y16310000I60000J0D01*
G01*
X122950000Y16310000D01*
G75*
G02*
X123010000Y16250000I0J-60000D01*
G01*
X123010000Y15770000D01*
G75*
G02*
X122950000Y15710000I-60000J0D01*
G01*
G37*
G36*
G01*
X125150000Y15710000D02*
X124670000Y15710000D01*
G75*
G02*
X124610000Y15770000I0J60000D01*
G01*
X124610000Y16250000D01*
G75*
G02*
X124670000Y16310000I60000J0D01*
G01*
X125150000Y16310000D01*
G75*
G02*
X125210000Y16250000I0J-60000D01*
G01*
X125210000Y15770000D01*
G75*
G02*
X125150000Y15710000I-60000J0D01*
G01*
G37*
G04 #@! TD*
G04 #@! TO.C,R7*
G36*
G01*
X85200000Y3238318D02*
X84420000Y3238318D01*
G75*
G02*
X84350000Y3308318I0J70000D01*
G01*
X84350000Y3868318D01*
G75*
G02*
X84420000Y3938318I70000J0D01*
G01*
X85200000Y3938318D01*
G75*
G02*
X85270000Y3868318I0J-70000D01*
G01*
X85270000Y3308318D01*
G75*
G02*
X85200000Y3238318I-70000J0D01*
G01*
G37*
G36*
G01*
X85200000Y4838318D02*
X84420000Y4838318D01*
G75*
G02*
X84350000Y4908318I0J70000D01*
G01*
X84350000Y5468318D01*
G75*
G02*
X84420000Y5538318I70000J0D01*
G01*
X85200000Y5538318D01*
G75*
G02*
X85270000Y5468318I0J-70000D01*
G01*
X85270000Y4908318D01*
G75*
G02*
X85200000Y4838318I-70000J0D01*
G01*
G37*
G04 #@! TD*
G04 #@! TO.C,R16*
G36*
G01*
X41250000Y88710000D02*
X40470000Y88710000D01*
G75*
G02*
X40400000Y88780000I0J70000D01*
G01*
X40400000Y89340000D01*
G75*
G02*
X40470000Y89410000I70000J0D01*
G01*
X41250000Y89410000D01*
G75*
G02*
X41320000Y89340000I0J-70000D01*
G01*
X41320000Y88780000D01*
G75*
G02*
X41250000Y88710000I-70000J0D01*
G01*
G37*
G36*
G01*
X41250000Y90310000D02*
X40470000Y90310000D01*
G75*
G02*
X40400000Y90380000I0J70000D01*
G01*
X40400000Y90940000D01*
G75*
G02*
X40470000Y91010000I70000J0D01*
G01*
X41250000Y91010000D01*
G75*
G02*
X41320000Y90940000I0J-70000D01*
G01*
X41320000Y90380000D01*
G75*
G02*
X41250000Y90310000I-70000J0D01*
G01*
G37*
G04 #@! TD*
G04 #@! TO.C,U9*
G36*
G01*
X44077513Y41055000D02*
X44077513Y40755000D01*
G75*
G02*
X43927513Y40605000I-150000J0D01*
G01*
X42277513Y40605000D01*
G75*
G02*
X42127513Y40755000I0J150000D01*
G01*
X42127513Y41055000D01*
G75*
G02*
X42277513Y41205000I150000J0D01*
G01*
X43927513Y41205000D01*
G75*
G02*
X44077513Y41055000I0J-150000D01*
G01*
G37*
G36*
G01*
X44077513Y39785000D02*
X44077513Y39485000D01*
G75*
G02*
X43927513Y39335000I-150000J0D01*
G01*
X42277513Y39335000D01*
G75*
G02*
X42127513Y39485000I0J150000D01*
G01*
X42127513Y39785000D01*
G75*
G02*
X42277513Y39935000I150000J0D01*
G01*
X43927513Y39935000D01*
G75*
G02*
X44077513Y39785000I0J-150000D01*
G01*
G37*
G36*
G01*
X44077513Y38515000D02*
X44077513Y38215000D01*
G75*
G02*
X43927513Y38065000I-150000J0D01*
G01*
X42277513Y38065000D01*
G75*
G02*
X42127513Y38215000I0J150000D01*
G01*
X42127513Y38515000D01*
G75*
G02*
X42277513Y38665000I150000J0D01*
G01*
X43927513Y38665000D01*
G75*
G02*
X44077513Y38515000I0J-150000D01*
G01*
G37*
G36*
G01*
X44077513Y37245000D02*
X44077513Y36945000D01*
G75*
G02*
X43927513Y36795000I-150000J0D01*
G01*
X42277513Y36795000D01*
G75*
G02*
X42127513Y36945000I0J150000D01*
G01*
X42127513Y37245000D01*
G75*
G02*
X42277513Y37395000I150000J0D01*
G01*
X43927513Y37395000D01*
G75*
G02*
X44077513Y37245000I0J-150000D01*
G01*
G37*
G36*
G01*
X39127513Y37245000D02*
X39127513Y36945000D01*
G75*
G02*
X38977513Y36795000I-150000J0D01*
G01*
X37327513Y36795000D01*
G75*
G02*
X37177513Y36945000I0J150000D01*
G01*
X37177513Y37245000D01*
G75*
G02*
X37327513Y37395000I150000J0D01*
G01*
X38977513Y37395000D01*
G75*
G02*
X39127513Y37245000I0J-150000D01*
G01*
G37*
G36*
G01*
X39127513Y38515000D02*
X39127513Y38215000D01*
G75*
G02*
X38977513Y38065000I-150000J0D01*
G01*
X37327513Y38065000D01*
G75*
G02*
X37177513Y38215000I0J150000D01*
G01*
X37177513Y38515000D01*
G75*
G02*
X37327513Y38665000I150000J0D01*
G01*
X38977513Y38665000D01*
G75*
G02*
X39127513Y38515000I0J-150000D01*
G01*
G37*
G36*
G01*
X39127513Y39785000D02*
X39127513Y39485000D01*
G75*
G02*
X38977513Y39335000I-150000J0D01*
G01*
X37327513Y39335000D01*
G75*
G02*
X37177513Y39485000I0J150000D01*
G01*
X37177513Y39785000D01*
G75*
G02*
X37327513Y39935000I150000J0D01*
G01*
X38977513Y39935000D01*
G75*
G02*
X39127513Y39785000I0J-150000D01*
G01*
G37*
G36*
G01*
X39127513Y41055000D02*
X39127513Y40755000D01*
G75*
G02*
X38977513Y40605000I-150000J0D01*
G01*
X37327513Y40605000D01*
G75*
G02*
X37177513Y40755000I0J150000D01*
G01*
X37177513Y41055000D01*
G75*
G02*
X37327513Y41205000I150000J0D01*
G01*
X38977513Y41205000D01*
G75*
G02*
X39127513Y41055000I0J-150000D01*
G01*
G37*
G04 #@! TD*
G04 #@! TO.C,R30*
G36*
G01*
X39377513Y35250000D02*
X39377513Y36030000D01*
G75*
G02*
X39447513Y36100000I70000J0D01*
G01*
X40007513Y36100000D01*
G75*
G02*
X40077513Y36030000I0J-70000D01*
G01*
X40077513Y35250000D01*
G75*
G02*
X40007513Y35180000I-70000J0D01*
G01*
X39447513Y35180000D01*
G75*
G02*
X39377513Y35250000I0J70000D01*
G01*
G37*
G36*
G01*
X40977513Y35250000D02*
X40977513Y36030000D01*
G75*
G02*
X41047513Y36100000I70000J0D01*
G01*
X41607513Y36100000D01*
G75*
G02*
X41677513Y36030000I0J-70000D01*
G01*
X41677513Y35250000D01*
G75*
G02*
X41607513Y35180000I-70000J0D01*
G01*
X41047513Y35180000D01*
G75*
G02*
X40977513Y35250000I0J70000D01*
G01*
G37*
G04 #@! TD*
G04 #@! TO.C,R8*
G36*
G01*
X87700000Y3238318D02*
X86920000Y3238318D01*
G75*
G02*
X86850000Y3308318I0J70000D01*
G01*
X86850000Y3868318D01*
G75*
G02*
X86920000Y3938318I70000J0D01*
G01*
X87700000Y3938318D01*
G75*
G02*
X87770000Y3868318I0J-70000D01*
G01*
X87770000Y3308318D01*
G75*
G02*
X87700000Y3238318I-70000J0D01*
G01*
G37*
G36*
G01*
X87700000Y4838318D02*
X86920000Y4838318D01*
G75*
G02*
X86850000Y4908318I0J70000D01*
G01*
X86850000Y5468318D01*
G75*
G02*
X86920000Y5538318I70000J0D01*
G01*
X87700000Y5538318D01*
G75*
G02*
X87770000Y5468318I0J-70000D01*
G01*
X87770000Y4908318D01*
G75*
G02*
X87700000Y4838318I-70000J0D01*
G01*
G37*
G04 #@! TD*
G04 #@! TO.C,R3*
G36*
G01*
X52200000Y16860000D02*
X51420000Y16860000D01*
G75*
G02*
X51350000Y16930000I0J70000D01*
G01*
X51350000Y17490000D01*
G75*
G02*
X51420000Y17560000I70000J0D01*
G01*
X52200000Y17560000D01*
G75*
G02*
X52270000Y17490000I0J-70000D01*
G01*
X52270000Y16930000D01*
G75*
G02*
X52200000Y16860000I-70000J0D01*
G01*
G37*
G36*
G01*
X52200000Y18460000D02*
X51420000Y18460000D01*
G75*
G02*
X51350000Y18530000I0J70000D01*
G01*
X51350000Y19090000D01*
G75*
G02*
X51420000Y19160000I70000J0D01*
G01*
X52200000Y19160000D01*
G75*
G02*
X52270000Y19090000I0J-70000D01*
G01*
X52270000Y18530000D01*
G75*
G02*
X52200000Y18460000I-70000J0D01*
G01*
G37*
G04 #@! TD*
G04 #@! TO.C,R15*
G36*
G01*
X38700000Y88710000D02*
X37920000Y88710000D01*
G75*
G02*
X37850000Y88780000I0J70000D01*
G01*
X37850000Y89340000D01*
G75*
G02*
X37920000Y89410000I70000J0D01*
G01*
X38700000Y89410000D01*
G75*
G02*
X38770000Y89340000I0J-70000D01*
G01*
X38770000Y88780000D01*
G75*
G02*
X38700000Y88710000I-70000J0D01*
G01*
G37*
G36*
G01*
X38700000Y90310000D02*
X37920000Y90310000D01*
G75*
G02*
X37850000Y90380000I0J70000D01*
G01*
X37850000Y90940000D01*
G75*
G02*
X37920000Y91010000I70000J0D01*
G01*
X38700000Y91010000D01*
G75*
G02*
X38770000Y90940000I0J-70000D01*
G01*
X38770000Y90380000D01*
G75*
G02*
X38700000Y90310000I-70000J0D01*
G01*
G37*
G04 #@! TD*
G04 #@! TO.C,R11*
G36*
G01*
X46157513Y61590000D02*
X46157513Y62370000D01*
G75*
G02*
X46227513Y62440000I70000J0D01*
G01*
X46787513Y62440000D01*
G75*
G02*
X46857513Y62370000I0J-70000D01*
G01*
X46857513Y61590000D01*
G75*
G02*
X46787513Y61520000I-70000J0D01*
G01*
X46227513Y61520000D01*
G75*
G02*
X46157513Y61590000I0J70000D01*
G01*
G37*
G36*
G01*
X47757513Y61590000D02*
X47757513Y62370000D01*
G75*
G02*
X47827513Y62440000I70000J0D01*
G01*
X48387513Y62440000D01*
G75*
G02*
X48457513Y62370000I0J-70000D01*
G01*
X48457513Y61590000D01*
G75*
G02*
X48387513Y61520000I-70000J0D01*
G01*
X47827513Y61520000D01*
G75*
G02*
X47757513Y61590000I0J70000D01*
G01*
G37*
G04 #@! TD*
G04 #@! TO.C,D3*
G36*
G01*
X40877513Y63880000D02*
X41897513Y63880000D01*
G75*
G02*
X41987513Y63790000I0J-90000D01*
G01*
X41987513Y63070000D01*
G75*
G02*
X41897513Y62980000I-90000J0D01*
G01*
X40877513Y62980000D01*
G75*
G02*
X40787513Y63070000I0J90000D01*
G01*
X40787513Y63790000D01*
G75*
G02*
X40877513Y63880000I90000J0D01*
G01*
G37*
G36*
G01*
X40877513Y60580000D02*
X41897513Y60580000D01*
G75*
G02*
X41987513Y60490000I0J-90000D01*
G01*
X41987513Y59770000D01*
G75*
G02*
X41897513Y59680000I-90000J0D01*
G01*
X40877513Y59680000D01*
G75*
G02*
X40787513Y59770000I0J90000D01*
G01*
X40787513Y60490000D01*
G75*
G02*
X40877513Y60580000I90000J0D01*
G01*
G37*
G04 #@! TD*
G04 #@! TO.C,R32*
G36*
G01*
X39197513Y43780000D02*
X39197513Y44560000D01*
G75*
G02*
X39267513Y44630000I70000J0D01*
G01*
X39827513Y44630000D01*
G75*
G02*
X39897513Y44560000I0J-70000D01*
G01*
X39897513Y43780000D01*
G75*
G02*
X39827513Y43710000I-70000J0D01*
G01*
X39267513Y43710000D01*
G75*
G02*
X39197513Y43780000I0J70000D01*
G01*
G37*
G36*
G01*
X40797513Y43780000D02*
X40797513Y44560000D01*
G75*
G02*
X40867513Y44630000I70000J0D01*
G01*
X41427513Y44630000D01*
G75*
G02*
X41497513Y44560000I0J-70000D01*
G01*
X41497513Y43780000D01*
G75*
G02*
X41427513Y43710000I-70000J0D01*
G01*
X40867513Y43710000D01*
G75*
G02*
X40797513Y43780000I0J70000D01*
G01*
G37*
G04 #@! TD*
G04 #@! TO.C,U6*
G36*
G01*
X38190000Y87735000D02*
X38490000Y87735000D01*
G75*
G02*
X38640000Y87585000I0J-150000D01*
G01*
X38640000Y85935000D01*
G75*
G02*
X38490000Y85785000I-150000J0D01*
G01*
X38190000Y85785000D01*
G75*
G02*
X38040000Y85935000I0J150000D01*
G01*
X38040000Y87585000D01*
G75*
G02*
X38190000Y87735000I150000J0D01*
G01*
G37*
G36*
G01*
X39460000Y87735000D02*
X39760000Y87735000D01*
G75*
G02*
X39910000Y87585000I0J-150000D01*
G01*
X39910000Y85935000D01*
G75*
G02*
X39760000Y85785000I-150000J0D01*
G01*
X39460000Y85785000D01*
G75*
G02*
X39310000Y85935000I0J150000D01*
G01*
X39310000Y87585000D01*
G75*
G02*
X39460000Y87735000I150000J0D01*
G01*
G37*
G36*
G01*
X40730000Y87735000D02*
X41030000Y87735000D01*
G75*
G02*
X41180000Y87585000I0J-150000D01*
G01*
X41180000Y85935000D01*
G75*
G02*
X41030000Y85785000I-150000J0D01*
G01*
X40730000Y85785000D01*
G75*
G02*
X40580000Y85935000I0J150000D01*
G01*
X40580000Y87585000D01*
G75*
G02*
X40730000Y87735000I150000J0D01*
G01*
G37*
G36*
G01*
X42000000Y87735000D02*
X42300000Y87735000D01*
G75*
G02*
X42450000Y87585000I0J-150000D01*
G01*
X42450000Y85935000D01*
G75*
G02*
X42300000Y85785000I-150000J0D01*
G01*
X42000000Y85785000D01*
G75*
G02*
X41850000Y85935000I0J150000D01*
G01*
X41850000Y87585000D01*
G75*
G02*
X42000000Y87735000I150000J0D01*
G01*
G37*
G36*
G01*
X42000000Y82785000D02*
X42300000Y82785000D01*
G75*
G02*
X42450000Y82635000I0J-150000D01*
G01*
X42450000Y80985000D01*
G75*
G02*
X42300000Y80835000I-150000J0D01*
G01*
X42000000Y80835000D01*
G75*
G02*
X41850000Y80985000I0J150000D01*
G01*
X41850000Y82635000D01*
G75*
G02*
X42000000Y82785000I150000J0D01*
G01*
G37*
G36*
G01*
X40730000Y82785000D02*
X41030000Y82785000D01*
G75*
G02*
X41180000Y82635000I0J-150000D01*
G01*
X41180000Y80985000D01*
G75*
G02*
X41030000Y80835000I-150000J0D01*
G01*
X40730000Y80835000D01*
G75*
G02*
X40580000Y80985000I0J150000D01*
G01*
X40580000Y82635000D01*
G75*
G02*
X40730000Y82785000I150000J0D01*
G01*
G37*
G36*
G01*
X39460000Y82785000D02*
X39760000Y82785000D01*
G75*
G02*
X39910000Y82635000I0J-150000D01*
G01*
X39910000Y80985000D01*
G75*
G02*
X39760000Y80835000I-150000J0D01*
G01*
X39460000Y80835000D01*
G75*
G02*
X39310000Y80985000I0J150000D01*
G01*
X39310000Y82635000D01*
G75*
G02*
X39460000Y82785000I150000J0D01*
G01*
G37*
G36*
G01*
X38190000Y82785000D02*
X38490000Y82785000D01*
G75*
G02*
X38640000Y82635000I0J-150000D01*
G01*
X38640000Y80985000D01*
G75*
G02*
X38490000Y80835000I-150000J0D01*
G01*
X38190000Y80835000D01*
G75*
G02*
X38040000Y80985000I0J150000D01*
G01*
X38040000Y82635000D01*
G75*
G02*
X38190000Y82785000I150000J0D01*
G01*
G37*
G04 #@! TD*
G04 #@! TO.C,R29*
G36*
G01*
X47037513Y41270000D02*
X47037513Y40490000D01*
G75*
G02*
X46967513Y40420000I-70000J0D01*
G01*
X46407513Y40420000D01*
G75*
G02*
X46337513Y40490000I0J70000D01*
G01*
X46337513Y41270000D01*
G75*
G02*
X46407513Y41340000I70000J0D01*
G01*
X46967513Y41340000D01*
G75*
G02*
X47037513Y41270000I0J-70000D01*
G01*
G37*
G36*
G01*
X45437513Y41270000D02*
X45437513Y40490000D01*
G75*
G02*
X45367513Y40420000I-70000J0D01*
G01*
X44807513Y40420000D01*
G75*
G02*
X44737513Y40490000I0J70000D01*
G01*
X44737513Y41270000D01*
G75*
G02*
X44807513Y41340000I70000J0D01*
G01*
X45367513Y41340000D01*
G75*
G02*
X45437513Y41270000I0J-70000D01*
G01*
G37*
G04 #@! TD*
G04 #@! TO.C,D5*
G36*
G01*
X38192513Y28590000D02*
X38192513Y29610000D01*
G75*
G02*
X38282513Y29700000I90000J0D01*
G01*
X39002513Y29700000D01*
G75*
G02*
X39092513Y29610000I0J-90000D01*
G01*
X39092513Y28590000D01*
G75*
G02*
X39002513Y28500000I-90000J0D01*
G01*
X38282513Y28500000D01*
G75*
G02*
X38192513Y28590000I0J90000D01*
G01*
G37*
G36*
G01*
X41492513Y28590000D02*
X41492513Y29610000D01*
G75*
G02*
X41582513Y29700000I90000J0D01*
G01*
X42302513Y29700000D01*
G75*
G02*
X42392513Y29610000I0J-90000D01*
G01*
X42392513Y28590000D01*
G75*
G02*
X42302513Y28500000I-90000J0D01*
G01*
X41582513Y28500000D01*
G75*
G02*
X41492513Y28590000I0J90000D01*
G01*
G37*
G04 #@! TD*
G04 #@! TO.C,R5*
G36*
G01*
X92320000Y62960000D02*
X93100000Y62960000D01*
G75*
G02*
X93170000Y62890000I0J-70000D01*
G01*
X93170000Y62330000D01*
G75*
G02*
X93100000Y62260000I-70000J0D01*
G01*
X92320000Y62260000D01*
G75*
G02*
X92250000Y62330000I0J70000D01*
G01*
X92250000Y62890000D01*
G75*
G02*
X92320000Y62960000I70000J0D01*
G01*
G37*
G36*
G01*
X92320000Y61360000D02*
X93100000Y61360000D01*
G75*
G02*
X93170000Y61290000I0J-70000D01*
G01*
X93170000Y60730000D01*
G75*
G02*
X93100000Y60660000I-70000J0D01*
G01*
X92320000Y60660000D01*
G75*
G02*
X92250000Y60730000I0J70000D01*
G01*
X92250000Y61290000D01*
G75*
G02*
X92320000Y61360000I70000J0D01*
G01*
G37*
G04 #@! TD*
G04 #@! TO.C,R2*
G36*
G01*
X52200000Y19860000D02*
X51420000Y19860000D01*
G75*
G02*
X51350000Y19930000I0J70000D01*
G01*
X51350000Y20490000D01*
G75*
G02*
X51420000Y20560000I70000J0D01*
G01*
X52200000Y20560000D01*
G75*
G02*
X52270000Y20490000I0J-70000D01*
G01*
X52270000Y19930000D01*
G75*
G02*
X52200000Y19860000I-70000J0D01*
G01*
G37*
G36*
G01*
X52200000Y21460000D02*
X51420000Y21460000D01*
G75*
G02*
X51350000Y21530000I0J70000D01*
G01*
X51350000Y22090000D01*
G75*
G02*
X51420000Y22160000I70000J0D01*
G01*
X52200000Y22160000D01*
G75*
G02*
X52270000Y22090000I0J-70000D01*
G01*
X52270000Y21530000D01*
G75*
G02*
X52200000Y21460000I-70000J0D01*
G01*
G37*
G04 #@! TD*
M02*
