G04 #@! TF.GenerationSoftware,KiCad,Pcbnew,8.0.9-8.0.9-0~ubuntu24.04.1*
G04 #@! TF.CreationDate,2025-11-03T14:25:38+00:00*
G04 #@! TF.ProjectId,uaefi,75616566-692e-46b6-9963-61645f706362,E*
G04 #@! TF.SameCoordinates,Original*
G04 #@! TF.FileFunction,Legend,Bot*
G04 #@! TF.FilePolarity,Positive*
%FSLAX46Y46*%
G04 Gerber Fmt 4.6, Leading zero omitted, Abs format (unit mm)*
G04 Created by KiCad (PCBNEW 8.0.9-8.0.9-0~ubuntu24.04.1) date 2025-11-03 14:25:38*
%MOMM*%
%LPD*%
G01*
G04 APERTURE LIST*
%ADD10C,0.150000*%
%ADD11C,0.127000*%
%ADD12C,0.170000*%
%ADD13C,0.200000*%
%ADD14C,0.120000*%
%ADD15C,0.500000*%
%ADD16C,0.099060*%
%ADD17C,0.150012*%
%ADD18C,0.203200*%
%ADD19C,0.000000*%
G04 APERTURE END LIST*
D10*
X7333152Y41874650D02*
X7999819Y41874650D01*
X6952200Y42112745D02*
X7666485Y42350840D01*
X7666485Y42350840D02*
X7666485Y41731793D01*
X7904580Y41350840D02*
X7952200Y41303221D01*
X7952200Y41303221D02*
X7999819Y41350840D01*
X7999819Y41350840D02*
X7952200Y41398459D01*
X7952200Y41398459D02*
X7904580Y41350840D01*
X7904580Y41350840D02*
X7999819Y41350840D01*
X6999819Y40969888D02*
X6999819Y40303222D01*
X6999819Y40303222D02*
X7999819Y40731793D01*
X7999819Y39922269D02*
X6999819Y39922269D01*
X7999819Y39350841D02*
X7428390Y39779412D01*
X6999819Y39350841D02*
X7571247Y39922269D01*
X7999819Y38779412D02*
X7952200Y38874650D01*
X7952200Y38874650D02*
X7904580Y38922269D01*
X7904580Y38922269D02*
X7809342Y38969888D01*
X7809342Y38969888D02*
X7523628Y38969888D01*
X7523628Y38969888D02*
X7428390Y38922269D01*
X7428390Y38922269D02*
X7380771Y38874650D01*
X7380771Y38874650D02*
X7333152Y38779412D01*
X7333152Y38779412D02*
X7333152Y38636555D01*
X7333152Y38636555D02*
X7380771Y38541317D01*
X7380771Y38541317D02*
X7428390Y38493698D01*
X7428390Y38493698D02*
X7523628Y38446079D01*
X7523628Y38446079D02*
X7809342Y38446079D01*
X7809342Y38446079D02*
X7904580Y38493698D01*
X7904580Y38493698D02*
X7952200Y38541317D01*
X7952200Y38541317D02*
X7999819Y38636555D01*
X7999819Y38636555D02*
X7999819Y38779412D01*
X7999819Y38017507D02*
X6999819Y38017507D01*
X7999819Y37588936D02*
X7476009Y37588936D01*
X7476009Y37588936D02*
X7380771Y37636555D01*
X7380771Y37636555D02*
X7333152Y37731793D01*
X7333152Y37731793D02*
X7333152Y37874650D01*
X7333152Y37874650D02*
X7380771Y37969888D01*
X7380771Y37969888D02*
X7428390Y38017507D01*
X7999819Y37112745D02*
X7333152Y37112745D01*
X7428390Y37112745D02*
X7380771Y37065126D01*
X7380771Y37065126D02*
X7333152Y36969888D01*
X7333152Y36969888D02*
X7333152Y36827031D01*
X7333152Y36827031D02*
X7380771Y36731793D01*
X7380771Y36731793D02*
X7476009Y36684174D01*
X7476009Y36684174D02*
X7999819Y36684174D01*
X7476009Y36684174D02*
X7380771Y36636555D01*
X7380771Y36636555D02*
X7333152Y36541317D01*
X7333152Y36541317D02*
X7333152Y36398460D01*
X7333152Y36398460D02*
X7380771Y36303221D01*
X7380771Y36303221D02*
X7476009Y36255602D01*
X7476009Y36255602D02*
X7999819Y36255602D01*
X7476009Y35017507D02*
X7476009Y34255602D01*
X7761723Y34255602D02*
X7761723Y35017507D01*
X6999819Y33160364D02*
X7999819Y32827031D01*
X7999819Y32827031D02*
X6999819Y32493698D01*
X7999819Y31588936D02*
X7523628Y31922269D01*
X7999819Y32160364D02*
X6999819Y32160364D01*
X6999819Y32160364D02*
X6999819Y31779412D01*
X6999819Y31779412D02*
X7047438Y31684174D01*
X7047438Y31684174D02*
X7095057Y31636555D01*
X7095057Y31636555D02*
X7190295Y31588936D01*
X7190295Y31588936D02*
X7333152Y31588936D01*
X7333152Y31588936D02*
X7428390Y31636555D01*
X7428390Y31636555D02*
X7476009Y31684174D01*
X7476009Y31684174D02*
X7523628Y31779412D01*
X7523628Y31779412D02*
X7523628Y32160364D01*
X7095057Y31207983D02*
X7047438Y31160364D01*
X7047438Y31160364D02*
X6999819Y31065126D01*
X6999819Y31065126D02*
X6999819Y30827031D01*
X6999819Y30827031D02*
X7047438Y30731793D01*
X7047438Y30731793D02*
X7095057Y30684174D01*
X7095057Y30684174D02*
X7190295Y30636555D01*
X7190295Y30636555D02*
X7285533Y30636555D01*
X7285533Y30636555D02*
X7428390Y30684174D01*
X7428390Y30684174D02*
X7999819Y31255602D01*
X7999819Y31255602D02*
X7999819Y30636555D01*
X7618866Y30207983D02*
X7618866Y29446078D01*
X7714104Y28255602D02*
X7714104Y27779412D01*
X7999819Y28350840D02*
X6999819Y28017507D01*
X6999819Y28017507D02*
X7999819Y27684174D01*
X7952200Y27398459D02*
X7999819Y27255602D01*
X7999819Y27255602D02*
X7999819Y27017507D01*
X7999819Y27017507D02*
X7952200Y26922269D01*
X7952200Y26922269D02*
X7904580Y26874650D01*
X7904580Y26874650D02*
X7809342Y26827031D01*
X7809342Y26827031D02*
X7714104Y26827031D01*
X7714104Y26827031D02*
X7618866Y26874650D01*
X7618866Y26874650D02*
X7571247Y26922269D01*
X7571247Y26922269D02*
X7523628Y27017507D01*
X7523628Y27017507D02*
X7476009Y27207983D01*
X7476009Y27207983D02*
X7428390Y27303221D01*
X7428390Y27303221D02*
X7380771Y27350840D01*
X7380771Y27350840D02*
X7285533Y27398459D01*
X7285533Y27398459D02*
X7190295Y27398459D01*
X7190295Y27398459D02*
X7095057Y27350840D01*
X7095057Y27350840D02*
X7047438Y27303221D01*
X7047438Y27303221D02*
X6999819Y27207983D01*
X6999819Y27207983D02*
X6999819Y26969888D01*
X6999819Y26969888D02*
X7047438Y26827031D01*
X7999819Y25636554D02*
X6999819Y25636554D01*
X7476009Y25636554D02*
X7476009Y25065126D01*
X7999819Y25065126D02*
X6999819Y25065126D01*
X7714104Y24636554D02*
X7714104Y24160364D01*
X7999819Y24731792D02*
X6999819Y24398459D01*
X6999819Y24398459D02*
X7999819Y24065126D01*
X7999819Y23255602D02*
X7999819Y23731792D01*
X7999819Y23731792D02*
X6999819Y23731792D01*
X7999819Y22446078D02*
X7999819Y22922268D01*
X7999819Y22922268D02*
X6999819Y22922268D01*
X7952200Y21398458D02*
X7999819Y21255601D01*
X7999819Y21255601D02*
X7999819Y21017506D01*
X7999819Y21017506D02*
X7952200Y20922268D01*
X7952200Y20922268D02*
X7904580Y20874649D01*
X7904580Y20874649D02*
X7809342Y20827030D01*
X7809342Y20827030D02*
X7714104Y20827030D01*
X7714104Y20827030D02*
X7618866Y20874649D01*
X7618866Y20874649D02*
X7571247Y20922268D01*
X7571247Y20922268D02*
X7523628Y21017506D01*
X7523628Y21017506D02*
X7476009Y21207982D01*
X7476009Y21207982D02*
X7428390Y21303220D01*
X7428390Y21303220D02*
X7380771Y21350839D01*
X7380771Y21350839D02*
X7285533Y21398458D01*
X7285533Y21398458D02*
X7190295Y21398458D01*
X7190295Y21398458D02*
X7095057Y21350839D01*
X7095057Y21350839D02*
X7047438Y21303220D01*
X7047438Y21303220D02*
X6999819Y21207982D01*
X6999819Y21207982D02*
X6999819Y20969887D01*
X6999819Y20969887D02*
X7047438Y20827030D01*
X7476009Y20398458D02*
X7476009Y20065125D01*
X7999819Y19922268D02*
X7999819Y20398458D01*
X7999819Y20398458D02*
X6999819Y20398458D01*
X6999819Y20398458D02*
X6999819Y19922268D01*
X7999819Y19493696D02*
X6999819Y19493696D01*
X6999819Y19493696D02*
X7999819Y18922268D01*
X7999819Y18922268D02*
X6999819Y18922268D01*
X7952200Y18493696D02*
X7999819Y18350839D01*
X7999819Y18350839D02*
X7999819Y18112744D01*
X7999819Y18112744D02*
X7952200Y18017506D01*
X7952200Y18017506D02*
X7904580Y17969887D01*
X7904580Y17969887D02*
X7809342Y17922268D01*
X7809342Y17922268D02*
X7714104Y17922268D01*
X7714104Y17922268D02*
X7618866Y17969887D01*
X7618866Y17969887D02*
X7571247Y18017506D01*
X7571247Y18017506D02*
X7523628Y18112744D01*
X7523628Y18112744D02*
X7476009Y18303220D01*
X7476009Y18303220D02*
X7428390Y18398458D01*
X7428390Y18398458D02*
X7380771Y18446077D01*
X7380771Y18446077D02*
X7285533Y18493696D01*
X7285533Y18493696D02*
X7190295Y18493696D01*
X7190295Y18493696D02*
X7095057Y18446077D01*
X7095057Y18446077D02*
X7047438Y18398458D01*
X7047438Y18398458D02*
X6999819Y18303220D01*
X6999819Y18303220D02*
X6999819Y18065125D01*
X6999819Y18065125D02*
X7047438Y17922268D01*
X6999819Y17303220D02*
X6999819Y17112744D01*
X6999819Y17112744D02*
X7047438Y17017506D01*
X7047438Y17017506D02*
X7142676Y16922268D01*
X7142676Y16922268D02*
X7333152Y16874649D01*
X7333152Y16874649D02*
X7666485Y16874649D01*
X7666485Y16874649D02*
X7856961Y16922268D01*
X7856961Y16922268D02*
X7952200Y17017506D01*
X7952200Y17017506D02*
X7999819Y17112744D01*
X7999819Y17112744D02*
X7999819Y17303220D01*
X7999819Y17303220D02*
X7952200Y17398458D01*
X7952200Y17398458D02*
X7856961Y17493696D01*
X7856961Y17493696D02*
X7666485Y17541315D01*
X7666485Y17541315D02*
X7333152Y17541315D01*
X7333152Y17541315D02*
X7142676Y17493696D01*
X7142676Y17493696D02*
X7047438Y17398458D01*
X7047438Y17398458D02*
X6999819Y17303220D01*
X7999819Y15874649D02*
X7523628Y16207982D01*
X7999819Y16446077D02*
X6999819Y16446077D01*
X6999819Y16446077D02*
X6999819Y16065125D01*
X6999819Y16065125D02*
X7047438Y15969887D01*
X7047438Y15969887D02*
X7095057Y15922268D01*
X7095057Y15922268D02*
X7190295Y15874649D01*
X7190295Y15874649D02*
X7333152Y15874649D01*
X7333152Y15874649D02*
X7428390Y15922268D01*
X7428390Y15922268D02*
X7476009Y15969887D01*
X7476009Y15969887D02*
X7523628Y16065125D01*
X7523628Y16065125D02*
X7523628Y16446077D01*
X7999819Y14684172D02*
X6999819Y14684172D01*
X7999819Y14207982D02*
X6999819Y14207982D01*
X6999819Y14207982D02*
X7999819Y13636554D01*
X7999819Y13636554D02*
X6999819Y13636554D01*
X7999819Y13160363D02*
X6999819Y13160363D01*
X6999819Y13160363D02*
X6999819Y12779411D01*
X6999819Y12779411D02*
X7047438Y12684173D01*
X7047438Y12684173D02*
X7095057Y12636554D01*
X7095057Y12636554D02*
X7190295Y12588935D01*
X7190295Y12588935D02*
X7333152Y12588935D01*
X7333152Y12588935D02*
X7428390Y12636554D01*
X7428390Y12636554D02*
X7476009Y12684173D01*
X7476009Y12684173D02*
X7523628Y12779411D01*
X7523628Y12779411D02*
X7523628Y13160363D01*
X6999819Y12160363D02*
X7809342Y12160363D01*
X7809342Y12160363D02*
X7904580Y12112744D01*
X7904580Y12112744D02*
X7952200Y12065125D01*
X7952200Y12065125D02*
X7999819Y11969887D01*
X7999819Y11969887D02*
X7999819Y11779411D01*
X7999819Y11779411D02*
X7952200Y11684173D01*
X7952200Y11684173D02*
X7904580Y11636554D01*
X7904580Y11636554D02*
X7809342Y11588935D01*
X7809342Y11588935D02*
X6999819Y11588935D01*
X6999819Y11255601D02*
X6999819Y10684173D01*
X7999819Y10969887D02*
X6999819Y10969887D01*
X119748094Y21105181D02*
X119748094Y22105181D01*
X119748094Y22105181D02*
X119367142Y22105181D01*
X119367142Y22105181D02*
X119271904Y22057562D01*
X119271904Y22057562D02*
X119224285Y22009943D01*
X119224285Y22009943D02*
X119176666Y21914705D01*
X119176666Y21914705D02*
X119176666Y21771848D01*
X119176666Y21771848D02*
X119224285Y21676610D01*
X119224285Y21676610D02*
X119271904Y21628991D01*
X119271904Y21628991D02*
X119367142Y21581372D01*
X119367142Y21581372D02*
X119748094Y21581372D01*
X118605237Y21676610D02*
X118700475Y21724229D01*
X118700475Y21724229D02*
X118748094Y21771848D01*
X118748094Y21771848D02*
X118795713Y21867086D01*
X118795713Y21867086D02*
X118795713Y21914705D01*
X118795713Y21914705D02*
X118748094Y22009943D01*
X118748094Y22009943D02*
X118700475Y22057562D01*
X118700475Y22057562D02*
X118605237Y22105181D01*
X118605237Y22105181D02*
X118414761Y22105181D01*
X118414761Y22105181D02*
X118319523Y22057562D01*
X118319523Y22057562D02*
X118271904Y22009943D01*
X118271904Y22009943D02*
X118224285Y21914705D01*
X118224285Y21914705D02*
X118224285Y21867086D01*
X118224285Y21867086D02*
X118271904Y21771848D01*
X118271904Y21771848D02*
X118319523Y21724229D01*
X118319523Y21724229D02*
X118414761Y21676610D01*
X118414761Y21676610D02*
X118605237Y21676610D01*
X118605237Y21676610D02*
X118700475Y21628991D01*
X118700475Y21628991D02*
X118748094Y21581372D01*
X118748094Y21581372D02*
X118795713Y21486134D01*
X118795713Y21486134D02*
X118795713Y21295658D01*
X118795713Y21295658D02*
X118748094Y21200420D01*
X118748094Y21200420D02*
X118700475Y21152800D01*
X118700475Y21152800D02*
X118605237Y21105181D01*
X118605237Y21105181D02*
X118414761Y21105181D01*
X118414761Y21105181D02*
X118319523Y21152800D01*
X118319523Y21152800D02*
X118271904Y21200420D01*
X118271904Y21200420D02*
X118224285Y21295658D01*
X118224285Y21295658D02*
X118224285Y21486134D01*
X118224285Y21486134D02*
X118271904Y21581372D01*
X118271904Y21581372D02*
X118319523Y21628991D01*
X118319523Y21628991D02*
X118414761Y21676610D01*
X78148094Y47805181D02*
X78148094Y48805181D01*
X78148094Y48805181D02*
X77767142Y48805181D01*
X77767142Y48805181D02*
X77671904Y48757562D01*
X77671904Y48757562D02*
X77624285Y48709943D01*
X77624285Y48709943D02*
X77576666Y48614705D01*
X77576666Y48614705D02*
X77576666Y48471848D01*
X77576666Y48471848D02*
X77624285Y48376610D01*
X77624285Y48376610D02*
X77671904Y48328991D01*
X77671904Y48328991D02*
X77767142Y48281372D01*
X77767142Y48281372D02*
X78148094Y48281372D01*
X76671904Y48805181D02*
X77148094Y48805181D01*
X77148094Y48805181D02*
X77195713Y48328991D01*
X77195713Y48328991D02*
X77148094Y48376610D01*
X77148094Y48376610D02*
X77052856Y48424229D01*
X77052856Y48424229D02*
X76814761Y48424229D01*
X76814761Y48424229D02*
X76719523Y48376610D01*
X76719523Y48376610D02*
X76671904Y48328991D01*
X76671904Y48328991D02*
X76624285Y48233753D01*
X76624285Y48233753D02*
X76624285Y47995658D01*
X76624285Y47995658D02*
X76671904Y47900420D01*
X76671904Y47900420D02*
X76719523Y47852800D01*
X76719523Y47852800D02*
X76814761Y47805181D01*
X76814761Y47805181D02*
X77052856Y47805181D01*
X77052856Y47805181D02*
X77148094Y47852800D01*
X77148094Y47852800D02*
X77195713Y47900420D01*
X16172693Y87544524D02*
X16172693Y86973096D01*
X16172693Y87258810D02*
X17172693Y87258810D01*
X17172693Y87258810D02*
X17029836Y87163572D01*
X17029836Y87163572D02*
X16934598Y87068334D01*
X16934598Y87068334D02*
X16886979Y86973096D01*
X16744122Y88115953D02*
X16791741Y88020715D01*
X16791741Y88020715D02*
X16839360Y87973096D01*
X16839360Y87973096D02*
X16934598Y87925477D01*
X16934598Y87925477D02*
X16982217Y87925477D01*
X16982217Y87925477D02*
X17077455Y87973096D01*
X17077455Y87973096D02*
X17125074Y88020715D01*
X17125074Y88020715D02*
X17172693Y88115953D01*
X17172693Y88115953D02*
X17172693Y88306429D01*
X17172693Y88306429D02*
X17125074Y88401667D01*
X17125074Y88401667D02*
X17077455Y88449286D01*
X17077455Y88449286D02*
X16982217Y88496905D01*
X16982217Y88496905D02*
X16934598Y88496905D01*
X16934598Y88496905D02*
X16839360Y88449286D01*
X16839360Y88449286D02*
X16791741Y88401667D01*
X16791741Y88401667D02*
X16744122Y88306429D01*
X16744122Y88306429D02*
X16744122Y88115953D01*
X16744122Y88115953D02*
X16696503Y88020715D01*
X16696503Y88020715D02*
X16648884Y87973096D01*
X16648884Y87973096D02*
X16553646Y87925477D01*
X16553646Y87925477D02*
X16363170Y87925477D01*
X16363170Y87925477D02*
X16267932Y87973096D01*
X16267932Y87973096D02*
X16220313Y88020715D01*
X16220313Y88020715D02*
X16172693Y88115953D01*
X16172693Y88115953D02*
X16172693Y88306429D01*
X16172693Y88306429D02*
X16220313Y88401667D01*
X16220313Y88401667D02*
X16267932Y88449286D01*
X16267932Y88449286D02*
X16363170Y88496905D01*
X16363170Y88496905D02*
X16553646Y88496905D01*
X16553646Y88496905D02*
X16648884Y88449286D01*
X16648884Y88449286D02*
X16696503Y88401667D01*
X16696503Y88401667D02*
X16744122Y88306429D01*
X22172693Y61044524D02*
X22172693Y60473096D01*
X22172693Y60758810D02*
X23172693Y60758810D01*
X23172693Y60758810D02*
X23029836Y60663572D01*
X23029836Y60663572D02*
X22934598Y60568334D01*
X22934598Y60568334D02*
X22886979Y60473096D01*
X23172693Y61377858D02*
X23172693Y62044524D01*
X23172693Y62044524D02*
X22172693Y61615953D01*
X17077455Y59973096D02*
X17125074Y60020715D01*
X17125074Y60020715D02*
X17172693Y60115953D01*
X17172693Y60115953D02*
X17172693Y60354048D01*
X17172693Y60354048D02*
X17125074Y60449286D01*
X17125074Y60449286D02*
X17077455Y60496905D01*
X17077455Y60496905D02*
X16982217Y60544524D01*
X16982217Y60544524D02*
X16886979Y60544524D01*
X16886979Y60544524D02*
X16744122Y60496905D01*
X16744122Y60496905D02*
X16172693Y59925477D01*
X16172693Y59925477D02*
X16172693Y60544524D01*
X17172693Y61449286D02*
X17172693Y60973096D01*
X17172693Y60973096D02*
X16696503Y60925477D01*
X16696503Y60925477D02*
X16744122Y60973096D01*
X16744122Y60973096D02*
X16791741Y61068334D01*
X16791741Y61068334D02*
X16791741Y61306429D01*
X16791741Y61306429D02*
X16744122Y61401667D01*
X16744122Y61401667D02*
X16696503Y61449286D01*
X16696503Y61449286D02*
X16601265Y61496905D01*
X16601265Y61496905D02*
X16363170Y61496905D01*
X16363170Y61496905D02*
X16267932Y61449286D01*
X16267932Y61449286D02*
X16220313Y61401667D01*
X16220313Y61401667D02*
X16172693Y61306429D01*
X16172693Y61306429D02*
X16172693Y61068334D01*
X16172693Y61068334D02*
X16220313Y60973096D01*
X16220313Y60973096D02*
X16267932Y60925477D01*
X21172693Y87544524D02*
X21172693Y86973096D01*
X21172693Y87258810D02*
X22172693Y87258810D01*
X22172693Y87258810D02*
X22029836Y87163572D01*
X22029836Y87163572D02*
X21934598Y87068334D01*
X21934598Y87068334D02*
X21886979Y86973096D01*
X22172693Y88163572D02*
X22172693Y88258810D01*
X22172693Y88258810D02*
X22125074Y88354048D01*
X22125074Y88354048D02*
X22077455Y88401667D01*
X22077455Y88401667D02*
X21982217Y88449286D01*
X21982217Y88449286D02*
X21791741Y88496905D01*
X21791741Y88496905D02*
X21553646Y88496905D01*
X21553646Y88496905D02*
X21363170Y88449286D01*
X21363170Y88449286D02*
X21267932Y88401667D01*
X21267932Y88401667D02*
X21220313Y88354048D01*
X21220313Y88354048D02*
X21172693Y88258810D01*
X21172693Y88258810D02*
X21172693Y88163572D01*
X21172693Y88163572D02*
X21220313Y88068334D01*
X21220313Y88068334D02*
X21267932Y88020715D01*
X21267932Y88020715D02*
X21363170Y87973096D01*
X21363170Y87973096D02*
X21553646Y87925477D01*
X21553646Y87925477D02*
X21791741Y87925477D01*
X21791741Y87925477D02*
X21982217Y87973096D01*
X21982217Y87973096D02*
X22077455Y88020715D01*
X22077455Y88020715D02*
X22125074Y88068334D01*
X22125074Y88068334D02*
X22172693Y88163572D01*
X24672693Y58544525D02*
X24672693Y58735001D01*
X24672693Y58735001D02*
X24720313Y58830239D01*
X24720313Y58830239D02*
X24767932Y58877858D01*
X24767932Y58877858D02*
X24910789Y58973096D01*
X24910789Y58973096D02*
X25101265Y59020715D01*
X25101265Y59020715D02*
X25482217Y59020715D01*
X25482217Y59020715D02*
X25577455Y58973096D01*
X25577455Y58973096D02*
X25625074Y58925477D01*
X25625074Y58925477D02*
X25672693Y58830239D01*
X25672693Y58830239D02*
X25672693Y58639763D01*
X25672693Y58639763D02*
X25625074Y58544525D01*
X25625074Y58544525D02*
X25577455Y58496906D01*
X25577455Y58496906D02*
X25482217Y58449287D01*
X25482217Y58449287D02*
X25244122Y58449287D01*
X25244122Y58449287D02*
X25148884Y58496906D01*
X25148884Y58496906D02*
X25101265Y58544525D01*
X25101265Y58544525D02*
X25053646Y58639763D01*
X25053646Y58639763D02*
X25053646Y58830239D01*
X25053646Y58830239D02*
X25101265Y58925477D01*
X25101265Y58925477D02*
X25148884Y58973096D01*
X25148884Y58973096D02*
X25244122Y59020715D01*
X14577455Y88473096D02*
X14625074Y88520715D01*
X14625074Y88520715D02*
X14672693Y88615953D01*
X14672693Y88615953D02*
X14672693Y88854048D01*
X14672693Y88854048D02*
X14625074Y88949286D01*
X14625074Y88949286D02*
X14577455Y88996905D01*
X14577455Y88996905D02*
X14482217Y89044524D01*
X14482217Y89044524D02*
X14386979Y89044524D01*
X14386979Y89044524D02*
X14244122Y88996905D01*
X14244122Y88996905D02*
X13672693Y88425477D01*
X13672693Y88425477D02*
X13672693Y89044524D01*
X14672693Y89901667D02*
X14672693Y89711191D01*
X14672693Y89711191D02*
X14625074Y89615953D01*
X14625074Y89615953D02*
X14577455Y89568334D01*
X14577455Y89568334D02*
X14434598Y89473096D01*
X14434598Y89473096D02*
X14244122Y89425477D01*
X14244122Y89425477D02*
X13863170Y89425477D01*
X13863170Y89425477D02*
X13767932Y89473096D01*
X13767932Y89473096D02*
X13720313Y89520715D01*
X13720313Y89520715D02*
X13672693Y89615953D01*
X13672693Y89615953D02*
X13672693Y89806429D01*
X13672693Y89806429D02*
X13720313Y89901667D01*
X13720313Y89901667D02*
X13767932Y89949286D01*
X13767932Y89949286D02*
X13863170Y89996905D01*
X13863170Y89996905D02*
X14101265Y89996905D01*
X14101265Y89996905D02*
X14196503Y89949286D01*
X14196503Y89949286D02*
X14244122Y89901667D01*
X14244122Y89901667D02*
X14291741Y89806429D01*
X14291741Y89806429D02*
X14291741Y89615953D01*
X14291741Y89615953D02*
X14244122Y89520715D01*
X14244122Y89520715D02*
X14196503Y89473096D01*
X14196503Y89473096D02*
X14101265Y89425477D01*
X14672693Y58425477D02*
X14672693Y59044524D01*
X14672693Y59044524D02*
X14291741Y58711191D01*
X14291741Y58711191D02*
X14291741Y58854048D01*
X14291741Y58854048D02*
X14244122Y58949286D01*
X14244122Y58949286D02*
X14196503Y58996905D01*
X14196503Y58996905D02*
X14101265Y59044524D01*
X14101265Y59044524D02*
X13863170Y59044524D01*
X13863170Y59044524D02*
X13767932Y58996905D01*
X13767932Y58996905D02*
X13720313Y58949286D01*
X13720313Y58949286D02*
X13672693Y58854048D01*
X13672693Y58854048D02*
X13672693Y58568334D01*
X13672693Y58568334D02*
X13720313Y58473096D01*
X13720313Y58473096D02*
X13767932Y58425477D01*
X14339360Y59901667D02*
X13672693Y59901667D01*
X14720313Y59663572D02*
X14006027Y59425477D01*
X14006027Y59425477D02*
X14006027Y60044524D01*
X24640693Y89720715D02*
X24640693Y89149287D01*
X24640693Y89435001D02*
X25640693Y89435001D01*
X25640693Y89435001D02*
X25497836Y89339763D01*
X25497836Y89339763D02*
X25402598Y89244525D01*
X25402598Y89244525D02*
X25354979Y89149287D01*
X42564285Y8955181D02*
X42564285Y9955181D01*
X42564285Y9955181D02*
X42183333Y9955181D01*
X42183333Y9955181D02*
X42088095Y9907562D01*
X42088095Y9907562D02*
X42040476Y9859943D01*
X42040476Y9859943D02*
X41992857Y9764705D01*
X41992857Y9764705D02*
X41992857Y9621848D01*
X41992857Y9621848D02*
X42040476Y9526610D01*
X42040476Y9526610D02*
X42088095Y9478991D01*
X42088095Y9478991D02*
X42183333Y9431372D01*
X42183333Y9431372D02*
X42564285Y9431372D01*
X41040476Y8955181D02*
X41611904Y8955181D01*
X41326190Y8955181D02*
X41326190Y9955181D01*
X41326190Y9955181D02*
X41421428Y9812324D01*
X41421428Y9812324D02*
X41516666Y9717086D01*
X41516666Y9717086D02*
X41611904Y9669467D01*
X40135714Y9955181D02*
X40611904Y9955181D01*
X40611904Y9955181D02*
X40659523Y9478991D01*
X40659523Y9478991D02*
X40611904Y9526610D01*
X40611904Y9526610D02*
X40516666Y9574229D01*
X40516666Y9574229D02*
X40278571Y9574229D01*
X40278571Y9574229D02*
X40183333Y9526610D01*
X40183333Y9526610D02*
X40135714Y9478991D01*
X40135714Y9478991D02*
X40088095Y9383753D01*
X40088095Y9383753D02*
X40088095Y9145658D01*
X40088095Y9145658D02*
X40135714Y9050420D01*
X40135714Y9050420D02*
X40183333Y9002800D01*
X40183333Y9002800D02*
X40278571Y8955181D01*
X40278571Y8955181D02*
X40516666Y8955181D01*
X40516666Y8955181D02*
X40611904Y9002800D01*
X40611904Y9002800D02*
X40659523Y9050420D01*
D11*
X54463999Y21063232D02*
X54717999Y21063232D01*
X54717999Y20664089D02*
X54717999Y21426089D01*
X54717999Y21426089D02*
X54355142Y21426089D01*
X53738285Y21172089D02*
X53738285Y20664089D01*
X53919713Y21462374D02*
X54101142Y20918089D01*
X54101142Y20918089D02*
X53629427Y20918089D01*
D10*
X99048094Y9305181D02*
X99048094Y10305181D01*
X99048094Y10305181D02*
X98667142Y10305181D01*
X98667142Y10305181D02*
X98571904Y10257562D01*
X98571904Y10257562D02*
X98524285Y10209943D01*
X98524285Y10209943D02*
X98476666Y10114705D01*
X98476666Y10114705D02*
X98476666Y9971848D01*
X98476666Y9971848D02*
X98524285Y9876610D01*
X98524285Y9876610D02*
X98571904Y9828991D01*
X98571904Y9828991D02*
X98667142Y9781372D01*
X98667142Y9781372D02*
X99048094Y9781372D01*
X97619523Y9971848D02*
X97619523Y9305181D01*
X97857618Y10352800D02*
X98095713Y9638515D01*
X98095713Y9638515D02*
X97476666Y9638515D01*
X39551004Y8902346D02*
X39551004Y9902346D01*
X39551004Y9902346D02*
X39170052Y9902346D01*
X39170052Y9902346D02*
X39074814Y9854727D01*
X39074814Y9854727D02*
X39027195Y9807108D01*
X39027195Y9807108D02*
X38979576Y9711870D01*
X38979576Y9711870D02*
X38979576Y9569013D01*
X38979576Y9569013D02*
X39027195Y9473775D01*
X39027195Y9473775D02*
X39074814Y9426156D01*
X39074814Y9426156D02*
X39170052Y9378537D01*
X39170052Y9378537D02*
X39551004Y9378537D01*
X38027195Y8902346D02*
X38598623Y8902346D01*
X38312909Y8902346D02*
X38312909Y9902346D01*
X38312909Y9902346D02*
X38408147Y9759489D01*
X38408147Y9759489D02*
X38503385Y9664251D01*
X38503385Y9664251D02*
X38598623Y9616632D01*
X37693861Y9902346D02*
X37027195Y9902346D01*
X37027195Y9902346D02*
X37455766Y8902346D01*
D11*
X56663999Y21063232D02*
X56917999Y21063232D01*
X56917999Y20664089D02*
X56917999Y21426089D01*
X56917999Y21426089D02*
X56555142Y21426089D01*
X56337427Y21426089D02*
X55865713Y21426089D01*
X55865713Y21426089D02*
X56119713Y21135803D01*
X56119713Y21135803D02*
X56010856Y21135803D01*
X56010856Y21135803D02*
X55938285Y21099517D01*
X55938285Y21099517D02*
X55901999Y21063232D01*
X55901999Y21063232D02*
X55865713Y20990660D01*
X55865713Y20990660D02*
X55865713Y20809232D01*
X55865713Y20809232D02*
X55901999Y20736660D01*
X55901999Y20736660D02*
X55938285Y20700374D01*
X55938285Y20700374D02*
X56010856Y20664089D01*
X56010856Y20664089D02*
X56228570Y20664089D01*
X56228570Y20664089D02*
X56301142Y20700374D01*
X56301142Y20700374D02*
X56337427Y20736660D01*
D10*
X57085538Y11951133D02*
X57085538Y12951133D01*
X57085538Y12951133D02*
X56704586Y12951133D01*
X56704586Y12951133D02*
X56609348Y12903514D01*
X56609348Y12903514D02*
X56561729Y12855895D01*
X56561729Y12855895D02*
X56514110Y12760657D01*
X56514110Y12760657D02*
X56514110Y12617800D01*
X56514110Y12617800D02*
X56561729Y12522562D01*
X56561729Y12522562D02*
X56609348Y12474943D01*
X56609348Y12474943D02*
X56704586Y12427324D01*
X56704586Y12427324D02*
X57085538Y12427324D01*
X55561729Y11951133D02*
X56133157Y11951133D01*
X55847443Y11951133D02*
X55847443Y12951133D01*
X55847443Y12951133D02*
X55942681Y12808276D01*
X55942681Y12808276D02*
X56037919Y12713038D01*
X56037919Y12713038D02*
X56133157Y12665419D01*
X54990300Y12522562D02*
X55085538Y12570181D01*
X55085538Y12570181D02*
X55133157Y12617800D01*
X55133157Y12617800D02*
X55180776Y12713038D01*
X55180776Y12713038D02*
X55180776Y12760657D01*
X55180776Y12760657D02*
X55133157Y12855895D01*
X55133157Y12855895D02*
X55085538Y12903514D01*
X55085538Y12903514D02*
X54990300Y12951133D01*
X54990300Y12951133D02*
X54799824Y12951133D01*
X54799824Y12951133D02*
X54704586Y12903514D01*
X54704586Y12903514D02*
X54656967Y12855895D01*
X54656967Y12855895D02*
X54609348Y12760657D01*
X54609348Y12760657D02*
X54609348Y12713038D01*
X54609348Y12713038D02*
X54656967Y12617800D01*
X54656967Y12617800D02*
X54704586Y12570181D01*
X54704586Y12570181D02*
X54799824Y12522562D01*
X54799824Y12522562D02*
X54990300Y12522562D01*
X54990300Y12522562D02*
X55085538Y12474943D01*
X55085538Y12474943D02*
X55133157Y12427324D01*
X55133157Y12427324D02*
X55180776Y12332086D01*
X55180776Y12332086D02*
X55180776Y12141610D01*
X55180776Y12141610D02*
X55133157Y12046372D01*
X55133157Y12046372D02*
X55085538Y11998752D01*
X55085538Y11998752D02*
X54990300Y11951133D01*
X54990300Y11951133D02*
X54799824Y11951133D01*
X54799824Y11951133D02*
X54704586Y11998752D01*
X54704586Y11998752D02*
X54656967Y12046372D01*
X54656967Y12046372D02*
X54609348Y12141610D01*
X54609348Y12141610D02*
X54609348Y12332086D01*
X54609348Y12332086D02*
X54656967Y12427324D01*
X54656967Y12427324D02*
X54704586Y12474943D01*
X54704586Y12474943D02*
X54799824Y12522562D01*
X14672693Y9875477D02*
X14672693Y10494524D01*
X14672693Y10494524D02*
X14291741Y10161191D01*
X14291741Y10161191D02*
X14291741Y10304048D01*
X14291741Y10304048D02*
X14244122Y10399286D01*
X14244122Y10399286D02*
X14196503Y10446905D01*
X14196503Y10446905D02*
X14101265Y10494524D01*
X14101265Y10494524D02*
X13863170Y10494524D01*
X13863170Y10494524D02*
X13767932Y10446905D01*
X13767932Y10446905D02*
X13720313Y10399286D01*
X13720313Y10399286D02*
X13672693Y10304048D01*
X13672693Y10304048D02*
X13672693Y10018334D01*
X13672693Y10018334D02*
X13720313Y9923096D01*
X13720313Y9923096D02*
X13767932Y9875477D01*
X14339360Y11351667D02*
X13672693Y11351667D01*
X14720313Y11113572D02*
X14006027Y10875477D01*
X14006027Y10875477D02*
X14006027Y11494524D01*
X24672693Y9994525D02*
X24672693Y10185001D01*
X24672693Y10185001D02*
X24720313Y10280239D01*
X24720313Y10280239D02*
X24767932Y10327858D01*
X24767932Y10327858D02*
X24910789Y10423096D01*
X24910789Y10423096D02*
X25101265Y10470715D01*
X25101265Y10470715D02*
X25482217Y10470715D01*
X25482217Y10470715D02*
X25577455Y10423096D01*
X25577455Y10423096D02*
X25625074Y10375477D01*
X25625074Y10375477D02*
X25672693Y10280239D01*
X25672693Y10280239D02*
X25672693Y10089763D01*
X25672693Y10089763D02*
X25625074Y9994525D01*
X25625074Y9994525D02*
X25577455Y9946906D01*
X25577455Y9946906D02*
X25482217Y9899287D01*
X25482217Y9899287D02*
X25244122Y9899287D01*
X25244122Y9899287D02*
X25148884Y9946906D01*
X25148884Y9946906D02*
X25101265Y9994525D01*
X25101265Y9994525D02*
X25053646Y10089763D01*
X25053646Y10089763D02*
X25053646Y10280239D01*
X25053646Y10280239D02*
X25101265Y10375477D01*
X25101265Y10375477D02*
X25148884Y10423096D01*
X25148884Y10423096D02*
X25244122Y10470715D01*
X16172693Y38994524D02*
X16172693Y38423096D01*
X16172693Y38708810D02*
X17172693Y38708810D01*
X17172693Y38708810D02*
X17029836Y38613572D01*
X17029836Y38613572D02*
X16934598Y38518334D01*
X16934598Y38518334D02*
X16886979Y38423096D01*
X16744122Y39565953D02*
X16791741Y39470715D01*
X16791741Y39470715D02*
X16839360Y39423096D01*
X16839360Y39423096D02*
X16934598Y39375477D01*
X16934598Y39375477D02*
X16982217Y39375477D01*
X16982217Y39375477D02*
X17077455Y39423096D01*
X17077455Y39423096D02*
X17125074Y39470715D01*
X17125074Y39470715D02*
X17172693Y39565953D01*
X17172693Y39565953D02*
X17172693Y39756429D01*
X17172693Y39756429D02*
X17125074Y39851667D01*
X17125074Y39851667D02*
X17077455Y39899286D01*
X17077455Y39899286D02*
X16982217Y39946905D01*
X16982217Y39946905D02*
X16934598Y39946905D01*
X16934598Y39946905D02*
X16839360Y39899286D01*
X16839360Y39899286D02*
X16791741Y39851667D01*
X16791741Y39851667D02*
X16744122Y39756429D01*
X16744122Y39756429D02*
X16744122Y39565953D01*
X16744122Y39565953D02*
X16696503Y39470715D01*
X16696503Y39470715D02*
X16648884Y39423096D01*
X16648884Y39423096D02*
X16553646Y39375477D01*
X16553646Y39375477D02*
X16363170Y39375477D01*
X16363170Y39375477D02*
X16267932Y39423096D01*
X16267932Y39423096D02*
X16220313Y39470715D01*
X16220313Y39470715D02*
X16172693Y39565953D01*
X16172693Y39565953D02*
X16172693Y39756429D01*
X16172693Y39756429D02*
X16220313Y39851667D01*
X16220313Y39851667D02*
X16267932Y39899286D01*
X16267932Y39899286D02*
X16363170Y39946905D01*
X16363170Y39946905D02*
X16553646Y39946905D01*
X16553646Y39946905D02*
X16648884Y39899286D01*
X16648884Y39899286D02*
X16696503Y39851667D01*
X16696503Y39851667D02*
X16744122Y39756429D01*
X24640693Y41170715D02*
X24640693Y40599287D01*
X24640693Y40885001D02*
X25640693Y40885001D01*
X25640693Y40885001D02*
X25497836Y40789763D01*
X25497836Y40789763D02*
X25402598Y40694525D01*
X25402598Y40694525D02*
X25354979Y40599287D01*
X22172693Y12494524D02*
X22172693Y11923096D01*
X22172693Y12208810D02*
X23172693Y12208810D01*
X23172693Y12208810D02*
X23029836Y12113572D01*
X23029836Y12113572D02*
X22934598Y12018334D01*
X22934598Y12018334D02*
X22886979Y11923096D01*
X23172693Y12827858D02*
X23172693Y13494524D01*
X23172693Y13494524D02*
X22172693Y13065953D01*
X17077455Y11423096D02*
X17125074Y11470715D01*
X17125074Y11470715D02*
X17172693Y11565953D01*
X17172693Y11565953D02*
X17172693Y11804048D01*
X17172693Y11804048D02*
X17125074Y11899286D01*
X17125074Y11899286D02*
X17077455Y11946905D01*
X17077455Y11946905D02*
X16982217Y11994524D01*
X16982217Y11994524D02*
X16886979Y11994524D01*
X16886979Y11994524D02*
X16744122Y11946905D01*
X16744122Y11946905D02*
X16172693Y11375477D01*
X16172693Y11375477D02*
X16172693Y11994524D01*
X17172693Y12899286D02*
X17172693Y12423096D01*
X17172693Y12423096D02*
X16696503Y12375477D01*
X16696503Y12375477D02*
X16744122Y12423096D01*
X16744122Y12423096D02*
X16791741Y12518334D01*
X16791741Y12518334D02*
X16791741Y12756429D01*
X16791741Y12756429D02*
X16744122Y12851667D01*
X16744122Y12851667D02*
X16696503Y12899286D01*
X16696503Y12899286D02*
X16601265Y12946905D01*
X16601265Y12946905D02*
X16363170Y12946905D01*
X16363170Y12946905D02*
X16267932Y12899286D01*
X16267932Y12899286D02*
X16220313Y12851667D01*
X16220313Y12851667D02*
X16172693Y12756429D01*
X16172693Y12756429D02*
X16172693Y12518334D01*
X16172693Y12518334D02*
X16220313Y12423096D01*
X16220313Y12423096D02*
X16267932Y12375477D01*
X14577455Y39923096D02*
X14625074Y39970715D01*
X14625074Y39970715D02*
X14672693Y40065953D01*
X14672693Y40065953D02*
X14672693Y40304048D01*
X14672693Y40304048D02*
X14625074Y40399286D01*
X14625074Y40399286D02*
X14577455Y40446905D01*
X14577455Y40446905D02*
X14482217Y40494524D01*
X14482217Y40494524D02*
X14386979Y40494524D01*
X14386979Y40494524D02*
X14244122Y40446905D01*
X14244122Y40446905D02*
X13672693Y39875477D01*
X13672693Y39875477D02*
X13672693Y40494524D01*
X14672693Y41351667D02*
X14672693Y41161191D01*
X14672693Y41161191D02*
X14625074Y41065953D01*
X14625074Y41065953D02*
X14577455Y41018334D01*
X14577455Y41018334D02*
X14434598Y40923096D01*
X14434598Y40923096D02*
X14244122Y40875477D01*
X14244122Y40875477D02*
X13863170Y40875477D01*
X13863170Y40875477D02*
X13767932Y40923096D01*
X13767932Y40923096D02*
X13720313Y40970715D01*
X13720313Y40970715D02*
X13672693Y41065953D01*
X13672693Y41065953D02*
X13672693Y41256429D01*
X13672693Y41256429D02*
X13720313Y41351667D01*
X13720313Y41351667D02*
X13767932Y41399286D01*
X13767932Y41399286D02*
X13863170Y41446905D01*
X13863170Y41446905D02*
X14101265Y41446905D01*
X14101265Y41446905D02*
X14196503Y41399286D01*
X14196503Y41399286D02*
X14244122Y41351667D01*
X14244122Y41351667D02*
X14291741Y41256429D01*
X14291741Y41256429D02*
X14291741Y41065953D01*
X14291741Y41065953D02*
X14244122Y40970715D01*
X14244122Y40970715D02*
X14196503Y40923096D01*
X14196503Y40923096D02*
X14101265Y40875477D01*
X21172693Y38994524D02*
X21172693Y38423096D01*
X21172693Y38708810D02*
X22172693Y38708810D01*
X22172693Y38708810D02*
X22029836Y38613572D01*
X22029836Y38613572D02*
X21934598Y38518334D01*
X21934598Y38518334D02*
X21886979Y38423096D01*
X22172693Y39613572D02*
X22172693Y39708810D01*
X22172693Y39708810D02*
X22125074Y39804048D01*
X22125074Y39804048D02*
X22077455Y39851667D01*
X22077455Y39851667D02*
X21982217Y39899286D01*
X21982217Y39899286D02*
X21791741Y39946905D01*
X21791741Y39946905D02*
X21553646Y39946905D01*
X21553646Y39946905D02*
X21363170Y39899286D01*
X21363170Y39899286D02*
X21267932Y39851667D01*
X21267932Y39851667D02*
X21220313Y39804048D01*
X21220313Y39804048D02*
X21172693Y39708810D01*
X21172693Y39708810D02*
X21172693Y39613572D01*
X21172693Y39613572D02*
X21220313Y39518334D01*
X21220313Y39518334D02*
X21267932Y39470715D01*
X21267932Y39470715D02*
X21363170Y39423096D01*
X21363170Y39423096D02*
X21553646Y39375477D01*
X21553646Y39375477D02*
X21791741Y39375477D01*
X21791741Y39375477D02*
X21982217Y39423096D01*
X21982217Y39423096D02*
X22077455Y39470715D01*
X22077455Y39470715D02*
X22125074Y39518334D01*
X22125074Y39518334D02*
X22172693Y39613572D01*
X75608094Y47805181D02*
X75608094Y48805181D01*
X75608094Y48805181D02*
X75227142Y48805181D01*
X75227142Y48805181D02*
X75131904Y48757562D01*
X75131904Y48757562D02*
X75084285Y48709943D01*
X75084285Y48709943D02*
X75036666Y48614705D01*
X75036666Y48614705D02*
X75036666Y48471848D01*
X75036666Y48471848D02*
X75084285Y48376610D01*
X75084285Y48376610D02*
X75131904Y48328991D01*
X75131904Y48328991D02*
X75227142Y48281372D01*
X75227142Y48281372D02*
X75608094Y48281372D01*
X74179523Y48805181D02*
X74369999Y48805181D01*
X74369999Y48805181D02*
X74465237Y48757562D01*
X74465237Y48757562D02*
X74512856Y48709943D01*
X74512856Y48709943D02*
X74608094Y48567086D01*
X74608094Y48567086D02*
X74655713Y48376610D01*
X74655713Y48376610D02*
X74655713Y47995658D01*
X74655713Y47995658D02*
X74608094Y47900420D01*
X74608094Y47900420D02*
X74560475Y47852800D01*
X74560475Y47852800D02*
X74465237Y47805181D01*
X74465237Y47805181D02*
X74274761Y47805181D01*
X74274761Y47805181D02*
X74179523Y47852800D01*
X74179523Y47852800D02*
X74131904Y47900420D01*
X74131904Y47900420D02*
X74084285Y47995658D01*
X74084285Y47995658D02*
X74084285Y48233753D01*
X74084285Y48233753D02*
X74131904Y48328991D01*
X74131904Y48328991D02*
X74179523Y48376610D01*
X74179523Y48376610D02*
X74274761Y48424229D01*
X74274761Y48424229D02*
X74465237Y48424229D01*
X74465237Y48424229D02*
X74560475Y48376610D01*
X74560475Y48376610D02*
X74608094Y48328991D01*
X74608094Y48328991D02*
X74655713Y48233753D01*
D11*
X58863999Y21063232D02*
X59117999Y21063232D01*
X59117999Y20664089D02*
X59117999Y21426089D01*
X59117999Y21426089D02*
X58755142Y21426089D01*
X58065713Y20664089D02*
X58501142Y20664089D01*
X58283427Y20664089D02*
X58283427Y21426089D01*
X58283427Y21426089D02*
X58355999Y21317232D01*
X58355999Y21317232D02*
X58428570Y21244660D01*
X58428570Y21244660D02*
X58501142Y21208374D01*
D10*
X99048094Y4305181D02*
X99048094Y5305181D01*
X99048094Y5305181D02*
X98667142Y5305181D01*
X98667142Y5305181D02*
X98571904Y5257562D01*
X98571904Y5257562D02*
X98524285Y5209943D01*
X98524285Y5209943D02*
X98476666Y5114705D01*
X98476666Y5114705D02*
X98476666Y4971848D01*
X98476666Y4971848D02*
X98524285Y4876610D01*
X98524285Y4876610D02*
X98571904Y4828991D01*
X98571904Y4828991D02*
X98667142Y4781372D01*
X98667142Y4781372D02*
X99048094Y4781372D01*
X98143332Y5305181D02*
X97524285Y5305181D01*
X97524285Y5305181D02*
X97857618Y4924229D01*
X97857618Y4924229D02*
X97714761Y4924229D01*
X97714761Y4924229D02*
X97619523Y4876610D01*
X97619523Y4876610D02*
X97571904Y4828991D01*
X97571904Y4828991D02*
X97524285Y4733753D01*
X97524285Y4733753D02*
X97524285Y4495658D01*
X97524285Y4495658D02*
X97571904Y4400420D01*
X97571904Y4400420D02*
X97619523Y4352800D01*
X97619523Y4352800D02*
X97714761Y4305181D01*
X97714761Y4305181D02*
X98000475Y4305181D01*
X98000475Y4305181D02*
X98095713Y4352800D01*
X98095713Y4352800D02*
X98143332Y4400420D01*
D11*
X79411608Y7733698D02*
X79665608Y8096555D01*
X79847037Y7733698D02*
X79847037Y8495698D01*
X79847037Y8495698D02*
X79556751Y8495698D01*
X79556751Y8495698D02*
X79484180Y8459412D01*
X79484180Y8459412D02*
X79447894Y8423126D01*
X79447894Y8423126D02*
X79411608Y8350555D01*
X79411608Y8350555D02*
X79411608Y8241698D01*
X79411608Y8241698D02*
X79447894Y8169126D01*
X79447894Y8169126D02*
X79484180Y8132841D01*
X79484180Y8132841D02*
X79556751Y8096555D01*
X79556751Y8096555D02*
X79847037Y8096555D01*
X78758466Y8241698D02*
X78758466Y7733698D01*
X78939894Y8531983D02*
X79121323Y7987698D01*
X79121323Y7987698D02*
X78649608Y7987698D01*
D10*
X119748094Y25805181D02*
X119748094Y26805181D01*
X119748094Y26805181D02*
X119367142Y26805181D01*
X119367142Y26805181D02*
X119271904Y26757562D01*
X119271904Y26757562D02*
X119224285Y26709943D01*
X119224285Y26709943D02*
X119176666Y26614705D01*
X119176666Y26614705D02*
X119176666Y26471848D01*
X119176666Y26471848D02*
X119224285Y26376610D01*
X119224285Y26376610D02*
X119271904Y26328991D01*
X119271904Y26328991D02*
X119367142Y26281372D01*
X119367142Y26281372D02*
X119748094Y26281372D01*
X118843332Y26805181D02*
X118176666Y26805181D01*
X118176666Y26805181D02*
X118605237Y25805181D01*
D11*
X52756768Y22864000D02*
X52756768Y23118000D01*
X53155911Y23118000D02*
X52393911Y23118000D01*
X52393911Y23118000D02*
X52393911Y22755143D01*
X52466483Y22501143D02*
X52430197Y22464857D01*
X52430197Y22464857D02*
X52393911Y22392285D01*
X52393911Y22392285D02*
X52393911Y22210857D01*
X52393911Y22210857D02*
X52430197Y22138285D01*
X52430197Y22138285D02*
X52466483Y22102000D01*
X52466483Y22102000D02*
X52539054Y22065714D01*
X52539054Y22065714D02*
X52611626Y22065714D01*
X52611626Y22065714D02*
X52720483Y22102000D01*
X52720483Y22102000D02*
X53155911Y22537428D01*
X53155911Y22537428D02*
X53155911Y22065714D01*
D10*
X48024285Y11955181D02*
X48024285Y12955181D01*
X48024285Y12955181D02*
X47643333Y12955181D01*
X47643333Y12955181D02*
X47548095Y12907562D01*
X47548095Y12907562D02*
X47500476Y12859943D01*
X47500476Y12859943D02*
X47452857Y12764705D01*
X47452857Y12764705D02*
X47452857Y12621848D01*
X47452857Y12621848D02*
X47500476Y12526610D01*
X47500476Y12526610D02*
X47548095Y12478991D01*
X47548095Y12478991D02*
X47643333Y12431372D01*
X47643333Y12431372D02*
X48024285Y12431372D01*
X46500476Y11955181D02*
X47071904Y11955181D01*
X46786190Y11955181D02*
X46786190Y12955181D01*
X46786190Y12955181D02*
X46881428Y12812324D01*
X46881428Y12812324D02*
X46976666Y12717086D01*
X46976666Y12717086D02*
X47071904Y12669467D01*
X45643333Y12955181D02*
X45833809Y12955181D01*
X45833809Y12955181D02*
X45929047Y12907562D01*
X45929047Y12907562D02*
X45976666Y12859943D01*
X45976666Y12859943D02*
X46071904Y12717086D01*
X46071904Y12717086D02*
X46119523Y12526610D01*
X46119523Y12526610D02*
X46119523Y12145658D01*
X46119523Y12145658D02*
X46071904Y12050420D01*
X46071904Y12050420D02*
X46024285Y12002800D01*
X46024285Y12002800D02*
X45929047Y11955181D01*
X45929047Y11955181D02*
X45738571Y11955181D01*
X45738571Y11955181D02*
X45643333Y12002800D01*
X45643333Y12002800D02*
X45595714Y12050420D01*
X45595714Y12050420D02*
X45548095Y12145658D01*
X45548095Y12145658D02*
X45548095Y12383753D01*
X45548095Y12383753D02*
X45595714Y12478991D01*
X45595714Y12478991D02*
X45643333Y12526610D01*
X45643333Y12526610D02*
X45738571Y12574229D01*
X45738571Y12574229D02*
X45929047Y12574229D01*
X45929047Y12574229D02*
X46024285Y12526610D01*
X46024285Y12526610D02*
X46071904Y12478991D01*
X46071904Y12478991D02*
X46119523Y12383753D01*
X89048094Y78855181D02*
X89048094Y79855181D01*
X89048094Y79855181D02*
X88809999Y79855181D01*
X88809999Y79855181D02*
X88667142Y79807562D01*
X88667142Y79807562D02*
X88571904Y79712324D01*
X88571904Y79712324D02*
X88524285Y79617086D01*
X88524285Y79617086D02*
X88476666Y79426610D01*
X88476666Y79426610D02*
X88476666Y79283753D01*
X88476666Y79283753D02*
X88524285Y79093277D01*
X88524285Y79093277D02*
X88571904Y78998039D01*
X88571904Y78998039D02*
X88667142Y78902800D01*
X88667142Y78902800D02*
X88809999Y78855181D01*
X88809999Y78855181D02*
X89048094Y78855181D01*
X87905237Y79426610D02*
X88000475Y79474229D01*
X88000475Y79474229D02*
X88048094Y79521848D01*
X88048094Y79521848D02*
X88095713Y79617086D01*
X88095713Y79617086D02*
X88095713Y79664705D01*
X88095713Y79664705D02*
X88048094Y79759943D01*
X88048094Y79759943D02*
X88000475Y79807562D01*
X88000475Y79807562D02*
X87905237Y79855181D01*
X87905237Y79855181D02*
X87714761Y79855181D01*
X87714761Y79855181D02*
X87619523Y79807562D01*
X87619523Y79807562D02*
X87571904Y79759943D01*
X87571904Y79759943D02*
X87524285Y79664705D01*
X87524285Y79664705D02*
X87524285Y79617086D01*
X87524285Y79617086D02*
X87571904Y79521848D01*
X87571904Y79521848D02*
X87619523Y79474229D01*
X87619523Y79474229D02*
X87714761Y79426610D01*
X87714761Y79426610D02*
X87905237Y79426610D01*
X87905237Y79426610D02*
X88000475Y79378991D01*
X88000475Y79378991D02*
X88048094Y79331372D01*
X88048094Y79331372D02*
X88095713Y79236134D01*
X88095713Y79236134D02*
X88095713Y79045658D01*
X88095713Y79045658D02*
X88048094Y78950420D01*
X88048094Y78950420D02*
X88000475Y78902800D01*
X88000475Y78902800D02*
X87905237Y78855181D01*
X87905237Y78855181D02*
X87714761Y78855181D01*
X87714761Y78855181D02*
X87619523Y78902800D01*
X87619523Y78902800D02*
X87571904Y78950420D01*
X87571904Y78950420D02*
X87524285Y79045658D01*
X87524285Y79045658D02*
X87524285Y79236134D01*
X87524285Y79236134D02*
X87571904Y79331372D01*
X87571904Y79331372D02*
X87619523Y79378991D01*
X87619523Y79378991D02*
X87714761Y79426610D01*
X48239417Y69685181D02*
X48239417Y68875658D01*
X48239417Y68875658D02*
X48191798Y68780420D01*
X48191798Y68780420D02*
X48144179Y68732800D01*
X48144179Y68732800D02*
X48048941Y68685181D01*
X48048941Y68685181D02*
X47858465Y68685181D01*
X47858465Y68685181D02*
X47763227Y68732800D01*
X47763227Y68732800D02*
X47715608Y68780420D01*
X47715608Y68780420D02*
X47667989Y68875658D01*
X47667989Y68875658D02*
X47667989Y69685181D01*
X47287036Y69685181D02*
X46620370Y69685181D01*
X46620370Y69685181D02*
X47048941Y68685181D01*
D12*
X97922712Y68284348D02*
X97961760Y68323396D01*
X97961760Y68323396D02*
X98000807Y68440539D01*
X98000807Y68440539D02*
X98000807Y68518634D01*
X98000807Y68518634D02*
X97961760Y68635777D01*
X97961760Y68635777D02*
X97883664Y68713872D01*
X97883664Y68713872D02*
X97805569Y68752920D01*
X97805569Y68752920D02*
X97649378Y68791968D01*
X97649378Y68791968D02*
X97532235Y68791968D01*
X97532235Y68791968D02*
X97376045Y68752920D01*
X97376045Y68752920D02*
X97297949Y68713872D01*
X97297949Y68713872D02*
X97219854Y68635777D01*
X97219854Y68635777D02*
X97180806Y68518634D01*
X97180806Y68518634D02*
X97180806Y68440539D01*
X97180806Y68440539D02*
X97219854Y68323396D01*
X97219854Y68323396D02*
X97258902Y68284348D01*
X97258902Y67971967D02*
X97219854Y67932919D01*
X97219854Y67932919D02*
X97180806Y67854824D01*
X97180806Y67854824D02*
X97180806Y67659585D01*
X97180806Y67659585D02*
X97219854Y67581490D01*
X97219854Y67581490D02*
X97258902Y67542442D01*
X97258902Y67542442D02*
X97336997Y67503395D01*
X97336997Y67503395D02*
X97415092Y67503395D01*
X97415092Y67503395D02*
X97532235Y67542442D01*
X97532235Y67542442D02*
X98000807Y68011014D01*
X98000807Y68011014D02*
X98000807Y67503395D01*
X97180806Y67230061D02*
X97180806Y66683394D01*
X97180806Y66683394D02*
X98000807Y67034823D01*
X40805237Y33099492D02*
X40805237Y33919492D01*
X40805237Y33919492D02*
X40609999Y33919492D01*
X40609999Y33919492D02*
X40492856Y33880444D01*
X40492856Y33880444D02*
X40414761Y33802349D01*
X40414761Y33802349D02*
X40375714Y33724254D01*
X40375714Y33724254D02*
X40336666Y33568063D01*
X40336666Y33568063D02*
X40336666Y33450920D01*
X40336666Y33450920D02*
X40375714Y33294730D01*
X40375714Y33294730D02*
X40414761Y33216635D01*
X40414761Y33216635D02*
X40492856Y33138539D01*
X40492856Y33138539D02*
X40609999Y33099492D01*
X40609999Y33099492D02*
X40805237Y33099492D01*
X39633809Y33646159D02*
X39633809Y33099492D01*
X39829047Y33958539D02*
X40024285Y33372825D01*
X40024285Y33372825D02*
X39516666Y33372825D01*
D10*
X133362714Y16999049D02*
X133219857Y16951430D01*
X133219857Y16951430D02*
X133172238Y16903811D01*
X133172238Y16903811D02*
X133124619Y16808573D01*
X133124619Y16808573D02*
X133124619Y16665716D01*
X133124619Y16665716D02*
X133172238Y16570478D01*
X133172238Y16570478D02*
X133219857Y16522858D01*
X133219857Y16522858D02*
X133315095Y16475239D01*
X133315095Y16475239D02*
X133696047Y16475239D01*
X133696047Y16475239D02*
X133696047Y17475239D01*
X133696047Y17475239D02*
X133362714Y17475239D01*
X133362714Y17475239D02*
X133267476Y17427620D01*
X133267476Y17427620D02*
X133219857Y17380001D01*
X133219857Y17380001D02*
X133172238Y17284763D01*
X133172238Y17284763D02*
X133172238Y17189525D01*
X133172238Y17189525D02*
X133219857Y17094287D01*
X133219857Y17094287D02*
X133267476Y17046668D01*
X133267476Y17046668D02*
X133362714Y16999049D01*
X133362714Y16999049D02*
X133696047Y16999049D01*
X132838904Y17475239D02*
X132267476Y17475239D01*
X132553190Y16475239D02*
X132553190Y17475239D01*
X131410333Y16475239D02*
X131981761Y16475239D01*
X131696047Y16475239D02*
X131696047Y17475239D01*
X131696047Y17475239D02*
X131791285Y17332382D01*
X131791285Y17332382D02*
X131886523Y17237144D01*
X131886523Y17237144D02*
X131981761Y17189525D01*
D13*
X125626041Y33803305D02*
X125687945Y33741400D01*
X125687945Y33741400D02*
X125873660Y33679496D01*
X125873660Y33679496D02*
X125997469Y33679496D01*
X125997469Y33679496D02*
X126183183Y33741400D01*
X126183183Y33741400D02*
X126306993Y33865210D01*
X126306993Y33865210D02*
X126368898Y33989020D01*
X126368898Y33989020D02*
X126430802Y34236639D01*
X126430802Y34236639D02*
X126430802Y34422353D01*
X126430802Y34422353D02*
X126368898Y34669972D01*
X126368898Y34669972D02*
X126306993Y34793781D01*
X126306993Y34793781D02*
X126183183Y34917591D01*
X126183183Y34917591D02*
X125997469Y34979496D01*
X125997469Y34979496D02*
X125873660Y34979496D01*
X125873660Y34979496D02*
X125687945Y34917591D01*
X125687945Y34917591D02*
X125626041Y34855686D01*
X124326041Y33679496D02*
X124759374Y34298543D01*
X125068898Y33679496D02*
X125068898Y34979496D01*
X125068898Y34979496D02*
X124573660Y34979496D01*
X124573660Y34979496D02*
X124449850Y34917591D01*
X124449850Y34917591D02*
X124387945Y34855686D01*
X124387945Y34855686D02*
X124326041Y34731877D01*
X124326041Y34731877D02*
X124326041Y34546162D01*
X124326041Y34546162D02*
X124387945Y34422353D01*
X124387945Y34422353D02*
X124449850Y34360448D01*
X124449850Y34360448D02*
X124573660Y34298543D01*
X124573660Y34298543D02*
X125068898Y34298543D01*
X123087945Y33679496D02*
X123830802Y33679496D01*
X123459374Y33679496D02*
X123459374Y34979496D01*
X123459374Y34979496D02*
X123583183Y34793781D01*
X123583183Y34793781D02*
X123706993Y34669972D01*
X123706993Y34669972D02*
X123830802Y34608067D01*
X122592707Y34855686D02*
X122530803Y34917591D01*
X122530803Y34917591D02*
X122406993Y34979496D01*
X122406993Y34979496D02*
X122097469Y34979496D01*
X122097469Y34979496D02*
X121973660Y34917591D01*
X121973660Y34917591D02*
X121911755Y34855686D01*
X121911755Y34855686D02*
X121849850Y34731877D01*
X121849850Y34731877D02*
X121849850Y34608067D01*
X121849850Y34608067D02*
X121911755Y34422353D01*
X121911755Y34422353D02*
X122654612Y33679496D01*
X122654612Y33679496D02*
X121849850Y33679496D01*
X121354612Y34855686D02*
X121292708Y34917591D01*
X121292708Y34917591D02*
X121168898Y34979496D01*
X121168898Y34979496D02*
X120859374Y34979496D01*
X120859374Y34979496D02*
X120735565Y34917591D01*
X120735565Y34917591D02*
X120673660Y34855686D01*
X120673660Y34855686D02*
X120611755Y34731877D01*
X120611755Y34731877D02*
X120611755Y34608067D01*
X120611755Y34608067D02*
X120673660Y34422353D01*
X120673660Y34422353D02*
X121416517Y33679496D01*
X121416517Y33679496D02*
X120611755Y33679496D01*
X119806994Y34979496D02*
X119683184Y34979496D01*
X119683184Y34979496D02*
X119559375Y34917591D01*
X119559375Y34917591D02*
X119497470Y34855686D01*
X119497470Y34855686D02*
X119435565Y34731877D01*
X119435565Y34731877D02*
X119373660Y34484258D01*
X119373660Y34484258D02*
X119373660Y34174734D01*
X119373660Y34174734D02*
X119435565Y33927115D01*
X119435565Y33927115D02*
X119497470Y33803305D01*
X119497470Y33803305D02*
X119559375Y33741400D01*
X119559375Y33741400D02*
X119683184Y33679496D01*
X119683184Y33679496D02*
X119806994Y33679496D01*
X119806994Y33679496D02*
X119930803Y33741400D01*
X119930803Y33741400D02*
X119992708Y33803305D01*
X119992708Y33803305D02*
X120054613Y33927115D01*
X120054613Y33927115D02*
X120116517Y34174734D01*
X120116517Y34174734D02*
X120116517Y34484258D01*
X120116517Y34484258D02*
X120054613Y34731877D01*
X120054613Y34731877D02*
X119992708Y34855686D01*
X119992708Y34855686D02*
X119930803Y34917591D01*
X119930803Y34917591D02*
X119806994Y34979496D01*
D10*
X47268094Y47155181D02*
X47268094Y46345658D01*
X47268094Y46345658D02*
X47220475Y46250420D01*
X47220475Y46250420D02*
X47172856Y46202800D01*
X47172856Y46202800D02*
X47077618Y46155181D01*
X47077618Y46155181D02*
X46887142Y46155181D01*
X46887142Y46155181D02*
X46791904Y46202800D01*
X46791904Y46202800D02*
X46744285Y46250420D01*
X46744285Y46250420D02*
X46696666Y46345658D01*
X46696666Y46345658D02*
X46696666Y47155181D01*
X45696666Y46155181D02*
X46268094Y46155181D01*
X45982380Y46155181D02*
X45982380Y47155181D01*
X45982380Y47155181D02*
X46077618Y47012324D01*
X46077618Y47012324D02*
X46172856Y46917086D01*
X46172856Y46917086D02*
X46268094Y46869467D01*
X45077618Y47155181D02*
X44982380Y47155181D01*
X44982380Y47155181D02*
X44887142Y47107562D01*
X44887142Y47107562D02*
X44839523Y47059943D01*
X44839523Y47059943D02*
X44791904Y46964705D01*
X44791904Y46964705D02*
X44744285Y46774229D01*
X44744285Y46774229D02*
X44744285Y46536134D01*
X44744285Y46536134D02*
X44791904Y46345658D01*
X44791904Y46345658D02*
X44839523Y46250420D01*
X44839523Y46250420D02*
X44887142Y46202800D01*
X44887142Y46202800D02*
X44982380Y46155181D01*
X44982380Y46155181D02*
X45077618Y46155181D01*
X45077618Y46155181D02*
X45172856Y46202800D01*
X45172856Y46202800D02*
X45220475Y46250420D01*
X45220475Y46250420D02*
X45268094Y46345658D01*
X45268094Y46345658D02*
X45315713Y46536134D01*
X45315713Y46536134D02*
X45315713Y46774229D01*
X45315713Y46774229D02*
X45268094Y46964705D01*
X45268094Y46964705D02*
X45220475Y47059943D01*
X45220475Y47059943D02*
X45172856Y47107562D01*
X45172856Y47107562D02*
X45077618Y47155181D01*
D12*
X45243164Y48830809D02*
X44969831Y48440333D01*
X44774593Y48830809D02*
X44774593Y48010809D01*
X44774593Y48010809D02*
X45086974Y48010809D01*
X45086974Y48010809D02*
X45165069Y48049857D01*
X45165069Y48049857D02*
X45204116Y48088904D01*
X45204116Y48088904D02*
X45243164Y48167000D01*
X45243164Y48167000D02*
X45243164Y48284142D01*
X45243164Y48284142D02*
X45204116Y48362238D01*
X45204116Y48362238D02*
X45165069Y48401285D01*
X45165069Y48401285D02*
X45086974Y48440333D01*
X45086974Y48440333D02*
X44774593Y48440333D01*
X45516497Y48010809D02*
X46024116Y48010809D01*
X46024116Y48010809D02*
X45750783Y48323190D01*
X45750783Y48323190D02*
X45867926Y48323190D01*
X45867926Y48323190D02*
X45946021Y48362238D01*
X45946021Y48362238D02*
X45985069Y48401285D01*
X45985069Y48401285D02*
X46024116Y48479381D01*
X46024116Y48479381D02*
X46024116Y48674619D01*
X46024116Y48674619D02*
X45985069Y48752714D01*
X45985069Y48752714D02*
X45946021Y48791761D01*
X45946021Y48791761D02*
X45867926Y48830809D01*
X45867926Y48830809D02*
X45633640Y48830809D01*
X45633640Y48830809D02*
X45555545Y48791761D01*
X45555545Y48791761D02*
X45516497Y48752714D01*
X46805068Y48830809D02*
X46336497Y48830809D01*
X46570783Y48830809D02*
X46570783Y48010809D01*
X46570783Y48010809D02*
X46492687Y48127952D01*
X46492687Y48127952D02*
X46414592Y48206047D01*
X46414592Y48206047D02*
X46336497Y48245095D01*
X95034347Y80997288D02*
X95073395Y80958240D01*
X95073395Y80958240D02*
X95190538Y80919193D01*
X95190538Y80919193D02*
X95268633Y80919193D01*
X95268633Y80919193D02*
X95385776Y80958240D01*
X95385776Y80958240D02*
X95463872Y81036336D01*
X95463872Y81036336D02*
X95502919Y81114431D01*
X95502919Y81114431D02*
X95541967Y81270622D01*
X95541967Y81270622D02*
X95541967Y81387765D01*
X95541967Y81387765D02*
X95502919Y81543955D01*
X95502919Y81543955D02*
X95463872Y81622051D01*
X95463872Y81622051D02*
X95385776Y81700146D01*
X95385776Y81700146D02*
X95268633Y81739194D01*
X95268633Y81739194D02*
X95190538Y81739194D01*
X95190538Y81739194D02*
X95073395Y81700146D01*
X95073395Y81700146D02*
X95034347Y81661098D01*
X94761014Y81739194D02*
X94253394Y81739194D01*
X94253394Y81739194D02*
X94526728Y81426812D01*
X94526728Y81426812D02*
X94409585Y81426812D01*
X94409585Y81426812D02*
X94331489Y81387765D01*
X94331489Y81387765D02*
X94292442Y81348717D01*
X94292442Y81348717D02*
X94253394Y81270622D01*
X94253394Y81270622D02*
X94253394Y81075383D01*
X94253394Y81075383D02*
X94292442Y80997288D01*
X94292442Y80997288D02*
X94331489Y80958240D01*
X94331489Y80958240D02*
X94409585Y80919193D01*
X94409585Y80919193D02*
X94643871Y80919193D01*
X94643871Y80919193D02*
X94721966Y80958240D01*
X94721966Y80958240D02*
X94761014Y80997288D01*
X93745775Y81739194D02*
X93667679Y81739194D01*
X93667679Y81739194D02*
X93589584Y81700146D01*
X93589584Y81700146D02*
X93550536Y81661098D01*
X93550536Y81661098D02*
X93511489Y81583003D01*
X93511489Y81583003D02*
X93472441Y81426812D01*
X93472441Y81426812D02*
X93472441Y81231574D01*
X93472441Y81231574D02*
X93511489Y81075383D01*
X93511489Y81075383D02*
X93550536Y80997288D01*
X93550536Y80997288D02*
X93589584Y80958240D01*
X93589584Y80958240D02*
X93667679Y80919193D01*
X93667679Y80919193D02*
X93745775Y80919193D01*
X93745775Y80919193D02*
X93823870Y80958240D01*
X93823870Y80958240D02*
X93862918Y80997288D01*
X93862918Y80997288D02*
X93901965Y81075383D01*
X93901965Y81075383D02*
X93941013Y81231574D01*
X93941013Y81231574D02*
X93941013Y81426812D01*
X93941013Y81426812D02*
X93901965Y81583003D01*
X93901965Y81583003D02*
X93862918Y81661098D01*
X93862918Y81661098D02*
X93823870Y81700146D01*
X93823870Y81700146D02*
X93745775Y81739194D01*
X131822712Y34534348D02*
X131861760Y34573396D01*
X131861760Y34573396D02*
X131900807Y34690539D01*
X131900807Y34690539D02*
X131900807Y34768634D01*
X131900807Y34768634D02*
X131861760Y34885777D01*
X131861760Y34885777D02*
X131783664Y34963872D01*
X131783664Y34963872D02*
X131705569Y35002920D01*
X131705569Y35002920D02*
X131549378Y35041968D01*
X131549378Y35041968D02*
X131432235Y35041968D01*
X131432235Y35041968D02*
X131276045Y35002920D01*
X131276045Y35002920D02*
X131197949Y34963872D01*
X131197949Y34963872D02*
X131119854Y34885777D01*
X131119854Y34885777D02*
X131080806Y34768634D01*
X131080806Y34768634D02*
X131080806Y34690539D01*
X131080806Y34690539D02*
X131119854Y34573396D01*
X131119854Y34573396D02*
X131158902Y34534348D01*
X131080806Y34261014D02*
X131080806Y33753395D01*
X131080806Y33753395D02*
X131393188Y34026728D01*
X131393188Y34026728D02*
X131393188Y33909585D01*
X131393188Y33909585D02*
X131432235Y33831490D01*
X131432235Y33831490D02*
X131471283Y33792442D01*
X131471283Y33792442D02*
X131549378Y33753395D01*
X131549378Y33753395D02*
X131744617Y33753395D01*
X131744617Y33753395D02*
X131822712Y33792442D01*
X131822712Y33792442D02*
X131861760Y33831490D01*
X131861760Y33831490D02*
X131900807Y33909585D01*
X131900807Y33909585D02*
X131900807Y34143871D01*
X131900807Y34143871D02*
X131861760Y34221967D01*
X131861760Y34221967D02*
X131822712Y34261014D01*
X131080806Y33480061D02*
X131080806Y32972442D01*
X131080806Y32972442D02*
X131393188Y33245775D01*
X131393188Y33245775D02*
X131393188Y33128632D01*
X131393188Y33128632D02*
X131432235Y33050537D01*
X131432235Y33050537D02*
X131471283Y33011489D01*
X131471283Y33011489D02*
X131549378Y32972442D01*
X131549378Y32972442D02*
X131744617Y32972442D01*
X131744617Y32972442D02*
X131822712Y33011489D01*
X131822712Y33011489D02*
X131861760Y33050537D01*
X131861760Y33050537D02*
X131900807Y33128632D01*
X131900807Y33128632D02*
X131900807Y33362918D01*
X131900807Y33362918D02*
X131861760Y33441014D01*
X131861760Y33441014D02*
X131822712Y33480061D01*
X94434347Y76797288D02*
X94473395Y76758240D01*
X94473395Y76758240D02*
X94590538Y76719193D01*
X94590538Y76719193D02*
X94668633Y76719193D01*
X94668633Y76719193D02*
X94785776Y76758240D01*
X94785776Y76758240D02*
X94863872Y76836336D01*
X94863872Y76836336D02*
X94902919Y76914431D01*
X94902919Y76914431D02*
X94941967Y77070622D01*
X94941967Y77070622D02*
X94941967Y77187765D01*
X94941967Y77187765D02*
X94902919Y77343955D01*
X94902919Y77343955D02*
X94863872Y77422051D01*
X94863872Y77422051D02*
X94785776Y77500146D01*
X94785776Y77500146D02*
X94668633Y77539194D01*
X94668633Y77539194D02*
X94590538Y77539194D01*
X94590538Y77539194D02*
X94473395Y77500146D01*
X94473395Y77500146D02*
X94434347Y77461098D01*
X94121966Y77461098D02*
X94082918Y77500146D01*
X94082918Y77500146D02*
X94004823Y77539194D01*
X94004823Y77539194D02*
X93809585Y77539194D01*
X93809585Y77539194D02*
X93731489Y77500146D01*
X93731489Y77500146D02*
X93692442Y77461098D01*
X93692442Y77461098D02*
X93653394Y77383003D01*
X93653394Y77383003D02*
X93653394Y77304908D01*
X93653394Y77304908D02*
X93692442Y77187765D01*
X93692442Y77187765D02*
X94161014Y76719193D01*
X94161014Y76719193D02*
X93653394Y76719193D01*
X93262918Y76719193D02*
X93106727Y76719193D01*
X93106727Y76719193D02*
X93028632Y76758240D01*
X93028632Y76758240D02*
X92989584Y76797288D01*
X92989584Y76797288D02*
X92911489Y76914431D01*
X92911489Y76914431D02*
X92872441Y77070622D01*
X92872441Y77070622D02*
X92872441Y77383003D01*
X92872441Y77383003D02*
X92911489Y77461098D01*
X92911489Y77461098D02*
X92950536Y77500146D01*
X92950536Y77500146D02*
X93028632Y77539194D01*
X93028632Y77539194D02*
X93184822Y77539194D01*
X93184822Y77539194D02*
X93262918Y77500146D01*
X93262918Y77500146D02*
X93301965Y77461098D01*
X93301965Y77461098D02*
X93341013Y77383003D01*
X93341013Y77383003D02*
X93341013Y77187765D01*
X93341013Y77187765D02*
X93301965Y77109669D01*
X93301965Y77109669D02*
X93262918Y77070622D01*
X93262918Y77070622D02*
X93184822Y77031574D01*
X93184822Y77031574D02*
X93028632Y77031574D01*
X93028632Y77031574D02*
X92950536Y77070622D01*
X92950536Y77070622D02*
X92911489Y77109669D01*
X92911489Y77109669D02*
X92872441Y77187765D01*
X43204348Y51969192D02*
X43477681Y52359668D01*
X43672919Y51969192D02*
X43672919Y52789192D01*
X43672919Y52789192D02*
X43360538Y52789192D01*
X43360538Y52789192D02*
X43282443Y52750144D01*
X43282443Y52750144D02*
X43243396Y52711097D01*
X43243396Y52711097D02*
X43204348Y52633001D01*
X43204348Y52633001D02*
X43204348Y52515859D01*
X43204348Y52515859D02*
X43243396Y52437763D01*
X43243396Y52437763D02*
X43282443Y52398716D01*
X43282443Y52398716D02*
X43360538Y52359668D01*
X43360538Y52359668D02*
X43672919Y52359668D01*
X42931015Y52789192D02*
X42423396Y52789192D01*
X42423396Y52789192D02*
X42696729Y52476811D01*
X42696729Y52476811D02*
X42579586Y52476811D01*
X42579586Y52476811D02*
X42501491Y52437763D01*
X42501491Y52437763D02*
X42462443Y52398716D01*
X42462443Y52398716D02*
X42423396Y52320620D01*
X42423396Y52320620D02*
X42423396Y52125382D01*
X42423396Y52125382D02*
X42462443Y52047287D01*
X42462443Y52047287D02*
X42501491Y52008239D01*
X42501491Y52008239D02*
X42579586Y51969192D01*
X42579586Y51969192D02*
X42813872Y51969192D01*
X42813872Y51969192D02*
X42891967Y52008239D01*
X42891967Y52008239D02*
X42931015Y52047287D01*
X41720539Y52515859D02*
X41720539Y51969192D01*
X41915777Y52828239D02*
X42111015Y52242525D01*
X42111015Y52242525D02*
X41603396Y52242525D01*
X9283321Y29506846D02*
X8892845Y29780179D01*
X9283321Y29975417D02*
X8463321Y29975417D01*
X8463321Y29975417D02*
X8463321Y29663036D01*
X8463321Y29663036D02*
X8502369Y29584941D01*
X8502369Y29584941D02*
X8541416Y29545894D01*
X8541416Y29545894D02*
X8619512Y29506846D01*
X8619512Y29506846D02*
X8736654Y29506846D01*
X8736654Y29506846D02*
X8814750Y29545894D01*
X8814750Y29545894D02*
X8853797Y29584941D01*
X8853797Y29584941D02*
X8892845Y29663036D01*
X8892845Y29663036D02*
X8892845Y29975417D01*
X9283321Y28725894D02*
X9283321Y29194465D01*
X9283321Y28960179D02*
X8463321Y28960179D01*
X8463321Y28960179D02*
X8580464Y29038275D01*
X8580464Y29038275D02*
X8658559Y29116370D01*
X8658559Y29116370D02*
X8697607Y29194465D01*
D10*
X89871904Y76755181D02*
X89871904Y75945658D01*
X89871904Y75945658D02*
X89824285Y75850420D01*
X89824285Y75850420D02*
X89776666Y75802800D01*
X89776666Y75802800D02*
X89681428Y75755181D01*
X89681428Y75755181D02*
X89490952Y75755181D01*
X89490952Y75755181D02*
X89395714Y75802800D01*
X89395714Y75802800D02*
X89348095Y75850420D01*
X89348095Y75850420D02*
X89300476Y75945658D01*
X89300476Y75945658D02*
X89300476Y76755181D01*
X88395714Y76421848D02*
X88395714Y75755181D01*
X88633809Y76802800D02*
X88871904Y76088515D01*
X88871904Y76088515D02*
X88252857Y76088515D01*
X48268094Y56105181D02*
X48268094Y55295658D01*
X48268094Y55295658D02*
X48220475Y55200420D01*
X48220475Y55200420D02*
X48172856Y55152800D01*
X48172856Y55152800D02*
X48077618Y55105181D01*
X48077618Y55105181D02*
X47887142Y55105181D01*
X47887142Y55105181D02*
X47791904Y55152800D01*
X47791904Y55152800D02*
X47744285Y55200420D01*
X47744285Y55200420D02*
X47696666Y55295658D01*
X47696666Y55295658D02*
X47696666Y56105181D01*
X46696666Y55105181D02*
X47268094Y55105181D01*
X46982380Y55105181D02*
X46982380Y56105181D01*
X46982380Y56105181D02*
X47077618Y55962324D01*
X47077618Y55962324D02*
X47172856Y55867086D01*
X47172856Y55867086D02*
X47268094Y55819467D01*
X45744285Y55105181D02*
X46315713Y55105181D01*
X46029999Y55105181D02*
X46029999Y56105181D01*
X46029999Y56105181D02*
X46125237Y55962324D01*
X46125237Y55962324D02*
X46220475Y55867086D01*
X46220475Y55867086D02*
X46315713Y55819467D01*
D12*
X96022712Y76634348D02*
X96061760Y76673396D01*
X96061760Y76673396D02*
X96100807Y76790539D01*
X96100807Y76790539D02*
X96100807Y76868634D01*
X96100807Y76868634D02*
X96061760Y76985777D01*
X96061760Y76985777D02*
X95983664Y77063872D01*
X95983664Y77063872D02*
X95905569Y77102920D01*
X95905569Y77102920D02*
X95749378Y77141968D01*
X95749378Y77141968D02*
X95632235Y77141968D01*
X95632235Y77141968D02*
X95476045Y77102920D01*
X95476045Y77102920D02*
X95397949Y77063872D01*
X95397949Y77063872D02*
X95319854Y76985777D01*
X95319854Y76985777D02*
X95280806Y76868634D01*
X95280806Y76868634D02*
X95280806Y76790539D01*
X95280806Y76790539D02*
X95319854Y76673396D01*
X95319854Y76673396D02*
X95358902Y76634348D01*
X95280806Y76361014D02*
X95280806Y75853395D01*
X95280806Y75853395D02*
X95593188Y76126728D01*
X95593188Y76126728D02*
X95593188Y76009585D01*
X95593188Y76009585D02*
X95632235Y75931490D01*
X95632235Y75931490D02*
X95671283Y75892442D01*
X95671283Y75892442D02*
X95749378Y75853395D01*
X95749378Y75853395D02*
X95944617Y75853395D01*
X95944617Y75853395D02*
X96022712Y75892442D01*
X96022712Y75892442D02*
X96061760Y75931490D01*
X96061760Y75931490D02*
X96100807Y76009585D01*
X96100807Y76009585D02*
X96100807Y76243871D01*
X96100807Y76243871D02*
X96061760Y76321967D01*
X96061760Y76321967D02*
X96022712Y76361014D01*
X96100807Y75072442D02*
X96100807Y75541014D01*
X96100807Y75306728D02*
X95280806Y75306728D01*
X95280806Y75306728D02*
X95397949Y75384823D01*
X95397949Y75384823D02*
X95476045Y75462918D01*
X95476045Y75462918D02*
X95515092Y75541014D01*
X52343164Y69160809D02*
X52069831Y68770333D01*
X51874593Y69160809D02*
X51874593Y68340809D01*
X51874593Y68340809D02*
X52186974Y68340809D01*
X52186974Y68340809D02*
X52265069Y68379857D01*
X52265069Y68379857D02*
X52304116Y68418904D01*
X52304116Y68418904D02*
X52343164Y68497000D01*
X52343164Y68497000D02*
X52343164Y68614142D01*
X52343164Y68614142D02*
X52304116Y68692238D01*
X52304116Y68692238D02*
X52265069Y68731285D01*
X52265069Y68731285D02*
X52186974Y68770333D01*
X52186974Y68770333D02*
X51874593Y68770333D01*
X53124116Y69160809D02*
X52655545Y69160809D01*
X52889831Y69160809D02*
X52889831Y68340809D01*
X52889831Y68340809D02*
X52811735Y68457952D01*
X52811735Y68457952D02*
X52733640Y68536047D01*
X52733640Y68536047D02*
X52655545Y68575095D01*
X53631735Y68340809D02*
X53709830Y68340809D01*
X53709830Y68340809D02*
X53787926Y68379857D01*
X53787926Y68379857D02*
X53826973Y68418904D01*
X53826973Y68418904D02*
X53866021Y68497000D01*
X53866021Y68497000D02*
X53905068Y68653190D01*
X53905068Y68653190D02*
X53905068Y68848428D01*
X53905068Y68848428D02*
X53866021Y69004619D01*
X53866021Y69004619D02*
X53826973Y69082714D01*
X53826973Y69082714D02*
X53787926Y69121761D01*
X53787926Y69121761D02*
X53709830Y69160809D01*
X53709830Y69160809D02*
X53631735Y69160809D01*
X53631735Y69160809D02*
X53553640Y69121761D01*
X53553640Y69121761D02*
X53514592Y69082714D01*
X53514592Y69082714D02*
X53475545Y69004619D01*
X53475545Y69004619D02*
X53436497Y68848428D01*
X53436497Y68848428D02*
X53436497Y68653190D01*
X53436497Y68653190D02*
X53475545Y68497000D01*
X53475545Y68497000D02*
X53514592Y68418904D01*
X53514592Y68418904D02*
X53553640Y68379857D01*
X53553640Y68379857D02*
X53631735Y68340809D01*
X43710508Y70605238D02*
X42890508Y70605238D01*
X42890508Y70605238D02*
X42890508Y70410000D01*
X42890508Y70410000D02*
X42929556Y70292857D01*
X42929556Y70292857D02*
X43007651Y70214762D01*
X43007651Y70214762D02*
X43085746Y70175715D01*
X43085746Y70175715D02*
X43241937Y70136667D01*
X43241937Y70136667D02*
X43359080Y70136667D01*
X43359080Y70136667D02*
X43515270Y70175715D01*
X43515270Y70175715D02*
X43593365Y70214762D01*
X43593365Y70214762D02*
X43671461Y70292857D01*
X43671461Y70292857D02*
X43710508Y70410000D01*
X43710508Y70410000D02*
X43710508Y70605238D01*
X42968603Y69824286D02*
X42929556Y69785238D01*
X42929556Y69785238D02*
X42890508Y69707143D01*
X42890508Y69707143D02*
X42890508Y69511905D01*
X42890508Y69511905D02*
X42929556Y69433810D01*
X42929556Y69433810D02*
X42968603Y69394762D01*
X42968603Y69394762D02*
X43046699Y69355715D01*
X43046699Y69355715D02*
X43124794Y69355715D01*
X43124794Y69355715D02*
X43241937Y69394762D01*
X43241937Y69394762D02*
X43710508Y69863334D01*
X43710508Y69863334D02*
X43710508Y69355715D01*
X121007681Y15616745D02*
X121007681Y16416745D01*
X121007681Y16416745D02*
X120817205Y16416745D01*
X120817205Y16416745D02*
X120702919Y16378650D01*
X120702919Y16378650D02*
X120626729Y16302460D01*
X120626729Y16302460D02*
X120588634Y16226269D01*
X120588634Y16226269D02*
X120550538Y16073888D01*
X120550538Y16073888D02*
X120550538Y15959602D01*
X120550538Y15959602D02*
X120588634Y15807221D01*
X120588634Y15807221D02*
X120626729Y15731031D01*
X120626729Y15731031D02*
X120702919Y15654840D01*
X120702919Y15654840D02*
X120817205Y15616745D01*
X120817205Y15616745D02*
X121007681Y15616745D01*
X119788634Y15616745D02*
X120245777Y15616745D01*
X120017205Y15616745D02*
X120017205Y16416745D01*
X120017205Y16416745D02*
X120093396Y16302460D01*
X120093396Y16302460D02*
X120169586Y16226269D01*
X120169586Y16226269D02*
X120245777Y16188174D01*
X49061861Y57399192D02*
X49335194Y57789668D01*
X49530432Y57399192D02*
X49530432Y58219192D01*
X49530432Y58219192D02*
X49218051Y58219192D01*
X49218051Y58219192D02*
X49139956Y58180144D01*
X49139956Y58180144D02*
X49100909Y58141097D01*
X49100909Y58141097D02*
X49061861Y58063001D01*
X49061861Y58063001D02*
X49061861Y57945859D01*
X49061861Y57945859D02*
X49100909Y57867763D01*
X49100909Y57867763D02*
X49139956Y57828716D01*
X49139956Y57828716D02*
X49218051Y57789668D01*
X49218051Y57789668D02*
X49530432Y57789668D01*
X48788528Y58219192D02*
X48280909Y58219192D01*
X48280909Y58219192D02*
X48554242Y57906811D01*
X48554242Y57906811D02*
X48437099Y57906811D01*
X48437099Y57906811D02*
X48359004Y57867763D01*
X48359004Y57867763D02*
X48319956Y57828716D01*
X48319956Y57828716D02*
X48280909Y57750620D01*
X48280909Y57750620D02*
X48280909Y57555382D01*
X48280909Y57555382D02*
X48319956Y57477287D01*
X48319956Y57477287D02*
X48359004Y57438239D01*
X48359004Y57438239D02*
X48437099Y57399192D01*
X48437099Y57399192D02*
X48671385Y57399192D01*
X48671385Y57399192D02*
X48749480Y57438239D01*
X48749480Y57438239D02*
X48788528Y57477287D01*
X48007576Y58219192D02*
X47499957Y58219192D01*
X47499957Y58219192D02*
X47773290Y57906811D01*
X47773290Y57906811D02*
X47656147Y57906811D01*
X47656147Y57906811D02*
X47578052Y57867763D01*
X47578052Y57867763D02*
X47539004Y57828716D01*
X47539004Y57828716D02*
X47499957Y57750620D01*
X47499957Y57750620D02*
X47499957Y57555382D01*
X47499957Y57555382D02*
X47539004Y57477287D01*
X47539004Y57477287D02*
X47578052Y57438239D01*
X47578052Y57438239D02*
X47656147Y57399192D01*
X47656147Y57399192D02*
X47890433Y57399192D01*
X47890433Y57399192D02*
X47968528Y57438239D01*
X47968528Y57438239D02*
X48007576Y57477287D01*
X85100808Y2134349D02*
X84710332Y2407682D01*
X85100808Y2602920D02*
X84280808Y2602920D01*
X84280808Y2602920D02*
X84280808Y2290539D01*
X84280808Y2290539D02*
X84319856Y2212444D01*
X84319856Y2212444D02*
X84358903Y2173397D01*
X84358903Y2173397D02*
X84436999Y2134349D01*
X84436999Y2134349D02*
X84554141Y2134349D01*
X84554141Y2134349D02*
X84632237Y2173397D01*
X84632237Y2173397D02*
X84671284Y2212444D01*
X84671284Y2212444D02*
X84710332Y2290539D01*
X84710332Y2290539D02*
X84710332Y2602920D01*
X84280808Y1861016D02*
X84280808Y1314349D01*
X84280808Y1314349D02*
X85100808Y1665778D01*
X97522712Y76634348D02*
X97561760Y76673396D01*
X97561760Y76673396D02*
X97600807Y76790539D01*
X97600807Y76790539D02*
X97600807Y76868634D01*
X97600807Y76868634D02*
X97561760Y76985777D01*
X97561760Y76985777D02*
X97483664Y77063872D01*
X97483664Y77063872D02*
X97405569Y77102920D01*
X97405569Y77102920D02*
X97249378Y77141968D01*
X97249378Y77141968D02*
X97132235Y77141968D01*
X97132235Y77141968D02*
X96976045Y77102920D01*
X96976045Y77102920D02*
X96897949Y77063872D01*
X96897949Y77063872D02*
X96819854Y76985777D01*
X96819854Y76985777D02*
X96780806Y76868634D01*
X96780806Y76868634D02*
X96780806Y76790539D01*
X96780806Y76790539D02*
X96819854Y76673396D01*
X96819854Y76673396D02*
X96858902Y76634348D01*
X96780806Y76361014D02*
X96780806Y75853395D01*
X96780806Y75853395D02*
X97093188Y76126728D01*
X97093188Y76126728D02*
X97093188Y76009585D01*
X97093188Y76009585D02*
X97132235Y75931490D01*
X97132235Y75931490D02*
X97171283Y75892442D01*
X97171283Y75892442D02*
X97249378Y75853395D01*
X97249378Y75853395D02*
X97444617Y75853395D01*
X97444617Y75853395D02*
X97522712Y75892442D01*
X97522712Y75892442D02*
X97561760Y75931490D01*
X97561760Y75931490D02*
X97600807Y76009585D01*
X97600807Y76009585D02*
X97600807Y76243871D01*
X97600807Y76243871D02*
X97561760Y76321967D01*
X97561760Y76321967D02*
X97522712Y76361014D01*
X96858902Y75541014D02*
X96819854Y75501966D01*
X96819854Y75501966D02*
X96780806Y75423871D01*
X96780806Y75423871D02*
X96780806Y75228632D01*
X96780806Y75228632D02*
X96819854Y75150537D01*
X96819854Y75150537D02*
X96858902Y75111489D01*
X96858902Y75111489D02*
X96936997Y75072442D01*
X96936997Y75072442D02*
X97015092Y75072442D01*
X97015092Y75072442D02*
X97132235Y75111489D01*
X97132235Y75111489D02*
X97600807Y75580061D01*
X97600807Y75580061D02*
X97600807Y75072442D01*
X42450808Y90384349D02*
X42060332Y90657682D01*
X42450808Y90852920D02*
X41630808Y90852920D01*
X41630808Y90852920D02*
X41630808Y90540539D01*
X41630808Y90540539D02*
X41669856Y90462444D01*
X41669856Y90462444D02*
X41708903Y90423397D01*
X41708903Y90423397D02*
X41786999Y90384349D01*
X41786999Y90384349D02*
X41904141Y90384349D01*
X41904141Y90384349D02*
X41982237Y90423397D01*
X41982237Y90423397D02*
X42021284Y90462444D01*
X42021284Y90462444D02*
X42060332Y90540539D01*
X42060332Y90540539D02*
X42060332Y90852920D01*
X42450808Y89603397D02*
X42450808Y90071968D01*
X42450808Y89837682D02*
X41630808Y89837682D01*
X41630808Y89837682D02*
X41747951Y89915778D01*
X41747951Y89915778D02*
X41826046Y89993873D01*
X41826046Y89993873D02*
X41865094Y90071968D01*
X41630808Y88900540D02*
X41630808Y89056730D01*
X41630808Y89056730D02*
X41669856Y89134826D01*
X41669856Y89134826D02*
X41708903Y89173873D01*
X41708903Y89173873D02*
X41826046Y89251968D01*
X41826046Y89251968D02*
X41982237Y89291016D01*
X41982237Y89291016D02*
X42294618Y89291016D01*
X42294618Y89291016D02*
X42372713Y89251968D01*
X42372713Y89251968D02*
X42411761Y89212921D01*
X42411761Y89212921D02*
X42450808Y89134826D01*
X42450808Y89134826D02*
X42450808Y88978635D01*
X42450808Y88978635D02*
X42411761Y88900540D01*
X42411761Y88900540D02*
X42372713Y88861492D01*
X42372713Y88861492D02*
X42294618Y88822445D01*
X42294618Y88822445D02*
X42099380Y88822445D01*
X42099380Y88822445D02*
X42021284Y88861492D01*
X42021284Y88861492D02*
X41982237Y88900540D01*
X41982237Y88900540D02*
X41943189Y88978635D01*
X41943189Y88978635D02*
X41943189Y89134826D01*
X41943189Y89134826D02*
X41982237Y89212921D01*
X41982237Y89212921D02*
X42021284Y89251968D01*
X42021284Y89251968D02*
X42099380Y89291016D01*
D10*
X46471904Y37535181D02*
X46471904Y36725658D01*
X46471904Y36725658D02*
X46424285Y36630420D01*
X46424285Y36630420D02*
X46376666Y36582800D01*
X46376666Y36582800D02*
X46281428Y36535181D01*
X46281428Y36535181D02*
X46090952Y36535181D01*
X46090952Y36535181D02*
X45995714Y36582800D01*
X45995714Y36582800D02*
X45948095Y36630420D01*
X45948095Y36630420D02*
X45900476Y36725658D01*
X45900476Y36725658D02*
X45900476Y37535181D01*
X45376666Y36535181D02*
X45186190Y36535181D01*
X45186190Y36535181D02*
X45090952Y36582800D01*
X45090952Y36582800D02*
X45043333Y36630420D01*
X45043333Y36630420D02*
X44948095Y36773277D01*
X44948095Y36773277D02*
X44900476Y36963753D01*
X44900476Y36963753D02*
X44900476Y37344705D01*
X44900476Y37344705D02*
X44948095Y37439943D01*
X44948095Y37439943D02*
X44995714Y37487562D01*
X44995714Y37487562D02*
X45090952Y37535181D01*
X45090952Y37535181D02*
X45281428Y37535181D01*
X45281428Y37535181D02*
X45376666Y37487562D01*
X45376666Y37487562D02*
X45424285Y37439943D01*
X45424285Y37439943D02*
X45471904Y37344705D01*
X45471904Y37344705D02*
X45471904Y37106610D01*
X45471904Y37106610D02*
X45424285Y37011372D01*
X45424285Y37011372D02*
X45376666Y36963753D01*
X45376666Y36963753D02*
X45281428Y36916134D01*
X45281428Y36916134D02*
X45090952Y36916134D01*
X45090952Y36916134D02*
X44995714Y36963753D01*
X44995714Y36963753D02*
X44948095Y37011372D01*
X44948095Y37011372D02*
X44900476Y37106610D01*
D12*
X38244348Y35199192D02*
X38517681Y35589668D01*
X38712919Y35199192D02*
X38712919Y36019192D01*
X38712919Y36019192D02*
X38400538Y36019192D01*
X38400538Y36019192D02*
X38322443Y35980144D01*
X38322443Y35980144D02*
X38283396Y35941097D01*
X38283396Y35941097D02*
X38244348Y35863001D01*
X38244348Y35863001D02*
X38244348Y35745859D01*
X38244348Y35745859D02*
X38283396Y35667763D01*
X38283396Y35667763D02*
X38322443Y35628716D01*
X38322443Y35628716D02*
X38400538Y35589668D01*
X38400538Y35589668D02*
X38712919Y35589668D01*
X37971015Y36019192D02*
X37463396Y36019192D01*
X37463396Y36019192D02*
X37736729Y35706811D01*
X37736729Y35706811D02*
X37619586Y35706811D01*
X37619586Y35706811D02*
X37541491Y35667763D01*
X37541491Y35667763D02*
X37502443Y35628716D01*
X37502443Y35628716D02*
X37463396Y35550620D01*
X37463396Y35550620D02*
X37463396Y35355382D01*
X37463396Y35355382D02*
X37502443Y35277287D01*
X37502443Y35277287D02*
X37541491Y35238239D01*
X37541491Y35238239D02*
X37619586Y35199192D01*
X37619586Y35199192D02*
X37853872Y35199192D01*
X37853872Y35199192D02*
X37931967Y35238239D01*
X37931967Y35238239D02*
X37971015Y35277287D01*
X36955777Y36019192D02*
X36877682Y36019192D01*
X36877682Y36019192D02*
X36799586Y35980144D01*
X36799586Y35980144D02*
X36760539Y35941097D01*
X36760539Y35941097D02*
X36721491Y35863001D01*
X36721491Y35863001D02*
X36682444Y35706811D01*
X36682444Y35706811D02*
X36682444Y35511573D01*
X36682444Y35511573D02*
X36721491Y35355382D01*
X36721491Y35355382D02*
X36760539Y35277287D01*
X36760539Y35277287D02*
X36799586Y35238239D01*
X36799586Y35238239D02*
X36877682Y35199192D01*
X36877682Y35199192D02*
X36955777Y35199192D01*
X36955777Y35199192D02*
X37033872Y35238239D01*
X37033872Y35238239D02*
X37072920Y35277287D01*
X37072920Y35277287D02*
X37111967Y35355382D01*
X37111967Y35355382D02*
X37151015Y35511573D01*
X37151015Y35511573D02*
X37151015Y35706811D01*
X37151015Y35706811D02*
X37111967Y35863001D01*
X37111967Y35863001D02*
X37072920Y35941097D01*
X37072920Y35941097D02*
X37033872Y35980144D01*
X37033872Y35980144D02*
X36955777Y36019192D01*
D10*
X90764819Y87676667D02*
X90764819Y88152857D01*
X90764819Y88152857D02*
X89764819Y88152857D01*
X89860057Y87390952D02*
X89812438Y87343333D01*
X89812438Y87343333D02*
X89764819Y87248095D01*
X89764819Y87248095D02*
X89764819Y87010000D01*
X89764819Y87010000D02*
X89812438Y86914762D01*
X89812438Y86914762D02*
X89860057Y86867143D01*
X89860057Y86867143D02*
X89955295Y86819524D01*
X89955295Y86819524D02*
X90050533Y86819524D01*
X90050533Y86819524D02*
X90193390Y86867143D01*
X90193390Y86867143D02*
X90764819Y87438571D01*
X90764819Y87438571D02*
X90764819Y86819524D01*
D12*
X87700808Y2234349D02*
X87310332Y2507682D01*
X87700808Y2702920D02*
X86880808Y2702920D01*
X86880808Y2702920D02*
X86880808Y2390539D01*
X86880808Y2390539D02*
X86919856Y2312444D01*
X86919856Y2312444D02*
X86958903Y2273397D01*
X86958903Y2273397D02*
X87036999Y2234349D01*
X87036999Y2234349D02*
X87154141Y2234349D01*
X87154141Y2234349D02*
X87232237Y2273397D01*
X87232237Y2273397D02*
X87271284Y2312444D01*
X87271284Y2312444D02*
X87310332Y2390539D01*
X87310332Y2390539D02*
X87310332Y2702920D01*
X87232237Y1765778D02*
X87193189Y1843873D01*
X87193189Y1843873D02*
X87154141Y1882920D01*
X87154141Y1882920D02*
X87076046Y1921968D01*
X87076046Y1921968D02*
X87036999Y1921968D01*
X87036999Y1921968D02*
X86958903Y1882920D01*
X86958903Y1882920D02*
X86919856Y1843873D01*
X86919856Y1843873D02*
X86880808Y1765778D01*
X86880808Y1765778D02*
X86880808Y1609587D01*
X86880808Y1609587D02*
X86919856Y1531492D01*
X86919856Y1531492D02*
X86958903Y1492444D01*
X86958903Y1492444D02*
X87036999Y1453397D01*
X87036999Y1453397D02*
X87076046Y1453397D01*
X87076046Y1453397D02*
X87154141Y1492444D01*
X87154141Y1492444D02*
X87193189Y1531492D01*
X87193189Y1531492D02*
X87232237Y1609587D01*
X87232237Y1609587D02*
X87232237Y1765778D01*
X87232237Y1765778D02*
X87271284Y1843873D01*
X87271284Y1843873D02*
X87310332Y1882920D01*
X87310332Y1882920D02*
X87388427Y1921968D01*
X87388427Y1921968D02*
X87544618Y1921968D01*
X87544618Y1921968D02*
X87622713Y1882920D01*
X87622713Y1882920D02*
X87661761Y1843873D01*
X87661761Y1843873D02*
X87700808Y1765778D01*
X87700808Y1765778D02*
X87700808Y1609587D01*
X87700808Y1609587D02*
X87661761Y1531492D01*
X87661761Y1531492D02*
X87622713Y1492444D01*
X87622713Y1492444D02*
X87544618Y1453397D01*
X87544618Y1453397D02*
X87388427Y1453397D01*
X87388427Y1453397D02*
X87310332Y1492444D01*
X87310332Y1492444D02*
X87271284Y1531492D01*
X87271284Y1531492D02*
X87232237Y1609587D01*
X51000808Y18134349D02*
X50610332Y18407682D01*
X51000808Y18602920D02*
X50180808Y18602920D01*
X50180808Y18602920D02*
X50180808Y18290539D01*
X50180808Y18290539D02*
X50219856Y18212444D01*
X50219856Y18212444D02*
X50258903Y18173397D01*
X50258903Y18173397D02*
X50336999Y18134349D01*
X50336999Y18134349D02*
X50454141Y18134349D01*
X50454141Y18134349D02*
X50532237Y18173397D01*
X50532237Y18173397D02*
X50571284Y18212444D01*
X50571284Y18212444D02*
X50610332Y18290539D01*
X50610332Y18290539D02*
X50610332Y18602920D01*
X50180808Y17861016D02*
X50180808Y17353397D01*
X50180808Y17353397D02*
X50493189Y17626730D01*
X50493189Y17626730D02*
X50493189Y17509587D01*
X50493189Y17509587D02*
X50532237Y17431492D01*
X50532237Y17431492D02*
X50571284Y17392444D01*
X50571284Y17392444D02*
X50649380Y17353397D01*
X50649380Y17353397D02*
X50844618Y17353397D01*
X50844618Y17353397D02*
X50922713Y17392444D01*
X50922713Y17392444D02*
X50961761Y17431492D01*
X50961761Y17431492D02*
X51000808Y17509587D01*
X51000808Y17509587D02*
X51000808Y17743873D01*
X51000808Y17743873D02*
X50961761Y17821968D01*
X50961761Y17821968D02*
X50922713Y17861016D01*
X40000808Y90384349D02*
X39610332Y90657682D01*
X40000808Y90852920D02*
X39180808Y90852920D01*
X39180808Y90852920D02*
X39180808Y90540539D01*
X39180808Y90540539D02*
X39219856Y90462444D01*
X39219856Y90462444D02*
X39258903Y90423397D01*
X39258903Y90423397D02*
X39336999Y90384349D01*
X39336999Y90384349D02*
X39454141Y90384349D01*
X39454141Y90384349D02*
X39532237Y90423397D01*
X39532237Y90423397D02*
X39571284Y90462444D01*
X39571284Y90462444D02*
X39610332Y90540539D01*
X39610332Y90540539D02*
X39610332Y90852920D01*
X40000808Y89603397D02*
X40000808Y90071968D01*
X40000808Y89837682D02*
X39180808Y89837682D01*
X39180808Y89837682D02*
X39297951Y89915778D01*
X39297951Y89915778D02*
X39376046Y89993873D01*
X39376046Y89993873D02*
X39415094Y90071968D01*
X39180808Y88861492D02*
X39180808Y89251968D01*
X39180808Y89251968D02*
X39571284Y89291016D01*
X39571284Y89291016D02*
X39532237Y89251968D01*
X39532237Y89251968D02*
X39493189Y89173873D01*
X39493189Y89173873D02*
X39493189Y88978635D01*
X39493189Y88978635D02*
X39532237Y88900540D01*
X39532237Y88900540D02*
X39571284Y88861492D01*
X39571284Y88861492D02*
X39649380Y88822445D01*
X39649380Y88822445D02*
X39844618Y88822445D01*
X39844618Y88822445D02*
X39922713Y88861492D01*
X39922713Y88861492D02*
X39961761Y88900540D01*
X39961761Y88900540D02*
X40000808Y88978635D01*
X40000808Y88978635D02*
X40000808Y89173873D01*
X40000808Y89173873D02*
X39961761Y89251968D01*
X39961761Y89251968D02*
X39922713Y89291016D01*
X51686704Y24425652D02*
X52077180Y24152319D01*
X51686704Y23957081D02*
X52506704Y23957081D01*
X52506704Y23957081D02*
X52506704Y24269462D01*
X52506704Y24269462D02*
X52467656Y24347557D01*
X52467656Y24347557D02*
X52428609Y24386604D01*
X52428609Y24386604D02*
X52350513Y24425652D01*
X52350513Y24425652D02*
X52233371Y24425652D01*
X52233371Y24425652D02*
X52155275Y24386604D01*
X52155275Y24386604D02*
X52116228Y24347557D01*
X52116228Y24347557D02*
X52077180Y24269462D01*
X52077180Y24269462D02*
X52077180Y23957081D01*
X51686704Y25206604D02*
X51686704Y24738033D01*
X51686704Y24972319D02*
X52506704Y24972319D01*
X52506704Y24972319D02*
X52389561Y24894223D01*
X52389561Y24894223D02*
X52311466Y24816128D01*
X52311466Y24816128D02*
X52272418Y24738033D01*
X52506704Y25479937D02*
X52506704Y25987556D01*
X52506704Y25987556D02*
X52194323Y25714223D01*
X52194323Y25714223D02*
X52194323Y25831366D01*
X52194323Y25831366D02*
X52155275Y25909461D01*
X52155275Y25909461D02*
X52116228Y25948509D01*
X52116228Y25948509D02*
X52038132Y25987556D01*
X52038132Y25987556D02*
X51842894Y25987556D01*
X51842894Y25987556D02*
X51764799Y25948509D01*
X51764799Y25948509D02*
X51725752Y25909461D01*
X51725752Y25909461D02*
X51686704Y25831366D01*
X51686704Y25831366D02*
X51686704Y25597080D01*
X51686704Y25597080D02*
X51725752Y25518985D01*
X51725752Y25518985D02*
X51764799Y25479937D01*
X47764348Y60289192D02*
X48037681Y60679668D01*
X48232919Y60289192D02*
X48232919Y61109192D01*
X48232919Y61109192D02*
X47920538Y61109192D01*
X47920538Y61109192D02*
X47842443Y61070144D01*
X47842443Y61070144D02*
X47803396Y61031097D01*
X47803396Y61031097D02*
X47764348Y60953001D01*
X47764348Y60953001D02*
X47764348Y60835859D01*
X47764348Y60835859D02*
X47803396Y60757763D01*
X47803396Y60757763D02*
X47842443Y60718716D01*
X47842443Y60718716D02*
X47920538Y60679668D01*
X47920538Y60679668D02*
X48232919Y60679668D01*
X46983396Y60289192D02*
X47451967Y60289192D01*
X47217681Y60289192D02*
X47217681Y61109192D01*
X47217681Y61109192D02*
X47295777Y60992049D01*
X47295777Y60992049D02*
X47373872Y60913954D01*
X47373872Y60913954D02*
X47451967Y60874906D01*
X46202444Y60289192D02*
X46671015Y60289192D01*
X46436729Y60289192D02*
X46436729Y61109192D01*
X46436729Y61109192D02*
X46514825Y60992049D01*
X46514825Y60992049D02*
X46592920Y60913954D01*
X46592920Y60913954D02*
X46671015Y60874906D01*
X43720508Y62605238D02*
X42900508Y62605238D01*
X42900508Y62605238D02*
X42900508Y62410000D01*
X42900508Y62410000D02*
X42939556Y62292857D01*
X42939556Y62292857D02*
X43017651Y62214762D01*
X43017651Y62214762D02*
X43095746Y62175715D01*
X43095746Y62175715D02*
X43251937Y62136667D01*
X43251937Y62136667D02*
X43369080Y62136667D01*
X43369080Y62136667D02*
X43525270Y62175715D01*
X43525270Y62175715D02*
X43603365Y62214762D01*
X43603365Y62214762D02*
X43681461Y62292857D01*
X43681461Y62292857D02*
X43720508Y62410000D01*
X43720508Y62410000D02*
X43720508Y62605238D01*
X42900508Y61863334D02*
X42900508Y61355715D01*
X42900508Y61355715D02*
X43212889Y61629048D01*
X43212889Y61629048D02*
X43212889Y61511905D01*
X43212889Y61511905D02*
X43251937Y61433810D01*
X43251937Y61433810D02*
X43290984Y61394762D01*
X43290984Y61394762D02*
X43369080Y61355715D01*
X43369080Y61355715D02*
X43564318Y61355715D01*
X43564318Y61355715D02*
X43642413Y61394762D01*
X43642413Y61394762D02*
X43681461Y61433810D01*
X43681461Y61433810D02*
X43720508Y61511905D01*
X43720508Y61511905D02*
X43720508Y61746191D01*
X43720508Y61746191D02*
X43681461Y61824286D01*
X43681461Y61824286D02*
X43642413Y61863334D01*
X42323164Y44610809D02*
X42049831Y44220333D01*
X41854593Y44610809D02*
X41854593Y43790809D01*
X41854593Y43790809D02*
X42166974Y43790809D01*
X42166974Y43790809D02*
X42245069Y43829857D01*
X42245069Y43829857D02*
X42284116Y43868904D01*
X42284116Y43868904D02*
X42323164Y43947000D01*
X42323164Y43947000D02*
X42323164Y44064142D01*
X42323164Y44064142D02*
X42284116Y44142238D01*
X42284116Y44142238D02*
X42245069Y44181285D01*
X42245069Y44181285D02*
X42166974Y44220333D01*
X42166974Y44220333D02*
X41854593Y44220333D01*
X42596497Y43790809D02*
X43104116Y43790809D01*
X43104116Y43790809D02*
X42830783Y44103190D01*
X42830783Y44103190D02*
X42947926Y44103190D01*
X42947926Y44103190D02*
X43026021Y44142238D01*
X43026021Y44142238D02*
X43065069Y44181285D01*
X43065069Y44181285D02*
X43104116Y44259381D01*
X43104116Y44259381D02*
X43104116Y44454619D01*
X43104116Y44454619D02*
X43065069Y44532714D01*
X43065069Y44532714D02*
X43026021Y44571761D01*
X43026021Y44571761D02*
X42947926Y44610809D01*
X42947926Y44610809D02*
X42713640Y44610809D01*
X42713640Y44610809D02*
X42635545Y44571761D01*
X42635545Y44571761D02*
X42596497Y44532714D01*
X43416497Y43868904D02*
X43455545Y43829857D01*
X43455545Y43829857D02*
X43533640Y43790809D01*
X43533640Y43790809D02*
X43728878Y43790809D01*
X43728878Y43790809D02*
X43806973Y43829857D01*
X43806973Y43829857D02*
X43846021Y43868904D01*
X43846021Y43868904D02*
X43885068Y43947000D01*
X43885068Y43947000D02*
X43885068Y44025095D01*
X43885068Y44025095D02*
X43846021Y44142238D01*
X43846021Y44142238D02*
X43377449Y44610809D01*
X43377449Y44610809D02*
X43885068Y44610809D01*
X88634347Y81097288D02*
X88673395Y81058240D01*
X88673395Y81058240D02*
X88790538Y81019193D01*
X88790538Y81019193D02*
X88868633Y81019193D01*
X88868633Y81019193D02*
X88985776Y81058240D01*
X88985776Y81058240D02*
X89063872Y81136336D01*
X89063872Y81136336D02*
X89102919Y81214431D01*
X89102919Y81214431D02*
X89141967Y81370622D01*
X89141967Y81370622D02*
X89141967Y81487765D01*
X89141967Y81487765D02*
X89102919Y81643955D01*
X89102919Y81643955D02*
X89063872Y81722051D01*
X89063872Y81722051D02*
X88985776Y81800146D01*
X88985776Y81800146D02*
X88868633Y81839194D01*
X88868633Y81839194D02*
X88790538Y81839194D01*
X88790538Y81839194D02*
X88673395Y81800146D01*
X88673395Y81800146D02*
X88634347Y81761098D01*
X88321966Y81761098D02*
X88282918Y81800146D01*
X88282918Y81800146D02*
X88204823Y81839194D01*
X88204823Y81839194D02*
X88009585Y81839194D01*
X88009585Y81839194D02*
X87931489Y81800146D01*
X87931489Y81800146D02*
X87892442Y81761098D01*
X87892442Y81761098D02*
X87853394Y81683003D01*
X87853394Y81683003D02*
X87853394Y81604908D01*
X87853394Y81604908D02*
X87892442Y81487765D01*
X87892442Y81487765D02*
X88361014Y81019193D01*
X88361014Y81019193D02*
X87853394Y81019193D01*
X87384822Y81487765D02*
X87462918Y81526812D01*
X87462918Y81526812D02*
X87501965Y81565860D01*
X87501965Y81565860D02*
X87541013Y81643955D01*
X87541013Y81643955D02*
X87541013Y81683003D01*
X87541013Y81683003D02*
X87501965Y81761098D01*
X87501965Y81761098D02*
X87462918Y81800146D01*
X87462918Y81800146D02*
X87384822Y81839194D01*
X87384822Y81839194D02*
X87228632Y81839194D01*
X87228632Y81839194D02*
X87150536Y81800146D01*
X87150536Y81800146D02*
X87111489Y81761098D01*
X87111489Y81761098D02*
X87072441Y81683003D01*
X87072441Y81683003D02*
X87072441Y81643955D01*
X87072441Y81643955D02*
X87111489Y81565860D01*
X87111489Y81565860D02*
X87150536Y81526812D01*
X87150536Y81526812D02*
X87228632Y81487765D01*
X87228632Y81487765D02*
X87384822Y81487765D01*
X87384822Y81487765D02*
X87462918Y81448717D01*
X87462918Y81448717D02*
X87501965Y81409669D01*
X87501965Y81409669D02*
X87541013Y81331574D01*
X87541013Y81331574D02*
X87541013Y81175383D01*
X87541013Y81175383D02*
X87501965Y81097288D01*
X87501965Y81097288D02*
X87462918Y81058240D01*
X87462918Y81058240D02*
X87384822Y81019193D01*
X87384822Y81019193D02*
X87228632Y81019193D01*
X87228632Y81019193D02*
X87150536Y81058240D01*
X87150536Y81058240D02*
X87111489Y81097288D01*
X87111489Y81097288D02*
X87072441Y81175383D01*
X87072441Y81175383D02*
X87072441Y81331574D01*
X87072441Y81331574D02*
X87111489Y81409669D01*
X87111489Y81409669D02*
X87150536Y81448717D01*
X87150536Y81448717D02*
X87228632Y81487765D01*
D10*
X36299819Y85046905D02*
X37109342Y85046905D01*
X37109342Y85046905D02*
X37204580Y84999286D01*
X37204580Y84999286D02*
X37252200Y84951667D01*
X37252200Y84951667D02*
X37299819Y84856429D01*
X37299819Y84856429D02*
X37299819Y84665953D01*
X37299819Y84665953D02*
X37252200Y84570715D01*
X37252200Y84570715D02*
X37204580Y84523096D01*
X37204580Y84523096D02*
X37109342Y84475477D01*
X37109342Y84475477D02*
X36299819Y84475477D01*
X36299819Y83570715D02*
X36299819Y83761191D01*
X36299819Y83761191D02*
X36347438Y83856429D01*
X36347438Y83856429D02*
X36395057Y83904048D01*
X36395057Y83904048D02*
X36537914Y83999286D01*
X36537914Y83999286D02*
X36728390Y84046905D01*
X36728390Y84046905D02*
X37109342Y84046905D01*
X37109342Y84046905D02*
X37204580Y83999286D01*
X37204580Y83999286D02*
X37252200Y83951667D01*
X37252200Y83951667D02*
X37299819Y83856429D01*
X37299819Y83856429D02*
X37299819Y83665953D01*
X37299819Y83665953D02*
X37252200Y83570715D01*
X37252200Y83570715D02*
X37204580Y83523096D01*
X37204580Y83523096D02*
X37109342Y83475477D01*
X37109342Y83475477D02*
X36871247Y83475477D01*
X36871247Y83475477D02*
X36776009Y83523096D01*
X36776009Y83523096D02*
X36728390Y83570715D01*
X36728390Y83570715D02*
X36680771Y83665953D01*
X36680771Y83665953D02*
X36680771Y83856429D01*
X36680771Y83856429D02*
X36728390Y83951667D01*
X36728390Y83951667D02*
X36776009Y83999286D01*
X36776009Y83999286D02*
X36871247Y84046905D01*
D12*
X45803164Y42910809D02*
X45529831Y42520333D01*
X45334593Y42910809D02*
X45334593Y42090809D01*
X45334593Y42090809D02*
X45646974Y42090809D01*
X45646974Y42090809D02*
X45725069Y42129857D01*
X45725069Y42129857D02*
X45764116Y42168904D01*
X45764116Y42168904D02*
X45803164Y42247000D01*
X45803164Y42247000D02*
X45803164Y42364142D01*
X45803164Y42364142D02*
X45764116Y42442238D01*
X45764116Y42442238D02*
X45725069Y42481285D01*
X45725069Y42481285D02*
X45646974Y42520333D01*
X45646974Y42520333D02*
X45334593Y42520333D01*
X46115545Y42168904D02*
X46154593Y42129857D01*
X46154593Y42129857D02*
X46232688Y42090809D01*
X46232688Y42090809D02*
X46427926Y42090809D01*
X46427926Y42090809D02*
X46506021Y42129857D01*
X46506021Y42129857D02*
X46545069Y42168904D01*
X46545069Y42168904D02*
X46584116Y42247000D01*
X46584116Y42247000D02*
X46584116Y42325095D01*
X46584116Y42325095D02*
X46545069Y42442238D01*
X46545069Y42442238D02*
X46076497Y42910809D01*
X46076497Y42910809D02*
X46584116Y42910809D01*
X46974592Y42910809D02*
X47130783Y42910809D01*
X47130783Y42910809D02*
X47208878Y42871761D01*
X47208878Y42871761D02*
X47247926Y42832714D01*
X47247926Y42832714D02*
X47326021Y42715571D01*
X47326021Y42715571D02*
X47365068Y42559381D01*
X47365068Y42559381D02*
X47365068Y42247000D01*
X47365068Y42247000D02*
X47326021Y42168904D01*
X47326021Y42168904D02*
X47286973Y42129857D01*
X47286973Y42129857D02*
X47208878Y42090809D01*
X47208878Y42090809D02*
X47052687Y42090809D01*
X47052687Y42090809D02*
X46974592Y42129857D01*
X46974592Y42129857D02*
X46935545Y42168904D01*
X46935545Y42168904D02*
X46896497Y42247000D01*
X46896497Y42247000D02*
X46896497Y42442238D01*
X46896497Y42442238D02*
X46935545Y42520333D01*
X46935545Y42520333D02*
X46974592Y42559381D01*
X46974592Y42559381D02*
X47052687Y42598428D01*
X47052687Y42598428D02*
X47208878Y42598428D01*
X47208878Y42598428D02*
X47286973Y42559381D01*
X47286973Y42559381D02*
X47326021Y42520333D01*
X47326021Y42520333D02*
X47365068Y42442238D01*
D10*
X92764819Y87676667D02*
X92764819Y88152857D01*
X92764819Y88152857D02*
X91764819Y88152857D01*
X92764819Y86819524D02*
X92764819Y87390952D01*
X92764819Y87105238D02*
X91764819Y87105238D01*
X91764819Y87105238D02*
X91907676Y87200476D01*
X91907676Y87200476D02*
X92002914Y87295714D01*
X92002914Y87295714D02*
X92050533Y87390952D01*
D12*
X40665237Y26789492D02*
X40665237Y27609492D01*
X40665237Y27609492D02*
X40469999Y27609492D01*
X40469999Y27609492D02*
X40352856Y27570444D01*
X40352856Y27570444D02*
X40274761Y27492349D01*
X40274761Y27492349D02*
X40235714Y27414254D01*
X40235714Y27414254D02*
X40196666Y27258063D01*
X40196666Y27258063D02*
X40196666Y27140920D01*
X40196666Y27140920D02*
X40235714Y26984730D01*
X40235714Y26984730D02*
X40274761Y26906635D01*
X40274761Y26906635D02*
X40352856Y26828539D01*
X40352856Y26828539D02*
X40469999Y26789492D01*
X40469999Y26789492D02*
X40665237Y26789492D01*
X39454761Y27609492D02*
X39845237Y27609492D01*
X39845237Y27609492D02*
X39884285Y27219016D01*
X39884285Y27219016D02*
X39845237Y27258063D01*
X39845237Y27258063D02*
X39767142Y27297111D01*
X39767142Y27297111D02*
X39571904Y27297111D01*
X39571904Y27297111D02*
X39493809Y27258063D01*
X39493809Y27258063D02*
X39454761Y27219016D01*
X39454761Y27219016D02*
X39415714Y27140920D01*
X39415714Y27140920D02*
X39415714Y26945682D01*
X39415714Y26945682D02*
X39454761Y26867587D01*
X39454761Y26867587D02*
X39493809Y26828539D01*
X39493809Y26828539D02*
X39571904Y26789492D01*
X39571904Y26789492D02*
X39767142Y26789492D01*
X39767142Y26789492D02*
X39845237Y26828539D01*
X39845237Y26828539D02*
X39884285Y26867587D01*
X52518321Y33924349D02*
X52127845Y34197682D01*
X52518321Y34392920D02*
X51698321Y34392920D01*
X51698321Y34392920D02*
X51698321Y34080539D01*
X51698321Y34080539D02*
X51737369Y34002444D01*
X51737369Y34002444D02*
X51776416Y33963397D01*
X51776416Y33963397D02*
X51854512Y33924349D01*
X51854512Y33924349D02*
X51971654Y33924349D01*
X51971654Y33924349D02*
X52049750Y33963397D01*
X52049750Y33963397D02*
X52088797Y34002444D01*
X52088797Y34002444D02*
X52127845Y34080539D01*
X52127845Y34080539D02*
X52127845Y34392920D01*
X52518321Y33143397D02*
X52518321Y33611968D01*
X52518321Y33377682D02*
X51698321Y33377682D01*
X51698321Y33377682D02*
X51815464Y33455778D01*
X51815464Y33455778D02*
X51893559Y33533873D01*
X51893559Y33533873D02*
X51932607Y33611968D01*
X51776416Y32831016D02*
X51737369Y32791968D01*
X51737369Y32791968D02*
X51698321Y32713873D01*
X51698321Y32713873D02*
X51698321Y32518635D01*
X51698321Y32518635D02*
X51737369Y32440540D01*
X51737369Y32440540D02*
X51776416Y32401492D01*
X51776416Y32401492D02*
X51854512Y32362445D01*
X51854512Y32362445D02*
X51932607Y32362445D01*
X51932607Y32362445D02*
X52049750Y32401492D01*
X52049750Y32401492D02*
X52518321Y32870064D01*
X52518321Y32870064D02*
X52518321Y32362445D01*
X91900808Y61934349D02*
X91510332Y62207682D01*
X91900808Y62402920D02*
X91080808Y62402920D01*
X91080808Y62402920D02*
X91080808Y62090539D01*
X91080808Y62090539D02*
X91119856Y62012444D01*
X91119856Y62012444D02*
X91158903Y61973397D01*
X91158903Y61973397D02*
X91236999Y61934349D01*
X91236999Y61934349D02*
X91354141Y61934349D01*
X91354141Y61934349D02*
X91432237Y61973397D01*
X91432237Y61973397D02*
X91471284Y62012444D01*
X91471284Y62012444D02*
X91510332Y62090539D01*
X91510332Y62090539D02*
X91510332Y62402920D01*
X91080808Y61192444D02*
X91080808Y61582920D01*
X91080808Y61582920D02*
X91471284Y61621968D01*
X91471284Y61621968D02*
X91432237Y61582920D01*
X91432237Y61582920D02*
X91393189Y61504825D01*
X91393189Y61504825D02*
X91393189Y61309587D01*
X91393189Y61309587D02*
X91432237Y61231492D01*
X91432237Y61231492D02*
X91471284Y61192444D01*
X91471284Y61192444D02*
X91549380Y61153397D01*
X91549380Y61153397D02*
X91744618Y61153397D01*
X91744618Y61153397D02*
X91822713Y61192444D01*
X91822713Y61192444D02*
X91861761Y61231492D01*
X91861761Y61231492D02*
X91900808Y61309587D01*
X91900808Y61309587D02*
X91900808Y61504825D01*
X91900808Y61504825D02*
X91861761Y61582920D01*
X91861761Y61582920D02*
X91822713Y61621968D01*
X112500808Y70734349D02*
X112110332Y71007682D01*
X112500808Y71202920D02*
X111680808Y71202920D01*
X111680808Y71202920D02*
X111680808Y70890539D01*
X111680808Y70890539D02*
X111719856Y70812444D01*
X111719856Y70812444D02*
X111758903Y70773397D01*
X111758903Y70773397D02*
X111836999Y70734349D01*
X111836999Y70734349D02*
X111954141Y70734349D01*
X111954141Y70734349D02*
X112032237Y70773397D01*
X112032237Y70773397D02*
X112071284Y70812444D01*
X112071284Y70812444D02*
X112110332Y70890539D01*
X112110332Y70890539D02*
X112110332Y71202920D01*
X111680808Y70031492D02*
X111680808Y70187682D01*
X111680808Y70187682D02*
X111719856Y70265778D01*
X111719856Y70265778D02*
X111758903Y70304825D01*
X111758903Y70304825D02*
X111876046Y70382920D01*
X111876046Y70382920D02*
X112032237Y70421968D01*
X112032237Y70421968D02*
X112344618Y70421968D01*
X112344618Y70421968D02*
X112422713Y70382920D01*
X112422713Y70382920D02*
X112461761Y70343873D01*
X112461761Y70343873D02*
X112500808Y70265778D01*
X112500808Y70265778D02*
X112500808Y70109587D01*
X112500808Y70109587D02*
X112461761Y70031492D01*
X112461761Y70031492D02*
X112422713Y69992444D01*
X112422713Y69992444D02*
X112344618Y69953397D01*
X112344618Y69953397D02*
X112149380Y69953397D01*
X112149380Y69953397D02*
X112071284Y69992444D01*
X112071284Y69992444D02*
X112032237Y70031492D01*
X112032237Y70031492D02*
X111993189Y70109587D01*
X111993189Y70109587D02*
X111993189Y70265778D01*
X111993189Y70265778D02*
X112032237Y70343873D01*
X112032237Y70343873D02*
X112071284Y70382920D01*
X112071284Y70382920D02*
X112149380Y70421968D01*
X51000808Y21134349D02*
X50610332Y21407682D01*
X51000808Y21602920D02*
X50180808Y21602920D01*
X50180808Y21602920D02*
X50180808Y21290539D01*
X50180808Y21290539D02*
X50219856Y21212444D01*
X50219856Y21212444D02*
X50258903Y21173397D01*
X50258903Y21173397D02*
X50336999Y21134349D01*
X50336999Y21134349D02*
X50454141Y21134349D01*
X50454141Y21134349D02*
X50532237Y21173397D01*
X50532237Y21173397D02*
X50571284Y21212444D01*
X50571284Y21212444D02*
X50610332Y21290539D01*
X50610332Y21290539D02*
X50610332Y21602920D01*
X50258903Y20821968D02*
X50219856Y20782920D01*
X50219856Y20782920D02*
X50180808Y20704825D01*
X50180808Y20704825D02*
X50180808Y20509587D01*
X50180808Y20509587D02*
X50219856Y20431492D01*
X50219856Y20431492D02*
X50258903Y20392444D01*
X50258903Y20392444D02*
X50336999Y20353397D01*
X50336999Y20353397D02*
X50415094Y20353397D01*
X50415094Y20353397D02*
X50532237Y20392444D01*
X50532237Y20392444D02*
X51000808Y20861016D01*
X51000808Y20861016D02*
X51000808Y20353397D01*
D10*
X48389417Y33945181D02*
X48389417Y33135658D01*
X48389417Y33135658D02*
X48341798Y33040420D01*
X48341798Y33040420D02*
X48294179Y32992800D01*
X48294179Y32992800D02*
X48198941Y32945181D01*
X48198941Y32945181D02*
X48008465Y32945181D01*
X48008465Y32945181D02*
X47913227Y32992800D01*
X47913227Y32992800D02*
X47865608Y33040420D01*
X47865608Y33040420D02*
X47817989Y33135658D01*
X47817989Y33135658D02*
X47817989Y33945181D01*
X47198941Y33516610D02*
X47294179Y33564229D01*
X47294179Y33564229D02*
X47341798Y33611848D01*
X47341798Y33611848D02*
X47389417Y33707086D01*
X47389417Y33707086D02*
X47389417Y33754705D01*
X47389417Y33754705D02*
X47341798Y33849943D01*
X47341798Y33849943D02*
X47294179Y33897562D01*
X47294179Y33897562D02*
X47198941Y33945181D01*
X47198941Y33945181D02*
X47008465Y33945181D01*
X47008465Y33945181D02*
X46913227Y33897562D01*
X46913227Y33897562D02*
X46865608Y33849943D01*
X46865608Y33849943D02*
X46817989Y33754705D01*
X46817989Y33754705D02*
X46817989Y33707086D01*
X46817989Y33707086D02*
X46865608Y33611848D01*
X46865608Y33611848D02*
X46913227Y33564229D01*
X46913227Y33564229D02*
X47008465Y33516610D01*
X47008465Y33516610D02*
X47198941Y33516610D01*
X47198941Y33516610D02*
X47294179Y33468991D01*
X47294179Y33468991D02*
X47341798Y33421372D01*
X47341798Y33421372D02*
X47389417Y33326134D01*
X47389417Y33326134D02*
X47389417Y33135658D01*
X47389417Y33135658D02*
X47341798Y33040420D01*
X47341798Y33040420D02*
X47294179Y32992800D01*
X47294179Y32992800D02*
X47198941Y32945181D01*
X47198941Y32945181D02*
X47008465Y32945181D01*
X47008465Y32945181D02*
X46913227Y32992800D01*
X46913227Y32992800D02*
X46865608Y33040420D01*
X46865608Y33040420D02*
X46817989Y33135658D01*
X46817989Y33135658D02*
X46817989Y33326134D01*
X46817989Y33326134D02*
X46865608Y33421372D01*
X46865608Y33421372D02*
X46913227Y33468991D01*
X46913227Y33468991D02*
X47008465Y33516610D01*
D14*
G04 #@! TO.C,P8*
X117680000Y17980000D02*
X117680000Y20640000D01*
X117974462Y20640000D02*
X117680000Y20640000D01*
X117985627Y17980000D02*
X117680000Y17980000D01*
X120034373Y20640000D02*
X120340000Y20640000D01*
X120045538Y17980000D02*
X120340000Y17980000D01*
X120340000Y20640000D02*
X120340000Y17980000D01*
G04 #@! TO.C,M5*
D13*
X121235000Y67210000D02*
X135135000Y67210000D01*
X135135000Y39710000D01*
X121235000Y39710000D01*
X121235000Y67210000D01*
D14*
G04 #@! TO.C,P5*
X76080000Y44680000D02*
X76080000Y47340000D01*
X76374462Y47340000D02*
X76080000Y47340000D01*
X76385627Y44680000D02*
X76080000Y44680000D01*
X78434373Y47340000D02*
X78740000Y47340000D01*
X78445538Y44680000D02*
X78740000Y44680000D01*
X78740000Y47340000D02*
X78740000Y44680000D01*
D15*
G04 #@! TO.C,J25*
X5927513Y93485000D02*
X5927513Y54985000D01*
X5927513Y54985000D02*
X33327513Y54985000D01*
X16127513Y97485000D02*
X16127513Y93485000D01*
X16127513Y50985000D02*
X16127513Y54985000D01*
X16127513Y50985000D02*
X23127513Y50985000D01*
X23127513Y97485000D02*
X16127513Y97485000D01*
X23127513Y97485000D02*
X23127513Y93485000D01*
X23127513Y50985000D02*
X23127513Y54985000D01*
X33327513Y93485000D02*
X5927513Y93485000D01*
X33327513Y54985000D02*
X33327513Y93485000D01*
D14*
G04 #@! TO.C,P15*
X40020000Y10180000D02*
X40020000Y12840000D01*
X40314462Y12840000D02*
X40020000Y12840000D01*
X40325627Y10180000D02*
X40020000Y10180000D01*
X42374373Y12840000D02*
X42680000Y12840000D01*
X42385538Y10180000D02*
X42680000Y10180000D01*
X42680000Y12840000D02*
X42680000Y10180000D01*
G04 #@! TO.C,F4*
X53210000Y14610000D02*
X53210000Y19460000D01*
X55210000Y14610000D02*
X55210000Y19460000D01*
X53210000Y19460000D02*
G75*
G02*
X55210000Y19460000I1000000J0D01*
G01*
X55210000Y14560000D02*
G75*
G02*
X53210000Y14560000I-1000000J0D01*
G01*
G04 #@! TO.C,P4*
X96980000Y6180000D02*
X96980000Y8840000D01*
X97274462Y8840000D02*
X96980000Y8840000D01*
X97285627Y6180000D02*
X96980000Y6180000D01*
X99334373Y8840000D02*
X99640000Y8840000D01*
X99345538Y6180000D02*
X99640000Y6180000D01*
X99640000Y8840000D02*
X99640000Y6180000D01*
D13*
G04 #@! TO.C,M3*
X78185000Y77385000D02*
X78185000Y62385000D01*
X78185000Y77385000D02*
X79485000Y77385000D01*
X78185000Y62385000D02*
X83285000Y62385000D01*
X87785000Y77385000D02*
X81385000Y77385000D01*
X87785000Y62985000D02*
X87785000Y77385000D01*
D14*
G04 #@! TO.C,P17*
X37480000Y10180000D02*
X37480000Y12840000D01*
X37774462Y12840000D02*
X37480000Y12840000D01*
X37785627Y10180000D02*
X37480000Y10180000D01*
X39834373Y12840000D02*
X40140000Y12840000D01*
X39845538Y10180000D02*
X40140000Y10180000D01*
X40140000Y12840000D02*
X40140000Y10180000D01*
G04 #@! TO.C,F3*
X55410000Y14610000D02*
X55410000Y19460000D01*
X57410000Y14610000D02*
X57410000Y19460000D01*
X55410000Y19460000D02*
G75*
G02*
X57410000Y19460000I1000000J0D01*
G01*
X57410000Y14560000D02*
G75*
G02*
X55410000Y14560000I-1000000J0D01*
G01*
D13*
G04 #@! TO.C,M2*
X112884999Y82035000D02*
X112884999Y72935000D01*
X112884999Y82035000D02*
X113885001Y82035000D01*
X115985002Y82035000D02*
X115985002Y72935000D01*
D14*
G04 #@! TO.C,P18*
X57480000Y9680000D02*
X57480000Y12340000D01*
X57774462Y12340000D02*
X57480000Y12340000D01*
X57785627Y9680000D02*
X57480000Y9680000D01*
X59834373Y12340000D02*
X60140000Y12340000D01*
X59845538Y9680000D02*
X60140000Y9680000D01*
X60140000Y12340000D02*
X60140000Y9680000D01*
D15*
G04 #@! TO.C,J23*
X5927513Y44935000D02*
X5927513Y6435000D01*
X5927513Y6435000D02*
X33327513Y6435000D01*
X16127513Y48935000D02*
X16127513Y44935000D01*
X16127513Y2435000D02*
X16127513Y6435000D01*
X16127513Y2435000D02*
X23127513Y2435000D01*
X23127513Y48935000D02*
X16127513Y48935000D01*
X23127513Y48935000D02*
X23127513Y44935000D01*
X23127513Y2435000D02*
X23127513Y6435000D01*
X33327513Y44935000D02*
X5927513Y44935000D01*
X33327513Y6435000D02*
X33327513Y44935000D01*
D13*
G04 #@! TO.C,M1*
X60534999Y15334999D02*
X60534999Y18535002D01*
X60534999Y3234999D02*
X60534999Y13635001D01*
X60534999Y1334999D02*
X60534999Y1634999D01*
X60534999Y1334999D02*
X75934999Y1334999D01*
X62034999Y21934997D02*
X77334998Y21934999D01*
X77334996Y15235001D02*
X77334996Y20035001D01*
X77334996Y9034999D02*
X77334996Y11734999D01*
X77334996Y6335001D02*
X77334996Y7435004D01*
X77334996Y2784999D02*
X77335001Y4334999D01*
X77334998Y21635001D02*
X77334998Y21934999D01*
D14*
G04 #@! TO.C,P6*
X73540000Y44680000D02*
X73540000Y47340000D01*
X73834462Y47340000D02*
X73540000Y47340000D01*
X73845627Y44680000D02*
X73540000Y44680000D01*
X75894373Y47340000D02*
X76200000Y47340000D01*
X75905538Y44680000D02*
X76200000Y44680000D01*
X76200000Y47340000D02*
X76200000Y44680000D01*
D13*
G04 #@! TO.C,M7*
X66528797Y43410001D02*
X73421674Y43410001D01*
X66535000Y54253795D02*
X66535000Y43410001D01*
X66585000Y54309997D02*
X66535000Y54253795D01*
X66585000Y54309997D02*
X67409999Y54309997D01*
X67685005Y54585001D02*
X67409999Y54309997D01*
X67685005Y54585001D02*
X73382827Y54585001D01*
X73382827Y54585001D02*
X73421674Y43410001D01*
D14*
G04 #@! TO.C,F1*
X57610000Y14610000D02*
X57610000Y19460000D01*
X59610000Y14610000D02*
X59610000Y19460000D01*
X57610000Y19460000D02*
G75*
G02*
X59610000Y19460000I1000000J0D01*
G01*
X59610000Y14560000D02*
G75*
G02*
X57610000Y14560000I-1000000J0D01*
G01*
G04 #@! TO.C,P3*
X96980000Y1180000D02*
X96980000Y3840000D01*
X97274462Y3840000D02*
X96980000Y3840000D01*
X97285627Y1180000D02*
X96980000Y1180000D01*
X99334373Y3840000D02*
X99640000Y3840000D01*
X99345538Y1180000D02*
X99640000Y1180000D01*
X99640000Y3840000D02*
X99640000Y1180000D01*
D16*
G04 #@! TO.C,R4*
X78484609Y6103609D02*
X78484609Y5087609D01*
X78484609Y4071609D02*
X78484609Y3055609D01*
X80084609Y5087609D02*
X80084609Y6103609D01*
X80084609Y3055609D02*
X80084609Y4071609D01*
D14*
X78482971Y6158609D02*
G75*
G02*
X80084609Y6154609I801638J326000D01*
G01*
X80084609Y3004609D02*
G75*
G02*
X78481114Y2996007I-800000J-330000D01*
G01*
G04 #@! TO.C,P7*
X117680000Y22680000D02*
X117680000Y25340000D01*
X117974462Y25340000D02*
X117680000Y25340000D01*
X117985627Y22680000D02*
X117680000Y22680000D01*
X120034373Y25340000D02*
X120340000Y25340000D01*
X120045538Y22680000D02*
X120340000Y22680000D01*
X120340000Y25340000D02*
X120340000Y22680000D01*
D13*
G04 #@! TO.C,M6*
X81410000Y48110000D02*
X81410000Y12310010D01*
X115210010Y48110000D02*
X81410000Y48110000D01*
X115210010Y48110000D02*
X115210010Y12310010D01*
X115210010Y12310010D02*
X81410000Y12310010D01*
G04 #@! TO.C,M4*
X67135000Y77385000D02*
X67135000Y62385000D01*
X67135000Y77385000D02*
X68435000Y77385000D01*
X67135000Y62385000D02*
X72235000Y62385000D01*
X76735000Y77385000D02*
X70335000Y77385000D01*
X76735000Y62985000D02*
X76735000Y77385000D01*
D14*
G04 #@! TO.C,F2*
X59210000Y23610000D02*
X54360000Y23610000D01*
X59210000Y21610000D02*
X54360000Y21610000D01*
X54360000Y21610000D02*
G75*
G02*
X54360000Y23610000I0J1000000D01*
G01*
X59260000Y23610000D02*
G75*
G02*
X59260000Y21610000I0J-1000000D01*
G01*
G04 #@! TO.C,P16*
X42560000Y10180000D02*
X42560000Y12840000D01*
X42854462Y12840000D02*
X42560000Y12840000D01*
X42865627Y10180000D02*
X42560000Y10180000D01*
X44914373Y12840000D02*
X45220000Y12840000D01*
X44925538Y10180000D02*
X45220000Y10180000D01*
X45220000Y12840000D02*
X45220000Y10180000D01*
G04 #@! TO.C,D8*
X89750000Y79592023D02*
X89750000Y81267023D01*
X89750000Y79592023D02*
X89750000Y78942023D01*
X92870000Y79592023D02*
X92870000Y80242023D01*
X92870000Y79592023D02*
X92870000Y78942023D01*
G04 #@! TO.C,U7*
X45527513Y68300000D02*
X47477513Y68300000D01*
X45527513Y63180000D02*
X47477513Y63180000D01*
X49427513Y63180000D02*
X47477513Y63180000D01*
X50927513Y68300000D02*
X47477513Y68300000D01*
D13*
G04 #@! TO.C,C10*
X48435000Y14970000D02*
X47435000Y14970000D01*
G04 #@! TO.C,C27*
X97260014Y65110000D02*
X98009999Y65110000D01*
D14*
G04 #@! TO.C,D4*
X38062513Y32610000D02*
X41962513Y32610000D01*
X38062513Y30610000D02*
X38062513Y32610000D01*
X38062513Y30610000D02*
X41962513Y30610000D01*
D12*
X39762513Y31610000D02*
X39962513Y31610000D01*
X39962513Y31960000D02*
X39962513Y31260000D01*
X39962513Y31610000D02*
X40662513Y31960000D01*
X39962513Y31610000D02*
X40662513Y31260000D01*
X40662513Y31960000D02*
X40662513Y31260000D01*
X40662513Y31610000D02*
X40962513Y31610000D01*
D17*
G04 #@! TO.C,BT1*
X120698000Y21446032D02*
X120698000Y18290006D01*
X121898302Y21446032D02*
X120698000Y21446032D01*
X125578889Y18290006D02*
X120698000Y18290006D01*
X130350000Y29853458D02*
X130350000Y28329458D01*
X130350000Y22614458D02*
X130350000Y20582458D01*
X131366000Y21598458D02*
X129334000Y21598458D01*
X134922000Y21446032D02*
X133980600Y21446032D01*
X134922000Y21446032D02*
X134922000Y18290006D01*
X134922000Y18290006D02*
X130041110Y18290006D01*
X125512548Y18694629D02*
G75*
G02*
X125686081Y32381548I2297434J6815431D01*
G01*
X129964049Y32427673D02*
G75*
G02*
X129985107Y18599025I-2154015J-6917620D01*
G01*
D14*
G04 #@! TO.C,U10*
X40627513Y50560000D02*
X38677513Y50560000D01*
X40627513Y50560000D02*
X44077513Y50560000D01*
X40627513Y45440000D02*
X38677513Y45440000D01*
X40627513Y45440000D02*
X42577513Y45440000D01*
D18*
G04 #@! TO.C,R31*
X45917513Y50164995D02*
X45517513Y50164985D01*
X45918569Y49419160D02*
X45518570Y49419149D01*
D13*
G04 #@! TO.C,C30*
X93000001Y82959986D02*
X93000001Y82210001D01*
G04 #@! TO.C,C7*
X42435000Y14970000D02*
X41435000Y14970000D01*
G04 #@! TO.C,C33*
X132460014Y34010000D02*
X133209999Y34010000D01*
G04 #@! TO.C,C29*
X91310000Y76742037D02*
X91310000Y77492022D01*
D18*
G04 #@! TO.C,R34*
X39656457Y52940840D02*
X40056456Y52940851D01*
X39657513Y52195005D02*
X40057513Y52195015D01*
G04 #@! TO.C,R1*
X10036662Y30078943D02*
X10036673Y29678944D01*
X10782498Y30080000D02*
X10782508Y29680000D01*
D13*
G04 #@! TO.C,C17*
X51910000Y9510000D02*
X52910000Y9510000D01*
G04 #@! TO.C,C3*
X43435000Y18970000D02*
X44435000Y18970000D01*
G04 #@! TO.C,C23*
X54910000Y5510000D02*
X53910000Y5510000D01*
D14*
G04 #@! TO.C,U4*
X88750000Y71810000D02*
X88750000Y75260000D01*
X88750000Y71810000D02*
X88750000Y69860000D01*
X93870000Y71810000D02*
X93870000Y73760000D01*
X93870000Y71810000D02*
X93870000Y69860000D01*
D13*
G04 #@! TO.C,C1*
X39435000Y18970000D02*
X40435000Y18970000D01*
D14*
G04 #@! TO.C,U11*
X40627513Y58560000D02*
X38677513Y58560000D01*
X40627513Y58560000D02*
X44077513Y58560000D01*
X40627513Y53440000D02*
X38677513Y53440000D01*
X40627513Y53440000D02*
X42577513Y53440000D01*
D13*
G04 #@! TO.C,C31*
X95759986Y73510000D02*
X95010001Y73510000D01*
G04 #@! TO.C,C14*
X45910000Y9510000D02*
X46910000Y9510000D01*
G04 #@! TO.C,C19*
X46910000Y5510000D02*
X45910000Y5510000D01*
G04 #@! TO.C,C4*
X45435000Y18970000D02*
X46435000Y18970000D01*
D18*
G04 #@! TO.C,R10*
X52667513Y67944985D02*
X53067513Y67944995D01*
X52668570Y67199149D02*
X53068569Y67199160D01*
D14*
G04 #@! TO.C,D2*
X40407513Y66335000D02*
X40407513Y70235000D01*
D12*
X41057513Y68935000D02*
X41757513Y68935000D01*
X41057513Y68235000D02*
X41757513Y68235000D01*
X41407513Y68935000D02*
X41407513Y69235000D01*
X41407513Y68235000D02*
X41057513Y68935000D01*
X41407513Y68235000D02*
X41757513Y68935000D01*
X41407513Y68035000D02*
X41407513Y68235000D01*
D14*
X42407513Y66335000D02*
X40407513Y66335000D01*
X42407513Y66335000D02*
X42407513Y70235000D01*
D10*
G04 #@! TO.C,D1*
X122082003Y16584995D02*
X122082003Y16163995D01*
X122082003Y16584995D02*
X125010000Y16584995D01*
X122082003Y16264000D02*
X122210000Y16264000D01*
X122082003Y15856005D02*
X122082003Y15410000D01*
X122082003Y15756000D02*
X122209003Y15756000D01*
X122082003Y15410000D02*
X125010001Y15410000D01*
X122210000Y16560000D02*
X122209003Y16163995D01*
X122210000Y15856005D02*
X122210000Y15410000D01*
D12*
X123210000Y16010000D02*
X123410000Y16010000D01*
X123410000Y16360000D02*
X123410000Y15660000D01*
X123410000Y16010000D02*
X124110000Y16360000D01*
X123410000Y16010000D02*
X124110000Y15660000D01*
X124110000Y16360000D02*
X124110000Y15660000D01*
X124110000Y16010000D02*
X124410000Y16010000D01*
D18*
G04 #@! TO.C,R33*
X46077513Y58214995D02*
X45677513Y58214985D01*
X46078569Y57469160D02*
X45678570Y57469149D01*
D13*
G04 #@! TO.C,C21*
X50910000Y5510000D02*
X49910000Y5510000D01*
D18*
G04 #@! TO.C,R7*
X84439160Y4187262D02*
X84439149Y4587261D01*
X85184995Y4188318D02*
X85184985Y4588318D01*
D13*
G04 #@! TO.C,C32*
X97559986Y73510000D02*
X96810001Y73510000D01*
D18*
G04 #@! TO.C,R16*
X40489160Y89658944D02*
X40489149Y90058943D01*
X41234995Y89660000D02*
X41234985Y90060000D01*
D14*
G04 #@! TO.C,U9*
X40627513Y41560000D02*
X38677513Y41560000D01*
X40627513Y41560000D02*
X44077513Y41560000D01*
X40627513Y36440000D02*
X38677513Y36440000D01*
X40627513Y36440000D02*
X42577513Y36440000D01*
D18*
G04 #@! TO.C,R30*
X40326457Y36010840D02*
X40726456Y36010851D01*
X40327513Y35265005D02*
X40727513Y35265015D01*
D19*
G04 #@! TO.C,G\u002A\u002A\u002A*
G36*
X56311471Y93291560D02*
G01*
X56311471Y91174893D01*
X55810156Y91174893D01*
X55308840Y91174893D01*
X55308840Y93291560D01*
X55308840Y95408226D01*
X55810156Y95408226D01*
X56311471Y95408226D01*
X56311471Y93291560D01*
G37*
G36*
X76364103Y93291560D02*
G01*
X76364103Y91174893D01*
X75862787Y91174893D01*
X75361471Y91174893D01*
X75361471Y93291560D01*
X75361471Y95408226D01*
X75862787Y95408226D01*
X76364103Y95408226D01*
X76364103Y93291560D01*
G37*
G36*
X56311471Y96318022D02*
G01*
X56310422Y96245454D01*
X56285306Y95967145D01*
X56237202Y95816706D01*
X56218733Y95804268D01*
X56030282Y95760234D01*
X55735887Y95742437D01*
X55308840Y95742437D01*
X55308840Y96243753D01*
X55308840Y96745068D01*
X55810156Y96745068D01*
X56311471Y96745068D01*
X56311471Y96318022D01*
G37*
G36*
X67784305Y93605273D02*
G01*
X67878805Y93497825D01*
X67897436Y93235858D01*
X67879867Y92977932D01*
X67787769Y92867682D01*
X67563226Y92845946D01*
X67342146Y92866443D01*
X67247646Y92973891D01*
X67229015Y93235858D01*
X67246584Y93493784D01*
X67338683Y93604034D01*
X67563226Y93625770D01*
X67784305Y93605273D01*
G37*
G36*
X76364103Y96318022D02*
G01*
X76363054Y96245454D01*
X76337938Y95967145D01*
X76289834Y95816706D01*
X76271364Y95804268D01*
X76082914Y95760234D01*
X75788518Y95742437D01*
X75361471Y95742437D01*
X75361471Y96243753D01*
X75361471Y96745068D01*
X75862787Y96745068D01*
X76364103Y96745068D01*
X76364103Y96318022D01*
G37*
G36*
X47484571Y93625722D02*
G01*
X47730262Y93604363D01*
X47827559Y93497189D01*
X47844805Y93235858D01*
X47844756Y93206180D01*
X47823398Y92960489D01*
X47716224Y92863191D01*
X47454892Y92845946D01*
X47425214Y92845994D01*
X47179523Y92867352D01*
X47082226Y92974526D01*
X47064980Y93235858D01*
X47065029Y93265536D01*
X47086387Y93511227D01*
X47193561Y93608525D01*
X47454892Y93625770D01*
X47484571Y93625722D01*
G37*
G36*
X72438957Y93625722D02*
G01*
X72684648Y93604363D01*
X72781945Y93497189D01*
X72799191Y93235858D01*
X72799142Y93206180D01*
X72777784Y92960489D01*
X72670610Y92863191D01*
X72409278Y92845946D01*
X72379600Y92845994D01*
X72133909Y92867352D01*
X72036612Y92974526D01*
X72019366Y93235858D01*
X72019415Y93265536D01*
X72040773Y93511227D01*
X72147947Y93608525D01*
X72409278Y93625770D01*
X72438957Y93625722D01*
G37*
G36*
X50741296Y85919849D02*
G01*
X50736978Y85312746D01*
X50720650Y84865355D01*
X50688042Y84564671D01*
X50634888Y84372036D01*
X50556925Y84248797D01*
X50322195Y84102786D01*
X49888504Y84045068D01*
X49782180Y84045750D01*
X49531938Y84068498D01*
X49426227Y84149487D01*
X49404454Y84323577D01*
X49412435Y84444690D01*
X49499814Y84572111D01*
X49738664Y84602086D01*
X50072875Y84602086D01*
X50072875Y85994630D01*
X50072875Y87387174D01*
X50407085Y87387174D01*
X50741296Y87387174D01*
X50741296Y85919849D01*
G37*
G36*
X52523752Y85919849D02*
G01*
X52519435Y85312746D01*
X52503107Y84865355D01*
X52470498Y84564671D01*
X52417345Y84372036D01*
X52339381Y84248797D01*
X52104651Y84102786D01*
X51670960Y84045068D01*
X51564636Y84045750D01*
X51314395Y84068498D01*
X51208683Y84149487D01*
X51186910Y84323577D01*
X51194891Y84444690D01*
X51282270Y84572111D01*
X51521121Y84602086D01*
X51855331Y84602086D01*
X51855331Y85994630D01*
X51855331Y87387174D01*
X52189542Y87387174D01*
X52523752Y87387174D01*
X52523752Y85919849D01*
G37*
G36*
X86827485Y96122446D02*
G01*
X87170243Y95834034D01*
X87170243Y93792875D01*
X87170243Y91751717D01*
X86827485Y91463305D01*
X86484727Y91174893D01*
X84209503Y91174893D01*
X81934278Y91174893D01*
X81934278Y91676209D01*
X81934278Y92177525D01*
X84106647Y92177525D01*
X86279015Y92177525D01*
X86279015Y93792875D01*
X86279015Y95408226D01*
X84106647Y95408226D01*
X81934278Y95408226D01*
X81934278Y95909542D01*
X81934278Y96410858D01*
X84209503Y96410858D01*
X86484727Y96410858D01*
X86827485Y96122446D01*
G37*
G36*
X68565857Y85326209D02*
G01*
X68565857Y84045068D01*
X68231647Y84045068D01*
X67897436Y84045068D01*
X67897436Y85047700D01*
X67897436Y86050332D01*
X67117612Y86050332D01*
X66337787Y86050332D01*
X66337787Y85047700D01*
X66337787Y84045068D01*
X66003577Y84045068D01*
X65669366Y84045068D01*
X65669366Y85078614D01*
X65670573Y85414176D01*
X65692625Y85911141D01*
X65768949Y86246502D01*
X65933248Y86452031D01*
X66219226Y86559500D01*
X66660587Y86600682D01*
X67291034Y86607349D01*
X68565857Y86607349D01*
X68565857Y85326209D01*
G37*
G36*
X69941256Y86607344D02*
G01*
X70470330Y86595818D01*
X70831967Y86538311D01*
X71057936Y86399492D01*
X71180008Y86144028D01*
X71229953Y85736587D01*
X71239542Y85141837D01*
X71239542Y84045068D01*
X70905331Y84045068D01*
X70571121Y84045068D01*
X70571121Y85047700D01*
X70571121Y86050332D01*
X69791296Y86050332D01*
X69583355Y86050839D01*
X69260330Y86061673D01*
X69089708Y86100059D01*
X69022939Y86183335D01*
X69011471Y86328840D01*
X69017841Y86452156D01*
X69067065Y86540698D01*
X69204139Y86586902D01*
X69474049Y86604531D01*
X69921778Y86607349D01*
X69941256Y86607344D01*
G37*
G36*
X54529015Y93291560D02*
G01*
X54529015Y91174893D01*
X54083401Y91174893D01*
X53637787Y91174893D01*
X53637787Y92790244D01*
X53637787Y94405595D01*
X52412349Y94405595D01*
X51186910Y94405595D01*
X51186910Y92790244D01*
X51186910Y91174893D01*
X50741296Y91174893D01*
X50295682Y91174893D01*
X50299225Y92985200D01*
X50299542Y93092421D01*
X50310463Y93865410D01*
X50336728Y94428798D01*
X50379135Y94793959D01*
X50438479Y94972266D01*
X50464742Y95005441D01*
X50618262Y95155566D01*
X50818931Y95263836D01*
X51101842Y95336745D01*
X51502084Y95380785D01*
X52054752Y95402448D01*
X52794937Y95408226D01*
X54529015Y95408226D01*
X54529015Y93291560D01*
G37*
G36*
X61324629Y93291560D02*
G01*
X61324629Y91174893D01*
X60879015Y91174893D01*
X60433401Y91174893D01*
X60433401Y92790244D01*
X60433401Y94405595D01*
X59207963Y94405595D01*
X57982524Y94405595D01*
X57982524Y92790244D01*
X57982524Y91174893D01*
X57536910Y91174893D01*
X57091296Y91174893D01*
X57094839Y92985200D01*
X57095156Y93092421D01*
X57106077Y93865410D01*
X57132342Y94428798D01*
X57174749Y94793959D01*
X57234093Y94972266D01*
X57260356Y95005441D01*
X57413876Y95155566D01*
X57614545Y95263836D01*
X57897456Y95336745D01*
X58297699Y95380785D01*
X58850366Y95402448D01*
X59590551Y95408226D01*
X61324629Y95408226D01*
X61324629Y93291560D01*
G37*
G36*
X85387787Y92845946D02*
G01*
X83661033Y92845946D01*
X81934278Y92845946D01*
X81934278Y93737174D01*
X82714103Y93737174D01*
X82720549Y93722815D01*
X82873315Y93671977D01*
X83199882Y93638091D01*
X83661033Y93625770D01*
X83783078Y93626528D01*
X84215203Y93644501D01*
X84503237Y93682921D01*
X84607963Y93737174D01*
X84601517Y93751532D01*
X84448751Y93802370D01*
X84122184Y93836256D01*
X83661033Y93848577D01*
X83538988Y93847819D01*
X83106863Y93829846D01*
X82818829Y93791427D01*
X82714103Y93737174D01*
X81934278Y93737174D01*
X81934278Y94628402D01*
X83661033Y94628402D01*
X85387787Y94628402D01*
X85387787Y93737174D01*
X85387787Y92845946D01*
G37*
G36*
X81154454Y93959981D02*
G01*
X81154454Y91174893D01*
X80708840Y91174893D01*
X80263226Y91174893D01*
X80263226Y92790244D01*
X80263226Y94405595D01*
X79037787Y94405595D01*
X77812349Y94405595D01*
X77812349Y92790244D01*
X77812349Y91174893D01*
X77366735Y91174893D01*
X76921121Y91174893D01*
X76924664Y92985200D01*
X76924703Y93005355D01*
X76931074Y93793769D01*
X76962169Y94387577D01*
X77041326Y94814361D01*
X77191878Y95101701D01*
X77437162Y95277176D01*
X77800514Y95368369D01*
X78305268Y95402859D01*
X78974762Y95408226D01*
X80263226Y95408226D01*
X80263226Y96076647D01*
X80263226Y96745068D01*
X80708840Y96745068D01*
X81154454Y96745068D01*
X81154454Y93959981D01*
G37*
G36*
X78654453Y86495942D02*
G01*
X79167077Y86482639D01*
X79520207Y86420214D01*
X79743403Y86273991D01*
X79866229Y86009294D01*
X79918246Y85591448D01*
X79929015Y84985777D01*
X79927081Y84760781D01*
X79911898Y84339452D01*
X79884905Y84031583D01*
X79850047Y83891831D01*
X79765052Y83852866D01*
X79543687Y83845413D01*
X79456405Y83868266D01*
X79379065Y83945149D01*
X79331615Y84115371D01*
X79303526Y84422085D01*
X79284265Y84908446D01*
X79252233Y85938928D01*
X78476589Y85938928D01*
X78275223Y85939403D01*
X77950959Y85950091D01*
X77779610Y85988340D01*
X77712498Y86071629D01*
X77700945Y86217437D01*
X77709014Y86349510D01*
X77762849Y86433233D01*
X77906712Y86476810D01*
X78184862Y86493346D01*
X78641558Y86495946D01*
X78654453Y86495942D01*
G37*
G36*
X69690687Y94767656D02*
G01*
X69692029Y94520183D01*
X69695682Y93648078D01*
X69693991Y92966408D01*
X69683645Y92449210D01*
X69661335Y92070520D01*
X69623752Y91804377D01*
X69567584Y91624817D01*
X69489523Y91505877D01*
X69386258Y91421595D01*
X69254479Y91346008D01*
X69078572Y91280038D01*
X68638507Y91206967D01*
X68036691Y91179353D01*
X67117612Y91174893D01*
X67117612Y91676209D01*
X67117612Y92177525D01*
X67953138Y92177525D01*
X68788664Y92177525D01*
X68788664Y93291560D01*
X68788664Y94405595D01*
X67953138Y94405595D01*
X67117612Y94405595D01*
X67117612Y94906910D01*
X67117612Y95408226D01*
X67953138Y95408226D01*
X68788664Y95408226D01*
X68788664Y96076647D01*
X68788664Y96745068D01*
X69234278Y96745068D01*
X69679892Y96745068D01*
X69690687Y94767656D01*
G37*
G36*
X63107085Y93792875D02*
G01*
X63107085Y92177525D01*
X64332524Y92177525D01*
X65557963Y92177525D01*
X65557963Y93792875D01*
X65557963Y95408226D01*
X66003577Y95408226D01*
X66449191Y95408226D01*
X66458688Y94266340D01*
X66459076Y94219377D01*
X66464007Y93387864D01*
X66460558Y92748895D01*
X66444443Y92273676D01*
X66411373Y91933412D01*
X66357060Y91699308D01*
X66277215Y91542569D01*
X66167550Y91434400D01*
X66023777Y91346008D01*
X65845860Y91280105D01*
X65507162Y91223870D01*
X65006265Y91191258D01*
X64313221Y91179353D01*
X63774116Y91179330D01*
X63349472Y91188290D01*
X63061059Y91213811D01*
X62863418Y91263249D01*
X62711090Y91343962D01*
X62558615Y91463305D01*
X62215857Y91751717D01*
X62215857Y93579971D01*
X62215857Y95408226D01*
X62661471Y95408226D01*
X63107085Y95408226D01*
X63107085Y93792875D01*
G37*
G36*
X74581647Y92456033D02*
G01*
X74581647Y89503840D01*
X74136033Y89503840D01*
X73690419Y89503840D01*
X73690419Y90339367D01*
X73690419Y91174893D01*
X72401955Y91174893D01*
X72138802Y91175459D01*
X71494772Y91192536D01*
X71027963Y91255595D01*
X70709892Y91394090D01*
X70512081Y91637478D01*
X70406049Y92015215D01*
X70363315Y92556757D01*
X70355400Y93291560D01*
X70355431Y93449191D01*
X70363077Y94096985D01*
X70388498Y94405595D01*
X71239542Y94405595D01*
X71239542Y93291560D01*
X71239542Y92177525D01*
X72464980Y92177525D01*
X73690419Y92177525D01*
X73690419Y93291560D01*
X73690419Y94405595D01*
X72464980Y94405595D01*
X71239542Y94405595D01*
X70388498Y94405595D01*
X70403149Y94583462D01*
X70502844Y94931720D01*
X70689359Y95164861D01*
X70989892Y95305982D01*
X71431640Y95378184D01*
X72041799Y95404566D01*
X72847569Y95408226D01*
X74581647Y95408226D01*
X74581647Y93291560D01*
X74581647Y92456033D01*
G37*
G36*
X86701126Y85716121D02*
G01*
X86701467Y85701221D01*
X86708761Y85145196D01*
X86705497Y84653221D01*
X86692639Y84278170D01*
X86671153Y84072919D01*
X86580047Y83900059D01*
X86338416Y83822261D01*
X86229455Y83828786D01*
X86118821Y83890993D01*
X86063323Y84065331D01*
X86034179Y84407130D01*
X86000507Y84991998D01*
X84837204Y85023983D01*
X84481822Y85039150D01*
X84031449Y85075520D01*
X83695519Y85123538D01*
X83528212Y85176878D01*
X83521399Y85183096D01*
X83439008Y85378022D01*
X83391091Y85715617D01*
X83377300Y86123378D01*
X83395666Y86495946D01*
X83926092Y86495946D01*
X83960668Y86078182D01*
X83995243Y85660419D01*
X85025726Y85628388D01*
X86056208Y85596356D01*
X86056208Y86046151D01*
X86056208Y86495946D01*
X84991150Y86495946D01*
X83926092Y86495946D01*
X83395666Y86495946D01*
X83397286Y86528804D01*
X83450701Y86859393D01*
X83537194Y87042642D01*
X83617531Y87079085D01*
X83924602Y87124828D01*
X84444055Y87144989D01*
X85180395Y87139836D01*
X86668928Y87108665D01*
X86693495Y86046151D01*
X86701126Y85716121D01*
G37*
G36*
X75355944Y86041400D02*
G01*
X75361471Y85429655D01*
X75361471Y84045068D01*
X75027261Y84045068D01*
X74862219Y84051323D01*
X74745247Y84107916D01*
X74700352Y84272345D01*
X74693050Y84602086D01*
X74693050Y85159103D01*
X73579015Y85159103D01*
X72464980Y85159103D01*
X72464980Y84602086D01*
X72461227Y84327017D01*
X72427272Y84132063D01*
X72328614Y84057238D01*
X72130770Y84045068D01*
X71796559Y84045068D01*
X71796559Y85471033D01*
X71799193Y85852080D01*
X71820728Y86458372D01*
X71837308Y86607349D01*
X72464980Y86607349D01*
X72464980Y86161735D01*
X72464980Y85716121D01*
X73579015Y85716121D01*
X74693050Y85716121D01*
X74693050Y86161735D01*
X74693050Y86607349D01*
X73579015Y86607349D01*
X72464980Y86607349D01*
X71837308Y86607349D01*
X71864281Y86849717D01*
X71930243Y87030682D01*
X72010933Y87071844D01*
X72308623Y87123601D01*
X72815385Y87154264D01*
X73537637Y87164367D01*
X74089977Y87160829D01*
X74559157Y87145502D01*
X74873822Y87114403D01*
X75070672Y87063636D01*
X75186409Y86989304D01*
X75239070Y86919181D01*
X75298987Y86748350D01*
X75336530Y86468361D01*
X75350472Y86161735D01*
X75355944Y86041400D01*
G37*
G36*
X60099191Y85604717D02*
G01*
X60099191Y84045068D01*
X59764980Y84045068D01*
X59599939Y84051323D01*
X59482966Y84107916D01*
X59438071Y84272345D01*
X59430770Y84602086D01*
X59430770Y85159103D01*
X58841713Y85159103D01*
X58735496Y85158581D01*
X58447351Y85138706D01*
X58228405Y85063329D01*
X58005134Y84896455D01*
X57704015Y84602086D01*
X57575047Y84473767D01*
X57274615Y84212322D01*
X57031759Y84081062D01*
X56789124Y84045068D01*
X56758486Y84045345D01*
X56520464Y84070625D01*
X56422875Y84124404D01*
X56472458Y84210330D01*
X56642481Y84415283D01*
X56891684Y84681422D01*
X57142444Y84943616D01*
X57250419Y85087318D01*
X57229626Y85147154D01*
X57095412Y85159103D01*
X56957496Y85169249D01*
X56656110Y85310475D01*
X56480090Y85625356D01*
X56469661Y85716121D01*
X57077846Y85716121D01*
X58254308Y85716121D01*
X59430770Y85716121D01*
X59430770Y86165632D01*
X59430770Y86615144D01*
X58288884Y86583395D01*
X57146998Y86551647D01*
X57112422Y86133884D01*
X57077846Y85716121D01*
X56469661Y85716121D01*
X56422875Y86123299D01*
X56422876Y86127071D01*
X56435348Y86492289D01*
X56492304Y86760158D01*
X56623442Y86945681D01*
X56858464Y87063860D01*
X57227071Y87129699D01*
X57758962Y87158200D01*
X58483840Y87164367D01*
X60099191Y87164367D01*
X60099191Y86165632D01*
X60099191Y85604717D01*
G37*
G36*
X48958840Y85368516D02*
G01*
X48956914Y85139900D01*
X48932710Y84704050D01*
X48874516Y84422936D01*
X48774468Y84248797D01*
X48774271Y84248578D01*
X48665990Y84160086D01*
X48503631Y84101200D01*
X48245038Y84066209D01*
X47848053Y84049402D01*
X47270521Y84045068D01*
X45950945Y84045068D01*
X45950945Y84323577D01*
X45950945Y84602086D01*
X47120682Y84602086D01*
X47428896Y84603409D01*
X47859763Y84615129D01*
X48122995Y84643240D01*
X48254557Y84692882D01*
X48290419Y84769191D01*
X48281160Y84813222D01*
X48199120Y84874774D01*
X48002338Y84912379D01*
X47654848Y84931173D01*
X47120682Y84936296D01*
X45950945Y84936296D01*
X45950945Y85531750D01*
X45967435Y85771823D01*
X46619366Y85771823D01*
X46638510Y85707675D01*
X46755478Y85645104D01*
X47014175Y85613471D01*
X47454892Y85604717D01*
X47775631Y85608546D01*
X48088486Y85631940D01*
X48246651Y85683679D01*
X48290419Y85771823D01*
X48271275Y85835971D01*
X48154307Y85898542D01*
X47895610Y85930174D01*
X47454892Y85938928D01*
X47134154Y85935099D01*
X46821299Y85911706D01*
X46663134Y85859966D01*
X46619366Y85771823D01*
X45967435Y85771823D01*
X45979409Y85946149D01*
X46092020Y86245753D01*
X46323015Y86434737D01*
X46706581Y86540383D01*
X47276903Y86589974D01*
X47586815Y86598027D01*
X48138865Y86564624D01*
X48546691Y86456715D01*
X48958840Y86284508D01*
X48958840Y85771823D01*
X48958840Y85368516D01*
G37*
G36*
X49627261Y91751717D02*
G01*
X49284503Y91463305D01*
X49178328Y91377587D01*
X49025181Y91282698D01*
X48839746Y91223203D01*
X48574397Y91190884D01*
X48181507Y91177521D01*
X47613450Y91174893D01*
X46285156Y91174893D01*
X46285156Y90840682D01*
X46285156Y90506472D01*
X47621998Y90506472D01*
X48958840Y90506472D01*
X48958840Y90005156D01*
X48958840Y89503840D01*
X47573548Y89503840D01*
X47573131Y89503840D01*
X47012395Y89512584D01*
X46509494Y89536368D01*
X46119406Y89571562D01*
X45897107Y89614535D01*
X45746589Y89688387D01*
X45579825Y89842486D01*
X45456819Y90081434D01*
X45371577Y90432736D01*
X45318109Y90923899D01*
X45290422Y91582428D01*
X45282524Y92435831D01*
X45284303Y92796879D01*
X45298349Y93480544D01*
X45324679Y94055349D01*
X45354604Y94405595D01*
X46285156Y94405595D01*
X46285156Y93291560D01*
X46285156Y92177525D01*
X47510594Y92177525D01*
X48736033Y92177525D01*
X48736033Y93291560D01*
X48736033Y94405595D01*
X47510594Y94405595D01*
X46285156Y94405595D01*
X45354604Y94405595D01*
X45361247Y94483342D01*
X45406006Y94726566D01*
X45492604Y94923018D01*
X45660658Y95125886D01*
X45917359Y95265269D01*
X46295994Y95351738D01*
X46829851Y95395866D01*
X47552216Y95408226D01*
X48047914Y95406784D01*
X48480493Y95396927D01*
X48774407Y95370965D01*
X48975691Y95321236D01*
X49130378Y95240074D01*
X49284503Y95119814D01*
X49627261Y94831403D01*
X49627261Y93291560D01*
X49627261Y91751717D01*
G37*
G36*
X55909367Y84486988D02*
G01*
X55760318Y84273740D01*
X55743520Y84257273D01*
X55619357Y84162635D01*
X55453146Y84100937D01*
X55199716Y84065338D01*
X54813894Y84048995D01*
X54250507Y84045068D01*
X52969366Y84045068D01*
X52969366Y84769191D01*
X53637787Y84769191D01*
X53656931Y84705043D01*
X53773899Y84642472D01*
X54032596Y84610839D01*
X54473314Y84602086D01*
X54794052Y84605915D01*
X55106907Y84629308D01*
X55265072Y84681048D01*
X55308840Y84769191D01*
X55289696Y84833339D01*
X55172728Y84895910D01*
X54914031Y84927543D01*
X54473314Y84936296D01*
X54152575Y84932468D01*
X53839720Y84909074D01*
X53681555Y84857335D01*
X53637787Y84769191D01*
X52969366Y84769191D01*
X52969366Y85145463D01*
X52969540Y85247996D01*
X52979431Y85750044D01*
X53009095Y86080234D01*
X53064905Y86281994D01*
X53153231Y86398752D01*
X53267854Y86456867D01*
X53545318Y86511416D01*
X53990002Y86542063D01*
X54629328Y86551647D01*
X55921559Y86551647D01*
X55921559Y86273139D01*
X55920478Y86202624D01*
X55896836Y86100960D01*
X55811091Y86037064D01*
X55623087Y86000027D01*
X55292667Y85978936D01*
X54779673Y85962882D01*
X54645495Y85958875D01*
X54154287Y85935688D01*
X53844971Y85900527D01*
X53683990Y85847777D01*
X53637787Y85771823D01*
X53639765Y85753048D01*
X53708072Y85682618D01*
X53898454Y85634170D01*
X54244469Y85602090D01*
X54779673Y85580764D01*
X55921559Y85549016D01*
X55955274Y85025714D01*
X55961542Y84774604D01*
X55960560Y84769191D01*
X55909367Y84486988D01*
G37*
G36*
X83035147Y85719672D02*
G01*
X83048314Y85184953D01*
X83039759Y84751842D01*
X83002442Y84464029D01*
X82919699Y84267440D01*
X82774869Y84095706D01*
X82769767Y84090616D01*
X82628493Y83967014D01*
X82470662Y83888501D01*
X82244724Y83844953D01*
X81899129Y83826247D01*
X81382325Y83822261D01*
X80263226Y83822261D01*
X80263226Y84156472D01*
X80263226Y84490682D01*
X81321559Y84490682D01*
X81475054Y84491050D01*
X81926948Y84500659D01*
X82203484Y84527720D01*
X82342016Y84578130D01*
X82379892Y84657788D01*
X82377565Y84682024D01*
X82316709Y84753375D01*
X82145323Y84797039D01*
X81826057Y84818912D01*
X81321559Y84824893D01*
X80263226Y84824893D01*
X80263226Y85444936D01*
X80266935Y85686699D01*
X80840781Y85686699D01*
X80847990Y85585026D01*
X80946366Y85526490D01*
X81179730Y85499712D01*
X81591899Y85493314D01*
X81685176Y85493450D01*
X82060491Y85501944D01*
X82269660Y85533561D01*
X82360265Y85602063D01*
X82379892Y85721211D01*
X82379670Y85741922D01*
X82354653Y85853673D01*
X82253733Y85911520D01*
X82028132Y85928130D01*
X81629071Y85916167D01*
X81382249Y85902562D01*
X81067277Y85864144D01*
X80902601Y85797258D01*
X80841077Y85688270D01*
X80840781Y85686699D01*
X80266935Y85686699D01*
X80268708Y85802262D01*
X80311449Y86129821D01*
X80428658Y86333782D01*
X80657391Y86443331D01*
X81034709Y86487657D01*
X81597671Y86495946D01*
X82130223Y86487165D01*
X82554965Y86437131D01*
X82823809Y86313827D01*
X82972091Y86085319D01*
X83034882Y85721211D01*
X83035147Y85719672D01*
G37*
G36*
X65335156Y85301421D02*
G01*
X65331570Y85016660D01*
X65302806Y84661729D01*
X65234125Y84432509D01*
X65112349Y84267875D01*
X65100590Y84256300D01*
X64977895Y84162690D01*
X64811249Y84101350D01*
X64555955Y84065691D01*
X64167321Y84049126D01*
X63600653Y84045068D01*
X63134580Y84045926D01*
X62738692Y84053351D01*
X62498772Y84074694D01*
X62378075Y84117305D01*
X62339854Y84188532D01*
X62347364Y84295726D01*
X62352975Y84331213D01*
X62389971Y84432791D01*
X62484294Y84498351D01*
X62677306Y84537815D01*
X63010370Y84561102D01*
X63524849Y84578132D01*
X63573730Y84579505D01*
X64072960Y84597354D01*
X64392220Y84622502D01*
X64571165Y84663654D01*
X64649452Y84729515D01*
X64666735Y84828790D01*
X64666284Y84852367D01*
X64642048Y84942311D01*
X64552324Y84999458D01*
X64357791Y85031165D01*
X64019123Y85044793D01*
X63496998Y85047700D01*
X62327261Y85047700D01*
X62327261Y85583711D01*
X62328733Y85680597D01*
X62343490Y85778596D01*
X63013107Y85778596D01*
X63031098Y85687035D01*
X63143607Y85634419D01*
X63393349Y85610422D01*
X63823040Y85604717D01*
X64003007Y85605204D01*
X64362546Y85615390D01*
X64562277Y85648358D01*
X64648304Y85716548D01*
X64666735Y85832405D01*
X64665544Y85875908D01*
X64632587Y85975112D01*
X64518842Y86025819D01*
X64277122Y86039433D01*
X63860241Y86027361D01*
X63528326Y86009343D01*
X63229753Y85970769D01*
X63074508Y85905022D01*
X63016546Y85799674D01*
X63013107Y85778596D01*
X62343490Y85778596D01*
X62389540Y86084413D01*
X62554408Y86363536D01*
X62655467Y86458048D01*
X62804139Y86537140D01*
X63025202Y86582267D01*
X63368764Y86602609D01*
X63884933Y86607349D01*
X64414376Y86598665D01*
X64840076Y86548875D01*
X65109672Y86426073D01*
X65258495Y86198441D01*
X65321879Y85834163D01*
X65321923Y85832405D01*
X65335156Y85301421D01*
G37*
G36*
X87723995Y85510025D02*
G01*
X87727261Y83577174D01*
X87348489Y83198402D01*
X87227915Y83081945D01*
X86996333Y82910988D01*
X86740209Y82836163D01*
X86360881Y82819630D01*
X86180216Y82825684D01*
X85650889Y82943382D01*
X85283763Y83212401D01*
X85076359Y83634314D01*
X85047752Y83732134D01*
X84914659Y83945253D01*
X84671617Y84025916D01*
X84310887Y84032592D01*
X83953476Y83906236D01*
X83698048Y83609507D01*
X83648562Y83534443D01*
X83388073Y83268960D01*
X83061916Y83049376D01*
X83042191Y83039400D01*
X82850594Y82955284D01*
X82638633Y82895592D01*
X82365827Y82856252D01*
X81991695Y82833192D01*
X81475755Y82822342D01*
X80777527Y82819630D01*
X80140503Y82820497D01*
X79634779Y82826470D01*
X79279037Y82842553D01*
X79035517Y82873750D01*
X78866464Y82925061D01*
X78734118Y83001491D01*
X78600721Y83108042D01*
X78554393Y83147460D01*
X78390972Y83311179D01*
X78302086Y83489280D01*
X78265245Y83751199D01*
X78257963Y84166375D01*
X78257963Y84936296D01*
X77873292Y84936296D01*
X77725183Y84940589D01*
X77255331Y85041827D01*
X76936723Y85289444D01*
X76755627Y85699223D01*
X76698314Y86286950D01*
X76698321Y86296922D01*
X76714675Y86545980D01*
X77272346Y86545980D01*
X77276512Y86158352D01*
X77311033Y85549016D01*
X78007305Y85515849D01*
X78703577Y85482682D01*
X78703577Y84604727D01*
X78703573Y84585976D01*
X78706060Y84171297D01*
X78732798Y83862593D01*
X78812153Y83644894D01*
X78972490Y83503228D01*
X79242171Y83422625D01*
X79649563Y83388115D01*
X80223030Y83384728D01*
X80990936Y83397493D01*
X81181999Y83401127D01*
X81910328Y83421540D01*
X82452932Y83455781D01*
X82840117Y83513383D01*
X83102187Y83603876D01*
X83269449Y83736793D01*
X83372205Y83921665D01*
X83440763Y84168024D01*
X83511631Y84490682D01*
X84505411Y84490682D01*
X85499191Y84490682D01*
X85499191Y84149148D01*
X85529498Y83862357D01*
X85614514Y83592131D01*
X85618034Y83585662D01*
X85738728Y83457235D01*
X85957054Y83393717D01*
X86334717Y83376647D01*
X86352887Y83376668D01*
X86723300Y83395179D01*
X86936742Y83460846D01*
X87054920Y83592131D01*
X87097098Y83768911D01*
X87131671Y84128424D01*
X87154860Y84614418D01*
X87166664Y85177035D01*
X87167084Y85766420D01*
X87156120Y86332715D01*
X87133771Y86826064D01*
X87100038Y87196610D01*
X87054920Y87394497D01*
X87041358Y87418366D01*
X86974680Y87493788D01*
X86858736Y87546416D01*
X86658821Y87580300D01*
X86340228Y87599489D01*
X85868254Y87608033D01*
X85208193Y87609981D01*
X83476789Y87609981D01*
X83164688Y87297880D01*
X83129515Y87262875D01*
X82980956Y87130523D01*
X82828250Y87051882D01*
X82616804Y87016314D01*
X82292020Y87013181D01*
X81799305Y87031846D01*
X81393758Y87044678D01*
X80951378Y87035696D01*
X80638920Y86989233D01*
X80402361Y86900198D01*
X80166882Y86797401D01*
X79951210Y86788470D01*
X79663225Y86887723D01*
X79440111Y86955353D01*
X79019124Y87020782D01*
X78538619Y87049702D01*
X78068302Y87041404D01*
X77677880Y86995181D01*
X77437058Y86910326D01*
X77323901Y86777539D01*
X77272346Y86545980D01*
X76714675Y86545980D01*
X76722864Y86670702D01*
X76820832Y86930396D01*
X77030933Y87179915D01*
X77363553Y87512535D01*
X78618433Y87457816D01*
X78662288Y87455901D01*
X79241334Y87430500D01*
X79660817Y87413879D01*
X79980032Y87406412D01*
X80258273Y87408468D01*
X80554835Y87420421D01*
X80929010Y87442642D01*
X81440094Y87475501D01*
X81533637Y87481546D01*
X82057720Y87520998D01*
X82418367Y87566171D01*
X82667223Y87629528D01*
X82855933Y87723529D01*
X83036141Y87860639D01*
X83399619Y88166998D01*
X85230800Y88166998D01*
X87061981Y88166998D01*
X87391355Y87804937D01*
X87720730Y87442875D01*
X87723562Y85766420D01*
X87723995Y85510025D01*
G37*
G36*
X88707420Y92844880D02*
G01*
X88685329Y92240324D01*
X88650819Y91755373D01*
X88603859Y91441453D01*
X88501811Y91155718D01*
X88185558Y90637038D01*
X87746233Y90164046D01*
X87241826Y89806358D01*
X87100828Y89735573D01*
X86954075Y89679366D01*
X86774800Y89635993D01*
X86535820Y89603487D01*
X86209951Y89579878D01*
X85770011Y89563200D01*
X85188816Y89551486D01*
X84439183Y89542767D01*
X83493928Y89535076D01*
X82790659Y89530886D01*
X81869289Y89530846D01*
X81131037Y89540590D01*
X80551835Y89562316D01*
X80107616Y89598225D01*
X79774312Y89650518D01*
X79527855Y89721395D01*
X79344177Y89813056D01*
X79199211Y89927702D01*
X79064634Y90045044D01*
X78937161Y90064580D01*
X78765340Y89927118D01*
X78655148Y89840074D01*
X78216550Y89641482D01*
X77650807Y89535233D01*
X77019788Y89535219D01*
X76905132Y89545024D01*
X76523553Y89558028D01*
X76296295Y89503460D01*
X76170022Y89355691D01*
X76091401Y89089092D01*
X76077764Y89036731D01*
X75925430Y88704483D01*
X75698357Y88392669D01*
X75383201Y88055294D01*
X75708228Y87823854D01*
X75798535Y87757168D01*
X76012575Y87561940D01*
X76165511Y87332838D01*
X76267237Y87032136D01*
X76327648Y86622108D01*
X76356638Y86065028D01*
X76364103Y85323172D01*
X76364103Y84416528D01*
X76364103Y83693719D01*
X76038462Y83368078D01*
X75853315Y83201365D01*
X75655126Y83097597D01*
X75386557Y83052358D01*
X74971559Y83042437D01*
X74583970Y83050535D01*
X74306282Y83092015D01*
X74105194Y83190125D01*
X73904656Y83368078D01*
X73844914Y83432028D01*
X73651859Y83710100D01*
X73568968Y83952946D01*
X73558446Y84074921D01*
X73525182Y84068154D01*
X73456195Y83857121D01*
X73297250Y83540186D01*
X73050456Y83263717D01*
X72979905Y83210806D01*
X72831870Y83127566D01*
X72645014Y83076636D01*
X72373396Y83052420D01*
X71971076Y83049324D01*
X71392112Y83061752D01*
X70841286Y83080575D01*
X70413164Y83109115D01*
X70125892Y83152461D01*
X69936655Y83217311D01*
X69802635Y83310361D01*
X69642514Y83442410D01*
X69512941Y83452578D01*
X69334193Y83310361D01*
X69251713Y83245046D01*
X69052642Y83157541D01*
X68757513Y83119282D01*
X68303710Y83118619D01*
X68281441Y83119191D01*
X67895720Y83128694D01*
X67567078Y83135021D01*
X67255541Y83137846D01*
X66921134Y83136841D01*
X66523884Y83131682D01*
X66023816Y83122040D01*
X65380957Y83107590D01*
X64555331Y83088006D01*
X63850432Y83072286D01*
X63167165Y83062455D01*
X62651938Y83065680D01*
X62274697Y83084872D01*
X62005394Y83122938D01*
X61813978Y83182789D01*
X61670397Y83267334D01*
X61544603Y83379481D01*
X61520234Y83404790D01*
X61433631Y83527378D01*
X61376838Y83699664D01*
X61343787Y83964908D01*
X61328867Y84354367D01*
X61784538Y84354367D01*
X61819884Y84015701D01*
X61919555Y83778646D01*
X62109959Y83625679D01*
X62417505Y83539277D01*
X62868603Y83501917D01*
X63489662Y83496075D01*
X64307091Y83504229D01*
X64962639Y83515391D01*
X65566404Y83534554D01*
X66063703Y83559598D01*
X66415757Y83588560D01*
X66583785Y83619477D01*
X66650093Y83668276D01*
X66729823Y83824009D01*
X66778454Y84111299D01*
X66806592Y84575660D01*
X66815400Y84790058D01*
X66840439Y85144054D01*
X66884442Y85343988D01*
X66962513Y85437747D01*
X67089761Y85473211D01*
X67150068Y85480379D01*
X67256287Y85464182D01*
X67313223Y85362847D01*
X67336169Y85130493D01*
X67340419Y84721238D01*
X67343099Y84480164D01*
X67370736Y84115050D01*
X67439531Y83879383D01*
X67563226Y83710858D01*
X67729777Y83595677D01*
X68105117Y83496469D01*
X68518849Y83517200D01*
X68875280Y83661473D01*
X68884802Y83668209D01*
X69010379Y83785751D01*
X69082397Y83952363D01*
X69115135Y84225872D01*
X69122875Y84664105D01*
X69122875Y85493314D01*
X69568489Y85493314D01*
X70014103Y85493314D01*
X70015809Y84685639D01*
X70015910Y84660918D01*
X70032132Y84241153D01*
X70070316Y83900888D01*
X70122608Y83711733D01*
X70211328Y83639049D01*
X70426463Y83578427D01*
X70794644Y83538985D01*
X71350638Y83515157D01*
X71768343Y83507718D01*
X72267169Y83522425D01*
X72597951Y83581456D01*
X72793546Y83698401D01*
X72886808Y83886849D01*
X72910594Y84160391D01*
X72910594Y84602086D01*
X73523314Y84602086D01*
X74136033Y84602086D01*
X74137739Y84240025D01*
X74167536Y83939686D01*
X74237268Y83723497D01*
X74302682Y83668436D01*
X74549869Y83575545D01*
X74891052Y83515609D01*
X74919336Y83512946D01*
X75272491Y83500367D01*
X75501302Y83558557D01*
X75693424Y83708600D01*
X75791694Y83818910D01*
X75859010Y83946938D01*
X75898687Y84132372D01*
X75915668Y84416528D01*
X75914895Y84840721D01*
X75901311Y85446267D01*
X75862787Y86937523D01*
X75498583Y87301603D01*
X75134380Y87665682D01*
X73512033Y87665682D01*
X71889686Y87665682D01*
X71591259Y87331472D01*
X71292833Y86997261D01*
X68637497Y87030909D01*
X68052541Y87037410D01*
X67308896Y87041116D01*
X66743990Y87035988D01*
X66331067Y87020853D01*
X66043369Y86994538D01*
X65854140Y86955869D01*
X65736621Y86903672D01*
X65655688Y86854089D01*
X65454410Y86800811D01*
X65218162Y86893928D01*
X64950820Y86974837D01*
X64455607Y87029049D01*
X63749413Y87049015D01*
X63453348Y87049545D01*
X63014939Y87043402D01*
X62721144Y87018835D01*
X62520195Y86965192D01*
X62360325Y86871817D01*
X62189764Y86728059D01*
X61825945Y86403154D01*
X61796319Y85170185D01*
X61787107Y84812168D01*
X61784538Y84354367D01*
X61328867Y84354367D01*
X61328407Y84366371D01*
X61324629Y84947311D01*
X61330716Y85475241D01*
X61366321Y86055291D01*
X61445544Y86483585D01*
X61581677Y86801056D01*
X61788008Y87048636D01*
X62077827Y87267259D01*
X62184501Y87333269D01*
X62409364Y87439968D01*
X62671062Y87503017D01*
X63031529Y87534070D01*
X63552700Y87544779D01*
X63746716Y87545686D01*
X64294954Y87543982D01*
X64798397Y87536976D01*
X65168050Y87525719D01*
X65283565Y87522155D01*
X65654725Y87518384D01*
X66188046Y87518532D01*
X66843628Y87522412D01*
X67581574Y87529838D01*
X68361986Y87540624D01*
X69194575Y87554653D01*
X69839640Y87569234D01*
X70321987Y87587205D01*
X70671738Y87611486D01*
X70919017Y87645000D01*
X71093946Y87690669D01*
X71226649Y87751413D01*
X71347247Y87830154D01*
X71366552Y87843544D01*
X71733499Y88027680D01*
X72125781Y88135896D01*
X72555972Y88193597D01*
X72287669Y88698206D01*
X72194484Y88881979D01*
X72068679Y89167783D01*
X72019366Y89338933D01*
X71962305Y89405560D01*
X71707107Y89487250D01*
X71267392Y89551358D01*
X70879956Y89604796D01*
X70497509Y89686254D01*
X70249875Y89772595D01*
X70122163Y89832689D01*
X69911272Y89851385D01*
X69637156Y89744002D01*
X69501179Y89689302D01*
X69177903Y89621222D01*
X68712224Y89584755D01*
X68064542Y89575662D01*
X67701592Y89576946D01*
X67121199Y89578103D01*
X66602634Y89578143D01*
X66226384Y89577007D01*
X65691774Y89573981D01*
X64668736Y89570660D01*
X63843499Y89572038D01*
X63198901Y89578243D01*
X62717777Y89589403D01*
X62382963Y89605646D01*
X62141565Y89614140D01*
X61641464Y89602329D01*
X61157524Y89561965D01*
X60947367Y89541871D01*
X60306541Y89558234D01*
X59763156Y89690401D01*
X59369387Y89927702D01*
X59234810Y90045044D01*
X59107337Y90064580D01*
X58935516Y89927118D01*
X58790046Y89814085D01*
X58573542Y89709698D01*
X58280128Y89632525D01*
X57880658Y89578852D01*
X57345986Y89544964D01*
X56646967Y89527146D01*
X55754454Y89521683D01*
X55008627Y89524668D01*
X54274187Y89539657D01*
X53709790Y89570593D01*
X53286493Y89621171D01*
X52975354Y89695086D01*
X52747428Y89796031D01*
X52573773Y89927702D01*
X52440362Y90044214D01*
X52312499Y90064968D01*
X52141099Y89928233D01*
X52121329Y89910517D01*
X51764835Y89703935D01*
X51284276Y89559368D01*
X50769147Y89504462D01*
X50557742Y89491223D01*
X50433261Y89405035D01*
X50407085Y89184654D01*
X50341070Y88877831D01*
X50176193Y88571934D01*
X49945300Y88278402D01*
X50538254Y88259249D01*
X50858581Y88254108D01*
X51380428Y88257462D01*
X51886612Y88271344D01*
X52219710Y88275487D01*
X52781593Y88212550D01*
X53173842Y88046418D01*
X53418912Y87769739D01*
X53493971Y87650137D01*
X53602364Y87566569D01*
X53785996Y87521203D01*
X54094045Y87502530D01*
X54575691Y87499043D01*
X54631125Y87499131D01*
X55145054Y87511175D01*
X55517579Y87552754D01*
X55822945Y87637128D01*
X56135396Y87777552D01*
X56259705Y87839064D01*
X56464911Y87925862D01*
X56681582Y87985773D01*
X56951986Y88023749D01*
X57318388Y88044743D01*
X57823055Y88053707D01*
X58508253Y88055595D01*
X58845292Y88054541D01*
X59565960Y88040125D01*
X60107277Y88003605D01*
X60500216Y87938395D01*
X60775753Y87837907D01*
X60964862Y87695553D01*
X61098520Y87504748D01*
X61115395Y87455770D01*
X61154276Y87193977D01*
X61185284Y86769671D01*
X61205805Y86226099D01*
X61213226Y85606509D01*
X61212922Y85538067D01*
X61211419Y85199478D01*
X61193444Y84526279D01*
X61149017Y84028616D01*
X61069378Y83675119D01*
X60945764Y83434417D01*
X60769414Y83275141D01*
X60531566Y83165918D01*
X60122132Y83071635D01*
X59600168Y83058185D01*
X59105622Y83143139D01*
X58700586Y83314724D01*
X58447150Y83561165D01*
X58413553Y83617668D01*
X58328727Y83688822D01*
X58204487Y83632409D01*
X57982871Y83432349D01*
X57633738Y83098139D01*
X51764491Y83075048D01*
X51292067Y83073411D01*
X49884877Y83071585D01*
X48661900Y83074964D01*
X47629560Y83083453D01*
X46794281Y83096958D01*
X46162488Y83115384D01*
X45740605Y83138636D01*
X45535057Y83166621D01*
X45249003Y83289507D01*
X44996536Y83511636D01*
X44835548Y83846253D01*
X44750413Y84328627D01*
X44725507Y84994028D01*
X44725619Y84997810D01*
X45393928Y84997810D01*
X45393928Y83705343D01*
X45700287Y83586364D01*
X45786241Y83562078D01*
X46145632Y83522170D01*
X46691477Y83512705D01*
X47399191Y83534436D01*
X47425369Y83535694D01*
X47973328Y83560647D01*
X48449754Y83579912D01*
X48804317Y83591604D01*
X48986691Y83593840D01*
X49271100Y83583687D01*
X49980979Y83569027D01*
X50518489Y83575371D01*
X50594220Y83577838D01*
X50993755Y83582409D01*
X51409717Y83577646D01*
X51503077Y83575411D01*
X51930346Y83568494D01*
X52300945Y83566800D01*
X52529853Y83567350D01*
X52943191Y83567354D01*
X53462971Y83566754D01*
X54027700Y83565591D01*
X54532683Y83564893D01*
X55060257Y83565396D01*
X55488012Y83567107D01*
X55754454Y83569876D01*
X55932991Y83571485D01*
X56344573Y83568939D01*
X56780735Y83560643D01*
X56914413Y83557607D01*
X57217011Y83568037D01*
X57438571Y83634429D01*
X57658024Y83791239D01*
X57954298Y84072919D01*
X58096541Y84209140D01*
X58447681Y84494450D01*
X58689377Y84593763D01*
X58829383Y84508486D01*
X58875458Y84240025D01*
X58905256Y83939686D01*
X58974987Y83723497D01*
X59108271Y83621988D01*
X59410008Y83539388D01*
X59781882Y83514463D01*
X60141271Y83551241D01*
X60405550Y83653751D01*
X60456752Y83692552D01*
X60537954Y83778147D01*
X60593490Y83903809D01*
X60628222Y84106085D01*
X60647011Y84421521D01*
X60654719Y84886666D01*
X60656208Y85538067D01*
X60654104Y86142969D01*
X60644485Y86634893D01*
X60623423Y86972897D01*
X60587008Y87193203D01*
X60531330Y87332033D01*
X60452480Y87425609D01*
X60416700Y87454564D01*
X60282703Y87520224D01*
X60071481Y87564954D01*
X59746663Y87592396D01*
X59271875Y87606191D01*
X58610744Y87609981D01*
X58080718Y87605916D01*
X57416537Y87580506D01*
X56919875Y87526212D01*
X56557518Y87436623D01*
X56296255Y87305330D01*
X56102875Y87125922D01*
X56100720Y87123351D01*
X56000934Y87046132D01*
X55830523Y86993759D01*
X55551471Y86961816D01*
X55125760Y86945888D01*
X54515375Y86941560D01*
X53080770Y86941560D01*
X53080770Y87206428D01*
X53047659Y87393570D01*
X52918034Y87606355D01*
X52722867Y87712045D01*
X52335617Y87796181D01*
X51913327Y87795423D01*
X51559254Y87702468D01*
X51459981Y87656435D01*
X51213940Y87603684D01*
X50964103Y87687537D01*
X50847652Y87739052D01*
X50335460Y87825813D01*
X49801619Y87724141D01*
X49647963Y87648378D01*
X49559934Y87527334D01*
X49521815Y87303317D01*
X49512151Y86916466D01*
X49511467Y86803677D01*
X49503934Y86478188D01*
X49477914Y86333478D01*
X49418949Y86335884D01*
X49312582Y86451738D01*
X49246397Y86527423D01*
X49043962Y86705929D01*
X48796703Y86825564D01*
X48460246Y86897360D01*
X47990217Y86932348D01*
X47342243Y86941560D01*
X46858496Y86940404D01*
X46454680Y86930665D01*
X46186206Y86902844D01*
X46005747Y86847445D01*
X45865977Y86754969D01*
X45719569Y86615919D01*
X45599807Y86491712D01*
X45500225Y86353835D01*
X45439396Y86182958D01*
X45407769Y85931629D01*
X45395796Y85552397D01*
X45393928Y84997810D01*
X44725619Y84997810D01*
X44741611Y85539887D01*
X44823864Y86122110D01*
X44992016Y86561375D01*
X45263993Y86899695D01*
X45657718Y87179085D01*
X45754378Y87232715D01*
X45962449Y87327263D01*
X46193117Y87388469D01*
X46496423Y87423417D01*
X46922403Y87439191D01*
X47521095Y87442875D01*
X47911821Y87443761D01*
X48376482Y87451367D01*
X48681681Y87471617D01*
X48866314Y87510256D01*
X48969279Y87573029D01*
X49029469Y87665682D01*
X49060657Y87741051D01*
X49054873Y87810184D01*
X48964302Y87850429D01*
X48754468Y87867174D01*
X48390898Y87865806D01*
X47839116Y87851714D01*
X47573220Y87845907D01*
X46621377Y87864337D01*
X45849899Y87957616D01*
X45231866Y88135845D01*
X44740359Y88409125D01*
X44348455Y88787557D01*
X44029235Y89281242D01*
X43722875Y89863494D01*
X43722875Y92400332D01*
X44502700Y92400332D01*
X44502744Y92275599D01*
X44507718Y91414252D01*
X44526012Y90741445D01*
X44564839Y90226836D01*
X44631412Y89840080D01*
X44732946Y89550835D01*
X44876653Y89328758D01*
X45069747Y89143504D01*
X45319441Y88964732D01*
X45421540Y88898365D01*
X45590704Y88803799D01*
X45772103Y88739490D01*
X46007849Y88699612D01*
X46340058Y88678341D01*
X46810842Y88669850D01*
X47462316Y88668314D01*
X47757372Y88668725D01*
X48428134Y88678798D01*
X48915832Y88713941D01*
X49249577Y88789331D01*
X49458481Y88920142D01*
X49571655Y89121550D01*
X49618211Y89408730D01*
X49627261Y89796858D01*
X49627261Y90500957D01*
X49913022Y90392311D01*
X50158115Y90326834D01*
X50638775Y90287739D01*
X51126510Y90328788D01*
X51512493Y90446309D01*
X51680626Y90551672D01*
X51805917Y90696230D01*
X51888178Y90912965D01*
X51936253Y91239502D01*
X51958983Y91713466D01*
X51965213Y92372481D01*
X51966735Y93625770D01*
X52356647Y93625770D01*
X52746559Y93625770D01*
X52746559Y92351882D01*
X52749689Y91920366D01*
X52772843Y91358682D01*
X52826622Y90962975D01*
X52920491Y90698067D01*
X53063913Y90528781D01*
X53266354Y90419941D01*
X53266841Y90419754D01*
X53497785Y90376112D01*
X53906651Y90342172D01*
X54448938Y90317935D01*
X55080144Y90303400D01*
X55755766Y90298567D01*
X56431303Y90303437D01*
X57062252Y90318009D01*
X57604112Y90342284D01*
X58012379Y90376261D01*
X58242554Y90419941D01*
X58371681Y90479991D01*
X58537560Y90620894D01*
X58650102Y90843357D01*
X58718771Y91182559D01*
X58753032Y91673675D01*
X58762349Y92351882D01*
X58762349Y93625770D01*
X59152261Y93625770D01*
X59542173Y93625770D01*
X59542173Y92351882D01*
X59546178Y91865687D01*
X59571104Y91322843D01*
X59627797Y90941030D01*
X59726447Y90683942D01*
X59877245Y90515273D01*
X60090381Y90398717D01*
X60355840Y90328962D01*
X60776864Y90298855D01*
X61219295Y90327514D01*
X61602932Y90408672D01*
X61847575Y90536059D01*
X61959330Y90631933D01*
X62096604Y90646003D01*
X62310484Y90526424D01*
X62349774Y90502456D01*
X62514980Y90434157D01*
X62752103Y90387294D01*
X63098838Y90358271D01*
X63592880Y90343494D01*
X64271923Y90339367D01*
X64961117Y90347249D01*
X65544592Y90371898D01*
X65952337Y90411786D01*
X66160978Y90465354D01*
X66231871Y90500912D01*
X66456106Y90524633D01*
X66773697Y90424053D01*
X67054036Y90345479D01*
X67556728Y90292100D01*
X68135305Y90294901D01*
X68715917Y90349386D01*
X69224716Y90451057D01*
X69587854Y90595418D01*
X69964189Y90828006D01*
X70331248Y90595601D01*
X70475833Y90516331D01*
X70770779Y90416688D01*
X71176453Y90351105D01*
X71748749Y90308251D01*
X72799191Y90253306D01*
X72799191Y89830124D01*
X72799906Y89758632D01*
X72865679Y89261956D01*
X73048956Y88931386D01*
X73364877Y88737687D01*
X73523196Y88692401D01*
X73998056Y88628635D01*
X74487973Y88639115D01*
X74880724Y88724793D01*
X75143122Y88910208D01*
X75308738Y89255660D01*
X75361471Y89775025D01*
X75361471Y90283665D01*
X75890638Y90301335D01*
X76040121Y90304839D01*
X76528424Y90304448D01*
X76999222Y90290897D01*
X77357098Y90291030D01*
X77887996Y90372703D01*
X78276409Y90547386D01*
X78487679Y90803153D01*
X78523325Y90973697D01*
X78558978Y91335398D01*
X78583225Y91814029D01*
X78592173Y92351882D01*
X78592173Y93625770D01*
X78982085Y93625770D01*
X79371998Y93625770D01*
X79371998Y92351882D01*
X79377461Y91792889D01*
X79405251Y91267386D01*
X79466017Y90901612D01*
X79570138Y90660781D01*
X79727992Y90510111D01*
X79949957Y90414818D01*
X80054285Y90393340D01*
X80398834Y90358671D01*
X80907139Y90330819D01*
X81540893Y90309866D01*
X82261787Y90295895D01*
X83031515Y90288988D01*
X83811769Y90289230D01*
X84564241Y90296703D01*
X85250624Y90311490D01*
X85832609Y90333673D01*
X86271890Y90363337D01*
X86530158Y90400563D01*
X86985633Y90589772D01*
X87468002Y90976363D01*
X87798454Y91481913D01*
X87806424Y91502361D01*
X87864702Y91787390D01*
X87907487Y92240224D01*
X87934921Y92812202D01*
X87947147Y93454659D01*
X87944308Y94118934D01*
X87926545Y94756362D01*
X87894003Y95318283D01*
X87846822Y95756031D01*
X87785147Y96020946D01*
X87523214Y96436919D01*
X87081835Y96826425D01*
X86557524Y97068278D01*
X86332581Y97104151D01*
X85911603Y97138516D01*
X85350399Y97165651D01*
X84692173Y97183513D01*
X83980127Y97190061D01*
X83510190Y97191338D01*
X82824136Y97200125D01*
X82313421Y97219023D01*
X81947640Y97250103D01*
X81696385Y97295439D01*
X81529249Y97357101D01*
X81227866Y97460981D01*
X80736863Y97517429D01*
X80233640Y97484628D01*
X79826239Y97362249D01*
X79647966Y97240113D01*
X79441446Y96917205D01*
X79373519Y96438709D01*
X79372908Y96405872D01*
X79346510Y96285917D01*
X79245052Y96220220D01*
X79019301Y96192229D01*
X78620024Y96185393D01*
X78238416Y96173848D01*
X77787368Y96137611D01*
X77450287Y96085722D01*
X77032524Y95988708D01*
X77032524Y96465950D01*
X77007697Y96785915D01*
X76856699Y97159052D01*
X76549389Y97388063D01*
X76063649Y97496475D01*
X75844524Y97510718D01*
X75254909Y97458524D01*
X74824154Y97262867D01*
X74560014Y96928786D01*
X74470243Y96461318D01*
X74470243Y96188051D01*
X72882743Y96185393D01*
X72724994Y96184666D01*
X72120110Y96173658D01*
X71574149Y96151688D01*
X71141731Y96121471D01*
X70877480Y96085722D01*
X70459717Y95988708D01*
X70459717Y96465950D01*
X70434890Y96785915D01*
X70283892Y97159052D01*
X69976582Y97388063D01*
X69490842Y97496475D01*
X69271717Y97510718D01*
X68682102Y97458524D01*
X68251347Y97262867D01*
X67987207Y96928786D01*
X67897436Y96461318D01*
X67896968Y96424506D01*
X67860729Y96268202D01*
X67723311Y96195163D01*
X67423971Y96167722D01*
X67229871Y96162707D01*
X66773977Y96164004D01*
X66314870Y96177990D01*
X66060117Y96183085D01*
X65466099Y96120552D01*
X65038491Y95950389D01*
X64794552Y95678271D01*
X64754324Y95529387D01*
X64708631Y95171078D01*
X64677951Y94683826D01*
X64666735Y94121844D01*
X64666735Y92845946D01*
X64276822Y92845946D01*
X63886910Y92845946D01*
X63886910Y94190112D01*
X63878835Y94715761D01*
X63855891Y95191647D01*
X63821668Y95548511D01*
X63779764Y95734482D01*
X63770208Y95751837D01*
X63673745Y95879757D01*
X63529750Y95979585D01*
X63313200Y96054333D01*
X62999071Y96107012D01*
X62562340Y96140632D01*
X61977983Y96158206D01*
X61220976Y96162743D01*
X60266296Y96157256D01*
X59591490Y96149535D01*
X58770463Y96133147D01*
X58141906Y96109917D01*
X57687767Y96078844D01*
X57389999Y96038930D01*
X57230550Y95989175D01*
X57107963Y95925023D01*
X57019320Y95929487D01*
X56985376Y96071864D01*
X56979892Y96394597D01*
X56944210Y96819213D01*
X56789480Y97179121D01*
X56487347Y97394717D01*
X56011018Y97496475D01*
X55796142Y97510509D01*
X55206699Y97458958D01*
X54774390Y97264878D01*
X54508324Y96934125D01*
X54417612Y96472551D01*
X54417612Y96210516D01*
X52551603Y96171433D01*
X52183991Y96163329D01*
X51584292Y96145838D01*
X51148756Y96122655D01*
X50838093Y96088594D01*
X50613016Y96038470D01*
X50434234Y95967095D01*
X50262460Y95869286D01*
X50172948Y95814330D01*
X49937113Y95691622D01*
X49787726Y95683054D01*
X49649741Y95777366D01*
X49329672Y95964120D01*
X48783507Y96103129D01*
X48032908Y96170972D01*
X47074346Y96168183D01*
X46899919Y96161737D01*
X46371112Y96135829D01*
X45999553Y96099641D01*
X45733513Y96043257D01*
X45521259Y95956764D01*
X45311060Y95830246D01*
X45280812Y95810108D01*
X45040148Y95633474D01*
X44854732Y95446102D01*
X44717425Y95217706D01*
X44621089Y94918000D01*
X44558587Y94516696D01*
X44522780Y93983508D01*
X44506530Y93288148D01*
X44502700Y92400332D01*
X43722875Y92400332D01*
X43722875Y94937170D01*
X44029235Y95519421D01*
X44103343Y95652345D01*
X44562586Y96230569D01*
X45157131Y96633782D01*
X45895243Y96867957D01*
X45950701Y96877709D01*
X46429658Y96930413D01*
X47011693Y96954283D01*
X47642582Y96951526D01*
X48268102Y96924351D01*
X48834030Y96874962D01*
X49286143Y96805568D01*
X49570218Y96718376D01*
X49781913Y96621341D01*
X49983291Y96609790D01*
X50238639Y96720109D01*
X50258709Y96730187D01*
X50504587Y96810072D01*
X50883888Y96870356D01*
X51426345Y96914534D01*
X52161691Y96946100D01*
X52721405Y96966929D01*
X53211496Y96996258D01*
X53528187Y97033482D01*
X53698432Y97081982D01*
X53749191Y97145136D01*
X53764417Y97206265D01*
X53887435Y97421905D01*
X54093578Y97686568D01*
X54174012Y97772274D01*
X54649720Y98102417D01*
X55254955Y98267493D01*
X56004485Y98272025D01*
X56166340Y98254145D01*
X56796907Y98094890D01*
X57266313Y97799270D01*
X57595458Y97355239D01*
X57821111Y96912174D01*
X60659055Y96912174D01*
X61046006Y96912084D01*
X61832819Y96910382D01*
X62438535Y96904758D01*
X62892622Y96892953D01*
X63224553Y96872707D01*
X63463795Y96841761D01*
X63639820Y96797856D01*
X63782097Y96738730D01*
X63920096Y96662125D01*
X64343194Y96412076D01*
X64681342Y96662125D01*
X64682551Y96663018D01*
X64891725Y96790615D01*
X65137116Y96869228D01*
X65480836Y96911654D01*
X65984998Y96930688D01*
X66009941Y96931165D01*
X66542351Y96941702D01*
X66891895Y96953109D01*
X67096954Y96971569D01*
X67195908Y97003267D01*
X67227135Y97054384D01*
X67229015Y97131104D01*
X67251441Y97242627D01*
X67419235Y97517090D01*
X67702370Y97805092D01*
X68042449Y98052242D01*
X68381078Y98204148D01*
X68402953Y98209904D01*
X68921127Y98280169D01*
X69502990Y98263767D01*
X70055831Y98169427D01*
X70486941Y98005878D01*
X70534657Y97976021D01*
X70826940Y97709944D01*
X71053760Y97382537D01*
X71257892Y96967875D01*
X72529857Y96967875D01*
X72936151Y96969985D01*
X73366132Y96982750D01*
X73630960Y97010935D01*
X73764801Y97058925D01*
X73801822Y97131104D01*
X73824248Y97242627D01*
X73992042Y97517090D01*
X74275177Y97805092D01*
X74615256Y98052242D01*
X74953885Y98204148D01*
X74977318Y98210303D01*
X75496336Y98280370D01*
X76077974Y98263507D01*
X76629892Y98168486D01*
X77059748Y98004080D01*
X77110565Y97972018D01*
X77407528Y97705883D01*
X77645243Y97381041D01*
X77807067Y97125029D01*
X77987315Y96998810D01*
X78257963Y96971050D01*
X78517895Y96998171D01*
X78688239Y97117880D01*
X78839626Y97390451D01*
X78866920Y97445312D01*
X79099828Y97771118D01*
X79377324Y98011634D01*
X79793230Y98177886D01*
X80378801Y98272858D01*
X81013331Y98266997D01*
X81615323Y98155079D01*
X81618905Y98154014D01*
X81926330Y98084152D01*
X82338261Y98030193D01*
X82884246Y97989951D01*
X83593829Y97961238D01*
X84496559Y97941869D01*
X84570567Y97940729D01*
X85334057Y97927048D01*
X85912391Y97910608D01*
X86340285Y97887896D01*
X86652458Y97855399D01*
X86883627Y97809604D01*
X87068511Y97746997D01*
X87241826Y97664066D01*
X87542900Y97473638D01*
X88010879Y97047345D01*
X88383080Y96546928D01*
X88600936Y96042277D01*
X88632750Y95861799D01*
X88672259Y95430617D01*
X88699513Y94861908D01*
X88714480Y94207098D01*
X88717126Y93517613D01*
X88716218Y93454659D01*
X88707420Y92844880D01*
G37*
D14*
G04 #@! TO.C,L2*
X89800000Y85172779D02*
X89800000Y84847221D01*
X90820000Y85172779D02*
X90820000Y84847221D01*
D13*
G04 #@! TO.C,C16*
X49910000Y9510000D02*
X50910000Y9510000D01*
G04 #@! TO.C,C22*
X52910000Y5510000D02*
X51910000Y5510000D01*
D18*
G04 #@! TO.C,R8*
X86939160Y4187262D02*
X86939149Y4587261D01*
X87684995Y4188318D02*
X87684985Y4588318D01*
G04 #@! TO.C,R3*
X51439160Y17808944D02*
X51439149Y18208943D01*
X52184995Y17810000D02*
X52184985Y18210000D01*
G04 #@! TO.C,R15*
X37939160Y89658944D02*
X37939149Y90058943D01*
X38684995Y89660000D02*
X38684985Y90060000D01*
G04 #@! TO.C,R13*
X51756673Y27298944D02*
X51756662Y27698943D01*
X52502508Y27300000D02*
X52502498Y27700000D01*
G04 #@! TO.C,R11*
X47506456Y62350851D02*
X47106457Y62350840D01*
X47507513Y61605015D02*
X47107513Y61605005D01*
D14*
G04 #@! TO.C,D3*
X40387513Y60130000D02*
X40387513Y64030000D01*
D12*
X41037513Y62130000D02*
X41737513Y62130000D01*
X41037513Y61430000D02*
X41387513Y62130000D01*
X41037513Y61430000D02*
X41737513Y61430000D01*
X41387513Y62130000D02*
X41387513Y62330000D01*
X41387513Y61130000D02*
X41387513Y61430000D01*
X41737513Y61430000D02*
X41387513Y62130000D01*
D14*
X42387513Y64030000D02*
X40387513Y64030000D01*
X42387513Y60130000D02*
X42387513Y64030000D01*
D13*
G04 #@! TO.C,C5*
X47435000Y18970000D02*
X48435000Y18970000D01*
D18*
G04 #@! TO.C,R32*
X40146457Y44540840D02*
X40546456Y44540851D01*
X40147513Y43795005D02*
X40547513Y43795015D01*
D13*
G04 #@! TO.C,C28*
X89610000Y82260014D02*
X89610000Y83009999D01*
D14*
G04 #@! TO.C,U6*
X37685000Y84285000D02*
X37685000Y87735000D01*
X37685000Y84285000D02*
X37685000Y82335000D01*
X42805000Y84285000D02*
X42805000Y86235000D01*
X42805000Y84285000D02*
X42805000Y82335000D01*
D18*
G04 #@! TO.C,R29*
X46087513Y41254995D02*
X45687513Y41254985D01*
X46088569Y40509160D02*
X45688570Y40509149D01*
D14*
G04 #@! TO.C,L1*
X91800000Y85172779D02*
X91800000Y84847221D01*
X92820000Y85172779D02*
X92820000Y84847221D01*
D13*
G04 #@! TO.C,C15*
X47910000Y9510000D02*
X48910000Y9510000D01*
G04 #@! TO.C,C8*
X44435000Y14970000D02*
X43435000Y14970000D01*
G04 #@! TO.C,C9*
X46435000Y14970000D02*
X45435000Y14970000D01*
G04 #@! TO.C,C6*
X40435000Y14970000D02*
X39435000Y14970000D01*
D14*
G04 #@! TO.C,D5*
X38042513Y30100000D02*
X38042513Y28100000D01*
D12*
X39942513Y29100000D02*
X39742513Y29100000D01*
X39942513Y28750000D02*
X39942513Y29450000D01*
X40642513Y29450000D02*
X39942513Y29100000D01*
X40642513Y28750000D02*
X39942513Y29100000D01*
X40642513Y28750000D02*
X40642513Y29450000D01*
X40942513Y29100000D02*
X40642513Y29100000D01*
D14*
X41942513Y30100000D02*
X38042513Y30100000D01*
X41942513Y28100000D02*
X38042513Y28100000D01*
D13*
G04 #@! TO.C,C2*
X41435000Y18970000D02*
X42435000Y18970000D01*
G04 #@! TO.C,C18*
X53910000Y9510000D02*
X54910000Y9510000D01*
D18*
G04 #@! TO.C,R12*
X51756673Y30798944D02*
X51756662Y31198943D01*
X52502508Y30800000D02*
X52502498Y31200000D01*
D13*
G04 #@! TO.C,C20*
X48910000Y5510000D02*
X47910000Y5510000D01*
D18*
G04 #@! TO.C,R5*
X92335005Y62010000D02*
X92335015Y61610000D01*
X93080840Y62011056D02*
X93080851Y61611057D01*
G04 #@! TO.C,R6*
X113035005Y71010000D02*
X113035015Y70610000D01*
X113780840Y71011056D02*
X113780851Y70611057D01*
G04 #@! TO.C,R2*
X51439160Y20808944D02*
X51439149Y21208943D01*
X52184995Y20810000D02*
X52184985Y21210000D01*
D14*
G04 #@! TO.C,U8*
X47627513Y32560000D02*
X45677513Y32560000D01*
X47627513Y32560000D02*
X51077513Y32560000D01*
X47627513Y27440000D02*
X45677513Y27440000D01*
X47627513Y27440000D02*
X49577513Y27440000D01*
G04 #@! TD*
M02*
