G04 #@! TF.GenerationSoftware,KiCad,Pcbnew,8.0.9-8.0.9-0~ubuntu24.04.1*
G04 #@! TF.CreationDate,2025-10-26T12:47:24+00:00*
G04 #@! TF.ProjectId,uaefi,75616566-692e-46b6-9963-61645f706362,E*
G04 #@! TF.SameCoordinates,Original*
G04 #@! TF.FileFunction,Legend,Top*
G04 #@! TF.FilePolarity,Positive*
%FSLAX46Y46*%
G04 Gerber Fmt 4.6, Leading zero omitted, Abs format (unit mm)*
G04 Created by KiCad (PCBNEW 8.0.9-8.0.9-0~ubuntu24.04.1) date 2025-10-26 12:47:24*
%MOMM*%
%LPD*%
G01*
G04 APERTURE LIST*
%ADD10C,0.170000*%
%ADD11C,0.200000*%
%ADD12C,0.150000*%
%ADD13C,0.250000*%
%ADD14C,0.127000*%
%ADD15C,0.304800*%
%ADD16C,0.120000*%
%ADD17C,0.500000*%
%ADD18C,0.203200*%
%ADD19C,0.631031*%
%ADD20C,0.099060*%
%ADD21C,0.381000*%
G04 APERTURE END LIST*
D10*
X92981284Y83920414D02*
X93020332Y84037557D01*
X93020332Y84037557D02*
X93059380Y84076604D01*
X93059380Y84076604D02*
X93137475Y84115652D01*
X93137475Y84115652D02*
X93254618Y84115652D01*
X93254618Y84115652D02*
X93332713Y84076604D01*
X93332713Y84076604D02*
X93371761Y84037557D01*
X93371761Y84037557D02*
X93410808Y83959462D01*
X93410808Y83959462D02*
X93410808Y83647081D01*
X93410808Y83647081D02*
X92590808Y83647081D01*
X92590808Y83647081D02*
X92590808Y83920414D01*
X92590808Y83920414D02*
X92629856Y83998509D01*
X92629856Y83998509D02*
X92668903Y84037557D01*
X92668903Y84037557D02*
X92746999Y84076604D01*
X92746999Y84076604D02*
X92825094Y84076604D01*
X92825094Y84076604D02*
X92903189Y84037557D01*
X92903189Y84037557D02*
X92942237Y83998509D01*
X92942237Y83998509D02*
X92981284Y83920414D01*
X92981284Y83920414D02*
X92981284Y83647081D01*
X92590808Y84467081D02*
X93254618Y84467081D01*
X93254618Y84467081D02*
X93332713Y84506128D01*
X93332713Y84506128D02*
X93371761Y84545176D01*
X93371761Y84545176D02*
X93410808Y84623271D01*
X93410808Y84623271D02*
X93410808Y84779462D01*
X93410808Y84779462D02*
X93371761Y84857557D01*
X93371761Y84857557D02*
X93332713Y84896604D01*
X93332713Y84896604D02*
X93254618Y84935652D01*
X93254618Y84935652D02*
X92590808Y84935652D01*
X92590808Y85208986D02*
X92590808Y85677557D01*
X93410808Y85443271D02*
X92590808Y85443271D01*
X92590808Y85833748D02*
X92590808Y86302319D01*
X93410808Y86068033D02*
X92590808Y86068033D01*
X92590808Y86731843D02*
X92590808Y86888034D01*
X92590808Y86888034D02*
X92629856Y86966129D01*
X92629856Y86966129D02*
X92707951Y87044224D01*
X92707951Y87044224D02*
X92864141Y87083272D01*
X92864141Y87083272D02*
X93137475Y87083272D01*
X93137475Y87083272D02*
X93293665Y87044224D01*
X93293665Y87044224D02*
X93371761Y86966129D01*
X93371761Y86966129D02*
X93410808Y86888034D01*
X93410808Y86888034D02*
X93410808Y86731843D01*
X93410808Y86731843D02*
X93371761Y86653748D01*
X93371761Y86653748D02*
X93293665Y86575653D01*
X93293665Y86575653D02*
X93137475Y86536605D01*
X93137475Y86536605D02*
X92864141Y86536605D01*
X92864141Y86536605D02*
X92707951Y86575653D01*
X92707951Y86575653D02*
X92629856Y86653748D01*
X92629856Y86653748D02*
X92590808Y86731843D01*
X93410808Y87434701D02*
X92590808Y87434701D01*
X92590808Y87434701D02*
X93410808Y87903272D01*
X93410808Y87903272D02*
X92590808Y87903272D01*
X93410808Y89348034D02*
X93410808Y88879463D01*
X93410808Y89113749D02*
X92590808Y89113749D01*
X92590808Y89113749D02*
X92707951Y89035653D01*
X92707951Y89035653D02*
X92786046Y88957558D01*
X92786046Y88957558D02*
X92825094Y88879463D01*
D11*
X114416836Y13612944D02*
X114283503Y13684373D01*
X114283503Y13684373D02*
X114083503Y13684373D01*
X114083503Y13684373D02*
X113883503Y13612944D01*
X113883503Y13612944D02*
X113750170Y13470087D01*
X113750170Y13470087D02*
X113683503Y13327230D01*
X113683503Y13327230D02*
X113616836Y13041516D01*
X113616836Y13041516D02*
X113616836Y12827230D01*
X113616836Y12827230D02*
X113683503Y12541516D01*
X113683503Y12541516D02*
X113750170Y12398659D01*
X113750170Y12398659D02*
X113883503Y12255801D01*
X113883503Y12255801D02*
X114083503Y12184373D01*
X114083503Y12184373D02*
X114216836Y12184373D01*
X114216836Y12184373D02*
X114416836Y12255801D01*
X114416836Y12255801D02*
X114483503Y12327230D01*
X114483503Y12327230D02*
X114483503Y12827230D01*
X114483503Y12827230D02*
X114216836Y12827230D01*
X114416836Y11198028D02*
X114283503Y11269457D01*
X114283503Y11269457D02*
X114083503Y11269457D01*
X114083503Y11269457D02*
X113883503Y11198028D01*
X113883503Y11198028D02*
X113750170Y11055171D01*
X113750170Y11055171D02*
X113683503Y10912314D01*
X113683503Y10912314D02*
X113616836Y10626600D01*
X113616836Y10626600D02*
X113616836Y10412314D01*
X113616836Y10412314D02*
X113683503Y10126600D01*
X113683503Y10126600D02*
X113750170Y9983743D01*
X113750170Y9983743D02*
X113883503Y9840885D01*
X113883503Y9840885D02*
X114083503Y9769457D01*
X114083503Y9769457D02*
X114216836Y9769457D01*
X114216836Y9769457D02*
X114416836Y9840885D01*
X114416836Y9840885D02*
X114483503Y9912314D01*
X114483503Y9912314D02*
X114483503Y10412314D01*
X114483503Y10412314D02*
X114216836Y10412314D01*
X113683503Y7925969D02*
X114750170Y7925969D01*
X114216836Y7354541D02*
X114216836Y8497398D01*
X113683503Y5511053D02*
X114750170Y5511053D01*
X113483503Y4024709D02*
X113950170Y2524709D01*
X113950170Y2524709D02*
X114416836Y4024709D01*
D12*
X113219266Y27680041D02*
X113219266Y26870518D01*
X113219266Y26870518D02*
X113266885Y26775280D01*
X113266885Y26775280D02*
X113314504Y26727660D01*
X113314504Y26727660D02*
X113409742Y26680041D01*
X113409742Y26680041D02*
X113600218Y26680041D01*
X113600218Y26680041D02*
X113695456Y26727660D01*
X113695456Y26727660D02*
X113743075Y26775280D01*
X113743075Y26775280D02*
X113790694Y26870518D01*
X113790694Y26870518D02*
X113790694Y27680041D01*
X114219266Y26965756D02*
X114695456Y26965756D01*
X114124028Y26680041D02*
X114457361Y27680041D01*
X114457361Y27680041D02*
X114790694Y26680041D01*
X115695456Y26680041D02*
X115362123Y27156232D01*
X115124028Y26680041D02*
X115124028Y27680041D01*
X115124028Y27680041D02*
X115504980Y27680041D01*
X115504980Y27680041D02*
X115600218Y27632422D01*
X115600218Y27632422D02*
X115647837Y27584803D01*
X115647837Y27584803D02*
X115695456Y27489565D01*
X115695456Y27489565D02*
X115695456Y27346708D01*
X115695456Y27346708D02*
X115647837Y27251470D01*
X115647837Y27251470D02*
X115600218Y27203851D01*
X115600218Y27203851D02*
X115504980Y27156232D01*
X115504980Y27156232D02*
X115124028Y27156232D01*
X115981171Y27680041D02*
X116552599Y27680041D01*
X116266885Y26680041D02*
X116266885Y27680041D01*
X116838314Y27584803D02*
X116885933Y27632422D01*
X116885933Y27632422D02*
X116981171Y27680041D01*
X116981171Y27680041D02*
X117219266Y27680041D01*
X117219266Y27680041D02*
X117314504Y27632422D01*
X117314504Y27632422D02*
X117362123Y27584803D01*
X117362123Y27584803D02*
X117409742Y27489565D01*
X117409742Y27489565D02*
X117409742Y27394327D01*
X117409742Y27394327D02*
X117362123Y27251470D01*
X117362123Y27251470D02*
X116790695Y26680041D01*
X116790695Y26680041D02*
X117409742Y26680041D01*
X113790694Y23460153D02*
X113457361Y23936344D01*
X113219266Y23460153D02*
X113219266Y24460153D01*
X113219266Y24460153D02*
X113600218Y24460153D01*
X113600218Y24460153D02*
X113695456Y24412534D01*
X113695456Y24412534D02*
X113743075Y24364915D01*
X113743075Y24364915D02*
X113790694Y24269677D01*
X113790694Y24269677D02*
X113790694Y24126820D01*
X113790694Y24126820D02*
X113743075Y24031582D01*
X113743075Y24031582D02*
X113695456Y23983963D01*
X113695456Y23983963D02*
X113600218Y23936344D01*
X113600218Y23936344D02*
X113219266Y23936344D01*
X114124028Y24460153D02*
X114790694Y23460153D01*
X114790694Y24460153D02*
X114124028Y23460153D01*
X113076409Y19630321D02*
X113647837Y19630321D01*
X113362123Y18630321D02*
X113362123Y19630321D01*
X113885933Y19630321D02*
X114552599Y18630321D01*
X114552599Y19630321D02*
X113885933Y18630321D01*
D10*
X97467080Y89789192D02*
X97467080Y89125382D01*
X97467080Y89125382D02*
X97506127Y89047287D01*
X97506127Y89047287D02*
X97545175Y89008239D01*
X97545175Y89008239D02*
X97623270Y88969192D01*
X97623270Y88969192D02*
X97779461Y88969192D01*
X97779461Y88969192D02*
X97857556Y89008239D01*
X97857556Y89008239D02*
X97896603Y89047287D01*
X97896603Y89047287D02*
X97935651Y89125382D01*
X97935651Y89125382D02*
X97935651Y89789192D01*
X98326128Y88969192D02*
X98326128Y89789192D01*
X98326128Y89789192D02*
X98638509Y89789192D01*
X98638509Y89789192D02*
X98716604Y89750144D01*
X98716604Y89750144D02*
X98755651Y89711097D01*
X98755651Y89711097D02*
X98794699Y89633001D01*
X98794699Y89633001D02*
X98794699Y89515859D01*
X98794699Y89515859D02*
X98755651Y89437763D01*
X98755651Y89437763D02*
X98716604Y89398716D01*
X98716604Y89398716D02*
X98638509Y89359668D01*
X98638509Y89359668D02*
X98326128Y89359668D01*
D12*
X71609605Y42819412D02*
X72609605Y43152745D01*
X72609605Y43152745D02*
X71609605Y43486078D01*
X72609605Y44390840D02*
X72133414Y44057507D01*
X72609605Y43819412D02*
X71609605Y43819412D01*
X71609605Y43819412D02*
X71609605Y44200364D01*
X71609605Y44200364D02*
X71657224Y44295602D01*
X71657224Y44295602D02*
X71704843Y44343221D01*
X71704843Y44343221D02*
X71800081Y44390840D01*
X71800081Y44390840D02*
X71942938Y44390840D01*
X71942938Y44390840D02*
X72038176Y44343221D01*
X72038176Y44343221D02*
X72085795Y44295602D01*
X72085795Y44295602D02*
X72133414Y44200364D01*
X72133414Y44200364D02*
X72133414Y43819412D01*
X74219549Y41057507D02*
X74219549Y41247983D01*
X74219549Y41247983D02*
X74171930Y41343221D01*
X74171930Y41343221D02*
X74124310Y41390840D01*
X74124310Y41390840D02*
X73981453Y41486078D01*
X73981453Y41486078D02*
X73790977Y41533697D01*
X73790977Y41533697D02*
X73410025Y41533697D01*
X73410025Y41533697D02*
X73314787Y41486078D01*
X73314787Y41486078D02*
X73267168Y41438459D01*
X73267168Y41438459D02*
X73219549Y41343221D01*
X73219549Y41343221D02*
X73219549Y41152745D01*
X73219549Y41152745D02*
X73267168Y41057507D01*
X73267168Y41057507D02*
X73314787Y41009888D01*
X73314787Y41009888D02*
X73410025Y40962269D01*
X73410025Y40962269D02*
X73648120Y40962269D01*
X73648120Y40962269D02*
X73743358Y41009888D01*
X73743358Y41009888D02*
X73790977Y41057507D01*
X73790977Y41057507D02*
X73838596Y41152745D01*
X73838596Y41152745D02*
X73838596Y41343221D01*
X73838596Y41343221D02*
X73790977Y41438459D01*
X73790977Y41438459D02*
X73743358Y41486078D01*
X73743358Y41486078D02*
X73648120Y41533697D01*
X74219549Y42009888D02*
X74219549Y42200364D01*
X74219549Y42200364D02*
X74171930Y42295602D01*
X74171930Y42295602D02*
X74124310Y42343221D01*
X74124310Y42343221D02*
X73981453Y42438459D01*
X73981453Y42438459D02*
X73790977Y42486078D01*
X73790977Y42486078D02*
X73410025Y42486078D01*
X73410025Y42486078D02*
X73314787Y42438459D01*
X73314787Y42438459D02*
X73267168Y42390840D01*
X73267168Y42390840D02*
X73219549Y42295602D01*
X73219549Y42295602D02*
X73219549Y42105126D01*
X73219549Y42105126D02*
X73267168Y42009888D01*
X73267168Y42009888D02*
X73314787Y41962269D01*
X73314787Y41962269D02*
X73410025Y41914650D01*
X73410025Y41914650D02*
X73648120Y41914650D01*
X73648120Y41914650D02*
X73743358Y41962269D01*
X73743358Y41962269D02*
X73790977Y42009888D01*
X73790977Y42009888D02*
X73838596Y42105126D01*
X73838596Y42105126D02*
X73838596Y42295602D01*
X73838596Y42295602D02*
X73790977Y42390840D01*
X73790977Y42390840D02*
X73743358Y42438459D01*
X73743358Y42438459D02*
X73648120Y42486078D01*
X73314787Y42867031D02*
X73267168Y42914650D01*
X73267168Y42914650D02*
X73219549Y43009888D01*
X73219549Y43009888D02*
X73219549Y43247983D01*
X73219549Y43247983D02*
X73267168Y43343221D01*
X73267168Y43343221D02*
X73314787Y43390840D01*
X73314787Y43390840D02*
X73410025Y43438459D01*
X73410025Y43438459D02*
X73505263Y43438459D01*
X73505263Y43438459D02*
X73648120Y43390840D01*
X73648120Y43390840D02*
X74219549Y42819412D01*
X74219549Y42819412D02*
X74219549Y43438459D01*
X73552882Y44295602D02*
X74219549Y44295602D01*
X73171930Y44057507D02*
X73886215Y43819412D01*
X73886215Y43819412D02*
X73886215Y44438459D01*
X75829493Y40390841D02*
X74829493Y40390841D01*
X74829493Y40390841D02*
X74829493Y40628936D01*
X74829493Y40628936D02*
X74877112Y40771793D01*
X74877112Y40771793D02*
X74972350Y40867031D01*
X74972350Y40867031D02*
X75067588Y40914650D01*
X75067588Y40914650D02*
X75258064Y40962269D01*
X75258064Y40962269D02*
X75400921Y40962269D01*
X75400921Y40962269D02*
X75591397Y40914650D01*
X75591397Y40914650D02*
X75686635Y40867031D01*
X75686635Y40867031D02*
X75781874Y40771793D01*
X75781874Y40771793D02*
X75829493Y40628936D01*
X75829493Y40628936D02*
X75829493Y40390841D01*
X75829493Y41390841D02*
X74829493Y41390841D01*
X75781874Y41819412D02*
X75829493Y41962269D01*
X75829493Y41962269D02*
X75829493Y42200364D01*
X75829493Y42200364D02*
X75781874Y42295602D01*
X75781874Y42295602D02*
X75734254Y42343221D01*
X75734254Y42343221D02*
X75639016Y42390840D01*
X75639016Y42390840D02*
X75543778Y42390840D01*
X75543778Y42390840D02*
X75448540Y42343221D01*
X75448540Y42343221D02*
X75400921Y42295602D01*
X75400921Y42295602D02*
X75353302Y42200364D01*
X75353302Y42200364D02*
X75305683Y42009888D01*
X75305683Y42009888D02*
X75258064Y41914650D01*
X75258064Y41914650D02*
X75210445Y41867031D01*
X75210445Y41867031D02*
X75115207Y41819412D01*
X75115207Y41819412D02*
X75019969Y41819412D01*
X75019969Y41819412D02*
X74924731Y41867031D01*
X74924731Y41867031D02*
X74877112Y41914650D01*
X74877112Y41914650D02*
X74829493Y42009888D01*
X74829493Y42009888D02*
X74829493Y42247983D01*
X74829493Y42247983D02*
X74877112Y42390840D01*
X75734254Y43390840D02*
X75781874Y43343221D01*
X75781874Y43343221D02*
X75829493Y43200364D01*
X75829493Y43200364D02*
X75829493Y43105126D01*
X75829493Y43105126D02*
X75781874Y42962269D01*
X75781874Y42962269D02*
X75686635Y42867031D01*
X75686635Y42867031D02*
X75591397Y42819412D01*
X75591397Y42819412D02*
X75400921Y42771793D01*
X75400921Y42771793D02*
X75258064Y42771793D01*
X75258064Y42771793D02*
X75067588Y42819412D01*
X75067588Y42819412D02*
X74972350Y42867031D01*
X74972350Y42867031D02*
X74877112Y42962269D01*
X74877112Y42962269D02*
X74829493Y43105126D01*
X74829493Y43105126D02*
X74829493Y43200364D01*
X74829493Y43200364D02*
X74877112Y43343221D01*
X74877112Y43343221D02*
X74924731Y43390840D01*
X75829493Y44390840D02*
X75353302Y44057507D01*
X75829493Y43819412D02*
X74829493Y43819412D01*
X74829493Y43819412D02*
X74829493Y44200364D01*
X74829493Y44200364D02*
X74877112Y44295602D01*
X74877112Y44295602D02*
X74924731Y44343221D01*
X74924731Y44343221D02*
X75019969Y44390840D01*
X75019969Y44390840D02*
X75162826Y44390840D01*
X75162826Y44390840D02*
X75258064Y44343221D01*
X75258064Y44343221D02*
X75305683Y44295602D01*
X75305683Y44295602D02*
X75353302Y44200364D01*
X75353302Y44200364D02*
X75353302Y43819412D01*
D10*
X59137080Y86439192D02*
X59137080Y85775382D01*
X59137080Y85775382D02*
X59176127Y85697287D01*
X59176127Y85697287D02*
X59215175Y85658239D01*
X59215175Y85658239D02*
X59293270Y85619192D01*
X59293270Y85619192D02*
X59449461Y85619192D01*
X59449461Y85619192D02*
X59527556Y85658239D01*
X59527556Y85658239D02*
X59566603Y85697287D01*
X59566603Y85697287D02*
X59605651Y85775382D01*
X59605651Y85775382D02*
X59605651Y86439192D01*
X59996128Y85619192D02*
X59996128Y86439192D01*
X59996128Y86439192D02*
X60308509Y86439192D01*
X60308509Y86439192D02*
X60386604Y86400144D01*
X60386604Y86400144D02*
X60425651Y86361097D01*
X60425651Y86361097D02*
X60464699Y86283001D01*
X60464699Y86283001D02*
X60464699Y86165859D01*
X60464699Y86165859D02*
X60425651Y86087763D01*
X60425651Y86087763D02*
X60386604Y86048716D01*
X60386604Y86048716D02*
X60308509Y86009668D01*
X60308509Y86009668D02*
X59996128Y86009668D01*
D11*
X113290255Y34936179D02*
X113497398Y34864751D01*
X113497398Y34864751D02*
X113842636Y34864751D01*
X113842636Y34864751D02*
X113980731Y34936179D01*
X113980731Y34936179D02*
X114049779Y35007608D01*
X114049779Y35007608D02*
X114118826Y35150465D01*
X114118826Y35150465D02*
X114118826Y35293322D01*
X114118826Y35293322D02*
X114049779Y35436179D01*
X114049779Y35436179D02*
X113980731Y35507608D01*
X113980731Y35507608D02*
X113842636Y35579037D01*
X113842636Y35579037D02*
X113566445Y35650465D01*
X113566445Y35650465D02*
X113428350Y35721894D01*
X113428350Y35721894D02*
X113359303Y35793322D01*
X113359303Y35793322D02*
X113290255Y35936179D01*
X113290255Y35936179D02*
X113290255Y36079037D01*
X113290255Y36079037D02*
X113359303Y36221894D01*
X113359303Y36221894D02*
X113428350Y36293322D01*
X113428350Y36293322D02*
X113566445Y36364751D01*
X113566445Y36364751D02*
X113911684Y36364751D01*
X113911684Y36364751D02*
X114118826Y36293322D01*
X114602159Y36364751D02*
X114947397Y34864751D01*
X114947397Y34864751D02*
X115223588Y35936179D01*
X115223588Y35936179D02*
X115499778Y34864751D01*
X115499778Y34864751D02*
X115845017Y36364751D01*
X116397398Y34864751D02*
X116397398Y36364751D01*
X116397398Y36364751D02*
X116742636Y36364751D01*
X116742636Y36364751D02*
X116949779Y36293322D01*
X116949779Y36293322D02*
X117087874Y36150465D01*
X117087874Y36150465D02*
X117156921Y36007608D01*
X117156921Y36007608D02*
X117225969Y35721894D01*
X117225969Y35721894D02*
X117225969Y35507608D01*
X117225969Y35507608D02*
X117156921Y35221894D01*
X117156921Y35221894D02*
X117087874Y35079037D01*
X117087874Y35079037D02*
X116949779Y34936179D01*
X116949779Y34936179D02*
X116742636Y34864751D01*
X116742636Y34864751D02*
X116397398Y34864751D01*
X117847398Y35007608D02*
X117916445Y34936179D01*
X117916445Y34936179D02*
X117847398Y34864751D01*
X117847398Y34864751D02*
X117778350Y34936179D01*
X117778350Y34936179D02*
X117847398Y35007608D01*
X117847398Y35007608D02*
X117847398Y34864751D01*
X117847398Y35793322D02*
X117916445Y35721894D01*
X117916445Y35721894D02*
X117847398Y35650465D01*
X117847398Y35650465D02*
X117778350Y35721894D01*
X117778350Y35721894D02*
X117847398Y35793322D01*
X117847398Y35793322D02*
X117847398Y35650465D01*
X121575969Y34864751D02*
X121092636Y35579037D01*
X120747398Y34864751D02*
X120747398Y36364751D01*
X120747398Y36364751D02*
X121299779Y36364751D01*
X121299779Y36364751D02*
X121437874Y36293322D01*
X121437874Y36293322D02*
X121506921Y36221894D01*
X121506921Y36221894D02*
X121575969Y36079037D01*
X121575969Y36079037D02*
X121575969Y35864751D01*
X121575969Y35864751D02*
X121506921Y35721894D01*
X121506921Y35721894D02*
X121437874Y35650465D01*
X121437874Y35650465D02*
X121299779Y35579037D01*
X121299779Y35579037D02*
X120747398Y35579037D01*
X123302160Y34864751D02*
X123302160Y36364751D01*
X123302160Y36364751D02*
X123647398Y36364751D01*
X123647398Y36364751D02*
X123854541Y36293322D01*
X123854541Y36293322D02*
X123992636Y36150465D01*
X123992636Y36150465D02*
X124061683Y36007608D01*
X124061683Y36007608D02*
X124130731Y35721894D01*
X124130731Y35721894D02*
X124130731Y35507608D01*
X124130731Y35507608D02*
X124061683Y35221894D01*
X124061683Y35221894D02*
X123992636Y35079037D01*
X123992636Y35079037D02*
X123854541Y34936179D01*
X123854541Y34936179D02*
X123647398Y34864751D01*
X123647398Y34864751D02*
X123302160Y34864751D01*
X126616445Y36293322D02*
X126478350Y36364751D01*
X126478350Y36364751D02*
X126271207Y36364751D01*
X126271207Y36364751D02*
X126064064Y36293322D01*
X126064064Y36293322D02*
X125925969Y36150465D01*
X125925969Y36150465D02*
X125856922Y36007608D01*
X125856922Y36007608D02*
X125787874Y35721894D01*
X125787874Y35721894D02*
X125787874Y35507608D01*
X125787874Y35507608D02*
X125856922Y35221894D01*
X125856922Y35221894D02*
X125925969Y35079037D01*
X125925969Y35079037D02*
X126064064Y34936179D01*
X126064064Y34936179D02*
X126271207Y34864751D01*
X126271207Y34864751D02*
X126409303Y34864751D01*
X126409303Y34864751D02*
X126616445Y34936179D01*
X126616445Y34936179D02*
X126685493Y35007608D01*
X126685493Y35007608D02*
X126685493Y35507608D01*
X126685493Y35507608D02*
X126409303Y35507608D01*
X129240255Y35007608D02*
X129171207Y34936179D01*
X129171207Y34936179D02*
X128964065Y34864751D01*
X128964065Y34864751D02*
X128825969Y34864751D01*
X128825969Y34864751D02*
X128618826Y34936179D01*
X128618826Y34936179D02*
X128480731Y35079037D01*
X128480731Y35079037D02*
X128411684Y35221894D01*
X128411684Y35221894D02*
X128342636Y35507608D01*
X128342636Y35507608D02*
X128342636Y35721894D01*
X128342636Y35721894D02*
X128411684Y36007608D01*
X128411684Y36007608D02*
X128480731Y36150465D01*
X128480731Y36150465D02*
X128618826Y36293322D01*
X128618826Y36293322D02*
X128825969Y36364751D01*
X128825969Y36364751D02*
X128964065Y36364751D01*
X128964065Y36364751D02*
X129171207Y36293322D01*
X129171207Y36293322D02*
X129240255Y36221894D01*
X130759303Y36364751D02*
X131242636Y34864751D01*
X131242636Y34864751D02*
X131725969Y36364751D01*
D10*
X96527080Y83349192D02*
X96527080Y84169192D01*
X96527080Y84169192D02*
X96722318Y84169192D01*
X96722318Y84169192D02*
X96839461Y84130144D01*
X96839461Y84130144D02*
X96917556Y84052049D01*
X96917556Y84052049D02*
X96956603Y83973954D01*
X96956603Y83973954D02*
X96995651Y83817763D01*
X96995651Y83817763D02*
X96995651Y83700620D01*
X96995651Y83700620D02*
X96956603Y83544430D01*
X96956603Y83544430D02*
X96917556Y83466335D01*
X96917556Y83466335D02*
X96839461Y83388239D01*
X96839461Y83388239D02*
X96722318Y83349192D01*
X96722318Y83349192D02*
X96527080Y83349192D01*
X97503270Y84169192D02*
X97659461Y84169192D01*
X97659461Y84169192D02*
X97737556Y84130144D01*
X97737556Y84130144D02*
X97815651Y84052049D01*
X97815651Y84052049D02*
X97854699Y83895859D01*
X97854699Y83895859D02*
X97854699Y83622525D01*
X97854699Y83622525D02*
X97815651Y83466335D01*
X97815651Y83466335D02*
X97737556Y83388239D01*
X97737556Y83388239D02*
X97659461Y83349192D01*
X97659461Y83349192D02*
X97503270Y83349192D01*
X97503270Y83349192D02*
X97425175Y83388239D01*
X97425175Y83388239D02*
X97347080Y83466335D01*
X97347080Y83466335D02*
X97308032Y83622525D01*
X97308032Y83622525D02*
X97308032Y83895859D01*
X97308032Y83895859D02*
X97347080Y84052049D01*
X97347080Y84052049D02*
X97425175Y84130144D01*
X97425175Y84130144D02*
X97503270Y84169192D01*
X98128032Y84169192D02*
X98323270Y83349192D01*
X98323270Y83349192D02*
X98479461Y83934906D01*
X98479461Y83934906D02*
X98635651Y83349192D01*
X98635651Y83349192D02*
X98830890Y84169192D01*
X99143271Y83349192D02*
X99143271Y84169192D01*
X99143271Y84169192D02*
X99611842Y83349192D01*
X99611842Y83349192D02*
X99611842Y84169192D01*
D12*
X76744391Y51707562D02*
X76649153Y51755181D01*
X76649153Y51755181D02*
X76506296Y51755181D01*
X76506296Y51755181D02*
X76363439Y51707562D01*
X76363439Y51707562D02*
X76268201Y51612324D01*
X76268201Y51612324D02*
X76220582Y51517086D01*
X76220582Y51517086D02*
X76172963Y51326610D01*
X76172963Y51326610D02*
X76172963Y51183753D01*
X76172963Y51183753D02*
X76220582Y50993277D01*
X76220582Y50993277D02*
X76268201Y50898039D01*
X76268201Y50898039D02*
X76363439Y50802800D01*
X76363439Y50802800D02*
X76506296Y50755181D01*
X76506296Y50755181D02*
X76601534Y50755181D01*
X76601534Y50755181D02*
X76744391Y50802800D01*
X76744391Y50802800D02*
X76792010Y50850420D01*
X76792010Y50850420D02*
X76792010Y51183753D01*
X76792010Y51183753D02*
X76601534Y51183753D01*
D11*
X114047398Y17303972D02*
X114047398Y16089686D01*
X114047398Y16089686D02*
X114114065Y15946829D01*
X114114065Y15946829D02*
X114180731Y15875400D01*
X114180731Y15875400D02*
X114314065Y15803972D01*
X114314065Y15803972D02*
X114580731Y15803972D01*
X114580731Y15803972D02*
X114714065Y15875400D01*
X114714065Y15875400D02*
X114780731Y15946829D01*
X114780731Y15946829D02*
X114847398Y16089686D01*
X114847398Y16089686D02*
X114847398Y17303972D01*
X115447398Y15875400D02*
X115647398Y15803972D01*
X115647398Y15803972D02*
X115980732Y15803972D01*
X115980732Y15803972D02*
X116114065Y15875400D01*
X116114065Y15875400D02*
X116180732Y15946829D01*
X116180732Y15946829D02*
X116247398Y16089686D01*
X116247398Y16089686D02*
X116247398Y16232543D01*
X116247398Y16232543D02*
X116180732Y16375400D01*
X116180732Y16375400D02*
X116114065Y16446829D01*
X116114065Y16446829D02*
X115980732Y16518258D01*
X115980732Y16518258D02*
X115714065Y16589686D01*
X115714065Y16589686D02*
X115580732Y16661115D01*
X115580732Y16661115D02*
X115514065Y16732543D01*
X115514065Y16732543D02*
X115447398Y16875400D01*
X115447398Y16875400D02*
X115447398Y17018258D01*
X115447398Y17018258D02*
X115514065Y17161115D01*
X115514065Y17161115D02*
X115580732Y17232543D01*
X115580732Y17232543D02*
X115714065Y17303972D01*
X115714065Y17303972D02*
X116047398Y17303972D01*
X116047398Y17303972D02*
X116247398Y17232543D01*
X117314065Y16589686D02*
X117514065Y16518258D01*
X117514065Y16518258D02*
X117580731Y16446829D01*
X117580731Y16446829D02*
X117647398Y16303972D01*
X117647398Y16303972D02*
X117647398Y16089686D01*
X117647398Y16089686D02*
X117580731Y15946829D01*
X117580731Y15946829D02*
X117514065Y15875400D01*
X117514065Y15875400D02*
X117380731Y15803972D01*
X117380731Y15803972D02*
X116847398Y15803972D01*
X116847398Y15803972D02*
X116847398Y17303972D01*
X116847398Y17303972D02*
X117314065Y17303972D01*
X117314065Y17303972D02*
X117447398Y17232543D01*
X117447398Y17232543D02*
X117514065Y17161115D01*
X117514065Y17161115D02*
X117580731Y17018258D01*
X117580731Y17018258D02*
X117580731Y16875400D01*
X117580731Y16875400D02*
X117514065Y16732543D01*
X117514065Y16732543D02*
X117447398Y16661115D01*
X117447398Y16661115D02*
X117314065Y16589686D01*
X117314065Y16589686D02*
X116847398Y16589686D01*
D12*
X64756409Y79140181D02*
X65327837Y79140181D01*
X65042123Y78140181D02*
X65042123Y79140181D01*
X65804028Y78140181D02*
X65708790Y78187800D01*
X65708790Y78187800D02*
X65661171Y78235420D01*
X65661171Y78235420D02*
X65613552Y78330658D01*
X65613552Y78330658D02*
X65613552Y78616372D01*
X65613552Y78616372D02*
X65661171Y78711610D01*
X65661171Y78711610D02*
X65708790Y78759229D01*
X65708790Y78759229D02*
X65804028Y78806848D01*
X65804028Y78806848D02*
X65946885Y78806848D01*
X65946885Y78806848D02*
X66042123Y78759229D01*
X66042123Y78759229D02*
X66089742Y78711610D01*
X66089742Y78711610D02*
X66137361Y78616372D01*
X66137361Y78616372D02*
X66137361Y78330658D01*
X66137361Y78330658D02*
X66089742Y78235420D01*
X66089742Y78235420D02*
X66042123Y78187800D01*
X66042123Y78187800D02*
X65946885Y78140181D01*
X65946885Y78140181D02*
X65804028Y78140181D01*
X67708790Y78187800D02*
X67613552Y78140181D01*
X67613552Y78140181D02*
X67423076Y78140181D01*
X67423076Y78140181D02*
X67327838Y78187800D01*
X67327838Y78187800D02*
X67280219Y78283039D01*
X67280219Y78283039D02*
X67280219Y78663991D01*
X67280219Y78663991D02*
X67327838Y78759229D01*
X67327838Y78759229D02*
X67423076Y78806848D01*
X67423076Y78806848D02*
X67613552Y78806848D01*
X67613552Y78806848D02*
X67708790Y78759229D01*
X67708790Y78759229D02*
X67756409Y78663991D01*
X67756409Y78663991D02*
X67756409Y78568753D01*
X67756409Y78568753D02*
X67280219Y78473515D01*
X68184981Y78806848D02*
X68184981Y78140181D01*
X68184981Y78711610D02*
X68232600Y78759229D01*
X68232600Y78759229D02*
X68327838Y78806848D01*
X68327838Y78806848D02*
X68470695Y78806848D01*
X68470695Y78806848D02*
X68565933Y78759229D01*
X68565933Y78759229D02*
X68613552Y78663991D01*
X68613552Y78663991D02*
X68613552Y78140181D01*
X69518314Y78140181D02*
X69518314Y78663991D01*
X69518314Y78663991D02*
X69470695Y78759229D01*
X69470695Y78759229D02*
X69375457Y78806848D01*
X69375457Y78806848D02*
X69184981Y78806848D01*
X69184981Y78806848D02*
X69089743Y78759229D01*
X69518314Y78187800D02*
X69423076Y78140181D01*
X69423076Y78140181D02*
X69184981Y78140181D01*
X69184981Y78140181D02*
X69089743Y78187800D01*
X69089743Y78187800D02*
X69042124Y78283039D01*
X69042124Y78283039D02*
X69042124Y78378277D01*
X69042124Y78378277D02*
X69089743Y78473515D01*
X69089743Y78473515D02*
X69184981Y78521134D01*
X69184981Y78521134D02*
X69423076Y78521134D01*
X69423076Y78521134D02*
X69518314Y78568753D01*
X69994505Y78140181D02*
X69994505Y79140181D01*
X69994505Y78759229D02*
X70089743Y78806848D01*
X70089743Y78806848D02*
X70280219Y78806848D01*
X70280219Y78806848D02*
X70375457Y78759229D01*
X70375457Y78759229D02*
X70423076Y78711610D01*
X70423076Y78711610D02*
X70470695Y78616372D01*
X70470695Y78616372D02*
X70470695Y78330658D01*
X70470695Y78330658D02*
X70423076Y78235420D01*
X70423076Y78235420D02*
X70375457Y78187800D01*
X70375457Y78187800D02*
X70280219Y78140181D01*
X70280219Y78140181D02*
X70089743Y78140181D01*
X70089743Y78140181D02*
X69994505Y78187800D01*
X71042124Y78140181D02*
X70946886Y78187800D01*
X70946886Y78187800D02*
X70899267Y78283039D01*
X70899267Y78283039D02*
X70899267Y79140181D01*
X71804029Y78187800D02*
X71708791Y78140181D01*
X71708791Y78140181D02*
X71518315Y78140181D01*
X71518315Y78140181D02*
X71423077Y78187800D01*
X71423077Y78187800D02*
X71375458Y78283039D01*
X71375458Y78283039D02*
X71375458Y78663991D01*
X71375458Y78663991D02*
X71423077Y78759229D01*
X71423077Y78759229D02*
X71518315Y78806848D01*
X71518315Y78806848D02*
X71708791Y78806848D01*
X71708791Y78806848D02*
X71804029Y78759229D01*
X71804029Y78759229D02*
X71851648Y78663991D01*
X71851648Y78663991D02*
X71851648Y78568753D01*
X71851648Y78568753D02*
X71375458Y78473515D01*
X73042125Y78140181D02*
X73042125Y79140181D01*
X73042125Y78663991D02*
X73613553Y78663991D01*
X73613553Y78140181D02*
X73613553Y79140181D01*
X74518315Y78140181D02*
X74518315Y78663991D01*
X74518315Y78663991D02*
X74470696Y78759229D01*
X74470696Y78759229D02*
X74375458Y78806848D01*
X74375458Y78806848D02*
X74184982Y78806848D01*
X74184982Y78806848D02*
X74089744Y78759229D01*
X74518315Y78187800D02*
X74423077Y78140181D01*
X74423077Y78140181D02*
X74184982Y78140181D01*
X74184982Y78140181D02*
X74089744Y78187800D01*
X74089744Y78187800D02*
X74042125Y78283039D01*
X74042125Y78283039D02*
X74042125Y78378277D01*
X74042125Y78378277D02*
X74089744Y78473515D01*
X74089744Y78473515D02*
X74184982Y78521134D01*
X74184982Y78521134D02*
X74423077Y78521134D01*
X74423077Y78521134D02*
X74518315Y78568753D01*
X75137363Y78140181D02*
X75042125Y78187800D01*
X75042125Y78187800D02*
X74994506Y78283039D01*
X74994506Y78283039D02*
X74994506Y79140181D01*
X75661173Y78140181D02*
X75565935Y78187800D01*
X75565935Y78187800D02*
X75518316Y78283039D01*
X75518316Y78283039D02*
X75518316Y79140181D01*
X76804031Y78140181D02*
X76804031Y78806848D01*
X76804031Y78711610D02*
X76851650Y78759229D01*
X76851650Y78759229D02*
X76946888Y78806848D01*
X76946888Y78806848D02*
X77089745Y78806848D01*
X77089745Y78806848D02*
X77184983Y78759229D01*
X77184983Y78759229D02*
X77232602Y78663991D01*
X77232602Y78663991D02*
X77232602Y78140181D01*
X77232602Y78663991D02*
X77280221Y78759229D01*
X77280221Y78759229D02*
X77375459Y78806848D01*
X77375459Y78806848D02*
X77518316Y78806848D01*
X77518316Y78806848D02*
X77613555Y78759229D01*
X77613555Y78759229D02*
X77661174Y78663991D01*
X77661174Y78663991D02*
X77661174Y78140181D01*
X78280221Y78140181D02*
X78184983Y78187800D01*
X78184983Y78187800D02*
X78137364Y78235420D01*
X78137364Y78235420D02*
X78089745Y78330658D01*
X78089745Y78330658D02*
X78089745Y78616372D01*
X78089745Y78616372D02*
X78137364Y78711610D01*
X78137364Y78711610D02*
X78184983Y78759229D01*
X78184983Y78759229D02*
X78280221Y78806848D01*
X78280221Y78806848D02*
X78423078Y78806848D01*
X78423078Y78806848D02*
X78518316Y78759229D01*
X78518316Y78759229D02*
X78565935Y78711610D01*
X78565935Y78711610D02*
X78613554Y78616372D01*
X78613554Y78616372D02*
X78613554Y78330658D01*
X78613554Y78330658D02*
X78565935Y78235420D01*
X78565935Y78235420D02*
X78518316Y78187800D01*
X78518316Y78187800D02*
X78423078Y78140181D01*
X78423078Y78140181D02*
X78280221Y78140181D01*
X79470697Y78140181D02*
X79470697Y79140181D01*
X79470697Y78187800D02*
X79375459Y78140181D01*
X79375459Y78140181D02*
X79184983Y78140181D01*
X79184983Y78140181D02*
X79089745Y78187800D01*
X79089745Y78187800D02*
X79042126Y78235420D01*
X79042126Y78235420D02*
X78994507Y78330658D01*
X78994507Y78330658D02*
X78994507Y78616372D01*
X78994507Y78616372D02*
X79042126Y78711610D01*
X79042126Y78711610D02*
X79089745Y78759229D01*
X79089745Y78759229D02*
X79184983Y78806848D01*
X79184983Y78806848D02*
X79375459Y78806848D01*
X79375459Y78806848D02*
X79470697Y78759229D01*
X80327840Y78187800D02*
X80232602Y78140181D01*
X80232602Y78140181D02*
X80042126Y78140181D01*
X80042126Y78140181D02*
X79946888Y78187800D01*
X79946888Y78187800D02*
X79899269Y78283039D01*
X79899269Y78283039D02*
X79899269Y78663991D01*
X79899269Y78663991D02*
X79946888Y78759229D01*
X79946888Y78759229D02*
X80042126Y78806848D01*
X80042126Y78806848D02*
X80232602Y78806848D01*
X80232602Y78806848D02*
X80327840Y78759229D01*
X80327840Y78759229D02*
X80375459Y78663991D01*
X80375459Y78663991D02*
X80375459Y78568753D01*
X80375459Y78568753D02*
X79899269Y78473515D01*
X81708793Y78140181D02*
X81613555Y78187800D01*
X81613555Y78187800D02*
X81565936Y78235420D01*
X81565936Y78235420D02*
X81518317Y78330658D01*
X81518317Y78330658D02*
X81518317Y78616372D01*
X81518317Y78616372D02*
X81565936Y78711610D01*
X81565936Y78711610D02*
X81613555Y78759229D01*
X81613555Y78759229D02*
X81708793Y78806848D01*
X81708793Y78806848D02*
X81851650Y78806848D01*
X81851650Y78806848D02*
X81946888Y78759229D01*
X81946888Y78759229D02*
X81994507Y78711610D01*
X81994507Y78711610D02*
X82042126Y78616372D01*
X82042126Y78616372D02*
X82042126Y78330658D01*
X82042126Y78330658D02*
X81994507Y78235420D01*
X81994507Y78235420D02*
X81946888Y78187800D01*
X81946888Y78187800D02*
X81851650Y78140181D01*
X81851650Y78140181D02*
X81708793Y78140181D01*
X82470698Y78806848D02*
X82470698Y78140181D01*
X82470698Y78711610D02*
X82518317Y78759229D01*
X82518317Y78759229D02*
X82613555Y78806848D01*
X82613555Y78806848D02*
X82756412Y78806848D01*
X82756412Y78806848D02*
X82851650Y78759229D01*
X82851650Y78759229D02*
X82899269Y78663991D01*
X82899269Y78663991D02*
X82899269Y78140181D01*
X83994508Y79140181D02*
X84327841Y78140181D01*
X84327841Y78140181D02*
X84661174Y79140181D01*
X85565936Y78140181D02*
X85232603Y78616372D01*
X84994508Y78140181D02*
X84994508Y79140181D01*
X84994508Y79140181D02*
X85375460Y79140181D01*
X85375460Y79140181D02*
X85470698Y79092562D01*
X85470698Y79092562D02*
X85518317Y79044943D01*
X85518317Y79044943D02*
X85565936Y78949705D01*
X85565936Y78949705D02*
X85565936Y78806848D01*
X85565936Y78806848D02*
X85518317Y78711610D01*
X85518317Y78711610D02*
X85470698Y78663991D01*
X85470698Y78663991D02*
X85375460Y78616372D01*
X85375460Y78616372D02*
X84994508Y78616372D01*
X86042127Y78140181D02*
X86232603Y78140181D01*
X86232603Y78140181D02*
X86327841Y78187800D01*
X86327841Y78187800D02*
X86375460Y78235420D01*
X86375460Y78235420D02*
X86470698Y78378277D01*
X86470698Y78378277D02*
X86518317Y78568753D01*
X86518317Y78568753D02*
X86518317Y78949705D01*
X86518317Y78949705D02*
X86470698Y79044943D01*
X86470698Y79044943D02*
X86423079Y79092562D01*
X86423079Y79092562D02*
X86327841Y79140181D01*
X86327841Y79140181D02*
X86137365Y79140181D01*
X86137365Y79140181D02*
X86042127Y79092562D01*
X86042127Y79092562D02*
X85994508Y79044943D01*
X85994508Y79044943D02*
X85946889Y78949705D01*
X85946889Y78949705D02*
X85946889Y78711610D01*
X85946889Y78711610D02*
X85994508Y78616372D01*
X85994508Y78616372D02*
X86042127Y78568753D01*
X86042127Y78568753D02*
X86137365Y78521134D01*
X86137365Y78521134D02*
X86327841Y78521134D01*
X86327841Y78521134D02*
X86423079Y78568753D01*
X86423079Y78568753D02*
X86470698Y78616372D01*
X86470698Y78616372D02*
X86518317Y78711610D01*
X86994508Y78140181D02*
X87184984Y78140181D01*
X87184984Y78140181D02*
X87280222Y78187800D01*
X87280222Y78187800D02*
X87327841Y78235420D01*
X87327841Y78235420D02*
X87423079Y78378277D01*
X87423079Y78378277D02*
X87470698Y78568753D01*
X87470698Y78568753D02*
X87470698Y78949705D01*
X87470698Y78949705D02*
X87423079Y79044943D01*
X87423079Y79044943D02*
X87375460Y79092562D01*
X87375460Y79092562D02*
X87280222Y79140181D01*
X87280222Y79140181D02*
X87089746Y79140181D01*
X87089746Y79140181D02*
X86994508Y79092562D01*
X86994508Y79092562D02*
X86946889Y79044943D01*
X86946889Y79044943D02*
X86899270Y78949705D01*
X86899270Y78949705D02*
X86899270Y78711610D01*
X86899270Y78711610D02*
X86946889Y78616372D01*
X86946889Y78616372D02*
X86994508Y78568753D01*
X86994508Y78568753D02*
X87089746Y78521134D01*
X87089746Y78521134D02*
X87280222Y78521134D01*
X87280222Y78521134D02*
X87375460Y78568753D01*
X87375460Y78568753D02*
X87423079Y78616372D01*
X87423079Y78616372D02*
X87470698Y78711610D01*
X87851651Y79044943D02*
X87899270Y79092562D01*
X87899270Y79092562D02*
X87994508Y79140181D01*
X87994508Y79140181D02*
X88232603Y79140181D01*
X88232603Y79140181D02*
X88327841Y79092562D01*
X88327841Y79092562D02*
X88375460Y79044943D01*
X88375460Y79044943D02*
X88423079Y78949705D01*
X88423079Y78949705D02*
X88423079Y78854467D01*
X88423079Y78854467D02*
X88375460Y78711610D01*
X88375460Y78711610D02*
X87804032Y78140181D01*
X87804032Y78140181D02*
X88423079Y78140181D01*
X89280222Y78806848D02*
X89280222Y78140181D01*
X89042127Y79187800D02*
X88804032Y78473515D01*
X88804032Y78473515D02*
X89423079Y78473515D01*
X89804032Y78521134D02*
X90565937Y78521134D01*
X91089746Y78187800D02*
X91089746Y78140181D01*
X91089746Y78140181D02*
X91042127Y78044943D01*
X91042127Y78044943D02*
X90994508Y77997324D01*
X92280222Y78806848D02*
X92280222Y77806848D01*
X92280222Y78759229D02*
X92375460Y78806848D01*
X92375460Y78806848D02*
X92565936Y78806848D01*
X92565936Y78806848D02*
X92661174Y78759229D01*
X92661174Y78759229D02*
X92708793Y78711610D01*
X92708793Y78711610D02*
X92756412Y78616372D01*
X92756412Y78616372D02*
X92756412Y78330658D01*
X92756412Y78330658D02*
X92708793Y78235420D01*
X92708793Y78235420D02*
X92661174Y78187800D01*
X92661174Y78187800D02*
X92565936Y78140181D01*
X92565936Y78140181D02*
X92375460Y78140181D01*
X92375460Y78140181D02*
X92280222Y78187800D01*
X93327841Y78140181D02*
X93232603Y78187800D01*
X93232603Y78187800D02*
X93184984Y78235420D01*
X93184984Y78235420D02*
X93137365Y78330658D01*
X93137365Y78330658D02*
X93137365Y78616372D01*
X93137365Y78616372D02*
X93184984Y78711610D01*
X93184984Y78711610D02*
X93232603Y78759229D01*
X93232603Y78759229D02*
X93327841Y78806848D01*
X93327841Y78806848D02*
X93470698Y78806848D01*
X93470698Y78806848D02*
X93565936Y78759229D01*
X93565936Y78759229D02*
X93613555Y78711610D01*
X93613555Y78711610D02*
X93661174Y78616372D01*
X93661174Y78616372D02*
X93661174Y78330658D01*
X93661174Y78330658D02*
X93613555Y78235420D01*
X93613555Y78235420D02*
X93565936Y78187800D01*
X93565936Y78187800D02*
X93470698Y78140181D01*
X93470698Y78140181D02*
X93327841Y78140181D01*
X94089746Y78806848D02*
X94089746Y77806848D01*
X94089746Y78759229D02*
X94184984Y78806848D01*
X94184984Y78806848D02*
X94375460Y78806848D01*
X94375460Y78806848D02*
X94470698Y78759229D01*
X94470698Y78759229D02*
X94518317Y78711610D01*
X94518317Y78711610D02*
X94565936Y78616372D01*
X94565936Y78616372D02*
X94565936Y78330658D01*
X94565936Y78330658D02*
X94518317Y78235420D01*
X94518317Y78235420D02*
X94470698Y78187800D01*
X94470698Y78187800D02*
X94375460Y78140181D01*
X94375460Y78140181D02*
X94184984Y78140181D01*
X94184984Y78140181D02*
X94089746Y78187800D01*
X95423079Y78806848D02*
X95423079Y78140181D01*
X94994508Y78806848D02*
X94994508Y78283039D01*
X94994508Y78283039D02*
X95042127Y78187800D01*
X95042127Y78187800D02*
X95137365Y78140181D01*
X95137365Y78140181D02*
X95280222Y78140181D01*
X95280222Y78140181D02*
X95375460Y78187800D01*
X95375460Y78187800D02*
X95423079Y78235420D01*
X96042127Y78140181D02*
X95946889Y78187800D01*
X95946889Y78187800D02*
X95899270Y78283039D01*
X95899270Y78283039D02*
X95899270Y79140181D01*
X96851651Y78140181D02*
X96851651Y78663991D01*
X96851651Y78663991D02*
X96804032Y78759229D01*
X96804032Y78759229D02*
X96708794Y78806848D01*
X96708794Y78806848D02*
X96518318Y78806848D01*
X96518318Y78806848D02*
X96423080Y78759229D01*
X96851651Y78187800D02*
X96756413Y78140181D01*
X96756413Y78140181D02*
X96518318Y78140181D01*
X96518318Y78140181D02*
X96423080Y78187800D01*
X96423080Y78187800D02*
X96375461Y78283039D01*
X96375461Y78283039D02*
X96375461Y78378277D01*
X96375461Y78378277D02*
X96423080Y78473515D01*
X96423080Y78473515D02*
X96518318Y78521134D01*
X96518318Y78521134D02*
X96756413Y78521134D01*
X96756413Y78521134D02*
X96851651Y78568753D01*
X97184985Y78806848D02*
X97565937Y78806848D01*
X97327842Y79140181D02*
X97327842Y78283039D01*
X97327842Y78283039D02*
X97375461Y78187800D01*
X97375461Y78187800D02*
X97470699Y78140181D01*
X97470699Y78140181D02*
X97565937Y78140181D01*
X98280223Y78187800D02*
X98184985Y78140181D01*
X98184985Y78140181D02*
X97994509Y78140181D01*
X97994509Y78140181D02*
X97899271Y78187800D01*
X97899271Y78187800D02*
X97851652Y78283039D01*
X97851652Y78283039D02*
X97851652Y78663991D01*
X97851652Y78663991D02*
X97899271Y78759229D01*
X97899271Y78759229D02*
X97994509Y78806848D01*
X97994509Y78806848D02*
X98184985Y78806848D01*
X98184985Y78806848D02*
X98280223Y78759229D01*
X98280223Y78759229D02*
X98327842Y78663991D01*
X98327842Y78663991D02*
X98327842Y78568753D01*
X98327842Y78568753D02*
X97851652Y78473515D01*
X100089747Y78140181D02*
X99756414Y78616372D01*
X99518319Y78140181D02*
X99518319Y79140181D01*
X99518319Y79140181D02*
X99899271Y79140181D01*
X99899271Y79140181D02*
X99994509Y79092562D01*
X99994509Y79092562D02*
X100042128Y79044943D01*
X100042128Y79044943D02*
X100089747Y78949705D01*
X100089747Y78949705D02*
X100089747Y78806848D01*
X100089747Y78806848D02*
X100042128Y78711610D01*
X100042128Y78711610D02*
X99994509Y78663991D01*
X99994509Y78663991D02*
X99899271Y78616372D01*
X99899271Y78616372D02*
X99518319Y78616372D01*
X101042128Y78140181D02*
X100470700Y78140181D01*
X100756414Y78140181D02*
X100756414Y79140181D01*
X100756414Y79140181D02*
X100661176Y78997324D01*
X100661176Y78997324D02*
X100565938Y78902086D01*
X100565938Y78902086D02*
X100470700Y78854467D01*
X63492010Y56255181D02*
X63015820Y56255181D01*
X63015820Y56255181D02*
X63015820Y57255181D01*
X74144391Y51707562D02*
X74049153Y51755181D01*
X74049153Y51755181D02*
X73906296Y51755181D01*
X73906296Y51755181D02*
X73763439Y51707562D01*
X73763439Y51707562D02*
X73668201Y51612324D01*
X73668201Y51612324D02*
X73620582Y51517086D01*
X73620582Y51517086D02*
X73572963Y51326610D01*
X73572963Y51326610D02*
X73572963Y51183753D01*
X73572963Y51183753D02*
X73620582Y50993277D01*
X73620582Y50993277D02*
X73668201Y50898039D01*
X73668201Y50898039D02*
X73763439Y50802800D01*
X73763439Y50802800D02*
X73906296Y50755181D01*
X73906296Y50755181D02*
X74001534Y50755181D01*
X74001534Y50755181D02*
X74144391Y50802800D01*
X74144391Y50802800D02*
X74192010Y50850420D01*
X74192010Y50850420D02*
X74192010Y51183753D01*
X74192010Y51183753D02*
X74001534Y51183753D01*
X65463439Y55050420D02*
X65415820Y55002800D01*
X65415820Y55002800D02*
X65272963Y54955181D01*
X65272963Y54955181D02*
X65177725Y54955181D01*
X65177725Y54955181D02*
X65034868Y55002800D01*
X65034868Y55002800D02*
X64939630Y55098039D01*
X64939630Y55098039D02*
X64892011Y55193277D01*
X64892011Y55193277D02*
X64844392Y55383753D01*
X64844392Y55383753D02*
X64844392Y55526610D01*
X64844392Y55526610D02*
X64892011Y55717086D01*
X64892011Y55717086D02*
X64939630Y55812324D01*
X64939630Y55812324D02*
X65034868Y55907562D01*
X65034868Y55907562D02*
X65177725Y55955181D01*
X65177725Y55955181D02*
X65272963Y55955181D01*
X65272963Y55955181D02*
X65415820Y55907562D01*
X65415820Y55907562D02*
X65463439Y55859943D01*
X65844392Y55240896D02*
X66320582Y55240896D01*
X65749154Y54955181D02*
X66082487Y55955181D01*
X66082487Y55955181D02*
X66415820Y54955181D01*
X66749154Y54955181D02*
X66749154Y55955181D01*
X66749154Y55955181D02*
X67320582Y54955181D01*
X67320582Y54955181D02*
X67320582Y55955181D01*
X67749154Y55859943D02*
X67796773Y55907562D01*
X67796773Y55907562D02*
X67892011Y55955181D01*
X67892011Y55955181D02*
X68130106Y55955181D01*
X68130106Y55955181D02*
X68225344Y55907562D01*
X68225344Y55907562D02*
X68272963Y55859943D01*
X68272963Y55859943D02*
X68320582Y55764705D01*
X68320582Y55764705D02*
X68320582Y55669467D01*
X68320582Y55669467D02*
X68272963Y55526610D01*
X68272963Y55526610D02*
X67701535Y54955181D01*
X67701535Y54955181D02*
X68320582Y54955181D01*
D10*
X103011284Y83940414D02*
X103050332Y84057557D01*
X103050332Y84057557D02*
X103089380Y84096604D01*
X103089380Y84096604D02*
X103167475Y84135652D01*
X103167475Y84135652D02*
X103284618Y84135652D01*
X103284618Y84135652D02*
X103362713Y84096604D01*
X103362713Y84096604D02*
X103401761Y84057557D01*
X103401761Y84057557D02*
X103440808Y83979462D01*
X103440808Y83979462D02*
X103440808Y83667081D01*
X103440808Y83667081D02*
X102620808Y83667081D01*
X102620808Y83667081D02*
X102620808Y83940414D01*
X102620808Y83940414D02*
X102659856Y84018509D01*
X102659856Y84018509D02*
X102698903Y84057557D01*
X102698903Y84057557D02*
X102776999Y84096604D01*
X102776999Y84096604D02*
X102855094Y84096604D01*
X102855094Y84096604D02*
X102933189Y84057557D01*
X102933189Y84057557D02*
X102972237Y84018509D01*
X102972237Y84018509D02*
X103011284Y83940414D01*
X103011284Y83940414D02*
X103011284Y83667081D01*
X102620808Y84487081D02*
X103284618Y84487081D01*
X103284618Y84487081D02*
X103362713Y84526128D01*
X103362713Y84526128D02*
X103401761Y84565176D01*
X103401761Y84565176D02*
X103440808Y84643271D01*
X103440808Y84643271D02*
X103440808Y84799462D01*
X103440808Y84799462D02*
X103401761Y84877557D01*
X103401761Y84877557D02*
X103362713Y84916604D01*
X103362713Y84916604D02*
X103284618Y84955652D01*
X103284618Y84955652D02*
X102620808Y84955652D01*
X102620808Y85228986D02*
X102620808Y85697557D01*
X103440808Y85463271D02*
X102620808Y85463271D01*
X102620808Y85853748D02*
X102620808Y86322319D01*
X103440808Y86088033D02*
X102620808Y86088033D01*
X102620808Y86751843D02*
X102620808Y86908034D01*
X102620808Y86908034D02*
X102659856Y86986129D01*
X102659856Y86986129D02*
X102737951Y87064224D01*
X102737951Y87064224D02*
X102894141Y87103272D01*
X102894141Y87103272D02*
X103167475Y87103272D01*
X103167475Y87103272D02*
X103323665Y87064224D01*
X103323665Y87064224D02*
X103401761Y86986129D01*
X103401761Y86986129D02*
X103440808Y86908034D01*
X103440808Y86908034D02*
X103440808Y86751843D01*
X103440808Y86751843D02*
X103401761Y86673748D01*
X103401761Y86673748D02*
X103323665Y86595653D01*
X103323665Y86595653D02*
X103167475Y86556605D01*
X103167475Y86556605D02*
X102894141Y86556605D01*
X102894141Y86556605D02*
X102737951Y86595653D01*
X102737951Y86595653D02*
X102659856Y86673748D01*
X102659856Y86673748D02*
X102620808Y86751843D01*
X103440808Y87454701D02*
X102620808Y87454701D01*
X102620808Y87454701D02*
X103440808Y87923272D01*
X103440808Y87923272D02*
X102620808Y87923272D01*
X102698903Y88899463D02*
X102659856Y88938511D01*
X102659856Y88938511D02*
X102620808Y89016606D01*
X102620808Y89016606D02*
X102620808Y89211844D01*
X102620808Y89211844D02*
X102659856Y89289939D01*
X102659856Y89289939D02*
X102698903Y89328987D01*
X102698903Y89328987D02*
X102776999Y89368034D01*
X102776999Y89368034D02*
X102855094Y89368034D01*
X102855094Y89368034D02*
X102972237Y89328987D01*
X102972237Y89328987D02*
X103440808Y88860415D01*
X103440808Y88860415D02*
X103440808Y89368034D01*
D13*
X42075344Y2329072D02*
X42075344Y1114786D01*
X42075344Y1114786D02*
X42146773Y971929D01*
X42146773Y971929D02*
X42218202Y900500D01*
X42218202Y900500D02*
X42361059Y829072D01*
X42361059Y829072D02*
X42646773Y829072D01*
X42646773Y829072D02*
X42789630Y900500D01*
X42789630Y900500D02*
X42861059Y971929D01*
X42861059Y971929D02*
X42932487Y1114786D01*
X42932487Y1114786D02*
X42932487Y2329072D01*
X43575345Y1257643D02*
X44289631Y1257643D01*
X43432488Y829072D02*
X43932488Y2329072D01*
X43932488Y2329072D02*
X44432488Y829072D01*
X44932487Y1614786D02*
X45432487Y1614786D01*
X45646773Y829072D02*
X44932487Y829072D01*
X44932487Y829072D02*
X44932487Y2329072D01*
X44932487Y2329072D02*
X45646773Y2329072D01*
X46789630Y1614786D02*
X46289630Y1614786D01*
X46289630Y829072D02*
X46289630Y2329072D01*
X46289630Y2329072D02*
X47003916Y2329072D01*
X47575344Y829072D02*
X47575344Y2329072D01*
X49432487Y829072D02*
X49432487Y1829072D01*
X49432487Y1543358D02*
X49503916Y1686215D01*
X49503916Y1686215D02*
X49575345Y1757643D01*
X49575345Y1757643D02*
X49718202Y1829072D01*
X49718202Y1829072D02*
X49861059Y1829072D01*
X50932487Y900500D02*
X50789630Y829072D01*
X50789630Y829072D02*
X50503916Y829072D01*
X50503916Y829072D02*
X50361058Y900500D01*
X50361058Y900500D02*
X50289630Y1043358D01*
X50289630Y1043358D02*
X50289630Y1614786D01*
X50289630Y1614786D02*
X50361058Y1757643D01*
X50361058Y1757643D02*
X50503916Y1829072D01*
X50503916Y1829072D02*
X50789630Y1829072D01*
X50789630Y1829072D02*
X50932487Y1757643D01*
X50932487Y1757643D02*
X51003916Y1614786D01*
X51003916Y1614786D02*
X51003916Y1471929D01*
X51003916Y1471929D02*
X50289630Y1329072D01*
X51503915Y1829072D02*
X51861058Y829072D01*
X51861058Y829072D02*
X52218201Y1829072D01*
X52789629Y971929D02*
X52861058Y900500D01*
X52861058Y900500D02*
X52789629Y829072D01*
X52789629Y829072D02*
X52718201Y900500D01*
X52718201Y900500D02*
X52789629Y971929D01*
X52789629Y971929D02*
X52789629Y829072D01*
X54646772Y1614786D02*
X55146772Y1614786D01*
X55361058Y829072D02*
X54646772Y829072D01*
X54646772Y829072D02*
X54646772Y2329072D01*
X54646772Y2329072D02*
X55361058Y2329072D01*
D11*
X112921207Y38403972D02*
X113266445Y36903972D01*
X113266445Y36903972D02*
X113542636Y37975400D01*
X113542636Y37975400D02*
X113818826Y36903972D01*
X113818826Y36903972D02*
X114164065Y38403972D01*
X115199779Y37689686D02*
X115406922Y37618258D01*
X115406922Y37618258D02*
X115475969Y37546829D01*
X115475969Y37546829D02*
X115545017Y37403972D01*
X115545017Y37403972D02*
X115545017Y37189686D01*
X115545017Y37189686D02*
X115475969Y37046829D01*
X115475969Y37046829D02*
X115406922Y36975400D01*
X115406922Y36975400D02*
X115268827Y36903972D01*
X115268827Y36903972D02*
X114716446Y36903972D01*
X114716446Y36903972D02*
X114716446Y38403972D01*
X114716446Y38403972D02*
X115199779Y38403972D01*
X115199779Y38403972D02*
X115337874Y38332543D01*
X115337874Y38332543D02*
X115406922Y38261115D01*
X115406922Y38261115D02*
X115475969Y38118258D01*
X115475969Y38118258D02*
X115475969Y37975400D01*
X115475969Y37975400D02*
X115406922Y37832543D01*
X115406922Y37832543D02*
X115337874Y37761115D01*
X115337874Y37761115D02*
X115199779Y37689686D01*
X115199779Y37689686D02*
X114716446Y37689686D01*
X116442636Y38403972D02*
X116718827Y38403972D01*
X116718827Y38403972D02*
X116856922Y38332543D01*
X116856922Y38332543D02*
X116995017Y38189686D01*
X116995017Y38189686D02*
X117064065Y37903972D01*
X117064065Y37903972D02*
X117064065Y37403972D01*
X117064065Y37403972D02*
X116995017Y37118258D01*
X116995017Y37118258D02*
X116856922Y36975400D01*
X116856922Y36975400D02*
X116718827Y36903972D01*
X116718827Y36903972D02*
X116442636Y36903972D01*
X116442636Y36903972D02*
X116304541Y36975400D01*
X116304541Y36975400D02*
X116166446Y37118258D01*
X116166446Y37118258D02*
X116097398Y37403972D01*
X116097398Y37403972D02*
X116097398Y37903972D01*
X116097398Y37903972D02*
X116166446Y38189686D01*
X116166446Y38189686D02*
X116304541Y38332543D01*
X116304541Y38332543D02*
X116442636Y38403972D01*
D10*
X62240413Y82188716D02*
X62357556Y82149668D01*
X62357556Y82149668D02*
X62396603Y82110620D01*
X62396603Y82110620D02*
X62435651Y82032525D01*
X62435651Y82032525D02*
X62435651Y81915382D01*
X62435651Y81915382D02*
X62396603Y81837287D01*
X62396603Y81837287D02*
X62357556Y81798239D01*
X62357556Y81798239D02*
X62279461Y81759192D01*
X62279461Y81759192D02*
X61967080Y81759192D01*
X61967080Y81759192D02*
X61967080Y82579192D01*
X61967080Y82579192D02*
X62240413Y82579192D01*
X62240413Y82579192D02*
X62318508Y82540144D01*
X62318508Y82540144D02*
X62357556Y82501097D01*
X62357556Y82501097D02*
X62396603Y82423001D01*
X62396603Y82423001D02*
X62396603Y82344906D01*
X62396603Y82344906D02*
X62357556Y82266811D01*
X62357556Y82266811D02*
X62318508Y82227763D01*
X62318508Y82227763D02*
X62240413Y82188716D01*
X62240413Y82188716D02*
X61967080Y82188716D01*
X62787080Y82579192D02*
X62787080Y81915382D01*
X62787080Y81915382D02*
X62826127Y81837287D01*
X62826127Y81837287D02*
X62865175Y81798239D01*
X62865175Y81798239D02*
X62943270Y81759192D01*
X62943270Y81759192D02*
X63099461Y81759192D01*
X63099461Y81759192D02*
X63177556Y81798239D01*
X63177556Y81798239D02*
X63216603Y81837287D01*
X63216603Y81837287D02*
X63255651Y81915382D01*
X63255651Y81915382D02*
X63255651Y82579192D01*
X63528985Y82579192D02*
X63997556Y82579192D01*
X63763270Y81759192D02*
X63763270Y82579192D01*
X64153747Y82579192D02*
X64622318Y82579192D01*
X64388032Y81759192D02*
X64388032Y82579192D01*
X65051842Y82579192D02*
X65208033Y82579192D01*
X65208033Y82579192D02*
X65286128Y82540144D01*
X65286128Y82540144D02*
X65364223Y82462049D01*
X65364223Y82462049D02*
X65403271Y82305859D01*
X65403271Y82305859D02*
X65403271Y82032525D01*
X65403271Y82032525D02*
X65364223Y81876335D01*
X65364223Y81876335D02*
X65286128Y81798239D01*
X65286128Y81798239D02*
X65208033Y81759192D01*
X65208033Y81759192D02*
X65051842Y81759192D01*
X65051842Y81759192D02*
X64973747Y81798239D01*
X64973747Y81798239D02*
X64895652Y81876335D01*
X64895652Y81876335D02*
X64856604Y82032525D01*
X64856604Y82032525D02*
X64856604Y82305859D01*
X64856604Y82305859D02*
X64895652Y82462049D01*
X64895652Y82462049D02*
X64973747Y82540144D01*
X64973747Y82540144D02*
X65051842Y82579192D01*
X65754700Y81759192D02*
X65754700Y82579192D01*
X65754700Y82579192D02*
X66223271Y81759192D01*
X66223271Y81759192D02*
X66223271Y82579192D01*
X67199462Y82501097D02*
X67238510Y82540144D01*
X67238510Y82540144D02*
X67316605Y82579192D01*
X67316605Y82579192D02*
X67511843Y82579192D01*
X67511843Y82579192D02*
X67589938Y82540144D01*
X67589938Y82540144D02*
X67628986Y82501097D01*
X67628986Y82501097D02*
X67668033Y82423001D01*
X67668033Y82423001D02*
X67668033Y82344906D01*
X67668033Y82344906D02*
X67628986Y82227763D01*
X67628986Y82227763D02*
X67160414Y81759192D01*
X67160414Y81759192D02*
X67668033Y81759192D01*
X68207080Y85629192D02*
X68207080Y86449192D01*
X68207080Y86449192D02*
X68402318Y86449192D01*
X68402318Y86449192D02*
X68519461Y86410144D01*
X68519461Y86410144D02*
X68597556Y86332049D01*
X68597556Y86332049D02*
X68636603Y86253954D01*
X68636603Y86253954D02*
X68675651Y86097763D01*
X68675651Y86097763D02*
X68675651Y85980620D01*
X68675651Y85980620D02*
X68636603Y85824430D01*
X68636603Y85824430D02*
X68597556Y85746335D01*
X68597556Y85746335D02*
X68519461Y85668239D01*
X68519461Y85668239D02*
X68402318Y85629192D01*
X68402318Y85629192D02*
X68207080Y85629192D01*
X69183270Y86449192D02*
X69339461Y86449192D01*
X69339461Y86449192D02*
X69417556Y86410144D01*
X69417556Y86410144D02*
X69495651Y86332049D01*
X69495651Y86332049D02*
X69534699Y86175859D01*
X69534699Y86175859D02*
X69534699Y85902525D01*
X69534699Y85902525D02*
X69495651Y85746335D01*
X69495651Y85746335D02*
X69417556Y85668239D01*
X69417556Y85668239D02*
X69339461Y85629192D01*
X69339461Y85629192D02*
X69183270Y85629192D01*
X69183270Y85629192D02*
X69105175Y85668239D01*
X69105175Y85668239D02*
X69027080Y85746335D01*
X69027080Y85746335D02*
X68988032Y85902525D01*
X68988032Y85902525D02*
X68988032Y86175859D01*
X68988032Y86175859D02*
X69027080Y86332049D01*
X69027080Y86332049D02*
X69105175Y86410144D01*
X69105175Y86410144D02*
X69183270Y86449192D01*
X69808032Y86449192D02*
X70003270Y85629192D01*
X70003270Y85629192D02*
X70159461Y86214906D01*
X70159461Y86214906D02*
X70315651Y85629192D01*
X70315651Y85629192D02*
X70510890Y86449192D01*
X70823271Y85629192D02*
X70823271Y86449192D01*
X70823271Y86449192D02*
X71291842Y85629192D01*
X71291842Y85629192D02*
X71291842Y86449192D01*
D12*
X115644392Y21105181D02*
X115644392Y22105181D01*
X115644392Y22105181D02*
X116025344Y22105181D01*
X116025344Y22105181D02*
X116120582Y22057562D01*
X116120582Y22057562D02*
X116168201Y22009943D01*
X116168201Y22009943D02*
X116215820Y21914705D01*
X116215820Y21914705D02*
X116215820Y21771848D01*
X116215820Y21771848D02*
X116168201Y21676610D01*
X116168201Y21676610D02*
X116120582Y21628991D01*
X116120582Y21628991D02*
X116025344Y21581372D01*
X116025344Y21581372D02*
X115644392Y21581372D01*
X116787249Y21676610D02*
X116692011Y21724229D01*
X116692011Y21724229D02*
X116644392Y21771848D01*
X116644392Y21771848D02*
X116596773Y21867086D01*
X116596773Y21867086D02*
X116596773Y21914705D01*
X116596773Y21914705D02*
X116644392Y22009943D01*
X116644392Y22009943D02*
X116692011Y22057562D01*
X116692011Y22057562D02*
X116787249Y22105181D01*
X116787249Y22105181D02*
X116977725Y22105181D01*
X116977725Y22105181D02*
X117072963Y22057562D01*
X117072963Y22057562D02*
X117120582Y22009943D01*
X117120582Y22009943D02*
X117168201Y21914705D01*
X117168201Y21914705D02*
X117168201Y21867086D01*
X117168201Y21867086D02*
X117120582Y21771848D01*
X117120582Y21771848D02*
X117072963Y21724229D01*
X117072963Y21724229D02*
X116977725Y21676610D01*
X116977725Y21676610D02*
X116787249Y21676610D01*
X116787249Y21676610D02*
X116692011Y21628991D01*
X116692011Y21628991D02*
X116644392Y21581372D01*
X116644392Y21581372D02*
X116596773Y21486134D01*
X116596773Y21486134D02*
X116596773Y21295658D01*
X116596773Y21295658D02*
X116644392Y21200420D01*
X116644392Y21200420D02*
X116692011Y21152800D01*
X116692011Y21152800D02*
X116787249Y21105181D01*
X116787249Y21105181D02*
X116977725Y21105181D01*
X116977725Y21105181D02*
X117072963Y21152800D01*
X117072963Y21152800D02*
X117120582Y21200420D01*
X117120582Y21200420D02*
X117168201Y21295658D01*
X117168201Y21295658D02*
X117168201Y21486134D01*
X117168201Y21486134D02*
X117120582Y21581372D01*
X117120582Y21581372D02*
X117072963Y21628991D01*
X117072963Y21628991D02*
X116977725Y21676610D01*
X74044392Y47805181D02*
X74044392Y48805181D01*
X74044392Y48805181D02*
X74425344Y48805181D01*
X74425344Y48805181D02*
X74520582Y48757562D01*
X74520582Y48757562D02*
X74568201Y48709943D01*
X74568201Y48709943D02*
X74615820Y48614705D01*
X74615820Y48614705D02*
X74615820Y48471848D01*
X74615820Y48471848D02*
X74568201Y48376610D01*
X74568201Y48376610D02*
X74520582Y48328991D01*
X74520582Y48328991D02*
X74425344Y48281372D01*
X74425344Y48281372D02*
X74044392Y48281372D01*
X75520582Y48805181D02*
X75044392Y48805181D01*
X75044392Y48805181D02*
X74996773Y48328991D01*
X74996773Y48328991D02*
X75044392Y48376610D01*
X75044392Y48376610D02*
X75139630Y48424229D01*
X75139630Y48424229D02*
X75377725Y48424229D01*
X75377725Y48424229D02*
X75472963Y48376610D01*
X75472963Y48376610D02*
X75520582Y48328991D01*
X75520582Y48328991D02*
X75568201Y48233753D01*
X75568201Y48233753D02*
X75568201Y47995658D01*
X75568201Y47995658D02*
X75520582Y47900420D01*
X75520582Y47900420D02*
X75472963Y47852800D01*
X75472963Y47852800D02*
X75377725Y47805181D01*
X75377725Y47805181D02*
X75139630Y47805181D01*
X75139630Y47805181D02*
X75044392Y47852800D01*
X75044392Y47852800D02*
X74996773Y47900420D01*
X14449942Y61496905D02*
X14497561Y61449286D01*
X14497561Y61449286D02*
X14545180Y61354048D01*
X14545180Y61354048D02*
X14545180Y61115953D01*
X14545180Y61115953D02*
X14497561Y61020715D01*
X14497561Y61020715D02*
X14449942Y60973096D01*
X14449942Y60973096D02*
X14354704Y60925477D01*
X14354704Y60925477D02*
X14259466Y60925477D01*
X14259466Y60925477D02*
X14116609Y60973096D01*
X14116609Y60973096D02*
X13545180Y61544524D01*
X13545180Y61544524D02*
X13545180Y60925477D01*
X14545180Y60020715D02*
X14545180Y60496905D01*
X14545180Y60496905D02*
X14068990Y60544524D01*
X14068990Y60544524D02*
X14116609Y60496905D01*
X14116609Y60496905D02*
X14164228Y60401667D01*
X14164228Y60401667D02*
X14164228Y60163572D01*
X14164228Y60163572D02*
X14116609Y60068334D01*
X14116609Y60068334D02*
X14068990Y60020715D01*
X14068990Y60020715D02*
X13973752Y59973096D01*
X13973752Y59973096D02*
X13735657Y59973096D01*
X13735657Y59973096D02*
X13640419Y60020715D01*
X13640419Y60020715D02*
X13592800Y60068334D01*
X13592800Y60068334D02*
X13545180Y60163572D01*
X13545180Y60163572D02*
X13545180Y60401667D01*
X13545180Y60401667D02*
X13592800Y60496905D01*
X13592800Y60496905D02*
X13640419Y60544524D01*
X12045180Y60044524D02*
X12045180Y59425477D01*
X12045180Y59425477D02*
X11664228Y59758810D01*
X11664228Y59758810D02*
X11664228Y59615953D01*
X11664228Y59615953D02*
X11616609Y59520715D01*
X11616609Y59520715D02*
X11568990Y59473096D01*
X11568990Y59473096D02*
X11473752Y59425477D01*
X11473752Y59425477D02*
X11235657Y59425477D01*
X11235657Y59425477D02*
X11140419Y59473096D01*
X11140419Y59473096D02*
X11092800Y59520715D01*
X11092800Y59520715D02*
X11045180Y59615953D01*
X11045180Y59615953D02*
X11045180Y59901667D01*
X11045180Y59901667D02*
X11092800Y59996905D01*
X11092800Y59996905D02*
X11140419Y60044524D01*
X11711847Y58568334D02*
X11045180Y58568334D01*
X12092800Y58806429D02*
X11378514Y59044524D01*
X11378514Y59044524D02*
X11378514Y58425477D01*
X11949942Y89996905D02*
X11997561Y89949286D01*
X11997561Y89949286D02*
X12045180Y89854048D01*
X12045180Y89854048D02*
X12045180Y89615953D01*
X12045180Y89615953D02*
X11997561Y89520715D01*
X11997561Y89520715D02*
X11949942Y89473096D01*
X11949942Y89473096D02*
X11854704Y89425477D01*
X11854704Y89425477D02*
X11759466Y89425477D01*
X11759466Y89425477D02*
X11616609Y89473096D01*
X11616609Y89473096D02*
X11045180Y90044524D01*
X11045180Y90044524D02*
X11045180Y89425477D01*
X12045180Y88568334D02*
X12045180Y88758810D01*
X12045180Y88758810D02*
X11997561Y88854048D01*
X11997561Y88854048D02*
X11949942Y88901667D01*
X11949942Y88901667D02*
X11807085Y88996905D01*
X11807085Y88996905D02*
X11616609Y89044524D01*
X11616609Y89044524D02*
X11235657Y89044524D01*
X11235657Y89044524D02*
X11140419Y88996905D01*
X11140419Y88996905D02*
X11092800Y88949286D01*
X11092800Y88949286D02*
X11045180Y88854048D01*
X11045180Y88854048D02*
X11045180Y88663572D01*
X11045180Y88663572D02*
X11092800Y88568334D01*
X11092800Y88568334D02*
X11140419Y88520715D01*
X11140419Y88520715D02*
X11235657Y88473096D01*
X11235657Y88473096D02*
X11473752Y88473096D01*
X11473752Y88473096D02*
X11568990Y88520715D01*
X11568990Y88520715D02*
X11616609Y88568334D01*
X11616609Y88568334D02*
X11664228Y88663572D01*
X11664228Y88663572D02*
X11664228Y88854048D01*
X11664228Y88854048D02*
X11616609Y88949286D01*
X11616609Y88949286D02*
X11568990Y88996905D01*
X11568990Y88996905D02*
X11473752Y89044524D01*
X13545180Y87925477D02*
X13545180Y88496905D01*
X13545180Y88211191D02*
X14545180Y88211191D01*
X14545180Y88211191D02*
X14402323Y88306429D01*
X14402323Y88306429D02*
X14307085Y88401667D01*
X14307085Y88401667D02*
X14259466Y88496905D01*
X14116609Y87354048D02*
X14164228Y87449286D01*
X14164228Y87449286D02*
X14211847Y87496905D01*
X14211847Y87496905D02*
X14307085Y87544524D01*
X14307085Y87544524D02*
X14354704Y87544524D01*
X14354704Y87544524D02*
X14449942Y87496905D01*
X14449942Y87496905D02*
X14497561Y87449286D01*
X14497561Y87449286D02*
X14545180Y87354048D01*
X14545180Y87354048D02*
X14545180Y87163572D01*
X14545180Y87163572D02*
X14497561Y87068334D01*
X14497561Y87068334D02*
X14449942Y87020715D01*
X14449942Y87020715D02*
X14354704Y86973096D01*
X14354704Y86973096D02*
X14307085Y86973096D01*
X14307085Y86973096D02*
X14211847Y87020715D01*
X14211847Y87020715D02*
X14164228Y87068334D01*
X14164228Y87068334D02*
X14116609Y87163572D01*
X14116609Y87163572D02*
X14116609Y87354048D01*
X14116609Y87354048D02*
X14068990Y87449286D01*
X14068990Y87449286D02*
X14021371Y87496905D01*
X14021371Y87496905D02*
X13926133Y87544524D01*
X13926133Y87544524D02*
X13735657Y87544524D01*
X13735657Y87544524D02*
X13640419Y87496905D01*
X13640419Y87496905D02*
X13592800Y87449286D01*
X13592800Y87449286D02*
X13545180Y87354048D01*
X13545180Y87354048D02*
X13545180Y87163572D01*
X13545180Y87163572D02*
X13592800Y87068334D01*
X13592800Y87068334D02*
X13640419Y87020715D01*
X13640419Y87020715D02*
X13735657Y86973096D01*
X13735657Y86973096D02*
X13926133Y86973096D01*
X13926133Y86973096D02*
X14021371Y87020715D01*
X14021371Y87020715D02*
X14068990Y87068334D01*
X14068990Y87068334D02*
X14116609Y87163572D01*
X22045180Y58925476D02*
X22045180Y58735000D01*
X22045180Y58735000D02*
X22092800Y58639762D01*
X22092800Y58639762D02*
X22140419Y58592143D01*
X22140419Y58592143D02*
X22283276Y58496905D01*
X22283276Y58496905D02*
X22473752Y58449286D01*
X22473752Y58449286D02*
X22854704Y58449286D01*
X22854704Y58449286D02*
X22949942Y58496905D01*
X22949942Y58496905D02*
X22997561Y58544524D01*
X22997561Y58544524D02*
X23045180Y58639762D01*
X23045180Y58639762D02*
X23045180Y58830238D01*
X23045180Y58830238D02*
X22997561Y58925476D01*
X22997561Y58925476D02*
X22949942Y58973095D01*
X22949942Y58973095D02*
X22854704Y59020714D01*
X22854704Y59020714D02*
X22616609Y59020714D01*
X22616609Y59020714D02*
X22521371Y58973095D01*
X22521371Y58973095D02*
X22473752Y58925476D01*
X22473752Y58925476D02*
X22426133Y58830238D01*
X22426133Y58830238D02*
X22426133Y58639762D01*
X22426133Y58639762D02*
X22473752Y58544524D01*
X22473752Y58544524D02*
X22521371Y58496905D01*
X22521371Y58496905D02*
X22616609Y58449286D01*
X19545180Y61425477D02*
X19545180Y61996905D01*
X19545180Y61711191D02*
X20545180Y61711191D01*
X20545180Y61711191D02*
X20402323Y61806429D01*
X20402323Y61806429D02*
X20307085Y61901667D01*
X20307085Y61901667D02*
X20259466Y61996905D01*
X20545180Y61092143D02*
X20545180Y60425477D01*
X20545180Y60425477D02*
X19545180Y60854048D01*
X21995180Y89149286D02*
X21995180Y89720714D01*
X21995180Y89435000D02*
X22995180Y89435000D01*
X22995180Y89435000D02*
X22852323Y89530238D01*
X22852323Y89530238D02*
X22757085Y89625476D01*
X22757085Y89625476D02*
X22709466Y89720714D01*
X18545180Y87925477D02*
X18545180Y88496905D01*
X18545180Y88211191D02*
X19545180Y88211191D01*
X19545180Y88211191D02*
X19402323Y88306429D01*
X19402323Y88306429D02*
X19307085Y88401667D01*
X19307085Y88401667D02*
X19259466Y88496905D01*
X19545180Y87306429D02*
X19545180Y87211191D01*
X19545180Y87211191D02*
X19497561Y87115953D01*
X19497561Y87115953D02*
X19449942Y87068334D01*
X19449942Y87068334D02*
X19354704Y87020715D01*
X19354704Y87020715D02*
X19164228Y86973096D01*
X19164228Y86973096D02*
X18926133Y86973096D01*
X18926133Y86973096D02*
X18735657Y87020715D01*
X18735657Y87020715D02*
X18640419Y87068334D01*
X18640419Y87068334D02*
X18592800Y87115953D01*
X18592800Y87115953D02*
X18545180Y87211191D01*
X18545180Y87211191D02*
X18545180Y87306429D01*
X18545180Y87306429D02*
X18592800Y87401667D01*
X18592800Y87401667D02*
X18640419Y87449286D01*
X18640419Y87449286D02*
X18735657Y87496905D01*
X18735657Y87496905D02*
X18926133Y87544524D01*
X18926133Y87544524D02*
X19164228Y87544524D01*
X19164228Y87544524D02*
X19354704Y87496905D01*
X19354704Y87496905D02*
X19449942Y87449286D01*
X19449942Y87449286D02*
X19497561Y87401667D01*
X19497561Y87401667D02*
X19545180Y87306429D01*
X37508201Y8955181D02*
X37508201Y9955181D01*
X37508201Y9955181D02*
X37889153Y9955181D01*
X37889153Y9955181D02*
X37984391Y9907562D01*
X37984391Y9907562D02*
X38032010Y9859943D01*
X38032010Y9859943D02*
X38079629Y9764705D01*
X38079629Y9764705D02*
X38079629Y9621848D01*
X38079629Y9621848D02*
X38032010Y9526610D01*
X38032010Y9526610D02*
X37984391Y9478991D01*
X37984391Y9478991D02*
X37889153Y9431372D01*
X37889153Y9431372D02*
X37508201Y9431372D01*
X39032010Y8955181D02*
X38460582Y8955181D01*
X38746296Y8955181D02*
X38746296Y9955181D01*
X38746296Y9955181D02*
X38651058Y9812324D01*
X38651058Y9812324D02*
X38555820Y9717086D01*
X38555820Y9717086D02*
X38460582Y9669467D01*
X39936772Y9955181D02*
X39460582Y9955181D01*
X39460582Y9955181D02*
X39412963Y9478991D01*
X39412963Y9478991D02*
X39460582Y9526610D01*
X39460582Y9526610D02*
X39555820Y9574229D01*
X39555820Y9574229D02*
X39793915Y9574229D01*
X39793915Y9574229D02*
X39889153Y9526610D01*
X39889153Y9526610D02*
X39936772Y9478991D01*
X39936772Y9478991D02*
X39984391Y9383753D01*
X39984391Y9383753D02*
X39984391Y9145658D01*
X39984391Y9145658D02*
X39936772Y9050420D01*
X39936772Y9050420D02*
X39889153Y9002800D01*
X39889153Y9002800D02*
X39793915Y8955181D01*
X39793915Y8955181D02*
X39555820Y8955181D01*
X39555820Y8955181D02*
X39460582Y9002800D01*
X39460582Y9002800D02*
X39412963Y9050420D01*
D14*
X51328487Y21063232D02*
X51074487Y21063232D01*
X51074487Y20664089D02*
X51074487Y21426089D01*
X51074487Y21426089D02*
X51437344Y21426089D01*
X52054202Y21172089D02*
X52054202Y20664089D01*
X51872773Y21462374D02*
X51691344Y20918089D01*
X51691344Y20918089D02*
X52163059Y20918089D01*
D12*
X57836666Y36228991D02*
X57503333Y36228991D01*
X57503333Y35705181D02*
X57503333Y36705181D01*
X57503333Y36705181D02*
X57979523Y36705181D01*
X58408095Y35705181D02*
X58598571Y35705181D01*
X58598571Y35705181D02*
X58693809Y35752800D01*
X58693809Y35752800D02*
X58741428Y35800420D01*
X58741428Y35800420D02*
X58836666Y35943277D01*
X58836666Y35943277D02*
X58884285Y36133753D01*
X58884285Y36133753D02*
X58884285Y36514705D01*
X58884285Y36514705D02*
X58836666Y36609943D01*
X58836666Y36609943D02*
X58789047Y36657562D01*
X58789047Y36657562D02*
X58693809Y36705181D01*
X58693809Y36705181D02*
X58503333Y36705181D01*
X58503333Y36705181D02*
X58408095Y36657562D01*
X58408095Y36657562D02*
X58360476Y36609943D01*
X58360476Y36609943D02*
X58312857Y36514705D01*
X58312857Y36514705D02*
X58312857Y36276610D01*
X58312857Y36276610D02*
X58360476Y36181372D01*
X58360476Y36181372D02*
X58408095Y36133753D01*
X58408095Y36133753D02*
X58503333Y36086134D01*
X58503333Y36086134D02*
X58693809Y36086134D01*
X58693809Y36086134D02*
X58789047Y36133753D01*
X58789047Y36133753D02*
X58836666Y36181372D01*
X58836666Y36181372D02*
X58884285Y36276610D01*
X111353999Y11647131D02*
X111353999Y10932846D01*
X111353999Y10932846D02*
X111306380Y10789989D01*
X111306380Y10789989D02*
X111211142Y10694750D01*
X111211142Y10694750D02*
X111068285Y10647131D01*
X111068285Y10647131D02*
X110973047Y10647131D01*
X111734952Y11647131D02*
X112401618Y11647131D01*
X112401618Y11647131D02*
X111973047Y10647131D01*
X56889166Y51928991D02*
X56555833Y51928991D01*
X56555833Y51405181D02*
X56555833Y52405181D01*
X56555833Y52405181D02*
X57032023Y52405181D01*
X57841547Y52405181D02*
X57651071Y52405181D01*
X57651071Y52405181D02*
X57555833Y52357562D01*
X57555833Y52357562D02*
X57508214Y52309943D01*
X57508214Y52309943D02*
X57412976Y52167086D01*
X57412976Y52167086D02*
X57365357Y51976610D01*
X57365357Y51976610D02*
X57365357Y51595658D01*
X57365357Y51595658D02*
X57412976Y51500420D01*
X57412976Y51500420D02*
X57460595Y51452800D01*
X57460595Y51452800D02*
X57555833Y51405181D01*
X57555833Y51405181D02*
X57746309Y51405181D01*
X57746309Y51405181D02*
X57841547Y51452800D01*
X57841547Y51452800D02*
X57889166Y51500420D01*
X57889166Y51500420D02*
X57936785Y51595658D01*
X57936785Y51595658D02*
X57936785Y51833753D01*
X57936785Y51833753D02*
X57889166Y51928991D01*
X57889166Y51928991D02*
X57841547Y51976610D01*
X57841547Y51976610D02*
X57746309Y52024229D01*
X57746309Y52024229D02*
X57555833Y52024229D01*
X57555833Y52024229D02*
X57460595Y51976610D01*
X57460595Y51976610D02*
X57412976Y51928991D01*
X57412976Y51928991D02*
X57365357Y51833753D01*
X94944392Y9305181D02*
X94944392Y10305181D01*
X94944392Y10305181D02*
X95325344Y10305181D01*
X95325344Y10305181D02*
X95420582Y10257562D01*
X95420582Y10257562D02*
X95468201Y10209943D01*
X95468201Y10209943D02*
X95515820Y10114705D01*
X95515820Y10114705D02*
X95515820Y9971848D01*
X95515820Y9971848D02*
X95468201Y9876610D01*
X95468201Y9876610D02*
X95420582Y9828991D01*
X95420582Y9828991D02*
X95325344Y9781372D01*
X95325344Y9781372D02*
X94944392Y9781372D01*
X96372963Y9971848D02*
X96372963Y9305181D01*
X96134868Y10352800D02*
X95896773Y9638515D01*
X95896773Y9638515D02*
X96515820Y9638515D01*
X34494920Y8902346D02*
X34494920Y9902346D01*
X34494920Y9902346D02*
X34875872Y9902346D01*
X34875872Y9902346D02*
X34971110Y9854727D01*
X34971110Y9854727D02*
X35018729Y9807108D01*
X35018729Y9807108D02*
X35066348Y9711870D01*
X35066348Y9711870D02*
X35066348Y9569013D01*
X35066348Y9569013D02*
X35018729Y9473775D01*
X35018729Y9473775D02*
X34971110Y9426156D01*
X34971110Y9426156D02*
X34875872Y9378537D01*
X34875872Y9378537D02*
X34494920Y9378537D01*
X36018729Y8902346D02*
X35447301Y8902346D01*
X35733015Y8902346D02*
X35733015Y9902346D01*
X35733015Y9902346D02*
X35637777Y9759489D01*
X35637777Y9759489D02*
X35542539Y9664251D01*
X35542539Y9664251D02*
X35447301Y9616632D01*
X36352063Y9902346D02*
X37018729Y9902346D01*
X37018729Y9902346D02*
X36590158Y8902346D01*
X56580476Y34268991D02*
X56247143Y34268991D01*
X56247143Y33745181D02*
X56247143Y34745181D01*
X56247143Y34745181D02*
X56723333Y34745181D01*
X57628095Y33745181D02*
X57056667Y33745181D01*
X57342381Y33745181D02*
X57342381Y34745181D01*
X57342381Y34745181D02*
X57247143Y34602324D01*
X57247143Y34602324D02*
X57151905Y34507086D01*
X57151905Y34507086D02*
X57056667Y34459467D01*
X58247143Y34745181D02*
X58342381Y34745181D01*
X58342381Y34745181D02*
X58437619Y34697562D01*
X58437619Y34697562D02*
X58485238Y34649943D01*
X58485238Y34649943D02*
X58532857Y34554705D01*
X58532857Y34554705D02*
X58580476Y34364229D01*
X58580476Y34364229D02*
X58580476Y34126134D01*
X58580476Y34126134D02*
X58532857Y33935658D01*
X58532857Y33935658D02*
X58485238Y33840420D01*
X58485238Y33840420D02*
X58437619Y33792800D01*
X58437619Y33792800D02*
X58342381Y33745181D01*
X58342381Y33745181D02*
X58247143Y33745181D01*
X58247143Y33745181D02*
X58151905Y33792800D01*
X58151905Y33792800D02*
X58104286Y33840420D01*
X58104286Y33840420D02*
X58056667Y33935658D01*
X58056667Y33935658D02*
X58009048Y34126134D01*
X58009048Y34126134D02*
X58009048Y34364229D01*
X58009048Y34364229D02*
X58056667Y34554705D01*
X58056667Y34554705D02*
X58104286Y34649943D01*
X58104286Y34649943D02*
X58151905Y34697562D01*
X58151905Y34697562D02*
X58247143Y34745181D01*
X88187306Y4376667D02*
X88901591Y4376667D01*
X88901591Y4376667D02*
X89044448Y4329048D01*
X89044448Y4329048D02*
X89139687Y4233810D01*
X89139687Y4233810D02*
X89187306Y4090953D01*
X89187306Y4090953D02*
X89187306Y3995715D01*
X88615877Y4995715D02*
X88568258Y4900477D01*
X88568258Y4900477D02*
X88520639Y4852858D01*
X88520639Y4852858D02*
X88425401Y4805239D01*
X88425401Y4805239D02*
X88377782Y4805239D01*
X88377782Y4805239D02*
X88282544Y4852858D01*
X88282544Y4852858D02*
X88234925Y4900477D01*
X88234925Y4900477D02*
X88187306Y4995715D01*
X88187306Y4995715D02*
X88187306Y5186191D01*
X88187306Y5186191D02*
X88234925Y5281429D01*
X88234925Y5281429D02*
X88282544Y5329048D01*
X88282544Y5329048D02*
X88377782Y5376667D01*
X88377782Y5376667D02*
X88425401Y5376667D01*
X88425401Y5376667D02*
X88520639Y5329048D01*
X88520639Y5329048D02*
X88568258Y5281429D01*
X88568258Y5281429D02*
X88615877Y5186191D01*
X88615877Y5186191D02*
X88615877Y4995715D01*
X88615877Y4995715D02*
X88663496Y4900477D01*
X88663496Y4900477D02*
X88711115Y4852858D01*
X88711115Y4852858D02*
X88806353Y4805239D01*
X88806353Y4805239D02*
X88996829Y4805239D01*
X88996829Y4805239D02*
X89092067Y4852858D01*
X89092067Y4852858D02*
X89139687Y4900477D01*
X89139687Y4900477D02*
X89187306Y4995715D01*
X89187306Y4995715D02*
X89187306Y5186191D01*
X89187306Y5186191D02*
X89139687Y5281429D01*
X89139687Y5281429D02*
X89092067Y5329048D01*
X89092067Y5329048D02*
X88996829Y5376667D01*
X88996829Y5376667D02*
X88806353Y5376667D01*
X88806353Y5376667D02*
X88711115Y5329048D01*
X88711115Y5329048D02*
X88663496Y5281429D01*
X88663496Y5281429D02*
X88615877Y5186191D01*
D14*
X53528487Y21063232D02*
X53274487Y21063232D01*
X53274487Y20664089D02*
X53274487Y21426089D01*
X53274487Y21426089D02*
X53637344Y21426089D01*
X53855059Y21426089D02*
X54326773Y21426089D01*
X54326773Y21426089D02*
X54072773Y21135803D01*
X54072773Y21135803D02*
X54181630Y21135803D01*
X54181630Y21135803D02*
X54254202Y21099517D01*
X54254202Y21099517D02*
X54290487Y21063232D01*
X54290487Y21063232D02*
X54326773Y20990660D01*
X54326773Y20990660D02*
X54326773Y20809232D01*
X54326773Y20809232D02*
X54290487Y20736660D01*
X54290487Y20736660D02*
X54254202Y20700374D01*
X54254202Y20700374D02*
X54181630Y20664089D01*
X54181630Y20664089D02*
X53963916Y20664089D01*
X53963916Y20664089D02*
X53891344Y20700374D01*
X53891344Y20700374D02*
X53855059Y20736660D01*
D12*
X52007082Y11977979D02*
X52007082Y12977979D01*
X52007082Y12977979D02*
X52388034Y12977979D01*
X52388034Y12977979D02*
X52483272Y12930360D01*
X52483272Y12930360D02*
X52530891Y12882741D01*
X52530891Y12882741D02*
X52578510Y12787503D01*
X52578510Y12787503D02*
X52578510Y12644646D01*
X52578510Y12644646D02*
X52530891Y12549408D01*
X52530891Y12549408D02*
X52483272Y12501789D01*
X52483272Y12501789D02*
X52388034Y12454170D01*
X52388034Y12454170D02*
X52007082Y12454170D01*
X53530891Y11977979D02*
X52959463Y11977979D01*
X53245177Y11977979D02*
X53245177Y12977979D01*
X53245177Y12977979D02*
X53149939Y12835122D01*
X53149939Y12835122D02*
X53054701Y12739884D01*
X53054701Y12739884D02*
X52959463Y12692265D01*
X54102320Y12549408D02*
X54007082Y12597027D01*
X54007082Y12597027D02*
X53959463Y12644646D01*
X53959463Y12644646D02*
X53911844Y12739884D01*
X53911844Y12739884D02*
X53911844Y12787503D01*
X53911844Y12787503D02*
X53959463Y12882741D01*
X53959463Y12882741D02*
X54007082Y12930360D01*
X54007082Y12930360D02*
X54102320Y12977979D01*
X54102320Y12977979D02*
X54292796Y12977979D01*
X54292796Y12977979D02*
X54388034Y12930360D01*
X54388034Y12930360D02*
X54435653Y12882741D01*
X54435653Y12882741D02*
X54483272Y12787503D01*
X54483272Y12787503D02*
X54483272Y12739884D01*
X54483272Y12739884D02*
X54435653Y12644646D01*
X54435653Y12644646D02*
X54388034Y12597027D01*
X54388034Y12597027D02*
X54292796Y12549408D01*
X54292796Y12549408D02*
X54102320Y12549408D01*
X54102320Y12549408D02*
X54007082Y12501789D01*
X54007082Y12501789D02*
X53959463Y12454170D01*
X53959463Y12454170D02*
X53911844Y12358932D01*
X53911844Y12358932D02*
X53911844Y12168456D01*
X53911844Y12168456D02*
X53959463Y12073218D01*
X53959463Y12073218D02*
X54007082Y12025598D01*
X54007082Y12025598D02*
X54102320Y11977979D01*
X54102320Y11977979D02*
X54292796Y11977979D01*
X54292796Y11977979D02*
X54388034Y12025598D01*
X54388034Y12025598D02*
X54435653Y12073218D01*
X54435653Y12073218D02*
X54483272Y12168456D01*
X54483272Y12168456D02*
X54483272Y12358932D01*
X54483272Y12358932D02*
X54435653Y12454170D01*
X54435653Y12454170D02*
X54388034Y12501789D01*
X54388034Y12501789D02*
X54292796Y12549408D01*
X21995180Y39599286D02*
X21995180Y40170714D01*
X21995180Y39885000D02*
X22995180Y39885000D01*
X22995180Y39885000D02*
X22852323Y39980238D01*
X22852323Y39980238D02*
X22757085Y40075476D01*
X22757085Y40075476D02*
X22709466Y40170714D01*
X19545180Y11875477D02*
X19545180Y12446905D01*
X19545180Y12161191D02*
X20545180Y12161191D01*
X20545180Y12161191D02*
X20402323Y12256429D01*
X20402323Y12256429D02*
X20307085Y12351667D01*
X20307085Y12351667D02*
X20259466Y12446905D01*
X20545180Y11542143D02*
X20545180Y10875477D01*
X20545180Y10875477D02*
X19545180Y11304048D01*
X11949942Y40446905D02*
X11997561Y40399286D01*
X11997561Y40399286D02*
X12045180Y40304048D01*
X12045180Y40304048D02*
X12045180Y40065953D01*
X12045180Y40065953D02*
X11997561Y39970715D01*
X11997561Y39970715D02*
X11949942Y39923096D01*
X11949942Y39923096D02*
X11854704Y39875477D01*
X11854704Y39875477D02*
X11759466Y39875477D01*
X11759466Y39875477D02*
X11616609Y39923096D01*
X11616609Y39923096D02*
X11045180Y40494524D01*
X11045180Y40494524D02*
X11045180Y39875477D01*
X12045180Y39018334D02*
X12045180Y39208810D01*
X12045180Y39208810D02*
X11997561Y39304048D01*
X11997561Y39304048D02*
X11949942Y39351667D01*
X11949942Y39351667D02*
X11807085Y39446905D01*
X11807085Y39446905D02*
X11616609Y39494524D01*
X11616609Y39494524D02*
X11235657Y39494524D01*
X11235657Y39494524D02*
X11140419Y39446905D01*
X11140419Y39446905D02*
X11092800Y39399286D01*
X11092800Y39399286D02*
X11045180Y39304048D01*
X11045180Y39304048D02*
X11045180Y39113572D01*
X11045180Y39113572D02*
X11092800Y39018334D01*
X11092800Y39018334D02*
X11140419Y38970715D01*
X11140419Y38970715D02*
X11235657Y38923096D01*
X11235657Y38923096D02*
X11473752Y38923096D01*
X11473752Y38923096D02*
X11568990Y38970715D01*
X11568990Y38970715D02*
X11616609Y39018334D01*
X11616609Y39018334D02*
X11664228Y39113572D01*
X11664228Y39113572D02*
X11664228Y39304048D01*
X11664228Y39304048D02*
X11616609Y39399286D01*
X11616609Y39399286D02*
X11568990Y39446905D01*
X11568990Y39446905D02*
X11473752Y39494524D01*
X18545180Y38375477D02*
X18545180Y38946905D01*
X18545180Y38661191D02*
X19545180Y38661191D01*
X19545180Y38661191D02*
X19402323Y38756429D01*
X19402323Y38756429D02*
X19307085Y38851667D01*
X19307085Y38851667D02*
X19259466Y38946905D01*
X19545180Y37756429D02*
X19545180Y37661191D01*
X19545180Y37661191D02*
X19497561Y37565953D01*
X19497561Y37565953D02*
X19449942Y37518334D01*
X19449942Y37518334D02*
X19354704Y37470715D01*
X19354704Y37470715D02*
X19164228Y37423096D01*
X19164228Y37423096D02*
X18926133Y37423096D01*
X18926133Y37423096D02*
X18735657Y37470715D01*
X18735657Y37470715D02*
X18640419Y37518334D01*
X18640419Y37518334D02*
X18592800Y37565953D01*
X18592800Y37565953D02*
X18545180Y37661191D01*
X18545180Y37661191D02*
X18545180Y37756429D01*
X18545180Y37756429D02*
X18592800Y37851667D01*
X18592800Y37851667D02*
X18640419Y37899286D01*
X18640419Y37899286D02*
X18735657Y37946905D01*
X18735657Y37946905D02*
X18926133Y37994524D01*
X18926133Y37994524D02*
X19164228Y37994524D01*
X19164228Y37994524D02*
X19354704Y37946905D01*
X19354704Y37946905D02*
X19449942Y37899286D01*
X19449942Y37899286D02*
X19497561Y37851667D01*
X19497561Y37851667D02*
X19545180Y37756429D01*
X14449942Y11946905D02*
X14497561Y11899286D01*
X14497561Y11899286D02*
X14545180Y11804048D01*
X14545180Y11804048D02*
X14545180Y11565953D01*
X14545180Y11565953D02*
X14497561Y11470715D01*
X14497561Y11470715D02*
X14449942Y11423096D01*
X14449942Y11423096D02*
X14354704Y11375477D01*
X14354704Y11375477D02*
X14259466Y11375477D01*
X14259466Y11375477D02*
X14116609Y11423096D01*
X14116609Y11423096D02*
X13545180Y11994524D01*
X13545180Y11994524D02*
X13545180Y11375477D01*
X14545180Y10470715D02*
X14545180Y10946905D01*
X14545180Y10946905D02*
X14068990Y10994524D01*
X14068990Y10994524D02*
X14116609Y10946905D01*
X14116609Y10946905D02*
X14164228Y10851667D01*
X14164228Y10851667D02*
X14164228Y10613572D01*
X14164228Y10613572D02*
X14116609Y10518334D01*
X14116609Y10518334D02*
X14068990Y10470715D01*
X14068990Y10470715D02*
X13973752Y10423096D01*
X13973752Y10423096D02*
X13735657Y10423096D01*
X13735657Y10423096D02*
X13640419Y10470715D01*
X13640419Y10470715D02*
X13592800Y10518334D01*
X13592800Y10518334D02*
X13545180Y10613572D01*
X13545180Y10613572D02*
X13545180Y10851667D01*
X13545180Y10851667D02*
X13592800Y10946905D01*
X13592800Y10946905D02*
X13640419Y10994524D01*
X12045180Y10494524D02*
X12045180Y9875477D01*
X12045180Y9875477D02*
X11664228Y10208810D01*
X11664228Y10208810D02*
X11664228Y10065953D01*
X11664228Y10065953D02*
X11616609Y9970715D01*
X11616609Y9970715D02*
X11568990Y9923096D01*
X11568990Y9923096D02*
X11473752Y9875477D01*
X11473752Y9875477D02*
X11235657Y9875477D01*
X11235657Y9875477D02*
X11140419Y9923096D01*
X11140419Y9923096D02*
X11092800Y9970715D01*
X11092800Y9970715D02*
X11045180Y10065953D01*
X11045180Y10065953D02*
X11045180Y10351667D01*
X11045180Y10351667D02*
X11092800Y10446905D01*
X11092800Y10446905D02*
X11140419Y10494524D01*
X11711847Y9018334D02*
X11045180Y9018334D01*
X12092800Y9256429D02*
X11378514Y9494524D01*
X11378514Y9494524D02*
X11378514Y8875477D01*
X22045180Y9375476D02*
X22045180Y9185000D01*
X22045180Y9185000D02*
X22092800Y9089762D01*
X22092800Y9089762D02*
X22140419Y9042143D01*
X22140419Y9042143D02*
X22283276Y8946905D01*
X22283276Y8946905D02*
X22473752Y8899286D01*
X22473752Y8899286D02*
X22854704Y8899286D01*
X22854704Y8899286D02*
X22949942Y8946905D01*
X22949942Y8946905D02*
X22997561Y8994524D01*
X22997561Y8994524D02*
X23045180Y9089762D01*
X23045180Y9089762D02*
X23045180Y9280238D01*
X23045180Y9280238D02*
X22997561Y9375476D01*
X22997561Y9375476D02*
X22949942Y9423095D01*
X22949942Y9423095D02*
X22854704Y9470714D01*
X22854704Y9470714D02*
X22616609Y9470714D01*
X22616609Y9470714D02*
X22521371Y9423095D01*
X22521371Y9423095D02*
X22473752Y9375476D01*
X22473752Y9375476D02*
X22426133Y9280238D01*
X22426133Y9280238D02*
X22426133Y9089762D01*
X22426133Y9089762D02*
X22473752Y8994524D01*
X22473752Y8994524D02*
X22521371Y8946905D01*
X22521371Y8946905D02*
X22616609Y8899286D01*
X13545180Y38375477D02*
X13545180Y38946905D01*
X13545180Y38661191D02*
X14545180Y38661191D01*
X14545180Y38661191D02*
X14402323Y38756429D01*
X14402323Y38756429D02*
X14307085Y38851667D01*
X14307085Y38851667D02*
X14259466Y38946905D01*
X14116609Y37804048D02*
X14164228Y37899286D01*
X14164228Y37899286D02*
X14211847Y37946905D01*
X14211847Y37946905D02*
X14307085Y37994524D01*
X14307085Y37994524D02*
X14354704Y37994524D01*
X14354704Y37994524D02*
X14449942Y37946905D01*
X14449942Y37946905D02*
X14497561Y37899286D01*
X14497561Y37899286D02*
X14545180Y37804048D01*
X14545180Y37804048D02*
X14545180Y37613572D01*
X14545180Y37613572D02*
X14497561Y37518334D01*
X14497561Y37518334D02*
X14449942Y37470715D01*
X14449942Y37470715D02*
X14354704Y37423096D01*
X14354704Y37423096D02*
X14307085Y37423096D01*
X14307085Y37423096D02*
X14211847Y37470715D01*
X14211847Y37470715D02*
X14164228Y37518334D01*
X14164228Y37518334D02*
X14116609Y37613572D01*
X14116609Y37613572D02*
X14116609Y37804048D01*
X14116609Y37804048D02*
X14068990Y37899286D01*
X14068990Y37899286D02*
X14021371Y37946905D01*
X14021371Y37946905D02*
X13926133Y37994524D01*
X13926133Y37994524D02*
X13735657Y37994524D01*
X13735657Y37994524D02*
X13640419Y37946905D01*
X13640419Y37946905D02*
X13592800Y37899286D01*
X13592800Y37899286D02*
X13545180Y37804048D01*
X13545180Y37804048D02*
X13545180Y37613572D01*
X13545180Y37613572D02*
X13592800Y37518334D01*
X13592800Y37518334D02*
X13640419Y37470715D01*
X13640419Y37470715D02*
X13735657Y37423096D01*
X13735657Y37423096D02*
X13926133Y37423096D01*
X13926133Y37423096D02*
X14021371Y37470715D01*
X14021371Y37470715D02*
X14068990Y37518334D01*
X14068990Y37518334D02*
X14116609Y37613572D01*
X57856666Y38438991D02*
X57523333Y38438991D01*
X57523333Y37915181D02*
X57523333Y38915181D01*
X57523333Y38915181D02*
X57999523Y38915181D01*
X58523333Y38486610D02*
X58428095Y38534229D01*
X58428095Y38534229D02*
X58380476Y38581848D01*
X58380476Y38581848D02*
X58332857Y38677086D01*
X58332857Y38677086D02*
X58332857Y38724705D01*
X58332857Y38724705D02*
X58380476Y38819943D01*
X58380476Y38819943D02*
X58428095Y38867562D01*
X58428095Y38867562D02*
X58523333Y38915181D01*
X58523333Y38915181D02*
X58713809Y38915181D01*
X58713809Y38915181D02*
X58809047Y38867562D01*
X58809047Y38867562D02*
X58856666Y38819943D01*
X58856666Y38819943D02*
X58904285Y38724705D01*
X58904285Y38724705D02*
X58904285Y38677086D01*
X58904285Y38677086D02*
X58856666Y38581848D01*
X58856666Y38581848D02*
X58809047Y38534229D01*
X58809047Y38534229D02*
X58713809Y38486610D01*
X58713809Y38486610D02*
X58523333Y38486610D01*
X58523333Y38486610D02*
X58428095Y38438991D01*
X58428095Y38438991D02*
X58380476Y38391372D01*
X58380476Y38391372D02*
X58332857Y38296134D01*
X58332857Y38296134D02*
X58332857Y38105658D01*
X58332857Y38105658D02*
X58380476Y38010420D01*
X58380476Y38010420D02*
X58428095Y37962800D01*
X58428095Y37962800D02*
X58523333Y37915181D01*
X58523333Y37915181D02*
X58713809Y37915181D01*
X58713809Y37915181D02*
X58809047Y37962800D01*
X58809047Y37962800D02*
X58856666Y38010420D01*
X58856666Y38010420D02*
X58904285Y38105658D01*
X58904285Y38105658D02*
X58904285Y38296134D01*
X58904285Y38296134D02*
X58856666Y38391372D01*
X58856666Y38391372D02*
X58809047Y38438991D01*
X58809047Y38438991D02*
X58713809Y38486610D01*
X71504392Y47805181D02*
X71504392Y48805181D01*
X71504392Y48805181D02*
X71885344Y48805181D01*
X71885344Y48805181D02*
X71980582Y48757562D01*
X71980582Y48757562D02*
X72028201Y48709943D01*
X72028201Y48709943D02*
X72075820Y48614705D01*
X72075820Y48614705D02*
X72075820Y48471848D01*
X72075820Y48471848D02*
X72028201Y48376610D01*
X72028201Y48376610D02*
X71980582Y48328991D01*
X71980582Y48328991D02*
X71885344Y48281372D01*
X71885344Y48281372D02*
X71504392Y48281372D01*
X72932963Y48805181D02*
X72742487Y48805181D01*
X72742487Y48805181D02*
X72647249Y48757562D01*
X72647249Y48757562D02*
X72599630Y48709943D01*
X72599630Y48709943D02*
X72504392Y48567086D01*
X72504392Y48567086D02*
X72456773Y48376610D01*
X72456773Y48376610D02*
X72456773Y47995658D01*
X72456773Y47995658D02*
X72504392Y47900420D01*
X72504392Y47900420D02*
X72552011Y47852800D01*
X72552011Y47852800D02*
X72647249Y47805181D01*
X72647249Y47805181D02*
X72837725Y47805181D01*
X72837725Y47805181D02*
X72932963Y47852800D01*
X72932963Y47852800D02*
X72980582Y47900420D01*
X72980582Y47900420D02*
X73028201Y47995658D01*
X73028201Y47995658D02*
X73028201Y48233753D01*
X73028201Y48233753D02*
X72980582Y48328991D01*
X72980582Y48328991D02*
X72932963Y48376610D01*
X72932963Y48376610D02*
X72837725Y48424229D01*
X72837725Y48424229D02*
X72647249Y48424229D01*
X72647249Y48424229D02*
X72552011Y48376610D01*
X72552011Y48376610D02*
X72504392Y48328991D01*
X72504392Y48328991D02*
X72456773Y48233753D01*
X56839166Y48148991D02*
X56505833Y48148991D01*
X56505833Y47625181D02*
X56505833Y48625181D01*
X56505833Y48625181D02*
X56982023Y48625181D01*
X57267738Y48625181D02*
X57934404Y48625181D01*
X57934404Y48625181D02*
X57505833Y47625181D01*
X118416277Y12680953D02*
X119031515Y12680953D01*
X119031515Y12680953D02*
X119103896Y12717143D01*
X119103896Y12717143D02*
X119140087Y12753334D01*
X119140087Y12753334D02*
X119176277Y12825715D01*
X119176277Y12825715D02*
X119176277Y12970477D01*
X119176277Y12970477D02*
X119140087Y13042858D01*
X119140087Y13042858D02*
X119103896Y13079048D01*
X119103896Y13079048D02*
X119031515Y13115239D01*
X119031515Y13115239D02*
X118416277Y13115239D01*
X118416277Y13839048D02*
X118416277Y13477143D01*
X118416277Y13477143D02*
X118778182Y13440952D01*
X118778182Y13440952D02*
X118741991Y13477143D01*
X118741991Y13477143D02*
X118705801Y13549524D01*
X118705801Y13549524D02*
X118705801Y13730476D01*
X118705801Y13730476D02*
X118741991Y13802857D01*
X118741991Y13802857D02*
X118778182Y13839048D01*
X118778182Y13839048D02*
X118850563Y13875238D01*
X118850563Y13875238D02*
X119031515Y13875238D01*
X119031515Y13875238D02*
X119103896Y13839048D01*
X119103896Y13839048D02*
X119140087Y13802857D01*
X119140087Y13802857D02*
X119176277Y13730476D01*
X119176277Y13730476D02*
X119176277Y13549524D01*
X119176277Y13549524D02*
X119140087Y13477143D01*
X119140087Y13477143D02*
X119103896Y13440952D01*
D13*
X121689817Y32943286D02*
X121689817Y31657572D01*
X121689817Y31657572D02*
X121604102Y31400429D01*
X121604102Y31400429D02*
X121432674Y31229000D01*
X121432674Y31229000D02*
X121175531Y31143286D01*
X121175531Y31143286D02*
X121004102Y31143286D01*
X122546960Y31143286D02*
X122546960Y32943286D01*
X122546960Y32943286D02*
X122975531Y32943286D01*
X122975531Y32943286D02*
X123232674Y32857572D01*
X123232674Y32857572D02*
X123404103Y32686143D01*
X123404103Y32686143D02*
X123489817Y32514715D01*
X123489817Y32514715D02*
X123575531Y32171858D01*
X123575531Y32171858D02*
X123575531Y31914715D01*
X123575531Y31914715D02*
X123489817Y31571858D01*
X123489817Y31571858D02*
X123404103Y31400429D01*
X123404103Y31400429D02*
X123232674Y31229000D01*
X123232674Y31229000D02*
X122975531Y31143286D01*
X122975531Y31143286D02*
X122546960Y31143286D01*
X124689817Y32000429D02*
X124689817Y31143286D01*
X124089817Y32943286D02*
X124689817Y32000429D01*
X124689817Y32000429D02*
X125289817Y32943286D01*
X125889817Y31829000D02*
X127261246Y31829000D01*
X127946959Y32943286D02*
X129061245Y32943286D01*
X129061245Y32943286D02*
X128461245Y32257572D01*
X128461245Y32257572D02*
X128718388Y32257572D01*
X128718388Y32257572D02*
X128889817Y32171858D01*
X128889817Y32171858D02*
X128975531Y32086143D01*
X128975531Y32086143D02*
X129061245Y31914715D01*
X129061245Y31914715D02*
X129061245Y31486143D01*
X129061245Y31486143D02*
X128975531Y31314715D01*
X128975531Y31314715D02*
X128889817Y31229000D01*
X128889817Y31229000D02*
X128718388Y31143286D01*
X128718388Y31143286D02*
X128204102Y31143286D01*
X128204102Y31143286D02*
X128032674Y31229000D01*
X128032674Y31229000D02*
X127946959Y31314715D01*
X129661245Y32943286D02*
X130775531Y32943286D01*
X130775531Y32943286D02*
X130175531Y32257572D01*
X130175531Y32257572D02*
X130432674Y32257572D01*
X130432674Y32257572D02*
X130604103Y32171858D01*
X130604103Y32171858D02*
X130689817Y32086143D01*
X130689817Y32086143D02*
X130775531Y31914715D01*
X130775531Y31914715D02*
X130775531Y31486143D01*
X130775531Y31486143D02*
X130689817Y31314715D01*
X130689817Y31314715D02*
X130604103Y31229000D01*
X130604103Y31229000D02*
X130432674Y31143286D01*
X130432674Y31143286D02*
X129918388Y31143286D01*
X129918388Y31143286D02*
X129746960Y31229000D01*
X129746960Y31229000D02*
X129661245Y31314715D01*
D14*
X55728487Y21063232D02*
X55474487Y21063232D01*
X55474487Y20664089D02*
X55474487Y21426089D01*
X55474487Y21426089D02*
X55837344Y21426089D01*
X56526773Y20664089D02*
X56091344Y20664089D01*
X56309059Y20664089D02*
X56309059Y21426089D01*
X56309059Y21426089D02*
X56236487Y21317232D01*
X56236487Y21317232D02*
X56163916Y21244660D01*
X56163916Y21244660D02*
X56091344Y21208374D01*
D12*
X94944392Y4305181D02*
X94944392Y5305181D01*
X94944392Y5305181D02*
X95325344Y5305181D01*
X95325344Y5305181D02*
X95420582Y5257562D01*
X95420582Y5257562D02*
X95468201Y5209943D01*
X95468201Y5209943D02*
X95515820Y5114705D01*
X95515820Y5114705D02*
X95515820Y4971848D01*
X95515820Y4971848D02*
X95468201Y4876610D01*
X95468201Y4876610D02*
X95420582Y4828991D01*
X95420582Y4828991D02*
X95325344Y4781372D01*
X95325344Y4781372D02*
X94944392Y4781372D01*
X95849154Y5305181D02*
X96468201Y5305181D01*
X96468201Y5305181D02*
X96134868Y4924229D01*
X96134868Y4924229D02*
X96277725Y4924229D01*
X96277725Y4924229D02*
X96372963Y4876610D01*
X96372963Y4876610D02*
X96420582Y4828991D01*
X96420582Y4828991D02*
X96468201Y4733753D01*
X96468201Y4733753D02*
X96468201Y4495658D01*
X96468201Y4495658D02*
X96420582Y4400420D01*
X96420582Y4400420D02*
X96372963Y4352800D01*
X96372963Y4352800D02*
X96277725Y4305181D01*
X96277725Y4305181D02*
X95992011Y4305181D01*
X95992011Y4305181D02*
X95896773Y4352800D01*
X95896773Y4352800D02*
X95849154Y4400420D01*
D14*
X76530096Y7733698D02*
X76276096Y8096555D01*
X76094667Y7733698D02*
X76094667Y8495698D01*
X76094667Y8495698D02*
X76384953Y8495698D01*
X76384953Y8495698D02*
X76457524Y8459412D01*
X76457524Y8459412D02*
X76493810Y8423126D01*
X76493810Y8423126D02*
X76530096Y8350555D01*
X76530096Y8350555D02*
X76530096Y8241698D01*
X76530096Y8241698D02*
X76493810Y8169126D01*
X76493810Y8169126D02*
X76457524Y8132841D01*
X76457524Y8132841D02*
X76384953Y8096555D01*
X76384953Y8096555D02*
X76094667Y8096555D01*
X77183239Y8241698D02*
X77183239Y7733698D01*
X77001810Y8531983D02*
X76820381Y7987698D01*
X76820381Y7987698D02*
X77292096Y7987698D01*
D12*
X56846666Y50038991D02*
X56513333Y50038991D01*
X56513333Y49515181D02*
X56513333Y50515181D01*
X56513333Y50515181D02*
X56989523Y50515181D01*
X57846666Y50515181D02*
X57370476Y50515181D01*
X57370476Y50515181D02*
X57322857Y50038991D01*
X57322857Y50038991D02*
X57370476Y50086610D01*
X57370476Y50086610D02*
X57465714Y50134229D01*
X57465714Y50134229D02*
X57703809Y50134229D01*
X57703809Y50134229D02*
X57799047Y50086610D01*
X57799047Y50086610D02*
X57846666Y50038991D01*
X57846666Y50038991D02*
X57894285Y49943753D01*
X57894285Y49943753D02*
X57894285Y49705658D01*
X57894285Y49705658D02*
X57846666Y49610420D01*
X57846666Y49610420D02*
X57799047Y49562800D01*
X57799047Y49562800D02*
X57703809Y49515181D01*
X57703809Y49515181D02*
X57465714Y49515181D01*
X57465714Y49515181D02*
X57370476Y49562800D01*
X57370476Y49562800D02*
X57322857Y49610420D01*
X37712700Y22178198D02*
X37712700Y21368675D01*
X37712700Y21368675D02*
X37760319Y21273437D01*
X37760319Y21273437D02*
X37807938Y21225817D01*
X37807938Y21225817D02*
X37903176Y21178198D01*
X37903176Y21178198D02*
X38093652Y21178198D01*
X38093652Y21178198D02*
X38188890Y21225817D01*
X38188890Y21225817D02*
X38236509Y21273437D01*
X38236509Y21273437D02*
X38284128Y21368675D01*
X38284128Y21368675D02*
X38284128Y22178198D01*
X39284128Y21178198D02*
X38712700Y21178198D01*
X38998414Y21178198D02*
X38998414Y22178198D01*
X38998414Y22178198D02*
X38903176Y22035341D01*
X38903176Y22035341D02*
X38807938Y21940103D01*
X38807938Y21940103D02*
X38712700Y21892484D01*
X46920582Y13555181D02*
X46920582Y12745658D01*
X46920582Y12745658D02*
X46968201Y12650420D01*
X46968201Y12650420D02*
X47015820Y12602800D01*
X47015820Y12602800D02*
X47111058Y12555181D01*
X47111058Y12555181D02*
X47301534Y12555181D01*
X47301534Y12555181D02*
X47396772Y12602800D01*
X47396772Y12602800D02*
X47444391Y12650420D01*
X47444391Y12650420D02*
X47492010Y12745658D01*
X47492010Y12745658D02*
X47492010Y13555181D01*
X47920582Y13459943D02*
X47968201Y13507562D01*
X47968201Y13507562D02*
X48063439Y13555181D01*
X48063439Y13555181D02*
X48301534Y13555181D01*
X48301534Y13555181D02*
X48396772Y13507562D01*
X48396772Y13507562D02*
X48444391Y13459943D01*
X48444391Y13459943D02*
X48492010Y13364705D01*
X48492010Y13364705D02*
X48492010Y13269467D01*
X48492010Y13269467D02*
X48444391Y13126610D01*
X48444391Y13126610D02*
X47872963Y12555181D01*
X47872963Y12555181D02*
X48492010Y12555181D01*
X115644392Y25355181D02*
X115644392Y26355181D01*
X115644392Y26355181D02*
X116025344Y26355181D01*
X116025344Y26355181D02*
X116120582Y26307562D01*
X116120582Y26307562D02*
X116168201Y26259943D01*
X116168201Y26259943D02*
X116215820Y26164705D01*
X116215820Y26164705D02*
X116215820Y26021848D01*
X116215820Y26021848D02*
X116168201Y25926610D01*
X116168201Y25926610D02*
X116120582Y25878991D01*
X116120582Y25878991D02*
X116025344Y25831372D01*
X116025344Y25831372D02*
X115644392Y25831372D01*
X116549154Y26355181D02*
X117215820Y26355181D01*
X117215820Y26355181D02*
X116787249Y25355181D01*
X82849153Y10270181D02*
X82849153Y9555896D01*
X82849153Y9555896D02*
X82801534Y9413039D01*
X82801534Y9413039D02*
X82706296Y9317800D01*
X82706296Y9317800D02*
X82563439Y9270181D01*
X82563439Y9270181D02*
X82468201Y9270181D01*
X83372963Y9270181D02*
X83563439Y9270181D01*
X83563439Y9270181D02*
X83658677Y9317800D01*
X83658677Y9317800D02*
X83706296Y9365420D01*
X83706296Y9365420D02*
X83801534Y9508277D01*
X83801534Y9508277D02*
X83849153Y9698753D01*
X83849153Y9698753D02*
X83849153Y10079705D01*
X83849153Y10079705D02*
X83801534Y10174943D01*
X83801534Y10174943D02*
X83753915Y10222562D01*
X83753915Y10222562D02*
X83658677Y10270181D01*
X83658677Y10270181D02*
X83468201Y10270181D01*
X83468201Y10270181D02*
X83372963Y10222562D01*
X83372963Y10222562D02*
X83325344Y10174943D01*
X83325344Y10174943D02*
X83277725Y10079705D01*
X83277725Y10079705D02*
X83277725Y9841610D01*
X83277725Y9841610D02*
X83325344Y9746372D01*
X83325344Y9746372D02*
X83372963Y9698753D01*
X83372963Y9698753D02*
X83468201Y9651134D01*
X83468201Y9651134D02*
X83658677Y9651134D01*
X83658677Y9651134D02*
X83753915Y9698753D01*
X83753915Y9698753D02*
X83801534Y9746372D01*
X83801534Y9746372D02*
X83849153Y9841610D01*
D14*
X50129255Y22356001D02*
X50129255Y22102001D01*
X50528398Y22102001D02*
X49766398Y22102001D01*
X49766398Y22102001D02*
X49766398Y22464858D01*
X49838970Y22718858D02*
X49802684Y22755144D01*
X49802684Y22755144D02*
X49766398Y22827715D01*
X49766398Y22827715D02*
X49766398Y23009144D01*
X49766398Y23009144D02*
X49802684Y23081715D01*
X49802684Y23081715D02*
X49838970Y23118001D01*
X49838970Y23118001D02*
X49911541Y23154287D01*
X49911541Y23154287D02*
X49984113Y23154287D01*
X49984113Y23154287D02*
X50092970Y23118001D01*
X50092970Y23118001D02*
X50528398Y22682573D01*
X50528398Y22682573D02*
X50528398Y23154287D01*
D12*
X116839153Y40455181D02*
X116839153Y39740896D01*
X116839153Y39740896D02*
X116791534Y39598039D01*
X116791534Y39598039D02*
X116696296Y39502800D01*
X116696296Y39502800D02*
X116553439Y39455181D01*
X116553439Y39455181D02*
X116458201Y39455181D01*
X117743915Y40455181D02*
X117553439Y40455181D01*
X117553439Y40455181D02*
X117458201Y40407562D01*
X117458201Y40407562D02*
X117410582Y40359943D01*
X117410582Y40359943D02*
X117315344Y40217086D01*
X117315344Y40217086D02*
X117267725Y40026610D01*
X117267725Y40026610D02*
X117267725Y39645658D01*
X117267725Y39645658D02*
X117315344Y39550420D01*
X117315344Y39550420D02*
X117362963Y39502800D01*
X117362963Y39502800D02*
X117458201Y39455181D01*
X117458201Y39455181D02*
X117648677Y39455181D01*
X117648677Y39455181D02*
X117743915Y39502800D01*
X117743915Y39502800D02*
X117791534Y39550420D01*
X117791534Y39550420D02*
X117839153Y39645658D01*
X117839153Y39645658D02*
X117839153Y39883753D01*
X117839153Y39883753D02*
X117791534Y39978991D01*
X117791534Y39978991D02*
X117743915Y40026610D01*
X117743915Y40026610D02*
X117648677Y40074229D01*
X117648677Y40074229D02*
X117458201Y40074229D01*
X117458201Y40074229D02*
X117362963Y40026610D01*
X117362963Y40026610D02*
X117315344Y39978991D01*
X117315344Y39978991D02*
X117267725Y39883753D01*
D15*
X98221344Y75244819D02*
X98221344Y74011105D01*
X98221344Y74011105D02*
X98293915Y73865962D01*
X98293915Y73865962D02*
X98366487Y73793390D01*
X98366487Y73793390D02*
X98511629Y73720819D01*
X98511629Y73720819D02*
X98801915Y73720819D01*
X98801915Y73720819D02*
X98947058Y73793390D01*
X98947058Y73793390D02*
X99019629Y73865962D01*
X99019629Y73865962D02*
X99092201Y74011105D01*
X99092201Y74011105D02*
X99092201Y75244819D01*
X99672772Y75244819D02*
X100616200Y75244819D01*
X100616200Y75244819D02*
X100108200Y74664248D01*
X100108200Y74664248D02*
X100325915Y74664248D01*
X100325915Y74664248D02*
X100471058Y74591676D01*
X100471058Y74591676D02*
X100543629Y74519105D01*
X100543629Y74519105D02*
X100616200Y74373962D01*
X100616200Y74373962D02*
X100616200Y74011105D01*
X100616200Y74011105D02*
X100543629Y73865962D01*
X100543629Y73865962D02*
X100471058Y73793390D01*
X100471058Y73793390D02*
X100325915Y73720819D01*
X100325915Y73720819D02*
X99890486Y73720819D01*
X99890486Y73720819D02*
X99745343Y73793390D01*
X99745343Y73793390D02*
X99672772Y73865962D01*
D12*
X92956325Y71565181D02*
X92384897Y71565181D01*
X92670611Y71565181D02*
X92670611Y72565181D01*
X92670611Y72565181D02*
X92575373Y72422324D01*
X92575373Y72422324D02*
X92480135Y72327086D01*
X92480135Y72327086D02*
X92384897Y72279467D01*
X92861087Y56490181D02*
X92670611Y56490181D01*
X92670611Y56490181D02*
X92575373Y56442562D01*
X92575373Y56442562D02*
X92527754Y56394943D01*
X92527754Y56394943D02*
X92432516Y56252086D01*
X92432516Y56252086D02*
X92384897Y56061610D01*
X92384897Y56061610D02*
X92384897Y55680658D01*
X92384897Y55680658D02*
X92432516Y55585420D01*
X92432516Y55585420D02*
X92480135Y55537800D01*
X92480135Y55537800D02*
X92575373Y55490181D01*
X92575373Y55490181D02*
X92765849Y55490181D01*
X92765849Y55490181D02*
X92861087Y55537800D01*
X92861087Y55537800D02*
X92908706Y55585420D01*
X92908706Y55585420D02*
X92956325Y55680658D01*
X92956325Y55680658D02*
X92956325Y55918753D01*
X92956325Y55918753D02*
X92908706Y56013991D01*
X92908706Y56013991D02*
X92861087Y56061610D01*
X92861087Y56061610D02*
X92765849Y56109229D01*
X92765849Y56109229D02*
X92575373Y56109229D01*
X92575373Y56109229D02*
X92480135Y56061610D01*
X92480135Y56061610D02*
X92432516Y56013991D01*
X92432516Y56013991D02*
X92384897Y55918753D01*
D15*
X107765309Y69423374D02*
X107765309Y68189660D01*
X107765309Y68189660D02*
X107837880Y68044517D01*
X107837880Y68044517D02*
X107910452Y67971945D01*
X107910452Y67971945D02*
X108055594Y67899374D01*
X108055594Y67899374D02*
X108345880Y67899374D01*
X108345880Y67899374D02*
X108491023Y67971945D01*
X108491023Y67971945D02*
X108563594Y68044517D01*
X108563594Y68044517D02*
X108636166Y68189660D01*
X108636166Y68189660D02*
X108636166Y69423374D01*
X109289308Y67971945D02*
X109434451Y67899374D01*
X109434451Y67899374D02*
X109724737Y67899374D01*
X109724737Y67899374D02*
X109869880Y67971945D01*
X109869880Y67971945D02*
X109942451Y68117088D01*
X109942451Y68117088D02*
X109942451Y68189660D01*
X109942451Y68189660D02*
X109869880Y68334803D01*
X109869880Y68334803D02*
X109724737Y68407374D01*
X109724737Y68407374D02*
X109507023Y68407374D01*
X109507023Y68407374D02*
X109361880Y68479945D01*
X109361880Y68479945D02*
X109289308Y68625088D01*
X109289308Y68625088D02*
X109289308Y68697660D01*
X109289308Y68697660D02*
X109361880Y68842803D01*
X109361880Y68842803D02*
X109507023Y68915374D01*
X109507023Y68915374D02*
X109724737Y68915374D01*
X109724737Y68915374D02*
X109869880Y68842803D01*
X111176165Y67971945D02*
X111031022Y67899374D01*
X111031022Y67899374D02*
X110740737Y67899374D01*
X110740737Y67899374D02*
X110595594Y67971945D01*
X110595594Y67971945D02*
X110523022Y68117088D01*
X110523022Y68117088D02*
X110523022Y68697660D01*
X110523022Y68697660D02*
X110595594Y68842803D01*
X110595594Y68842803D02*
X110740737Y68915374D01*
X110740737Y68915374D02*
X111031022Y68915374D01*
X111031022Y68915374D02*
X111176165Y68842803D01*
X111176165Y68842803D02*
X111248737Y68697660D01*
X111248737Y68697660D02*
X111248737Y68552517D01*
X111248737Y68552517D02*
X110523022Y68407374D01*
X105987309Y66461819D02*
X105987309Y64937819D01*
X105987309Y66389248D02*
X106132452Y66461819D01*
X106132452Y66461819D02*
X106422737Y66461819D01*
X106422737Y66461819D02*
X106567880Y66389248D01*
X106567880Y66389248D02*
X106640452Y66316676D01*
X106640452Y66316676D02*
X106713023Y66171533D01*
X106713023Y66171533D02*
X106713023Y65736105D01*
X106713023Y65736105D02*
X106640452Y65590962D01*
X106640452Y65590962D02*
X106567880Y65518390D01*
X106567880Y65518390D02*
X106422737Y65445819D01*
X106422737Y65445819D02*
X106132452Y65445819D01*
X106132452Y65445819D02*
X105987309Y65518390D01*
X107583880Y65445819D02*
X107438737Y65518390D01*
X107438737Y65518390D02*
X107366166Y65663533D01*
X107366166Y65663533D02*
X107366166Y66969819D01*
X108817595Y65445819D02*
X108817595Y66244105D01*
X108817595Y66244105D02*
X108745023Y66389248D01*
X108745023Y66389248D02*
X108599880Y66461819D01*
X108599880Y66461819D02*
X108309595Y66461819D01*
X108309595Y66461819D02*
X108164452Y66389248D01*
X108817595Y65518390D02*
X108672452Y65445819D01*
X108672452Y65445819D02*
X108309595Y65445819D01*
X108309595Y65445819D02*
X108164452Y65518390D01*
X108164452Y65518390D02*
X108091880Y65663533D01*
X108091880Y65663533D02*
X108091880Y65808676D01*
X108091880Y65808676D02*
X108164452Y65953819D01*
X108164452Y65953819D02*
X108309595Y66026390D01*
X108309595Y66026390D02*
X108672452Y66026390D01*
X108672452Y66026390D02*
X108817595Y66098962D01*
X109470737Y65518390D02*
X109615880Y65445819D01*
X109615880Y65445819D02*
X109906166Y65445819D01*
X109906166Y65445819D02*
X110051309Y65518390D01*
X110051309Y65518390D02*
X110123880Y65663533D01*
X110123880Y65663533D02*
X110123880Y65736105D01*
X110123880Y65736105D02*
X110051309Y65881248D01*
X110051309Y65881248D02*
X109906166Y65953819D01*
X109906166Y65953819D02*
X109688452Y65953819D01*
X109688452Y65953819D02*
X109543309Y66026390D01*
X109543309Y66026390D02*
X109470737Y66171533D01*
X109470737Y66171533D02*
X109470737Y66244105D01*
X109470737Y66244105D02*
X109543309Y66389248D01*
X109543309Y66389248D02*
X109688452Y66461819D01*
X109688452Y66461819D02*
X109906166Y66461819D01*
X109906166Y66461819D02*
X110051309Y66389248D01*
X110559308Y66461819D02*
X111139880Y66461819D01*
X110777023Y66969819D02*
X110777023Y65663533D01*
X110777023Y65663533D02*
X110849594Y65518390D01*
X110849594Y65518390D02*
X110994737Y65445819D01*
X110994737Y65445819D02*
X111139880Y65445819D01*
X111647880Y65445819D02*
X111647880Y66461819D01*
X111647880Y66969819D02*
X111575308Y66897248D01*
X111575308Y66897248D02*
X111647880Y66824676D01*
X111647880Y66824676D02*
X111720451Y66897248D01*
X111720451Y66897248D02*
X111647880Y66969819D01*
X111647880Y66969819D02*
X111647880Y66824676D01*
X113026737Y65518390D02*
X112881594Y65445819D01*
X112881594Y65445819D02*
X112591308Y65445819D01*
X112591308Y65445819D02*
X112446165Y65518390D01*
X112446165Y65518390D02*
X112373594Y65590962D01*
X112373594Y65590962D02*
X112301022Y65736105D01*
X112301022Y65736105D02*
X112301022Y66171533D01*
X112301022Y66171533D02*
X112373594Y66316676D01*
X112373594Y66316676D02*
X112446165Y66389248D01*
X112446165Y66389248D02*
X112591308Y66461819D01*
X112591308Y66461819D02*
X112881594Y66461819D01*
X112881594Y66461819D02*
X113026737Y66389248D01*
X105152737Y64008264D02*
X105443023Y62992264D01*
X105443023Y62992264D02*
X105733308Y63717978D01*
X105733308Y63717978D02*
X106023594Y62992264D01*
X106023594Y62992264D02*
X106313880Y64008264D01*
X107547594Y62992264D02*
X107547594Y63790550D01*
X107547594Y63790550D02*
X107475022Y63935693D01*
X107475022Y63935693D02*
X107329879Y64008264D01*
X107329879Y64008264D02*
X107039594Y64008264D01*
X107039594Y64008264D02*
X106894451Y63935693D01*
X107547594Y63064835D02*
X107402451Y62992264D01*
X107402451Y62992264D02*
X107039594Y62992264D01*
X107039594Y62992264D02*
X106894451Y63064835D01*
X106894451Y63064835D02*
X106821879Y63209978D01*
X106821879Y63209978D02*
X106821879Y63355121D01*
X106821879Y63355121D02*
X106894451Y63500264D01*
X106894451Y63500264D02*
X107039594Y63572835D01*
X107039594Y63572835D02*
X107402451Y63572835D01*
X107402451Y63572835D02*
X107547594Y63645407D01*
X108200736Y63064835D02*
X108345879Y62992264D01*
X108345879Y62992264D02*
X108636165Y62992264D01*
X108636165Y62992264D02*
X108781308Y63064835D01*
X108781308Y63064835D02*
X108853879Y63209978D01*
X108853879Y63209978D02*
X108853879Y63282550D01*
X108853879Y63282550D02*
X108781308Y63427693D01*
X108781308Y63427693D02*
X108636165Y63500264D01*
X108636165Y63500264D02*
X108418451Y63500264D01*
X108418451Y63500264D02*
X108273308Y63572835D01*
X108273308Y63572835D02*
X108200736Y63717978D01*
X108200736Y63717978D02*
X108200736Y63790550D01*
X108200736Y63790550D02*
X108273308Y63935693D01*
X108273308Y63935693D02*
X108418451Y64008264D01*
X108418451Y64008264D02*
X108636165Y64008264D01*
X108636165Y64008264D02*
X108781308Y63935693D01*
X109507022Y62992264D02*
X109507022Y64516264D01*
X110160165Y62992264D02*
X110160165Y63790550D01*
X110160165Y63790550D02*
X110087593Y63935693D01*
X110087593Y63935693D02*
X109942450Y64008264D01*
X109942450Y64008264D02*
X109724736Y64008264D01*
X109724736Y64008264D02*
X109579593Y63935693D01*
X109579593Y63935693D02*
X109507022Y63863121D01*
X111466450Y63064835D02*
X111321307Y62992264D01*
X111321307Y62992264D02*
X111031022Y62992264D01*
X111031022Y62992264D02*
X110885879Y63064835D01*
X110885879Y63064835D02*
X110813307Y63209978D01*
X110813307Y63209978D02*
X110813307Y63790550D01*
X110813307Y63790550D02*
X110885879Y63935693D01*
X110885879Y63935693D02*
X111031022Y64008264D01*
X111031022Y64008264D02*
X111321307Y64008264D01*
X111321307Y64008264D02*
X111466450Y63935693D01*
X111466450Y63935693D02*
X111539022Y63790550D01*
X111539022Y63790550D02*
X111539022Y63645407D01*
X111539022Y63645407D02*
X110813307Y63500264D01*
X112192165Y62992264D02*
X112192165Y64008264D01*
X112192165Y63717978D02*
X112264736Y63863121D01*
X112264736Y63863121D02*
X112337308Y63935693D01*
X112337308Y63935693D02*
X112482450Y64008264D01*
X112482450Y64008264D02*
X112627593Y64008264D01*
X113063022Y63064835D02*
X113208165Y62992264D01*
X113208165Y62992264D02*
X113498451Y62992264D01*
X113498451Y62992264D02*
X113643594Y63064835D01*
X113643594Y63064835D02*
X113716165Y63209978D01*
X113716165Y63209978D02*
X113716165Y63282550D01*
X113716165Y63282550D02*
X113643594Y63427693D01*
X113643594Y63427693D02*
X113498451Y63500264D01*
X113498451Y63500264D02*
X113280737Y63500264D01*
X113280737Y63500264D02*
X113135594Y63572835D01*
X113135594Y63572835D02*
X113063022Y63717978D01*
X113063022Y63717978D02*
X113063022Y63790550D01*
X113063022Y63790550D02*
X113135594Y63935693D01*
X113135594Y63935693D02*
X113280737Y64008264D01*
X113280737Y64008264D02*
X113498451Y64008264D01*
X113498451Y64008264D02*
X113643594Y63935693D01*
D12*
X42968201Y11955181D02*
X42968201Y12955181D01*
X42968201Y12955181D02*
X43349153Y12955181D01*
X43349153Y12955181D02*
X43444391Y12907562D01*
X43444391Y12907562D02*
X43492010Y12859943D01*
X43492010Y12859943D02*
X43539629Y12764705D01*
X43539629Y12764705D02*
X43539629Y12621848D01*
X43539629Y12621848D02*
X43492010Y12526610D01*
X43492010Y12526610D02*
X43444391Y12478991D01*
X43444391Y12478991D02*
X43349153Y12431372D01*
X43349153Y12431372D02*
X42968201Y12431372D01*
X44492010Y11955181D02*
X43920582Y11955181D01*
X44206296Y11955181D02*
X44206296Y12955181D01*
X44206296Y12955181D02*
X44111058Y12812324D01*
X44111058Y12812324D02*
X44015820Y12717086D01*
X44015820Y12717086D02*
X43920582Y12669467D01*
X45349153Y12955181D02*
X45158677Y12955181D01*
X45158677Y12955181D02*
X45063439Y12907562D01*
X45063439Y12907562D02*
X45015820Y12859943D01*
X45015820Y12859943D02*
X44920582Y12717086D01*
X44920582Y12717086D02*
X44872963Y12526610D01*
X44872963Y12526610D02*
X44872963Y12145658D01*
X44872963Y12145658D02*
X44920582Y12050420D01*
X44920582Y12050420D02*
X44968201Y12002800D01*
X44968201Y12002800D02*
X45063439Y11955181D01*
X45063439Y11955181D02*
X45253915Y11955181D01*
X45253915Y11955181D02*
X45349153Y12002800D01*
X45349153Y12002800D02*
X45396772Y12050420D01*
X45396772Y12050420D02*
X45444391Y12145658D01*
X45444391Y12145658D02*
X45444391Y12383753D01*
X45444391Y12383753D02*
X45396772Y12478991D01*
X45396772Y12478991D02*
X45349153Y12526610D01*
X45349153Y12526610D02*
X45253915Y12574229D01*
X45253915Y12574229D02*
X45063439Y12574229D01*
X45063439Y12574229D02*
X44968201Y12526610D01*
X44968201Y12526610D02*
X44920582Y12478991D01*
X44920582Y12478991D02*
X44872963Y12383753D01*
D11*
G04 #@! TO.C,R40*
X62929999Y84500000D02*
X62929999Y84900000D01*
X64232927Y84495611D02*
X64232927Y84895611D01*
G04 #@! TO.C,C24*
X41132473Y9010000D02*
X40382488Y9010000D01*
G04 #@! TO.C,R39*
X100610000Y86869999D02*
X100210000Y86869999D01*
X100614389Y88172927D02*
X100214389Y88172927D01*
D16*
G04 #@! TO.C,P8*
X115052487Y20640000D02*
X115052487Y17980000D01*
X115346949Y17980000D02*
X115052487Y17980000D01*
X115358114Y20640000D02*
X115052487Y20640000D01*
X117406860Y17980000D02*
X117712487Y17980000D01*
X117418025Y20640000D02*
X117712487Y20640000D01*
X117712487Y17980000D02*
X117712487Y20640000D01*
G04 #@! TO.C,M5*
D11*
X118607487Y67210000D02*
X132507487Y67210000D01*
X132507487Y39710000D01*
X118607487Y39710000D01*
X118607487Y67210000D01*
D16*
G04 #@! TO.C,P5*
X73452487Y47340000D02*
X73452487Y44680000D01*
X73746949Y44680000D02*
X73452487Y44680000D01*
X73758114Y47340000D02*
X73452487Y47340000D01*
X75806860Y44680000D02*
X76112487Y44680000D01*
X75818025Y47340000D02*
X76112487Y47340000D01*
X76112487Y44680000D02*
X76112487Y47340000D01*
D11*
G04 #@! TO.C,C26*
X57132473Y5510000D02*
X56382488Y5510000D01*
D17*
G04 #@! TO.C,J25*
X3300000Y93485000D02*
X30700000Y93485000D01*
X3300000Y54985000D02*
X3300000Y93485000D01*
X13500000Y97485000D02*
X20500000Y97485000D01*
X13500000Y93485000D02*
X13500000Y97485000D01*
X13500000Y54985000D02*
X13500000Y50985000D01*
X20500000Y93485000D02*
X20500000Y97485000D01*
X20500000Y54985000D02*
X20500000Y50985000D01*
X20500000Y50985000D02*
X13500000Y50985000D01*
X30700000Y93485000D02*
X30700000Y54985000D01*
X30700000Y54985000D02*
X3300000Y54985000D01*
D11*
G04 #@! TO.C,C13*
X50257473Y14970000D02*
X49507488Y14970000D01*
D16*
G04 #@! TO.C,P15*
X37392487Y12840000D02*
X37392487Y10180000D01*
X37686949Y10180000D02*
X37392487Y10180000D01*
X37698114Y12840000D02*
X37392487Y12840000D01*
X39746860Y10180000D02*
X40052487Y10180000D01*
X39758025Y12840000D02*
X40052487Y12840000D01*
X40052487Y10180000D02*
X40052487Y12840000D01*
G04 #@! TO.C,F4*
X50582487Y19410000D02*
X50582487Y14560000D01*
X52582487Y19410000D02*
X52582487Y14560000D01*
X50582487Y19460000D02*
G75*
G02*
X52582487Y19460000I1000000J0D01*
G01*
X52582487Y14560000D02*
G75*
G02*
X50582487Y14560000I-1000000J0D01*
G01*
D11*
G04 #@! TO.C,R37*
X65017073Y84874389D02*
X65017073Y84474389D01*
X66320001Y84870000D02*
X66320001Y84470000D01*
D16*
G04 #@! TO.C,F9*
X60832779Y36720000D02*
X60507221Y36720000D01*
X60832779Y35700000D02*
X60507221Y35700000D01*
D11*
G04 #@! TO.C,C11*
X35132473Y17310000D02*
X34382488Y17310000D01*
D16*
G04 #@! TO.C,J7*
X112972487Y15570000D02*
X112972487Y450000D01*
X112972487Y450000D02*
X118092487Y450000D01*
X115982487Y150000D02*
X118392487Y150000D01*
X117092487Y15570000D02*
X112972487Y15570000D01*
X118092487Y14570000D02*
X117092487Y15570000D01*
X118092487Y450000D02*
X118092487Y14570000D01*
X118392487Y150000D02*
X118392487Y2560000D01*
G04 #@! TO.C,F6*
X59835279Y52470000D02*
X59509721Y52470000D01*
X59835279Y51450000D02*
X59509721Y51450000D01*
G04 #@! TO.C,P4*
X94352487Y8840000D02*
X94352487Y6180000D01*
X94646949Y6180000D02*
X94352487Y6180000D01*
X94658114Y8840000D02*
X94352487Y8840000D01*
X96706860Y6180000D02*
X97012487Y6180000D01*
X96718025Y8840000D02*
X97012487Y8840000D01*
X97012487Y6180000D02*
X97012487Y8840000D01*
D11*
G04 #@! TO.C,M3*
X75557487Y77385000D02*
X75557487Y62385000D01*
X75557487Y77385000D02*
X76857487Y77385000D01*
X75557487Y62385000D02*
X80657487Y62385000D01*
X85157487Y77385000D02*
X78757487Y77385000D01*
X85157487Y62985000D02*
X85157487Y77385000D01*
D16*
G04 #@! TO.C,P17*
X34852487Y12840000D02*
X34852487Y10180000D01*
X35146949Y10180000D02*
X34852487Y10180000D01*
X35158114Y12840000D02*
X34852487Y12840000D01*
X37206860Y10180000D02*
X37512487Y10180000D01*
X37218025Y12840000D02*
X37512487Y12840000D01*
X37512487Y10180000D02*
X37512487Y12840000D01*
G04 #@! TO.C,F10*
X60775279Y34780000D02*
X60449721Y34780000D01*
X60775279Y33760000D02*
X60449721Y33760000D01*
D12*
G04 #@! TO.C,J8*
X89532487Y8610000D02*
X90132487Y8610000D01*
X89532487Y810000D02*
X89532487Y8610000D01*
X90132487Y810000D02*
X89532487Y810000D01*
X93032487Y810000D02*
X93632487Y810000D01*
X93632487Y8610000D02*
X93032487Y8610000D01*
X93632487Y810000D02*
X93632487Y8610000D01*
X93932487Y2610000D02*
X93932487Y3610000D01*
D16*
G04 #@! TO.C,F3*
X52782487Y19410000D02*
X52782487Y14560000D01*
X54782487Y19410000D02*
X54782487Y14560000D01*
X52782487Y19460000D02*
G75*
G02*
X54782487Y19460000I1000000J0D01*
G01*
X54782487Y14560000D02*
G75*
G02*
X52782487Y14560000I-1000000J0D01*
G01*
D11*
G04 #@! TO.C,M2*
X110257486Y82035000D02*
X110257486Y72935000D01*
X110257486Y82035000D02*
X111257488Y82035000D01*
X113357489Y82035000D02*
X113357489Y72935000D01*
G04 #@! TO.C,C25*
X40432501Y5510000D02*
X41182486Y5510000D01*
D16*
G04 #@! TO.C,P18*
X54852487Y12340000D02*
X54852487Y9680000D01*
X55146949Y9680000D02*
X54852487Y9680000D01*
X55158114Y12340000D02*
X54852487Y12340000D01*
X57206860Y9680000D02*
X57512487Y9680000D01*
X57218025Y12340000D02*
X57512487Y12340000D01*
X57512487Y9680000D02*
X57512487Y12340000D01*
D17*
G04 #@! TO.C,J23*
X3300000Y43935000D02*
X30700000Y43935000D01*
X3300000Y5435000D02*
X3300000Y43935000D01*
X13500000Y47935000D02*
X20500000Y47935000D01*
X13500000Y43935000D02*
X13500000Y47935000D01*
X13500000Y5435000D02*
X13500000Y1435000D01*
X20500000Y43935000D02*
X20500000Y47935000D01*
X20500000Y5435000D02*
X20500000Y1435000D01*
X20500000Y1435000D02*
X13500000Y1435000D01*
X30700000Y43935000D02*
X30700000Y5435000D01*
X30700000Y5435000D02*
X3300000Y5435000D01*
D11*
G04 #@! TO.C,M1*
X57907486Y15334999D02*
X57907486Y18535002D01*
X57907486Y3234999D02*
X57907486Y13635001D01*
X57907486Y1334999D02*
X57907486Y1634999D01*
X57907486Y1334999D02*
X73307486Y1334999D01*
X59407486Y21934997D02*
X74707485Y21934999D01*
X74707483Y15235001D02*
X74707483Y20035001D01*
X74707483Y9034999D02*
X74707483Y11734999D01*
X74707483Y6335001D02*
X74707483Y7435004D01*
X74707483Y2784999D02*
X74707488Y4334999D01*
X74707485Y21635001D02*
X74707485Y21934999D01*
D16*
G04 #@! TO.C,F8*
X60802779Y38630000D02*
X60477221Y38630000D01*
X60802779Y37610000D02*
X60477221Y37610000D01*
G04 #@! TO.C,P6*
X70912487Y47340000D02*
X70912487Y44680000D01*
X71206949Y44680000D02*
X70912487Y44680000D01*
X71218114Y47340000D02*
X70912487Y47340000D01*
X73266860Y44680000D02*
X73572487Y44680000D01*
X73278025Y47340000D02*
X73572487Y47340000D01*
X73572487Y44680000D02*
X73572487Y47340000D01*
D11*
G04 #@! TO.C,M7*
X63907484Y54309995D02*
X63907484Y43410001D01*
X63907484Y43410001D02*
X70793813Y43410001D01*
X63907487Y54309997D02*
X63907484Y54309995D01*
X63907487Y54309997D02*
X64782481Y54309997D01*
X65057485Y54585001D02*
X64782481Y54309997D01*
X65057485Y54585001D02*
X70754966Y54585001D01*
X70754966Y54585001D02*
X70793813Y43410001D01*
D18*
G04 #@! TO.C,R9*
X49536647Y18171056D02*
X49536636Y17771057D01*
X50282482Y18170000D02*
X50282472Y17770000D01*
D16*
G04 #@! TO.C,F7*
X59735279Y48490000D02*
X59409721Y48490000D01*
X59735279Y47470000D02*
X59409721Y47470000D01*
D11*
G04 #@! TO.C,U5*
X119482487Y34560000D02*
X119482487Y33630000D01*
X119482487Y7310000D02*
X119482487Y13990000D01*
D19*
X121981768Y23475531D02*
X121981768Y23475531D01*
X121981768Y23475531D02*
X121986276Y23653825D01*
X121981768Y18784468D02*
X121981768Y23475531D01*
X121981768Y18784468D02*
X121981768Y18784468D01*
X121986276Y23653825D02*
X121999656Y23829778D01*
X121986276Y18606175D02*
X121981768Y18784468D01*
X121999656Y23829778D02*
X122021690Y24003173D01*
X121999656Y18430221D02*
X121986276Y18606175D01*
X122021690Y24003173D02*
X122052159Y24173792D01*
X122021690Y18256826D02*
X121999656Y18430221D01*
X122052159Y24173792D02*
X122090847Y24341418D01*
X122052159Y18086207D02*
X122021690Y18256826D01*
X122090847Y24341418D02*
X122137535Y24505832D01*
X122090847Y17918581D02*
X122052159Y18086207D01*
X122137535Y24505832D02*
X122192006Y24666817D01*
X122137535Y17754167D02*
X122090847Y17918581D01*
X122192006Y24666817D02*
X122254043Y24824156D01*
X122192006Y17593182D02*
X122137535Y17754167D01*
X122254043Y24824156D02*
X122323427Y24977629D01*
X122254043Y17435844D02*
X122192006Y17593182D01*
X122323427Y24977629D02*
X122399941Y25127021D01*
X122323427Y17282370D02*
X122254043Y17435844D01*
X122399941Y25127021D02*
X122483367Y25272113D01*
X122399941Y17132978D02*
X122323427Y17282370D01*
X122483367Y25272113D02*
X122573488Y25412688D01*
X122483367Y16987886D02*
X122399941Y17132978D01*
X122573488Y25412688D02*
X122670085Y25548527D01*
X122573488Y16847311D02*
X122483367Y16987886D01*
X122670085Y25548527D02*
X122772941Y25679413D01*
X122670085Y16711472D02*
X122573488Y16847311D01*
X122772941Y25679413D02*
X122881839Y25805129D01*
X122772941Y16580586D02*
X122670085Y16711472D01*
X122881839Y25805129D02*
X122996561Y25925456D01*
X122881839Y16454870D02*
X122772941Y16580586D01*
X122996561Y25925456D02*
X123116888Y26040178D01*
X122996561Y16334543D02*
X122881839Y16454870D01*
X123116888Y26040178D02*
X123242604Y26149076D01*
X123116888Y16219821D02*
X122996561Y16334543D01*
X123242604Y26149076D02*
X123373490Y26251932D01*
X123242604Y16110923D02*
X123116888Y16219821D01*
X123373490Y26251932D02*
X123509330Y26348529D01*
X123373490Y16008067D02*
X123242604Y16110923D01*
X123509330Y26348529D02*
X123649904Y26438650D01*
X123509330Y15911469D02*
X123373490Y16008067D01*
X123649904Y26438650D02*
X123794996Y26522076D01*
X123649904Y15821349D02*
X123509330Y15911469D01*
X123794996Y26522076D02*
X123944388Y26598590D01*
X123794996Y15737923D02*
X123649904Y15821349D01*
X123944388Y26598590D02*
X124097862Y26667974D01*
X123944388Y15661409D02*
X123794996Y15737923D01*
X124097862Y26667974D02*
X124255200Y26730011D01*
X124097862Y15592025D02*
X123944388Y15661409D01*
X124101081Y22904031D02*
X124101081Y22904031D01*
X124101081Y22904031D02*
X125851300Y25023343D01*
X124101081Y19475031D02*
X124101081Y19475031D01*
X124101081Y19475031D02*
X127732487Y23035000D01*
X124255200Y26730011D02*
X124416186Y26784482D01*
X124255200Y15529988D02*
X124097862Y15592025D01*
X124416186Y26784482D02*
X124580600Y26831170D01*
X124416186Y15475517D02*
X124255200Y15529988D01*
X124580600Y26831170D02*
X124748225Y26869858D01*
X124580600Y15428829D02*
X124416186Y15475517D01*
X124748225Y26869858D02*
X124918844Y26900327D01*
X124748225Y15390141D02*
X124580600Y15428829D01*
X124918844Y26900327D02*
X125092240Y26922361D01*
X124918844Y15359671D02*
X124748225Y15390141D01*
X125092240Y26922361D02*
X125268193Y26935741D01*
X125092240Y15337638D02*
X124918844Y15359671D01*
X125268193Y26935741D02*
X125446487Y26940249D01*
X125268193Y15324258D02*
X125092240Y15337638D01*
X125446487Y26940249D02*
X125446487Y26940249D01*
X125446487Y26940249D02*
X126137050Y26940249D01*
X125446487Y15319750D02*
X125268193Y15324258D01*
X125446487Y15319750D02*
X125446487Y15319750D01*
X125851300Y25023343D02*
X125851300Y25023343D01*
X125851300Y25023343D02*
X125851300Y17450969D01*
X125851300Y17450969D02*
X124101081Y19475031D01*
X125851300Y17450969D02*
X125851300Y17450969D01*
X126137050Y26940249D02*
X126137050Y26940249D01*
X126137050Y26940249D02*
X126315343Y26935741D01*
X126137050Y15319750D02*
X125446487Y15319750D01*
X126137050Y15319750D02*
X126137050Y15319750D01*
X126137050Y15319750D02*
X126137050Y15319750D01*
X126315343Y26935741D02*
X126491297Y26922361D01*
X126315343Y15324258D02*
X126137050Y15319750D01*
X126491297Y26922361D02*
X126664692Y26900327D01*
X126491297Y15337638D02*
X126315343Y15324258D01*
X126664692Y26900327D02*
X126835311Y26869858D01*
X126664692Y15359671D02*
X126491297Y15337638D01*
X126835311Y26869858D02*
X127002937Y26831170D01*
X126835311Y15390141D02*
X126664692Y15359671D01*
X127002937Y26831170D02*
X127167351Y26784482D01*
X127002937Y15428829D02*
X126835311Y15390141D01*
X127167351Y26784482D02*
X127328336Y26730011D01*
X127167351Y15475517D02*
X127002937Y15428829D01*
X127328336Y26730011D02*
X127485674Y26667974D01*
X127328336Y15529988D02*
X127167351Y15475517D01*
X127485674Y26667974D02*
X127639148Y26598590D01*
X127485674Y15592025D02*
X127328336Y15529988D01*
X127639148Y26598590D02*
X127788540Y26522076D01*
X127639148Y15661409D02*
X127485674Y15592025D01*
X127732487Y19248812D02*
X124101081Y22904031D01*
X127788540Y26522076D02*
X127933632Y26438650D01*
X127788540Y15737923D02*
X127639148Y15661409D01*
X127933632Y26438650D02*
X128074207Y26348529D01*
X127933632Y15821349D02*
X127788540Y15737923D01*
X128074207Y26348529D02*
X128210046Y26251932D01*
X128074207Y15911469D02*
X127933632Y15821349D01*
X128210046Y26251932D02*
X128340932Y26149076D01*
X128210046Y16008067D02*
X128074207Y15911469D01*
X128340932Y26149076D02*
X128466648Y26040178D01*
X128340932Y16110923D02*
X128210046Y16008067D01*
X128466648Y26040178D02*
X128586975Y25925456D01*
X128466648Y16219821D02*
X128340932Y16110923D01*
X128586975Y25925456D02*
X128701697Y25805129D01*
X128586975Y16334543D02*
X128466648Y16219821D01*
X128701697Y25805129D02*
X128810595Y25679413D01*
X128701697Y16454870D02*
X128586975Y16334543D01*
X128810595Y25679413D02*
X128913451Y25548527D01*
X128810595Y16580586D02*
X128701697Y16454870D01*
X128913451Y25548527D02*
X129010049Y25412688D01*
X128913451Y16711472D02*
X128810595Y16580586D01*
X129010049Y25412688D02*
X129100169Y25272113D01*
X129010049Y16847311D02*
X128913451Y16711472D01*
X129100169Y25272113D02*
X129183595Y25127021D01*
X129100169Y16987886D02*
X129010049Y16847311D01*
X129183595Y25127021D02*
X129260109Y24977629D01*
X129183595Y17132978D02*
X129100169Y16987886D01*
X129260109Y24977629D02*
X129329493Y24824156D01*
X129260109Y17282370D02*
X129183595Y17132978D01*
X129329493Y24824156D02*
X129391530Y24666817D01*
X129329493Y17435844D02*
X129260109Y17282370D01*
X129391530Y24666817D02*
X129446001Y24505832D01*
X129391530Y17593182D02*
X129329493Y17435844D01*
X129446001Y24505832D02*
X129492689Y24341418D01*
X129446001Y17754167D02*
X129391530Y17593182D01*
X129492689Y24341418D02*
X129531377Y24173792D01*
X129492689Y17918581D02*
X129446001Y17754167D01*
X129531377Y24173792D02*
X129561847Y24003173D01*
X129531377Y18086207D02*
X129492689Y17918581D01*
X129561847Y24003173D02*
X129583880Y23829778D01*
X129561847Y18256826D02*
X129531377Y18086207D01*
X129583880Y23829778D02*
X129597260Y23653825D01*
X129583880Y18430221D02*
X129561847Y18256826D01*
X129597260Y23653825D02*
X129601768Y23475531D01*
X129597260Y18606175D02*
X129583880Y18430221D01*
X129601768Y23475531D02*
X129601768Y23475531D01*
X129601768Y23475531D02*
X129601768Y18784468D01*
X129601768Y18784468D02*
X129597260Y18606175D01*
X129601768Y18784468D02*
X129601768Y18784468D01*
D11*
X132182487Y34560000D02*
X119482487Y34560000D01*
X132182487Y33630000D02*
X132182487Y34560000D01*
X132182487Y13990000D02*
X132182487Y7310000D01*
X132182487Y7310000D02*
X119482487Y7310000D01*
X133932487Y14635000D02*
G75*
G02*
X133732487Y14635000I-100000J0D01*
G01*
X133732487Y14635000D02*
G75*
G02*
X133932487Y14635000I100000J0D01*
G01*
G04 #@! TO.C,R35*
X95570000Y84729999D02*
X95170000Y84729999D01*
X95574389Y86032927D02*
X95174389Y86032927D01*
D16*
G04 #@! TO.C,F1*
X54982487Y19410000D02*
X54982487Y14560000D01*
X56982487Y19410000D02*
X56982487Y14560000D01*
X54982487Y19460000D02*
G75*
G02*
X56982487Y19460000I1000000J0D01*
G01*
X56982487Y14560000D02*
G75*
G02*
X54982487Y14560000I-1000000J0D01*
G01*
G04 #@! TO.C,P3*
X94352487Y3840000D02*
X94352487Y1180000D01*
X94646949Y1180000D02*
X94352487Y1180000D01*
X94658114Y3840000D02*
X94352487Y3840000D01*
X96706860Y1180000D02*
X97012487Y1180000D01*
X96718025Y3840000D02*
X97012487Y3840000D01*
X97012487Y1180000D02*
X97012487Y3840000D01*
D20*
G04 #@! TO.C,R4*
X75857096Y5087609D02*
X75857096Y6103609D01*
X75857096Y3055609D02*
X75857096Y4071609D01*
X77457096Y6103609D02*
X77457096Y5087609D01*
X77457096Y4071609D02*
X77457096Y3055609D01*
D16*
X75853601Y6163211D02*
G75*
G02*
X77457096Y6154609I803495J321398D01*
G01*
X77457096Y3004609D02*
G75*
G02*
X75855458Y3000609I-800000J-330000D01*
G01*
D11*
G04 #@! TO.C,R38*
X95155590Y86627073D02*
X95555590Y86627073D01*
X95159979Y87930001D02*
X95559979Y87930001D01*
G04 #@! TO.C,R36*
X100165611Y84757073D02*
X100565611Y84757073D01*
X100170000Y86060001D02*
X100570000Y86060001D01*
D16*
G04 #@! TO.C,F5*
X59792779Y50380000D02*
X59467221Y50380000D01*
X59792779Y49360000D02*
X59467221Y49360000D01*
D12*
G04 #@! TO.C,U1*
X36382487Y20860000D02*
X39782487Y20860000D01*
X38282487Y14510000D02*
X38282487Y14160000D01*
X38282487Y14160000D02*
X39832487Y14160000D01*
X46082487Y20860000D02*
X44532487Y20860000D01*
X46082487Y20510000D02*
X46082487Y20860000D01*
X46082487Y14510000D02*
X46082487Y14160000D01*
X46082487Y14160000D02*
X44532487Y14160000D01*
G04 #@! TO.C,U2*
X43007487Y11400000D02*
X46407487Y11400000D01*
X44907487Y5050000D02*
X44907487Y4700000D01*
X44907487Y4700000D02*
X46457487Y4700000D01*
X52707487Y11400000D02*
X51157487Y11400000D01*
X52707487Y11050000D02*
X52707487Y11400000D01*
X52707487Y5050000D02*
X52707487Y4700000D01*
X52707487Y4700000D02*
X51157487Y4700000D01*
D16*
G04 #@! TO.C,P7*
X115052487Y25340000D02*
X115052487Y22680000D01*
X115346949Y22680000D02*
X115052487Y22680000D01*
X115358114Y25340000D02*
X115052487Y25340000D01*
X117406860Y22680000D02*
X117712487Y22680000D01*
X117418025Y25340000D02*
X117712487Y25340000D01*
X117712487Y22680000D02*
X117712487Y25340000D01*
D11*
G04 #@! TO.C,M6*
X78782487Y48110000D02*
X78782487Y12310010D01*
X112582497Y48110000D02*
X78782497Y48110000D01*
X112582497Y48110000D02*
X112582497Y12310010D01*
X112582497Y12310010D02*
X78782487Y12310010D01*
D16*
G04 #@! TO.C,J9*
X78602487Y5860000D02*
X78602487Y3940000D01*
X78602487Y225000D02*
X78602487Y1930000D01*
X87762487Y3940000D02*
X87762487Y5860000D01*
X87762487Y1930000D02*
X87762487Y225000D01*
X87762487Y225000D02*
X78602487Y225000D01*
D11*
G04 #@! TO.C,M4*
X64507487Y77385000D02*
X64507487Y62385000D01*
X64507487Y77385000D02*
X65807487Y77385000D01*
X64507487Y62385000D02*
X69607487Y62385000D01*
X74107487Y77385000D02*
X67707487Y77385000D01*
X74107487Y62985000D02*
X74107487Y77385000D01*
D16*
G04 #@! TO.C,F2*
X51782487Y23610000D02*
X56632487Y23610000D01*
X51782487Y21610000D02*
X56632487Y21610000D01*
X51732487Y21610000D02*
G75*
G02*
X51732487Y23610000I0J1000000D01*
G01*
X56632487Y23610000D02*
G75*
G02*
X56632487Y21610000I0J-1000000D01*
G01*
G04 #@! TO.C,J6*
X117302487Y39240000D02*
X117302487Y36580000D01*
X130062487Y39240000D02*
X117302487Y39240000D01*
X130062487Y39240000D02*
X130062487Y36580000D01*
X130062487Y36580000D02*
X117302487Y36580000D01*
X131332487Y39240000D02*
X132662487Y39240000D01*
X132662487Y39240000D02*
X132662487Y37910000D01*
D18*
G04 #@! TO.C,R14*
X56411647Y8611056D02*
X56411636Y8211057D01*
X57157482Y8610000D02*
X57157472Y8210000D01*
D21*
G04 #@! TO.C,U3*
X97765737Y68455000D02*
X102845737Y76075000D01*
X97765737Y59565000D02*
X102845737Y51945000D01*
D12*
X98425737Y67936500D02*
X98425737Y60316500D01*
X98425737Y60316500D02*
X104775737Y60316500D01*
X104140737Y65079000D02*
X104775737Y65079000D01*
X104140737Y63174000D02*
X104140737Y65079000D01*
X104775737Y67936500D02*
X98425737Y67936500D01*
X104775737Y63174000D02*
X104140737Y63174000D01*
X104775737Y60316500D02*
X104775737Y67936500D01*
X106170737Y72235000D02*
X105970737Y71235000D01*
X106170737Y72235000D02*
X106770737Y71435000D01*
X107170737Y68235000D02*
X106170737Y72235000D01*
X107170737Y57235000D02*
X107170737Y58235000D01*
X107170737Y57235000D02*
X107870737Y57935000D01*
D21*
X107925737Y76075000D02*
X113640737Y67185000D01*
D12*
X109170737Y62235000D02*
X107170737Y57235000D01*
D21*
X113005737Y59565000D02*
X107925737Y51945000D01*
X114275737Y62105000D02*
X117450737Y62105000D01*
X117450737Y62105000D02*
X117450737Y59565000D01*
X117450737Y59565000D02*
X113005737Y59565000D01*
X107925737Y75440000D02*
G75*
G02*
X102845737Y75440000I-2540000J0D01*
G01*
X102845737Y75440000D02*
G75*
G02*
X107925737Y75440000I2540000J0D01*
G01*
X114275737Y64010000D02*
G75*
G02*
X96495737Y64010000I-8890000J0D01*
G01*
X96495737Y64010000D02*
G75*
G02*
X114275737Y64010000I8890000J0D01*
G01*
X107925737Y52580000D02*
G75*
G02*
X102845737Y52580000I-2540000J0D01*
G01*
X102845737Y52580000D02*
G75*
G02*
X107925737Y52580000I2540000J0D01*
G01*
D16*
G04 #@! TO.C,P16*
X39932487Y12840000D02*
X39932487Y10180000D01*
X40226949Y10180000D02*
X39932487Y10180000D01*
X40238114Y12840000D02*
X39932487Y12840000D01*
X42286860Y10180000D02*
X42592487Y10180000D01*
X42298025Y12840000D02*
X42592487Y12840000D01*
X42592487Y10180000D02*
X42592487Y12840000D01*
D11*
G04 #@! TO.C,C12*
X34432501Y14210000D02*
X35182486Y14210000D01*
G04 #@! TD*
M02*
