G04 #@! TF.GenerationSoftware,KiCad,Pcbnew,8.0.9-8.0.9-0~ubuntu24.04.1*
G04 #@! TF.CreationDate,2025-10-13T19:07:20+00:00*
G04 #@! TF.ProjectId,uaefi,75616566-692e-46b6-9963-61645f706362,E*
G04 #@! TF.SameCoordinates,Original*
G04 #@! TF.FileFunction,Soldermask,Bot*
G04 #@! TF.FilePolarity,Negative*
%FSLAX46Y46*%
G04 Gerber Fmt 4.6, Leading zero omitted, Abs format (unit mm)*
G04 Created by KiCad (PCBNEW 8.0.9-8.0.9-0~ubuntu24.04.1) date 2025-10-13 19:07:20*
%MOMM*%
%LPD*%
G01*
G04 APERTURE LIST*
%ADD10C,0.120000*%
%ADD11C,1.700000*%
%ADD12C,3.300000*%
%ADD13C,2.300000*%
%ADD14C,2.000000*%
%ADD15C,0.800000*%
%ADD16C,6.400000*%
%ADD17C,1.524000*%
%ADD18O,1.850000X1.700000*%
%ADD19C,0.600000*%
%ADD20R,1.100000X1.100000*%
%ADD21C,1.100000*%
%ADD22O,2.400000X1.100000*%
%ADD23C,1.500000*%
%ADD24C,0.599999*%
%ADD25C,0.650000*%
%ADD26O,1.000000X2.100000*%
%ADD27O,1.000000X1.600000*%
%ADD28R,1.700000X1.700000*%
%ADD29O,1.700000X1.700000*%
%ADD30C,3.302000*%
%ADD31R,2.299995X4.399991*%
%ADD32R,2.299995X3.999992*%
G04 APERTURE END LIST*
D10*
G04 #@! TO.C,U5*
X132332487Y7235000D02*
X119332487Y7235000D01*
X119332487Y14235000D01*
X132332487Y14235000D01*
X132332487Y7235000D01*
G36*
X132332487Y7235000D02*
G01*
X119332487Y7235000D01*
X119332487Y14235000D01*
X132332487Y14235000D01*
X132332487Y7235000D01*
G37*
G04 #@! TD*
D11*
G04 #@! TO.C,P8*
X116382487Y19310000D03*
G04 #@! TD*
G04 #@! TO.C,P5*
X74782487Y46010000D03*
G04 #@! TD*
G04 #@! TO.C,P1*
X65182487Y57510000D03*
G04 #@! TD*
D12*
G04 #@! TO.C,J25*
X16882487Y93985000D03*
D13*
X16132487Y88985000D03*
X16132487Y59485000D03*
D12*
X16882487Y54485000D03*
D14*
X22382487Y86235000D03*
X22382487Y83235000D03*
X22382487Y80235000D03*
X22382487Y77235000D03*
X22382487Y74235000D03*
X22382487Y71235000D03*
X22382487Y68235000D03*
X22382487Y65235000D03*
X22382487Y62235000D03*
X18882487Y84735000D03*
X18882487Y81735000D03*
X18882487Y78735000D03*
X18882487Y75735000D03*
X18882487Y72735000D03*
X18882487Y69735000D03*
X18882487Y66735000D03*
X18882487Y63735000D03*
X14882487Y84735000D03*
X14882487Y81735000D03*
X14882487Y78735000D03*
X14882487Y75735000D03*
X14882487Y72735000D03*
X14882487Y69735000D03*
X14882487Y66735000D03*
X14882487Y63735000D03*
X11382487Y86235000D03*
X11382487Y83235000D03*
X11382487Y80235000D03*
X11382487Y77235000D03*
X11382487Y74235000D03*
X11382487Y71235000D03*
X11382487Y68235000D03*
X11382487Y65235000D03*
X11382487Y62235000D03*
G04 #@! TD*
D11*
G04 #@! TO.C,P2*
X68082487Y57510000D03*
G04 #@! TD*
G04 #@! TO.C,P15*
X38722487Y11510000D03*
G04 #@! TD*
D15*
G04 #@! TO.C,H1*
X34282487Y96510000D03*
X34985431Y98207056D03*
X34985431Y94812944D03*
X36682487Y98910000D03*
D16*
X36682487Y96510000D03*
D15*
X36682487Y94110000D03*
X38379543Y98207056D03*
X38379543Y94812944D03*
X39082487Y96510000D03*
G04 #@! TD*
G04 #@! TO.C,H4*
X127282487Y96510000D03*
X127985431Y98207056D03*
X127985431Y94812944D03*
X129682487Y98910000D03*
D16*
X129682487Y96510000D03*
D15*
X129682487Y94110000D03*
X131379543Y98207056D03*
X131379543Y94812944D03*
X132082487Y96510000D03*
G04 #@! TD*
D17*
G04 #@! TO.C,F4*
X51582487Y19460000D03*
X51582487Y14560000D03*
G04 #@! TD*
G04 #@! TO.C,J7*
G36*
G01*
X116857487Y2160000D02*
X115507487Y2160000D01*
G75*
G02*
X115257487Y2410000I0J250000D01*
G01*
X115257487Y3610000D01*
G75*
G02*
X115507487Y3860000I250000J0D01*
G01*
X116857487Y3860000D01*
G75*
G02*
X117107487Y3610000I0J-250000D01*
G01*
X117107487Y2410000D01*
G75*
G02*
X116857487Y2160000I-250000J0D01*
G01*
G37*
D18*
X116182487Y5510000D03*
X116182487Y8010000D03*
X116182487Y10510000D03*
X116182487Y13010000D03*
G04 #@! TD*
D11*
G04 #@! TO.C,P4*
X95682487Y7510000D03*
G04 #@! TD*
D15*
G04 #@! TO.C,H2*
X34282487Y3510000D03*
X34985431Y5207056D03*
X34985431Y1812944D03*
X36682487Y5910000D03*
D16*
X36682487Y3510000D03*
D15*
X36682487Y1110000D03*
X38379543Y5207056D03*
X38379543Y1812944D03*
X39082487Y3510000D03*
G04 #@! TD*
D19*
G04 #@! TO.C,M3*
X82357487Y62685000D03*
X81157487Y62685000D03*
X83557487Y62685000D03*
X84757487Y62685000D03*
X78297487Y77110000D03*
X77297487Y77110000D03*
G04 #@! TD*
D11*
G04 #@! TO.C,P17*
X36182487Y11510000D03*
G04 #@! TD*
D20*
G04 #@! TO.C,J8*
X92432487Y3110000D03*
D21*
X90682487Y3910000D03*
X92432487Y4710000D03*
X90682487Y5510000D03*
X92432487Y6310000D03*
D22*
X91557487Y1060000D03*
X91557487Y8360000D03*
G04 #@! TD*
D17*
G04 #@! TO.C,F3*
X53782487Y19460000D03*
X53782487Y14560000D03*
G04 #@! TD*
D19*
G04 #@! TO.C,M2*
X112757486Y73135000D03*
X111807486Y73135000D03*
X110857488Y73135000D03*
X111857486Y81835000D03*
X112757486Y81835000D03*
G04 #@! TD*
D11*
G04 #@! TO.C,P18*
X56182487Y11010000D03*
G04 #@! TD*
D12*
G04 #@! TO.C,J23*
X17007487Y44435000D03*
D13*
X16257487Y39435000D03*
X16257487Y9935000D03*
D12*
X17007487Y4935000D03*
D14*
X22507487Y36685000D03*
X22507487Y33685000D03*
X22507487Y30685000D03*
X22507487Y27685000D03*
X22507487Y24685000D03*
X22507487Y21685000D03*
X22507487Y18685000D03*
X22507487Y15685000D03*
X22507487Y12685000D03*
X19007487Y35185000D03*
X19007487Y32185000D03*
X19007487Y29185000D03*
X19007487Y26185000D03*
X19007487Y23185000D03*
X19007487Y20185000D03*
X19007487Y17185000D03*
X19007487Y14185000D03*
X15007487Y35185000D03*
X15007487Y32185000D03*
X15007487Y29185000D03*
X15007487Y26185000D03*
X15007487Y23185000D03*
X15007487Y20185000D03*
X15007487Y17185000D03*
X15007487Y14185000D03*
X11507487Y36685000D03*
X11507487Y33685000D03*
X11507487Y30685000D03*
X11507487Y27685000D03*
X11507487Y24685000D03*
X11507487Y21685000D03*
X11507487Y18685000D03*
X11507487Y15685000D03*
X11507487Y12685000D03*
G04 #@! TD*
D23*
G04 #@! TO.C,M1*
X74057482Y20834999D03*
X74057482Y14435002D03*
X74057482Y12534999D03*
X74057482Y8234999D03*
D19*
X74507481Y5835002D03*
X74507481Y4835001D03*
D23*
X74057482Y1984999D03*
X58557485Y21285001D03*
X58557485Y19435002D03*
X58557485Y14484999D03*
X58557485Y2435001D03*
G04 #@! TD*
D11*
G04 #@! TO.C,P6*
X72242487Y46010000D03*
G04 #@! TD*
D24*
G04 #@! TO.C,M7*
X65182486Y46985001D03*
X65707486Y47860003D03*
X66457484Y46684999D03*
X70007485Y46760002D03*
G04 #@! TD*
D17*
G04 #@! TO.C,F1*
X55982487Y19460000D03*
X55982487Y14560000D03*
G04 #@! TD*
D11*
G04 #@! TO.C,G3*
X72682487Y49970000D03*
X72682487Y52510000D03*
X72682487Y55050000D03*
X72682487Y57590000D03*
X72682487Y60130000D03*
X75222487Y49970000D03*
X75222487Y52510000D03*
X75222487Y55050000D03*
X75222487Y57590000D03*
X75222487Y60130000D03*
X77762487Y49970000D03*
X77762487Y52510000D03*
X77762487Y55050000D03*
X77762487Y57590000D03*
X77762487Y60130000D03*
G04 #@! TD*
G04 #@! TO.C,P3*
X95682487Y2510000D03*
G04 #@! TD*
D17*
G04 #@! TO.C,R4*
X76657096Y6484609D03*
X76657096Y2674609D03*
G04 #@! TD*
D11*
G04 #@! TO.C,P7*
X116382487Y24010000D03*
G04 #@! TD*
D25*
G04 #@! TO.C,J9*
X80292487Y6615000D03*
X86072487Y6615000D03*
D26*
X78862487Y7115000D03*
D27*
X78862487Y2935000D03*
D26*
X87502487Y7115000D03*
D27*
X87502487Y2935000D03*
G04 #@! TD*
D15*
G04 #@! TO.C,H3*
X127282487Y3510000D03*
X127985431Y5207056D03*
X127985431Y1812944D03*
X129682487Y5910000D03*
D16*
X129682487Y3510000D03*
D15*
X129682487Y1110000D03*
X131379543Y5207056D03*
X131379543Y1812944D03*
X132082487Y3510000D03*
G04 #@! TD*
D19*
G04 #@! TO.C,M4*
X71307487Y62685000D03*
X70107487Y62685000D03*
X72507487Y62685000D03*
X73707487Y62685000D03*
X67247487Y77110000D03*
X66247487Y77110000D03*
G04 #@! TD*
D17*
G04 #@! TO.C,F2*
X51732487Y22610000D03*
X56632487Y22610000D03*
G04 #@! TD*
D28*
G04 #@! TO.C,J6*
X131332487Y37910000D03*
D29*
X128792487Y37910000D03*
X126252487Y37910000D03*
X123712487Y37910000D03*
X121172487Y37910000D03*
X118632487Y37910000D03*
G04 #@! TD*
D30*
G04 #@! TO.C,U3*
X105385737Y75440000D03*
X105385737Y52580000D03*
D17*
X92685737Y70360000D03*
X92685737Y67820000D03*
X92685737Y65280000D03*
X92685737Y62740000D03*
X92685737Y60200000D03*
X92685737Y57660000D03*
G04 #@! TD*
D11*
G04 #@! TO.C,P16*
X41262487Y11510000D03*
G04 #@! TD*
G04 #@! TO.C,G4*
X80302487Y49970000D03*
X80302487Y52510000D03*
X80302487Y55050000D03*
X80302487Y57590000D03*
X80302487Y60130000D03*
X82842487Y49970000D03*
X82842487Y52510000D03*
X82842487Y55050000D03*
X82842487Y57590000D03*
X82842487Y60130000D03*
X85382487Y49970000D03*
X85382487Y52510000D03*
X85382487Y55050000D03*
X85382487Y57590000D03*
X85382487Y60130000D03*
G04 #@! TD*
G04 #@! TO.C,D8*
G36*
G01*
X87582487Y81267023D02*
X87882487Y81267023D01*
G75*
G02*
X88032487Y81117023I0J-150000D01*
G01*
X88032487Y79942023D01*
G75*
G02*
X87882487Y79792023I-150000J0D01*
G01*
X87582487Y79792023D01*
G75*
G02*
X87432487Y79942023I0J150000D01*
G01*
X87432487Y81117023D01*
G75*
G02*
X87582487Y81267023I150000J0D01*
G01*
G37*
G36*
G01*
X89482487Y81267023D02*
X89782487Y81267023D01*
G75*
G02*
X89932487Y81117023I0J-150000D01*
G01*
X89932487Y79942023D01*
G75*
G02*
X89782487Y79792023I-150000J0D01*
G01*
X89482487Y79792023D01*
G75*
G02*
X89332487Y79942023I0J150000D01*
G01*
X89332487Y81117023D01*
G75*
G02*
X89482487Y81267023I150000J0D01*
G01*
G37*
G36*
G01*
X88532487Y79392023D02*
X88832487Y79392023D01*
G75*
G02*
X88982487Y79242023I0J-150000D01*
G01*
X88982487Y78067023D01*
G75*
G02*
X88832487Y77917023I-150000J0D01*
G01*
X88532487Y77917023D01*
G75*
G02*
X88382487Y78067023I0J150000D01*
G01*
X88382487Y79242023D01*
G75*
G02*
X88532487Y79392023I150000J0D01*
G01*
G37*
G04 #@! TD*
G04 #@! TO.C,C10*
G36*
G01*
X45832487Y13470000D02*
X44782487Y13470000D01*
G75*
G02*
X44682487Y13570000I0J100000D01*
G01*
X44682487Y14370000D01*
G75*
G02*
X44782487Y14470000I100000J0D01*
G01*
X45832487Y14470000D01*
G75*
G02*
X45932487Y14370000I0J-100000D01*
G01*
X45932487Y13570000D01*
G75*
G02*
X45832487Y13470000I-100000J0D01*
G01*
G37*
G36*
G01*
X45832487Y15470000D02*
X44782487Y15470000D01*
G75*
G02*
X44682487Y15570000I0J100000D01*
G01*
X44682487Y16370000D01*
G75*
G02*
X44782487Y16470000I100000J0D01*
G01*
X45832487Y16470000D01*
G75*
G02*
X45932487Y16370000I0J-100000D01*
G01*
X45932487Y15570000D01*
G75*
G02*
X45832487Y15470000I-100000J0D01*
G01*
G37*
G04 #@! TD*
G04 #@! TO.C,C27*
G36*
G01*
X94642487Y66325001D02*
X95322487Y66325001D01*
G75*
G02*
X95407487Y66240001I0J-85000D01*
G01*
X95407487Y65560001D01*
G75*
G02*
X95322487Y65475001I-85000J0D01*
G01*
X94642487Y65475001D01*
G75*
G02*
X94557487Y65560001I0J85000D01*
G01*
X94557487Y66240001D01*
G75*
G02*
X94642487Y66325001I85000J0D01*
G01*
G37*
G36*
G01*
X94642487Y64744999D02*
X95322487Y64744999D01*
G75*
G02*
X95407487Y64659999I0J-85000D01*
G01*
X95407487Y63979999D01*
G75*
G02*
X95322487Y63894999I-85000J0D01*
G01*
X94642487Y63894999D01*
G75*
G02*
X94557487Y63979999I0J85000D01*
G01*
X94557487Y64659999D01*
G75*
G02*
X94642487Y64744999I85000J0D01*
G01*
G37*
G04 #@! TD*
G04 #@! TO.C,D4*
G36*
G01*
X52692487Y75910000D02*
X51672487Y75910000D01*
G75*
G02*
X51582487Y76000000I0J90000D01*
G01*
X51582487Y76720000D01*
G75*
G02*
X51672487Y76810000I90000J0D01*
G01*
X52692487Y76810000D01*
G75*
G02*
X52782487Y76720000I0J-90000D01*
G01*
X52782487Y76000000D01*
G75*
G02*
X52692487Y75910000I-90000J0D01*
G01*
G37*
G36*
G01*
X52692487Y79210000D02*
X51672487Y79210000D01*
G75*
G02*
X51582487Y79300000I0J90000D01*
G01*
X51582487Y80020000D01*
G75*
G02*
X51672487Y80110000I90000J0D01*
G01*
X52692487Y80110000D01*
G75*
G02*
X52782487Y80020000I0J-90000D01*
G01*
X52782487Y79300000D01*
G75*
G02*
X52692487Y79210000I-90000J0D01*
G01*
G37*
G04 #@! TD*
D23*
G04 #@! TO.C,BT1*
X125182487Y21610142D03*
X125182487Y29110000D03*
D31*
X125182487Y17510048D03*
D32*
X125182487Y33510067D03*
G04 #@! TD*
G04 #@! TO.C,U10*
G36*
G01*
X34277487Y62910000D02*
X34577487Y62910000D01*
G75*
G02*
X34727487Y62760000I0J-150000D01*
G01*
X34727487Y61110000D01*
G75*
G02*
X34577487Y60960000I-150000J0D01*
G01*
X34277487Y60960000D01*
G75*
G02*
X34127487Y61110000I0J150000D01*
G01*
X34127487Y62760000D01*
G75*
G02*
X34277487Y62910000I150000J0D01*
G01*
G37*
G36*
G01*
X35547487Y62910000D02*
X35847487Y62910000D01*
G75*
G02*
X35997487Y62760000I0J-150000D01*
G01*
X35997487Y61110000D01*
G75*
G02*
X35847487Y60960000I-150000J0D01*
G01*
X35547487Y60960000D01*
G75*
G02*
X35397487Y61110000I0J150000D01*
G01*
X35397487Y62760000D01*
G75*
G02*
X35547487Y62910000I150000J0D01*
G01*
G37*
G36*
G01*
X36817487Y62910000D02*
X37117487Y62910000D01*
G75*
G02*
X37267487Y62760000I0J-150000D01*
G01*
X37267487Y61110000D01*
G75*
G02*
X37117487Y60960000I-150000J0D01*
G01*
X36817487Y60960000D01*
G75*
G02*
X36667487Y61110000I0J150000D01*
G01*
X36667487Y62760000D01*
G75*
G02*
X36817487Y62910000I150000J0D01*
G01*
G37*
G36*
G01*
X38087487Y62910000D02*
X38387487Y62910000D01*
G75*
G02*
X38537487Y62760000I0J-150000D01*
G01*
X38537487Y61110000D01*
G75*
G02*
X38387487Y60960000I-150000J0D01*
G01*
X38087487Y60960000D01*
G75*
G02*
X37937487Y61110000I0J150000D01*
G01*
X37937487Y62760000D01*
G75*
G02*
X38087487Y62910000I150000J0D01*
G01*
G37*
G36*
G01*
X38087487Y57960000D02*
X38387487Y57960000D01*
G75*
G02*
X38537487Y57810000I0J-150000D01*
G01*
X38537487Y56160000D01*
G75*
G02*
X38387487Y56010000I-150000J0D01*
G01*
X38087487Y56010000D01*
G75*
G02*
X37937487Y56160000I0J150000D01*
G01*
X37937487Y57810000D01*
G75*
G02*
X38087487Y57960000I150000J0D01*
G01*
G37*
G36*
G01*
X36817487Y57960000D02*
X37117487Y57960000D01*
G75*
G02*
X37267487Y57810000I0J-150000D01*
G01*
X37267487Y56160000D01*
G75*
G02*
X37117487Y56010000I-150000J0D01*
G01*
X36817487Y56010000D01*
G75*
G02*
X36667487Y56160000I0J150000D01*
G01*
X36667487Y57810000D01*
G75*
G02*
X36817487Y57960000I150000J0D01*
G01*
G37*
G36*
G01*
X35547487Y57960000D02*
X35847487Y57960000D01*
G75*
G02*
X35997487Y57810000I0J-150000D01*
G01*
X35997487Y56160000D01*
G75*
G02*
X35847487Y56010000I-150000J0D01*
G01*
X35547487Y56010000D01*
G75*
G02*
X35397487Y56160000I0J150000D01*
G01*
X35397487Y57810000D01*
G75*
G02*
X35547487Y57960000I150000J0D01*
G01*
G37*
G36*
G01*
X34277487Y57960000D02*
X34577487Y57960000D01*
G75*
G02*
X34727487Y57810000I0J-150000D01*
G01*
X34727487Y56160000D01*
G75*
G02*
X34577487Y56010000I-150000J0D01*
G01*
X34277487Y56010000D01*
G75*
G02*
X34127487Y56160000I0J150000D01*
G01*
X34127487Y57810000D01*
G75*
G02*
X34277487Y57960000I150000J0D01*
G01*
G37*
G04 #@! TD*
G04 #@! TO.C,R31*
G36*
G01*
X36122487Y40660000D02*
X35342487Y40660000D01*
G75*
G02*
X35272487Y40730000I0J70000D01*
G01*
X35272487Y41290000D01*
G75*
G02*
X35342487Y41360000I70000J0D01*
G01*
X36122487Y41360000D01*
G75*
G02*
X36192487Y41290000I0J-70000D01*
G01*
X36192487Y40730000D01*
G75*
G02*
X36122487Y40660000I-70000J0D01*
G01*
G37*
G36*
G01*
X36122487Y42260000D02*
X35342487Y42260000D01*
G75*
G02*
X35272487Y42330000I0J70000D01*
G01*
X35272487Y42890000D01*
G75*
G02*
X35342487Y42960000I70000J0D01*
G01*
X36122487Y42960000D01*
G75*
G02*
X36192487Y42890000I0J-70000D01*
G01*
X36192487Y42330000D01*
G75*
G02*
X36122487Y42260000I-70000J0D01*
G01*
G37*
G04 #@! TD*
G04 #@! TO.C,C30*
G36*
G01*
X91587489Y82950000D02*
X91587489Y82270000D01*
G75*
G02*
X91502489Y82185000I-85000J0D01*
G01*
X90822489Y82185000D01*
G75*
G02*
X90737489Y82270000I0J85000D01*
G01*
X90737489Y82950000D01*
G75*
G02*
X90822489Y83035000I85000J0D01*
G01*
X91502489Y83035000D01*
G75*
G02*
X91587489Y82950000I0J-85000D01*
G01*
G37*
G36*
G01*
X90007487Y82950000D02*
X90007487Y82270000D01*
G75*
G02*
X89922487Y82185000I-85000J0D01*
G01*
X89242487Y82185000D01*
G75*
G02*
X89157487Y82270000I0J85000D01*
G01*
X89157487Y82950000D01*
G75*
G02*
X89242487Y83035000I85000J0D01*
G01*
X89922487Y83035000D01*
G75*
G02*
X90007487Y82950000I0J-85000D01*
G01*
G37*
G04 #@! TD*
G04 #@! TO.C,C7*
G36*
G01*
X39832487Y13470000D02*
X38782487Y13470000D01*
G75*
G02*
X38682487Y13570000I0J100000D01*
G01*
X38682487Y14370000D01*
G75*
G02*
X38782487Y14470000I100000J0D01*
G01*
X39832487Y14470000D01*
G75*
G02*
X39932487Y14370000I0J-100000D01*
G01*
X39932487Y13570000D01*
G75*
G02*
X39832487Y13470000I-100000J0D01*
G01*
G37*
G36*
G01*
X39832487Y15470000D02*
X38782487Y15470000D01*
G75*
G02*
X38682487Y15570000I0J100000D01*
G01*
X38682487Y16370000D01*
G75*
G02*
X38782487Y16470000I100000J0D01*
G01*
X39832487Y16470000D01*
G75*
G02*
X39932487Y16370000I0J-100000D01*
G01*
X39932487Y15570000D01*
G75*
G02*
X39832487Y15470000I-100000J0D01*
G01*
G37*
G04 #@! TD*
G04 #@! TO.C,C33*
G36*
G01*
X129842487Y35225001D02*
X130522487Y35225001D01*
G75*
G02*
X130607487Y35140001I0J-85000D01*
G01*
X130607487Y34460001D01*
G75*
G02*
X130522487Y34375001I-85000J0D01*
G01*
X129842487Y34375001D01*
G75*
G02*
X129757487Y34460001I0J85000D01*
G01*
X129757487Y35140001D01*
G75*
G02*
X129842487Y35225001I85000J0D01*
G01*
G37*
G36*
G01*
X129842487Y33644999D02*
X130522487Y33644999D01*
G75*
G02*
X130607487Y33559999I0J-85000D01*
G01*
X130607487Y32879999D01*
G75*
G02*
X130522487Y32794999I-85000J0D01*
G01*
X129842487Y32794999D01*
G75*
G02*
X129757487Y32879999I0J85000D01*
G01*
X129757487Y33559999D01*
G75*
G02*
X129842487Y33644999I85000J0D01*
G01*
G37*
G04 #@! TD*
G04 #@! TO.C,C29*
G36*
G01*
X87467486Y76752023D02*
X87467486Y77432023D01*
G75*
G02*
X87552486Y77517023I85000J0D01*
G01*
X88232486Y77517023D01*
G75*
G02*
X88317486Y77432023I0J-85000D01*
G01*
X88317486Y76752023D01*
G75*
G02*
X88232486Y76667023I-85000J0D01*
G01*
X87552486Y76667023D01*
G75*
G02*
X87467486Y76752023I0J85000D01*
G01*
G37*
G36*
G01*
X89047488Y76752023D02*
X89047488Y77432023D01*
G75*
G02*
X89132488Y77517023I85000J0D01*
G01*
X89812488Y77517023D01*
G75*
G02*
X89897488Y77432023I0J-85000D01*
G01*
X89897488Y76752023D01*
G75*
G02*
X89812488Y76667023I-85000J0D01*
G01*
X89132488Y76667023D01*
G75*
G02*
X89047488Y76752023I0J85000D01*
G01*
G37*
G04 #@! TD*
G04 #@! TO.C,R34*
G36*
G01*
X39472487Y40660000D02*
X38692487Y40660000D01*
G75*
G02*
X38622487Y40730000I0J70000D01*
G01*
X38622487Y41290000D01*
G75*
G02*
X38692487Y41360000I70000J0D01*
G01*
X39472487Y41360000D01*
G75*
G02*
X39542487Y41290000I0J-70000D01*
G01*
X39542487Y40730000D01*
G75*
G02*
X39472487Y40660000I-70000J0D01*
G01*
G37*
G36*
G01*
X39472487Y42260000D02*
X38692487Y42260000D01*
G75*
G02*
X38622487Y42330000I0J70000D01*
G01*
X38622487Y42890000D01*
G75*
G02*
X38692487Y42960000I70000J0D01*
G01*
X39472487Y42960000D01*
G75*
G02*
X39542487Y42890000I0J-70000D01*
G01*
X39542487Y42330000D01*
G75*
G02*
X39472487Y42260000I-70000J0D01*
G01*
G37*
G04 #@! TD*
G04 #@! TO.C,C17*
G36*
G01*
X49257487Y11010000D02*
X50307487Y11010000D01*
G75*
G02*
X50407487Y10910000I0J-100000D01*
G01*
X50407487Y10110000D01*
G75*
G02*
X50307487Y10010000I-100000J0D01*
G01*
X49257487Y10010000D01*
G75*
G02*
X49157487Y10110000I0J100000D01*
G01*
X49157487Y10910000D01*
G75*
G02*
X49257487Y11010000I100000J0D01*
G01*
G37*
G36*
G01*
X49257487Y9010000D02*
X50307487Y9010000D01*
G75*
G02*
X50407487Y8910000I0J-100000D01*
G01*
X50407487Y8110000D01*
G75*
G02*
X50307487Y8010000I-100000J0D01*
G01*
X49257487Y8010000D01*
G75*
G02*
X49157487Y8110000I0J100000D01*
G01*
X49157487Y8910000D01*
G75*
G02*
X49257487Y9010000I100000J0D01*
G01*
G37*
G04 #@! TD*
G04 #@! TO.C,R20*
G36*
G01*
X60657487Y63835000D02*
X60657487Y60985000D01*
G75*
G02*
X60407487Y60735000I-250000J0D01*
G01*
X59682487Y60735000D01*
G75*
G02*
X59432487Y60985000I0J250000D01*
G01*
X59432487Y63835000D01*
G75*
G02*
X59682487Y64085000I250000J0D01*
G01*
X60407487Y64085000D01*
G75*
G02*
X60657487Y63835000I0J-250000D01*
G01*
G37*
G36*
G01*
X54732487Y63835000D02*
X54732487Y60985000D01*
G75*
G02*
X54482487Y60735000I-250000J0D01*
G01*
X53757487Y60735000D01*
G75*
G02*
X53507487Y60985000I0J250000D01*
G01*
X53507487Y63835000D01*
G75*
G02*
X53757487Y64085000I250000J0D01*
G01*
X54482487Y64085000D01*
G75*
G02*
X54732487Y63835000I0J-250000D01*
G01*
G37*
G04 #@! TD*
G04 #@! TO.C,C3*
G36*
G01*
X40782487Y20470000D02*
X41832487Y20470000D01*
G75*
G02*
X41932487Y20370000I0J-100000D01*
G01*
X41932487Y19570000D01*
G75*
G02*
X41832487Y19470000I-100000J0D01*
G01*
X40782487Y19470000D01*
G75*
G02*
X40682487Y19570000I0J100000D01*
G01*
X40682487Y20370000D01*
G75*
G02*
X40782487Y20470000I100000J0D01*
G01*
G37*
G36*
G01*
X40782487Y18470000D02*
X41832487Y18470000D01*
G75*
G02*
X41932487Y18370000I0J-100000D01*
G01*
X41932487Y17570000D01*
G75*
G02*
X41832487Y17470000I-100000J0D01*
G01*
X40782487Y17470000D01*
G75*
G02*
X40682487Y17570000I0J100000D01*
G01*
X40682487Y18370000D01*
G75*
G02*
X40782487Y18470000I100000J0D01*
G01*
G37*
G04 #@! TD*
G04 #@! TO.C,C23*
G36*
G01*
X52307487Y4010000D02*
X51257487Y4010000D01*
G75*
G02*
X51157487Y4110000I0J100000D01*
G01*
X51157487Y4910000D01*
G75*
G02*
X51257487Y5010000I100000J0D01*
G01*
X52307487Y5010000D01*
G75*
G02*
X52407487Y4910000I0J-100000D01*
G01*
X52407487Y4110000D01*
G75*
G02*
X52307487Y4010000I-100000J0D01*
G01*
G37*
G36*
G01*
X52307487Y6010000D02*
X51257487Y6010000D01*
G75*
G02*
X51157487Y6110000I0J100000D01*
G01*
X51157487Y6910000D01*
G75*
G02*
X51257487Y7010000I100000J0D01*
G01*
X52307487Y7010000D01*
G75*
G02*
X52407487Y6910000I0J-100000D01*
G01*
X52407487Y6110000D01*
G75*
G02*
X52307487Y6010000I-100000J0D01*
G01*
G37*
G04 #@! TD*
G04 #@! TO.C,U4*
G36*
G01*
X86627487Y75260000D02*
X86927487Y75260000D01*
G75*
G02*
X87077487Y75110000I0J-150000D01*
G01*
X87077487Y73460000D01*
G75*
G02*
X86927487Y73310000I-150000J0D01*
G01*
X86627487Y73310000D01*
G75*
G02*
X86477487Y73460000I0J150000D01*
G01*
X86477487Y75110000D01*
G75*
G02*
X86627487Y75260000I150000J0D01*
G01*
G37*
G36*
G01*
X87897487Y75260000D02*
X88197487Y75260000D01*
G75*
G02*
X88347487Y75110000I0J-150000D01*
G01*
X88347487Y73460000D01*
G75*
G02*
X88197487Y73310000I-150000J0D01*
G01*
X87897487Y73310000D01*
G75*
G02*
X87747487Y73460000I0J150000D01*
G01*
X87747487Y75110000D01*
G75*
G02*
X87897487Y75260000I150000J0D01*
G01*
G37*
G36*
G01*
X89167487Y75260000D02*
X89467487Y75260000D01*
G75*
G02*
X89617487Y75110000I0J-150000D01*
G01*
X89617487Y73460000D01*
G75*
G02*
X89467487Y73310000I-150000J0D01*
G01*
X89167487Y73310000D01*
G75*
G02*
X89017487Y73460000I0J150000D01*
G01*
X89017487Y75110000D01*
G75*
G02*
X89167487Y75260000I150000J0D01*
G01*
G37*
G36*
G01*
X90437487Y75260000D02*
X90737487Y75260000D01*
G75*
G02*
X90887487Y75110000I0J-150000D01*
G01*
X90887487Y73460000D01*
G75*
G02*
X90737487Y73310000I-150000J0D01*
G01*
X90437487Y73310000D01*
G75*
G02*
X90287487Y73460000I0J150000D01*
G01*
X90287487Y75110000D01*
G75*
G02*
X90437487Y75260000I150000J0D01*
G01*
G37*
G36*
G01*
X90437487Y70310000D02*
X90737487Y70310000D01*
G75*
G02*
X90887487Y70160000I0J-150000D01*
G01*
X90887487Y68510000D01*
G75*
G02*
X90737487Y68360000I-150000J0D01*
G01*
X90437487Y68360000D01*
G75*
G02*
X90287487Y68510000I0J150000D01*
G01*
X90287487Y70160000D01*
G75*
G02*
X90437487Y70310000I150000J0D01*
G01*
G37*
G36*
G01*
X89167487Y70310000D02*
X89467487Y70310000D01*
G75*
G02*
X89617487Y70160000I0J-150000D01*
G01*
X89617487Y68510000D01*
G75*
G02*
X89467487Y68360000I-150000J0D01*
G01*
X89167487Y68360000D01*
G75*
G02*
X89017487Y68510000I0J150000D01*
G01*
X89017487Y70160000D01*
G75*
G02*
X89167487Y70310000I150000J0D01*
G01*
G37*
G36*
G01*
X87897487Y70310000D02*
X88197487Y70310000D01*
G75*
G02*
X88347487Y70160000I0J-150000D01*
G01*
X88347487Y68510000D01*
G75*
G02*
X88197487Y68360000I-150000J0D01*
G01*
X87897487Y68360000D01*
G75*
G02*
X87747487Y68510000I0J150000D01*
G01*
X87747487Y70160000D01*
G75*
G02*
X87897487Y70310000I150000J0D01*
G01*
G37*
G36*
G01*
X86627487Y70310000D02*
X86927487Y70310000D01*
G75*
G02*
X87077487Y70160000I0J-150000D01*
G01*
X87077487Y68510000D01*
G75*
G02*
X86927487Y68360000I-150000J0D01*
G01*
X86627487Y68360000D01*
G75*
G02*
X86477487Y68510000I0J150000D01*
G01*
X86477487Y70160000D01*
G75*
G02*
X86627487Y70310000I150000J0D01*
G01*
G37*
G04 #@! TD*
G04 #@! TO.C,C1*
G36*
G01*
X36782487Y20470000D02*
X37832487Y20470000D01*
G75*
G02*
X37932487Y20370000I0J-100000D01*
G01*
X37932487Y19570000D01*
G75*
G02*
X37832487Y19470000I-100000J0D01*
G01*
X36782487Y19470000D01*
G75*
G02*
X36682487Y19570000I0J100000D01*
G01*
X36682487Y20370000D01*
G75*
G02*
X36782487Y20470000I100000J0D01*
G01*
G37*
G36*
G01*
X36782487Y18470000D02*
X37832487Y18470000D01*
G75*
G02*
X37932487Y18370000I0J-100000D01*
G01*
X37932487Y17570000D01*
G75*
G02*
X37832487Y17470000I-100000J0D01*
G01*
X36782487Y17470000D01*
G75*
G02*
X36682487Y17570000I0J100000D01*
G01*
X36682487Y18370000D01*
G75*
G02*
X36782487Y18470000I100000J0D01*
G01*
G37*
G04 #@! TD*
G04 #@! TO.C,R26*
G36*
G01*
X60657487Y42835000D02*
X60657487Y39985000D01*
G75*
G02*
X60407487Y39735000I-250000J0D01*
G01*
X59682487Y39735000D01*
G75*
G02*
X59432487Y39985000I0J250000D01*
G01*
X59432487Y42835000D01*
G75*
G02*
X59682487Y43085000I250000J0D01*
G01*
X60407487Y43085000D01*
G75*
G02*
X60657487Y42835000I0J-250000D01*
G01*
G37*
G36*
G01*
X54732487Y42835000D02*
X54732487Y39985000D01*
G75*
G02*
X54482487Y39735000I-250000J0D01*
G01*
X53757487Y39735000D01*
G75*
G02*
X53507487Y39985000I0J250000D01*
G01*
X53507487Y42835000D01*
G75*
G02*
X53757487Y43085000I250000J0D01*
G01*
X54482487Y43085000D01*
G75*
G02*
X54732487Y42835000I0J-250000D01*
G01*
G37*
G04 #@! TD*
G04 #@! TO.C,U11*
G36*
G01*
X34277487Y54360000D02*
X34577487Y54360000D01*
G75*
G02*
X34727487Y54210000I0J-150000D01*
G01*
X34727487Y52560000D01*
G75*
G02*
X34577487Y52410000I-150000J0D01*
G01*
X34277487Y52410000D01*
G75*
G02*
X34127487Y52560000I0J150000D01*
G01*
X34127487Y54210000D01*
G75*
G02*
X34277487Y54360000I150000J0D01*
G01*
G37*
G36*
G01*
X35547487Y54360000D02*
X35847487Y54360000D01*
G75*
G02*
X35997487Y54210000I0J-150000D01*
G01*
X35997487Y52560000D01*
G75*
G02*
X35847487Y52410000I-150000J0D01*
G01*
X35547487Y52410000D01*
G75*
G02*
X35397487Y52560000I0J150000D01*
G01*
X35397487Y54210000D01*
G75*
G02*
X35547487Y54360000I150000J0D01*
G01*
G37*
G36*
G01*
X36817487Y54360000D02*
X37117487Y54360000D01*
G75*
G02*
X37267487Y54210000I0J-150000D01*
G01*
X37267487Y52560000D01*
G75*
G02*
X37117487Y52410000I-150000J0D01*
G01*
X36817487Y52410000D01*
G75*
G02*
X36667487Y52560000I0J150000D01*
G01*
X36667487Y54210000D01*
G75*
G02*
X36817487Y54360000I150000J0D01*
G01*
G37*
G36*
G01*
X38087487Y54360000D02*
X38387487Y54360000D01*
G75*
G02*
X38537487Y54210000I0J-150000D01*
G01*
X38537487Y52560000D01*
G75*
G02*
X38387487Y52410000I-150000J0D01*
G01*
X38087487Y52410000D01*
G75*
G02*
X37937487Y52560000I0J150000D01*
G01*
X37937487Y54210000D01*
G75*
G02*
X38087487Y54360000I150000J0D01*
G01*
G37*
G36*
G01*
X38087487Y49410000D02*
X38387487Y49410000D01*
G75*
G02*
X38537487Y49260000I0J-150000D01*
G01*
X38537487Y47610000D01*
G75*
G02*
X38387487Y47460000I-150000J0D01*
G01*
X38087487Y47460000D01*
G75*
G02*
X37937487Y47610000I0J150000D01*
G01*
X37937487Y49260000D01*
G75*
G02*
X38087487Y49410000I150000J0D01*
G01*
G37*
G36*
G01*
X36817487Y49410000D02*
X37117487Y49410000D01*
G75*
G02*
X37267487Y49260000I0J-150000D01*
G01*
X37267487Y47610000D01*
G75*
G02*
X37117487Y47460000I-150000J0D01*
G01*
X36817487Y47460000D01*
G75*
G02*
X36667487Y47610000I0J150000D01*
G01*
X36667487Y49260000D01*
G75*
G02*
X36817487Y49410000I150000J0D01*
G01*
G37*
G36*
G01*
X35547487Y49410000D02*
X35847487Y49410000D01*
G75*
G02*
X35997487Y49260000I0J-150000D01*
G01*
X35997487Y47610000D01*
G75*
G02*
X35847487Y47460000I-150000J0D01*
G01*
X35547487Y47460000D01*
G75*
G02*
X35397487Y47610000I0J150000D01*
G01*
X35397487Y49260000D01*
G75*
G02*
X35547487Y49410000I150000J0D01*
G01*
G37*
G36*
G01*
X34277487Y49410000D02*
X34577487Y49410000D01*
G75*
G02*
X34727487Y49260000I0J-150000D01*
G01*
X34727487Y47610000D01*
G75*
G02*
X34577487Y47460000I-150000J0D01*
G01*
X34277487Y47460000D01*
G75*
G02*
X34127487Y47610000I0J150000D01*
G01*
X34127487Y49260000D01*
G75*
G02*
X34277487Y49410000I150000J0D01*
G01*
G37*
G04 #@! TD*
G04 #@! TO.C,C31*
G36*
G01*
X93122487Y72294999D02*
X92442487Y72294999D01*
G75*
G02*
X92357487Y72379999I0J85000D01*
G01*
X92357487Y73059999D01*
G75*
G02*
X92442487Y73144999I85000J0D01*
G01*
X93122487Y73144999D01*
G75*
G02*
X93207487Y73059999I0J-85000D01*
G01*
X93207487Y72379999D01*
G75*
G02*
X93122487Y72294999I-85000J0D01*
G01*
G37*
G36*
G01*
X93122487Y73875001D02*
X92442487Y73875001D01*
G75*
G02*
X92357487Y73960001I0J85000D01*
G01*
X92357487Y74640001D01*
G75*
G02*
X92442487Y74725001I85000J0D01*
G01*
X93122487Y74725001D01*
G75*
G02*
X93207487Y74640001I0J-85000D01*
G01*
X93207487Y73960001D01*
G75*
G02*
X93122487Y73875001I-85000J0D01*
G01*
G37*
G04 #@! TD*
G04 #@! TO.C,F9*
G36*
G01*
X63026237Y35685000D02*
X63538737Y35685000D01*
G75*
G02*
X63757487Y35466250I0J-218750D01*
G01*
X63757487Y35028750D01*
G75*
G02*
X63538737Y34810000I-218750J0D01*
G01*
X63026237Y34810000D01*
G75*
G02*
X62807487Y35028750I0J218750D01*
G01*
X62807487Y35466250D01*
G75*
G02*
X63026237Y35685000I218750J0D01*
G01*
G37*
G36*
G01*
X63026237Y34110000D02*
X63538737Y34110000D01*
G75*
G02*
X63757487Y33891250I0J-218750D01*
G01*
X63757487Y33453750D01*
G75*
G02*
X63538737Y33235000I-218750J0D01*
G01*
X63026237Y33235000D01*
G75*
G02*
X62807487Y33453750I0J218750D01*
G01*
X62807487Y33891250D01*
G75*
G02*
X63026237Y34110000I218750J0D01*
G01*
G37*
G04 #@! TD*
G04 #@! TO.C,C14*
G36*
G01*
X43257487Y11010000D02*
X44307487Y11010000D01*
G75*
G02*
X44407487Y10910000I0J-100000D01*
G01*
X44407487Y10110000D01*
G75*
G02*
X44307487Y10010000I-100000J0D01*
G01*
X43257487Y10010000D01*
G75*
G02*
X43157487Y10110000I0J100000D01*
G01*
X43157487Y10910000D01*
G75*
G02*
X43257487Y11010000I100000J0D01*
G01*
G37*
G36*
G01*
X43257487Y9010000D02*
X44307487Y9010000D01*
G75*
G02*
X44407487Y8910000I0J-100000D01*
G01*
X44407487Y8110000D01*
G75*
G02*
X44307487Y8010000I-100000J0D01*
G01*
X43257487Y8010000D01*
G75*
G02*
X43157487Y8110000I0J100000D01*
G01*
X43157487Y8910000D01*
G75*
G02*
X43257487Y9010000I100000J0D01*
G01*
G37*
G04 #@! TD*
G04 #@! TO.C,C19*
G36*
G01*
X44307487Y4010000D02*
X43257487Y4010000D01*
G75*
G02*
X43157487Y4110000I0J100000D01*
G01*
X43157487Y4910000D01*
G75*
G02*
X43257487Y5010000I100000J0D01*
G01*
X44307487Y5010000D01*
G75*
G02*
X44407487Y4910000I0J-100000D01*
G01*
X44407487Y4110000D01*
G75*
G02*
X44307487Y4010000I-100000J0D01*
G01*
G37*
G36*
G01*
X44307487Y6010000D02*
X43257487Y6010000D01*
G75*
G02*
X43157487Y6110000I0J100000D01*
G01*
X43157487Y6910000D01*
G75*
G02*
X43257487Y7010000I100000J0D01*
G01*
X44307487Y7010000D01*
G75*
G02*
X44407487Y6910000I0J-100000D01*
G01*
X44407487Y6110000D01*
G75*
G02*
X44307487Y6010000I-100000J0D01*
G01*
G37*
G04 #@! TD*
G04 #@! TO.C,F6*
G36*
G01*
X62976237Y63635000D02*
X63488737Y63635000D01*
G75*
G02*
X63707487Y63416250I0J-218750D01*
G01*
X63707487Y62978750D01*
G75*
G02*
X63488737Y62760000I-218750J0D01*
G01*
X62976237Y62760000D01*
G75*
G02*
X62757487Y62978750I0J218750D01*
G01*
X62757487Y63416250D01*
G75*
G02*
X62976237Y63635000I218750J0D01*
G01*
G37*
G36*
G01*
X62976237Y62060000D02*
X63488737Y62060000D01*
G75*
G02*
X63707487Y61841250I0J-218750D01*
G01*
X63707487Y61403750D01*
G75*
G02*
X63488737Y61185000I-218750J0D01*
G01*
X62976237Y61185000D01*
G75*
G02*
X62757487Y61403750I0J218750D01*
G01*
X62757487Y61841250D01*
G75*
G02*
X62976237Y62060000I218750J0D01*
G01*
G37*
G04 #@! TD*
G04 #@! TO.C,R27*
G36*
G01*
X60657487Y35835000D02*
X60657487Y32985000D01*
G75*
G02*
X60407487Y32735000I-250000J0D01*
G01*
X59682487Y32735000D01*
G75*
G02*
X59432487Y32985000I0J250000D01*
G01*
X59432487Y35835000D01*
G75*
G02*
X59682487Y36085000I250000J0D01*
G01*
X60407487Y36085000D01*
G75*
G02*
X60657487Y35835000I0J-250000D01*
G01*
G37*
G36*
G01*
X54732487Y35835000D02*
X54732487Y32985000D01*
G75*
G02*
X54482487Y32735000I-250000J0D01*
G01*
X53757487Y32735000D01*
G75*
G02*
X53507487Y32985000I0J250000D01*
G01*
X53507487Y35835000D01*
G75*
G02*
X53757487Y36085000I250000J0D01*
G01*
X54482487Y36085000D01*
G75*
G02*
X54732487Y35835000I0J-250000D01*
G01*
G37*
G04 #@! TD*
G04 #@! TO.C,R21*
G36*
G01*
X60657487Y56835000D02*
X60657487Y53985000D01*
G75*
G02*
X60407487Y53735000I-250000J0D01*
G01*
X59682487Y53735000D01*
G75*
G02*
X59432487Y53985000I0J250000D01*
G01*
X59432487Y56835000D01*
G75*
G02*
X59682487Y57085000I250000J0D01*
G01*
X60407487Y57085000D01*
G75*
G02*
X60657487Y56835000I0J-250000D01*
G01*
G37*
G36*
G01*
X54732487Y56835000D02*
X54732487Y53985000D01*
G75*
G02*
X54482487Y53735000I-250000J0D01*
G01*
X53757487Y53735000D01*
G75*
G02*
X53507487Y53985000I0J250000D01*
G01*
X53507487Y56835000D01*
G75*
G02*
X53757487Y57085000I250000J0D01*
G01*
X54482487Y57085000D01*
G75*
G02*
X54732487Y56835000I0J-250000D01*
G01*
G37*
G04 #@! TD*
G04 #@! TO.C,C4*
G36*
G01*
X42782487Y20470000D02*
X43832487Y20470000D01*
G75*
G02*
X43932487Y20370000I0J-100000D01*
G01*
X43932487Y19570000D01*
G75*
G02*
X43832487Y19470000I-100000J0D01*
G01*
X42782487Y19470000D01*
G75*
G02*
X42682487Y19570000I0J100000D01*
G01*
X42682487Y20370000D01*
G75*
G02*
X42782487Y20470000I100000J0D01*
G01*
G37*
G36*
G01*
X42782487Y18470000D02*
X43832487Y18470000D01*
G75*
G02*
X43932487Y18370000I0J-100000D01*
G01*
X43932487Y17570000D01*
G75*
G02*
X43832487Y17470000I-100000J0D01*
G01*
X42782487Y17470000D01*
G75*
G02*
X42682487Y17570000I0J100000D01*
G01*
X42682487Y18370000D01*
G75*
G02*
X42782487Y18470000I100000J0D01*
G01*
G37*
G04 #@! TD*
G04 #@! TO.C,F10*
G36*
G01*
X116076237Y33685000D02*
X116588737Y33685000D01*
G75*
G02*
X116807487Y33466250I0J-218750D01*
G01*
X116807487Y33028750D01*
G75*
G02*
X116588737Y32810000I-218750J0D01*
G01*
X116076237Y32810000D01*
G75*
G02*
X115857487Y33028750I0J218750D01*
G01*
X115857487Y33466250D01*
G75*
G02*
X116076237Y33685000I218750J0D01*
G01*
G37*
G36*
G01*
X116076237Y32110000D02*
X116588737Y32110000D01*
G75*
G02*
X116807487Y31891250I0J-218750D01*
G01*
X116807487Y31453750D01*
G75*
G02*
X116588737Y31235000I-218750J0D01*
G01*
X116076237Y31235000D01*
G75*
G02*
X115857487Y31453750I0J218750D01*
G01*
X115857487Y31891250D01*
G75*
G02*
X116076237Y32110000I218750J0D01*
G01*
G37*
G04 #@! TD*
G04 #@! TO.C,D2*
G36*
G01*
X52692487Y68410000D02*
X51672487Y68410000D01*
G75*
G02*
X51582487Y68500000I0J90000D01*
G01*
X51582487Y69220000D01*
G75*
G02*
X51672487Y69310000I90000J0D01*
G01*
X52692487Y69310000D01*
G75*
G02*
X52782487Y69220000I0J-90000D01*
G01*
X52782487Y68500000D01*
G75*
G02*
X52692487Y68410000I-90000J0D01*
G01*
G37*
G36*
G01*
X52692487Y71710000D02*
X51672487Y71710000D01*
G75*
G02*
X51582487Y71800000I0J90000D01*
G01*
X51582487Y72520000D01*
G75*
G02*
X51672487Y72610000I90000J0D01*
G01*
X52692487Y72610000D01*
G75*
G02*
X52782487Y72520000I0J-90000D01*
G01*
X52782487Y71800000D01*
G75*
G02*
X52692487Y71710000I-90000J0D01*
G01*
G37*
G04 #@! TD*
G04 #@! TO.C,D1*
G36*
G01*
X120322487Y15710000D02*
X119842487Y15710000D01*
G75*
G02*
X119782487Y15770000I0J60000D01*
G01*
X119782487Y16250000D01*
G75*
G02*
X119842487Y16310000I60000J0D01*
G01*
X120322487Y16310000D01*
G75*
G02*
X120382487Y16250000I0J-60000D01*
G01*
X120382487Y15770000D01*
G75*
G02*
X120322487Y15710000I-60000J0D01*
G01*
G37*
G36*
G01*
X122522487Y15710000D02*
X122042487Y15710000D01*
G75*
G02*
X121982487Y15770000I0J60000D01*
G01*
X121982487Y16250000D01*
G75*
G02*
X122042487Y16310000I60000J0D01*
G01*
X122522487Y16310000D01*
G75*
G02*
X122582487Y16250000I0J-60000D01*
G01*
X122582487Y15770000D01*
G75*
G02*
X122522487Y15710000I-60000J0D01*
G01*
G37*
G04 #@! TD*
G04 #@! TO.C,R19*
G36*
G01*
X62084987Y47260000D02*
X61304987Y47260000D01*
G75*
G02*
X61234987Y47330000I0J70000D01*
G01*
X61234987Y47890000D01*
G75*
G02*
X61304987Y47960000I70000J0D01*
G01*
X62084987Y47960000D01*
G75*
G02*
X62154987Y47890000I0J-70000D01*
G01*
X62154987Y47330000D01*
G75*
G02*
X62084987Y47260000I-70000J0D01*
G01*
G37*
G36*
G01*
X62084987Y48860000D02*
X61304987Y48860000D01*
G75*
G02*
X61234987Y48930000I0J70000D01*
G01*
X61234987Y49490000D01*
G75*
G02*
X61304987Y49560000I70000J0D01*
G01*
X62084987Y49560000D01*
G75*
G02*
X62154987Y49490000I0J-70000D01*
G01*
X62154987Y48930000D01*
G75*
G02*
X62084987Y48860000I-70000J0D01*
G01*
G37*
G04 #@! TD*
G04 #@! TO.C,R33*
G36*
G01*
X64792487Y29160000D02*
X65572487Y29160000D01*
G75*
G02*
X65642487Y29090000I0J-70000D01*
G01*
X65642487Y28530000D01*
G75*
G02*
X65572487Y28460000I-70000J0D01*
G01*
X64792487Y28460000D01*
G75*
G02*
X64722487Y28530000I0J70000D01*
G01*
X64722487Y29090000D01*
G75*
G02*
X64792487Y29160000I70000J0D01*
G01*
G37*
G36*
G01*
X64792487Y27560000D02*
X65572487Y27560000D01*
G75*
G02*
X65642487Y27490000I0J-70000D01*
G01*
X65642487Y26930000D01*
G75*
G02*
X65572487Y26860000I-70000J0D01*
G01*
X64792487Y26860000D01*
G75*
G02*
X64722487Y26930000I0J70000D01*
G01*
X64722487Y27490000D01*
G75*
G02*
X64792487Y27560000I70000J0D01*
G01*
G37*
G04 #@! TD*
G04 #@! TO.C,C21*
G36*
G01*
X48307487Y4010000D02*
X47257487Y4010000D01*
G75*
G02*
X47157487Y4110000I0J100000D01*
G01*
X47157487Y4910000D01*
G75*
G02*
X47257487Y5010000I100000J0D01*
G01*
X48307487Y5010000D01*
G75*
G02*
X48407487Y4910000I0J-100000D01*
G01*
X48407487Y4110000D01*
G75*
G02*
X48307487Y4010000I-100000J0D01*
G01*
G37*
G36*
G01*
X48307487Y6010000D02*
X47257487Y6010000D01*
G75*
G02*
X47157487Y6110000I0J100000D01*
G01*
X47157487Y6910000D01*
G75*
G02*
X47257487Y7010000I100000J0D01*
G01*
X48307487Y7010000D01*
G75*
G02*
X48407487Y6910000I0J-100000D01*
G01*
X48407487Y6110000D01*
G75*
G02*
X48307487Y6010000I-100000J0D01*
G01*
G37*
G04 #@! TD*
G04 #@! TO.C,F8*
G36*
G01*
X63026237Y42685000D02*
X63538737Y42685000D01*
G75*
G02*
X63757487Y42466250I0J-218750D01*
G01*
X63757487Y42028750D01*
G75*
G02*
X63538737Y41810000I-218750J0D01*
G01*
X63026237Y41810000D01*
G75*
G02*
X62807487Y42028750I0J218750D01*
G01*
X62807487Y42466250D01*
G75*
G02*
X63026237Y42685000I218750J0D01*
G01*
G37*
G36*
G01*
X63026237Y41110000D02*
X63538737Y41110000D01*
G75*
G02*
X63757487Y40891250I0J-218750D01*
G01*
X63757487Y40453750D01*
G75*
G02*
X63538737Y40235000I-218750J0D01*
G01*
X63026237Y40235000D01*
G75*
G02*
X62807487Y40453750I0J218750D01*
G01*
X62807487Y40891250D01*
G75*
G02*
X63026237Y41110000I218750J0D01*
G01*
G37*
G04 #@! TD*
G04 #@! TO.C,R23*
G36*
G01*
X62084987Y40260000D02*
X61304987Y40260000D01*
G75*
G02*
X61234987Y40330000I0J70000D01*
G01*
X61234987Y40890000D01*
G75*
G02*
X61304987Y40960000I70000J0D01*
G01*
X62084987Y40960000D01*
G75*
G02*
X62154987Y40890000I0J-70000D01*
G01*
X62154987Y40330000D01*
G75*
G02*
X62084987Y40260000I-70000J0D01*
G01*
G37*
G36*
G01*
X62084987Y41860000D02*
X61304987Y41860000D01*
G75*
G02*
X61234987Y41930000I0J70000D01*
G01*
X61234987Y42490000D01*
G75*
G02*
X61304987Y42560000I70000J0D01*
G01*
X62084987Y42560000D01*
G75*
G02*
X62154987Y42490000I0J-70000D01*
G01*
X62154987Y41930000D01*
G75*
G02*
X62084987Y41860000I-70000J0D01*
G01*
G37*
G04 #@! TD*
G04 #@! TO.C,R7*
G36*
G01*
X82572487Y3238318D02*
X81792487Y3238318D01*
G75*
G02*
X81722487Y3308318I0J70000D01*
G01*
X81722487Y3868318D01*
G75*
G02*
X81792487Y3938318I70000J0D01*
G01*
X82572487Y3938318D01*
G75*
G02*
X82642487Y3868318I0J-70000D01*
G01*
X82642487Y3308318D01*
G75*
G02*
X82572487Y3238318I-70000J0D01*
G01*
G37*
G36*
G01*
X82572487Y4838318D02*
X81792487Y4838318D01*
G75*
G02*
X81722487Y4908318I0J70000D01*
G01*
X81722487Y5468318D01*
G75*
G02*
X81792487Y5538318I70000J0D01*
G01*
X82572487Y5538318D01*
G75*
G02*
X82642487Y5468318I0J-70000D01*
G01*
X82642487Y4908318D01*
G75*
G02*
X82572487Y4838318I-70000J0D01*
G01*
G37*
G04 #@! TD*
G04 #@! TO.C,R24*
G36*
G01*
X62084987Y33260000D02*
X61304987Y33260000D01*
G75*
G02*
X61234987Y33330000I0J70000D01*
G01*
X61234987Y33890000D01*
G75*
G02*
X61304987Y33960000I70000J0D01*
G01*
X62084987Y33960000D01*
G75*
G02*
X62154987Y33890000I0J-70000D01*
G01*
X62154987Y33330000D01*
G75*
G02*
X62084987Y33260000I-70000J0D01*
G01*
G37*
G36*
G01*
X62084987Y34860000D02*
X61304987Y34860000D01*
G75*
G02*
X61234987Y34930000I0J70000D01*
G01*
X61234987Y35490000D01*
G75*
G02*
X61304987Y35560000I70000J0D01*
G01*
X62084987Y35560000D01*
G75*
G02*
X62154987Y35490000I0J-70000D01*
G01*
X62154987Y34930000D01*
G75*
G02*
X62084987Y34860000I-70000J0D01*
G01*
G37*
G04 #@! TD*
G04 #@! TO.C,F7*
G36*
G01*
X63076237Y49635000D02*
X63588737Y49635000D01*
G75*
G02*
X63807487Y49416250I0J-218750D01*
G01*
X63807487Y48978750D01*
G75*
G02*
X63588737Y48760000I-218750J0D01*
G01*
X63076237Y48760000D01*
G75*
G02*
X62857487Y48978750I0J218750D01*
G01*
X62857487Y49416250D01*
G75*
G02*
X63076237Y49635000I218750J0D01*
G01*
G37*
G36*
G01*
X63076237Y48060000D02*
X63588737Y48060000D01*
G75*
G02*
X63807487Y47841250I0J-218750D01*
G01*
X63807487Y47403750D01*
G75*
G02*
X63588737Y47185000I-218750J0D01*
G01*
X63076237Y47185000D01*
G75*
G02*
X62857487Y47403750I0J218750D01*
G01*
X62857487Y47841250D01*
G75*
G02*
X63076237Y48060000I218750J0D01*
G01*
G37*
G04 #@! TD*
G04 #@! TO.C,C32*
G36*
G01*
X94922487Y72294999D02*
X94242487Y72294999D01*
G75*
G02*
X94157487Y72379999I0J85000D01*
G01*
X94157487Y73059999D01*
G75*
G02*
X94242487Y73144999I85000J0D01*
G01*
X94922487Y73144999D01*
G75*
G02*
X95007487Y73059999I0J-85000D01*
G01*
X95007487Y72379999D01*
G75*
G02*
X94922487Y72294999I-85000J0D01*
G01*
G37*
G36*
G01*
X94922487Y73875001D02*
X94242487Y73875001D01*
G75*
G02*
X94157487Y73960001I0J85000D01*
G01*
X94157487Y74640001D01*
G75*
G02*
X94242487Y74725001I85000J0D01*
G01*
X94922487Y74725001D01*
G75*
G02*
X95007487Y74640001I0J-85000D01*
G01*
X95007487Y73960001D01*
G75*
G02*
X94922487Y73875001I-85000J0D01*
G01*
G37*
G04 #@! TD*
G04 #@! TO.C,R16*
G36*
G01*
X38622487Y88710000D02*
X37842487Y88710000D01*
G75*
G02*
X37772487Y88780000I0J70000D01*
G01*
X37772487Y89340000D01*
G75*
G02*
X37842487Y89410000I70000J0D01*
G01*
X38622487Y89410000D01*
G75*
G02*
X38692487Y89340000I0J-70000D01*
G01*
X38692487Y88780000D01*
G75*
G02*
X38622487Y88710000I-70000J0D01*
G01*
G37*
G36*
G01*
X38622487Y90310000D02*
X37842487Y90310000D01*
G75*
G02*
X37772487Y90380000I0J70000D01*
G01*
X37772487Y90940000D01*
G75*
G02*
X37842487Y91010000I70000J0D01*
G01*
X38622487Y91010000D01*
G75*
G02*
X38692487Y90940000I0J-70000D01*
G01*
X38692487Y90380000D01*
G75*
G02*
X38622487Y90310000I-70000J0D01*
G01*
G37*
G04 #@! TD*
G04 #@! TO.C,U9*
G36*
G01*
X34277487Y71660000D02*
X34577487Y71660000D01*
G75*
G02*
X34727487Y71510000I0J-150000D01*
G01*
X34727487Y69860000D01*
G75*
G02*
X34577487Y69710000I-150000J0D01*
G01*
X34277487Y69710000D01*
G75*
G02*
X34127487Y69860000I0J150000D01*
G01*
X34127487Y71510000D01*
G75*
G02*
X34277487Y71660000I150000J0D01*
G01*
G37*
G36*
G01*
X35547487Y71660000D02*
X35847487Y71660000D01*
G75*
G02*
X35997487Y71510000I0J-150000D01*
G01*
X35997487Y69860000D01*
G75*
G02*
X35847487Y69710000I-150000J0D01*
G01*
X35547487Y69710000D01*
G75*
G02*
X35397487Y69860000I0J150000D01*
G01*
X35397487Y71510000D01*
G75*
G02*
X35547487Y71660000I150000J0D01*
G01*
G37*
G36*
G01*
X36817487Y71660000D02*
X37117487Y71660000D01*
G75*
G02*
X37267487Y71510000I0J-150000D01*
G01*
X37267487Y69860000D01*
G75*
G02*
X37117487Y69710000I-150000J0D01*
G01*
X36817487Y69710000D01*
G75*
G02*
X36667487Y69860000I0J150000D01*
G01*
X36667487Y71510000D01*
G75*
G02*
X36817487Y71660000I150000J0D01*
G01*
G37*
G36*
G01*
X38087487Y71660000D02*
X38387487Y71660000D01*
G75*
G02*
X38537487Y71510000I0J-150000D01*
G01*
X38537487Y69860000D01*
G75*
G02*
X38387487Y69710000I-150000J0D01*
G01*
X38087487Y69710000D01*
G75*
G02*
X37937487Y69860000I0J150000D01*
G01*
X37937487Y71510000D01*
G75*
G02*
X38087487Y71660000I150000J0D01*
G01*
G37*
G36*
G01*
X38087487Y66710000D02*
X38387487Y66710000D01*
G75*
G02*
X38537487Y66560000I0J-150000D01*
G01*
X38537487Y64910000D01*
G75*
G02*
X38387487Y64760000I-150000J0D01*
G01*
X38087487Y64760000D01*
G75*
G02*
X37937487Y64910000I0J150000D01*
G01*
X37937487Y66560000D01*
G75*
G02*
X38087487Y66710000I150000J0D01*
G01*
G37*
G36*
G01*
X36817487Y66710000D02*
X37117487Y66710000D01*
G75*
G02*
X37267487Y66560000I0J-150000D01*
G01*
X37267487Y64910000D01*
G75*
G02*
X37117487Y64760000I-150000J0D01*
G01*
X36817487Y64760000D01*
G75*
G02*
X36667487Y64910000I0J150000D01*
G01*
X36667487Y66560000D01*
G75*
G02*
X36817487Y66710000I150000J0D01*
G01*
G37*
G36*
G01*
X35547487Y66710000D02*
X35847487Y66710000D01*
G75*
G02*
X35997487Y66560000I0J-150000D01*
G01*
X35997487Y64910000D01*
G75*
G02*
X35847487Y64760000I-150000J0D01*
G01*
X35547487Y64760000D01*
G75*
G02*
X35397487Y64910000I0J150000D01*
G01*
X35397487Y66560000D01*
G75*
G02*
X35547487Y66710000I150000J0D01*
G01*
G37*
G36*
G01*
X34277487Y66710000D02*
X34577487Y66710000D01*
G75*
G02*
X34727487Y66560000I0J-150000D01*
G01*
X34727487Y64910000D01*
G75*
G02*
X34577487Y64760000I-150000J0D01*
G01*
X34277487Y64760000D01*
G75*
G02*
X34127487Y64910000I0J150000D01*
G01*
X34127487Y66560000D01*
G75*
G02*
X34277487Y66710000I150000J0D01*
G01*
G37*
G04 #@! TD*
G04 #@! TO.C,R30*
G36*
G01*
X69772487Y25010000D02*
X68992487Y25010000D01*
G75*
G02*
X68922487Y25080000I0J70000D01*
G01*
X68922487Y25640000D01*
G75*
G02*
X68992487Y25710000I70000J0D01*
G01*
X69772487Y25710000D01*
G75*
G02*
X69842487Y25640000I0J-70000D01*
G01*
X69842487Y25080000D01*
G75*
G02*
X69772487Y25010000I-70000J0D01*
G01*
G37*
G36*
G01*
X69772487Y26610000D02*
X68992487Y26610000D01*
G75*
G02*
X68922487Y26680000I0J70000D01*
G01*
X68922487Y27240000D01*
G75*
G02*
X68992487Y27310000I70000J0D01*
G01*
X69772487Y27310000D01*
G75*
G02*
X69842487Y27240000I0J-70000D01*
G01*
X69842487Y26680000D01*
G75*
G02*
X69772487Y26610000I-70000J0D01*
G01*
G37*
G04 #@! TD*
G04 #@! TO.C,R22*
G36*
G01*
X60657487Y49835000D02*
X60657487Y46985000D01*
G75*
G02*
X60407487Y46735000I-250000J0D01*
G01*
X59682487Y46735000D01*
G75*
G02*
X59432487Y46985000I0J250000D01*
G01*
X59432487Y49835000D01*
G75*
G02*
X59682487Y50085000I250000J0D01*
G01*
X60407487Y50085000D01*
G75*
G02*
X60657487Y49835000I0J-250000D01*
G01*
G37*
G36*
G01*
X54732487Y49835000D02*
X54732487Y46985000D01*
G75*
G02*
X54482487Y46735000I-250000J0D01*
G01*
X53757487Y46735000D01*
G75*
G02*
X53507487Y46985000I0J250000D01*
G01*
X53507487Y49835000D01*
G75*
G02*
X53757487Y50085000I250000J0D01*
G01*
X54482487Y50085000D01*
G75*
G02*
X54732487Y49835000I0J-250000D01*
G01*
G37*
G04 #@! TD*
G04 #@! TO.C,R25*
G36*
G01*
X62084987Y26260000D02*
X61304987Y26260000D01*
G75*
G02*
X61234987Y26330000I0J70000D01*
G01*
X61234987Y26890000D01*
G75*
G02*
X61304987Y26960000I70000J0D01*
G01*
X62084987Y26960000D01*
G75*
G02*
X62154987Y26890000I0J-70000D01*
G01*
X62154987Y26330000D01*
G75*
G02*
X62084987Y26260000I-70000J0D01*
G01*
G37*
G36*
G01*
X62084987Y27860000D02*
X61304987Y27860000D01*
G75*
G02*
X61234987Y27930000I0J70000D01*
G01*
X61234987Y28490000D01*
G75*
G02*
X61304987Y28560000I70000J0D01*
G01*
X62084987Y28560000D01*
G75*
G02*
X62154987Y28490000I0J-70000D01*
G01*
X62154987Y27930000D01*
G75*
G02*
X62084987Y27860000I-70000J0D01*
G01*
G37*
G04 #@! TD*
G04 #@! TO.C,L2*
G36*
G01*
X87426237Y86235000D02*
X87938737Y86235000D01*
G75*
G02*
X88157487Y86016250I0J-218750D01*
G01*
X88157487Y85578750D01*
G75*
G02*
X87938737Y85360000I-218750J0D01*
G01*
X87426237Y85360000D01*
G75*
G02*
X87207487Y85578750I0J218750D01*
G01*
X87207487Y86016250D01*
G75*
G02*
X87426237Y86235000I218750J0D01*
G01*
G37*
G36*
G01*
X87426237Y84660000D02*
X87938737Y84660000D01*
G75*
G02*
X88157487Y84441250I0J-218750D01*
G01*
X88157487Y84003750D01*
G75*
G02*
X87938737Y83785000I-218750J0D01*
G01*
X87426237Y83785000D01*
G75*
G02*
X87207487Y84003750I0J218750D01*
G01*
X87207487Y84441250D01*
G75*
G02*
X87426237Y84660000I218750J0D01*
G01*
G37*
G04 #@! TD*
G04 #@! TO.C,C16*
G36*
G01*
X47257487Y11010000D02*
X48307487Y11010000D01*
G75*
G02*
X48407487Y10910000I0J-100000D01*
G01*
X48407487Y10110000D01*
G75*
G02*
X48307487Y10010000I-100000J0D01*
G01*
X47257487Y10010000D01*
G75*
G02*
X47157487Y10110000I0J100000D01*
G01*
X47157487Y10910000D01*
G75*
G02*
X47257487Y11010000I100000J0D01*
G01*
G37*
G36*
G01*
X47257487Y9010000D02*
X48307487Y9010000D01*
G75*
G02*
X48407487Y8910000I0J-100000D01*
G01*
X48407487Y8110000D01*
G75*
G02*
X48307487Y8010000I-100000J0D01*
G01*
X47257487Y8010000D01*
G75*
G02*
X47157487Y8110000I0J100000D01*
G01*
X47157487Y8910000D01*
G75*
G02*
X47257487Y9010000I100000J0D01*
G01*
G37*
G04 #@! TD*
G04 #@! TO.C,R17*
G36*
G01*
X62084987Y61260000D02*
X61304987Y61260000D01*
G75*
G02*
X61234987Y61330000I0J70000D01*
G01*
X61234987Y61890000D01*
G75*
G02*
X61304987Y61960000I70000J0D01*
G01*
X62084987Y61960000D01*
G75*
G02*
X62154987Y61890000I0J-70000D01*
G01*
X62154987Y61330000D01*
G75*
G02*
X62084987Y61260000I-70000J0D01*
G01*
G37*
G36*
G01*
X62084987Y62860000D02*
X61304987Y62860000D01*
G75*
G02*
X61234987Y62930000I0J70000D01*
G01*
X61234987Y63490000D01*
G75*
G02*
X61304987Y63560000I70000J0D01*
G01*
X62084987Y63560000D01*
G75*
G02*
X62154987Y63490000I0J-70000D01*
G01*
X62154987Y62930000D01*
G75*
G02*
X62084987Y62860000I-70000J0D01*
G01*
G37*
G04 #@! TD*
G04 #@! TO.C,C22*
G36*
G01*
X50307487Y4010000D02*
X49257487Y4010000D01*
G75*
G02*
X49157487Y4110000I0J100000D01*
G01*
X49157487Y4910000D01*
G75*
G02*
X49257487Y5010000I100000J0D01*
G01*
X50307487Y5010000D01*
G75*
G02*
X50407487Y4910000I0J-100000D01*
G01*
X50407487Y4110000D01*
G75*
G02*
X50307487Y4010000I-100000J0D01*
G01*
G37*
G36*
G01*
X50307487Y6010000D02*
X49257487Y6010000D01*
G75*
G02*
X49157487Y6110000I0J100000D01*
G01*
X49157487Y6910000D01*
G75*
G02*
X49257487Y7010000I100000J0D01*
G01*
X50307487Y7010000D01*
G75*
G02*
X50407487Y6910000I0J-100000D01*
G01*
X50407487Y6110000D01*
G75*
G02*
X50307487Y6010000I-100000J0D01*
G01*
G37*
G04 #@! TD*
G04 #@! TO.C,R8*
G36*
G01*
X85072487Y3238318D02*
X84292487Y3238318D01*
G75*
G02*
X84222487Y3308318I0J70000D01*
G01*
X84222487Y3868318D01*
G75*
G02*
X84292487Y3938318I70000J0D01*
G01*
X85072487Y3938318D01*
G75*
G02*
X85142487Y3868318I0J-70000D01*
G01*
X85142487Y3308318D01*
G75*
G02*
X85072487Y3238318I-70000J0D01*
G01*
G37*
G36*
G01*
X85072487Y4838318D02*
X84292487Y4838318D01*
G75*
G02*
X84222487Y4908318I0J70000D01*
G01*
X84222487Y5468318D01*
G75*
G02*
X84292487Y5538318I70000J0D01*
G01*
X85072487Y5538318D01*
G75*
G02*
X85142487Y5468318I0J-70000D01*
G01*
X85142487Y4908318D01*
G75*
G02*
X85072487Y4838318I-70000J0D01*
G01*
G37*
G04 #@! TD*
G04 #@! TO.C,R3*
G36*
G01*
X49572487Y16860000D02*
X48792487Y16860000D01*
G75*
G02*
X48722487Y16930000I0J70000D01*
G01*
X48722487Y17490000D01*
G75*
G02*
X48792487Y17560000I70000J0D01*
G01*
X49572487Y17560000D01*
G75*
G02*
X49642487Y17490000I0J-70000D01*
G01*
X49642487Y16930000D01*
G75*
G02*
X49572487Y16860000I-70000J0D01*
G01*
G37*
G36*
G01*
X49572487Y18460000D02*
X48792487Y18460000D01*
G75*
G02*
X48722487Y18530000I0J70000D01*
G01*
X48722487Y19090000D01*
G75*
G02*
X48792487Y19160000I70000J0D01*
G01*
X49572487Y19160000D01*
G75*
G02*
X49642487Y19090000I0J-70000D01*
G01*
X49642487Y18530000D01*
G75*
G02*
X49572487Y18460000I-70000J0D01*
G01*
G37*
G04 #@! TD*
G04 #@! TO.C,R15*
G36*
G01*
X36072487Y88710000D02*
X35292487Y88710000D01*
G75*
G02*
X35222487Y88780000I0J70000D01*
G01*
X35222487Y89340000D01*
G75*
G02*
X35292487Y89410000I70000J0D01*
G01*
X36072487Y89410000D01*
G75*
G02*
X36142487Y89340000I0J-70000D01*
G01*
X36142487Y88780000D01*
G75*
G02*
X36072487Y88710000I-70000J0D01*
G01*
G37*
G36*
G01*
X36072487Y90310000D02*
X35292487Y90310000D01*
G75*
G02*
X35222487Y90380000I0J70000D01*
G01*
X35222487Y90940000D01*
G75*
G02*
X35292487Y91010000I70000J0D01*
G01*
X36072487Y91010000D01*
G75*
G02*
X36142487Y90940000I0J-70000D01*
G01*
X36142487Y90380000D01*
G75*
G02*
X36072487Y90310000I-70000J0D01*
G01*
G37*
G04 #@! TD*
G04 #@! TO.C,R13*
G36*
G01*
X63872487Y72160000D02*
X63092487Y72160000D01*
G75*
G02*
X63022487Y72230000I0J70000D01*
G01*
X63022487Y72790000D01*
G75*
G02*
X63092487Y72860000I70000J0D01*
G01*
X63872487Y72860000D01*
G75*
G02*
X63942487Y72790000I0J-70000D01*
G01*
X63942487Y72230000D01*
G75*
G02*
X63872487Y72160000I-70000J0D01*
G01*
G37*
G36*
G01*
X63872487Y73760000D02*
X63092487Y73760000D01*
G75*
G02*
X63022487Y73830000I0J70000D01*
G01*
X63022487Y74390000D01*
G75*
G02*
X63092487Y74460000I70000J0D01*
G01*
X63872487Y74460000D01*
G75*
G02*
X63942487Y74390000I0J-70000D01*
G01*
X63942487Y73830000D01*
G75*
G02*
X63872487Y73760000I-70000J0D01*
G01*
G37*
G04 #@! TD*
G04 #@! TO.C,C5*
G36*
G01*
X44782487Y20470000D02*
X45832487Y20470000D01*
G75*
G02*
X45932487Y20370000I0J-100000D01*
G01*
X45932487Y19570000D01*
G75*
G02*
X45832487Y19470000I-100000J0D01*
G01*
X44782487Y19470000D01*
G75*
G02*
X44682487Y19570000I0J100000D01*
G01*
X44682487Y20370000D01*
G75*
G02*
X44782487Y20470000I100000J0D01*
G01*
G37*
G36*
G01*
X44782487Y18470000D02*
X45832487Y18470000D01*
G75*
G02*
X45932487Y18370000I0J-100000D01*
G01*
X45932487Y17570000D01*
G75*
G02*
X45832487Y17470000I-100000J0D01*
G01*
X44782487Y17470000D01*
G75*
G02*
X44682487Y17570000I0J100000D01*
G01*
X44682487Y18370000D01*
G75*
G02*
X44782487Y18470000I100000J0D01*
G01*
G37*
G04 #@! TD*
G04 #@! TO.C,F5*
G36*
G01*
X62976237Y56635000D02*
X63488737Y56635000D01*
G75*
G02*
X63707487Y56416250I0J-218750D01*
G01*
X63707487Y55978750D01*
G75*
G02*
X63488737Y55760000I-218750J0D01*
G01*
X62976237Y55760000D01*
G75*
G02*
X62757487Y55978750I0J218750D01*
G01*
X62757487Y56416250D01*
G75*
G02*
X62976237Y56635000I218750J0D01*
G01*
G37*
G36*
G01*
X62976237Y55060000D02*
X63488737Y55060000D01*
G75*
G02*
X63707487Y54841250I0J-218750D01*
G01*
X63707487Y54403750D01*
G75*
G02*
X63488737Y54185000I-218750J0D01*
G01*
X62976237Y54185000D01*
G75*
G02*
X62757487Y54403750I0J218750D01*
G01*
X62757487Y54841250D01*
G75*
G02*
X62976237Y55060000I218750J0D01*
G01*
G37*
G04 #@! TD*
G04 #@! TO.C,R32*
G36*
G01*
X66642487Y29560000D02*
X67422487Y29560000D01*
G75*
G02*
X67492487Y29490000I0J-70000D01*
G01*
X67492487Y28930000D01*
G75*
G02*
X67422487Y28860000I-70000J0D01*
G01*
X66642487Y28860000D01*
G75*
G02*
X66572487Y28930000I0J70000D01*
G01*
X66572487Y29490000D01*
G75*
G02*
X66642487Y29560000I70000J0D01*
G01*
G37*
G36*
G01*
X66642487Y27960000D02*
X67422487Y27960000D01*
G75*
G02*
X67492487Y27890000I0J-70000D01*
G01*
X67492487Y27330000D01*
G75*
G02*
X67422487Y27260000I-70000J0D01*
G01*
X66642487Y27260000D01*
G75*
G02*
X66572487Y27330000I0J70000D01*
G01*
X66572487Y27890000D01*
G75*
G02*
X66642487Y27960000I70000J0D01*
G01*
G37*
G04 #@! TD*
G04 #@! TO.C,C28*
G36*
G01*
X85767486Y82270000D02*
X85767486Y82950000D01*
G75*
G02*
X85852486Y83035000I85000J0D01*
G01*
X86532486Y83035000D01*
G75*
G02*
X86617486Y82950000I0J-85000D01*
G01*
X86617486Y82270000D01*
G75*
G02*
X86532486Y82185000I-85000J0D01*
G01*
X85852486Y82185000D01*
G75*
G02*
X85767486Y82270000I0J85000D01*
G01*
G37*
G36*
G01*
X87347488Y82270000D02*
X87347488Y82950000D01*
G75*
G02*
X87432488Y83035000I85000J0D01*
G01*
X88112488Y83035000D01*
G75*
G02*
X88197488Y82950000I0J-85000D01*
G01*
X88197488Y82270000D01*
G75*
G02*
X88112488Y82185000I-85000J0D01*
G01*
X87432488Y82185000D01*
G75*
G02*
X87347488Y82270000I0J85000D01*
G01*
G37*
G04 #@! TD*
G04 #@! TO.C,U6*
G36*
G01*
X35562487Y87735000D02*
X35862487Y87735000D01*
G75*
G02*
X36012487Y87585000I0J-150000D01*
G01*
X36012487Y85935000D01*
G75*
G02*
X35862487Y85785000I-150000J0D01*
G01*
X35562487Y85785000D01*
G75*
G02*
X35412487Y85935000I0J150000D01*
G01*
X35412487Y87585000D01*
G75*
G02*
X35562487Y87735000I150000J0D01*
G01*
G37*
G36*
G01*
X36832487Y87735000D02*
X37132487Y87735000D01*
G75*
G02*
X37282487Y87585000I0J-150000D01*
G01*
X37282487Y85935000D01*
G75*
G02*
X37132487Y85785000I-150000J0D01*
G01*
X36832487Y85785000D01*
G75*
G02*
X36682487Y85935000I0J150000D01*
G01*
X36682487Y87585000D01*
G75*
G02*
X36832487Y87735000I150000J0D01*
G01*
G37*
G36*
G01*
X38102487Y87735000D02*
X38402487Y87735000D01*
G75*
G02*
X38552487Y87585000I0J-150000D01*
G01*
X38552487Y85935000D01*
G75*
G02*
X38402487Y85785000I-150000J0D01*
G01*
X38102487Y85785000D01*
G75*
G02*
X37952487Y85935000I0J150000D01*
G01*
X37952487Y87585000D01*
G75*
G02*
X38102487Y87735000I150000J0D01*
G01*
G37*
G36*
G01*
X39372487Y87735000D02*
X39672487Y87735000D01*
G75*
G02*
X39822487Y87585000I0J-150000D01*
G01*
X39822487Y85935000D01*
G75*
G02*
X39672487Y85785000I-150000J0D01*
G01*
X39372487Y85785000D01*
G75*
G02*
X39222487Y85935000I0J150000D01*
G01*
X39222487Y87585000D01*
G75*
G02*
X39372487Y87735000I150000J0D01*
G01*
G37*
G36*
G01*
X39372487Y82785000D02*
X39672487Y82785000D01*
G75*
G02*
X39822487Y82635000I0J-150000D01*
G01*
X39822487Y80985000D01*
G75*
G02*
X39672487Y80835000I-150000J0D01*
G01*
X39372487Y80835000D01*
G75*
G02*
X39222487Y80985000I0J150000D01*
G01*
X39222487Y82635000D01*
G75*
G02*
X39372487Y82785000I150000J0D01*
G01*
G37*
G36*
G01*
X38102487Y82785000D02*
X38402487Y82785000D01*
G75*
G02*
X38552487Y82635000I0J-150000D01*
G01*
X38552487Y80985000D01*
G75*
G02*
X38402487Y80835000I-150000J0D01*
G01*
X38102487Y80835000D01*
G75*
G02*
X37952487Y80985000I0J150000D01*
G01*
X37952487Y82635000D01*
G75*
G02*
X38102487Y82785000I150000J0D01*
G01*
G37*
G36*
G01*
X36832487Y82785000D02*
X37132487Y82785000D01*
G75*
G02*
X37282487Y82635000I0J-150000D01*
G01*
X37282487Y80985000D01*
G75*
G02*
X37132487Y80835000I-150000J0D01*
G01*
X36832487Y80835000D01*
G75*
G02*
X36682487Y80985000I0J150000D01*
G01*
X36682487Y82635000D01*
G75*
G02*
X36832487Y82785000I150000J0D01*
G01*
G37*
G36*
G01*
X35562487Y82785000D02*
X35862487Y82785000D01*
G75*
G02*
X36012487Y82635000I0J-150000D01*
G01*
X36012487Y80985000D01*
G75*
G02*
X35862487Y80835000I-150000J0D01*
G01*
X35562487Y80835000D01*
G75*
G02*
X35412487Y80985000I0J150000D01*
G01*
X35412487Y82635000D01*
G75*
G02*
X35562487Y82785000I150000J0D01*
G01*
G37*
G04 #@! TD*
G04 #@! TO.C,R29*
G36*
G01*
X37822487Y40660000D02*
X37042487Y40660000D01*
G75*
G02*
X36972487Y40730000I0J70000D01*
G01*
X36972487Y41290000D01*
G75*
G02*
X37042487Y41360000I70000J0D01*
G01*
X37822487Y41360000D01*
G75*
G02*
X37892487Y41290000I0J-70000D01*
G01*
X37892487Y40730000D01*
G75*
G02*
X37822487Y40660000I-70000J0D01*
G01*
G37*
G36*
G01*
X37822487Y42260000D02*
X37042487Y42260000D01*
G75*
G02*
X36972487Y42330000I0J70000D01*
G01*
X36972487Y42890000D01*
G75*
G02*
X37042487Y42960000I70000J0D01*
G01*
X37822487Y42960000D01*
G75*
G02*
X37892487Y42890000I0J-70000D01*
G01*
X37892487Y42330000D01*
G75*
G02*
X37822487Y42260000I-70000J0D01*
G01*
G37*
G04 #@! TD*
G04 #@! TO.C,R18*
G36*
G01*
X62084987Y54260000D02*
X61304987Y54260000D01*
G75*
G02*
X61234987Y54330000I0J70000D01*
G01*
X61234987Y54890000D01*
G75*
G02*
X61304987Y54960000I70000J0D01*
G01*
X62084987Y54960000D01*
G75*
G02*
X62154987Y54890000I0J-70000D01*
G01*
X62154987Y54330000D01*
G75*
G02*
X62084987Y54260000I-70000J0D01*
G01*
G37*
G36*
G01*
X62084987Y55860000D02*
X61304987Y55860000D01*
G75*
G02*
X61234987Y55930000I0J70000D01*
G01*
X61234987Y56490000D01*
G75*
G02*
X61304987Y56560000I70000J0D01*
G01*
X62084987Y56560000D01*
G75*
G02*
X62154987Y56490000I0J-70000D01*
G01*
X62154987Y55930000D01*
G75*
G02*
X62084987Y55860000I-70000J0D01*
G01*
G37*
G04 #@! TD*
G04 #@! TO.C,L1*
G36*
G01*
X89426237Y86235000D02*
X89938737Y86235000D01*
G75*
G02*
X90157487Y86016250I0J-218750D01*
G01*
X90157487Y85578750D01*
G75*
G02*
X89938737Y85360000I-218750J0D01*
G01*
X89426237Y85360000D01*
G75*
G02*
X89207487Y85578750I0J218750D01*
G01*
X89207487Y86016250D01*
G75*
G02*
X89426237Y86235000I218750J0D01*
G01*
G37*
G36*
G01*
X89426237Y84660000D02*
X89938737Y84660000D01*
G75*
G02*
X90157487Y84441250I0J-218750D01*
G01*
X90157487Y84003750D01*
G75*
G02*
X89938737Y83785000I-218750J0D01*
G01*
X89426237Y83785000D01*
G75*
G02*
X89207487Y84003750I0J218750D01*
G01*
X89207487Y84441250D01*
G75*
G02*
X89426237Y84660000I218750J0D01*
G01*
G37*
G04 #@! TD*
G04 #@! TO.C,C15*
G36*
G01*
X45257487Y11010000D02*
X46307487Y11010000D01*
G75*
G02*
X46407487Y10910000I0J-100000D01*
G01*
X46407487Y10110000D01*
G75*
G02*
X46307487Y10010000I-100000J0D01*
G01*
X45257487Y10010000D01*
G75*
G02*
X45157487Y10110000I0J100000D01*
G01*
X45157487Y10910000D01*
G75*
G02*
X45257487Y11010000I100000J0D01*
G01*
G37*
G36*
G01*
X45257487Y9010000D02*
X46307487Y9010000D01*
G75*
G02*
X46407487Y8910000I0J-100000D01*
G01*
X46407487Y8110000D01*
G75*
G02*
X46307487Y8010000I-100000J0D01*
G01*
X45257487Y8010000D01*
G75*
G02*
X45157487Y8110000I0J100000D01*
G01*
X45157487Y8910000D01*
G75*
G02*
X45257487Y9010000I100000J0D01*
G01*
G37*
G04 #@! TD*
G04 #@! TO.C,R28*
G36*
G01*
X60657487Y28835000D02*
X60657487Y25985000D01*
G75*
G02*
X60407487Y25735000I-250000J0D01*
G01*
X59682487Y25735000D01*
G75*
G02*
X59432487Y25985000I0J250000D01*
G01*
X59432487Y28835000D01*
G75*
G02*
X59682487Y29085000I250000J0D01*
G01*
X60407487Y29085000D01*
G75*
G02*
X60657487Y28835000I0J-250000D01*
G01*
G37*
G36*
G01*
X54732487Y28835000D02*
X54732487Y25985000D01*
G75*
G02*
X54482487Y25735000I-250000J0D01*
G01*
X53757487Y25735000D01*
G75*
G02*
X53507487Y25985000I0J250000D01*
G01*
X53507487Y28835000D01*
G75*
G02*
X53757487Y29085000I250000J0D01*
G01*
X54482487Y29085000D01*
G75*
G02*
X54732487Y28835000I0J-250000D01*
G01*
G37*
G04 #@! TD*
G04 #@! TO.C,C8*
G36*
G01*
X41832487Y13470000D02*
X40782487Y13470000D01*
G75*
G02*
X40682487Y13570000I0J100000D01*
G01*
X40682487Y14370000D01*
G75*
G02*
X40782487Y14470000I100000J0D01*
G01*
X41832487Y14470000D01*
G75*
G02*
X41932487Y14370000I0J-100000D01*
G01*
X41932487Y13570000D01*
G75*
G02*
X41832487Y13470000I-100000J0D01*
G01*
G37*
G36*
G01*
X41832487Y15470000D02*
X40782487Y15470000D01*
G75*
G02*
X40682487Y15570000I0J100000D01*
G01*
X40682487Y16370000D01*
G75*
G02*
X40782487Y16470000I100000J0D01*
G01*
X41832487Y16470000D01*
G75*
G02*
X41932487Y16370000I0J-100000D01*
G01*
X41932487Y15570000D01*
G75*
G02*
X41832487Y15470000I-100000J0D01*
G01*
G37*
G04 #@! TD*
G04 #@! TO.C,C9*
G36*
G01*
X43832487Y13470000D02*
X42782487Y13470000D01*
G75*
G02*
X42682487Y13570000I0J100000D01*
G01*
X42682487Y14370000D01*
G75*
G02*
X42782487Y14470000I100000J0D01*
G01*
X43832487Y14470000D01*
G75*
G02*
X43932487Y14370000I0J-100000D01*
G01*
X43932487Y13570000D01*
G75*
G02*
X43832487Y13470000I-100000J0D01*
G01*
G37*
G36*
G01*
X43832487Y15470000D02*
X42782487Y15470000D01*
G75*
G02*
X42682487Y15570000I0J100000D01*
G01*
X42682487Y16370000D01*
G75*
G02*
X42782487Y16470000I100000J0D01*
G01*
X43832487Y16470000D01*
G75*
G02*
X43932487Y16370000I0J-100000D01*
G01*
X43932487Y15570000D01*
G75*
G02*
X43832487Y15470000I-100000J0D01*
G01*
G37*
G04 #@! TD*
G04 #@! TO.C,C6*
G36*
G01*
X37832487Y13470000D02*
X36782487Y13470000D01*
G75*
G02*
X36682487Y13570000I0J100000D01*
G01*
X36682487Y14370000D01*
G75*
G02*
X36782487Y14470000I100000J0D01*
G01*
X37832487Y14470000D01*
G75*
G02*
X37932487Y14370000I0J-100000D01*
G01*
X37932487Y13570000D01*
G75*
G02*
X37832487Y13470000I-100000J0D01*
G01*
G37*
G36*
G01*
X37832487Y15470000D02*
X36782487Y15470000D01*
G75*
G02*
X36682487Y15570000I0J100000D01*
G01*
X36682487Y16370000D01*
G75*
G02*
X36782487Y16470000I100000J0D01*
G01*
X37832487Y16470000D01*
G75*
G02*
X37932487Y16370000I0J-100000D01*
G01*
X37932487Y15570000D01*
G75*
G02*
X37832487Y15470000I-100000J0D01*
G01*
G37*
G04 #@! TD*
G04 #@! TO.C,C2*
G36*
G01*
X38782487Y20470000D02*
X39832487Y20470000D01*
G75*
G02*
X39932487Y20370000I0J-100000D01*
G01*
X39932487Y19570000D01*
G75*
G02*
X39832487Y19470000I-100000J0D01*
G01*
X38782487Y19470000D01*
G75*
G02*
X38682487Y19570000I0J100000D01*
G01*
X38682487Y20370000D01*
G75*
G02*
X38782487Y20470000I100000J0D01*
G01*
G37*
G36*
G01*
X38782487Y18470000D02*
X39832487Y18470000D01*
G75*
G02*
X39932487Y18370000I0J-100000D01*
G01*
X39932487Y17570000D01*
G75*
G02*
X39832487Y17470000I-100000J0D01*
G01*
X38782487Y17470000D01*
G75*
G02*
X38682487Y17570000I0J100000D01*
G01*
X38682487Y18370000D01*
G75*
G02*
X38782487Y18470000I100000J0D01*
G01*
G37*
G04 #@! TD*
G04 #@! TO.C,C18*
G36*
G01*
X51257487Y11010000D02*
X52307487Y11010000D01*
G75*
G02*
X52407487Y10910000I0J-100000D01*
G01*
X52407487Y10110000D01*
G75*
G02*
X52307487Y10010000I-100000J0D01*
G01*
X51257487Y10010000D01*
G75*
G02*
X51157487Y10110000I0J100000D01*
G01*
X51157487Y10910000D01*
G75*
G02*
X51257487Y11010000I100000J0D01*
G01*
G37*
G36*
G01*
X51257487Y9010000D02*
X52307487Y9010000D01*
G75*
G02*
X52407487Y8910000I0J-100000D01*
G01*
X52407487Y8110000D01*
G75*
G02*
X52307487Y8010000I-100000J0D01*
G01*
X51257487Y8010000D01*
G75*
G02*
X51157487Y8110000I0J100000D01*
G01*
X51157487Y8910000D01*
G75*
G02*
X51257487Y9010000I100000J0D01*
G01*
G37*
G04 #@! TD*
G04 #@! TO.C,R12*
G36*
G01*
X63872487Y75560000D02*
X63092487Y75560000D01*
G75*
G02*
X63022487Y75630000I0J70000D01*
G01*
X63022487Y76190000D01*
G75*
G02*
X63092487Y76260000I70000J0D01*
G01*
X63872487Y76260000D01*
G75*
G02*
X63942487Y76190000I0J-70000D01*
G01*
X63942487Y75630000D01*
G75*
G02*
X63872487Y75560000I-70000J0D01*
G01*
G37*
G36*
G01*
X63872487Y77160000D02*
X63092487Y77160000D01*
G75*
G02*
X63022487Y77230000I0J70000D01*
G01*
X63022487Y77790000D01*
G75*
G02*
X63092487Y77860000I70000J0D01*
G01*
X63872487Y77860000D01*
G75*
G02*
X63942487Y77790000I0J-70000D01*
G01*
X63942487Y77230000D01*
G75*
G02*
X63872487Y77160000I-70000J0D01*
G01*
G37*
G04 #@! TD*
G04 #@! TO.C,C20*
G36*
G01*
X46307487Y4010000D02*
X45257487Y4010000D01*
G75*
G02*
X45157487Y4110000I0J100000D01*
G01*
X45157487Y4910000D01*
G75*
G02*
X45257487Y5010000I100000J0D01*
G01*
X46307487Y5010000D01*
G75*
G02*
X46407487Y4910000I0J-100000D01*
G01*
X46407487Y4110000D01*
G75*
G02*
X46307487Y4010000I-100000J0D01*
G01*
G37*
G36*
G01*
X46307487Y6010000D02*
X45257487Y6010000D01*
G75*
G02*
X45157487Y6110000I0J100000D01*
G01*
X45157487Y6910000D01*
G75*
G02*
X45257487Y7010000I100000J0D01*
G01*
X46307487Y7010000D01*
G75*
G02*
X46407487Y6910000I0J-100000D01*
G01*
X46407487Y6110000D01*
G75*
G02*
X46307487Y6010000I-100000J0D01*
G01*
G37*
G04 #@! TD*
G04 #@! TO.C,R5*
G36*
G01*
X89692487Y62960000D02*
X90472487Y62960000D01*
G75*
G02*
X90542487Y62890000I0J-70000D01*
G01*
X90542487Y62330000D01*
G75*
G02*
X90472487Y62260000I-70000J0D01*
G01*
X89692487Y62260000D01*
G75*
G02*
X89622487Y62330000I0J70000D01*
G01*
X89622487Y62890000D01*
G75*
G02*
X89692487Y62960000I70000J0D01*
G01*
G37*
G36*
G01*
X89692487Y61360000D02*
X90472487Y61360000D01*
G75*
G02*
X90542487Y61290000I0J-70000D01*
G01*
X90542487Y60730000D01*
G75*
G02*
X90472487Y60660000I-70000J0D01*
G01*
X89692487Y60660000D01*
G75*
G02*
X89622487Y60730000I0J70000D01*
G01*
X89622487Y61290000D01*
G75*
G02*
X89692487Y61360000I70000J0D01*
G01*
G37*
G04 #@! TD*
G04 #@! TO.C,R6*
G36*
G01*
X110392487Y71960000D02*
X111172487Y71960000D01*
G75*
G02*
X111242487Y71890000I0J-70000D01*
G01*
X111242487Y71330000D01*
G75*
G02*
X111172487Y71260000I-70000J0D01*
G01*
X110392487Y71260000D01*
G75*
G02*
X110322487Y71330000I0J70000D01*
G01*
X110322487Y71890000D01*
G75*
G02*
X110392487Y71960000I70000J0D01*
G01*
G37*
G36*
G01*
X110392487Y70360000D02*
X111172487Y70360000D01*
G75*
G02*
X111242487Y70290000I0J-70000D01*
G01*
X111242487Y69730000D01*
G75*
G02*
X111172487Y69660000I-70000J0D01*
G01*
X110392487Y69660000D01*
G75*
G02*
X110322487Y69730000I0J70000D01*
G01*
X110322487Y70290000D01*
G75*
G02*
X110392487Y70360000I70000J0D01*
G01*
G37*
G04 #@! TD*
G04 #@! TO.C,R2*
G36*
G01*
X49572487Y19860000D02*
X48792487Y19860000D01*
G75*
G02*
X48722487Y19930000I0J70000D01*
G01*
X48722487Y20490000D01*
G75*
G02*
X48792487Y20560000I70000J0D01*
G01*
X49572487Y20560000D01*
G75*
G02*
X49642487Y20490000I0J-70000D01*
G01*
X49642487Y19930000D01*
G75*
G02*
X49572487Y19860000I-70000J0D01*
G01*
G37*
G36*
G01*
X49572487Y21460000D02*
X48792487Y21460000D01*
G75*
G02*
X48722487Y21530000I0J70000D01*
G01*
X48722487Y22090000D01*
G75*
G02*
X48792487Y22160000I70000J0D01*
G01*
X49572487Y22160000D01*
G75*
G02*
X49642487Y22090000I0J-70000D01*
G01*
X49642487Y21530000D01*
G75*
G02*
X49572487Y21460000I-70000J0D01*
G01*
G37*
G04 #@! TD*
G04 #@! TO.C,U8*
G36*
G01*
X61957487Y77660000D02*
X61957487Y77360000D01*
G75*
G02*
X61807487Y77210000I-150000J0D01*
G01*
X60157487Y77210000D01*
G75*
G02*
X60007487Y77360000I0J150000D01*
G01*
X60007487Y77660000D01*
G75*
G02*
X60157487Y77810000I150000J0D01*
G01*
X61807487Y77810000D01*
G75*
G02*
X61957487Y77660000I0J-150000D01*
G01*
G37*
G36*
G01*
X61957487Y76390000D02*
X61957487Y76090000D01*
G75*
G02*
X61807487Y75940000I-150000J0D01*
G01*
X60157487Y75940000D01*
G75*
G02*
X60007487Y76090000I0J150000D01*
G01*
X60007487Y76390000D01*
G75*
G02*
X60157487Y76540000I150000J0D01*
G01*
X61807487Y76540000D01*
G75*
G02*
X61957487Y76390000I0J-150000D01*
G01*
G37*
G36*
G01*
X61957487Y75120000D02*
X61957487Y74820000D01*
G75*
G02*
X61807487Y74670000I-150000J0D01*
G01*
X60157487Y74670000D01*
G75*
G02*
X60007487Y74820000I0J150000D01*
G01*
X60007487Y75120000D01*
G75*
G02*
X60157487Y75270000I150000J0D01*
G01*
X61807487Y75270000D01*
G75*
G02*
X61957487Y75120000I0J-150000D01*
G01*
G37*
G36*
G01*
X61957487Y73850000D02*
X61957487Y73550000D01*
G75*
G02*
X61807487Y73400000I-150000J0D01*
G01*
X60157487Y73400000D01*
G75*
G02*
X60007487Y73550000I0J150000D01*
G01*
X60007487Y73850000D01*
G75*
G02*
X60157487Y74000000I150000J0D01*
G01*
X61807487Y74000000D01*
G75*
G02*
X61957487Y73850000I0J-150000D01*
G01*
G37*
G36*
G01*
X57007487Y73850000D02*
X57007487Y73550000D01*
G75*
G02*
X56857487Y73400000I-150000J0D01*
G01*
X55207487Y73400000D01*
G75*
G02*
X55057487Y73550000I0J150000D01*
G01*
X55057487Y73850000D01*
G75*
G02*
X55207487Y74000000I150000J0D01*
G01*
X56857487Y74000000D01*
G75*
G02*
X57007487Y73850000I0J-150000D01*
G01*
G37*
G36*
G01*
X57007487Y75120000D02*
X57007487Y74820000D01*
G75*
G02*
X56857487Y74670000I-150000J0D01*
G01*
X55207487Y74670000D01*
G75*
G02*
X55057487Y74820000I0J150000D01*
G01*
X55057487Y75120000D01*
G75*
G02*
X55207487Y75270000I150000J0D01*
G01*
X56857487Y75270000D01*
G75*
G02*
X57007487Y75120000I0J-150000D01*
G01*
G37*
G36*
G01*
X57007487Y76390000D02*
X57007487Y76090000D01*
G75*
G02*
X56857487Y75940000I-150000J0D01*
G01*
X55207487Y75940000D01*
G75*
G02*
X55057487Y76090000I0J150000D01*
G01*
X55057487Y76390000D01*
G75*
G02*
X55207487Y76540000I150000J0D01*
G01*
X56857487Y76540000D01*
G75*
G02*
X57007487Y76390000I0J-150000D01*
G01*
G37*
G36*
G01*
X57007487Y77660000D02*
X57007487Y77360000D01*
G75*
G02*
X56857487Y77210000I-150000J0D01*
G01*
X55207487Y77210000D01*
G75*
G02*
X55057487Y77360000I0J150000D01*
G01*
X55057487Y77660000D01*
G75*
G02*
X55207487Y77810000I150000J0D01*
G01*
X56857487Y77810000D01*
G75*
G02*
X57007487Y77660000I0J-150000D01*
G01*
G37*
G04 #@! TD*
M02*
